<?xml version="1.0" encoding="UTF-8"?>
<svg width="685.34" height="3733.2" enable-background="new 0 0 5000 5000" version="1.1" viewBox="0 0 685.34 3733.2" xml:space="preserve" xmlns="http://www.w3.org/2000/svg">
<g fill="{{ border_color }}"><path d="m68.851 3.4282c-57.191 42.873-71.339 111.1-36.814 153.5 6.851 7.868 14.012 15.478 20.58 23.574 31.352 38.646-14.124 67.307-37.543 41.867-7.1094-15.631 8.9585-1.9591 12.029-0.7793 34.158 12.116 26.396-29.576 6.8281-37.834-8.317-3.509-19.328-0.96218-23.871 6.6328-18.752 31.349-9.1795 48.84 11.396 54.332 5.573 1.488 11.878 0.23482 16.457 4.1328 1.56 2.921-0.31611 4.6066-1.4121 6.4356-23.629 39.431-3.8806 97.426 40.193 114.21 4.57 1.741 10.627 1.9155 12.686 8.2305-1.461 1.552-2.8563 3.3204-4.5273 4.7734-35.435 30.832-42.529 75.241-18.203 114.89 3.122 5.088 7.313 9.571 10.043 14.836 4.041 7.794 11.435 14.004 11.809 24.312-5.188 0.506-10.428 0.2386-15.176 1.6386-10.44 3.079-15.005 19.567-8.1758 27.971 10.461 12.871 31.647 11.594 39.939-2.5644 1.863-3.181 2.6201-6.9932 4.3281-10.285 1.664-3.208 5.1019-3.6815 7.5879-1.8535 18.617 13.691 36.414 30.985 42.834 52.998 4.439 15.221-2.9698 30.004-16.717 34.682-10.85 3.692-18.267-1.425-25.703-8.832-6.649-6.625-2.7774-12.079-0.35742-18.221 1.227-3.111 4.8943-5.9892 1.5293-9.8282-13.545 0.221-15.161 0.7492-19.742 6.4122-11.167 13.808-11.61 29.442 2.2793 44.562 17.134 18.652 3.0495-57.712 7.9375 1206.5-4.888 1264.2 9.1965 1187.9-7.9375 1206.5-13.889 15.12-13.446 30.754-2.2793 44.562 4.581 5.663 6.1962 6.1921 19.742 6.4121 3.365-3.839-0.3023-6.7171-1.5293-9.8281-2.42-6.142-6.2916-11.594 0.35742-18.219 7.436-7.407 14.853-12.527 25.703-8.8339 13.747 4.6779 21.157 19.462 16.717 34.682-6.421 22.013-24.218 39.307-42.834 52.998-2.486 1.827-5.9239 1.3545-7.5879-1.8535-1.708-3.292-2.4651-7.1041-4.3281-10.285-8.292-14.158-29.478-15.436-39.939-2.5645-6.829 8.404-2.2642 24.89 8.1758 27.969 4.747 1.4 9.9878 1.1326 15.176 1.6386-0.374 10.309-7.7676 16.518-11.809 24.312-2.729 5.265-6.921 9.748-10.043 14.836-24.327 39.645-17.232 84.055 18.203 114.89 1.67 1.453 3.0663 3.2214 4.5273 4.7734-2.059 6.315-8.1156 6.4905-12.686 8.2305-44.074 16.785-63.823 74.782-40.193 114.21 1.096 1.829 2.9721 3.5126 1.4121 6.4336-4.579 3.898-10.884 2.6448-16.457 4.1328-20.576 5.492-30.148 22.984-11.396 54.332 4.544 7.595 15.554 10.142 23.871 6.6328 19.569-8.257 27.33-49.95-6.8281-37.834-4.7159 1.6719-7.5701 6.5847-12.875 7.0078-0.66102-2.7366-1.1602-5.6109 0.8457-7.7891 23.419-25.44 68.895 3.2212 37.543 41.867-6.568 8.096-13.729 15.708-20.58 23.576-36.228 70.663-8.6218 128.3 35.674 152.59 19.394 4.9846 27.468 4.8871 55.42 0 4.3973-1.8607 9.0547-3.3042 12.326-5.4688 7.414-4.9055 21.903-13.881 24.834-22.854 0.85247-2.6091-5.7894-1.5267-5.7955-4.9152-8.452 4.754-12.375 16.247-22.015 17.019-35.688 2.8586-53.67-17.689-50.421-37.22 9.32-9.7003 34.337-19.882 15.433-9.3173-14.253 7.988-8.4379 26.842 3.6621 32.473 10.728 4.9929 29.747-11.505 22.662-33.451-6.269-19.417-28.255-20.791-41.617-8.0586-20.513 19.546-1.5699 48.662 2.8991 61.753-18.067-6.773-34.039-19.841-36.614-36.591-6.086-39.582 42.445-44.981 47.141-67.83 1.854-9.016-6.0711-16.466-14.789-13.52-4.862 1.643-9.2997 4.5662-14.18 6.1172-1.709 0.543-9.306-5.2373-2.998-9.3653 12.553-8.216 30.942 3.9259 47.207-9.2011 7.457-6.018 27.599-5.8358 52.229-24.969 7.5-5.826 13.081-4.5598 19.797 0.8692 13.556 10.96 29.481 16.878 45.961 22.414 41.88 14.07 43.152 7.6149 49.881 10.215 3.35 1.294 7.7525 2.4187 6.0195 7.3027-1.129 3.182-4.5594 3.5164-7.5664 2.1074-20.455-9.583-30.111 2.175-24.861 11.791 5.624 10.297 10.483 13.45 27.898 25.23 29.908 20.235 22.257 62.723-9.4199 75.875-3.436 1.426-7.9801 4.318-11.83-1.541 13.007-8.892 16.952-21.707 16.246-36.871-0.53799-11.577-5.0007-20.74-15.598-25.074-27.399-11.208-52.003 18.358-31.732 36.062 14.507 12.671 41.839-7.5951 21.471-24.791-4.6937-11.926 16.86 1.1412 11.869 21.116-10.486 43.936-55.789 34.002-80.031-6.8951-3.208-5.41-1.976-8.5211 5.582-10.541 23.559-6.2969 9.9092-19.664 34.994-35.219 3.709-2.299 8.9272-5.1838 7.6152-10.01-1.766-6.491-8.3097-5.2356-13.348-4.6406-14.602 1.724-22.01 9.9253-23.082 25.029-0.159 2.226 0.11269 4.4779 0.0547 6.7148-0.247 9.537-13.243 6.0008-11.834-1.5332 2.517-13.459 14.262-28.422 0.25586-56.123-9.31-18.414-30.171 5.5879-18.047 43.758 2.548 8.023 9.5114 15.883 0.94336 19.508-14.043 5.944-2.1262-34.64-27.785-39.461-9.652-1.813-17.541 0.7184-22.018 10.398 16.755 6.781 18.147 7.8966 26.898 21.934 5.092 8.166 10.376 21.26 21.891 19.525 7.515-1.133 7.5641 3.2141 5.4141 7.7871-2.509 5.34-12.519 12.19-14.219 17.305-1.1646 3.2574 4.8053 6.1491 6.7691 5.2145 8.8399-4.207 14.17-15.311 20.068-6.9573 10.213 14.469 22.831 25.378 39.608 31.12 14.925 8.7589 41.684 6.8887 57.882 2.5149 22.193-7.054 40.625-21.693 50.179-43.794 21.059-48.715 1.39-86.445-33.502-125.55-32.442-36.357-11.599-62.788 14.525-59.98 12.144 1.306 17.154 7.23 20.773 25.623-4.093-4.675-7.0213-8.8346-10.736-12.1-8.732-7.672-21.171-5.2096-26.426 4.8574-8.014 15.353 2.4674 33.6 19.691 34.281 14.931 0.59 26.035-8.685 27.818-23.459 3.287-27.235-19.483-37.298-30.107-43.896 29.023-43.923 14.576-105.19-49.162-123.79 22.342-25.73 22.12-24.781 23.438-28.119 33.457-84.75-25.753-104.43-24.195-133.94 4.527-0.715 9.0365-0.8776 13.188-2.1816 13.728-4.311 17.325-13.336 10.686-25.793-3.89-7.3-9.8426-10.952-18.225-10.504-26.824 1.432-24.332 20.221-32.133 23.602-72.147-34.019-51.375-112.03-11.352-83.951 2.925 2.054 4.2997 6.3164 8.6777 6.3164 4.047 0 4.0084-7.4987 10.691-5.8047-5.671 12.245-19.116 18.555-20.43 32.215 17.22 2.242 17.634 1.519 25.047-8.207 10.733-14.08 10.024-29.098-0.22851-41.109-9.069-10.624-8.869-21.571-8.877-33.289-0.487-696.51-2.1846-1022-1.8106-1175.6-0.374-153.56 1.3226-479.06 1.8106-1175.6 8e-3 -11.717-0.19304-22.665 8.877-33.289 10.253-12.01 10.962-27.028 0.22851-41.109-7.414-9.726-7.8279-10.449-25.047-8.207 6.9676 17.685 13.272 16.991 9.7383 26.41-4.378 0-5.7527 4.2634-8.6777 6.3164-40.023 28.077-60.795-49.932 11.352-83.951 7.801 3.3809 5.3088 22.168 32.133 23.602 8.381 0.448 14.335-3.2039 18.225-10.504 6.639-12.457 3.0424-21.482-10.686-25.793-4.151-1.304-8.6615-1.4666-13.188-2.1816-1.558-29.514 57.652-49.193 24.195-133.94-1.317-3.338-1.0955-2.3891-23.438-28.119 63.737-18.598 78.184-79.864 49.162-123.79 10.624-6.599 33.394-16.662 30.107-43.898-1.783-14.774-12.888-24.047-27.818-23.457-17.224 0.681-27.704 18.927-19.691 34.279 5.254 10.068 17.693 12.53 26.426 4.8574 20.117-23.133 2.3727 11.966-10.037 13.523-26.124 2.807-46.968-23.622-14.525-59.979 34.893-39.102 54.562-76.834 33.502-125.55-9.554-22.101-27.191-35.547-49.384-42.601-14.345-6.3724-37.53-7.4404-51.86-3.3601-21.049 11.632-34.085 18.693-46.426 35.803-5.3847 7.6284-10.051-6.507-17.178-10.98-5.2929-3.3219-9.713-2.1557-7.7481 5.7068 4.0545 4.5563 9.799 15.494 12.309 20.834 2.15 4.573 2.1009 8.9221-5.4141 7.7891-11.515-1.736-16.799 11.358-21.891 19.525-8.751 14.037-10.143 15.153-26.898 21.934 4.477 9.68 12.366 12.211 22.018 10.398 25.659-4.821 13.742-45.407 27.785-39.463 8.568 3.626 1.6046 11.485-0.94336 19.508-12.125 38.171 8.7359 62.173 18.047 43.758 14.006-27.701 2.2611-42.664-0.25586-56.123-1.409-7.534 11.587-11.068 11.834-1.5312 0.058 2.237-0.21369 4.4869-0.0547 6.7129 1.072 15.104 8.48 23.303 23.082 25.027 5.037 0.595 11.582 1.8523 13.348-4.6387 1.312-4.826-3.9072-7.7108-7.6152-10.01-25.085-15.555-11.435-28.922-34.994-35.219-7.558-2.02-8.79-5.131-5.582-10.541 37.41-28.302 56.137-44.933 84.289-10.356 1.941 8.13 2.3629 13.112-2.6391 18.637-5.535 6.116-8.582 13.252-19.678 9.97 4.387-2.932 3.5104-1.7681 6.1904-4.0311 20.368-17.196-6.9637-37.464-21.471-24.793-20.272 17.705 4.3324 47.271 31.732 36.064 10.597-4.333 15.06-13.497 15.598-25.074 0.706-15.163-3.2401-27.979-16.246-36.871 3.849-5.859 8.3941-2.9651 11.83-1.5391 31.676 13.153 39.327 55.64 9.4199 75.875-17.414 11.782-22.274 14.933-27.898 25.23-14.43 12.305-9.8402 13.6-23.473 31.416-16.48 5.537-32.405 11.454-45.961 22.414-6.716 5.43-12.297 6.6951-19.797 0.86914-24.63-19.133-44.773-18.95-52.229-24.969-5.382-13.929-6.2017-13.837-15.24-25.969-4.696-22.849-53.227-28.248-47.141-67.83 2.574-16.75 12.713-27.746 30.781-34.52-4.469 13.091-17.579 40.136 2.9336 59.682 13.362 12.732 35.348 11.359 41.617-8.0586 7.085-21.946-11.934-38.444-22.662-33.451-12.1 5.631-17.915 24.485-3.6621 32.473 3.162 1.771 6.369 3.4608 9.916 5.3848-12.24 3.192-17.187-4.2284-23.575-12.662-6.595-23.509 12.018-56.458 48.648-39.26 8.754 4.11 15.263 8.931 23.715 13.685 8e-3 -4.405 8.7194-3.6665 6.9362-6.3247-4.305-6.4171-20.908-13.631-27.675-18.11-3.8116-2.5227-9.2332-3.3686-14.361-6.373-18.529-2.9247-33.258-5.97-52.244 0zm54.123 170.85c1.6789 0.12338 3.3538 1.047 4.9883 1.709 14.2 5.757 24.305 16.994 35.568 26.676 8.991 7.728 9.4711 7.7409 18.412-0.0781 22.447-19.627 28.616-26.263 38.35-24.668 1.793-2.395-2.3505-1.0651 0.51954-1.9121 1.769-0.522 2.3027 0.0305 1.7187 1.7695-0.95299 2.837 0.53141-1.2448-1.9336 0.45117-3.488 22.89-10.992 44.387 11.428 46.449 9.995 0.918 16.353-4.2745 19.152-14.604 1.693-6.245-2.9114-17.966 8.2656-16.84 15.254 1.538-11.623 30.925 27.477 49.992 19.931 9.718 24.784 28.817 27.41 47.902 2.734 19.876-2.1004 38.104-21.109 51.188-1.501-9.243 3.9264-15.453 5.1934-22.666 3.787-21.575-1.7336-39.71-17.891-54.576-17.88-16.45-43.484 4.3217-27.627 19.098 2.3415 12.186-1.313 1.1126-5.5488 27.869-1.766 12.06 14.566 24.154-8.3242 38.799-3.143 2.011-6.1474 4.6939-9.6094 5.6719-23.099 6.521-40.943 20.397-55.578 40.551-12.448-20.946-31.778-30.574-51.865-38.701-16.414-6.641-30.438-16.292-25.523-33.215 8.0387-23.066-3.0132-22.542-2.4824-35.504 9.718-6.601 11.691-12.551 7.2441-20.277-5.04-8.757-13.999-12.537-22.816-8.4883-19.496 8.954-24.723 23.915-27.252 45.395-1.351 11.466-0.21622 22.458 9.3848 30.711 0.10463 0.76742 1.0571 0.71302 1.3027 1.3437-0.30112-0.61985-1.3535-0.48333-1.3848-1.375-2.793 1.619-5.6194 1.6407-7.9414-0.86328-23.482-25.317-22.655-73.027 10.15-94.312 26.642-17.288 12.66-33.129 17.186-41.428 2.699-4.948 10.475-5.9705 11.283 0.60547 0.452 3.681-0.02761 7.4876 0.52539 11.143 1.434 9.462 8.4202 15.726 18.074 16.668 21.503 2.099 19.478-25.739 14.318-37.617-2.048-4.719-4.1512-9.4135-6.0762-13.771 1.65-2.5395 3.3328-3.2171 5.0117-3.0938zm96.027 206.09c3.0274 0.8102 5.9177 2.8571 8.6367 6.621 6.552 9.072 8.9158 18.827 2.9648 29.27-13.065 22.924-13.793 23.437 5.0664 34.125-14.929 11.495-13.794 29.765-21.469 44.726 20.72 8.754 37.116-16.981 45.018-5.1914 6.874 10.256-18.746 6.8247-34.596 37.391-0.682 1.315-2.3945 2.4394-2.4375 3.6914-1.053 30.54-37.518 25.879-44.34 81.83-4.016 32.934 31.492 50.424 34.41 70.336 0.425 2.905 1.4661 6.4993-1.3359 8.3613-4.775 3.173-5.6638-1.987-7.9648-4.375-8.245-8.557-13.773-8.9192-22.674-1.8223-7.882 6.285-7.8366 6.2356-14.602-0.066-12.804-11.928-22.149-7.0416-24.441 4.9454-2.0996 8.6898-9.9776 4.6222-9.1289-4.4336 1.929-17.292 15.444-22.247 28.732-41.643 20.652-30.145 5.5161-61.489-21.088-86.711-7.662-7.265-14.535-13.161-14.338-25.816 0.31-19.943-24.427-22.069-48.49-38.918-1.811-1.268-3.7115-2.6014-2.6465-6.4024 6.057-1.234 13.629 4.8215 19.967-1.8515 4.246-4.47 6.9595 7.7985 30.064 11.976 5.016 0.907 9.2606-3.1083 7.8086-7.9883-3.962-13.32-4.6361-28.218-18.373-37.291 4.162-5.517 12.425-4.5716 13.334-11.6 2.247-17.388-8.4393-12.738-12.402-29.861-3.8-16.422 9.087-20.136 25.668-28.539 11.551-5.854 40.655 31.163 25.508 41.084-11.003 7.206-11.4 18.504-12.496 29.606-1.114 11.286 4.4028 24.159-8.5742 32.531-1.928 1.244 3.0044 7.0433 6.4824 7.1543 9.439 0.302 17.77-6.4567 20.443-17.18 0.874-3.506 0.5402-7.3154 1.6582-11.232 0.80478 10.836 4.3159 20.5 10.877 28.963 11.161 1.1996 15.676 2.7708 18.916-1.5332 4.64-6.162-2.671-9.0183-5.543-12.611-7.063-8.837-2.8703-15.988-2.8223-30.232 0.083-24.929-18.098-20.078-15.547-35.033 1.284-7.5279 2.7519-14.73 9.7539-19.219 10.606-6.7987 20.918-15.491 30-13.06zm-34.758 111.69c-0.15557-0.017-0.1914-0.02-0.34961-0.037l0.51562 0.4766c-0.10109-0.128-0.0664-0.311-0.16601-0.4395zm59.467-110.2c13.008 1.0346 18.708 12.281 24.799 20.691 14.08 19.437 1.4096 50.898-18.945 64.734-4.2113-7.2199 2.1733-12.324 4.3848-17.881 9.0364-22.711 7.959-50.692-10.238-67.545zm-134.54 3.4414 0.76954 1.2265c-37.274 38.767-5.6312 70.026-6.1602 76.072-0.508 5.815-6.7035 3.6798-8.3125 2.5078-25.404-18.493-28.859-64.009 5.8809-79.027 3.014-1.302 5.6859-1.0097 8.2969 0.8203zm139.73 81.631 0.58398 0.4278c-0.18936 0.1281-0.31713 0.3593-0.50781 0.4844zm-24.361 230.17 0.0547 1162.6-0.0547 1162.6c-8.036-9.369-16.362-12.022-16.043-22.356 4e-3 -0.139-0.74975-884.35-0.96875-1140.3 0.219-255.94 0.97275-1140.2 0.96875-1140.3-0.32-10.334 8.006-12.986 16.043-22.355zm-96.541 3.8672c0.13427 0.1026 0.12469 0.2557 0.25585 0.3593l-1.1953 0.1368c0.453 1.1969 0.76546 1.0309 0.93946-0.4961zm0.36523 0.5136c9.1946 7.3688 10.878 17.192 10.736 28.674-0.293 24.101-0.95528 870.83-0.73828 1129.6-0.217 258.76 0.44528 1105.5 0.73828 1129.6 0.14213 11.481-1.5417 21.308-10.736 28.676-1.4603-2.4735-3.9336-4.9013-4.0508-7.4375-1.398-30.211-3.7009-866.76-1.3359-1150.8-2.365-284.07-0.0621-1120.6 1.3359-1150.8 0.11719-2.5362 2.5904-4.964 4.0508-7.4375zm52.246 10.478c14.472 2.148 14.639 2.1484 14.602 13.82-2.259 718.41 0.88507 1013.3 1.2051 1134-0.32 120.7-3.4651 415.56-1.2051 1134 0.036 11.672-0.13058 11.672-14.602 13.82-1.873-41.226-5.6057-877.49-2.0137-1147.8-3.591-270.3 0.14067-1106.6 2.0137-1147.8zm-16.48 0.2305c4.1242 1.57 3.1656 75.599 3.1113 1147.6 0.062 1225.1 1.303 1146.8-5.209 1146.5-4.505-0.193-11.304-4.0895-10.508-9.0195 2.056-12.739-1.4162-25.22-1.4102-37.791 0.359-693.07-0.81816-980.67-0.66016-1099.7-0.158-119.01 1.0202-406.61 0.66016-1099.7-6e-3 -12.571 3.4662-25.052 1.4102-37.791-0.796-4.9299 6.0028-8.8265 10.508-9.0195 0.814-0.035 1.5085-1.2907 2.0976-1.0664zm-37.07 2305.8 1.1953 0.1387c-0.13115 0.1036-0.1216 0.2568-0.25585 0.3593-0.174-1.527-0.48646-1.695-0.93946-0.498zm13.395 2.5605c2.992 3.065 0.25821 5.9395 0.78321 8.6895 2.292 11.987 11.637 16.873 24.441 4.9453 6.765-6.302 6.7206-6.3514 14.602-0.066 8.9 7.097 14.428 6.7347 22.674-1.8223 2.301-2.387 3.1908-7.547 7.9648-4.375 2.802 1.862 1.7609 5.4564 1.3359 8.3614-2.917 19.912-38.425 37.402-34.41 70.336 6.822 55.951 43.287 51.29 44.34 81.83 0.043 1.253 1.7555 2.3774 2.4375 3.6914 15.85 30.566 41.47 27.135 34.596 37.391-7.902 11.79-24.298-13.945-45.018-5.1914 7.675 14.962 6.5408 33.232 21.469 44.727-18.859 10.688-18.131 11.2-5.0664 34.125 5.951 10.444 3.5872 20.2-2.9648 29.272-10.876 15.056-24.496 2.6235-38.637-6.4415-7.002-4.4889-8.4699-11.692-9.7539-19.219-2.55-14.955 15.63-10.105 15.547-35.033-0.048-14.244-4.2407-21.396 2.8223-30.232 2.872-3.594 10.183-6.4474 5.543-12.609-3.2398-4.303-7.755-2.7328-18.916-1.5313-6.5611 8.4633-10.072 18.128-10.877 28.963-1.118-3.917-0.7842-7.7234-1.6582-11.23-2.673-10.723-11.004-17.484-20.443-17.182-3.478 0.111-8.4104 5.9103-6.4824 7.1543 12.977 8.371 7.4602 21.245 8.5742 32.531 1.096 11.102 1.4941 22.398 12.496 29.605 15.146 9.92-13.957 46.938-25.508 41.084-16.58-8.403-29.468-12.116-25.668-28.539 3.962-17.123 14.649-12.473 12.402-29.861-0.908-7.028-9.172-6.0835-13.334-11.602 13.737-9.072 14.411-23.971 18.373-37.291 1.452-4.88-2.7926-8.8943-7.8086-7.9883-23.105 4.178-25.818 16.446-30.064 11.976-6.338-6.673-13.91-0.6175-19.967-1.8515-1.065-3.801 0.83549-5.1344 2.6465-6.4024 24.063-16.849 48.8-18.975 48.49-38.918-0.198-12.655 6.6749-18.553 14.338-25.818 26.604-25.222 41.74-56.564 21.088-86.709-13.288-19.397-26.802-24.352-28.732-41.644-0.724-6.495 1.6997-11.31 8.3457-13.123zm43.789 206.85c0.0996-0.1285 0.0649-0.3115 0.16601-0.4394l-0.51562 0.4766c0.15821-0.017 0.19404-0.02 0.34961-0.037zm64.734 24.217c0.1907 0.1251 0.31843 0.3563 0.50781 0.4844l-0.58398 0.4278zm0.58594 0.5586c20.356 13.836 33.025 45.297 18.945 64.734-6.0906 8.4103-11.79 19.657-24.799 20.691 18.197-16.852 19.275-44.834 10.238-67.545-2.2114-5.5569-8.597-10.661-4.3848-17.881zm-149.53 0.8106c1.8132 0.047 3.4896 0.9675 3.7441 3.875 0.529 6.046-31.114 37.306 6.1602 76.072l-0.76954 1.2265 0.47461-1.5996c-2.611 1.83-5.2829 2.1223-8.2969 0.8203-34.74-15.018-31.285-60.534-5.8809-79.027 0.8045-0.5855 2.7551-1.4137 4.5684-1.3672zm73.803 69.414c14.635 20.155 32.479 34.028 55.578 40.549 3.462 0.978 6.4664 3.6619 9.6094 5.6718 22.89 14.645 6.5563 26.739 8.3223 38.799 0.914 6.247 3.6025 11.992 10.188 13.34 5.4545 1.1167 11.102 0.4335 13.979-5.6523 0.3943 3.2209 1.5471 6.5925-2.0547 8.9453-5.594 3.654-11.737 6.7413-16.561 11.236-15.857 14.775 9.745 35.55 27.625 19.1 16.158-14.866 21.679-33.002 17.891-54.576-1.266-7.213-6.6924-13.424-5.1914-22.666 19.009 13.084 23.842 31.312 21.107 51.188-2.626 19.085-7.4792 38.184-27.41 47.902-39.1 19.067-12.223 48.454-27.477 49.992-11.178 1.126-6.5707-10.594-8.2637-16.84-2.798-10.329-9.1574-15.522-19.152-14.604-22.42 2.062-14.919 23.558-11.43 46.449 2.465 1.697 0.98059-2.3848 1.9336 0.4512 0.584 1.739 0.0522 2.2905-1.7168 1.7695-2.87-0.848 1.2705 0.4839-0.52149-1.9121-9.734 1.595-15.903-5.041-38.35-24.668-8.942-7.82-9.4202-7.8081-18.41-0.08-11.263 9.682-21.368 20.92-35.568 26.676-3.268 1.325-6.7 3.6942-10-1.3848 1.924-4.358 4.0252-9.0535 6.0742-13.772 5.16-11.878 7.1866-39.714-14.316-37.615-9.654 0.942-16.642 7.206-18.076 16.668-0.553 3.655-0.07144 7.4597-0.52344 11.141-0.807 6.575-8.5842 5.5544-11.283 0.6074-4.526-8.299 9.4564-24.142-17.186-41.43-32.805-21.286-33.632-68.995-10.15-94.31 2.321-2.504 5.1484-2.4823 7.9414-0.8633 0.03037-0.8668 1.0592-0.7288 1.3457-1.3379-0.23402 0.6163-1.1624 0.56-1.2637 1.3047-9.601 8.253-10.738 19.245-9.3867 30.711 2.529 21.479 7.756 36.44 27.252 45.394 8.818 4.049 17.776 0.2678 22.816-8.4882 4.446-7.726 2.4738-13.674-7.2441-20.275-2.995-2.034-7.1659-2.4547-8.3379-6.7227 14.247-10.148 15.688-12.03 10.822-28.783-4.914-16.923 9.1104-26.574 25.523-33.215 20.087-8.127 39.416-17.752 51.865-38.699z"/><path d="m29.358 3714.3c-0.646-18.264-25.528-14.173-25.224 1.224 0.418 21.19 26.044 21.942 25.224-1.224zm-17.275 3.622c-1.973-6.107 6.485-5.535 8.654-2.913 3.158 3.822-5.477 8.264-8.654 2.913z"/><path d="m329.24 3702.6c-7.493-0.056-13.691 6.232-13.814 14.016-0.134 8.455 6.937 16.131 14.829 16.101 12.958-0.053 19.385-29.964-1.015-30.117zm-8.319 15.388c0.657-9.182 14.289-4.571 14.098 0.854-0.118 3.346-2.822 5.112-6.065 5.323-4.42 0.291-6.552-2.671-8.033-6.177z"/><path d="m121.25 294.36c-2.412-17.085 16.073-21.329 28.098-15.006 9.146 4.81 6.517 14.912 8.906 30.808 0.7 4.657 10.022 2.821 8.96-1.889-2.781-12.341-10.848-28.003-0.924-47.631 2.834-5.607 4.125-10.599-2.8-15.237-7.582-5.077-5.614-11.161-0.898-17.341 12.556-16.454 30.32 1.757 23.703 12.147-6.296 9.884-2.744 18.429 0.176 27.27 4.571 13.839 0.705 26.357-4.351 38.998-2.713 6.783 9.618 9.166 10.64 1.985 0.731-5.135 0.127-10.484 1.062-15.563 2.123-11.531 11.382-18.11 22.507-16.809 10.241 1.197 17.664 15.172 7.985 17.407-10.22 2.361-14.197 9.237-17.46 18.204-8.117 22.308-9.373 22.882-31.853 22.707-48.5-0.38-20.616-37.171-53.025-39.328z"/><path d="m121.25 3425.1c-2.412 17.085 16.073 21.329 28.098 15.006 9.146-4.81 6.517-14.912 8.906-30.808 0.7-4.657 10.022-2.821 8.96 1.889-2.781 12.341-10.848 28.003-0.924 47.631 2.834 5.607 4.125 10.6-2.8 15.237-7.582 5.077-5.614 11.161-0.898 17.341 12.556 16.454 30.32-1.757 23.703-12.147-6.296-9.884-2.744-18.429 0.176-27.27 4.571-13.839 0.705-26.357-4.351-38.998-2.713-6.783 9.618-9.166 10.64-1.985 0.731 5.135 0.127 10.484 1.062 15.563 2.123 11.531 11.382 18.11 22.507 16.809 10.241-1.197 17.664-15.172 7.985-17.407-10.22-2.361-14.197-9.237-17.46-18.204-8.117-22.308-9.373-22.882-31.853-22.707-48.5 0.379-20.616 37.171-53.025 39.328z"/><path d="m162.85 362.61c-0.178-5.934 5.717-13.234 11.554-14.307 5.513-1.013 11.8 5.664 12.169 12.924 0.787 15.485-23.373 13.021-23.723 1.383z"/><path d="m162.85 3356.9c-0.178 5.934 5.717 13.234 11.554 14.307 5.513 1.013 11.8-5.664 12.169-12.924 0.787-15.485-23.373-13.021-23.723-1.383z"/><path d="m121.98 295.08-1.987 2.987c-2.375-2.197-1.223-3.18 1.261-3.708z"/><path d="m121.98 3424.4-1.987-2.987c-2.375 2.197-1.223 3.18 1.261 3.708z"/><path d="m157.33 34.169c-104.88-22.779-52.442-11.39 0 0z"/><path d="m157.33 3685.3c2.863-0.542 4.617-2.199 5.137-5.099-3.151 0.25-4.376 2.44-5.137 5.099z"/><path d="m157.27 3714.1c6e-3 10.169 8.159 19.058 17.513 19.093 6.898 0.025 14.416-8.42 14.811-16.639 0.427-8.898-5.823-16.674-13.672-17.004-9.741-0.412-18.657 6.543-18.652 14.55zm6.338 1.15c0.307-4.561 6.058-8.724 11.143-8.066 9.931 1.286 8.906 16.794-1.611 18.012-4.364 0.505-9.841-5.368-9.532-9.946z"/></g><g transform="matrix(-1 0 0 1 685.34 -3.127e-8)" fill="{{ border_color }}"><path d="m68.851 3.4282c-57.191 42.873-71.339 111.1-36.814 153.5 6.851 7.868 14.012 15.478 20.58 23.574 31.352 38.646-14.124 67.307-37.543 41.867-7.1094-15.631 8.9585-1.9591 12.029-0.7793 34.158 12.116 26.396-29.576 6.8281-37.834-8.317-3.509-19.328-0.96218-23.871 6.6328-18.752 31.349-9.1795 48.84 11.396 54.332 5.573 1.488 11.878 0.23482 16.457 4.1328 1.56 2.921-0.31611 4.6066-1.4121 6.4356-23.629 39.431-3.8806 97.426 40.193 114.21 4.57 1.741 10.627 1.9155 12.686 8.2305-1.461 1.552-2.8563 3.3204-4.5273 4.7734-35.435 30.832-42.529 75.241-18.203 114.89 3.122 5.088 7.313 9.571 10.043 14.836 4.041 7.794 11.435 14.004 11.809 24.312-5.188 0.506-10.428 0.2386-15.176 1.6386-10.44 3.079-15.005 19.567-8.1758 27.971 10.461 12.871 31.647 11.594 39.939-2.5644 1.863-3.181 2.6201-6.9932 4.3281-10.285 1.664-3.208 5.1019-3.6815 7.5879-1.8535 18.617 13.691 36.414 30.985 42.834 52.998 4.439 15.221-2.9698 30.004-16.717 34.682-10.85 3.692-18.267-1.425-25.703-8.832-6.649-6.625-2.7774-12.079-0.35742-18.221 1.227-3.111 4.8943-5.9892 1.5293-9.8282-13.545 0.221-15.161 0.7492-19.742 6.4122-11.167 13.808-11.61 29.442 2.2793 44.562 17.134 18.652 3.0495-57.712 7.9375 1206.5-4.888 1264.2 9.1965 1187.9-7.9375 1206.5-13.889 15.12-13.446 30.754-2.2793 44.562 4.581 5.663 6.1962 6.1921 19.742 6.4121 3.365-3.839-0.3023-6.7171-1.5293-9.8281-2.42-6.142-6.2916-11.594 0.35742-18.219 7.436-7.407 14.853-12.527 25.703-8.8339 13.747 4.6779 21.157 19.462 16.717 34.682-6.421 22.013-24.218 39.307-42.834 52.998-2.486 1.827-5.9239 1.3545-7.5879-1.8535-1.708-3.292-2.4651-7.1041-4.3281-10.285-8.292-14.158-29.478-15.436-39.939-2.5645-6.829 8.404-2.2642 24.89 8.1758 27.969 4.747 1.4 9.9878 1.1326 15.176 1.6386-0.374 10.309-7.7676 16.518-11.809 24.312-2.729 5.265-6.921 9.748-10.043 14.836-24.327 39.645-17.232 84.055 18.203 114.89 1.67 1.453 3.0663 3.2214 4.5273 4.7734-2.059 6.315-8.1156 6.4905-12.686 8.2305-44.074 16.785-63.823 74.782-40.193 114.21 1.096 1.829 2.9721 3.5126 1.4121 6.4336-4.579 3.898-10.884 2.6448-16.457 4.1328-20.576 5.492-30.148 22.984-11.396 54.332 4.544 7.595 15.554 10.142 23.871 6.6328 19.569-8.257 27.33-49.95-6.8281-37.834-4.7159 1.6719-7.5701 6.5847-12.875 7.0078-0.66102-2.7366-1.1602-5.6109 0.8457-7.7891 23.419-25.44 68.895 3.2212 37.543 41.867-6.568 8.096-13.729 15.708-20.58 23.576-36.228 70.663-8.6218 128.3 35.674 152.59 19.394 4.9846 27.468 4.8871 55.42 0 4.3973-1.8607 9.0547-3.3042 12.326-5.4688 7.414-4.9055 21.903-13.881 24.834-22.854 0.85247-2.6091-5.7894-1.5267-5.7955-4.9152-8.452 4.754-12.375 16.247-22.015 17.019-35.688 2.8586-53.67-17.689-50.421-37.22 9.32-9.7003 34.337-19.882 15.433-9.3173-14.253 7.988-8.4379 26.842 3.6621 32.473 10.728 4.9929 29.747-11.505 22.662-33.451-6.269-19.417-28.255-20.791-41.617-8.0586-20.513 19.546-1.5699 48.662 2.8991 61.753-18.067-6.773-34.039-19.841-36.614-36.591-6.086-39.582 42.445-44.981 47.141-67.83 1.854-9.016-6.0711-16.466-14.789-13.52-4.862 1.643-9.2997 4.5662-14.18 6.1172-1.709 0.543-9.306-5.2373-2.998-9.3653 12.553-8.216 30.942 3.9259 47.207-9.2011 7.457-6.018 27.599-5.8358 52.229-24.969 7.5-5.826 13.081-4.5598 19.797 0.8692 13.556 10.96 29.481 16.878 45.961 22.414 41.88 14.07 43.152 7.6149 49.881 10.215 3.35 1.294 7.7525 2.4187 6.0195 7.3027-1.129 3.182-4.5594 3.5164-7.5664 2.1074-20.455-9.583-30.111 2.175-24.861 11.791 5.624 10.297 10.483 13.45 27.898 25.23 29.908 20.235 22.257 62.723-9.4199 75.875-3.436 1.426-7.9801 4.318-11.83-1.541 13.007-8.892 16.952-21.707 16.246-36.871-0.53799-11.577-5.0007-20.74-15.598-25.074-27.399-11.208-52.003 18.358-31.732 36.062 14.507 12.671 41.839-7.5951 21.471-24.791-4.6937-11.926 16.86 1.1412 11.869 21.116-10.486 43.936-55.789 34.002-80.031-6.8951-3.208-5.41-1.976-8.5211 5.582-10.541 23.559-6.2969 9.9092-19.664 34.994-35.219 3.709-2.299 8.9272-5.1838 7.6152-10.01-1.766-6.491-8.3097-5.2356-13.348-4.6406-14.602 1.724-22.01 9.9253-23.082 25.029-0.159 2.226 0.11269 4.4779 0.0547 6.7148-0.247 9.537-13.243 6.0008-11.834-1.5332 2.517-13.459 14.262-28.422 0.25586-56.123-9.31-18.414-30.171 5.5879-18.047 43.758 2.548 8.023 9.5114 15.883 0.94336 19.508-14.043 5.944-2.1262-34.64-27.785-39.461-9.652-1.813-17.541 0.7184-22.018 10.398 16.755 6.781 18.147 7.8966 26.898 21.934 5.092 8.166 10.376 21.26 21.891 19.525 7.515-1.133 7.5641 3.2141 5.4141 7.7871-2.509 5.34-12.519 12.19-14.219 17.305-1.1646 3.2574 4.8053 6.1491 6.7691 5.2145 8.8399-4.207 14.17-15.311 20.068-6.9573 10.213 14.469 22.831 25.378 39.608 31.12 14.925 8.7589 41.684 6.8887 57.882 2.5149 22.193-7.054 40.625-21.693 50.179-43.794 21.059-48.715 1.39-86.445-33.502-125.55-32.442-36.357-11.599-62.788 14.525-59.98 12.144 1.306 17.154 7.23 20.773 25.623-4.093-4.675-7.0213-8.8346-10.736-12.1-8.732-7.672-21.171-5.2096-26.426 4.8574-8.014 15.353 2.4674 33.6 19.691 34.281 14.931 0.59 26.035-8.685 27.818-23.459 3.287-27.235-19.483-37.298-30.107-43.896 29.023-43.923 14.576-105.19-49.162-123.79 22.342-25.73 22.12-24.781 23.438-28.119 33.457-84.75-25.753-104.43-24.195-133.94 4.527-0.715 9.0365-0.8776 13.188-2.1816 13.728-4.311 17.325-13.336 10.686-25.793-3.89-7.3-9.8426-10.952-18.225-10.504-26.824 1.432-24.332 20.221-32.133 23.602-72.147-34.019-51.375-112.03-11.352-83.951 2.925 2.054 4.2997 6.3164 8.6777 6.3164 4.047 0 4.0084-7.4987 10.691-5.8047-5.671 12.245-19.116 18.555-20.43 32.215 17.22 2.242 17.634 1.519 25.047-8.207 10.733-14.08 10.024-29.098-0.22851-41.109-9.069-10.624-8.869-21.571-8.877-33.289-0.487-696.51-2.1846-1022-1.8106-1175.6-0.374-153.56 1.3226-479.06 1.8106-1175.6 8e-3 -11.717-0.19304-22.665 8.877-33.289 10.253-12.01 10.962-27.028 0.22851-41.109-7.414-9.726-7.8279-10.449-25.047-8.207 6.9676 17.685 13.272 16.991 9.7383 26.41-4.378 0-5.7527 4.2634-8.6777 6.3164-40.023 28.077-60.795-49.932 11.352-83.951 7.801 3.3809 5.3088 22.168 32.133 23.602 8.381 0.448 14.335-3.2039 18.225-10.504 6.639-12.457 3.0424-21.482-10.686-25.793-4.151-1.304-8.6615-1.4666-13.188-2.1816-1.558-29.514 57.652-49.193 24.195-133.94-1.317-3.338-1.0955-2.3891-23.438-28.119 63.737-18.598 78.184-79.864 49.162-123.79 10.624-6.599 33.394-16.662 30.107-43.898-1.783-14.774-12.888-24.047-27.818-23.457-17.224 0.681-27.704 18.927-19.691 34.279 5.254 10.068 17.693 12.53 26.426 4.8574 20.117-23.133 2.3727 11.966-10.037 13.523-26.124 2.807-46.968-23.622-14.525-59.979 34.893-39.102 54.562-76.834 33.502-125.55-9.554-22.101-27.191-35.547-49.384-42.601-14.345-6.3724-37.53-7.4404-51.86-3.3601-21.049 11.632-34.085 18.693-46.426 35.803-5.3847 7.6284-10.051-6.507-17.178-10.98-5.2929-3.3219-9.713-2.1557-7.7481 5.7068 4.0545 4.5563 9.799 15.494 12.309 20.834 2.15 4.573 2.1009 8.9221-5.4141 7.7891-11.515-1.736-16.799 11.358-21.891 19.525-8.751 14.037-10.143 15.153-26.898 21.934 4.477 9.68 12.366 12.211 22.018 10.398 25.659-4.821 13.742-45.407 27.785-39.463 8.568 3.626 1.6046 11.485-0.94336 19.508-12.125 38.171 8.7359 62.173 18.047 43.758 14.006-27.701 2.2611-42.664-0.25586-56.123-1.409-7.534 11.587-11.068 11.834-1.5312 0.058 2.237-0.21369 4.4869-0.0547 6.7129 1.072 15.104 8.48 23.303 23.082 25.027 5.037 0.595 11.582 1.8523 13.348-4.6387 1.312-4.826-3.9072-7.7108-7.6152-10.01-25.085-15.555-11.435-28.922-34.994-35.219-7.558-2.02-8.79-5.131-5.582-10.541 37.41-28.302 56.137-44.933 84.289-10.356 1.941 8.13 2.3629 13.112-2.6391 18.637-5.535 6.116-8.582 13.252-19.678 9.97 4.387-2.932 3.5104-1.7681 6.1904-4.0311 20.368-17.196-6.9637-37.464-21.471-24.793-20.272 17.705 4.3324 47.271 31.732 36.064 10.597-4.333 15.06-13.497 15.598-25.074 0.706-15.163-3.2401-27.979-16.246-36.871 3.849-5.859 8.3941-2.9651 11.83-1.5391 31.676 13.153 39.327 55.64 9.4199 75.875-17.414 11.782-22.274 14.933-27.898 25.23-14.43 12.305-9.8402 13.6-23.473 31.416-16.48 5.537-32.405 11.454-45.961 22.414-6.716 5.43-12.297 6.6951-19.797 0.86914-24.63-19.133-44.773-18.95-52.229-24.969-5.382-13.929-6.2017-13.837-15.24-25.969-4.696-22.849-53.227-28.248-47.141-67.83 2.574-16.75 12.713-27.746 30.781-34.52-4.469 13.091-17.579 40.136 2.9336 59.682 13.362 12.732 35.348 11.359 41.617-8.0586 7.085-21.946-11.934-38.444-22.662-33.451-12.1 5.631-17.915 24.485-3.6621 32.473 3.162 1.771 6.369 3.4608 9.916 5.3848-12.24 3.192-17.187-4.2284-23.575-12.662-6.595-23.509 12.018-56.458 48.648-39.26 8.754 4.11 15.263 8.931 23.715 13.685 8e-3 -4.405 8.7194-3.6665 6.9362-6.3247-4.305-6.4171-20.908-13.631-27.675-18.11-3.8116-2.5227-9.2332-3.3686-14.361-6.373-18.529-2.9247-33.258-5.97-52.244 0zm54.123 170.85c1.6789 0.12338 3.3538 1.047 4.9883 1.709 14.2 5.757 24.305 16.994 35.568 26.676 8.991 7.728 9.4711 7.7409 18.412-0.0781 22.447-19.627 28.616-26.263 38.35-24.668 1.793-2.395-2.3505-1.0651 0.51954-1.9121 1.769-0.522 2.3027 0.0305 1.7187 1.7695-0.95299 2.837 0.53141-1.2448-1.9336 0.45117-3.488 22.89-10.992 44.387 11.428 46.449 9.995 0.918 16.353-4.2745 19.152-14.604 1.693-6.245-2.9114-17.966 8.2656-16.84 15.254 1.538-11.623 30.925 27.477 49.992 19.931 9.718 24.784 28.817 27.41 47.902 2.734 19.876-2.1004 38.104-21.109 51.188-1.501-9.243 3.9264-15.453 5.1934-22.666 3.787-21.575-1.7336-39.71-17.891-54.576-17.88-16.45-43.484 4.3217-27.627 19.098 2.3415 12.186-1.313 1.1126-5.5488 27.869-1.766 12.06 14.566 24.154-8.3242 38.799-3.143 2.011-6.1474 4.6939-9.6094 5.6719-23.099 6.521-40.943 20.397-55.578 40.551-12.448-20.946-31.778-30.574-51.865-38.701-16.414-6.641-30.438-16.292-25.523-33.215 8.0387-23.066-3.0132-22.542-2.4824-35.504 9.718-6.601 11.691-12.551 7.2441-20.277-5.04-8.757-13.999-12.537-22.816-8.4883-19.496 8.954-24.723 23.915-27.252 45.395-1.351 11.466-0.21622 22.458 9.3848 30.711 0.10463 0.76742 1.0571 0.71302 1.3027 1.3437-0.30112-0.61985-1.3535-0.48333-1.3848-1.375-2.793 1.619-5.6194 1.6407-7.9414-0.86328-23.482-25.317-22.655-73.027 10.15-94.312 26.642-17.288 12.66-33.129 17.186-41.428 2.699-4.948 10.475-5.9705 11.283 0.60547 0.452 3.681-0.02761 7.4876 0.52539 11.143 1.434 9.462 8.4202 15.726 18.074 16.668 21.503 2.099 19.478-25.739 14.318-37.617-2.048-4.719-4.1512-9.4135-6.0762-13.771 1.65-2.5395 3.3328-3.2171 5.0117-3.0938zm96.027 206.09c3.0274 0.8102 5.9177 2.8571 8.6367 6.621 6.552 9.072 8.9158 18.827 2.9648 29.27-13.065 22.924-13.793 23.437 5.0664 34.125-14.929 11.495-13.794 29.765-21.469 44.726 20.72 8.754 37.116-16.981 45.018-5.1914 6.874 10.256-18.746 6.8247-34.596 37.391-0.682 1.315-2.3945 2.4394-2.4375 3.6914-1.053 30.54-37.518 25.879-44.34 81.83-4.016 32.934 31.492 50.424 34.41 70.336 0.425 2.905 1.4661 6.4993-1.3359 8.3613-4.775 3.173-5.6638-1.987-7.9648-4.375-8.245-8.557-13.773-8.9192-22.674-1.8223-7.882 6.285-7.8366 6.2356-14.602-0.066-12.804-11.928-22.149-7.0416-24.441 4.9454-2.0996 8.6898-9.9776 4.6222-9.1289-4.4336 1.929-17.292 15.444-22.247 28.732-41.643 20.652-30.145 5.5161-61.489-21.088-86.711-7.662-7.265-14.535-13.161-14.338-25.816 0.31-19.943-24.427-22.069-48.49-38.918-1.811-1.268-3.7115-2.6014-2.6465-6.4024 6.057-1.234 13.629 4.8215 19.967-1.8515 4.246-4.47 6.9595 7.7985 30.064 11.976 5.016 0.907 9.2606-3.1083 7.8086-7.9883-3.962-13.32-4.6361-28.218-18.373-37.291 4.162-5.517 12.425-4.5716 13.334-11.6 2.247-17.388-8.4393-12.738-12.402-29.861-3.8-16.422 9.087-20.136 25.668-28.539 11.551-5.854 40.655 31.163 25.508 41.084-11.003 7.206-11.4 18.504-12.496 29.606-1.114 11.286 4.4028 24.159-8.5742 32.531-1.928 1.244 3.0044 7.0433 6.4824 7.1543 9.439 0.302 17.77-6.4567 20.443-17.18 0.874-3.506 0.5402-7.3154 1.6582-11.232 0.80478 10.836 4.3159 20.5 10.877 28.963 11.161 1.1996 15.676 2.7708 18.916-1.5332 4.64-6.162-2.671-9.0183-5.543-12.611-7.063-8.837-2.8703-15.988-2.8223-30.232 0.083-24.929-18.098-20.078-15.547-35.033 1.284-7.5279 2.7519-14.73 9.7539-19.219 10.606-6.7987 20.918-15.491 30-13.06zm-34.758 111.69c-0.15557-0.017-0.1914-0.02-0.34961-0.037l0.51562 0.4766c-0.10109-0.128-0.0664-0.311-0.16601-0.4395zm59.467-110.2c13.008 1.0346 18.708 12.281 24.799 20.691 14.08 19.437 1.4096 50.898-18.945 64.734-4.2113-7.2199 2.1733-12.324 4.3848-17.881 9.0364-22.711 7.959-50.692-10.238-67.545zm-134.54 3.4414 0.76954 1.2265c-37.274 38.767-5.6312 70.026-6.1602 76.072-0.508 5.815-6.7035 3.6798-8.3125 2.5078-25.404-18.493-28.859-64.009 5.8809-79.027 3.014-1.302 5.6859-1.0097 8.2969 0.8203zm139.73 81.631 0.58398 0.4278c-0.18936 0.1281-0.31713 0.3593-0.50781 0.4844zm-24.361 230.17 0.0547 1162.6-0.0547 1162.6c-8.036-9.369-16.362-12.022-16.043-22.356 4e-3 -0.139-0.74975-884.35-0.96875-1140.3 0.219-255.94 0.97275-1140.2 0.96875-1140.3-0.32-10.334 8.006-12.986 16.043-22.355zm-96.541 3.8672c0.13427 0.1026 0.12469 0.2557 0.25585 0.3593l-1.1953 0.1368c0.453 1.1969 0.76546 1.0309 0.93946-0.4961zm0.36523 0.5136c9.1946 7.3688 10.878 17.192 10.736 28.674-0.293 24.101-0.95528 870.83-0.73828 1129.6-0.217 258.76 0.44528 1105.5 0.73828 1129.6 0.14213 11.481-1.5417 21.308-10.736 28.676-1.4603-2.4735-3.9336-4.9013-4.0508-7.4375-1.398-30.211-3.7009-866.76-1.3359-1150.8-2.365-284.07-0.0621-1120.6 1.3359-1150.8 0.11719-2.5362 2.5904-4.964 4.0508-7.4375zm52.246 10.478c14.472 2.148 14.639 2.1484 14.602 13.82-2.259 718.41 0.88507 1013.3 1.2051 1134-0.32 120.7-3.4651 415.56-1.2051 1134 0.036 11.672-0.13058 11.672-14.602 13.82-1.873-41.226-5.6057-877.49-2.0137-1147.8-3.591-270.3 0.14067-1106.6 2.0137-1147.8zm-16.48 0.2305c4.1242 1.57 3.1656 75.599 3.1113 1147.6 0.062 1225.1 1.303 1146.8-5.209 1146.5-4.505-0.193-11.304-4.0895-10.508-9.0195 2.056-12.739-1.4162-25.22-1.4102-37.791 0.359-693.07-0.81816-980.67-0.66016-1099.7-0.158-119.01 1.0202-406.61 0.66016-1099.7-6e-3 -12.571 3.4662-25.052 1.4102-37.791-0.796-4.9299 6.0028-8.8265 10.508-9.0195 0.814-0.035 1.5085-1.2907 2.0976-1.0664zm-37.07 2305.8 1.1953 0.1387c-0.13115 0.1036-0.1216 0.2568-0.25585 0.3593-0.174-1.527-0.48646-1.695-0.93946-0.498zm13.395 2.5605c2.992 3.065 0.25821 5.9395 0.78321 8.6895 2.292 11.987 11.637 16.873 24.441 4.9453 6.765-6.302 6.7206-6.3514 14.602-0.066 8.9 7.097 14.428 6.7347 22.674-1.8223 2.301-2.387 3.1908-7.547 7.9648-4.375 2.802 1.862 1.7609 5.4564 1.3359 8.3614-2.917 19.912-38.425 37.402-34.41 70.336 6.822 55.951 43.287 51.29 44.34 81.83 0.043 1.253 1.7555 2.3774 2.4375 3.6914 15.85 30.566 41.47 27.135 34.596 37.391-7.902 11.79-24.298-13.945-45.018-5.1914 7.675 14.962 6.5408 33.232 21.469 44.727-18.859 10.688-18.131 11.2-5.0664 34.125 5.951 10.444 3.5872 20.2-2.9648 29.272-10.876 15.056-24.496 2.6235-38.637-6.4415-7.002-4.4889-8.4699-11.692-9.7539-19.219-2.55-14.955 15.63-10.105 15.547-35.033-0.048-14.244-4.2407-21.396 2.8223-30.232 2.872-3.594 10.183-6.4474 5.543-12.609-3.2398-4.303-7.755-2.7328-18.916-1.5313-6.5611 8.4633-10.072 18.128-10.877 28.963-1.118-3.917-0.7842-7.7234-1.6582-11.23-2.673-10.723-11.004-17.484-20.443-17.182-3.478 0.111-8.4104 5.9103-6.4824 7.1543 12.977 8.371 7.4602 21.245 8.5742 32.531 1.096 11.102 1.4941 22.398 12.496 29.605 15.146 9.92-13.957 46.938-25.508 41.084-16.58-8.403-29.468-12.116-25.668-28.539 3.962-17.123 14.649-12.473 12.402-29.861-0.908-7.028-9.172-6.0835-13.334-11.602 13.737-9.072 14.411-23.971 18.373-37.291 1.452-4.88-2.7926-8.8943-7.8086-7.9883-23.105 4.178-25.818 16.446-30.064 11.976-6.338-6.673-13.91-0.6175-19.967-1.8515-1.065-3.801 0.83549-5.1344 2.6465-6.4024 24.063-16.849 48.8-18.975 48.49-38.918-0.198-12.655 6.6749-18.553 14.338-25.818 26.604-25.222 41.74-56.564 21.088-86.709-13.288-19.397-26.802-24.352-28.732-41.644-0.724-6.495 1.6997-11.31 8.3457-13.123zm43.789 206.85c0.0996-0.1285 0.0649-0.3115 0.16601-0.4394l-0.51562 0.4766c0.15821-0.017 0.19404-0.02 0.34961-0.037zm64.734 24.217c0.1907 0.1251 0.31843 0.3563 0.50781 0.4844l-0.58398 0.4278zm0.58594 0.5586c20.356 13.836 33.025 45.297 18.945 64.734-6.0906 8.4103-11.79 19.657-24.799 20.691 18.197-16.852 19.275-44.834 10.238-67.545-2.2114-5.5569-8.597-10.661-4.3848-17.881zm-149.53 0.8106c1.8132 0.047 3.4896 0.9675 3.7441 3.875 0.529 6.046-31.114 37.306 6.1602 76.072l-0.76954 1.2265 0.47461-1.5996c-2.611 1.83-5.2829 2.1223-8.2969 0.8203-34.74-15.018-31.285-60.534-5.8809-79.027 0.8045-0.5855 2.7551-1.4137 4.5684-1.3672zm73.803 69.414c14.635 20.155 32.479 34.028 55.578 40.549 3.462 0.978 6.4664 3.6619 9.6094 5.6718 22.89 14.645 6.5563 26.739 8.3223 38.799 0.914 6.247 3.6025 11.992 10.188 13.34 5.4545 1.1167 11.102 0.4335 13.979-5.6523 0.3943 3.2209 1.5471 6.5925-2.0547 8.9453-5.594 3.654-11.737 6.7413-16.561 11.236-15.857 14.775 9.745 35.55 27.625 19.1 16.158-14.866 21.679-33.002 17.891-54.576-1.266-7.213-6.6924-13.424-5.1914-22.666 19.009 13.084 23.842 31.312 21.107 51.188-2.626 19.085-7.4792 38.184-27.41 47.902-39.1 19.067-12.223 48.454-27.477 49.992-11.178 1.126-6.5707-10.594-8.2637-16.84-2.798-10.329-9.1574-15.522-19.152-14.604-22.42 2.062-14.919 23.558-11.43 46.449 2.465 1.697 0.98059-2.3848 1.9336 0.4512 0.584 1.739 0.0522 2.2905-1.7168 1.7695-2.87-0.848 1.2705 0.4839-0.52149-1.9121-9.734 1.595-15.903-5.041-38.35-24.668-8.942-7.82-9.4202-7.8081-18.41-0.08-11.263 9.682-21.368 20.92-35.568 26.676-3.268 1.325-6.7 3.6942-10-1.3848 1.924-4.358 4.0252-9.0535 6.0742-13.772 5.16-11.878 7.1866-39.714-14.316-37.615-9.654 0.942-16.642 7.206-18.076 16.668-0.553 3.655-0.07144 7.4597-0.52344 11.141-0.807 6.575-8.5842 5.5544-11.283 0.6074-4.526-8.299 9.4564-24.142-17.186-41.43-32.805-21.286-33.632-68.995-10.15-94.31 2.321-2.504 5.1484-2.4823 7.9414-0.8633 0.03037-0.8668 1.0592-0.7288 1.3457-1.3379-0.23402 0.6163-1.1624 0.56-1.2637 1.3047-9.601 8.253-10.738 19.245-9.3867 30.711 2.529 21.479 7.756 36.44 27.252 45.394 8.818 4.049 17.776 0.2678 22.816-8.4882 4.446-7.726 2.4738-13.674-7.2441-20.275-2.995-2.034-7.1659-2.4547-8.3379-6.7227 14.247-10.148 15.688-12.03 10.822-28.783-4.914-16.923 9.1104-26.574 25.523-33.215 20.087-8.127 39.416-17.752 51.865-38.699z"/><path d="m29.358 3714.3c-0.646-18.264-25.528-14.173-25.224 1.224 0.418 21.19 26.044 21.942 25.224-1.224zm-17.275 3.622c-1.973-6.107 6.485-5.535 8.654-2.913 3.158 3.822-5.477 8.264-8.654 2.913z"/><path d="m329.24 3702.6c-7.493-0.056-13.691 6.232-13.814 14.016-0.134 8.455 6.937 16.131 14.829 16.101 12.958-0.053 19.385-29.964-1.015-30.117zm-8.319 15.388c0.657-9.182 14.289-4.571 14.098 0.854-0.118 3.346-2.822 5.112-6.065 5.323-4.42 0.291-6.552-2.671-8.033-6.177z"/><path d="m121.25 294.36c-2.412-17.085 16.073-21.329 28.098-15.006 9.146 4.81 6.517 14.912 8.906 30.808 0.7 4.657 10.022 2.821 8.96-1.889-2.781-12.341-10.848-28.003-0.924-47.631 2.834-5.607 4.125-10.599-2.8-15.237-7.582-5.077-5.614-11.161-0.898-17.341 12.556-16.454 30.32 1.757 23.703 12.147-6.296 9.884-2.744 18.429 0.176 27.27 4.571 13.839 0.705 26.357-4.351 38.998-2.713 6.783 9.618 9.166 10.64 1.985 0.731-5.135 0.127-10.484 1.062-15.563 2.123-11.531 11.382-18.11 22.507-16.809 10.241 1.197 17.664 15.172 7.985 17.407-10.22 2.361-14.197 9.237-17.46 18.204-8.117 22.308-9.373 22.882-31.853 22.707-48.5-0.38-20.616-37.171-53.025-39.328z"/><path d="m121.25 3425.1c-2.412 17.085 16.073 21.329 28.098 15.006 9.146-4.81 6.517-14.912 8.906-30.808 0.7-4.657 10.022-2.821 8.96 1.889-2.781 12.341-10.848 28.003-0.924 47.631 2.834 5.607 4.125 10.6-2.8 15.237-7.582 5.077-5.614 11.161-0.898 17.341 12.556 16.454 30.32-1.757 23.703-12.147-6.296-9.884-2.744-18.429 0.176-27.27 4.571-13.839 0.705-26.357-4.351-38.998-2.713-6.783 9.618-9.166 10.64-1.985 0.731 5.135 0.127 10.484 1.062 15.563 2.123 11.531 11.382 18.11 22.507 16.809 10.241-1.197 17.664-15.172 7.985-17.407-10.22-2.361-14.197-9.237-17.46-18.204-8.117-22.308-9.373-22.882-31.853-22.707-48.5 0.379-20.616 37.171-53.025 39.328z"/><path d="m162.85 362.61c-0.178-5.934 5.717-13.234 11.554-14.307 5.513-1.013 11.8 5.664 12.169 12.924 0.787 15.485-23.373 13.021-23.723 1.383z"/><path d="m162.85 3356.9c-0.178 5.934 5.717 13.234 11.554 14.307 5.513 1.013 11.8-5.664 12.169-12.924 0.787-15.485-23.373-13.021-23.723-1.383z"/><path d="m121.98 295.08-1.987 2.987c-2.375-2.197-1.223-3.18 1.261-3.708z"/><path d="m121.98 3424.4-1.987-2.987c-2.375 2.197-1.223 3.18 1.261 3.708z"/><path d="m157.33 34.169c-104.88-22.779-52.442-11.39 0 0z"/><path d="m157.33 3685.3c2.863-0.542 4.617-2.199 5.137-5.099-3.151 0.25-4.376 2.44-5.137 5.099z"/><path d="m157.27 3714.1c6e-3 10.169 8.159 19.058 17.513 19.093 6.898 0.025 14.416-8.42 14.811-16.639 0.427-8.898-5.823-16.674-13.672-17.004-9.741-0.412-18.657 6.543-18.652 14.55zm6.338 1.15c0.307-4.561 6.058-8.724 11.143-8.066 9.931 1.286 8.906 16.794-1.611 18.012-4.364 0.505-9.841-5.368-9.532-9.946z"/></g>
</svg>
