<?xml version="1.0" encoding="UTF-8"?>
<svg width="99.579" height="399.42" enable-background="new 0 0 5000 5000" version="1.1" viewBox="0 0 99.579 399.42" xml:space="preserve" xmlns="http://www.w3.org/2000/svg">
<path d="m22.759 396.66c8.68e-4 1.4716 1.1807 2.7579 2.5343 2.763 0.99822 4e-3 2.0862-1.2185 2.1433-2.4079 0.06179-1.2876-0.84266-2.4129-1.9785-2.4607-1.4096-0.0596-2.6999 0.94685-2.6992 2.1056zm0.91719 0.16642c0.04443-0.66003 0.87667-1.2625 1.6125-1.1672 1.4371 0.1861 1.2888 2.4303-0.23313 2.6066-0.63152 0.0731-1.4241-0.77682-1.3794-1.4393zm-0.9085-4.3341c0.41431-0.0784 0.66814-0.31822 0.74339-0.73789-0.45599 0.0362-0.63326 0.3531-0.74339 0.73789zm0-387.53c-15.177-3.2964-7.589-1.6483 0 0zm-5.1156 349.78-0.28754-0.43225c-0.34369 0.31793-0.17698 0.46018 0.18248 0.53659zm0-312.02-0.28754 0.43226c-0.34369-0.31793-0.17698-0.46018 0.18248-0.53659zm5.9144 302.25c-0.02576 0.85872 0.82732 1.9151 1.672 2.0704 0.7978 0.14659 1.7076-0.81965 1.761-1.8703 0.11389-2.2409-3.3824-1.8843-3.433-0.20013zm0-292.48c-0.02576-0.85872 0.82732-1.9151 1.672-2.0704 0.7978-0.14659 1.7076 0.81965 1.761 1.8703 0.11389 2.2409-3.3824 1.8843-3.433 0.20014zm-6.02 302.35c-0.34905 2.4724 2.326 3.0866 4.0661 2.1716 1.3235-0.69606 0.94309-2.1579 1.2888-4.4583 0.1013-0.67393 1.4503-0.40823 1.2966 0.27336-0.40244 1.7859-1.5698 4.0524-0.13371 6.8928 0.41012 0.8114 0.59694 1.534-0.40519 2.205-1.0972 0.7347-0.81242 1.6151-0.12995 2.5095 1.817 2.3811 4.3877-0.25426 3.4301-1.7578-0.91111-1.4303-0.39709-2.6669 0.02547-3.9463 0.66148-2.0027 0.10202-3.8142-0.62964-5.6435-0.3926-0.98158 1.3918-1.3264 1.5397-0.28725 0.10578 0.7431 0.01838 1.5172 0.15368 2.2522 0.30722 1.6687 1.6471 2.6207 3.257 2.4325 1.482-0.17322 2.5562-2.1956 1.1555-2.519-1.479-0.34167-2.0545-1.3367-2.5267-2.6343-1.1746-3.2282-1.3564-3.3113-4.6095-3.286-7.0185 0.0548-2.9834 5.3791-7.6734 5.6912zm0-312.23c-0.34905-2.4724 2.326-3.0866 4.0661-2.1716 1.3235 0.69607 0.94309 2.1579 1.2888 4.4583 0.1013 0.67392 1.4503 0.40823 1.2966-0.27336-0.40244-1.7859-1.5698-4.0524-0.13371-6.8928 0.41012-0.8114 0.59694-1.5338-0.40519-2.205-1.0972-0.7347-0.81242-1.6151-0.12995-2.5095 1.817-2.3811 4.3877 0.25426 3.4301 1.7578-0.91111 1.4303-0.39709 2.6669 0.02547 3.9463 0.66148 2.0027 0.10202 3.8142-0.62964 5.6435-0.3926 0.98158 1.3918 1.3264 1.5397 0.28725 0.10578-0.7431 0.01838-1.5172 0.15368-2.2522 0.30722-1.6687 1.6471-2.6207 3.257-2.4325 1.482 0.17322 2.5562 2.1956 1.1555 2.519-1.479 0.34167-2.0545 1.3367-2.5267 2.6343-1.1746 3.2282-1.3564 3.3113-4.6095 3.286-7.0185-0.05499-2.9834-5.3791-7.6734-5.6912zm30.099 352.38c-1.0843-8e-3 -1.9813 0.90185-1.9991 2.0283-0.01939 1.2235 1.0039 2.3344 2.1459 2.33 1.8752-8e-3 2.8052-4.3362-0.14688-4.3583zm-1.2039 2.2268c0.09508-1.3287 2.0678-0.66148 2.0402 0.12359-0.01708 0.48421-0.40838 0.73977-0.87768 0.7703-0.63963 0.0421-0.94816-0.38652-1.1625-0.89389zm-42.193-0.53369c-0.093484-2.643-3.6942-2.051-3.6502 0.17712 0.06049 3.0665 3.7689 3.1753 3.6502-0.17712zm-2.4999 0.52414c-0.28552-0.88375 0.93846-0.80098 1.2523-0.42154 0.457 0.55309-0.79259 1.1959-1.2523 0.42154zm8.215-396.7c-8.2762 6.2042-10.324 16.078-5.3274 22.213 0.99142 1.1386 2.0277 2.2399 2.9782 3.4114 4.537 5.5925-2.0439 9.7401-5.4329 6.0587-1.0288-2.262 1.2964-0.28351 1.7407-0.11278 4.9431 1.7533 3.8198-4.28 0.98811-5.475-1.2036-0.5078-2.797-0.13924-3.4544 0.95985-2.7136 4.5366-1.3284 7.0677 1.6491 7.8625 0.80648 0.21533 1.7189 0.03398 2.3815 0.59807 0.22575 0.4227-0.045745 0.66663-0.20435 0.93131-3.4194 5.7061-0.56157 14.099 5.8164 16.528 0.66134 0.25194 1.5379 0.2772 1.8358 1.1911-0.21142 0.22459-0.41334 0.4805-0.65516 0.69077-5.1279 4.4618-6.1545 10.888-2.6342 16.626 0.45179 0.7363 1.0583 1.385 1.4533 2.147 0.58478 1.1279 1.6548 2.0266 1.7089 3.5182-0.75077 0.07322-1.5091 0.03453-2.1962 0.23712-1.5108 0.44557-2.1714 2.8316-1.1831 4.0477 1.5138 1.8626 4.5797 1.6778 5.7797-0.3711 0.2696-0.46033 0.37916-1.012 0.62633-1.4884 0.2408-0.46424 0.73831-0.53276 1.0981-0.26822 2.6941 1.9813 5.2696 4.4839 6.1986 7.6695 0.64238 2.2027-0.42977 4.3419-2.4192 5.0189-1.5701 0.53428-2.6435-0.20622-3.7195-1.2781-0.96219-0.95872-0.40192-1.748-0.05172-2.6368 0.17756-0.4502 0.70826-0.86671 0.22131-1.4223-1.9601 0.03198-2.194 0.10842-2.8569 0.92792-1.616 1.9982-1.6801 4.2606 0.32984 6.4487 0.39448 0.42943 1.9799 2.2119 0.91481 7.1933 1.1749 21.821 0.23384 85.354 0.23384 85.354s0.18489 111.08 0 111.33c1.078 3.4129-0.85014 4.1562-1.1487 4.4802-2.0099 2.188-1.9458 4.4505-0.32984 6.4487 0.66293 0.8195 0.89667 0.89607 2.8569 0.92791 0.48696-0.55555-0.04375-0.97205-0.22131-1.4222-0.3502-0.88882-0.91047-1.6778 0.05172-2.6365 1.0761-1.0719 2.1494-1.8128 3.7195-1.2784 1.9894 0.67695 3.0617 2.8164 2.4192 5.0189-0.9292 3.1856-3.5046 5.6882-6.1986 7.6695-0.35975 0.26439-0.85726 0.19601-1.0981-0.26823-0.24717-0.47639-0.35673-1.028-0.62633-1.4884-1.2-2.0488-4.2658-2.2338-5.7797-0.37112-0.98824 1.2162-0.32766 3.6019 1.1831 4.0475 0.68695 0.2026 1.4454 0.1639 2.1962 0.23712-0.05412 1.4918-1.1241 2.3904-1.7089 3.5182-0.39492 0.76191-1.0016 1.4106-1.4533 2.147-3.5204 5.7371-2.4937 12.164 2.6342 16.626 0.24167 0.21027 0.44373 0.46618 0.65516 0.69077-0.29796 0.91386-1.1744 0.93925-1.8358 1.191-6.378 2.429-9.236 10.822-5.8164 16.528 0.1586 0.26468 0.4301 0.50832 0.20435 0.93102-0.66264 0.56409-1.575 0.38273-2.3815 0.59807-2.9776 0.79476-4.3628 3.3261-1.6491 7.8625 0.65757 1.0991 2.2509 1.4677 3.4544 0.95985 2.8319-1.1949 3.955-7.2284-0.98811-5.475-0.68245 0.24194-1.0955 0.95288-1.8632 1.0141-0.095658-0.39602-0.1679-0.81196 0.12238-1.1272 3.389-3.6815 9.97 0.46615 5.4329 6.0587-0.95047 1.1716-1.9868 2.2731-2.9782 3.4117-5.2426 10.226-1.2477 18.567 5.1625 22.082 2.8065 0.72133 3.975 0.70722 8.02 0 0.63634-0.26927 1.3103-0.47816 1.7837-0.7914 1.0729-0.70989 3.1696-2.0088 3.5938-3.3073 0.12336-0.37757-0.8378-0.22093-0.83868-0.71129-1.2231 0.68797-1.7908 2.3511-3.1858 2.4629-5.1645 0.41368-7.7667-2.5598-7.2965-5.3862 1.3487-1.4038 4.969-2.8772 2.2333-1.3483-2.0626 1.156-1.2211 3.8844 0.52995 4.6992 1.5525 0.72254 4.3048-1.6649 3.2795-4.8408-0.9072-2.8099-4.0888-3.0087-6.0225-1.1662-2.9685 2.8285-0.22718 7.042 0.41954 8.9364-2.6145-0.98013-4.9259-2.8712-5.2985-5.2952-0.88072-5.728 6.1423-6.5093 6.8219-9.8158 0.2683-1.3047-0.87856-2.3828-2.1401-1.9565-0.70359 0.23776-1.3458 0.66078-2.052 0.88523-0.24731 0.0786-1.3467-0.7579-0.43385-1.3553 1.8166-1.189 4.4777 0.56812 6.8314-1.3315 1.0791-0.87087 3.9939-0.84451 7.5582-3.6133 1.0853-0.84309 1.893-0.65986 2.8649 0.12579 1.9617 1.586 4.2663 2.4424 6.6511 3.2436 6.0605 2.0361 6.2446 1.102 7.2184 1.4782 0.48479 0.18726 1.1219 0.35002 0.8711 1.0568-0.16338 0.46048-0.6598 0.50887-1.095 0.30497-2.9601-1.3868-4.3574 0.31475-3.5977 1.7063 0.81386 1.4901 1.517 1.9464 4.0372 3.6511 4.3281 2.9282 3.2209 9.0768-1.3632 10.98-0.49723 0.20636-1.1548 0.62487-1.7119-0.223 1.8823-1.2868 2.4532-3.1413 2.351-5.3357-0.07785-1.6753-0.72366-3.0013-2.2572-3.6285-3.965-1.6219-7.5255 2.6566-4.592 5.2186 2.0993 1.8336 6.0546-1.0991 3.1071-3.5876-0.67924-1.7258 2.4398 0.16515 1.7176 3.0558-1.5175 6.3581-8.0734 4.9205-11.581-0.99781-0.46424-0.78289-0.28595-1.2331 0.80778-1.5254 3.4093-0.91124 1.434-2.8456 5.0641-5.0966 0.53674-0.33269 1.2919-0.75016 1.102-1.4486-0.25556-0.93933-1.2025-0.75766-1.9316-0.67155-2.1131 0.24948-3.1851 1.4363-3.3402 3.622-0.02301 0.32213 0.01631 0.64801 0.0079 0.97172-0.03574 1.3801-1.9164 0.86838-1.7125-0.22188 0.36424-1.9477 2.0639-4.113 0.03703-8.1217-1.3473-2.6647-4.3661 0.80863-2.6116 6.3323 0.36873 1.161 1.3764 2.2985 0.13652 2.823-2.0322 0.86017-0.30769-5.0128-4.0208-5.7105-1.3968-0.26236-2.5384 0.10396-3.1863 1.5047 2.4247 0.98129 2.6261 1.1427 3.8925 3.1741 0.73687 1.1817 1.5015 3.0766 3.1679 2.8255 1.0875-0.16396 1.0946 0.46511 0.78349 1.1269-0.36308 0.77277-1.8117 1.764-2.0577 2.5042-0.16853 0.47139 0.69538 0.88985 0.97957 0.7546 1.2792-0.6088 2.0506-2.2157 2.9041-1.0068 1.4779 2.0938 3.3039 3.6725 5.7318 4.5034 2.1598 1.2675 6.0322 0.99688 8.3762 0.36394 3.2116-1.0208 5.8789-3.1392 7.2615-6.3375 3.0475-7.0497 0.20115-12.51-4.8482-18.169-4.6948-5.2613-1.6785-9.0862 2.1019-8.6798 1.7574 0.189 2.4824 1.0463 3.0061 3.708-0.59231-0.67653-1.0161-1.2785-1.5536-1.751-1.2636-1.1102-3.0637-0.75389-3.8242 0.70292-1.1597 2.2218 0.35706 4.8623 2.8495 4.9609 2.1607 0.0854 3.7676-1.2568 4.0256-3.3948 0.47567-3.9412-2.8194-5.3975-4.3569-6.3523 4.2-6.3562 2.1093-15.222-7.1143-17.914 3.2332-3.7234 3.201-3.5861 3.3918-4.0692 4.8416-12.264-3.7268-15.112-3.5013-19.383 0.65511-0.10347 1.3077-0.127 1.9085-0.31571 1.9866-0.62385 2.5071-1.9299 1.5464-3.7326-0.56293-1.0564-1.4243-1.5849-2.6374-1.5201-3.8818 0.20723-3.5211 2.9262-4.65 3.4155-10.441-4.923-7.4346-16.212-1.6428-12.149 0.42328 0.29724 0.62222 0.91407 1.2558 0.91407 0.58565 0 0.58006-1.0852 1.5471-0.84002-0.82066 1.772-2.7663 2.6851-2.9565 4.6619 2.4919 0.32444 2.5519 0.21982 3.6246-1.1876 1.5532-2.0376 1.4506-4.2108-0.03307-5.949-1.3124-1.5374-2.4953-2.4784-1.2846-4.8173-0.07047-100.79-0.26202-111.34-0.26202-111.34s0.1914 12.722 0.26202-88.076c0.0012-1.6956-0.02793-3.2799 1.2846-4.8173 1.4837-1.738 1.5863-3.9113 0.03307-5.949-1.0729-1.4075-1.1328-1.5121-3.6246-1.1877 1.0083 2.5592 1.9206 2.4588 1.4093 3.8219-0.63355 0-0.83249 0.61697-1.2558 0.91406-5.7918 4.0631-8.7978-7.2258 1.6428-12.149 1.1289 0.48926 0.76825 3.208 4.65 3.4155 1.2128 0.06483 2.0744-0.46364 2.6374-1.5201 0.96074-1.8027 0.44027-3.1087-1.5464-3.7326-0.6007-0.1887-1.2534-0.21224-1.9085-0.3157-0.22546-4.271 8.343-7.1188 3.5013-19.383-0.19059-0.48305-0.15853-0.34573-3.3918-4.0692 9.2235-2.6914 11.314-11.557 7.1143-17.914 1.5374-0.95496 4.8325-2.4112 4.3569-6.3526-0.25802-2.138-1.8651-3.4799-4.0256-3.3945-2.4925 0.09855-4.0091 2.739-2.8495 4.9606 0.76032 1.457 2.5604 1.8132 3.8242 0.70292 2.9112-3.3476 0.34336 1.7316-1.4525 1.9569-3.7805 0.40621-6.7968-3.4184-2.1019-8.6797 5.0494-5.6585 7.8958-11.119 4.8482-18.169-1.3826-3.1983-3.9349-5.1441-7.1465-6.1649-2.0759-0.92216-5.4311-1.0767-7.5048-0.48625-3.046 1.6833-4.9325 2.7051-6.7184 5.1811-0.77923 1.1039-1.4545-0.94164-2.4859-1.5889-0.76595-0.48072-1.4056-0.31196-1.1212 0.82584 0.58674 0.65935 1.418 2.2422 1.7813 3.0149 0.31113 0.66177 0.30403 1.2911-0.78349 1.1272-1.6664-0.25122-2.431 1.6436-3.1679 2.8255-1.2664 2.0313-1.4678 2.1928-3.8925 3.1741 0.64788 1.4008 1.7895 1.7671 3.1863 1.5047 3.7132-0.69766 1.9886-6.5709 4.0208-5.7108 1.2399 0.52473 0.23221 1.662-0.13652 2.823-1.7546 5.5238 1.2642 8.9972 2.6116 6.3323 2.0268-4.0087 0.32721-6.174-0.03703-8.1217-0.2039-1.0903 1.6768-1.6017 1.7125-0.22158 0.0084 0.32372-0.03092 0.64931-0.0079 0.97144 0.15513 2.1857 1.2272 3.3722 3.3402 3.6217 0.72892 0.0861 1.6761 0.26805 1.9316-0.67128 0.18986-0.69838-0.56542-1.1158-1.102-1.4486-3.6301-2.251-1.6548-4.1854-5.0641-5.0966-1.0937-0.29232-1.272-0.74252-0.80778-1.5254 5.4137-4.0956 8.1237-6.5024 12.198-1.4986 0.28089 1.1765 0.34194 1.8975-0.38191 2.697-0.80098 0.88506-1.2419 1.9177-2.8476 1.4428 0.63485-0.4243 0.508-0.25587 0.89583-0.58335 2.9475-2.4885-1.0077-5.4215-3.1071-3.5879-2.9336 2.5621 0.62695 6.8407 4.592 5.2189 1.5335-0.62704 2.1794-1.9532 2.2572-3.6285 0.10217-2.1943-0.46888-4.0489-2.351-5.3357 0.557-0.84787 1.2147-0.42909 1.7119-0.22273 4.5839 1.9034 5.6911 8.0518 1.3632 10.98-2.52 1.705-3.2233 2.161-4.0372 3.6511-2.0882 1.7807-1.424 1.9681-3.3968 4.5463-2.3849 0.80127-4.6894 1.6575-6.6511 3.2436-0.97189 0.78579-1.7795 0.96886-2.8649 0.12578-3.5643-2.7688-6.4792-2.7423-7.5582-3.6133-0.77884-2.0157-0.89746-2.0024-2.2054-3.758-0.67957-3.3065-7.7026-4.0878-6.8219-9.8158 0.37249-2.4239 1.8397-4.0152 4.4544-4.9955-0.64672 1.8944-2.5439 5.8082 0.42453 8.6367 1.9336 1.8425 5.1153 1.6438 6.0225-1.1662 1.0253-3.1759-1.727-5.5633-3.2795-4.8408-1.751 0.81487-2.5925 3.5433-0.52995 4.6992 0.45758 0.25629 0.92167 0.50082 1.435 0.77925-1.7713 0.46192-2.4872-0.6119-3.4116-1.8323-0.95438-3.402 1.7392-8.1702 7.04-5.6814 1.2668 0.59477 2.2087 1.2924 3.4319 1.9804 0.001157-0.63746 1.2618-0.53059 1.0038-0.91526-0.62299-0.92863-3.0256-1.9726-4.0049-2.6207-0.55158-0.36507-1.3362-0.48748-2.0782-0.92225-2.6814-0.42324-4.8128-0.86393-7.5603 0zm7.8323 24.724c0.24296 0.01785 0.48534 0.15151 0.72187 0.24731 2.0549 0.83311 3.5172 2.4592 5.1471 3.8603 1.3011 1.1183 1.3706 1.1202 2.6644-0.0113 3.2484-2.8403 4.1411-3.8006 5.5497-3.5698 0.25947-0.34659-0.34015-0.15413 0.07518-0.2767 0.256-0.07554 0.33323 0.0044 0.24872 0.25607-0.13791 0.41055 0.0769-0.18014-0.27982 0.06529-0.50476 3.3125-1.5907 6.4233 1.6538 6.7217 1.4464 0.13285 2.3665-0.61857 2.7715-2.1134 0.245-0.90373-0.42132-2.5999 1.1961-2.437 2.2074 0.22257-1.682 4.4752 3.9763 7.2345 2.8843 1.4063 3.5865 4.1702 3.9666 6.932 0.39564 2.8763-0.30395 5.5141-3.0547 7.4075-0.21721-1.3376 0.5682-2.2362 0.75155-3.28 0.54802-3.1222-0.25087-5.7465-2.589-7.8978-2.5875-2.3805-6.2927 0.6254-3.998 2.7637 0.33884 1.7635-0.19001 0.16101-0.80298 4.033-0.25556 1.7452 2.1079 3.4954-1.2046 5.6147-0.45483 0.29102-0.8896 0.67926-1.3906 0.82079-3.3427 0.94367-5.925 2.9517-8.0428 5.8682-1.8014-3.0311-4.5987-4.4244-7.5055-5.6005-2.3753-0.96103-4.4048-2.3577-3.6935-4.8066 1.1633-3.3379-0.43605-3.2621-0.35923-5.1379 1.4063-0.95524 1.6918-1.8163 1.0483-2.9343-0.72935-1.2672-2.0258-1.8143-3.3018-1.2284-2.8213 1.2958-3.5777 3.4608-3.9437 6.5692-0.19551 1.6593-0.03129 3.2499 1.3581 4.4443 0.015141 0.11106 0.15298 0.10318 0.18852 0.19445-0.043576-0.0897-0.19587-0.06994-0.2004-0.19898-0.40418 0.23429-0.8132 0.23743-1.1492-0.12493-3.3981-3.6637-3.2785-10.568 1.4688-13.648 3.8554-2.5018 1.8321-4.7942 2.487-5.9951 0.39058-0.71604 1.5159-0.864 1.6328 0.08762 0.06541 0.53269-4e-3 1.0835 0.07603 1.6125 0.20752 1.3693 1.2185 2.2757 2.6155 2.4121 3.1117 0.30375 2.8187-3.7247 2.072-5.4436-0.29637-0.6829-0.60073-1.3622-0.8793-1.9928 0.23878-0.3675 0.4823-0.46555 0.72526-0.44771zm13.896 29.824c0.4381 0.11725 0.85636 0.41346 1.2498 0.95814 0.94815 1.3128 1.2902 2.7245 0.42904 4.2357-1.8907 3.3174-1.996 3.3916 0.73317 4.9383-2.1604 1.6635-1.9962 4.3074-3.1068 6.4724 2.9984 1.2668 5.3711-2.4574 6.5147-0.75126 0.99475 1.4842-2.7128 0.98762-5.0065 5.4109-0.09869 0.1903-0.34651 0.35301-0.35274 0.53419-0.15238 4.4195-5.4293 3.745-6.4165 11.842-0.58116 4.766 4.5573 7.297 4.9795 10.178 0.0615 0.42039 0.21216 0.94053-0.19332 1.21-0.691 0.45918-0.81962-0.28754-1.1526-0.63311-1.1932-1.2383-1.9931-1.2907-3.2812-0.26371-1.1406 0.90952-1.1341 0.90237-2.1131-0.0096-1.8529-1.7261-3.2052-1.019-3.5369 0.71566-0.30384 1.2575-1.4439 0.66889-1.3211-0.6416 0.27915-2.5024 2.2349-3.2194 4.1579-6.0263 2.9886-4.3624 0.79825-8.8982-3.0517-12.548-1.1088-1.0513-2.1034-1.9046-2.0749-3.7359 0.04486-2.886-3.5349-3.1937-7.0171-5.6319-0.26207-0.1835-0.5371-0.37645-0.38298-0.92651 0.87652-0.17858 1.9723 0.69773 2.8895-0.26793 0.61445-0.64686 1.0071 1.1285 4.3506 1.7331 0.72588 0.13125 1.3401-0.44981 1.13-1.156-0.57335-1.9276-0.6709-4.0835-2.6588-5.3965 0.60229-0.79838 1.798-0.66157 1.9296-1.6787 0.32517-2.5163-1.2213-1.8433-1.7947-4.3213-0.54991-2.3765 1.315-2.9139 3.7145-4.1299 1.6716-0.84715 5.8833 4.5097 3.6913 5.9454-1.5923 1.0428-1.6497 2.6778-1.8083 4.2844-0.16121 1.6332 0.63714 3.4961-1.2408 4.7076-0.27901 0.18002 0.43477 1.0193 0.93808 1.0353 1.3659 0.0437 2.5715-0.93436 2.9584-2.4862 0.12648-0.50736 0.07817-1.0586 0.23996-1.6254 0.11646 1.5681 0.62456 2.9666 1.574 4.1913 1.6151 0.1736 2.2685 0.40097 2.7374-0.22187 0.67146-0.89172-0.38653-1.3051-0.80214-1.825-1.0221-1.2788-0.41537-2.3137-0.40842-4.3749 0.01201-3.6075-2.619-2.9055-2.2498-5.0697 0.18581-1.0894 0.39823-2.1316 1.4115-2.7812 1.5348-0.98386 3.0271-2.2417 4.3414-1.8899zm-5.0299 16.163c-0.02251-0.0025-0.0277-0.0029-0.05059-0.0054l0.07462 0.06897c-0.01463-0.01852-0.0096-0.04501-0.02402-0.0636zm8.6056-15.947c1.8824 0.14972 2.7073 1.7772 3.5887 2.9942 2.0375 2.8128 0.20399 7.3656-2.7416 9.3678-0.60943-1.0448 0.3145-1.7834 0.63453-2.5876 1.3077-3.2866 1.1518-7.3358-1.4816-9.7746zm-19.47 0.49801 0.11136 0.17749c-5.394 5.6101-0.8149 10.134-0.89146 11.009-0.07351 0.8415-0.97008 0.53251-1.2029 0.36291-3.6763-2.6762-4.1763-9.2629 0.85104-11.436 0.43616-0.18842 0.82282-0.14612 1.2007 0.11871zm20.221 11.813 0.08451 0.06191c-0.0274 0.01854-0.04589 0.052-0.07349 0.0701zm-3.5253 33.308 0.0079 86.195-0.0079 109.46c-1.1629-1.3558-2.3678-1.7397-2.3216-3.2352 5.79e-4 -0.0201-0.14019-106.23-0.14019-106.23s0.14077-82.953 0.14019-82.968c-0.04631-1.4954 1.1586-1.8792 2.3216-3.235zm-13.971 0.55963c0.01943 0.0148 0.01804 0.037 0.03702 0.052l-0.17297 0.0198c0.06555 0.1732 0.11077 0.14918 0.13595-0.0718zm0.05285 0.0743c1.3306 1.0664 1.5742 2.4879 1.5536 4.1495-0.0424 3.4877-0.10684 81.419-0.10684 81.419s0.06444 101.2 0.10684 104.68c0.02057 1.6614-0.2231 3.0835-1.5536 4.1498-0.21132-0.35795-0.56924-0.70928-0.5862-1.0763-0.20231-4.3719-0.19332-107.75-0.19332-107.75s-9e-3 -80.117 0.19332-84.487c0.01696-0.36702 0.37486-0.71835 0.5862-1.0763zm7.5606 1.5163c2.0943 0.31084 2.1184 0.3109 2.1131 1.9999-0.3269 103.96 0.17439 82.056 0.17439 82.056s-0.50144 1.3537-0.17439 105.32c0.0052 1.6891-0.0189 1.6891-2.1131 1.9999-0.27104-5.9659-0.2914-107.32-0.2914-107.32s0.02036-78.091 0.29141-84.053zm-2.3849 0.0333c0.59682 0.2272 0.45024 84.024 0.45024 84.024s0.18856 107.17-0.75381 107.13c-0.65193-0.0279-1.6358-0.5918-1.5206-1.3052 0.29753-1.8435-0.20494-3.6496-0.20407-5.4688 0.05195-100.3-0.09553-100.36-0.09553-100.36s0.14764 23.206 0.09553-77.092c-8.68e-4 -1.8192 0.5016-3.6253 0.20407-5.4688-0.11519-0.71342 0.86868-1.2773 1.5206-1.3052 0.1178-5e-3 0.2183-0.18678 0.30355-0.15432zm-5.3645 192.85 0.17298 0.0201c-0.01898 0.015-0.0176 0.0372-0.03702 0.052-0.02518-0.22097-0.32116-0.0721-0.13595-0.0721zm1.9384 0.37054c0.43298 0.44354 0.03737 0.85952 0.11334 1.2575 0.33168 1.7347 1.684 2.4417 3.5369 0.71564 0.97898-0.91197 0.97255-0.91912 2.1131-0.01 1.2879 1.027 2.0879 0.97459 3.2812-0.26371 0.33298-0.34543 0.46175-1.0921 1.1526-0.63311 0.40548 0.26945 0.25482 0.7896 0.19332 1.21-0.42213 2.8815-5.5606 5.4125-4.9795 10.178 0.98723 8.0968 6.2642 7.4223 6.4165 11.842 0.0062 0.18132 0.25404 0.34404 0.35274 0.53419 2.2937 4.4233 6.0012 3.9268 5.0065 5.4109-1.1435 1.7062-3.5162-2.018-6.5147-0.75126 1.1107 2.1652 0.94653 4.8091 3.1068 6.4726-2.7291 1.5467-2.6238 1.6208-0.73317 4.9383 0.86118 1.5114 0.51911 2.9232-0.42904 4.236-1.5739 2.1788-3.5449 0.37965-5.5912-0.93216-1.0133-0.6496-1.2257-1.692-1.4115-2.7812-0.36902-2.1642 2.2619-1.4623 2.2498-5.0697-0.0069-2.0613-0.61368-3.0963 0.40842-4.3749 0.41561-0.5201 1.4736-0.93302 0.80214-1.8247-0.46884-0.6227-1.1222-0.39547-2.7374-0.2216-0.94947 1.2248-1.4575 2.6234-1.574 4.1913-0.16179-0.56683-0.11348-1.1177-0.23996-1.6251-0.38682-1.5518-1.5924-2.5302-2.9584-2.4864-0.50331 0.0161-1.2171 0.85529-0.93808 1.0353 1.8779 1.2114 1.0796 3.0744 1.2408 4.7076 0.1586 1.6066 0.21622 3.2413 1.8083 4.2842 2.1918 1.4355-2.0197 6.7925-3.6913 5.9454-2.3993-1.216-4.2644-1.7533-3.7145-4.1299 0.57335-2.4779 2.1199-1.805 1.7947-4.3212-0.1314-1.017-1.3273-0.88036-1.9296-1.679 1.9879-1.3128 2.0854-3.4689 2.6588-5.3965 0.21012-0.70619-0.40412-1.2871-1.13-1.156-3.3436 0.6046-3.7362 2.3799-4.3506 1.7331-0.91719-0.96566-2.0129-0.0894-2.8895-0.26793-0.15412-0.55006 0.1209-0.74301 0.38298-0.92651 3.4822-2.4383 7.062-2.7459 7.0171-5.6319-0.02865-1.8313 0.96594-2.6848 2.0749-3.7362 3.8499-3.6499 6.0403-8.1855 3.0517-12.548-1.9229-2.807-3.8786-3.524-4.1579-6.0264-0.10477-0.93991 0.24597-1.6367 1.2077-1.8991zm6.3368 29.934c0-0.0235 0.0094-0.0451 0.02402-0.0636l-0.07462 0.069c0.02289-2e-3 0.05059 0.0173 0.05059-5e-3zm9.3678 3.5045c0.0276 0.0181 0.04608 0.0516 0.07349 0.0701l-0.08451 0.0619zm0.08479 0.0808c2.225 2.7813 4.7791 6.555 2.7416 9.3678-0.88138 1.2171-1.7062 2.8446-3.5887 2.9942 2.6333-2.4387 2.7893-6.488 1.4816-9.7746-0.32002-0.80416-1.2441-1.5428-0.63453-2.5876zm-21.639 0.11731c0.26248 0 0.50499 0.14 0.54182 0.56076 0.07655 0.87493-4.5026 5.3986 0.89146 11.009l-0.11136 0.17748 0.06868-0.23148c-0.37784 0.26483-0.7645 0.30713-1.2007 0.11871-5.0273-2.1733-4.5273-8.76-0.85104-11.436 0.11642-0.0847 0.39861-0.19785 0.6611-0.19785zm10.68 10.045c2.1179 2.9167 4.7001 4.9243 8.0428 5.8679 0.50099 0.14153 0.93577 0.52992 1.3906 0.82078 3.3125 2.1193 0.94878 3.8695 1.2043 5.6147 0.13227 0.90402 0.52133 1.7354 1.4743 1.9305 0.78933 0.1616 1.6066 0.0627 2.0229-0.81796 0.05706 0.46611 0.22388 0.95402-0.29734 1.2945-0.80952 0.52878-1.6985 0.97555-2.3966 1.626-2.2947 2.1381 1.4102 5.1445 3.9977 2.764 2.3383-2.1513 3.1372-4.7758 2.589-7.8978-0.1832-1.0438-0.96847-1.9426-0.75126-3.28 2.7508 1.8934 3.4502 4.5312 3.0544 7.4075-0.38002 2.7618-1.0823 5.5257-3.9666 6.932-5.6582 2.7592-1.7688 7.0119-3.9763 7.2345-1.6176 0.16294-0.95086-1.5331-1.1959-2.437-0.4049-1.4947-1.3252-2.2462-2.7715-2.1134-3.2444 0.2984-2.159 3.4091-1.6541 6.7217 0.35672 0.24558 0.1419-0.34511 0.27982 0.0653 0.08451 0.25165 0.0076 0.33146-0.24844 0.25607-0.41532-0.12272 0.18386 0.07-0.07547-0.27671-1.4086 0.23082-2.3014-0.72949-5.5497-3.5698-1.294-1.1316-1.3632-1.1299-2.6642-0.0116-1.6299 1.4011-3.0922 3.0274-5.1471 3.8604-0.47292 0.19174-0.96957 0.53459-1.4471-0.2004 0.27843-0.63066 0.5825-1.3102 0.87901-1.993 0.74672-1.7189 1.04-5.7471-2.0717-5.4434-1.3971 0.13632-2.4083 1.0428-2.6158 2.4121-0.08003 0.52893-0.01034 1.0795-0.07575 1.6122-0.11678 0.95149-1.2422 0.80379-1.6328 0.0879-0.65497-1.201 1.3685-3.4936-2.487-5.9954-4.7473-3.0803-4.867-9.9844-1.4688-13.648 0.33588-0.36236 0.74504-0.35922 1.1492-0.12493 0.00439-0.12544 0.15328-0.10547 0.19474-0.19361-0.033866 0.0892-0.16821 0.081-0.18287 0.18881-1.3894 1.1943-1.5539 2.785-1.3584 4.4442 0.36598 3.1083 1.1224 5.2733 3.9437 6.5691 1.2761 0.58594 2.5724 0.0388 3.3018-1.2283 0.64339-1.118 0.35799-1.9788-1.0483-2.934-0.43341-0.29434-1.037-0.35522-1.2066-0.97285 2.0617-1.4685 2.2702-1.7409 1.5661-4.1653-0.71112-2.449 1.3184-3.8456 3.6935-4.8066 2.9068-1.1761 5.8062-2.5105 7.5055-5.6002z" fill="{{ border_color }}" stroke-width=".14471"/><path d="m76.82 396.66c-8.68e-4 1.4716-1.1807 2.7579-2.5343 2.763-0.99822 4e-3 -2.0862-1.2185-2.1433-2.4079-0.06179-1.2876 0.84266-2.4129 1.9785-2.4607 1.4096-0.0596 2.6999 0.94685 2.6992 2.1056zm-0.91719 0.16642c-0.04443-0.66003-0.87667-1.2625-1.6125-1.1672-1.4371 0.1861-1.2888 2.4303 0.23313 2.6066 0.63152 0.0731 1.4241-0.77682 1.3794-1.4393zm0.9085-4.3341c-0.41431-0.0784-0.66814-0.31822-0.74339-0.73789 0.45599 0.0362 0.63326 0.3531 0.74339 0.73789zm0-387.53c15.177-3.2964 7.589-1.6483 0 0zm5.1156 349.78 0.28754-0.43225c0.34369 0.31793 0.17698 0.46018-0.18248 0.53659zm0-312.02 0.28754 0.43226c0.34369-0.31793 0.17698-0.46018-0.18248-0.53659zm-5.9144 302.25c0.02576 0.85872-0.82732 1.9151-1.672 2.0704-0.7978 0.14659-1.7076-0.81965-1.761-1.8703-0.11389-2.2409 3.3824-1.8843 3.433-0.20013zm0-292.48c0.02576-0.85872-0.82732-1.9151-1.672-2.0704-0.7978-0.14659-1.7076 0.81965-1.761 1.8703-0.11389 2.2409 3.3824 1.8843 3.433 0.20014zm6.02 302.35c0.34904 2.4724-2.326 3.0866-4.0661 2.1716-1.3235-0.69606-0.94309-2.1579-1.2888-4.4583-0.1013-0.67393-1.4503-0.40823-1.2966 0.27336 0.40244 1.7859 1.5698 4.0524 0.13371 6.8928-0.41012 0.8114-0.59694 1.534 0.40519 2.205 1.0972 0.7347 0.81242 1.6151 0.12995 2.5095-1.817 2.3811-4.3877-0.25426-3.4301-1.7578 0.91111-1.4303 0.39709-2.6669-0.02547-3.9463-0.66148-2.0027-0.10202-3.8142 0.62964-5.6435 0.3926-0.98158-1.3918-1.3264-1.5397-0.28725-0.10578 0.7431-0.01838 1.5172-0.15368 2.2522-0.30722 1.6687-1.6471 2.6207-3.257 2.4325-1.482-0.17322-2.5562-2.1956-1.1555-2.519 1.479-0.34167 2.0545-1.3367 2.5267-2.6343 1.1746-3.2282 1.3564-3.3113 4.6095-3.286 7.0185 0.0548 2.9834 5.3791 7.6734 5.6912zm0-312.23c0.34904-2.4724-2.326-3.0866-4.0661-2.1716-1.3235 0.69607-0.94309 2.1579-1.2888 4.4583-0.1013 0.67392-1.4503 0.40823-1.2966-0.27336 0.40244-1.7859 1.5698-4.0524 0.13371-6.8928-0.41012-0.8114-0.59694-1.5338 0.40519-2.205 1.0972-0.7347 0.81242-1.6151 0.12995-2.5095-1.817-2.3811-4.3877 0.25426-3.4301 1.7578 0.91111 1.4303 0.39709 2.6669-0.02547 3.9463-0.66148 2.0027-0.10202 3.8142 0.62964 5.6435 0.3926 0.98158-1.3918 1.3264-1.5397 0.28725-0.10578-0.7431-0.01838-1.5172-0.15368-2.2522-0.30722-1.6687-1.6471-2.6207-3.257-2.4325-1.482 0.17322-2.5562 2.1956-1.1555 2.519 1.479 0.34167 2.0545 1.3367 2.5267 2.6343 1.1746 3.2282 1.3564 3.3113 4.6095 3.286 7.0185-0.05499 2.9834-5.3791 7.6734-5.6912zm-30.099 352.38c1.0843-8e-3 1.9813 0.90185 1.9991 2.0283 0.01939 1.2235-1.0039 2.3344-2.1459 2.33-1.8752-8e-3 -2.8052-4.3362 0.14688-4.3583zm1.2039 2.2268c-0.09508-1.3287-2.0678-0.66148-2.0402 0.12359 0.01708 0.48421 0.40838 0.73977 0.87768 0.7703 0.63963 0.0421 0.94816-0.38652 1.1625-0.89389zm42.193-0.53369c0.09348-2.643 3.6942-2.051 3.6502 0.17712-0.06049 3.0665-3.7689 3.1753-3.6502-0.17712zm2.4999 0.52414c0.28552-0.88375-0.93846-0.80098-1.2523-0.42154-0.457 0.55309 0.79259 1.1959 1.2523 0.42154zm-8.215-396.7c8.2762 6.2042 10.324 16.078 5.3274 22.213-0.99142 1.1386-2.0277 2.2399-2.9782 3.4114-4.537 5.5925 2.0439 9.7401 5.4329 6.0587 1.0288-2.262-1.2964-0.28351-1.7407-0.11278-4.9431 1.7533-3.8198-4.28-0.98811-5.475 1.2036-0.5078 2.797-0.13924 3.4544 0.95985 2.7136 4.5366 1.3284 7.0677-1.6491 7.8625-0.80648 0.21533-1.7189 0.03398-2.3815 0.59807-0.22575 0.4227 0.04575 0.66663 0.20435 0.93131 3.4194 5.7061 0.56157 14.099-5.8164 16.528-0.66134 0.25194-1.5379 0.2772-1.8358 1.1911 0.21142 0.22459 0.41334 0.4805 0.65516 0.69077 5.1279 4.4618 6.1545 10.888 2.6342 16.626-0.45179 0.7363-1.0583 1.385-1.4533 2.147-0.58478 1.1279-1.6548 2.0266-1.7089 3.5182 0.75077 0.07322 1.5091 0.03453 2.1962 0.23712 1.5108 0.44557 2.1714 2.8316 1.1831 4.0477-1.5138 1.8626-4.5797 1.6778-5.7797-0.3711-0.2696-0.46033-0.37916-1.012-0.62633-1.4884-0.2408-0.46424-0.73831-0.53276-1.0981-0.26822-2.6941 1.9813-5.2696 4.4839-6.1986 7.6695-0.64238 2.2027 0.42977 4.3419 2.4192 5.0189 1.5701 0.53428 2.6435-0.20622 3.7195-1.2781 0.96219-0.95872 0.40192-1.748 0.05172-2.6368-0.17756-0.4502-0.70827-0.86671-0.22131-1.4223 1.9601 0.03198 2.194 0.10842 2.8569 0.92792 1.616 1.9982 1.6801 4.2606-0.32984 6.4487-0.39448 0.42943-1.9799 2.2119-0.91481 7.1933-1.1749 21.821-0.23384 85.354-0.23384 85.354s-0.18489 111.08 0 111.33c-1.078 3.4129 0.85014 4.1562 1.1487 4.4802 2.0099 2.188 1.9458 4.4505 0.32984 6.4487-0.66293 0.8195-0.89667 0.89607-2.8569 0.92791-0.48696-0.55555 0.04375-0.97205 0.22131-1.4222 0.3502-0.88882 0.91047-1.6778-0.05172-2.6365-1.0761-1.0719-2.1494-1.8128-3.7195-1.2784-1.9894 0.67695-3.0617 2.8164-2.4192 5.0189 0.9292 3.1856 3.5046 5.6882 6.1986 7.6695 0.35976 0.26439 0.85726 0.19601 1.0981-0.26823 0.24717-0.47639 0.35673-1.028 0.62633-1.4884 1.2-2.0488 4.2658-2.2338 5.7797-0.37112 0.98824 1.2162 0.32766 3.6019-1.1831 4.0475-0.68695 0.2026-1.4454 0.1639-2.1962 0.23712 0.05412 1.4918 1.1241 2.3904 1.7089 3.5182 0.39492 0.76191 1.0016 1.4106 1.4533 2.147 3.5204 5.7371 2.4937 12.164-2.6342 16.626-0.24167 0.21027-0.44373 0.46618-0.65516 0.69077 0.29796 0.91386 1.1744 0.93925 1.8358 1.191 6.378 2.429 9.236 10.822 5.8164 16.528-0.1586 0.26468-0.4301 0.50832-0.20435 0.93102 0.66264 0.56409 1.575 0.38273 2.3815 0.59807 2.9776 0.79476 4.3628 3.3261 1.6491 7.8625-0.65757 1.0991-2.2509 1.4677-3.4544 0.95985-2.8319-1.1949-3.955-7.2284 0.98811-5.475 0.68245 0.24194 1.0955 0.95288 1.8632 1.0141 0.09566-0.39602 0.1679-0.81196-0.12238-1.1272-3.389-3.6815-9.97 0.46615-5.4329 6.0587 0.95047 1.1716 1.9868 2.2731 2.9782 3.4117 5.2426 10.226 1.2477 18.567-5.1625 22.082-2.8065 0.72133-3.975 0.70722-8.02 0-0.63634-0.26927-1.3103-0.47816-1.7837-0.7914-1.0729-0.70989-3.1696-2.0088-3.5938-3.3073-0.12336-0.37757 0.8378-0.22093 0.83868-0.71129 1.2231 0.68797 1.7908 2.3511 3.1858 2.4629 5.1645 0.41368 7.7667-2.5598 7.2965-5.3862-1.3487-1.4038-4.969-2.8772-2.2333-1.3483 2.0626 1.156 1.2211 3.8844-0.52995 4.6992-1.5525 0.72254-4.3048-1.6649-3.2795-4.8408 0.9072-2.8099 4.0888-3.0087 6.0225-1.1662 2.9685 2.8285 0.22718 7.042-0.41954 8.9364 2.6145-0.98013 4.9259-2.8712 5.2985-5.2952 0.88072-5.728-6.1423-6.5093-6.8219-9.8158-0.2683-1.3047 0.87856-2.3828 2.1401-1.9565 0.70359 0.23776 1.3458 0.66078 2.052 0.88523 0.24731 0.0786 1.3467-0.7579 0.43385-1.3553-1.8166-1.189-4.4777 0.56812-6.8314-1.3315-1.0791-0.87087-3.9939-0.84451-7.5582-3.6133-1.0853-0.84309-1.893-0.65986-2.8649 0.12579-1.9617 1.586-4.2663 2.4424-6.6511 3.2436-6.0605 2.0361-6.2446 1.102-7.2184 1.4782-0.48479 0.18726-1.1219 0.35002-0.8711 1.0568 0.16338 0.46048 0.6598 0.50887 1.095 0.30497 2.9601-1.3868 4.3574 0.31475 3.5977 1.7063-0.81386 1.4901-1.517 1.9464-4.0372 3.6511-4.3281 2.9282-3.2209 9.0768 1.3632 10.98 0.49723 0.20636 1.1548 0.62487 1.7119-0.223-1.8823-1.2868-2.4532-3.1413-2.351-5.3357 0.07785-1.6753 0.72366-3.0013 2.2572-3.6285 3.965-1.6219 7.5255 2.6566 4.592 5.2186-2.0993 1.8336-6.0546-1.0991-3.1071-3.5876 0.67924-1.7258-2.4398 0.16515-1.7176 3.0558 1.5175 6.3581 8.0734 4.9205 11.581-0.99781 0.46424-0.78289 0.28595-1.2331-0.80778-1.5254-3.4093-0.91124-1.434-2.8456-5.0641-5.0966-0.53674-0.33269-1.2919-0.75016-1.102-1.4486 0.25556-0.93933 1.2025-0.75766 1.9316-0.67155 2.1131 0.24948 3.1851 1.4363 3.3402 3.622 0.02301 0.32213-0.01631 0.64801-0.0079 0.97172 0.03574 1.3801 1.9164 0.86838 1.7125-0.22188-0.36424-1.9477-2.0639-4.113-0.03703-8.1217 1.3473-2.6647 4.3661 0.80863 2.6116 6.3323-0.36873 1.161-1.3764 2.2985-0.13652 2.823 2.0322 0.86017 0.30769-5.0128 4.0208-5.7105 1.3968-0.26236 2.5384 0.10396 3.1863 1.5047-2.4247 0.98129-2.6261 1.1427-3.8925 3.1741-0.73688 1.1817-1.5015 3.0766-3.1679 2.8255-1.0875-0.16396-1.0946 0.46511-0.78349 1.1269 0.36308 0.77277 1.8117 1.764 2.0577 2.5042 0.16853 0.47139-0.69539 0.88985-0.97957 0.7546-1.2792-0.6088-2.0506-2.2157-2.9041-1.0068-1.4779 2.0938-3.3039 3.6725-5.7318 4.5034-2.1598 1.2675-6.0322 0.99688-8.3762 0.36394-3.2116-1.0208-5.8789-3.1392-7.2615-6.3375-3.0475-7.0497-0.20115-12.51 4.8482-18.169 4.6948-5.2613 1.6785-9.0862-2.1019-8.6798-1.7574 0.189-2.4824 1.0463-3.0061 3.708 0.59231-0.67653 1.0161-1.2785 1.5536-1.751 1.2636-1.1102 3.0637-0.75389 3.8242 0.70292 1.1597 2.2218-0.35706 4.8623-2.8495 4.9609-2.1607 0.0854-3.7676-1.2568-4.0256-3.3948-0.47567-3.9412 2.8194-5.3975 4.3569-6.3523-4.2-6.3562-2.1093-15.222 7.1143-17.914-3.2332-3.7234-3.201-3.5861-3.3918-4.0692-4.8416-12.264 3.7268-15.112 3.5013-19.383-0.65511-0.10347-1.3077-0.127-1.9085-0.31571-1.9866-0.62385-2.5071-1.9299-1.5464-3.7326 0.56293-1.0564 1.4243-1.5849 2.6374-1.5201 3.8818 0.20723 3.5211 2.9262 4.65 3.4155 10.441-4.923 7.4346-16.212 1.6428-12.149-0.42328 0.29724-0.62222 0.91407-1.2558 0.91407-0.58565 0-0.58006-1.0852-1.5471-0.84002 0.82066 1.772 2.7663 2.6851 2.9565 4.6619-2.4919 0.32444-2.5519 0.21982-3.6246-1.1876-1.5532-2.0376-1.4506-4.2108 0.03307-5.949 1.3124-1.5374 2.4953-2.4784 1.2846-4.8173 0.07048-100.79 0.26202-111.34 0.26202-111.34s-0.1914 12.722-0.26202-88.076c-0.0012-1.6956 0.02794-3.2799-1.2846-4.8173-1.4837-1.738-1.5863-3.9113-0.03307-5.949 1.0729-1.4075 1.1328-1.5121 3.6246-1.1877-1.0083 2.5592-1.9206 2.4588-1.4093 3.8219 0.63355 0 0.83249 0.61697 1.2558 0.91406 5.7918 4.0631 8.7978-7.2258-1.6428-12.149-1.1289 0.48926-0.76825 3.208-4.65 3.4155-1.2128 0.06483-2.0744-0.46364-2.6374-1.5201-0.96074-1.8027-0.44027-3.1087 1.5464-3.7326 0.6007-0.1887 1.2534-0.21224 1.9085-0.3157 0.22546-4.271-8.343-7.1188-3.5013-19.383 0.19059-0.48305 0.15853-0.34573 3.3918-4.0692-9.2235-2.6914-11.314-11.557-7.1143-17.914-1.5374-0.95496-4.8325-2.4112-4.3569-6.3526 0.25802-2.138 1.8651-3.4799 4.0256-3.3945 2.4925 0.09855 4.0091 2.739 2.8495 4.9606-0.76032 1.457-2.5604 1.8132-3.8242 0.70292-2.9112-3.3476-0.34336 1.7316 1.4525 1.9569 3.7805 0.40621 6.7968-3.4184 2.1019-8.6797-5.0494-5.6585-7.8958-11.119-4.8482-18.169 1.3826-3.1983 3.9349-5.1441 7.1465-6.1649 2.0759-0.92216 5.4311-1.0767 7.5048-0.48625 3.046 1.6833 4.9325 2.7051 6.7184 5.1811 0.77923 1.1039 1.4545-0.94164 2.4859-1.5889 0.76595-0.48072 1.4056-0.31196 1.1212 0.82584-0.58674 0.65935-1.418 2.2422-1.7813 3.0149-0.31113 0.66177-0.30403 1.2911 0.78349 1.1272 1.6664-0.25122 2.431 1.6436 3.1679 2.8255 1.2664 2.0313 1.4678 2.1928 3.8925 3.1741-0.64788 1.4008-1.7895 1.7671-3.1863 1.5047-3.7132-0.69766-1.9886-6.5709-4.0208-5.7108-1.2399 0.52473-0.2322 1.662 0.13652 2.823 1.7546 5.5238-1.2642 8.9972-2.6116 6.3323-2.0268-4.0087-0.32721-6.174 0.03703-8.1217 0.2039-1.0903-1.6768-1.6017-1.7125-0.22158-0.0084 0.32372 0.03092 0.64931 0.0079 0.97144-0.15513 2.1857-1.2272 3.3722-3.3402 3.6217-0.72892 0.0861-1.6761 0.26805-1.9316-0.67128-0.18986-0.69838 0.56542-1.1158 1.102-1.4486 3.6301-2.251 1.6548-4.1854 5.0641-5.0966 1.0937-0.29232 1.272-0.74252 0.80778-1.5254-5.4137-4.0956-8.1237-6.5024-12.198-1.4986-0.28089 1.1765-0.34194 1.8975 0.38191 2.697 0.80098 0.88506 1.2419 1.9177 2.8476 1.4428-0.63485-0.4243-0.508-0.25587-0.89583-0.58335-2.9475-2.4885 1.0077-5.4215 3.1071-3.5879 2.9336 2.5621-0.62695 6.8407-4.592 5.2189-1.5335-0.62704-2.1794-1.9532-2.2572-3.6285-0.10217-2.1943 0.46888-4.0489 2.351-5.3357-0.557-0.84787-1.2147-0.42909-1.7119-0.22273-4.5839 1.9034-5.6911 8.0518-1.3632 10.98 2.52 1.705 3.2233 2.161 4.0372 3.6511 2.0882 1.7807 1.424 1.9681 3.3968 4.5463 2.3849 0.80127 4.6894 1.6575 6.6511 3.2436 0.97189 0.78579 1.7795 0.96886 2.8649 0.12578 3.5643-2.7688 6.4792-2.7423 7.5582-3.6133 0.77884-2.0157 0.89746-2.0024 2.2054-3.758 0.67957-3.3065 7.7026-4.0878 6.8219-9.8158-0.37249-2.4239-1.8397-4.0152-4.4544-4.9955 0.64672 1.8944 2.5439 5.8082-0.42453 8.6367-1.9336 1.8425-5.1153 1.6438-6.0225-1.1662-1.0253-3.1759 1.727-5.5633 3.2795-4.8408 1.751 0.81487 2.5925 3.5433 0.52995 4.6992-0.45758 0.25629-0.92167 0.50082-1.435 0.77925 1.7713 0.46192 2.4872-0.6119 3.4116-1.8323 0.95438-3.402-1.7392-8.1702-7.04-5.6814-1.2668 0.59477-2.2087 1.2924-3.4319 1.9804-0.001158-0.63746-1.2618-0.53059-1.0038-0.91526 0.62299-0.92863 3.0256-1.9726 4.0049-2.6207 0.55158-0.36507 1.3362-0.48748 2.0782-0.92225 2.6814-0.42324 4.8128-0.86393 7.5603 0zm-7.8323 24.724c-0.24296 0.01785-0.48534 0.15151-0.72187 0.24731-2.0549 0.83311-3.5172 2.4592-5.1471 3.8603-1.3011 1.1183-1.3706 1.1202-2.6644-0.0113-3.2484-2.8403-4.1411-3.8006-5.5497-3.5698-0.25947-0.34659 0.34015-0.15413-0.07518-0.2767-0.256-0.07554-0.33323 0.0044-0.24872 0.25607 0.13791 0.41055-0.0769-0.18014 0.27982 0.06529 0.50476 3.3125 1.5907 6.4233-1.6538 6.7217-1.4464 0.13285-2.3665-0.61857-2.7715-2.1134-0.245-0.90373 0.42132-2.5999-1.1961-2.437-2.2074 0.22257 1.682 4.4752-3.9763 7.2345-2.8843 1.4063-3.5865 4.1702-3.9666 6.932-0.39564 2.8763 0.30395 5.5141 3.0547 7.4075 0.21721-1.3376-0.5682-2.2362-0.75155-3.28-0.54802-3.1222 0.25087-5.7465 2.589-7.8978 2.5875-2.3805 6.2927 0.6254 3.998 2.7637-0.33884 1.7635 0.19001 0.16101 0.80298 4.033 0.25556 1.7452-2.1079 3.4954 1.2046 5.6147 0.45483 0.29102 0.8896 0.67926 1.3906 0.82079 3.3427 0.94367 5.925 2.9517 8.0428 5.8682 1.8014-3.0311 4.5987-4.4244 7.5055-5.6005 2.3753-0.96103 4.4048-2.3577 3.6935-4.8066-1.1633-3.3379 0.43605-3.2621 0.35923-5.1379-1.4063-0.95524-1.6918-1.8163-1.0483-2.9343 0.72935-1.2672 2.0258-1.8143 3.3018-1.2284 2.8213 1.2958 3.5777 3.4608 3.9437 6.5692 0.19551 1.6593 0.03129 3.2499-1.3581 4.4443-0.01514 0.11106-0.15298 0.10318-0.18852 0.19445 0.04358-0.0897 0.19587-0.06994 0.2004-0.19898 0.40418 0.23429 0.8132 0.23743 1.1492-0.12493 3.3981-3.6637 3.2785-10.568-1.4688-13.648-3.8554-2.5018-1.8321-4.7942-2.487-5.9951-0.39058-0.71604-1.5159-0.864-1.6328 0.08762-0.06541 0.53269 4e-3 1.0835-0.07603 1.6125-0.20752 1.3693-1.2185 2.2757-2.6155 2.4121-3.1117 0.30375-2.8187-3.7247-2.072-5.4436 0.29637-0.6829 0.60073-1.3622 0.8793-1.9928-0.23878-0.3675-0.4823-0.46555-0.72526-0.44771zm-13.896 29.824c-0.4381 0.11725-0.85636 0.41346-1.2498 0.95814-0.94816 1.3128-1.2902 2.7245-0.42904 4.2357 1.8907 3.3174 1.996 3.3916-0.73317 4.9383 2.1604 1.6635 1.9962 4.3074 3.1068 6.4724-2.9984 1.2668-5.3711-2.4574-6.5147-0.75126-0.99475 1.4842 2.7128 0.98762 5.0065 5.4109 0.09869 0.1903 0.34651 0.35301 0.35274 0.53419 0.15238 4.4195 5.4293 3.745 6.4165 11.842 0.58116 4.766-4.5573 7.297-4.9795 10.178-0.0615 0.42039-0.21216 0.94053 0.19332 1.21 0.691 0.45918 0.81962-0.28754 1.1526-0.63311 1.1932-1.2383 1.9931-1.2907 3.2812-0.26371 1.1406 0.90952 1.1341 0.90237 2.1131-0.0096 1.8529-1.7261 3.2052-1.019 3.5369 0.71566 0.30384 1.2575 1.4439 0.66889 1.3211-0.6416-0.27915-2.5024-2.2349-3.2194-4.1579-6.0263-2.9886-4.3624-0.79825-8.8982 3.0517-12.548 1.1088-1.0513 2.1034-1.9046 2.0749-3.7359-0.04486-2.886 3.5349-3.1937 7.0171-5.6319 0.26207-0.1835 0.5371-0.37645 0.38298-0.92651-0.87652-0.17858-1.9723 0.69773-2.8895-0.26793-0.61445-0.64686-1.0071 1.1285-4.3506 1.7331-0.72588 0.13125-1.3401-0.44981-1.13-1.156 0.57335-1.9276 0.6709-4.0835 2.6588-5.3965-0.60229-0.79838-1.798-0.66157-1.9296-1.6787-0.32517-2.5163 1.2213-1.8433 1.7947-4.3213 0.54991-2.3765-1.315-2.9139-3.7145-4.1299-1.6716-0.84715-5.8833 4.5097-3.6913 5.9454 1.5923 1.0428 1.6497 2.6778 1.8083 4.2844 0.16121 1.6332-0.63714 3.4961 1.2408 4.7076 0.279 0.18002-0.43477 1.0193-0.93808 1.0353-1.3659 0.0437-2.5715-0.93436-2.9584-2.4862-0.12648-0.50736-0.07817-1.0586-0.23996-1.6254-0.11646 1.5681-0.62456 2.9666-1.574 4.1913-1.6151 0.1736-2.2685 0.40097-2.7374-0.22187-0.67146-0.89172 0.38653-1.3051 0.80214-1.825 1.0221-1.2788 0.41537-2.3137 0.40842-4.3749-0.01201-3.6075 2.619-2.9055 2.2498-5.0697-0.18581-1.0893-0.39823-2.1316-1.4115-2.7812-1.5348-0.98386-3.0271-2.2417-4.3414-1.8899zm5.0299 16.163c0.02251-0.0025 0.0277-0.0029 0.05059-0.0054l-0.07462 0.06897c0.01463-0.01852 0.0096-0.04501 0.02402-0.0636zm-8.6056-15.947c-1.8824 0.14972-2.7073 1.7772-3.5887 2.9942-2.0375 2.8128-0.20399 7.3656 2.7416 9.3678 0.60943-1.0448-0.3145-1.7834-0.63453-2.5876-1.3077-3.2866-1.1518-7.3358 1.4816-9.7746zm19.47 0.49801-0.11136 0.17749c5.394 5.6101 0.8149 10.134 0.89146 11.009 0.07351 0.8415 0.97008 0.53251 1.2029 0.36291 3.6763-2.6762 4.1762-9.2629-0.85104-11.436-0.43616-0.18842-0.82282-0.14612-1.2007 0.11871zm-20.221 11.813-0.08451 0.06191c0.0274 0.01854 0.04589 0.052 0.07349 0.0701zm3.5253 33.308-0.0079 86.195 0.0079 109.46c1.1629-1.3558 2.3678-1.7397 2.3216-3.2352-5.79e-4 -0.0201 0.14019-106.23 0.14019-106.23s-0.14077-82.953-0.14019-82.968c0.04631-1.4954-1.1586-1.8792-2.3216-3.235zm13.971 0.55963c-0.01943 0.0148-0.01804 0.037-0.03702 0.052l0.17297 0.0198c-0.06555 0.1732-0.11077 0.14918-0.13595-0.0718zm-0.05285 0.0743c-1.3306 1.0664-1.5742 2.4879-1.5536 4.1495 0.0424 3.4877 0.10684 81.419 0.10684 81.419s-0.06444 101.2-0.10684 104.68c-0.02057 1.6614 0.2231 3.0835 1.5536 4.1498 0.21132-0.35795 0.56924-0.70928 0.5862-1.0763 0.20231-4.3719 0.19332-107.75 0.19332-107.75s9e-3 -80.117-0.19332-84.487c-0.01696-0.36702-0.37486-0.71835-0.5862-1.0763zm-7.5606 1.5163c-2.0943 0.31084-2.1184 0.3109-2.1131 1.9999 0.3269 103.96-0.17439 82.056-0.17439 82.056s0.50144 1.3537 0.17439 105.32c-0.0052 1.6891 0.0189 1.6891 2.1131 1.9999 0.27105-5.9659 0.29141-107.32 0.29141-107.32s-0.02036-78.091-0.29141-84.053zm2.3849 0.0333c-0.59682 0.2272-0.45024 84.024-0.45024 84.024s-0.18856 107.17 0.75381 107.13c0.65193-0.0279 1.6358-0.5918 1.5206-1.3052-0.29753-1.8435 0.20494-3.6496 0.20407-5.4688-0.05195-100.3 0.09553-100.36 0.09553-100.36s-0.14764 23.206-0.09553-77.092c8.68e-4 -1.8192-0.5016-3.6253-0.20407-5.4688 0.11519-0.71342-0.86868-1.2773-1.5206-1.3052-0.1178-5e-3 -0.2183-0.18678-0.30355-0.15432zm5.3645 192.85-0.17298 0.0201c0.01898 0.015 0.0176 0.0372 0.03702 0.052 0.02518-0.22097 0.32116-0.0721 0.13595-0.0721zm-1.9384 0.37054c-0.43298 0.44354-0.03737 0.85952-0.11334 1.2575-0.33168 1.7347-1.684 2.4417-3.5369 0.71564-0.97898-0.91197-0.97255-0.91912-2.1131-0.01-1.2879 1.027-2.0879 0.97459-3.2812-0.26371-0.33298-0.34543-0.46175-1.0921-1.1526-0.63311-0.40548 0.26945-0.25482 0.7896-0.19332 1.21 0.42213 2.8815 5.5606 5.4125 4.9795 10.178-0.98723 8.0968-6.2642 7.4223-6.4165 11.842-0.0062 0.18132-0.25404 0.34404-0.35274 0.53419-2.2937 4.4233-6.0012 3.9268-5.0065 5.4109 1.1435 1.7062 3.5162-2.018 6.5147-0.75126-1.1107 2.1652-0.94653 4.8091-3.1068 6.4726 2.7291 1.5467 2.6238 1.6208 0.73317 4.9383-0.86118 1.5114-0.51911 2.9232 0.42904 4.236 1.5739 2.1788 3.5449 0.37965 5.5912-0.93216 1.0133-0.6496 1.2257-1.692 1.4115-2.7812 0.36902-2.1642-2.2619-1.4623-2.2498-5.0697 0.0069-2.0613 0.61368-3.0963-0.40842-4.3749-0.41561-0.5201-1.4736-0.93302-0.80214-1.8247 0.46884-0.6227 1.1222-0.39547 2.7374-0.2216 0.94947 1.2248 1.4575 2.6234 1.574 4.1913 0.16179-0.56683 0.11348-1.1177 0.23996-1.6251 0.38682-1.5518 1.5924-2.5302 2.9584-2.4864 0.50331 0.0161 1.2171 0.85529 0.93808 1.0353-1.8779 1.2114-1.0796 3.0744-1.2408 4.7076-0.1586 1.6066-0.21622 3.2413-1.8083 4.2842-2.1918 1.4355 2.0197 6.7925 3.6913 5.9454 2.3993-1.216 4.2644-1.7533 3.7145-4.1299-0.57335-2.4779-2.1199-1.805-1.7947-4.3212 0.1314-1.017 1.3273-0.88036 1.9296-1.679-1.9879-1.3128-2.0854-3.4689-2.6588-5.3965-0.21012-0.70619 0.40412-1.2871 1.13-1.156 3.3436 0.6046 3.7362 2.3799 4.3506 1.7331 0.91719-0.96566 2.0129-0.0894 2.8895-0.26793 0.15412-0.55006-0.12091-0.74301-0.38298-0.92651-3.4822-2.4383-7.062-2.7459-7.0171-5.6319 0.02865-1.8313-0.96594-2.6848-2.0749-3.7362-3.8499-3.6499-6.0403-8.1855-3.0517-12.548 1.9229-2.807 3.8786-3.524 4.1579-6.0264 0.10477-0.93991-0.24597-1.6367-1.2077-1.8991zm-6.3368 29.934c0-0.0235-0.0094-0.0451-0.02402-0.0636l0.07462 0.069c-0.0229-2e-3 -0.05059 0.0173-0.05059-5e-3zm-9.3678 3.5045c-0.0276 0.0181-0.04608 0.0516-0.07349 0.0701l0.08451 0.0619zm-0.08479 0.0808c-2.225 2.7813-4.7791 6.555-2.7416 9.3678 0.88138 1.2171 1.7062 2.8446 3.5887 2.9942-2.6333-2.4387-2.7893-6.488-1.4816-9.7746 0.32002-0.80416 1.2441-1.5428 0.63454-2.5876zm21.639 0.11731c-0.26248 0-0.50499 0.14-0.54182 0.56076-0.07655 0.87493 4.5026 5.3986-0.89146 11.009l0.11136 0.17748-0.06868-0.23148c0.37784 0.26483 0.7645 0.30713 1.2007 0.11871 5.0273-2.1733 4.5273-8.76 0.85104-11.436-0.11642-0.0847-0.39861-0.19785-0.6611-0.19785zm-10.68 10.045c-2.1179 2.9167-4.7001 4.9243-8.0428 5.8679-0.50099 0.14153-0.93577 0.52992-1.3906 0.82078-3.3125 2.1193-0.94878 3.8695-1.2043 5.6147-0.13227 0.90402-0.52132 1.7354-1.4743 1.9305-0.78933 0.1616-1.6066 0.0627-2.0229-0.81796-0.05706 0.46611-0.22388 0.95402 0.29734 1.2945 0.80952 0.52878 1.6985 0.97555 2.3966 1.626 2.2947 2.1381-1.4102 5.1445-3.9977 2.764-2.3383-2.1513-3.1372-4.7758-2.589-7.8978 0.1832-1.0438 0.96847-1.9426 0.75126-3.28-2.7508 1.8934-3.4502 4.5312-3.0544 7.4075 0.38002 2.7618 1.0823 5.5257 3.9666 6.932 5.6582 2.7592 1.7688 7.0119 3.9763 7.2345 1.6176 0.16294 0.95086-1.5331 1.1959-2.437 0.4049-1.4947 1.3252-2.2462 2.7715-2.1134 3.2444 0.2984 2.159 3.4091 1.6541 6.7217-0.35672 0.24558-0.1419-0.34511-0.27982 0.0653-0.08451 0.25165-0.0076 0.33146 0.24844 0.25607 0.41532-0.12272-0.18386 0.07 0.07547-0.27671 1.4086 0.23082 2.3014-0.72949 5.5497-3.5698 1.294-1.1316 1.3632-1.1299 2.6642-0.0116 1.6299 1.4011 3.0922 3.0274 5.1471 3.8604 0.47292 0.19174 0.96957 0.53459 1.4471-0.2004-0.27843-0.63066-0.5825-1.3102-0.87901-1.993-0.74672-1.7189-1.04-5.7471 2.0717-5.4434 1.3971 0.13632 2.4083 1.0428 2.6158 2.4121 0.08003 0.52893 0.01033 1.0795 0.07575 1.6122 0.11678 0.95149 1.2422 0.80379 1.6328 0.0879 0.65497-1.201-1.3685-3.4936 2.487-5.9954 4.7473-3.0803 4.867-9.9844 1.4688-13.648-0.33588-0.36236-0.74504-0.35922-1.1492-0.12493-0.0044-0.12544-0.15328-0.10547-0.19474-0.19361 0.03387 0.0892 0.16821 0.081 0.18287 0.18881 1.3894 1.1943 1.5539 2.785 1.3584 4.4442-0.36598 3.1083-1.1224 5.2733-3.9437 6.5691-1.2761 0.58594-2.5724 0.0388-3.3018-1.2283-0.64339-1.118-0.35799-1.9788 1.0483-2.934 0.43341-0.29434 1.037-0.35522 1.2066-0.97285-2.0617-1.4685-2.2702-1.7409-1.5661-4.1653 0.71112-2.449-1.3184-3.8456-3.6935-4.8066-2.9068-1.1761-5.8062-2.5105-7.5055-5.6002z" fill="{{ border_color }}" stroke-width=".14471"/>
</svg>
