<?xml version="1.0" encoding="UTF-8"?>
<svg width="800" height="1300" enable-background="new 0 0 4379.433 5000" version="1.1" viewBox="0 0 800 1300" xmlns="http://www.w3.org/2000/svg">
 <g fill="{{ border_color }}">
  <g transform="translate(0 14.325)">
   <path d="m268.21 631.46c-5.963-1.343-29.111-2.571-51.44-2.729-34.72-0.245-40.833 0.327-42.225 3.954-0.895 2.333-1.628 31.387-1.628 64.565 0 45.841 0.775 60.067 3.228 59.249 1.776-0.592 4.283-5.216 5.573-10.277 2.621-10.286 12.965-22.49 23.907-28.207 9.427-4.926 28.269-4.806 37.945 0.241 10.355 5.401 12.791 3.073 10.696-10.218-4.144-26.293-20.689-38.802-54.729-41.38l-17.615-1.334 0.188-13.194c0.236-16.494 0.223-16.49 48.048-14.86 40.719 1.388 49.063 4.27 60.244 20.808l6.246 9.238-0.875 256.03c-0.976 285.79 0.297 267.6-19.676 281.19-10.197 6.941-15.455 7.441-66.318 6.312l-28.82-0.64v-34.259l28.976-0.992c35.481-1.214 41.937-4.368 44.063-21.525 0.789-6.374 0.575-52.003-0.477-101.4-1.794-84.282-2.283-90.761-7.944-105.24-7.766-19.862-18.584-26.204-28.235-16.554-5.465 5.466-5.504 26.757-0.113 61.704 14.157 91.761 3.509 149.99-28.898 158.03l-7.373 1.83v-48.547c0-28.008 1.051-48.547 2.484-48.547 1.366 0 5.698-6.569 9.626-14.599 7.806-15.955 8.943-33.752 6.691-104.7-1.296-40.824 3.628-51.994 23.008-52.193 12.969-0.134 21.08 12.097 24.835 37.448 0.982 6.635 2.978 11.74 4.434 11.343 3.398-0.925 2.038-72.485-1.7-89.442-3.448-15.644-14.174-26.398-28.194-28.268-13.492-1.799-22.467 5.116-31.545 24.303-15.989 33.799-17.408 52.098-17.687 228.17l-0.242 152.81h47.71c53.357 0 57.724-1.097 71.232-17.897 7.225-8.985 8.121-12.414 10.161-38.874 3.336-43.287 3.087-490.63-0.279-502.75-3.417-12.314-18.496-25.271-33.282-28.603z"/>
   <path d="m80.071 1220.5c26.345 0.492 48.888-0.11 50.096-1.338 3.299-3.355 3.934-146.54 0.655-147.63-1.585-0.529-3.305 7.925-4.165 20.48-1.564 22.821-4.778 29.923-17.262 38.155-14.854 9.794-39.522 3.955-49.006-11.601-2.976-4.881-5.421-11.086-5.421-13.79-5e-3 -2.758-1.481-4.408-3.361-3.761-4.116 1.418-3.733 52.728 0.454 60.549 5.04 9.42 19.437 13.81 45.279 13.81h24.145l0.918 15.011c0.505 8.256 0.207 16.156-0.66 17.555-2.091 3.369-82.632 3.263-91.532-0.121-3.793-1.442-10.1-6.822-14.015-11.954l-7.118-9.332 0.212-256.48c0.231-280.05-0.576-265.86 16.016-281.49l8.542-8.043 90.815-1.694v20.215c0 19.329-0.323 20.384-7.373 24.076-8.086 4.235-21.421 17.836-28.096 28.655-12.749 20.667-16.827 61.5-7.644 76.559 9.694 15.898 33.631 22.09 46.167 11.943l6.329-5.124 0.634-79.996c0.349-43.998 0.085-81.504-0.586-83.347-0.905-2.486-11.802-3.334-42.188-3.286-59.63 0.095-74.081 4.774-84.726 27.433-5.204 11.075-5.368 18.26-6.262 272.96l-0.918 261.59 7.511 9.857c13.414 17.605 18.882 19.121 72.56 20.124z"/>
   <path d="m54.029 759.04c1.848 0.622 3.865-3.598 5.012-10.49 4.702-28.247 23.981-60.442 39.059-65.228 2.813-0.893 5.115-3.492 5.115-5.776 0-3.44-3.006-3.961-17.507-3.038-15.402 0.98-18.545 2.152-26.139 9.74l-8.632 8.625v32.563c0 22.208 0.983 32.894 3.092 33.604z"/>
   <path d="m211.17 735.93c-8.771 6.799-19.486 18.439-19.486 21.167 0 3.507 9.9 3.527 12.064 0.027 0.911-1.475 6.035-2.681 11.386-2.681 12.166 0 26.076 9.158 31.651 20.839 2.304 4.826 5.326 8.073 6.715 7.215s2.526-11.597 2.526-23.862c0-23.703-1.558-27.048-13.405-28.793-9.515-1.402-25.874 1.767-31.451 6.09z"/>
   <path d="m91.753 892.31c-15.324-0.236-25.312-6.647-32.324-20.752-8.712-17.522-10.379-12.264-9.408 29.663 0.753 32.527 1.789 40.986 5.839 47.67 10.169 16.786 30.426 21.922 46.883 11.889 18.284-11.147 32.954-33.679 58.308-89.555 19.031-41.942 32.961-64.14 43.751-69.72 12.105-6.26 25.353-5.292 34.65 2.532 14.492 12.193 19.403 5.619 6.903-9.238-7.954-9.453-14.954-13.728-26.52-16.199h-1e-3c-9.392-2.007-23.654 0.635-30.236 5.601-13.917 10.5-21.779 20.635-44.019 56.745-27.735 45.034-34.678 51.66-53.826 51.364z"/>
   <path d="m87.714 853.73c24.209 6.096 50.549-9.813 58.128-35.106 4.364-14.564 0.868-18.036-9.305-9.24-8.234 7.119-21.893 12.044-33.466 12.071-12.206 0.027-32.835-12.355-40.033-24.028h-1e-3c-9.4-15.245-13.442-14.078-13.442 3.882 1e-3 28.264 12.959 46.085 38.119 52.421z"/>
   <path d="m49.21 1023c3.451 34.045 17.658 53.133 39.568 53.159 17.92 0.021 28.107-14.795 39.62-57.63 3.963-14.745 11.772-43.367 17.353-63.604 6.589-23.894 9.136-37.215 7.263-37.991-1.587-0.658-3.101-1.293-3.364-1.408-0.264-0.116-2.471 6.726-4.904 15.204-7.281 25.365-27.393 63.176-40.389 75.93-9.913 9.729-13.431 11.547-21.874 11.308-8.53-0.242-11.772-2.258-21.307-13.25-13.77-15.872-15.205-13.68-11.966 18.282z"/>
  </g>
  <path d="m268.21 589.19c-5.963 1.343-29.111 2.571-51.44 2.729-34.72 0.245-40.833-0.327-42.225-3.954-0.895-2.333-1.628-31.387-1.628-64.565 0-45.841 0.775-60.067 3.228-59.249 1.776 0.592 4.283 5.216 5.573 10.277 2.621 10.286 12.965 22.49 23.907 28.207 9.427 4.926 28.269 4.806 37.945-0.241 10.355-5.401 12.791-3.073 10.696 10.218-4.144 26.293-20.689 38.802-54.729 41.38l-17.615 1.334 0.188 13.194c0.236 16.494 0.223 16.49 48.048 14.86 40.719-1.388 49.063-4.27 60.244-20.808l6.246-9.238-0.875-256.03c-0.976-285.79 0.297-267.6-19.676-281.19-10.197-6.941-15.455-7.441-66.318-6.312l-28.82 0.64v34.259l28.976 0.992c35.481 1.214 41.937 4.368 44.063 21.525 0.789 6.374 0.575 52.003-0.477 101.4-1.794 84.282-2.283 90.761-7.944 105.24-7.766 19.862-18.584 26.204-28.235 16.554-5.465-5.466-5.504-26.757-0.113-61.704 14.157-91.761 3.509-149.99-28.898-158.03l-7.373-1.83v48.547c0 28.008 1.051 48.547 2.484 48.547 1.366 0 5.698 6.569 9.626 14.599 7.806 15.955 8.943 33.752 6.691 104.7-1.296 40.824 3.628 51.994 23.008 52.193 12.969 0.134 21.08-12.097 24.835-37.448 0.982-6.635 2.978-11.74 4.434-11.343 3.398 0.925 2.038 72.485-1.7 89.442-3.448 15.644-14.174 26.398-28.194 28.268-13.492 1.799-22.467-5.116-31.545-24.303-15.989-33.799-17.408-52.098-17.687-228.17l-0.242-152.81h47.71c53.357 0 57.724 1.097 71.232 17.897 7.225 8.985 8.121 12.414 10.161 38.873 3.336 43.288 3.087 490.63-0.279 502.76-3.417 12.313-18.496 25.27-33.282 28.602z"/>
  <path d="m80.071 0.1717c26.345-0.492 48.888 0.11 50.096 1.338 3.299 3.355 3.934 146.54 0.655 147.63-1.585 0.529-3.305-7.925-4.165-20.48-1.564-22.821-4.778-29.923-17.262-38.155-14.854-9.794-39.522-3.955-49.006 11.601-2.976 4.881-5.421 11.086-5.421 13.79-5e-3 2.758-1.481 4.409-3.361 3.761-4.116-1.418-3.733-52.727 0.454-60.549 5.04-9.42 19.437-13.81 45.279-13.81h24.145l0.918-15.011c0.505-8.256 0.207-16.156-0.66-17.555-2.091-3.37-82.632-3.263-91.532 0.121-3.793 1.442-10.1 6.821-14.015 11.954l-7.118 9.332 0.212 256.48c0.231 280.05-0.576 265.86 16.016 281.49l8.542 8.043 90.815 1.694v-20.215c0-19.329-0.323-20.384-7.373-24.076-8.086-4.235-21.421-17.836-28.096-28.655-12.749-20.667-16.827-61.5-7.644-76.559 9.694-15.898 33.631-22.09 46.167-11.943l6.329 5.124 0.634 79.996c0.349 43.998 0.085 81.504-0.586 83.347-0.905 2.486-11.802 3.334-42.188 3.286-59.63-0.095-74.081-4.774-84.726-27.433-5.204-11.075-5.368-18.26-6.262-272.96l-0.918-261.59 7.511-9.857c13.414-17.605 18.882-19.121 72.56-20.124z"/>
  <path d="m54.029 461.61c1.848-0.622 3.865 3.598 5.012 10.49 4.702 28.247 23.981 60.442 39.059 65.228 2.813 0.893 5.115 3.492 5.115 5.776 0 3.44-3.006 3.961-17.507 3.038-15.402-0.98-18.545-2.152-26.139-9.74l-8.632-8.625v-32.563c0-22.208 0.983-32.894 3.092-33.604z"/>
  <path d="m211.17 484.72c-8.771-6.799-19.486-18.439-19.486-21.167 0-3.507 9.9-3.527 12.064-0.027 0.911 1.475 6.035 2.681 11.386 2.681 12.166 0 26.076-9.158 31.651-20.839 2.304-4.826 5.326-8.073 6.715-7.215s2.526 11.597 2.526 23.862c0 23.703-1.558 27.048-13.405 28.793-9.515 1.402-25.874-1.767-31.451-6.09z"/>
  <path d="m91.753 328.33c-15.324 0.236-25.312 6.647-32.324 20.752-8.712 17.522-10.379 12.264-9.408-29.663 0.753-32.527 1.789-40.986 5.839-47.67 10.169-16.786 30.426-21.922 46.883-11.889 18.284 11.147 32.954 33.679 58.308 89.555 19.031 41.942 32.961 64.14 43.751 69.72 12.105 6.26 25.353 5.292 34.65-2.532 14.492-12.193 19.403-5.619 6.903 9.238-7.954 9.453-14.954 13.728-26.52 16.199h-1e-3c-9.392 2.007-23.654-0.635-30.236-5.601-13.917-10.5-21.779-20.635-44.019-56.745-27.735-45.034-34.678-51.66-53.826-51.364z"/>
  <path d="m87.714 366.92c24.209-6.096 50.549 9.813 58.128 35.106 4.364 14.564 0.868 18.036-9.305 9.24-8.234-7.119-21.893-12.044-33.466-12.071-12.206-0.027-32.835 12.355-40.033 24.028h-1e-3c-9.4 15.245-13.442 14.078-13.442-3.882 1e-3 -28.264 12.959-46.085 38.119-52.421z"/>
  <path d="m49.21 197.66c3.451-34.045 17.658-53.133 39.568-53.159 17.92-0.021 28.107 14.795 39.62 57.63 3.963 14.745 11.772 43.367 17.353 63.604 6.589 23.894 9.136 37.215 7.263 37.991-1.587 0.658-3.101 1.293-3.364 1.408-0.264 0.116-2.471-6.726-4.904-15.204-7.281-25.365-27.393-63.176-40.389-75.93-9.913-9.729-13.431-11.547-21.874-11.308-8.53 0.242-11.772 2.258-21.307 13.25-13.77 15.872-15.205 13.68-11.966-18.282z"/>
 </g>
 <g transform="matrix(-1 0 0 1 800 -4.562e-6)" fill="{{ border_color }}">
  <g transform="translate(0 14.325)">
   <path d="m268.21 631.46c-5.963-1.343-29.111-2.571-51.44-2.729-34.72-0.245-40.833 0.327-42.225 3.954-0.895 2.333-1.628 31.387-1.628 64.565 0 45.841 0.775 60.067 3.228 59.249 1.776-0.592 4.283-5.216 5.573-10.277 2.621-10.286 12.965-22.49 23.907-28.207 9.427-4.926 28.269-4.806 37.945 0.241 10.355 5.401 12.791 3.073 10.696-10.218-4.144-26.293-20.689-38.802-54.729-41.38l-17.615-1.334 0.188-13.194c0.236-16.494 0.223-16.49 48.048-14.86 40.719 1.388 49.063 4.27 60.244 20.808l6.246 9.238-0.875 256.03c-0.976 285.79 0.297 267.6-19.676 281.19-10.197 6.941-15.455 7.441-66.318 6.312l-28.82-0.64v-34.259l28.976-0.992c35.481-1.214 41.937-4.368 44.063-21.525 0.789-6.374 0.575-52.003-0.477-101.4-1.794-84.282-2.283-90.761-7.944-105.24-7.766-19.862-18.584-26.204-28.235-16.554-5.465 5.466-5.504 26.757-0.113 61.704 14.157 91.761 3.509 149.99-28.898 158.03l-7.373 1.83v-48.547c0-28.008 1.051-48.547 2.484-48.547 1.366 0 5.698-6.569 9.626-14.599 7.806-15.955 8.943-33.752 6.691-104.7-1.296-40.824 3.628-51.994 23.008-52.193 12.969-0.134 21.08 12.097 24.835 37.448 0.982 6.635 2.978 11.74 4.434 11.343 3.398-0.925 2.038-72.485-1.7-89.442-3.448-15.644-14.174-26.398-28.194-28.268-13.492-1.799-22.467 5.116-31.545 24.303-15.989 33.799-17.408 52.098-17.687 228.17l-0.242 152.81h47.71c53.357 0 57.724-1.097 71.232-17.897 7.225-8.985 8.121-12.414 10.161-38.874 3.336-43.287 3.087-490.63-0.279-502.75-3.417-12.314-18.496-25.271-33.282-28.603z"/>
   <path d="m80.071 1220.5c26.345 0.492 48.888-0.11 50.096-1.338 3.299-3.355 3.934-146.54 0.655-147.63-1.585-0.529-3.305 7.925-4.165 20.48-1.564 22.821-4.778 29.923-17.262 38.155-14.854 9.794-39.522 3.955-49.006-11.601-2.976-4.881-5.421-11.086-5.421-13.79-5e-3 -2.758-1.481-4.408-3.361-3.761-4.116 1.418-3.733 52.728 0.454 60.549 5.04 9.42 19.437 13.81 45.279 13.81h24.145l0.918 15.011c0.505 8.256 0.207 16.156-0.66 17.555-2.091 3.369-82.632 3.263-91.532-0.121-3.793-1.442-10.1-6.822-14.015-11.954l-7.118-9.332 0.212-256.48c0.231-280.05-0.576-265.86 16.016-281.49l8.542-8.043 90.815-1.694v20.215c0 19.329-0.323 20.384-7.373 24.076-8.086 4.235-21.421 17.836-28.096 28.655-12.749 20.667-16.827 61.5-7.644 76.559 9.694 15.898 33.631 22.09 46.167 11.943l6.329-5.124 0.634-79.996c0.349-43.998 0.085-81.504-0.586-83.347-0.905-2.486-11.802-3.334-42.188-3.286-59.63 0.095-74.081 4.774-84.726 27.433-5.204 11.075-5.368 18.26-6.262 272.96l-0.918 261.59 7.511 9.857c13.414 17.605 18.882 19.121 72.56 20.124z"/>
   <path d="m54.029 759.04c1.848 0.622 3.865-3.598 5.012-10.49 4.702-28.247 23.981-60.442 39.059-65.228 2.813-0.893 5.115-3.492 5.115-5.776 0-3.44-3.006-3.961-17.507-3.038-15.402 0.98-18.545 2.152-26.139 9.74l-8.632 8.625v32.563c0 22.208 0.983 32.894 3.092 33.604z"/>
   <path d="m211.17 735.93c-8.771 6.799-19.486 18.439-19.486 21.167 0 3.507 9.9 3.527 12.064 0.027 0.911-1.475 6.035-2.681 11.386-2.681 12.166 0 26.076 9.158 31.651 20.839 2.304 4.826 5.326 8.073 6.715 7.215s2.526-11.597 2.526-23.862c0-23.703-1.558-27.048-13.405-28.793-9.515-1.402-25.874 1.767-31.451 6.09z"/>
   <path d="m91.753 892.31c-15.324-0.236-25.312-6.647-32.324-20.752-8.712-17.522-10.379-12.264-9.408 29.663 0.753 32.527 1.789 40.986 5.839 47.67 10.169 16.786 30.426 21.922 46.883 11.889 18.284-11.147 32.954-33.679 58.308-89.555 19.031-41.942 32.961-64.14 43.751-69.72 12.105-6.26 25.353-5.292 34.65 2.532 14.492 12.193 19.403 5.619 6.903-9.238-7.954-9.453-14.954-13.728-26.52-16.199h-1e-3c-9.392-2.007-23.654 0.635-30.236 5.601-13.917 10.5-21.779 20.635-44.019 56.745-27.735 45.034-34.678 51.66-53.826 51.364z"/>
   <path d="m87.714 853.73c24.209 6.096 50.549-9.813 58.128-35.106 4.364-14.564 0.868-18.036-9.305-9.24-8.234 7.119-21.893 12.044-33.466 12.071-12.206 0.027-32.835-12.355-40.033-24.028h-1e-3c-9.4-15.245-13.442-14.078-13.442 3.882 1e-3 28.264 12.959 46.085 38.119 52.421z"/>
   <path d="m49.21 1023c3.451 34.045 17.658 53.133 39.568 53.159 17.92 0.021 28.107-14.795 39.62-57.63 3.963-14.745 11.772-43.367 17.353-63.604 6.589-23.894 9.136-37.215 7.263-37.991-1.587-0.658-3.101-1.293-3.364-1.408-0.264-0.116-2.471 6.726-4.904 15.204-7.281 25.365-27.393 63.176-40.389 75.93-9.913 9.729-13.431 11.547-21.874 11.308-8.53-0.242-11.772-2.258-21.307-13.25-13.77-15.872-15.205-13.68-11.966 18.282z"/>
  </g>
  <path d="m268.21 589.19c-5.963 1.343-29.111 2.571-51.44 2.729-34.72 0.245-40.833-0.327-42.225-3.954-0.895-2.333-1.628-31.387-1.628-64.565 0-45.841 0.775-60.067 3.228-59.249 1.776 0.592 4.283 5.216 5.573 10.277 2.621 10.286 12.965 22.49 23.907 28.207 9.427 4.926 28.269 4.806 37.945-0.241 10.355-5.401 12.791-3.073 10.696 10.218-4.144 26.293-20.689 38.802-54.729 41.38l-17.615 1.334 0.188 13.194c0.236 16.494 0.223 16.49 48.048 14.86 40.719-1.388 49.063-4.27 60.244-20.808l6.246-9.238-0.875-256.03c-0.976-285.79 0.297-267.6-19.676-281.19-10.197-6.941-15.455-7.441-66.318-6.312l-28.82 0.64v34.259l28.976 0.992c35.481 1.214 41.937 4.368 44.063 21.525 0.789 6.374 0.575 52.003-0.477 101.4-1.794 84.282-2.283 90.761-7.944 105.24-7.766 19.862-18.584 26.204-28.235 16.554-5.465-5.466-5.504-26.757-0.113-61.704 14.157-91.761 3.509-149.99-28.898-158.03l-7.373-1.83v48.547c0 28.008 1.051 48.547 2.484 48.547 1.366 0 5.698 6.569 9.626 14.599 7.806 15.955 8.943 33.752 6.691 104.7-1.296 40.824 3.628 51.994 23.008 52.193 12.969 0.134 21.08-12.097 24.835-37.448 0.982-6.635 2.978-11.74 4.434-11.343 3.398 0.925 2.038 72.485-1.7 89.442-3.448 15.644-14.174 26.398-28.194 28.268-13.492 1.799-22.467-5.116-31.545-24.303-15.989-33.799-17.408-52.098-17.687-228.17l-0.242-152.81h47.71c53.357 0 57.724 1.097 71.232 17.897 7.225 8.985 8.121 12.414 10.161 38.873 3.336 43.288 3.087 490.63-0.279 502.76-3.417 12.313-18.496 25.27-33.282 28.602z"/>
  <path d="m80.071 0.1717c26.345-0.492 48.888 0.11 50.096 1.338 3.299 3.355 3.934 146.54 0.655 147.63-1.585 0.529-3.305-7.925-4.165-20.48-1.564-22.821-4.778-29.923-17.262-38.155-14.854-9.794-39.522-3.955-49.006 11.601-2.976 4.881-5.421 11.086-5.421 13.79-5e-3 2.758-1.481 4.409-3.361 3.761-4.116-1.418-3.733-52.727 0.454-60.549 5.04-9.42 19.437-13.81 45.279-13.81h24.145l0.918-15.011c0.505-8.256 0.207-16.156-0.66-17.555-2.091-3.37-82.632-3.263-91.532 0.121-3.793 1.442-10.1 6.821-14.015 11.954l-7.118 9.332 0.212 256.48c0.231 280.05-0.576 265.86 16.016 281.49l8.542 8.043 90.815 1.694v-20.215c0-19.329-0.323-20.384-7.373-24.076-8.086-4.235-21.421-17.836-28.096-28.655-12.749-20.667-16.827-61.5-7.644-76.559 9.694-15.898 33.631-22.09 46.167-11.943l6.329 5.124 0.634 79.996c0.349 43.998 0.085 81.504-0.586 83.347-0.905 2.486-11.802 3.334-42.188 3.286-59.63-0.095-74.081-4.774-84.726-27.433-5.204-11.075-5.368-18.26-6.262-272.96l-0.918-261.59 7.511-9.857c13.414-17.605 18.882-19.121 72.56-20.124z"/>
  <path d="m54.029 461.61c1.848-0.622 3.865 3.598 5.012 10.49 4.702 28.247 23.981 60.442 39.059 65.228 2.813 0.893 5.115 3.492 5.115 5.776 0 3.44-3.006 3.961-17.507 3.038-15.402-0.98-18.545-2.152-26.139-9.74l-8.632-8.625v-32.563c0-22.208 0.983-32.894 3.092-33.604z"/>
  <path d="m211.17 484.72c-8.771-6.799-19.486-18.439-19.486-21.167 0-3.507 9.9-3.527 12.064-0.027 0.911 1.475 6.035 2.681 11.386 2.681 12.166 0 26.076-9.158 31.651-20.839 2.304-4.826 5.326-8.073 6.715-7.215s2.526 11.597 2.526 23.862c0 23.703-1.558 27.048-13.405 28.793-9.515 1.402-25.874-1.767-31.451-6.09z"/>
  <path d="m91.753 328.33c-15.324 0.236-25.312 6.647-32.324 20.752-8.712 17.522-10.379 12.264-9.408-29.663 0.753-32.527 1.789-40.986 5.839-47.67 10.169-16.786 30.426-21.922 46.883-11.889 18.284 11.147 32.954 33.679 58.308 89.555 19.031 41.942 32.961 64.14 43.751 69.72 12.105 6.26 25.353 5.292 34.65-2.532 14.492-12.193 19.403-5.619 6.903 9.238-7.954 9.453-14.954 13.728-26.52 16.199h-1e-3c-9.392 2.007-23.654-0.635-30.236-5.601-13.917-10.5-21.779-20.635-44.019-56.745-27.735-45.034-34.678-51.66-53.826-51.364z"/>
  <path d="m87.714 366.92c24.209-6.096 50.549 9.813 58.128 35.106 4.364 14.564 0.868 18.036-9.305 9.24-8.234-7.119-21.893-12.044-33.466-12.071-12.206-0.027-32.835 12.355-40.033 24.028h-1e-3c-9.4 15.245-13.442 14.078-13.442-3.882 1e-3 -28.264 12.959-46.085 38.119-52.421z"/>
  <path d="m49.21 197.66c3.451-34.045 17.658-53.133 39.568-53.159 17.92-0.021 28.107 14.795 39.62 57.63 3.963 14.745 11.772 43.367 17.353 63.604 6.589 23.894 9.136 37.215 7.263 37.991-1.587 0.658-3.101 1.293-3.364 1.408-0.264 0.116-2.471-6.726-4.904-15.204-7.281-25.365-27.393-63.176-40.389-75.93-9.913-9.729-13.431-11.547-21.874-11.308-8.53 0.242-11.772 2.258-21.307 13.25-13.77 15.872-15.205 13.68-11.966-18.282z"/>
 </g>
</svg>
