<?xml version="1.0" encoding="UTF-8"?>
<svg width="100" height="109.96" version="1.1" viewBox="0 0 100 109.96" xmlns="http://www.w3.org/2000/svg">
 <path d="m1.8368 0-0.0254 19.844c-0.051957 41.081-0.10419 58.115-0.16445 90.156h1.8935c0.042876-35.605 0.13514-85.911 0.15012-110zm4.981 0c-0.01679 32.237-0.12217 78.968-0.15761 110h0.71674c0.02579-12.145 0.066232-49.01 0.086621-55.626 0.031375-12.205 0.050126-34.271 0.07327-54.374zm21.92 0.38621c-1.0837 0-0.45037 4.6184 0.88347 6.5025l0.68386 0.95056-0.83365 0.86686c-1.1504 1.2005-2.2342 4.9852-1.3338 4.6851 0.1834-0.05002 0.48325-0.73354 0.64998-1.5172 0.96703-4.285 3.8014-3.3178 4.5851 1.5507 0.73361 4.5684-3.6514 6.9191-4.5851 2.4508-0.08337-0.46684-0.23322-1.1338-0.29991-1.484-0.21675-1.0671-0.68352-0.71694-0.68352 0.50019 0 1.3338 0.53334 2.7344 1.5504 4.0682l0.73368 0.95023-0.85026 1.6341c-0.85032 1.6006-1.1504 3.8848-0.68352 5.1019 0.30011 0.8003 1.2505 0.55027 1.4172-0.35007 0.11672-0.60023 0.33319-0.85025 0.73334-0.85025 0.46684 0 0.5336-0.13332 0.40022-0.68352-0.13339-0.58355-0.08337-0.66712 0.41682-0.53374 0.51686 0.13337 0.55034 0.0502 0.38361-0.63337-0.1834-0.70026-0.15018-0.75035 0.45004-0.56695 0.60023 0.20008 0.63371 0.14987 0.46698-0.70046l-0.18334-0.91701 0.93362 0.55034c0.51686 0.30011 1.4006 0.63357 1.9841 0.75028 1.1004 0.20008 1.2337 0.43363 0.76689 1.3006-0.75028 1.3839 0.85012 2.2842 2.5508 1.4172 1.2338-0.63357 1.9176-0.51713 2.0509 0.31652 0.15005 0.91701 0.65025 0.73374 0.75028-0.28331 0.06669-0.68359-0.10011-1.1505-0.56695-1.6507-0.63357-0.68359-0.45017-1.2172 0.41682-1.2339 0.36681-0.01668 0.0502-0.71674-0.29991-0.71674-0.55021 0-0.65038-0.33366-0.21688-0.70047 0.63357-0.51686 0.63357-4.5516 0-4.5516-0.35013 0-0.40002 0.20008-0.28331 0.91701 0.2501 1.4339-0.15005 1.8007-1.5006 1.4006-2.0008-0.60023-2.6178-0.1668-2.6178 1.8507v1.3003l-0.91701-0.18334c-1.0337-0.20008-2.0841-1.1003-1.8174-1.5338 0.10004-0.15005 0.4335-0.21688 0.75028-0.13351 0.68359 0.1834 0.81704-0.70013 0.15012-0.95023-0.53354-0.20008-0.25016-0.7002 0.35006-0.60016 0.70026 0.13339 0.73381-0.56708 0.03354-0.78383-0.56688-0.1834-0.60016-0.23329-0.18334-0.5334 0.51686-0.38348 0.49999-1.9341-0.03354-2.9344-0.21675-0.40015-0.25009-0.81711-0.08337-1.1339 0.83365-1.6673 0.8005-3.5847-0.04983-2.7344-0.10004 0.10004-0.18367 0.03328-0.18367-0.15012s0.13357-0.33346 0.28364-0.33346 0.2833-0.20001 0.2833-0.43343-0.19994-0.43343-0.45004-0.43343c-0.31679 0-0.40008-0.15006-0.2667-0.50019 0.35013-0.90034 0.29991-1.0505-0.36701-1.1505-1.3005-0.20008 0.15005-1.4005 2.3342-1.9341 0.75028-0.1834 0.80024-0.15006 0.60016 0.33346-0.96703 2.2509-0.39988 3.1677 1.6843 2.7009 1.9507-0.4335 2.6177-0.01641 2.3342 1.4341-0.15005 0.78363-0.13351 0.83365 0.28331 0.50019 0.56688-0.46684 0.38334-2.7677-0.30025-3.7347-0.56688-0.8003-0.56682-1.3504-0.01666-1.3504 0.65025 0 0.5168-0.80037-0.15012-0.90041-0.56688-0.083365-0.55014-0.11678 0.15012-1.0671 0.66692-0.91701 0.98371-2.284 0.50019-2.284-0.11672 0-0.35013 0.28324-0.50019 0.63337-0.35013 0.78363-1.3338 0.95056-2.1842 0.36701-0.76696-0.51686-1.9672-0.58382-2.4508-0.1003-0.40015 0.40015-0.4503 1.5341-0.05014 1.7842 0.63357 0.40015 0.18327 0.90021-1.2173 1.3671-0.83365 0.28344-1.7173 0.58355-2.0008 0.66692-0.40015 0.13338-0.48345 0.033343-0.43343-0.50019 0.05003-0.56688-0.04997-0.66692-0.60016-0.58355-0.56688 0.083364-0.63364-1.8e-6 -0.48358-0.50019 0.15005-0.46684 0.06662-0.58355-0.40022-0.58355-0.50019 0-0.56688-0.13319-0.41682-0.71674 0.15005-0.60023 0.08337-0.71707-0.41682-0.71707-0.4335 0-0.60016-0.1668-0.60016-0.65031 0-0.71694-0.48338-1.3338-1.0336-1.3338zm-6.9746 0.18692c-0.22195-0.2118-0.52833-0.20346-0.91181 0.11332-0.23342 0.20008-0.41682 0.66679-0.41682 1.0336 0 0.50019-0.15 0.68353-0.60016 0.68353-0.46684-1.8e-6 -0.56675 0.13345-0.45004 0.56695 0.11672 0.4335 0.01668 0.56695-0.41682 0.56695-0.46684 0-0.53367 0.13338-0.38361 0.75028 0.15005 0.6169 0.10017 0.717-0.28331 0.56695-0.66692-0.25009-1.0671 0.083429-0.66692 0.56695 0.56688 0.66692 0.04976 0.80017-1.1007 0.28331-0.93369-0.41682-1.6338-0.63371-2.3841-0.71707-0.11671-0.016673-0.18347-0.6169-0.15012-1.3338 0.066692-1.8507-0.46684-2.1341-2.3342-1.2671-1.5006 0.70026-2.4676 0.41682-2.2509-0.66692 0.050019-0.21675-0.049889-0.45017-0.19994-0.50019-0.58355-0.1834-0.48372 1.834 0.13319 2.6677l0.60016 0.81704-1.3169 1.1003 0.64998 0.016609c0.6169-1.6e-6 0.63371 0.033477 0.21688 0.63371-0.48352 0.71693-0.60029 3.7848-0.15012 4.485 0.30011 0.48352 0.36687 0.31665 0.40022-1.1339 0.033346-1.0837 0.36694-1.167 2.6345-0.70013 1.0671 0.23342 1.6337-0.5168 1.567-2.1008-0.05002-1.3338 0.08343-1.4508 1.2339-1.1007 1.4505 0.45017 2.1842 1.6341 1.017 1.6341-1.1004 0-1.3504 0.43363-0.5334 0.8838l0.65031 0.35007-0.68352 0.16673c-0.93369 0.21675-1.0504 0.73341-0.2501 0.96683 0.60023 0.16673 0.61663 0.21682 0.1498 0.56695-0.55021 0.41682-0.66672 1.0339-0.21655 1.0339 0.16673 0 0.14999 0.23335-0.06676 0.60016-0.28344 0.48352-0.28344 0.63364 0 0.73368 0.1834 0.06669 0.35007 0.31665 0.35007 0.5334 0 0.21675 0.15006 0.40022 0.33346 0.40022 0.1834 0 0.03327 0.30005-0.31685 0.68352-0.3668 0.38348-0.58349 0.86706-0.5168 1.0671 0.06669 0.20008 0.01681 0.58349-0.11658 0.85025-0.1834 0.35013-0.10004 0.58369 0.2501 0.80044 0.3668 0.23342 0.40022 0.3666 0.15012 0.46664-0.56688 0.23342-0.40035 0.95056 0.21655 0.95056 0.60023 0 0.76716 0.41662 0.28364 0.71674-0.48352 0.30011-0.30031 0.63357 0.46664 0.83365 1.0171 0.2501 0.28337 1.0837-1.484 1.684-1.1171 0.36681-2.0008 0.20008-1.2671-0.25009 1.5006-0.91701-0.14999-2.9178-2.0174-2.4343-1.7507 0.4335-2.3844 0.08349-2.1343-1.2003 0.11671-0.58355 0.066757-0.78383-0.18334-0.70046-0.60023 0.1834-0.56675 2.0678 0.050149 3.3516 0.60023 1.2338 0.56675 1.684-0.13351 1.684-0.23342 0-0.41682 0.13326-0.41682 0.28331s0.23336 0.28364 0.5168 0.28364c0.83365 0 0.93375 0.33346 0.31685 1.0004-0.65025 0.68359-1.1003 2.6843-0.61677 2.6843 0.16673 0 0.3502-0.28357 0.40022-0.6337 0.11671-0.81698 1.3338-1.0003 2.3342-0.35007 1.4505 0.95036 2.3175 0.48365 2.2675-1.2003l-0.03354-1.484 1.6009-0.46698c0.88367-0.25009 1.6838-0.60009 1.8005-0.7835 0.33346-0.53354 0.58349 0.01666 0.2667 0.60016-0.40015 0.71694-0.14986 0.93355 0.70046 0.61677 0.68359-0.26677 0.98377 0.06695 0.40022 0.43376-0.53354 0.33346-0.30018 0.71674 0.43343 0.71674 0.63357 0 0.68359 0.08343 0.41682 0.56695-0.2501 0.46684-0.20008 0.58362 0.41682 0.73368 0.50019 0.11672 0.71674 0.3666 0.71674 0.8001 0 0.35013 0.15005 0.78376 0.33346 0.96717 1.4339 1.4339 1.5841-2.551 0.20028-5.3187l-0.8838-1.7838 0.56695-0.75028c2.1175-2.8344 2.3342-8.6866 0.40022-10.271-0.88367-0.73361-0.88387-1.0839-0.033542-2.8846 1.0504-2.2133 1.1443-4.8298 0.47836-5.4652zm3.94 0.99679c-1.4672-0.11671-2.0508 1.0004-1.4172 2.651 0.13339 0.31679 0.38361 0.41689 0.80044 0.31685 0.31679-0.083364 0.88367-0.16673 1.2505-0.16673 1.3505-0.016672 0.75015-2.6845-0.63371-2.8012zm3.3596 1.2964c0.09171 0.070861 0.25837 0.37951 0.55848 0.9714 0.36681 0.71694 1.3006 2.1006 2.0674 3.051 1.2338 1.5339 1.8674 2.8177 2.5176 5.0853 0.35013 1.2338-0.28317 0.60016-1.0668-1.0671-0.4335-0.93369-1.2506-2.2173-1.8008-2.8843-1.3005-1.5339-2.3844-3.7016-2.3844-4.7019 0-0.35847 0.01674-0.52513 0.10843-0.45427zm-7.9945 0.40217c0.04584 0.010433 0.07483 0.16908 0.13319 0.48587 0.11672 0.66692-0.76689 2.6342-1.5172 3.3844-0.23342 0.21675-0.73341 0.83358-1.1336 1.3504-0.40015 0.51686-1.0338 1.5506-1.4006 2.3342-0.38348 0.75028-0.70046 1.1506-0.70046 0.8838-0.03335-1.0004 1.2005-3.5513 2.651-5.4854 0.81698-1.0837 1.6007-2.234 1.734-2.5508 0.12505-0.2751 0.18764-0.41292 0.23349-0.4025zm17.557 0.25238c1.1838 0 1.384 0.21655 0.80044 0.8001-0.60023 0.58355-1.9341 0.41709-1.9341-0.23315 0-0.46684 0.1832-0.56695 1.1336-0.56695zm-26.527 0.10844c0.40015 0.07086 0.62524 0.25843 0.58355 0.54187-0.11671 0.81698-0.83365 0.91675-1.6673 0.23315-0.38348-0.31679-0.63337-0.60009-0.55001-0.61677 0.65858-0.1834 1.2336-0.22912 1.6338-0.15826zm0.0042 2.3029c0.23342 0.068777 0.34583 0.2979 0.34583 0.68971 0 0.40015-0.26657 0.55034-1.1336 0.63371-1.4005 0.13338-1.5341-0.40028-0.28361-1.0505 0.48352-0.25009 0.83795-0.34166 1.0714-0.27289zm26.105 0.039402c0.55024-0.21675 2.201 0.60036 1.9676 0.96717-0.1834 0.31679-1.9342 0.38348-2.2177 0.083364-0.33346-0.33346-0.20008-0.86713 0.2501-1.0505zm-12.888 1.2173c-1.0837 0.1834-1.5506 1.2505-1.0837 2.4843 0.10004 0.28344 0.49999 0.38321 1.3837 0.31652l1.2173-0.083365 0.08337-1.2505c0.10003-1.4672-0.16667-1.7005-1.6005-1.467zm-5.8632 1.5716c0.19246-0.033835 0.38184 0.014527 0.56108 0.1625 2.2008 1.834 2.5676 6.7692 0.66692 9.1868-1.0171 1.2838-2.234 0.30012-3.2844-2.6677-0.7878-2.1883 0.70925-6.4448 2.0564-6.6815zm5.9821 3.7117c-0.67734 0.06044-1.3361 0.70242-1.3361 1.8695l-0.01666 1.1004h2.8846l-0.08336-1.3504c-0.07498-1.1588-0.77107-1.6798-1.4484-1.6194zm-9.0266 2.8843c0.15006 0.0021 0.38771 0.30246 0.58779 0.90269 0.1834 0.58356 1.0504 2.0174 1.9174 3.1845 0.867 1.1671 1.8172 2.6842 2.1173 3.3678 0.71694 1.6506 0.55041 2.3009-0.21655 0.93362-0.35013-0.60023-1.1004-1.6506-1.6673-2.3342-1.1004-1.3172-2.4844-3.8848-2.8012-5.1686-0.15006-0.59189-0.08753-0.88784 0.06252-0.88575zm17.507 0.66692c0.10421-0.08961 0.07933 0.11905-0.01237 0.56923-0.28344 1.4672-1.1005 3.051-2.5676 4.9684-0.71694 0.93368-1.4339 2.0508-1.5839 2.4843-0.28344 0.75028-0.80043 1.0837-0.80043 0.5168 0-0.91701 1.0671-3.1512 2.0841-4.3183 0.65025-0.75028 1.6008-2.1008 2.1176-3.0011 0.42516-0.74195 0.65845-1.1296 0.76265-1.2192zm-8.6658 2.2532c-1.0171 0.15005-1.4504 1.0671-1.0336 2.1675 0.10004 0.26677 0.60009 0.40022 1.4504 0.40022h1.2837v-1.2505c0-1.3839-0.21662-1.5507-1.7005-1.3172zm14.08 2.1466c0.52937-0.02919 1.0088 0.03739 1.0088 0.22078 0 0.16673-0.23342 0.46684-0.50019 0.66692-0.9837 0.73361-2.6177 0.25023-1.8174-0.5334 0.20008-0.20008 0.77939-0.32512 1.3088-0.3543zm-28.069 0.13742c1.2671 0 1.7006 0.3668 1.1671 1.0004-0.40015 0.50019-0.49999 0.50025-1.3837 0.06676-1.1671-0.60023-1.0673-1.0671 0.21655-1.0671zm27.092 2.326c0.17715-0.02084 0.41057 0.05829 0.80239 0.22502 1.0504 0.4335 1.167 0.86686 0.19994 0.86686-0.38348 0-0.8836 0.06669-1.1004 0.16673-0.60023 0.23342-0.81684-0.28324-0.36667-0.88347 0.16673-0.23342 0.28754-0.3543 0.46469-0.37514zm-26.335 0.05829c0.56063-0.06253 1.0444 0.14172 0.94437 0.66692-0.06669 0.36681-0.41696 0.51686-1.3006 0.58355-0.95036 0.06669-1.1672-6.6e-5 -1.0505-0.31685 0.20841-0.54187 0.84615-0.8711 1.4068-0.93362zm14.966 0.71674-1.3674 0.08337c-1.4005 0.08337-1.9339 0.98377-1.3837 2.4009 0.11672 0.30011 0.50006 0.40015 1.367 0.33346l1.2173-0.08337 0.08337-1.367zm1.7838 4.3018c-1.0171-0.01668-0.55014 4.3685 0.65031 6.1358 0.8003 1.1671 0.81684 1.3338 0.19994 1.8507-2.2008 1.8007-2.2674 8.3698-0.11658 10.671l0.58355 0.61678-0.8838 1.8675c-0.9837 2.1175-1.2671 5.1016-0.5168 5.5684 0.50019 0.31679 1.4006-0.45017 1.4006-1.1671 0-0.33346 0.20014-0.5168 0.56695-0.5168 0.41682 0 0.56695-0.19989 0.56695-0.71675 0-0.41682 0.13332-0.68371 0.35007-0.63369 0.21675 0.05003 0.31665-0.18347 0.28331-0.56695-0.05003-0.46684 0.08329-0.63339 0.51679-0.63339 0.45017 0 0.5336-0.11678 0.40022-0.56695-0.21675-0.6669 0.25029-0.71705 1.284-0.13349 0.40015 0.21675 0.9669 0.41682 1.2837 0.41682 1.0837 0.03335 1.4338 0.45024 1.017 1.2339-0.83365 1.5506 0.68359 2.5511 2.5009 1.6341 1.2338-0.63357 1.9007-0.53372 2.1675 0.29993 0.26677 0.85032 0.70047 0.63369 0.70047-0.36669 0-0.55019-0.25023-1.1671-0.63371-1.5839l-0.6337-0.68353 0.68386-0.51711c0.63357-0.48352 0.64998-0.51668 0.1498-0.80012-0.41682-0.23342-0.4501-0.38366-0.18334-0.70045 0.51686-0.6169 0.38341-4.4847-0.15012-4.4847-0.31679 0-0.38348 0.21675-0.25009 0.91701 0.28344 1.5172-0.06657 1.7673-1.7838 1.3338-1.8674-0.48352-2.4007-0.06674-2.3674 1.8507 0.01668 1.1671-0.05014 1.3003-0.63371 1.3003-1.3839 0-2.7012-1.6838-1.4674-1.8672 0.81698-0.11672 0.93369-0.41678 0.33346-0.85027-0.53354-0.38348-0.48338-0.4501 0.38361-0.51679 0.65025-0.03335 0.66678-0.6671 0.03322-0.86718-0.76696-0.2501-0.75015-0.61697 0.05014-0.81704 0.50019-0.13339 0.56675-0.23335 0.28331-0.5168-0.20008-0.20008-0.35007-0.68359-0.35007-1.0837 0-0.40015-0.19994-1.0169-0.45004-1.3671-0.40015-0.56688-0.40015-0.65036 0-0.80042 0.26677-0.10004 0.45004-0.51686 0.45004-1.0004 0-0.45017 0.13358-0.81704 0.28364-0.81704 0.15007 0 0.28331-0.20001 0.28331-0.43343 0-0.23342-0.20001-0.43343-0.43343-0.43343-0.48352 0-0.58362-0.4503-0.15012-0.71707 0.48351-0.30011 0.31692-0.71674-0.28331-0.71674-0.46684 0-0.53367-0.13344-0.38361-0.73368 0.15005-0.58356 0.06669-0.75042-0.41682-0.8838-1.0337-0.28344-0.40015-1.0337 1.4172-1.6673 1.6506-0.56688 1.7338-0.53347 1.2003 0.56695-0.66692 1.4005 0.06695 2.5845 1.4341 2.301 1.9007-0.40015 2.5843-0.33353 2.6843 0.2667 0.26677 1.6673 0.38355 1.9676 0.65031 1.5507 0.4335-0.68359 0.29998-2.3677-0.30025-3.5348-0.68359-1.3338-0.717-1.5673-0.15012-1.5673 0.68359 0 0.48372-0.80004-0.21655-0.90007l-0.6337-0.08337 0.66692-0.66692c0.73361-0.73361 1.2172-2.8846 0.65031-2.8846-0.16673 0-0.31685 0.25016-0.31685 0.56695 0 0.90034-1.2337 1.3338-2.1173 0.75028-0.83365-0.55021-2.1842-0.61703-2.6677-0.13351-0.40015 0.40015-0.4503 1.5341-0.05014 1.7842 0.85032 0.51686 0.28331 0.88353-3.218 2.0339-0.4335 0.13339-0.48325 0.05008-0.31652-0.60016 0.1834-0.70026 0.15-0.75035-0.56695-0.56695-0.71694 0.1834-0.75035 0.15012-0.56695-0.60016 0.16673-0.66692 0.13344-0.76716-0.2667-0.6171-0.3668 0.15005-0.46698 0.01686-0.46698-0.55001 0-0.60023-0.10011-0.70026-0.56695-0.58355-0.46684 0.13339-0.56662 0.01649-0.56662-0.6171 0-0.81698-0.45037-1.4504-1.0339-1.4504zm-7.976 0.32499c-0.25218 0.19591-0.42725 0.57548-0.42725 1.059 0 0.55021-0.11652 0.66685-0.63337 0.60016-0.51686-0.06669-0.61703 0.03315-0.55034 0.55001 0.06669 0.4335-0.04989 0.63371-0.36667 0.63371-0.31678 0-0.4337 0.20021-0.367 0.63371 0.06669 0.51686-0.03315 0.6167-0.55001 0.55001-0.70026-0.10004-0.83378 0.21681-0.30025 0.73368 0.58355 0.58356 0.13332 0.58369-1.8174-0.03321l-1.9004-0.60049 0.16673-1.2003c0.23342-1.684-0.68386-2.1677-2.518-1.3006-1.4172 0.66692-2.2173 0.43376-2.2173-0.64998 0-0.38348-0.13358-0.70047-0.28364-0.70047-0.70026 0-0.13312 2.6345 0.68386 3.2014 0.20008 0.13339 0.10004 0.40015-0.33346 0.75028-0.78363 0.65025-0.80037 0.86686-0.066757 0.86686 0.71694 0 0.71674 0.11658-0.033542 1.117-0.51686 0.70026-0.56661 1.0338-0.39988 2.4009 0.21675 1.734 0.73334 2.1843 0.73334 0.6337 0-1.3505 0.51686-1.7006 1.7507-1.1837 1.5673 0.65024 2.3679 0.08323 2.3512-1.6341-0.03335-1.5673 0.85032-1.8507 2.2509-0.75028 0.9837 0.76696 0.95036 1.0004-0.16673 1.2339l-0.91701 0.18334 1.4172 1.1003h-0.78383c-0.50019 0-0.7835 0.16666-0.7835 0.43343 0 0.23342 0.1834 0.43376 0.41682 0.43376 0.68359 0 0.83358 0.60016 0.18334 0.76689-0.45017 0.11672-0.53367 0.25003-0.30025 0.5168 0.16673 0.20008 0.23356 0.66678 0.13352 1.0336-0.11672 0.45017 0.03321 0.86706 0.45004 1.3172 0.55021 0.58355 0.56688 0.68366 0.16673 0.98377-0.23342 0.1834-0.49992 0.66704-0.56662 1.0505-0.08337 0.38348-0.21675 0.93357-0.33346 1.2003-0.13338 0.35013-0.05008 0.50019 0.2667 0.50019 0.53354 0 0.58349 0.3169 0.09997 0.80042-0.28344 0.28344-0.21688 0.38341 0.28331 0.5168 0.68359 0.1834 0.83392 0.51693 0.3504 0.81704-0.4335 0.25009-0.05002 0.70015 0.58355 0.70015 1.2505 0 0.41676 1.0338-1.4006 1.7175l-1.4674 0.56663 0.18334-1.5504c0.21675-1.8007-0.38334-2.2008-2.284-1.5839-1.3505 0.45017-2.1675 0.01649-2.1675-1.1339 0-0.46684-0.13325-0.85026-0.28331-0.85026-0.50019 0-0.30025 2.4011 0.28331 3.5515 0.55021 1.0671 0.43356 1.5503-0.35007 1.567-0.48352 0-0.1836 0.56695 0.29991 0.56695 0.86699 0 0.91728 0.33364 0.18367 1.2006-0.40015 0.46684-0.70046 1.2005-0.70046 1.6673 0 0.9837 0.33359 1.067 0.71707 0.18334 0.35013-0.78361 1.3338-0.95054 2.1842-0.36699 1.5339 1.0671 2.6678 0.28369 2.3844-1.6504l-0.18367-1.2505 1.0837-0.18365c0.58355-0.10004 1.4506-0.38334 1.9007-0.61677 0.91701-0.48352 1.2838-0.3668 0.76689 0.25009-0.40015 0.46684 0.03361 0.88378 0.68386 0.63369 0.48352-0.1834 0.85026 0.28332 0.43343 0.53342-0.53354 0.33346-0.30011 0.71706 0.41682 0.71706 0.71694 0 0.95036 0.38329 0.41682 0.71675-0.48352 0.30011-0.0334 0.66692 0.60016 0.50019 0.51686-0.13339 0.56688-0.06675 0.41682 0.43343-0.11672 0.38348 6.5e-5 0.80055 0.31685 1.184 1.6006 1.884 1.6506-3.4515 0.01666-5.6356-0.56688-0.8003-0.7002-1.6673-0.2667-1.6673 0.4335 0 1.7005-2.8844 1.7838-4.0849 0.13338-1.734-0.51666-1.5839-0.71674 0.16673-0.10004 0.83365-0.30025 1.5505-0.46698 1.6005-0.15005 0.05-0.28331 0.25028-0.28331 0.45035 0 0.1834-0.31705 0.63332-0.68386 0.98345l-0.68352 0.6337-0.60016-0.75028c-2.5343-3.2012-2.6178-6.5356-0.21688-9.1199 1.0671-1.1504 2.5011 0.33346 2.968 3.0845 0.2501 1.5172 0.78356 1.2671 0.68353-0.33346-0.06669-0.90034-0.38341-1.7175-1.1004-2.8012l-1.017-1.5338 0.7835-1.4341c0.9837-1.8174 1.3172-4.9852 0.58355-5.5854-0.30845-0.25009-0.63781-0.23759-0.88999-0.04168zm4.1246 0.84212c-1.1504 0.16673-0.98377 2.5843 0.18334 2.8344 0.48352 0.10004 0.88374 0.19994 0.90041 0.19994 0.45017 0.31679 0.95023-0.51666 0.95023-1.5504 0-1.3338-0.50006-1.7006-2.0339-1.484zm-3.7661 1.4257c0.10212 0.01668 0.10648 0.3582-0.01856 1.0251-0.21675 1.2005-1.034 2.6512-2.1845 3.885-0.4335 0.46684-0.95009 1.1672-1.1502 1.5673-0.91701 1.8174-1.3674 2.4343-1.3674 1.9174 0-0.86699 1.7173-4.2349 2.7677-5.402 0.53353-0.6169 1.1672-1.534 1.384-2.0674 0.26677-0.63357 0.46678-0.94182 0.5689-0.92515zm8.0447 0.17715c0.11044 0.09796 0.28142 0.38953 0.55652 0.91473 0.36681 0.70026 1.0169 1.6675 1.4504 2.1343 1.3005 1.4339 2.3844 3.2679 2.7012 4.5684 0.11672 0.46684 0.2667 1.0671 0.35007 1.3338 0.31679 1.0671-0.41669 0.41656-0.86686-0.76722-0.26677-0.70027-1.1007-2.0671-1.851-3.0675-1.7006-2.2509-2.6508-4.0684-2.5341-4.8687 0.03335-0.2501 0.08329-0.34576 0.19376-0.24781zm9.8767 0.24781c0.76696 0.1834 0.85026 0.40022 0.35007 0.90041-0.56688 0.56688-1.9341 0.43356-1.9341-0.18334 0-0.66692 0.65025-0.95049 1.5839-0.71707zm-27.327 0.08337c0.65025 0.01668 0.98377 0.15012 0.98377 0.40022 0 0.75028-0.66692 1.0005-1.5006 0.55034-1.0004-0.51686-0.76702-0.95056 0.5168-0.95056zm0.21036 2.3886c0.29386 0.05419 0.48977 0.2542 0.48977 0.57932 0 0.55021-0.8001 0.93348-1.6338 0.8001-0.83365-0.13338-0.81691-0.50019 0.06676-1.0837 0.39182-0.25843 0.78336-0.34987 1.0772-0.29568zm26.367 0.06253c0.63357-0.20008 2.1008 0.61683 1.8507 1.017-0.1834 0.28344-1.9342 0.33353-2.2177 0.06675-0.3668-0.3668-0.1832-0.91701 0.36701-1.0837zm-14.206 1.2671v2.8344h2.8514v-2.8344zm6.5817 1.6933c0.23165 0.02218 0.4692 0.16576 0.7047 0.45752 2.0174 2.5176 2.4843 4.8352 1.4172 7.086-1.4172 3.0011-2.0674 3.1177-3.5847 0.61678-1.5027-2.524-0.15885-8.3155 1.4628-8.1603zm-4.9977 3.6919c-0.86699 0-1.3005 0.13357-1.4172 0.45037-0.23342 0.60023-0.21648 1.9672 0.01694 2.2007 0.10004 0.11672 0.75028 0.20001 1.4172 0.18334h1.2335v-2.8344zm-9.2952 2.7719c0.12088-0.12504 0.38354 0.16263 0.692 0.96293 0.26677 0.68359 1.1337 2.1176 1.9341 3.218 0.8003 1.1004 1.7006 2.5676 2.0008 3.2512 0.68359 1.5839 0.56702 2.5843-0.11658 1.0837-0.28344-0.56687-0.9669-1.5839-1.5338-2.2675-1.5006-1.784-2.3676-3.2512-2.8177-4.7351-0.25843-0.8503-0.27947-1.3882-0.15859-1.5133zm17.517 0.44417c0.13964-0.10628 0.13977 0.17697-2e-3 0.85222-0.26677 1.2338-1.6505 3.8016-2.7009 5.0354-0.46684 0.55021-1.084 1.467-1.3508 2.0506-0.40015 0.85032-0.91701 1.4172-0.91701 1.0004 0-0.9837 1.1172-3.3344 2.1343-4.4682 0.70026-0.78363 1.6006-2.1175 2.0008-2.9845 0.41682-0.88365 0.69596-1.3796 0.8356-1.4859zm-9.6723 2.3362-0.08337 1.3338c-0.08337 1.3171-0.08343 1.3172 0.85026 1.4172 1.7673 0.16673 1.9843 0.01673 1.8842-1.4338l-0.08337-1.3172zm15.406 2.1343c0.85032 0 0.88347 0.3999 0.04983 0.98345-0.88367 0.60023-1.6504 0.55028-1.6338-0.09997 0-0.58356 0.51686-0.88348 1.5839-0.88348zm-28.277 0.31653c0.85032 0.06669 1.2169 0.217 1.2169 0.51711 0 0.56688-1.2838 0.68352-1.9341 0.18333-0.78363-0.61688-0.58342-0.80049 0.71707-0.70045zm0.27907 2.3862c0.42516-0.15215 0.88784-0.16857 1.1046 0.04818 0.1834 0.1834 0.25016 0.5168 0.15012 0.76689-0.2501 0.66692-2.251 0.61678-2.1343-0.05013 0.06669-0.32512 0.45441-0.6128 0.87957-0.76494zm27.469 0.14197c0.49185 0.12713 0.92972 0.35632 0.92972 0.58974 0 0.15005-0.58376 0.2501-1.284 0.2501-1.3172 0-1.584-0.25014-0.90041-0.81703 0.21675-0.17507 0.76286-0.14993 1.2547-0.0228zm-15.01 0.55621v1.2339c0 0.68359 0.08357 1.3171 0.20028 1.4338 0.11672 0.11672 0.7168 0.16691 1.367 0.1169l1.1505-0.08337 0.08337-1.3504 0.08337-1.3508zm4.2349 4.3018c-0.55021 0.8003-0.08317 3.9181 0.8672 5.7522l0.88347 1.7175-0.68352 0.73336c-2.2509 2.3842-2.101 8.3865 0.28331 10.754 0.50019 0.48352 0.48371 0.53378-0.13319 1.4341-1.1504 1.6673-1.734 4.9017-1.0671 5.9688 0.4335 0.70026 1.584 0.10004 1.5673-0.75028 0-0.26677 0.2667-0.55002 0.60016-0.63339 0.46684-0.11672 0.55027-0.28369 0.40022-0.76721-0.1834-0.53354-0.11678-0.60023 0.43343-0.41682 0.58355 0.1834 0.61677 0.13357 0.45004-0.55003-0.15005-0.61688-0.09997-0.73361 0.31685-0.66692 0.3668 0.06669 0.50026-0.08348 0.48358-0.55032-0.01668-0.75028-0.04994-0.75028 1.734-0.16673 0.76696 0.2501 1.5837 0.51693 1.8005 0.56695 0.23342 0.05003 0.31692 0.30023 0.21688 0.55032-0.85032 2.2008 0.13351 3.1178 2.2177 2.0841 1.4005-0.70027 2.084-0.60041 2.2173 0.29993 0.13339 0.90034 0.65025 0.83372 0.75028-0.09997 0.06669-0.53354-0.13326-1.1504-0.5334-1.684l-0.63371-0.85026 0.68353-0.53372 0.68386-0.53342-0.65031-0.18334c-0.60023-0.16673-0.6171-0.217-0.20028-0.68384 0.56688-0.63357 0.48358-4.2846-0.09997-4.4847-0.26677-0.08337-0.31665 0.11672-0.19994 0.83365 0.26677 1.5339-0.08343 1.8007-1.8174 1.3504-1.884-0.48352-2.4009-0.06687-2.4009 1.8839v1.3172l-0.88347-0.18334c-1.634-0.33346-2.4509-1.8672-1.0004-1.8672 0.66692 0 0.75008-0.51686 0.13319-0.75028-0.66692-0.25009-0.49999-0.66692 0.28364-0.66692 0.867 0 0.8834-0.18359 0.06644-0.86718-0.53354-0.45017-0.56661-0.55003-0.1498-0.55003 0.58356-0.01668 0.55014-1.6173-0.06675-2.9178-0.25009-0.53354-0.26683-0.88378-0.06675-1.1339 0.46684-0.58355 0.73354-2.5009 0.35007-2.5009-0.20008 0-0.26683-0.2669-0.15012-0.71707 0.13339-0.55021 0.06682-0.71675-0.28331-0.71675-0.28344 0-0.40002-0.16666-0.28331-0.43343 0.10004-0.23342 0.25003-0.61715 0.35006-0.85057 0.13339-0.31679-0.01674-0.43343-0.56695-0.43343-1.4672 0-0.48338-1.1336 1.4674-1.7171 1.4839-0.4335 1.6506-0.3003 1.017 0.80012-0.73361 1.2671 0.06669 2.4843 1.4172 2.1675 2.1008-0.50019 2.6008-0.35006 2.7009 0.81704 0.08337 1.1671 0.46678 1.4006 0.76689 0.46696 0.25009-0.81698-0.06662-2.3677-0.76689-3.5348l-0.58357-0.98377h0.58355c0.8003 0 1.067-0.58349 0.35006-0.76689-0.70026-0.1834-0.76682-0.56676-0.19994-1.2003 0.53354-0.60021 0.90048-2.5843 0.46698-2.5843-0.1834 0-0.45044 0.3166-0.60049 0.71676-0.38348 1.017-1.0002 1.1674-2.2173 0.51711-1.8007-0.95036-3.3348 0.09979-2.3677 1.6504 0.46684 0.75028 0.41682 1.1006-0.16673 1.1173-0.45017 0.01668-1.6006 0.38354-3.0011 0.98377-0.4335 0.1834-0.48325 0.09992-0.31652-0.55033 0.1834-0.71694 0.15005-0.75035-0.58355-0.56695-0.70026 0.16673-0.75028 0.13339-0.58355-0.41682 0.15005-0.48352 0.06644-0.60016-0.43376-0.60016-0.51686 0-0.58349-0.11685-0.43343-0.71707 0.15005-0.58356 0.06662-0.71676-0.40022-0.71676-0.40015 0-0.56661-0.1834-0.56661-0.66692 0-0.93367-1.0673-1.9007-1.4507-1.3172zm-6.6665 0.20124c-0.19748-0.25218-0.47778-0.28032-0.83625 0.01566-0.25009 0.20008-0.45004 0.61665-0.45004 0.90009 0 0.31679-0.28357 0.58374-0.71707 0.70045-0.78363 0.20007-0.86686 0.41682-0.36667 0.91701 0.26677 0.25009 0.20001 0.33346-0.31685 0.33346-0.55021 0-0.61697 0.10006-0.48358 0.66692 0.15005 0.58356 0.08349 0.65013-0.5334 0.53342-0.75028-0.15005-0.91721 0.16686-0.367 0.71705 0.6169 0.6169 0.08337 0.61697-1.834-0.01668l-1.9004-0.63368 0.1498-1.017c0.26677-1.7673-1.1503-2.5343-2.7009-1.4338-1.0004 0.70026-2.0339 0.36681-2.0339-0.66692 0-0.40015-0.13358-0.71706-0.28364-0.71706-0.53354 0-0.31665 2.2842 0.30025 3.0678l0.58355 0.75028-0.58355 0.21657c-0.66692 0.25009-0.7837 0.80044-0.15012 0.80044 0.55021 0 0.55014 0.31672 0.01661 1.017-0.63357 0.83365-0.50019 4.1016 0.16673 4.1016 0.13338 0 0.25009-0.53354 0.25009-1.1671v-1.1671l1.7842 0.20026c2.1842 0.23342 2.634-0.11672 2.4006-1.834-0.23342-1.6506 0.78363-1.8008 2.4176-0.36699 0.68359 0.60023 0.6169 0.91702-0.16673 0.91702-0.93369 0-1.1168 0.30018-0.56661 0.90041 0.45017 0.48352 0.45004 0.51679-0.13352 0.51679-0.73361 0-0.81684 0.71701-0.11658 0.98377 0.46684 0.1834 0.46678 0.21686 0.01661 0.46696-0.56688 0.31679-0.40028 1.9672 0.28331 3.0343 0.3668 0.56688 0.36687 0.70038-0.01661 1.1339-0.6169 0.68359-0.73348 2.284-0.19994 2.6342 0.35013 0.23342 0.36667 0.31697 0.03321 0.53372-0.48352 0.31678-0.13338 0.98365 0.41682 0.76691 0.45017-0.1834 0.55008 0.55026 0.11658 0.81702-0.53354 0.33346-0.28324 0.71676 0.45037 0.71676 1.6006 0-0.23362 1.6507-2.1176 1.9007l-1.2003 0.16673 0.48358-0.83365c1.0004-1.734 0.41669-2.4176-1.9676-2.3175l-2.0506 0.083368-0.15012-1.1336c-0.10004-0.8503-0.18334-1.0006-0.35007-0.61708-0.38348 0.90034-0.23349 2.301 0.35007 3.4515 0.31679 0.6169 0.56695 1.1338 0.56695 1.1671 0 0.03335-0.25016 0.11659-0.56695 0.19996-0.31679 0.08337-0.56695 0.28356-0.56695 0.46696 0 0.1834 0.25016 0.31685 0.56695 0.31685 0.31679 0 0.56695 0.1498 0.56695 0.31654 0 0.16673-0.25016 0.63376-0.56695 1.0339-0.58355 0.75028-0.81718 2.5341-0.28364 2.2173 0.15006-0.10004 0.28364-0.43325 0.28364-0.73336 0-0.70026 1.2336-0.73361 2.5508-0.08337 1.5673 0.78363 3.4683-1.1173 2.0178-2.0178-0.58355-0.35013-0.26677-0.7002 0.91701-1.017 0.66692-0.16673 1.5672-0.50026 2.0174-0.73368 0.86699-0.45017 1.3503-0.30011 0.8001 0.2501-0.55021 0.55021-0.38341 0.86713 0.40022 0.71707 0.65025-0.13339 0.717-0.06682 0.56695 0.5334-0.15005 0.55021-0.06669 0.68384 0.41682 0.68384 0.45017 0 0.56688 0.14987 0.50019 0.63339-0.05 0.46684 0.05003 0.63351 0.41682 0.60016 0.30011-0.01668 0.50019 0.1503 0.50019 0.43375 0 0.25009 0.19994 0.76684 0.45004 1.117 1.4005 2.0008 1.7508-2.1176 0.38361-4.8853-0.90034-1.884-1.0336-2.4508-0.61677-2.4508 2.0174 0 2.4341-7.803 0.55001-10.421l-0.85026-1.2003 0.76689-1.5673c1.0254-2.0883 1.1786-4.8612 0.58616-5.6176zm4.0155 0.94924c-1.3005-0.11672-1.5839 0.20014-1.5839 1.734v1.0668l2.7012-0.16673v-2.5508zm3.2095 1.1232c0.15005 0.06877 0.40849 0.44392 0.7086 1.0942 0.28344 0.63357 1.0173 1.7342 1.6175 2.4678 0.60023 0.75028 1.5006 2.0841 1.9841 3.0011 0.53354 0.98371 0.85006 1.9674 0.81671 2.4176-0.08337 0.70026-0.20001 0.56682-1.017-1.0671-0.50019-1.0171-1.3503-2.3342-1.8839-2.9344-1.0171-1.1504-1.9843-2.9511-2.2844-4.2349-0.13339-0.57522-0.09176-0.81287 0.05829-0.7441zm-7.861 0.31262c0.06669-0.02709 0.09977 0.12303 0.1498 0.43148 0.15005 0.83365-0.78343 2.751-2.0506 4.1849-0.55021 0.63357-1.3839 1.851-1.834 2.6847-0.46684 0.86699-0.86719 1.3503-0.86719 1.0668-0.01667-0.867 1.6342-4.1681 2.768-5.5519 0.60023-0.73359 1.2669-1.7173 1.4836-2.1842 0.1834-0.40015 0.28371-0.60465 0.3504-0.63174zm17.557 0.44809c1.2671 0.10004 1.4339 0.30025 0.75028 0.80044-0.90034 0.65024-1.9174 0.5168-1.8174-0.23349 0.06669-0.55021 0.23349-0.63364 1.0671-0.56695zm-27.144 0.05014c1.1838 0 1.3003 0.06655 1.2169 0.61677-0.11672 0.85033-0.50012 0.90042-1.6005 0.2335-1.2171-0.73361-1.167-0.85026 0.38361-0.85026zm0.08337 2.2675c0.51686 0.01668 0.96676 0.55032 0.81671 0.96715-0.13338 0.31679-0.53327 0.45005-1.4003 0.45005l-1.2173-0.01666 0.80044-0.70015c0.45017-0.38348 0.88367-0.70045 1.0004-0.70045zm27.06 0.01668c0.60023 0 1.8008 0.9671 1.5341 1.2339-0.3668 0.36681-2.1008 0.18334-2.2508-0.23349-0.21675-0.55021 0.09984-1.0004 0.71674-1.0004zm-14.355 1.2673-0.08336 1.3338c-0.08337 1.3172-0.08343 1.3337 0.85025 1.4504 0.51686 0.06669 1.0171 0.13344 1.0837 0.15012 0.53354 0.15005 0.8838-0.56682 0.80044-1.684l-0.08337-1.2505zm-4.7593 1.7452c0.21346-0.01566 0.42418 0.05739 0.62425 0.23871 2.0341 1.834 2.3177 6.536 0.53374 9.0369-0.91702 1.2838-2.0676 0.43356-3.3014-2.4343-0.97745-2.2612 0.64918-6.731 2.1433-6.8414zm11.179 0.02605c0.2131 7e-3 0.42673 0.12511 0.63306 0.37938 2.551 3.1512 2.6507 6.7694 0.23316 9.3037-0.8003 0.83365-1.4005 0.38346-2.5843-1.9174-1.2401-2.4072 0.22638-7.8141 1.7181-7.7656zm-5.4027 3.7309c-1.1338 0.11672-1.7672 1.9006-0.95022 2.7175 0.81698 0.8003 2.5009 0.01686 2.5843-1.2169 0.11672-1.4672-0.08349-1.6506-1.6341-1.5006zm-8.8533 2.601c0.16673 0 0.30025 0.16661 0.30025 0.36669 0 0.55021 1.0836 2.4844 2.284 4.0517 0.60022 0.78363 1.4172 2.0841 1.834 2.9178 0.41682 0.81698 0.71694 1.7173 0.66692 2.0008-0.06669 0.35013-0.23342 0.20014-0.58355-0.5168-0.26677-0.55021-1.1337-1.8008-1.9341-2.7846-1.9007-2.3509-3.468-6.0354-2.5676-6.0354zm17.355 0.80238c0.20633-0.24384 0.3022-0.19387 0.3022 0.13124 0 0.85032-1.6508 4.035-2.968 5.719-0.71694 0.91701-1.3003 1.8174-1.3003 2.0174 0 0.20007-0.20021 0.53354-0.46698 0.75028-1.2338 1.0337 0.46691-3.1512 1.9007-4.6851 0.45017-0.48351 1.1505-1.5174 1.5673-2.301 0.44183-0.85032 0.75855-1.388 0.96488-1.6318zm-9.6518 2.0154v1.2505c0 0.68359 0.08363 1.3338 0.18367 1.4338 0.10004 0.10004 0.75022 0.18335 1.4338 0.18335h1.2505l-0.08337-1.3505-0.08337-1.3504zm15.156 2.3674c1.2005-0.10004 1.3671 0.26677 0.43343 0.91701-0.95036 0.66692-1.7006 0.5836-1.5839-0.18335 0.06669-0.51686 0.30018-0.66697 1.1505-0.73366zm-27.894 0.2667c0.85032 0.06669 1.2169 0.21668 1.2169 0.51679 0 0.51686-1.2171 0.68384-1.9341 0.26702-0.86699-0.51686-0.5334-0.86718 0.71707-0.78381zm0.45004 2.3175c0.68359-0.16673 1.2671 0.31685 1.0837 0.90039-0.11672 0.41682-2.0841 0.51674-2.3342 0.11659-0.23342-0.3668 0.23342-0.75021 1.2505-1.017zm25.96 0.03322c0-0.21675 0.83378-0.11658 1.5507 0.21688 0.38348 0.1834 0.71707 0.43355 0.71707 0.56693 0 0.13337-0.60036 0.23349-1.3006 0.23349-1.0671 0-1.284-0.08354-1.1339-0.45035 0.08337-0.2501 0.16673-0.50026 0.16673-0.56695zm-12.871 0.48358c-0.68359 0.10004-1.0837 1.6675-0.68352 2.7012 0.11672 0.30011 0.51673 0.3999 1.367 0.31654l1.2173-0.08337 0.08337-1.3338c0.08337-1.4505-0.36687-1.834-1.9841-1.6005zm3.3346 4.435c-0.58355 0.35013-0.0334 4.0515 0.85026 5.7522l0.85025 1.6341-0.76689 1.117c-1.1671 1.7006-1.9006 4.8855-1.0502 4.6021 0.20008-0.06669 0.44997-0.73373 0.55001-1.4673 0.36681-2.4843 1.8509-3.8681 2.7179-2.5176 0.28344 0.4335 0.60029 0.86688 0.73368 0.95024 1.2838 0.91701 1.5671 4.1349 0.5334 6.169-1.734 3.4346-3.418 2.7512-4.1516-1.7171-0.23342-1.4672-0.71674-1.3505-0.71674 0.16673 0 1.2505 1.0503 3.7014 1.8672 4.335 0.35013 0.26677 0.28357 0.56663-0.45004 1.9838-0.86699 1.684-1.2672 4.5854-0.73368 5.4357 0.48352 0.8003 1.6171 0.13326 1.6171-0.96715 0-0.41682 0.16673-0.6169 0.50019-0.58355 0.35013 0.0333 0.46684-0.15019 0.41682-0.63371-0.06669-0.55021 0.03349-0.65011 0.46698-0.5334 0.4335 0.11672 0.51686 0.0168 0.41682-0.53342-0.10004-0.53353-1.3e-4 -0.68384 0.45004-0.68384 0.66692 0 0.70046-0.0999 0.28364-0.86686-0.3668-0.70027-0.23369-0.68366 1.1502 0.0167 0.60023 0.30011 1.334 0.56695 1.6175 0.56695 0.96703 0.0167 1.3171 0.43361 0.93362 1.1339-0.8003 1.4672 0.81684 2.6177 2.3674 1.684 1.2505-0.76693 1.7677-0.68377 2.1845 0.29993 0.1834 0.46685 0.46678 0.78382 0.60016 0.70045 0.45017-0.28344 0.25016-1.734-0.35007-2.5009l-0.60049-0.75029 0.66692-0.55032 0.66692-0.55003-0.66692-0.25009c-0.60023-0.21675-0.6167-0.28362-0.21655-0.61708 0.55021-0.4335 0.66698-4.1182 0.15012-4.435-0.56688-0.33346-0.91714 0.33339-0.55034 1.017 0.58355 1.1004-0.15007 1.5339-1.834 1.0837-1.784-0.48351-2.6008 0.28358-2.284 2.1343l0.18334 1.1336-0.93362-0.18334c-1.7006-0.33346-2.7347-1.8839-1.2674-1.8839 0.78363 0 0.95056-0.40015 0.28364-0.66692-0.68359-0.26676-0.50025-0.70038 0.35007-0.80041l0.7835-0.0834-0.68353-0.63371c-0.60023-0.5502-0.6335-0.63338-0.18334-0.63338 0.40015 0 0.48345-0.15016 0.35006-0.63369-0.10004-0.35013-0.18334-0.93357-0.18334-1.2837 0-0.35013-0.25016-0.88385-0.56695-1.2006-0.53354-0.55021-0.5334-0.58349-0.03322-0.85026 0.76696-0.40015 1.0169-2.2675 0.38328-2.751-0.30011-0.23342-0.34993-0.38329-0.13319-0.38329 0.6169-0.01668 0.40022-0.80042-0.2667-0.96715-0.60023-0.16673-0.60029-0.19996-0.15012-0.70015 0.55021-0.6169 0.36674-0.91701-0.56695-0.91701-1.0671 0-0.76689-0.46684 0.81704-1.2505 2.1675-1.0671 2.6342-1.0004 2.0339 0.2501-0.65024 1.3505 0.06689 2.6177 1.284 2.2675 1.9507-0.55019 2.7344-0.33339 2.8344 0.81704 0.10004 1.1504 0.48345 1.4171 0.76689 0.5168 0.2501-0.80029-0.13339-2.5845-0.75028-3.4681-0.66692-0.96703-0.66705-1.1003 0.03322-1.1003 0.31679 0 0.56695-0.20003 0.56695-0.43345 0-0.25009-0.25016-0.43343-0.56695-0.43343-0.71694 0-0.7002-0.03349 0.15012-1.3006 0.73361-1.0837 0.90027-1.9341 0.43343-2.2342-0.15005-0.10004-0.35 0.15017-0.45004 0.55032-0.2501 1.0171-1.2172 1.1837-2.4843 0.43345-1.6506-0.96703-3.1845 0.21675-2.2342 1.7507 0.53354 0.85032 0.40008 0.98364-1.2339 1.3504-0.85032 0.20008-1.6338 0.46703-1.7171 0.61708-0.10004 0.15005-0.35013 0.2667-0.58355 0.2667-0.35013 0-0.3334-0.13337 0.06675-0.75028l0.48325-0.75028-0.91701 0.19996c-0.98371 0.21675-1.2336-0.2333-0.55001-0.95024 0.28344-0.30011 0.18347-0.33346-0.60016-0.16673-0.88367 0.1834-0.91715 0.14994-0.63371-0.38359 0.41682-0.8003 0.38355-0.90041-0.2667-0.90041-0.41682 0-0.56695-0.19994-0.56695-0.70013 0-0.73361-1.0337-1.6841-1.5006-1.384zm-7.0528 0.06675c-0.1834 0-0.54994 0.45017-0.81671 1.0004-0.26676 0.53354-0.63357 0.95036-0.83365 0.91701-0.23342-0.05-0.33359 0.18347-0.30025 0.56695 0.05003 0.41682-0.08349 0.63369-0.38361 0.63369-0.33346 0-0.40002 0.16673-0.28331 0.66692 0.15005 0.60023 0.08323 0.65013-0.55034 0.53342-0.66692-0.11672-0.7002-0.08349-0.43343 0.61677 0.33346 0.88366 0.08355 0.95061-1.2169 0.26702-0.50019-0.26677-1.3008-0.56688-1.7677-0.66692-0.51686-0.10004-0.81691-0.33352-0.76689-0.56695 0.4335-1.8674 0.41689-1.9674-0.35007-2.3175-0.65024-0.30011-0.95036-0.26677-2.0008 0.25009-1.3338 0.65025-2.5011 0.25021-2.2177-0.78351 0.10004-0.38348 0.083429-0.38348-0.18334 0-0.4335 0.6169-0.38328 1.8507 0.11691 2.2675 0.55021 0.45017 0.55021 1.0171 0 1.2339-0.55021 0.21675-0.55021 0.75028 0 0.75028 0.51686 0 0.5166 0.26652-0.016932 0.98346-0.41682 0.56688-0.54994 2.3509-0.23315 3.5013 0.26677 0.98371 0.66679 0.7504 0.61677-0.36667-0.066692-1.4339 0.35013-1.7171 1.6673-1.2003 1.884 0.75028 2.9011-0.16673 2.5176-2.2508-0.1834-0.98371-0.16653-1.0004 0.6171-0.81704 1.6673 0.38348 3.0341 1.8672 1.7337 1.8672-1.0004 0-1.167 0.33353-0.43343 0.90041l0.65031 0.50019h-0.7835c-0.867 0.01668-1.0006 0.33333-0.3504 0.86686 0.38348 0.31679 0.38375 0.4004-0.06644 0.76721-0.36681 0.28344-0.40022 0.44999-0.15012 0.55002 0.21675 0.08337 0.28337 0.40015 0.18334 0.83365-0.11672 0.41682 1.3e-4 0.96703 0.30025 1.4172 0.41682 0.63357 0.43323 0.7837 0.06644 1.0671-0.63357 0.50019-0.83351 2.4007-0.28331 2.7009 0.30011 0.16673 0.33332 0.31697 0.11658 0.45035-0.48352 0.30012-0.3666 0.66674 0.28364 0.88349 0.4335 0.13339 0.51673 0.26676 0.28331 0.50019-0.48352 0.48351-0.36667 1.0505 0.21688 1.0505 1.2838 0 0.86699 0.91701-0.75028 1.5839-0.95036 0.40015-2.0509 0.55007-2.0509 0.28331 0-0.0667 0.13345-0.45017 0.31685-0.83365 0.8003-1.784-0.3502-2.6177-2.5676-1.8507-1.1338 0.40015-1.7507-0.0332-1.7507-1.2003 0-0.45017-0.13325-0.81702-0.28331-0.81702-0.51686 0-0.31692 2.6512 0.28331 3.6349 0.70026 1.1338 0.70026 1.1003 0 1.2837-0.31679 0.0834-0.56695 0.28356-0.56695 0.46696s0.25016 0.31654 0.56695 0.31654c0.70026 0 0.70026 0.0502 0 1.2006-0.60023 0.9837-0.76682 2.5009-0.28331 2.5009 0.15006 0 0.28331-0.2336 0.28331-0.53372 0-1.0837 0.78363-1.3336 2.0841-0.64999 1.3338 0.70026 1.9007 0.78351 2.4009 0.28332 0.40015-0.40015 0.4503-1.8174 0.05016-2.0674-0.60023-0.3668-0.25023-0.66698 1.2837-1.1505 0.867-0.26677 1.6341-0.59998 1.7175-0.73336 0.38348-0.60023 0.9835-0.23342 0.8001 0.50019-0.16673 0.66692-0.11672 0.71675 0.41682 0.55002 0.51686-0.16673 0.60016-0.0833 0.60016 0.56695 0 0.56688 0.1169 0.71694 0.45037 0.58355 0.38348-0.13339 0.41676-0.0168 0.2667 0.70014-0.16673 0.81697-0.13351 0.85057 0.5334 0.68384 0.63357-0.16673 0.70033-0.11672 0.56695 0.41682-0.10004 0.36681 0.03329 0.81698 0.35006 1.1671 1.3839 1.5339 1.6342-2.5011 0.36701-5.2021-0.93368-1.9174-0.95056-1.7006 0.13319-3.2679 1.9174-2.8011 1.4672-8.3532-0.83365-10.237-0.35013-0.28344-0.33332-0.43331 0.13351-1.1336 1.7173-2.5009 2.0339-6.6193 0.5334-6.6193zm2.9178 1.1505v1.4338l0.01693 1.4338 2.7009-0.16673 0.16673-2.7009zm4.5519 1.5338c0-0.4335 0.55021 0.05008 0.91701 0.81704 0.2501 0.51686 1.0837 1.7006 1.8507 2.651 0.76696 0.95036 1.6841 2.4011 2.0343 3.218 0.35013 0.81698 0.60009 1.834 0.5334 2.2509l-0.08337 0.76689-0.33346-0.93362c-0.3668-0.9837-1.9841-3.535-3.2679-5.1856-0.6169-0.78363-1.6507-3.0345-1.6507-3.5847zm-7.4028 0.11689c0.01668 1.0504-0.75035 2.701-1.9007 4.0682-0.70027 0.83365-1.634 2.2172-2.0841 3.0675-0.6169 1.2005-0.81698 1.4006-0.83365 0.90041-0.01667-0.8003 1.0504-2.9845 2.3342-4.7685 0.50019-0.71694 1.2673-1.834 1.7008-2.4843 0.43346-0.65025 0.7835-1.0003 0.7835-0.78351zm17.823 0.23349c0.83365 0.20008 0.8838 0.55009 0.13351 0.95024-0.90034 0.48352-1.7342 0.36674-1.7175-0.23349 0-0.66692 0.65025-0.95018 1.5839-0.71676zm-27.477 0.08337c0.95036 0 1.1505 0.10004 1.0671 0.50019-0.11672 0.58355-1.0171 0.76696-1.734 0.33346-0.83365-0.50019-0.55021-0.83365 0.66692-0.83365zm26.977 2.3007c0.66692 0 1.8007 0.81704 1.6005 1.1505-0.26677 0.4335-2.134 0.31672-2.3007-0.15012-0.21675-0.55021 0.09991-1.0004 0.70013-1.0004zm-26.782 0.06056c0.30845 0.04793 0.50442 0.26475 0.50442 0.63989 0 0.46684-0.23362 0.58355-1.2007 0.66692-1.3839 0.08336-1.5503-0.23368-0.48325-0.93394 0.45017-0.30011 0.87103-0.42081 1.1795-0.37288zm12.442 1.2065-0.08337 1.3508-0.08337 1.3504h2.9011l-0.08337-1.3504-0.08337-1.3508zm-4.8857 1.623c0.20431-0.02485 0.40699 0.03394 0.60081 0.1944 1.9507 1.634 2.4174 6.1191 0.88347 8.7201-1.1338 1.9341-2.1173 1.317-3.5345-2.2177-0.88992-2.2467 0.62008-6.523 2.0503-6.6969zm6.8864 3.7624c-1.5006-0.36681-2.1343 0.04995-2.1343 1.4338 0 1.1504 0.06689 1.2507 0.78383 1.3674 0.4335 0.06669 0.86679 0.13339 0.96683 0.16673 1.2838 0.28344 1.6508-2.6512 0.38361-2.968zm-9.9518 2.7699c0.12713 0.0396 0.36479 0.43123 0.68158 1.1648 0.28344 0.66692 1.2505 2.2177 2.1508 3.4681 1.634 2.2675 1.9007 2.7509 2.2509 4.2014 0.26677 1.1171-0.21695 0.96703-0.6171-0.16673-0.20008-0.53353-0.86706-1.5506-1.484-2.2508-1.3338-1.5172-2.7344-4.068-3.0011-5.4686-0.12505-0.67526-0.10824-0.98787 0.01889-0.94828zm17.688 0.91474c0.16673 0.1834-1.3671 3.7014-1.684 3.8348-0.11672 0.05-0.21688 0.25028-0.21688 0.45036 0 0.20007-0.2667 0.59998-0.60016 0.90009-0.33346 0.30011-0.9839 1.2173-1.4507 2.0343-0.9837 1.7173-1.217 1.8674-0.95023 0.58355 0.26677-1.3172 1.2003-3.0346 2.284-4.2018 0.50019-0.55021 1.2673-1.6172 1.7008-2.3674 0.41682-0.76696 0.83365-1.3172 0.91701-1.2339zm-9.8706 1.8842v2.8344h1.2505c1.2338 0 1.2507-7e-5 1.4341-1.1505 0.23342-1.5006 0.08337-1.684-1.4172-1.684zm15.156 2.3342c1.1838-0.10004 1.3506 0.18347 0.55034 0.90041-0.8003 0.71693-1.8175 0.6169-1.7008-0.16673 0.06669-0.51687 0.30018-0.66699 1.1505-0.73368zm-27.911 0.11659c0.78363-0.0333 0.95056 0.0666 1.0339 0.60016 0.11671 0.76696-1.334 0.9172-1.9509 0.20026-0.46684-0.56686-0.2501-0.7504 0.91701-0.80042zm26.843 2.3844c0.55021 0 1.851 0.61679 1.851 0.86688 0 0.38348-2.3342 0.46684-2.4843 0.0834-0.1834-0.46685 0.13319-0.95025 0.63337-0.95025zm-25.73 0.12506c0.44183 0.16673 0.67929 0.55027 0.38751 1.0254-0.21675 0.35013-1.5837 0.31667-2.134-0.0501-0.36681-0.23342-0.35033-0.33334 0.13319-0.70015 0.5252-0.39182 1.1714-0.4419 1.6132-0.27517zm11.642 0.4419v2.8511h1.2339c1.5172 0 1.5008 0.0165 1.3674-1.5507l-0.10028-1.3003z" fill="{{ border_color }}" stroke-width=".16673"/>
 <path d="m98.163 0 0.0254 19.844c0.05195 41.081 0.10418 58.115 0.16444 90.156h-1.8935c-0.042876-35.605-0.13514-85.911-0.15012-110zm-4.981 0c0.01679 32.237 0.12216 78.968 0.15761 110h-0.71674c-0.025791-12.145-0.066233-49.01-0.086622-55.626-0.031374-12.205-0.050124-34.271-0.073268-54.374zm-21.92 0.38621c1.0837 0 0.45037 4.6184-0.88347 6.5025l-0.68386 0.95056 0.83365 0.86686c1.1504 1.2005 2.2342 4.9852 1.3338 4.6851-0.1834-0.05002-0.48325-0.73354-0.64998-1.5172-0.96703-4.285-3.8014-3.3178-4.5851 1.5507-0.73361 4.5684 3.6514 6.9191 4.5851 2.4508 0.08337-0.46684 0.23322-1.1338 0.29991-1.484 0.21675-1.0671 0.68353-0.71694 0.68353 0.50019 0 1.3338-0.53334 2.7344-1.5504 4.0682l-0.73368 0.95023 0.85025 1.6341c0.85032 1.6006 1.1504 3.8848 0.68352 5.1019-0.30011 0.8003-1.2505 0.55027-1.4172-0.35007-0.11672-0.60023-0.33319-0.85025-0.73334-0.85025-0.46684 0-0.5336-0.13332-0.40022-0.68352 0.13339-0.58355 0.08337-0.66712-0.41682-0.53374-0.51686 0.13337-0.55034 0.0502-0.38361-0.63337 0.1834-0.70026 0.15018-0.75035-0.45004-0.56695-0.60023 0.20008-0.63371 0.14987-0.46698-0.70046l0.18334-0.91701-0.93362 0.55034c-0.51686 0.30011-1.4006 0.63357-1.9841 0.75028-1.1004 0.20008-1.2337 0.43363-0.76689 1.3006 0.75028 1.3839-0.85012 2.2842-2.5508 1.4172-1.2338-0.63357-1.9176-0.51713-2.0509 0.31652-0.15005 0.91701-0.65025 0.73374-0.75028-0.28331-0.06669-0.68359 0.10011-1.1505 0.56695-1.6507 0.63357-0.68359 0.45017-1.2172-0.41682-1.2339-0.36681-0.01668-0.05022-0.71674 0.29991-0.71674 0.55021 0 0.65038-0.33366 0.21688-0.70047-0.63357-0.51686-0.63357-4.5516 0-4.5516 0.35013 0 0.40002 0.20008 0.28331 0.91701-0.2501 1.4339 0.15005 1.8007 1.5006 1.4006 2.0008-0.60023 2.6178-0.1668 2.6178 1.8507v1.3003l0.91701-0.18334c1.0337-0.20008 2.0841-1.1003 1.8174-1.5338-0.10004-0.15005-0.4335-0.21688-0.75028-0.13351-0.68359 0.1834-0.81704-0.70013-0.15012-0.95023 0.53354-0.20008 0.25016-0.7002-0.35007-0.60016-0.70026 0.13339-0.73381-0.56708-0.03354-0.78383 0.56688-0.1834 0.60016-0.23329 0.18334-0.5334-0.51686-0.38348-0.49999-1.9341 0.03354-2.9344 0.21675-0.40015 0.2501-0.81711 0.08337-1.1339-0.83365-1.6673-0.8005-3.5847 0.04983-2.7344 0.10004 0.10004 0.18367 0.03328 0.18367-0.15012s-0.13357-0.33346-0.28364-0.33346c-0.15007 0-0.28331-0.20001-0.28331-0.43343s0.19994-0.43343 0.45004-0.43343c0.31679 0 0.40008-0.15006 0.2667-0.50019-0.35014-0.90035-0.29992-1.0505 0.367-1.1505 1.3005-0.20008-0.15006-1.4005-2.3342-1.9341-0.75028-0.1834-0.80024-0.15006-0.60016 0.33346 0.96703 2.2509 0.39988 3.1677-1.6843 2.7009-1.9507-0.4335-2.6177-0.016406-2.3342 1.4341 0.15005 0.78363 0.13351 0.83365-0.28331 0.50019-0.56688-0.46684-0.38334-2.7677 0.30025-3.7347 0.56688-0.8003 0.56681-1.3504 0.01666-1.3504-0.65024 0-0.51679-0.80037 0.15012-0.90041 0.56688-0.083365 0.55014-0.11678-0.15012-1.0671-0.66692-0.91701-0.9837-2.284-0.50019-2.284 0.11672 0 0.35013 0.28324 0.50019 0.63337 0.35013 0.78363 1.3338 0.95056 2.1842 0.36701 0.76696-0.51686 1.9672-0.58382 2.4508-0.1003 0.40015 0.40015 0.4503 1.5341 0.05014 1.7842-0.63357 0.40015-0.18327 0.90021 1.2173 1.3671 0.83365 0.28344 1.7173 0.58355 2.0008 0.66692 0.40015 0.13338 0.48345 0.033343 0.43343-0.50019-0.05003-0.56688 0.04996-0.66692 0.60016-0.58355 0.56688 0.083365 0.63364-1.6e-6 0.48358-0.50019-0.15005-0.46684-0.06662-0.58355 0.40022-0.58355 0.50019 0 0.56688-0.13319 0.41682-0.71674-0.15005-0.60023-0.08337-0.71707 0.41682-0.71707 0.4335 0 0.60016-0.1668 0.60016-0.65031 0-0.71694 0.48338-1.3338 1.0336-1.3338zm6.9746 0.18692c0.22195-0.2118 0.52833-0.20346 0.91181 0.11332 0.23342 0.20008 0.41682 0.66679 0.41682 1.0336 0 0.50019 0.15 0.68353 0.60016 0.68353 0.46684-1.8e-6 0.56675 0.13345 0.45004 0.56695-0.11672 0.4335-0.01668 0.56695 0.41682 0.56695 0.46684 0 0.53367 0.13338 0.38361 0.75028-0.15005 0.6169-0.10017 0.717 0.28331 0.56695 0.66692-0.25009 1.0671 0.083429 0.66692 0.56695-0.56688 0.66692-0.04976 0.80017 1.1007 0.28331 0.93369-0.41682 1.6338-0.63371 2.3841-0.71707 0.11672-0.016672 0.18347-0.6169 0.15012-1.3338-0.06669-1.8507 0.46684-2.1341 2.3342-1.2671 1.5006 0.70026 2.4676 0.41682 2.2508-0.66692-0.05-0.21675 0.04989-0.45017 0.19994-0.50019 0.58355-0.1834 0.48372 1.834-0.13319 2.6677l-0.60016 0.81704 1.3169 1.1003-0.64998 0.01661c-0.6169-1.6e-6 -0.63371 0.033477-0.21688 0.63371 0.48352 0.71694 0.60029 3.7848 0.15012 4.485-0.3001 0.48351-0.36686 0.31665-0.4002-1.1339-0.03335-1.0837-0.36694-1.167-2.6345-0.70013-1.0671 0.23342-1.6337-0.5168-1.567-2.1008 0.05001-1.3338-0.08343-1.4508-1.2339-1.1007-1.4505 0.45017-2.1842 1.6341-1.017 1.6341 1.1004 0 1.3504 0.43363 0.5334 0.8838l-0.65031 0.35007 0.68352 0.16673c0.93369 0.21675 1.0504 0.73341 0.25009 0.96683-0.60023 0.16673-0.61663 0.21682-0.1498 0.56695 0.55021 0.41682 0.66672 1.0339 0.21655 1.0339-0.16673 0-0.15 0.23335 0.06675 0.60016 0.28344 0.48352 0.28344 0.63364 0 0.73368-0.1834 0.06669-0.35006 0.31665-0.35006 0.5334 0 0.21675-0.15005 0.40022-0.33346 0.40022-0.1834 0-0.03329 0.30005 0.31685 0.68352 0.36681 0.38348 0.58349 0.86706 0.5168 1.0671-0.06669 0.20008-0.01681 0.58349 0.11658 0.85025 0.1834 0.35013 0.10004 0.58369-0.2501 0.80044-0.3668 0.23342-0.40022 0.3666-0.15012 0.46664 0.56688 0.23342 0.40035 0.95056-0.21655 0.95056-0.60023 0-0.76716 0.41662-0.28364 0.71674 0.48352 0.30011 0.30031 0.63357-0.46664 0.83365-1.0171 0.2501-0.28337 1.0837 1.484 1.684 1.1171 0.36681 2.0008 0.20008 1.2671-0.25009-1.5006-0.91701 0.15-2.9178 2.0174-2.4343 1.7507 0.4335 2.3844 0.08349 2.1343-1.2003-0.11672-0.58355-0.06675-0.78383 0.18334-0.70046 0.60023 0.1834 0.56675 2.0678-0.05014 3.3516-0.60023 1.2338-0.56675 1.684 0.13351 1.684 0.23342 0 0.41682 0.13326 0.41682 0.28331s-0.23336 0.28364-0.5168 0.28364c-0.83365 0-0.93375 0.33346-0.31685 1.0004 0.65025 0.68359 1.1003 2.6843 0.61677 2.6843-0.16673 0-0.3502-0.28357-0.40022-0.6337-0.11672-0.81698-1.3338-1.0003-2.3342-0.35007-1.4505 0.95036-2.3175 0.48365-2.2675-1.2003l0.03354-1.484-1.6009-0.46698c-0.88367-0.25009-1.6838-0.60009-1.8005-0.7835-0.33346-0.53354-0.58349 0.01666-0.2667 0.60016 0.40015 0.71694 0.14987 0.93355-0.70046 0.61677-0.68359-0.26677-0.98377 0.06695-0.40022 0.43376 0.53354 0.33346 0.30018 0.71674-0.43343 0.71674-0.63357 0-0.68359 0.08343-0.41682 0.56695 0.2501 0.46684 0.20008 0.58362-0.41682 0.73368-0.50019 0.11672-0.71674 0.3666-0.71674 0.8001 0 0.35013-0.15005 0.78376-0.33346 0.96717-1.4339 1.4339-1.5841-2.551-0.20028-5.3187l0.88379-1.7838-0.56695-0.75028c-2.1174-2.8344-2.3342-8.6866-0.4002-10.271 0.88367-0.73361 0.88387-1.0839 0.033542-2.8846-1.0504-2.2133-1.1442-4.8298-0.47836-5.4652zm-3.94 0.99679c1.4672-0.11671 2.0508 1.0004 1.4172 2.651-0.13338 0.31679-0.38361 0.41689-0.80044 0.31685-0.31679-0.083365-0.88367-0.16673-1.2505-0.16673-1.3505-0.016673-0.75015-2.6845 0.63371-2.8012zm-3.3596 1.2964c-0.09171 0.070861-0.25836 0.37951-0.55848 0.9714-0.36681 0.71694-1.3006 2.1006-2.0674 3.051-1.2338 1.5339-1.8674 2.8177-2.5176 5.0853-0.35013 1.2338 0.28317 0.60016 1.0668-1.0671 0.4335-0.93369 1.2506-2.2173 1.8008-2.8843 1.3005-1.5339 2.3844-3.7016 2.3844-4.7019 0-0.35847-0.01674-0.52513-0.10843-0.45427zm7.9945 0.40217c-0.04584 0.010433-0.07483 0.16908-0.13319 0.48587-0.11672 0.66692 0.76689 2.6342 1.5172 3.3844 0.23342 0.21675 0.73341 0.83358 1.1336 1.3504 0.40015 0.51686 1.0338 1.5506 1.4006 2.3342 0.38348 0.75028 0.70046 1.1506 0.70046 0.8838 0.03335-1.0004-1.2005-3.5513-2.651-5.4854-0.81698-1.0837-1.6007-2.234-1.734-2.5508-0.12505-0.2751-0.18764-0.41292-0.23349-0.4025zm-17.557 0.25238c-1.1838 0-1.384 0.21655-0.80044 0.8001 0.60023 0.58355 1.9341 0.41709 1.9341-0.23315 0-0.46684-0.1832-0.56695-1.1336-0.56695zm26.527 0.10844c-0.40015 0.070861-0.62524 0.25843-0.58355 0.54187 0.11672 0.81698 0.83365 0.91675 1.6673 0.23315 0.38348-0.31679 0.63337-0.60009 0.55001-0.61677-0.65858-0.1834-1.2336-0.22912-1.6338-0.15826zm-0.0041 2.3029c-0.23342 0.068777-0.34583 0.2979-0.34583 0.68971 0 0.40015 0.26657 0.55034 1.1336 0.63371 1.4005 0.13338 1.5341-0.40028 0.28362-1.0505-0.48363-0.25009-0.83806-0.34166-1.0715-0.27289zm-26.105 0.039403c-0.55021-0.21675-2.201 0.60036-1.9676 0.96717 0.1834 0.31679 1.9342 0.38348 2.2177 0.083365 0.33346-0.33346 0.20008-0.86713-0.25009-1.0505zm12.888 1.2173c1.0837 0.1834 1.5506 1.2505 1.0837 2.4843-0.10004 0.28344-0.49999 0.38321-1.3837 0.31652l-1.2174-0.083363-0.083367-1.2505c-0.10008-1.4672 0.16663-1.7005 1.6005-1.467zm5.8632 1.5716c-0.19246-0.033835-0.38184 0.014527-0.56108 0.1625-2.2008 1.834-2.5676 6.7692-0.66692 9.1868 1.0171 1.2838 2.234 0.30011 3.2844-2.6677 0.7878-2.1883-0.70925-6.4448-2.0564-6.6815zm-5.9821 3.7117c0.67734 0.06044 1.3361 0.70242 1.3361 1.8695l0.01666 1.1003h-2.8846l0.08337-1.3504c0.07503-1.1588 0.77112-1.6798 1.4485-1.6194zm9.0266 2.8843c-0.15005 0.0021-0.38771 0.30246-0.58779 0.90269-0.1834 0.58355-1.0504 2.0174-1.9174 3.1845-0.867 1.1671-1.8172 2.6842-2.1173 3.3678-0.71694 1.6506-0.55041 2.3009 0.21655 0.93362 0.35013-0.60023 1.1004-1.6506 1.6673-2.3342 1.1004-1.3172 2.4844-3.8848 2.8012-5.1686 0.15005-0.59189 0.08753-0.88784-0.06252-0.88575zm-17.507 0.66692c-0.10421-0.08961-0.07933 0.11905 0.01237 0.56923 0.28344 1.4672 1.1005 3.051 2.5676 4.9684 0.71694 0.93368 1.4339 2.0508 1.5839 2.4843 0.28344 0.75028 0.80044 1.0837 0.80044 0.5168 0-0.91701-1.0671-3.1512-2.0841-4.3183-0.65024-0.75028-1.6008-2.1008-2.1176-3.0011-0.42512-0.74195-0.65841-1.1296-0.76261-1.2192zm8.6658 2.2532c1.017 0.15005 1.4504 1.0671 1.0336 2.1675-0.10004 0.26677-0.60009 0.40022-1.4504 0.40022h-1.2837v-1.2505c0-1.3839 0.21662-1.5507 1.7005-1.3172zm-14.08 2.1466c-0.52937-0.02919-1.0088 0.03739-1.0088 0.22078 0 0.16673 0.23342 0.46684 0.50019 0.66692 0.9837 0.73361 2.6177 0.25023 1.8174-0.5334-0.20008-0.20008-0.77939-0.32512-1.3088-0.3543zm28.069 0.13742c-1.2671 0-1.7006 0.3668-1.1671 1.0004 0.40015 0.50019 0.49999 0.50025 1.3837 0.06675 1.1671-0.60023 1.0673-1.0671-0.21655-1.0671zm-27.092 2.326c-0.17715-0.02084-0.41057 0.05829-0.80238 0.22502-1.0504 0.4335-1.167 0.86686-0.19994 0.86686 0.38348 0 0.8836 0.06669 1.1004 0.16673 0.60023 0.23342 0.81684-0.28324 0.36667-0.88347-0.16673-0.23342-0.28754-0.3543-0.46469-0.37514zm26.335 0.05829c-0.56063-0.06253-1.0444 0.14172-0.94437 0.66692 0.06669 0.36681 0.41696 0.51686 1.3006 0.58355 0.95036 0.06669 1.1672-6.6e-5 1.0505-0.31685-0.20841-0.54187-0.84615-0.8711-1.4068-0.93362zm-14.966 0.71674 1.3674 0.08337c1.4005 0.08337 1.9339 0.98377 1.3837 2.4009-0.11672 0.30011-0.50006 0.40015-1.367 0.33346l-1.2173-0.08337-0.08337-1.367zm-1.7838 4.3018c1.017-0.01668 0.55014 4.3685-0.65031 6.1358-0.8003 1.1671-0.81684 1.3338-0.19994 1.8507 2.2008 1.8007 2.2674 8.3698 0.11658 10.671l-0.58355 0.61678 0.8838 1.8675c0.9837 2.1175 1.2671 5.1016 0.5168 5.5684-0.50019 0.31679-1.4006-0.45017-1.4006-1.1671 0-0.33346-0.20014-0.5168-0.56695-0.5168-0.41682 0-0.56695-0.19989-0.56695-0.71675 0-0.41683-0.13332-0.68371-0.35007-0.63369-0.21675 0.05003-0.31665-0.18347-0.28331-0.56695 0.05003-0.46684-0.08329-0.63339-0.5168-0.63339-0.45017 0-0.5336-0.11678-0.40022-0.56695 0.21675-0.6669-0.25029-0.71705-1.284-0.13349-0.40015 0.21675-0.9669 0.41682-1.2837 0.41682-1.0837 0.03335-1.4338 0.45024-1.017 1.2339 0.83365 1.5506-0.68359 2.5511-2.5009 1.6341-1.2338-0.63357-1.9007-0.53372-2.1675 0.29993-0.26677 0.85032-0.70047 0.63369-0.70047-0.36669 0-0.55019 0.25023-1.1671 0.63371-1.5839l0.6337-0.68353-0.68386-0.51711c-0.63357-0.48352-0.64998-0.51668-0.1498-0.80012 0.41682-0.23342 0.4501-0.38366 0.18334-0.70045-0.51686-0.6169-0.38341-4.4847 0.15012-4.4847 0.31679 0 0.38348 0.21675 0.25009 0.91702-0.28344 1.5172 0.06657 1.7673 1.7838 1.3338 1.8674-0.48352 2.4007-0.06674 2.3674 1.8507-0.01668 1.1671 0.05014 1.3003 0.63371 1.3003 1.3839 0 2.7012-1.6838 1.4674-1.8672-0.81698-0.11672-0.93369-0.41678-0.33346-0.85027 0.53353-0.38348 0.48338-0.4501-0.38361-0.51679-0.65025-0.03335-0.66679-0.6671-0.03321-0.86718 0.76696-0.2501 0.75015-0.61697-0.05014-0.81704-0.50019-0.13339-0.56675-0.23336-0.28331-0.5168 0.20008-0.20008 0.35007-0.68359 0.35007-1.0837 0-0.40015 0.19994-1.0169 0.45004-1.3671 0.40015-0.56688 0.40015-0.65036 0-0.80042-0.26677-0.10004-0.45004-0.51686-0.45004-1.0004 0-0.45017-0.13357-0.81704-0.28364-0.81704-0.15007 0-0.28331-0.20001-0.28331-0.43343 0-0.23342 0.20001-0.43343 0.43343-0.43343 0.48352 0 0.58362-0.4503 0.15012-0.71707-0.48352-0.30011-0.31692-0.71674 0.28331-0.71674 0.46684 0 0.53367-0.13344 0.38361-0.73368-0.15005-0.58356-0.06669-0.75042 0.41682-0.8838 1.0337-0.28344 0.40015-1.0337-1.4172-1.6673-1.6506-0.56688-1.7338-0.53347-1.2003 0.56695 0.66692 1.4005-0.06695 2.5845-1.4341 2.301-1.9007-0.40015-2.5843-0.33353-2.6843 0.2667-0.26677 1.6673-0.38354 1.9676-0.65031 1.5507-0.4335-0.68359-0.29998-2.3677 0.30025-3.5348 0.68359-1.3338 0.717-1.5673 0.15012-1.5673-0.68359 0-0.48372-0.80004 0.21655-0.90008l0.63371-0.08337-0.66692-0.66692c-0.73361-0.73361-1.2172-2.8846-0.65031-2.8846 0.16673 0 0.31686 0.25016 0.31686 0.56695 0 0.90034 1.2337 1.3338 2.1173 0.75028 0.83365-0.55021 2.1842-0.61703 2.6677-0.13351 0.40015 0.40015 0.4503 1.5341 0.05014 1.7842-0.85032 0.51686-0.28331 0.88354 3.218 2.0339 0.4335 0.13339 0.48325 0.05008 0.31652-0.60016-0.1834-0.70026-0.14998-0.75035 0.56695-0.56695 0.71694 0.1834 0.75035 0.15012 0.56695-0.60016-0.16673-0.66692-0.13346-0.76716 0.2667-0.6171 0.36681 0.15005 0.46698 0.01685 0.46698-0.55001 0-0.60023 0.10011-0.70026 0.56695-0.58355 0.46684 0.13339 0.56662 0.01649 0.56662-0.6171 0-0.81698 0.45037-1.4504 1.0339-1.4504zm7.976 0.32499c0.25218 0.19591 0.42724 0.57548 0.42724 1.059 0 0.55021 0.11652 0.66685 0.63337 0.60016 0.51686-0.06669 0.61704 0.03315 0.55034 0.55001-0.06669 0.4335 0.04989 0.63371 0.36667 0.63371s0.4337 0.20021 0.367 0.63371c-0.06669 0.51686 0.03315 0.6167 0.55001 0.55001 0.70026-0.10004 0.83378 0.21681 0.30025 0.73368-0.58356 0.58356-0.13332 0.58369 1.8174-0.03321l1.9004-0.60049-0.16673-1.2003c-0.23342-1.684 0.68386-2.1677 2.518-1.3006 1.4172 0.66692 2.2173 0.43376 2.2173-0.64998 0-0.38348 0.13357-0.70047 0.28364-0.70047 0.70026 0 0.13312 2.6345-0.68386 3.2014-0.20008 0.13339-0.10004 0.40015 0.33346 0.75028 0.78363 0.65025 0.80037 0.86686 0.06675 0.86686-0.71694 0-0.71674 0.11658 0.03354 1.117 0.51686 0.70026 0.56662 1.0338 0.39988 2.4009-0.21675 1.734-0.73334 2.1843-0.73334 0.6337 0-1.3505-0.51686-1.7006-1.7507-1.1837-1.5673 0.65024-2.3679 0.08323-2.3512-1.6341 0.03335-1.5673-0.85032-1.8507-2.2508-0.75028-0.9837 0.76696-0.95036 1.0004 0.16673 1.2339l0.91701 0.18334-1.4172 1.1003h0.78383c0.50019 0 0.7835 0.16666 0.7835 0.43343 0 0.23342-0.1834 0.43376-0.41682 0.43376-0.68359 0-0.83358 0.60016-0.18334 0.76689 0.45017 0.11672 0.53367 0.25003 0.30025 0.5168-0.16673 0.20008-0.23356 0.66679-0.13351 1.0336 0.11672 0.45017-0.03322 0.86706-0.45004 1.3172-0.55021 0.58356-0.56688 0.68366-0.16673 0.98377 0.23342 0.1834 0.49992 0.66704 0.56662 1.0505 0.08337 0.38348 0.21675 0.93357 0.33346 1.2003 0.13339 0.35013 0.05008 0.50019-0.2667 0.50019-0.53354 0-0.58349 0.3169-0.09997 0.80042 0.28344 0.28344 0.21688 0.38341-0.2833 0.5168-0.68359 0.1834-0.83392 0.51693-0.3504 0.81704 0.4335 0.25009 0.05003 0.70015-0.58355 0.70015-1.2505 0-0.41676 1.0338 1.4006 1.7175l1.4674 0.56663-0.18334-1.5504c-0.21675-1.8007 0.38334-2.2008 2.284-1.5839 1.3505 0.45017 2.1675 0.01649 2.1675-1.1339 0-0.46684 0.13326-0.85026 0.2833-0.85026 0.50019 0 0.30025 2.4011-0.2833 3.5515-0.55021 1.0671-0.43356 1.5503 0.35006 1.567 0.48352 0 0.1836 0.56695-0.29991 0.56695-0.86699 0-0.91728 0.33364-0.18367 1.2006 0.40015 0.46684 0.70046 1.2005 0.70046 1.6673 0 0.9837-0.33359 1.067-0.71707 0.18334-0.35013-0.78361-1.3338-0.95054-2.1842-0.36699-1.5339 1.0671-2.6678 0.28369-2.3844-1.6504l0.18367-1.2505-1.0837-0.18365c-0.58355-0.10004-1.4506-0.38334-1.9007-0.61677-0.91701-0.48352-1.2838-0.36681-0.76689 0.25009 0.40015 0.46684-0.0336 0.88378-0.68386 0.63369-0.48352-0.1834-0.85025 0.28332-0.43343 0.53342 0.53354 0.33346 0.30011 0.71705-0.41682 0.71705-0.71694 0-0.95036 0.3833-0.41682 0.71675 0.48352 0.30011 0.0334 0.66692-0.60016 0.50019-0.51686-0.13339-0.56688-0.06675-0.41683 0.43343 0.11672 0.38348-6.5e-5 0.80055-0.31685 1.184-1.6006 1.884-1.6506-3.4515-0.01666-5.6356 0.56688-0.8003 0.7002-1.6673 0.2667-1.6673-0.4335 0-1.7005-2.8844-1.7838-4.0849-0.13337-1.734 0.51666-1.5839 0.71674 0.16673 0.10004 0.83365 0.30025 1.5505 0.46698 1.6005 0.15005 0.05001 0.28331 0.25028 0.28331 0.45035 0 0.1834 0.31705 0.63332 0.68386 0.98346l0.68352 0.6337 0.60016-0.75028c2.5343-3.2012 2.6178-6.5356 0.21688-9.1199-1.0671-1.1504-2.5011 0.33346-2.968 3.0845-0.25009 1.5172-0.78356 1.2671-0.68352-0.33346 0.06669-0.90034 0.38341-1.7175 1.1003-2.8012l1.017-1.5338-0.7835-1.4341c-0.9837-1.8174-1.3172-4.9852-0.58356-5.5854 0.30845-0.2501 0.63781-0.23759 0.88999-0.04168zm-4.1246 0.84212c1.1504 0.16673 0.98377 2.5843-0.18334 2.8344-0.48352 0.10004-0.88373 0.19994-0.90041 0.19994-0.45017 0.31679-0.95023-0.51666-0.95023-1.5504 0-1.3338 0.50006-1.7006 2.0339-1.484zm3.7661 1.4257c-0.10212 0.01668-0.10648 0.3582 0.01856 1.0251 0.21675 1.2005 1.034 2.6512 2.1845 3.885 0.4335 0.46684 0.95009 1.1672 1.1502 1.5673 0.91702 1.8174 1.3674 2.4343 1.3674 1.9174 0-0.86699-1.7173-4.2349-2.7677-5.402-0.53354-0.6169-1.1672-1.534-1.384-2.0674-0.26677-0.63357-0.46678-0.94182-0.5689-0.92515zm-8.0447 0.17715c-0.11046 0.09796-0.28142 0.38953-0.55653 0.91473-0.3668 0.70026-1.0169 1.6675-1.4504 2.1343-1.3005 1.4339-2.3844 3.2679-2.7012 4.5684-0.11672 0.46684-0.2667 1.0671-0.35007 1.3338-0.31679 1.0671 0.41669 0.41656 0.86686-0.76722 0.26677-0.70027 1.1007-2.0671 1.851-3.0675 1.7006-2.2509 2.6508-4.0684 2.5341-4.8687-0.03335-0.2501-0.08329-0.34576-0.19376-0.24781zm-9.8767 0.24781c-0.76696 0.1834-0.85026 0.40022-0.35007 0.90041 0.56688 0.56688 1.9341 0.43356 1.9341-0.18334 0-0.66692-0.65025-0.95049-1.5839-0.71707zm27.327 0.08337c-0.65024 0.01668-0.98377 0.15012-0.98377 0.40022 0 0.75028 0.66692 1.0005 1.5006 0.55034 1.0004-0.51686 0.76702-0.95056-0.5168-0.95056zm-0.21036 2.3886c-0.29386 0.05419-0.48977 0.2542-0.48977 0.57932 0 0.55021 0.8001 0.93348 1.6338 0.8001 0.83365-0.13339 0.81691-0.50019-0.06675-1.0837-0.39182-0.25843-0.78336-0.34987-1.0772-0.29568zm-26.367 0.06253c-0.63357-0.20008-2.1008 0.61683-1.8507 1.017 0.1834 0.28344 1.9342 0.33353 2.2177 0.06675 0.36681-0.3668 0.1832-0.91701-0.36701-1.0837zm14.206 1.2671v2.8344h-2.8514v-2.8344zm-6.5817 1.6933c-0.23166 0.02218-0.4692 0.16576-0.7047 0.45752-2.0174 2.5176-2.4843 4.8352-1.4172 7.086 1.4172 3.0011 2.0674 3.1177 3.5847 0.61678 1.5027-2.524 0.15885-8.3155-1.4628-8.1603zm4.9977 3.6919c0.86699 0 1.3005 0.13357 1.4172 0.45037 0.23342 0.60023 0.21648 1.9672-0.01694 2.2007-0.10004 0.11672-0.75028 0.20001-1.4172 0.18334h-1.2335v-2.8344zm9.2952 2.7719c-0.12088-0.12504-0.38355 0.16263-0.692 0.96293-0.26677 0.68359-1.1337 2.1176-1.9341 3.218-0.8003 1.1004-1.7006 2.5676-2.0008 3.2512-0.68359 1.5839-0.56702 2.5843 0.11658 1.0837 0.28344-0.56687 0.9669-1.5839 1.5338-2.2675 1.5006-1.784 2.3676-3.2512 2.8177-4.7351 0.25843-0.8503 0.27947-1.3882 0.15858-1.5133zm-17.517 0.44417c-0.13964-0.10628-0.13977 0.17697 2e-3 0.85222 0.26677 1.2338 1.6505 3.8016 2.7009 5.0354 0.46684 0.55021 1.084 1.467 1.3508 2.0506 0.40015 0.85032 0.91701 1.4172 0.91701 1.0004 0-0.9837-1.1172-3.3344-2.1343-4.4682-0.70027-0.78363-1.6006-2.1175-2.0008-2.9845-0.41683-0.88365-0.69596-1.3796-0.8356-1.4859zm9.6723 2.3362 0.08337 1.3338c0.08337 1.3171 0.08343 1.3172-0.85026 1.4172-1.7673 0.16673-1.9842 0.01673-1.8842-1.4338l0.08337-1.3172zm-15.406 2.1343c-0.85032 0-0.88347 0.3999-0.04983 0.98345 0.88367 0.60023 1.6504 0.55028 1.6338-0.09997 0-0.58356-0.51686-0.88348-1.5839-0.88348zm28.277 0.31654c-0.85032 0.06669-1.2169 0.217-1.2169 0.51711 0 0.56688 1.2838 0.68353 1.9341 0.18334 0.78363-0.61688 0.58342-0.80049-0.71707-0.70045zm-0.27907 2.3862c-0.42516-0.15215-0.88784-0.16856-1.1046 0.04818-0.1834 0.1834-0.25016 0.5168-0.15012 0.76689 0.2501 0.66692 2.251 0.61678 2.1343-0.05013-0.06669-0.32512-0.4544-0.6128-0.87956-0.76494zm-27.469 0.14197c-0.49185 0.12713-0.92972 0.35632-0.92972 0.58974 0 0.15005 0.58375 0.2501 1.284 0.2501 1.3172 0 1.584-0.25015 0.90041-0.81702-0.21675-0.17507-0.76285-0.14993-1.2547-0.0228zm15.01 0.55621v1.2339c0 0.68359-0.08357 1.3171-0.20028 1.4338-0.11672 0.11672-0.7168 0.16691-1.367 0.11689l-1.1505-0.08337-0.08337-1.3504-0.08337-1.3508zm-4.2349 4.3018c0.55021 0.8003 0.08317 3.9181-0.86719 5.7522l-0.88347 1.7175 0.68352 0.73336c2.2509 2.3842 2.101 8.3865-0.28331 10.754-0.50019 0.48352-0.48372 0.53378 0.13319 1.4341 1.1504 1.6673 1.734 4.9017 1.0671 5.9688-0.4335 0.70026-1.584 0.10004-1.5673-0.75028 0-0.26677-0.2667-0.55002-0.60016-0.63339-0.46684-0.11672-0.55027-0.28369-0.40022-0.76721 0.1834-0.53354 0.11678-0.60023-0.43343-0.41682-0.58356 0.1834-0.61677 0.13358-0.45004-0.55003 0.15005-0.61688 0.09997-0.73361-0.31685-0.66692-0.36681 0.06669-0.50026-0.08348-0.48358-0.55032 0.01668-0.75028 0.04994-0.75028-1.734-0.16673-0.76696 0.25009-1.5837 0.51693-1.8005 0.56695-0.23342 0.05003-0.31692 0.30023-0.21688 0.55033 0.85032 2.2008-0.13351 3.1178-2.2177 2.0841-1.4005-0.70027-2.084-0.60041-2.2173 0.29993-0.13339 0.90034-0.65025 0.83372-0.75028-0.09997-0.06669-0.53354 0.13326-1.1504 0.5334-1.684l0.63371-0.85026-0.68353-0.53372-0.68386-0.53342 0.65031-0.18334c0.60023-0.16673 0.6171-0.217 0.20028-0.68384-0.56688-0.63357-0.48358-4.2846 0.09997-4.4847 0.26677-0.08337 0.31665 0.11672 0.19994 0.83365-0.26677 1.5339 0.08343 1.8007 1.8174 1.3504 1.884-0.48352 2.4009-0.06687 2.4009 1.8839v1.3172l0.88347-0.18334c1.634-0.33346 2.4509-1.8672 1.0004-1.8672-0.66692 0-0.75008-0.51686-0.13319-0.75028 0.66692-0.2501 0.49999-0.66692-0.28364-0.66692-0.867 0-0.8834-0.18358-0.06644-0.86718 0.53354-0.45017 0.56661-0.55003 0.1498-0.55003-0.58356-0.01668-0.55014-1.6173 0.06675-2.9178 0.25009-0.53354 0.26683-0.88378 0.06675-1.1339-0.46685-0.58355-0.73354-2.5009-0.35007-2.5009 0.20008 0 0.26683-0.2669 0.15012-0.71707-0.13339-0.55021-0.06682-0.71675 0.28331-0.71675 0.28344 0 0.40002-0.16666 0.2833-0.43343-0.10004-0.23342-0.25003-0.61715-0.35006-0.85057-0.13339-0.31679 0.01674-0.43343 0.56695-0.43343 1.4672 0 0.48338-1.1336-1.4674-1.7172-1.4839-0.4335-1.6506-0.3003-1.017 0.80012 0.73361 1.2671-0.06669 2.4843-1.4172 2.1675-2.1008-0.50019-2.6008-0.35006-2.7009 0.81704-0.08337 1.1671-0.46678 1.4006-0.76689 0.46696-0.25009-0.81697 0.06662-2.3677 0.76689-3.5348l0.58355-0.98377h-0.58354c-0.8003 0-1.067-0.58349-0.35007-0.76689 0.70027-0.1834 0.76682-0.56677 0.19994-1.2003-0.53353-0.60021-0.90047-2.5843-0.46698-2.5843 0.1834 0 0.45044 0.3166 0.60049 0.71676 0.38348 1.0171 1.0002 1.1674 2.2173 0.51711 1.8007-0.95036 3.3348 0.09979 2.3677 1.6504-0.46684 0.75028-0.41682 1.1006 0.16673 1.1173 0.45017 0.01668 1.6006 0.38354 3.0011 0.98377 0.4335 0.1834 0.48325 0.09992 0.31652-0.55033-0.1834-0.71694-0.15005-0.75035 0.58355-0.56695 0.70026 0.16673 0.75028 0.13339 0.58355-0.41682-0.15005-0.48352-0.06644-0.60016 0.43376-0.60016 0.51686 0 0.58349-0.11685 0.43343-0.71707-0.15005-0.58355-0.06662-0.71676 0.40022-0.71676 0.40015 0 0.56662-0.1834 0.56662-0.66692 0-0.93367 1.0673-1.9007 1.4507-1.3172zm6.6665 0.20124c0.19748-0.25218 0.47778-0.28032 0.83625 0.01566 0.2501 0.20008 0.45004 0.61665 0.45004 0.90009 0 0.31679 0.28358 0.58374 0.71707 0.70045 0.78363 0.20007 0.86686 0.41682 0.36667 0.91701-0.26677 0.25009-0.20001 0.33346 0.31685 0.33346 0.55021 0 0.61697 0.10006 0.48358 0.66692-0.15005 0.58355-0.08349 0.65013 0.5334 0.53342 0.75028-0.15005 0.91721 0.16686 0.367 0.71705-0.6169 0.6169-0.08337 0.61696 1.834-0.01668l1.9004-0.63369-0.1498-1.017c-0.26677-1.7673 1.1503-2.5343 2.7009-1.4338 1.0004 0.70026 2.0339 0.36681 2.0339-0.66692 0-0.40015 0.13358-0.71706 0.28364-0.71706 0.53353 0 0.31665 2.2842-0.30025 3.0678l-0.58355 0.75028 0.58355 0.21657c0.66692 0.25009 0.7837 0.80044 0.15012 0.80044-0.55021 0-0.55014 0.31672-0.01666 1.017 0.63357 0.83365 0.50019 4.1016-0.16673 4.1016-0.13339 0-0.2501-0.53354-0.2501-1.1671v-1.1671l-1.7842 0.20026c-2.1842 0.23342-2.634-0.11672-2.4006-1.834 0.23342-1.6506-0.78363-1.8008-2.4176-0.36699-0.68359 0.60023-0.6169 0.91702 0.16673 0.91702 0.93369 0 1.1168 0.30018 0.56662 0.90041-0.45017 0.48352-0.45004 0.51679 0.13351 0.51679 0.73361 0 0.81684 0.71701 0.11658 0.98377-0.46684 0.1834-0.46678 0.21686-0.01666 0.46696 0.56688 0.31679 0.40028 1.9672-0.28331 3.0343-0.36681 0.56688-0.36687 0.70038 0.01666 1.1339 0.6169 0.68359 0.73348 2.284 0.19994 2.6342-0.35013 0.23342-0.36667 0.31697-0.03322 0.53372 0.48352 0.31679 0.13339 0.98365-0.41682 0.76691-0.45017-0.1834-0.55007 0.55026-0.11658 0.81702 0.53354 0.33346 0.28324 0.71676-0.45037 0.71676-1.6006 0 0.23362 1.6507 2.1176 1.9007l1.2003 0.16673-0.48358-0.83365c-1.0004-1.734-0.41669-2.4176 1.9676-2.3175l2.0506 0.08337 0.15012-1.1336c0.10004-0.8503 0.18334-1.0006 0.35007-0.61708 0.38348 0.90034 0.23349 2.301-0.35007 3.4515-0.31679 0.6169-0.56695 1.1338-0.56695 1.1671 0 0.03335 0.25016 0.1166 0.56695 0.19996 0.31679 0.08337 0.56695 0.28356 0.56695 0.46696 0 0.1834-0.25016 0.31685-0.56695 0.31685-0.31679 0-0.56695 0.1498-0.56695 0.31654 0 0.16673 0.25016 0.63376 0.56695 1.0339 0.58355 0.75028 0.81718 2.5341 0.28364 2.2173-0.15005-0.10004-0.28364-0.43325-0.28364-0.73336 0-0.70026-1.2336-0.73361-2.5508-0.08337-1.5673 0.78363-3.4683-1.1173-2.0178-2.0178 0.58355-0.35013 0.26676-0.7002-0.91701-1.017-0.66692-0.16673-1.5672-0.50026-2.0174-0.73368-0.867-0.45017-1.3503-0.30011-0.8001 0.2501 0.55021 0.55021 0.38341 0.86713-0.40022 0.71707-0.65025-0.13339-0.717-0.06682-0.56695 0.5334 0.15005 0.55021 0.06669 0.68384-0.41682 0.68384-0.45017 0-0.56688 0.14987-0.50019 0.63339 0.05 0.46684-0.05003 0.63351-0.41682 0.60016-0.30011-0.01668-0.50019 0.1503-0.50019 0.43375 0 0.2501-0.19994 0.76684-0.45004 1.117-1.4005 2.0008-1.7508-2.1176-0.38361-4.8853 0.90034-1.884 1.0336-2.4508 0.61677-2.4508-2.0174 0-2.4341-7.803-0.55001-10.421l0.85026-1.2003-0.76689-1.5673c-1.0254-2.0883-1.1786-4.8612-0.58616-5.6176zm-4.0155 0.94924c1.3005-0.11672 1.5839 0.20014 1.5839 1.734v1.0668l-2.7012-0.16674v-2.5508zm-3.2095 1.1232c-0.15005 0.06877-0.40849 0.44392-0.7086 1.0942-0.28344 0.63357-1.0173 1.7342-1.6175 2.4678-0.60023 0.75028-1.5006 2.0841-1.9841 3.0011-0.53354 0.9837-0.85006 1.9674-0.81671 2.4176 0.08337 0.70026 0.20001 0.56682 1.017-1.0671 0.50019-1.0171 1.3503-2.3342 1.8839-2.9344 1.0171-1.1504 1.9843-2.9511 2.2844-4.2349 0.13339-0.57522 0.09176-0.81287-0.05829-0.7441zm7.861 0.31262c-0.06669-0.02709-0.09977 0.12303-0.1498 0.43148-0.15005 0.83365 0.78343 2.751 2.0506 4.1849 0.55021 0.63357 1.3839 1.851 1.834 2.6847 0.46684 0.86699 0.8672 1.3503 0.8672 1.0668 0.01668-0.867-1.6342-4.1681-2.768-5.5519-0.60023-0.73359-1.2669-1.7173-1.4836-2.1842-0.1834-0.40015-0.28371-0.60465-0.3504-0.63174zm-17.557 0.44808c-1.2671 0.10004-1.4339 0.30025-0.75028 0.80044 0.90034 0.65024 1.9174 0.5168 1.8174-0.23349-0.06669-0.55021-0.23349-0.63364-1.0671-0.56695zm27.144 0.05014c-1.1838 0-1.3003 0.06655-1.2169 0.61677 0.11672 0.85032 0.50012 0.90041 1.6005 0.23349 1.2171-0.73361 1.167-0.85025-0.38361-0.85025zm-0.08337 2.2675c-0.51686 0.01668-0.96676 0.55032-0.81671 0.96715 0.13339 0.31679 0.53327 0.45005 1.4003 0.45005l1.2173-0.01668-0.80044-0.70015c-0.45017-0.38346-0.88366-0.70043-1.0004-0.70043zm-27.06 0.01668c-0.60023 0-1.8008 0.9671-1.5341 1.2339 0.36681 0.36681 2.1008 0.18334 2.2509-0.23349 0.21675-0.55021-0.09983-1.0004-0.71674-1.0004zm14.355 1.2673 0.08337 1.3338c0.08337 1.3172 0.08343 1.3337-0.85026 1.4504-0.51686 0.06669-1.0171 0.13344-1.0837 0.15012-0.53354 0.15005-0.8838-0.56681-0.80044-1.684l0.08337-1.2505zm4.7593 1.7452c-0.21346-0.01566-0.42418 0.05739-0.62425 0.23871-2.0341 1.834-2.3177 6.536-0.53374 9.0369 0.91702 1.2838 2.0676 0.43356 3.3014-2.4343 0.97746-2.2612-0.64917-6.7311-2.1433-6.8414zm-11.179 0.02605c-0.2131 7e-3 -0.42673 0.12511-0.63306 0.37938-2.551 3.1512-2.6507 6.7694-0.23316 9.3037 0.8003 0.83365 1.4005 0.38346 2.5843-1.9174 1.2401-2.4072-0.22638-7.8141-1.7181-7.7656zm5.4027 3.7309c1.1338 0.11672 1.7672 1.9006 0.95023 2.7175-0.81698 0.8003-2.5009 0.01686-2.5843-1.2169-0.11672-1.4672 0.08349-1.6506 1.6341-1.5006zm8.8533 2.601c-0.16673 0-0.30025 0.16661-0.30025 0.36669 0 0.55021-1.0836 2.4844-2.284 4.0517-0.60023 0.78363-1.4172 2.0841-1.834 2.9178-0.41682 0.81698-0.71694 1.7173-0.66692 2.0008 0.06669 0.35013 0.23342 0.20014 0.58355-0.5168 0.26677-0.55021 1.1337-1.8008 1.9341-2.7846 1.9007-2.3509 3.468-6.0354 2.5676-6.0354zm-17.355 0.8024c-0.20633-0.24384-0.3022-0.19387-0.3022 0.13124 0 0.85032 1.6508 4.035 2.968 5.719 0.71694 0.91701 1.3003 1.8174 1.3003 2.0174 0 0.20007 0.20021 0.53354 0.46698 0.75028 1.2338 1.0337-0.46691-3.1512-1.9007-4.6851-0.45017-0.48351-1.1505-1.5174-1.5673-2.301-0.44183-0.85032-0.75856-1.388-0.96488-1.6318zm9.6518 2.0154v1.2505c0 0.68359-0.08363 1.3338-0.18367 1.4338-0.10004 0.10004-0.75022 0.18335-1.4338 0.18335h-1.2505l0.08337-1.3505 0.08337-1.3504zm-15.156 2.3674c-1.2005-0.10004-1.3671 0.26677-0.43343 0.91701 0.95036 0.66692 1.7006 0.5836 1.5839-0.18335-0.06669-0.51686-0.30018-0.66697-1.1505-0.73366zm27.894 0.2667c-0.85032 0.06669-1.2169 0.21668-1.2169 0.51679 0 0.51686 1.2171 0.68384 1.9341 0.26702 0.86699-0.51686 0.5334-0.86718-0.71707-0.78381zm-0.45004 2.3175c-0.68359-0.16673-1.2671 0.31685-1.0837 0.90039 0.11672 0.41682 2.0841 0.51674 2.3342 0.11659 0.23342-0.3668-0.23342-0.75022-1.2505-1.017zm-25.96 0.03322c0-0.21675-0.83378-0.11658-1.5507 0.21688-0.38348 0.1834-0.71707 0.43355-0.71707 0.56693 0 0.13337 0.60036 0.23349 1.3006 0.23349 1.0671 0 1.284-0.08354 1.1339-0.45035-0.08337-0.2501-0.16673-0.50026-0.16673-0.56695zm12.871 0.48357c0.68359 0.10004 1.0837 1.6675 0.68352 2.7012-0.11672 0.30011-0.51673 0.3999-1.367 0.31654l-1.2173-0.08337-0.08337-1.3338c-0.08337-1.4505 0.36687-1.834 1.9841-1.6005zm-3.3346 4.435c0.58355 0.35013 0.03341 4.0515-0.85026 5.7522l-0.85025 1.6341 0.76689 1.117c1.1671 1.7006 1.9006 4.8855 1.0502 4.6021-0.20008-0.06669-0.44997-0.73373-0.55001-1.4673-0.36681-2.4843-1.8509-3.8681-2.7179-2.5176-0.28344 0.4335-0.60029 0.86688-0.73368 0.95024-1.2838 0.91701-1.5671 4.1349-0.5334 6.169 1.734 3.4346 3.418 2.7512 4.1516-1.7171 0.23342-1.4672 0.71674-1.3505 0.71674 0.16673 0 1.2505-1.0503 3.7014-1.8672 4.335-0.35013 0.26677-0.28357 0.56663 0.45004 1.9838 0.86699 1.684 1.2672 4.5854 0.73368 5.4357-0.48352 0.8003-1.6171 0.13326-1.6171-0.96715 0-0.41682-0.16673-0.6169-0.50019-0.58355-0.35013 0.0333-0.46684-0.15019-0.41682-0.63371 0.06669-0.55021-0.03346-0.65011-0.46698-0.5334-0.4335 0.11672-0.51686 0.0168-0.41682-0.53342 0.10004-0.53353 1.3e-4 -0.68384-0.45004-0.68384-0.66692 0-0.70047-0.0999-0.28364-0.86686 0.36681-0.70027 0.23369-0.68366-1.1502 0.0167-0.60023 0.30011-1.334 0.56695-1.6175 0.56695-0.96703 0.0167-1.3171 0.43361-0.93362 1.1339 0.8003 1.4672-0.81684 2.6177-2.3674 1.684-1.2505-0.76693-1.7677-0.68377-2.1845 0.29993-0.1834 0.46685-0.46678 0.78382-0.60016 0.70045-0.45017-0.28344-0.25016-1.734 0.35007-2.5009l0.60049-0.75029-0.66692-0.55032-0.66692-0.55003 0.66692-0.25009c0.60023-0.21675 0.6167-0.28362 0.21655-0.61708-0.55021-0.4335-0.66699-4.1182-0.15012-4.435 0.56688-0.33346 0.91715 0.33339 0.55034 1.017-0.58355 1.1004 0.15005 1.5339 1.834 1.0837 1.784-0.48351 2.6008 0.28358 2.284 2.1343l-0.18334 1.1336 0.93362-0.18334c1.7006-0.33346 2.7347-1.8839 1.2674-1.8839-0.78363 0-0.95056-0.40015-0.28364-0.66692 0.68359-0.26676 0.50025-0.70038-0.35007-0.80041l-0.7835-0.0834 0.68353-0.63371c0.60023-0.55021 0.6335-0.63339 0.18334-0.63339-0.40015 0-0.48345-0.15016-0.35007-0.63369 0.10004-0.35013 0.18334-0.93357 0.18334-1.2837 0-0.35013 0.25016-0.88385 0.56695-1.2006 0.53354-0.55021 0.5334-0.58349 0.03321-0.85026-0.76696-0.40015-1.0169-2.2675-0.38328-2.751 0.30011-0.23342 0.34993-0.38329 0.13319-0.38329-0.6169-0.01668-0.40022-0.80042 0.2667-0.96715 0.60023-0.16673 0.60029-0.19996 0.15012-0.70015-0.55021-0.6169-0.36674-0.91701 0.56695-0.91701 1.0671 0 0.76689-0.46684-0.81704-1.2505-2.1675-1.0671-2.6342-1.0004-2.0339 0.2501 0.65024 1.3505-0.06689 2.6177-1.284 2.2675-1.9507-0.55019-2.7344-0.33339-2.8344 0.81704-0.10004 1.1504-0.48345 1.4171-0.76689 0.5168-0.25009-0.80029 0.13339-2.5845 0.75028-3.4681 0.66692-0.96703 0.66705-1.1003-0.03322-1.1003-0.31679 0-0.56695-0.20003-0.56695-0.43345 0-0.25009 0.25016-0.43343 0.56695-0.43343 0.71694 0 0.7002-0.03349-0.15012-1.3006-0.73361-1.0837-0.90027-1.9341-0.43343-2.2342 0.15005-0.10004 0.35 0.15017 0.45004 0.55032 0.25009 1.0171 1.2172 1.1837 2.4843 0.43345 1.6506-0.96703 3.1845 0.21675 2.2342 1.7507-0.53354 0.85032-0.40008 0.98364 1.2339 1.3504 0.85032 0.20008 1.6337 0.46703 1.7171 0.61708 0.10004 0.15005 0.35013 0.2667 0.58355 0.2667 0.35013 0 0.33339-0.13337-0.06675-0.75028l-0.48325-0.75028 0.91701 0.19996c0.98371 0.21675 1.2336-0.2333 0.55001-0.95024-0.28344-0.30011-0.18347-0.33346 0.60016-0.16673 0.88367 0.1834 0.91715 0.14994 0.6337-0.38359-0.41682-0.8003-0.38354-0.90041 0.2667-0.90041 0.41682 0 0.56695-0.19994 0.56695-0.70013 0-0.73361 1.0337-1.6841 1.5006-1.384zm7.0528 0.06675c0.1834 0 0.54994 0.45017 0.81671 1.0004 0.26677 0.53354 0.63357 0.95036 0.83365 0.91701 0.23342-0.05 0.33359 0.18347 0.30025 0.56695-0.05003 0.41682 0.08349 0.63369 0.38361 0.63369 0.33346 0 0.40002 0.16673 0.28331 0.66692-0.15005 0.60023-0.08323 0.65013 0.55034 0.53342 0.66692-0.11672 0.7002-0.08349 0.43343 0.61677-0.33346 0.88366-0.08357 0.95061 1.2169 0.26702 0.50019-0.26677 1.3008-0.56688 1.7677-0.66692 0.51686-0.10004 0.81691-0.33352 0.76689-0.56695-0.4335-1.8674-0.41689-1.9674 0.35007-2.3175 0.65025-0.30011 0.95036-0.26677 2.0008 0.25009 1.3338 0.65025 2.5011 0.25021 2.2177-0.78351-0.10004-0.38348-0.08343-0.38348 0.18334 0 0.4335 0.6169 0.38328 1.8507-0.1169 2.2675-0.55021 0.45017-0.55021 1.0171 0 1.2339 0.55021 0.21675 0.55021 0.75028 0 0.75028-0.51686 0-0.5166 0.26652 0.01693 0.98346 0.41682 0.56688 0.54994 2.3509 0.23316 3.5013-0.26677 0.98371-0.66678 0.7504-0.61677-0.36667 0.06669-1.4339-0.35013-1.7172-1.6673-1.2003-1.884 0.75028-2.9011-0.16673-2.5176-2.2509 0.1834-0.98371 0.16653-1.0004-0.6171-0.81704-1.6673 0.38348-3.0341 1.8672-1.7337 1.8672 1.0004 0 1.167 0.33353 0.43343 0.90041l-0.65031 0.50019h0.7835c0.867 0.01668 1.0006 0.33333 0.3504 0.86686-0.38348 0.31679-0.38374 0.4004 0.06644 0.76721 0.36681 0.28344 0.40022 0.44999 0.15012 0.55002-0.21675 0.08337-0.28337 0.40015-0.18334 0.83365 0.11672 0.41682-1.3e-4 0.96703-0.30025 1.4172-0.41682 0.63357-0.43323 0.7837-0.06644 1.0671 0.63357 0.50019 0.83351 2.4007 0.28331 2.7009-0.30011 0.16673-0.33332 0.31697-0.11658 0.45035 0.48352 0.30012 0.36661 0.66674-0.28364 0.88349-0.4335 0.13339-0.51673 0.26677-0.28331 0.50019 0.48352 0.48351 0.36667 1.0505-0.21688 1.0505-1.2838 0-0.86699 0.91701 0.75028 1.5839 0.95036 0.40015 2.0509 0.55007 2.0509 0.28331 0-0.0667-0.13344-0.45017-0.31685-0.83365-0.8003-1.784 0.3502-2.6177 2.5676-1.8507 1.1338 0.40015 1.7507-0.0332 1.7507-1.2003 0-0.45017 0.13326-0.81702 0.28331-0.81702 0.51686 0 0.31692 2.6512-0.28331 3.6349-0.70026 1.1338-0.70026 1.1003 0 1.2837 0.31679 0.0834 0.56695 0.28356 0.56695 0.46696 0 0.18341-0.25016 0.31654-0.56695 0.31654-0.70026 0-0.70026 0.0502 0 1.2006 0.60023 0.9837 0.76682 2.5009 0.28331 2.5009-0.15005 0-0.28331-0.2336-0.28331-0.53372 0-1.0837-0.78363-1.3336-2.0841-0.64999-1.3338 0.70026-1.9007 0.78351-2.4009 0.28332-0.40015-0.40015-0.4503-1.8174-0.05014-2.0674 0.60023-0.3668 0.25023-0.66698-1.2837-1.1505-0.867-0.26676-1.6341-0.59998-1.7175-0.73336-0.38348-0.60022-0.98351-0.23342-0.8001 0.50019 0.16673 0.66692 0.11672 0.71676-0.41682 0.55003-0.51686-0.16674-0.60016-0.0833-0.60016 0.56694 0 0.56688-0.1169 0.71694-0.45037 0.58356-0.38348-0.13339-0.41676-0.0168-0.2667 0.70013 0.16673 0.81697 0.13351 0.85057-0.5334 0.68384-0.63357-0.16673-0.70033-0.11672-0.56695 0.41682 0.10004 0.36681-0.03329 0.81698-0.35007 1.1671-1.3839 1.5339-1.6342-2.5011-0.36701-5.2021 0.93369-1.9174 0.95056-1.7006-0.13319-3.2679-1.9174-2.8011-1.4672-8.3532 0.83365-10.237 0.35013-0.28344 0.33333-0.43331-0.13351-1.1336-1.7173-2.5009-2.0339-6.6193-0.5334-6.6193zm-2.9178 1.1505v1.4338l-0.01693 1.4338-2.7009-0.16673-0.16673-2.7009zm-4.5519 1.5338c0-0.4335-0.55021 0.05008-0.91701 0.81704-0.2501 0.51686-1.0837 1.7006-1.8507 2.651-0.76696 0.95036-1.6841 2.4011-2.0343 3.218-0.35013 0.81698-0.60009 1.834-0.5334 2.2509l0.08337 0.76689 0.33346-0.93362c0.36681-0.9837 1.9841-3.535 3.2679-5.1856 0.6169-0.78363 1.6507-3.0345 1.6507-3.5847zm7.4028 0.11689c-0.01668 1.0504 0.75035 2.701 1.9007 4.0682 0.70026 0.83365 1.634 2.2172 2.0841 3.0675 0.6169 1.2005 0.81698 1.4006 0.83365 0.90041 0.01668-0.8003-1.0504-2.9845-2.3342-4.7685-0.50019-0.71694-1.2673-1.834-1.7008-2.4843-0.43346-0.65025-0.7835-1.0003-0.7835-0.78351zm-17.823 0.23349c-0.83365 0.20008-0.8838 0.55009-0.13351 0.95024 0.90034 0.48352 1.7342 0.36674 1.7175-0.23349 0-0.66692-0.65025-0.95018-1.5839-0.71676zm27.477 0.08337c-0.95036 0-1.1505 0.10004-1.0671 0.50019 0.11672 0.58355 1.0171 0.76696 1.734 0.33346 0.83365-0.50019 0.55021-0.83365-0.66692-0.83365zm-26.977 2.3007c-0.66692 0-1.8007 0.81704-1.6005 1.1505 0.26677 0.4335 2.134 0.31672 2.3007-0.15012 0.21675-0.55021-0.09991-1.0004-0.70013-1.0004zm26.78 0.06055c-0.30845 0.04793-0.50442 0.26475-0.50442 0.63989 0 0.46684 0.23362 0.58355 1.2007 0.66692 1.3839 0.08337 1.5503-0.23367 0.48325-0.93394-0.45017-0.30011-0.87103-0.42081-1.1795-0.37288zm-12.442 1.2065 0.08337 1.3508 0.08337 1.3504h-2.9011l0.08337-1.3504 0.08337-1.3508zm4.8857 1.623c-0.20431-0.02485-0.40699 0.03394-0.60081 0.1944-1.9507 1.634-2.4174 6.1191-0.88347 8.7201 1.1338 1.9341 2.1173 1.317 3.5345-2.2177 0.88992-2.2467-0.6201-6.523-2.0503-6.6969zm-6.8864 3.7624c1.5006-0.36681 2.1343 0.04995 2.1343 1.4338 0 1.1504-0.06689 1.2507-0.78383 1.3674-0.4335 0.06669-0.86679 0.13339-0.96683 0.16673-1.2838 0.28344-1.6508-2.6512-0.38361-2.968zm9.9518 2.7699c-0.12713 0.0396-0.36479 0.43123-0.68157 1.1648-0.28344 0.66692-1.2505 2.2177-2.1508 3.4681-1.634 2.2675-1.9007 2.7509-2.2509 4.2014-0.26677 1.1171 0.21695 0.96703 0.6171-0.16673 0.20008-0.53354 0.86706-1.5506 1.484-2.2508 1.3338-1.5172 2.7344-4.068 3.0011-5.4686 0.12504-0.67526 0.10826-0.98787-0.01889-0.94828zm-17.688 0.91475c-0.16673 0.1834 1.3671 3.7014 1.684 3.8348 0.11672 0.05 0.21688 0.25028 0.21688 0.45035 0 0.20008 0.2667 0.59998 0.60016 0.9001 0.33346 0.30011 0.9839 1.2173 1.4507 2.0343 0.9837 1.7173 1.217 1.8674 0.95023 0.58356-0.26677-1.3172-1.2003-3.0346-2.284-4.2018-0.50019-0.55021-1.2673-1.6171-1.7008-2.3674-0.41682-0.76696-0.83365-1.3172-0.91701-1.2339zm9.8706 1.8842v2.8344h-1.2505c-1.2338 0-1.2507-6e-5 -1.4341-1.1505-0.23342-1.5006-0.08337-1.684 1.4172-1.684zm-15.156 2.3342c-1.1838-0.10004-1.3506 0.18346-0.55034 0.9004s1.8175 0.6169 1.7008-0.16673c-0.06669-0.51686-0.30018-0.66698-1.1505-0.73367zm27.911 0.1166c-0.78363-0.0333-0.95056 0.0666-1.0339 0.60016-0.11672 0.76696 1.334 0.9172 1.9509 0.20026 0.46684-0.56686 0.25009-0.7504-0.91701-0.80042zm-26.843 2.3844c-0.55021 0-1.851 0.61679-1.851 0.86688 0 0.38348 2.3342 0.46684 2.4843 0.0834 0.1834-0.46685-0.13319-0.95025-0.63337-0.95025zm25.73 0.12505c-0.44183 0.16673-0.67929 0.55027-0.38751 1.0254 0.21675 0.35013 1.5837 0.31667 2.134-0.0501 0.36681-0.23342 0.35033-0.33334-0.13319-0.70015-0.5252-0.39182-1.1714-0.4419-1.6132-0.27517zm-11.642 0.4419v2.8511h-1.2339c-1.5172 0-1.5008 0.0165-1.3674-1.5507l0.10031-1.3003z" fill="{{ border_color }}" stroke-width=".16673"/>
</svg>
