<?xml version="1.0" encoding="UTF-8"?>
<svg width="600" height="659.75" version="1.1" viewBox="0 0 600 659.75" xmlns="http://www.w3.org/2000/svg">
 <path d="m1.1387 0-0.15234 119.02c-0.31163 246.39-0.62493 348.56-0.98633 540.73h11.357c0.25716-213.55 0.81055-515.27 0.90039-659.75zm29.875 0c-0.1007 193.35-0.73274 473.63-0.94531 659.75h4.2988c0.15468-72.84 0.39724-293.95 0.51953-333.63 0.18818-73.202 0.30064-205.55 0.43945-326.12zm131.47 2.3164c-6.5 0-2.7012 27.7 5.2988 39l4.1016 5.7012-5 5.1992c-6.9 7.2-13.4 29.9-8 28.1 1.1-0.3 2.8984-4.3996 3.8984-9.0996 5.8-25.7 22.8-19.899 27.5 9.3008 4.4 27.4-21.9 41.499-27.5 14.699-0.5-2.8-1.3988-6.8004-1.7988-8.9004-1.3-6.4-4.0996-4.3-4.0996 3 0 8 3.1988 16.4 9.2988 24.4l4.4004 5.6992-5.0996 9.8008c-5.1 9.6-6.8996 23.3-4.0996 30.6 1.8 4.8 7.5 3.3004 8.5-2.0996 0.7-3.6 1.9984-5.0996 4.3984-5.0996 2.8 0 3.2004-0.79962 2.4004-4.0996-0.8-3.5-0.5-4.0012 2.5-3.2012 3.1 0.79999 3.3008 0.30116 2.3008-3.7988-1.1-4.2-0.90078-4.5004 2.6992-3.4004 3.6 1.2 3.8008 0.89882 2.8008-4.2012l-1.0996-5.5 5.5996 3.3008c3.1 1.8 8.4004 3.8 11.9 4.5 6.6 1.2 7.3996 2.6008 4.5996 7.8008-4.5 8.3 5.0988 13.7 15.299 8.5 7.4-3.8 11.501-3.1016 12.301 1.8984 0.9 5.5 3.9 4.4008 4.5-1.6992 0.4-4.1-0.60039-6.9004-3.4004-9.9004-3.8-4.1-2.7-7.3004 2.5-7.4004 2.2-0.1 0.30117-4.2988-1.7988-4.2988-3.3 0-3.9008-2.0012-1.3008-4.2012 3.8-3.1 3.8-27.299 0-27.299-2.1 0-2.3992 1.2-1.6992 5.5 1.5 8.6-0.90001 10.8-9 8.4004-12-3.6-15.701-1.0004-15.701 11.1v7.7988l-5.5-1.0996c-6.2-1.2-12.5-6.5992-10.9-9.1992 0.6-0.9 2.6-1.3008 4.5-0.80078 4.1 1.1 4.9004-4.1992 0.90039-5.6992-3.2-1.2-1.5004-4.1996 2.0996-3.5996 4.2 0.8 4.4012-3.4012 0.20117-4.7012-3.4-1.1-3.5996-1.3992-1.0996-3.1992 3.1-2.3 2.9988-11.6-0.20117-17.6-1.3-2.4-1.5-4.9008-0.5-6.8008 5-10 4.8012-21.5-0.29883-16.4-0.6 0.6-1.1016 0.1996-1.1016-0.90039 0-1.1 0.80117-2 1.7012-2s1.6992-1.1996 1.6992-2.5996c0-1.4-1.1992-2.5996-2.6992-2.5996-1.9 0-2.3996-0.90001-1.5996-3 2.1-5.4 1.7988-6.3004-2.2012-6.9004-7.8-1.2 0.90001-8.3996 14-11.6 4.5-1.1 4.7996-0.9 3.5996 2-5.8 13.5-2.3984 18.999 10.102 16.199 11.7-2.6 15.7-0.0984 14 8.6016-0.9 4.7-0.80078 5 1.6992 3 3.4-2.8 2.2992-16.6-1.8008-22.4-3.4-4.8-3.3996-8.0996-0.0996-8.0996 3.9 0 3.0996-4.8004-0.90039-5.4004-3.4-0.5-3.2996-0.7004 0.90039-6.4004 4-5.5 5.9-13.699 3-13.699-0.7 0-2.1 1.6988-3 3.7988-2.1 4.7-7.9996 5.7012-13.1 2.2012-4.6-3.1-11.799-3.5016-14.699-0.60156-2.4 2.4-2.7008 9.2012-0.30078 10.701 3.8 2.4 1.0992 5.3992-7.3008 8.1992-5 1.7-10.3 3.5-12 4-2.4 0.79999-2.8996 0.19999-2.5996-3 0.3-3.4-0.29961-4-3.5996-3.5-3.4 0.5-3.8004-1e-5 -2.9004-3 0.9-2.8 0.39961-3.5-2.4004-3.5-3 0-3.4-0.79884-2.5-4.2988 0.9-3.6 0.5-4.3008-2.5-4.3008-2.6 0-3.5996-1.0004-3.5996-3.9004 0-4.3-2.8992-8-6.1992-8zm-41.832 1.1211c-1.3312-1.2703-3.1688-1.2203-5.4688 0.67969-1.4 1.2-2.5 3.9992-2.5 6.1992 0 3-0.89961 4.0996-3.5996 4.0996-2.8-1e-5 -3.3992 0.80039-2.6992 3.4004 0.7 2.6 0.1 3.4004-2.5 3.4004-2.8 0-3.2008 0.8-2.3008 4.5 0.9 3.7 0.60078 4.3004-1.6992 3.4004-4-1.5-6.4 0.50039-4 3.4004 3.4 4 0.29843 4.7992-6.6016 1.6992-5.6-2.5-9.7988-3.8008-14.299-4.3008-0.7-0.1-1.1004-3.7-0.90039-8 0.4-11.1-2.8-12.8-14-7.5996-9 4.2-14.8 2.5-13.5-4 0.3-1.3-0.29922-2.7-1.1992-3-3.5-1.1-2.9012 11 0.79883 16l3.5996 4.9004-7.8984 6.5996 3.8984 0.0996c3.7-1e-5 3.8008 0.20078 1.3008 3.8008-2.9 4.3-3.6004 22.7-0.90039 26.9 1.8 2.9 2.2004 1.8992 2.4004-6.8008 0.2-6.5 2.2008-6.9992 15.801-4.1992 6.4 1.4 9.7984-3.0996 9.3984-12.6-0.3-8 0.5004-8.7016 7.4004-6.6016 8.7 2.7 13.1 9.8008 6.0996 9.8008-6.6 0-8.0992 2.6008-3.1992 5.3008l3.9004 2.0996-4.0996 1c-5.6 1.3-6.3 4.3988-1.5 5.7988 3.6 0.99999 3.6984 1.3004 0.89844 3.4004-3.3 2.5-3.9988 6.2012-1.2988 6.2012 1 0 0.89961 1.3996-0.40039 3.5996-1.7 2.9-1.7 3.8004 0 4.4004 1.1 0.4 2.0996 1.8992 2.0996 3.1992 0 1.3 0.9 2.4004 2 2.4004s0.19961 1.7996-1.9004 4.0996c-2.2 2.3-3.4996 5.2004-3.0996 6.4004 0.4 1.2 0.10078 3.4996-0.69922 5.0996-1.1 2.1-0.6 3.5008 1.5 4.8008 2.2 1.4 2.4004 2.1988 0.90039 2.7988-3.4 1.4-2.4012 5.7012 1.2988 5.7012 3.6 0 4.6012 2.4988 1.7012 4.2988-2.9 1.8-1.8012 3.8 2.7988 5 6.1 1.5 1.6996 6.4996-8.9004 10.1-6.7 2.2-12 1.2-7.5996-1.5 9-5.5-0.89962-17.5-12.1-14.6-10.5 2.6-14.301 0.50077-12.801-7.1992 0.7-3.5 0.40039-4.7012-1.0996-4.2012-3.6 1.1-3.3992 12.402 0.30078 20.102 3.6 7.4 3.3992 10.1-0.80078 10.1-1.4 0-2.5 0.79922-2.5 1.6992 0 0.89999 1.3996 1.7012 3.0996 1.7012 5 0 5.6004 2 1.9004 6-3.9 4.1-6.5992 16.1-3.6992 16.1 1 0 2.1004-1.7008 2.4004-3.8008 0.7-4.9 8-5.9996 14-2.0996 8.7 5.7 13.9 2.9008 13.6-7.1992l-0.20117-8.9004 9.6016-2.8008c5.3-1.5 10.099-3.5992 10.799-4.6992 2-3.2 3.4996 0.0996 1.5996 3.5996-2.4 4.3-0.89882 5.5992 4.2012 3.6992 4.1-1.6 5.9004 0.40156 2.4004 2.6016-3.2 2-1.8004 4.2988 2.5996 4.2988 3.8 0 4.1 0.50039 2.5 3.4004-1.5 2.8-1.2 3.5004 2.5 4.4004 3 0.7 4.2988 2.1988 4.2988 4.7988 0 2.1 0.9 4.7008 2 5.8008 8.6 8.6 9.5012-15.3 1.2012-31.9l-5.3008-10.699 3.4004-4.5c12.7-17 14-52.1 2.4004-61.6-5.3-4.4-5.3012-6.5008-0.20117-17.301 6.3-13.275 6.8629-28.968 2.8691-32.779zm23.631 5.9785c-8.8-0.7-12.3 6.0004-8.5 15.9 0.8 1.9 2.3008 2.5004 4.8008 1.9004 1.9-0.5 5.3-1 7.5-1 8.1-0.1 4.4992-16.101-3.8008-16.801zm20.15 7.7754c0.55 0.425 1.5496 2.2762 3.3496 5.8262 2.2 4.3 7.8004 12.599 12.4 18.299 7.4 9.2 11.2 16.9 15.1 30.5 2.1 7.4-1.6984 3.5996-6.3984-6.4004-2.6-5.6-7.5008-13.299-10.801-17.299-7.8-9.2-14.301-22.201-14.301-28.201 0-2.15 0.10039-3.1496 0.65039-2.7246zm-47.949 2.4121c0.275 0.0625 0.44883 1.0141 0.79883 2.9141 0.7 4-4.5996 15.799-9.0996 20.299-1.4 1.3-4.3988 4.9996-6.7988 8.0996-2.4 3.1-6.2004 9.3-8.4004 14-2.3 4.5-4.2012 6.9008-4.2012 5.3008-0.2-6 7.2004-21.3 15.9-32.9 4.9-6.5 9.6004-13.399 10.4-15.299 0.75-1.65 1.1254-2.4766 1.4004-2.4141zm105.3 1.5137c7.1 0 8.3008 1.2988 4.8008 4.7988-3.6 3.5-11.6 2.5016-11.6-1.3984 0-2.8 1.0988-3.4004 6.7988-3.4004zm-159.1 0.65039c2.4 0.425 3.75 1.55 3.5 3.25-0.7 4.9-5 5.4984-10 1.3984-2.3-1.9-3.7988-3.5992-3.2988-3.6992 3.95-1.1 7.3988-1.3742 9.7988-0.94922zm0.02539 13.812c1.4 0.4125 2.0742 1.7867 2.0742 4.1367 0 2.4-1.5988 3.3008-6.7988 3.8008-8.4 0.8-9.2012-2.4008-1.7012-6.3008 2.9-1.5 5.0258-2.0492 6.4258-1.6367zm156.57 0.23633c3.3-1.3 13.201 3.6008 11.801 5.8008-1.1 1.9-11.601 2.3-13.301 0.5-2-2-1.2-5.2008 1.5-6.3008zm-77.299 7.3008c-6.5 1.1-9.3 7.5004-6.5 14.9 0.6 1.7 2.9988 2.2984 8.2988 1.8984l7.3008-0.5 0.5-7.5c0.6-8.8-0.99962-10.199-9.5996-8.7988zm-35.166 9.4258c1.1543-0.20293 2.2902 0.0871 3.3652 0.97461 13.2 11 15.4 40.6 4 55.1-6.1 7.7-13.399 1.8-19.699-16-4.725-13.125 4.2539-38.654 12.334-40.074zm35.879 22.262c-4.0625 0.3625-8.0137 4.2129-8.0137 11.213l-0.0996 6.5996h17.301l-0.5-8.0996c-0.45-6.95-4.625-10.075-8.6875-9.7129zm-54.139 17.299c0.9 0.0125 2.3254 1.8141 3.5254 5.4141 1.1 3.5 6.3 12.1 11.5 19.1 5.2 7 10.899 16.099 12.699 20.199 4.3 9.9 3.3012 13.8-1.2988 5.5996-2.1-3.6-6.6-9.9-10-14-6.6-7.9-14.901-23.3-16.801-31-0.9-3.55-0.525-5.325 0.375-5.3125zm105 4c0.625-0.5375 0.47578 0.71406-0.0742 3.4141-1.7 8.8-6.6004 18.299-15.4 29.799-4.3 5.6-8.6 12.3-9.5 14.9-1.7 4.5-4.8008 6.4996-4.8008 3.0996 0-5.5 6.4-18.9 12.5-25.9 3.9-4.5 9.6012-12.6 12.701-18 2.55-4.45 3.9492-6.775 4.5742-7.3125zm-51.975 13.514c-6.1 0.9-8.6992 6.4-6.1992 13 0.6 1.6 3.5992 2.4004 8.6992 2.4004h7.6992v-7.5c0-8.3-1.2992-9.3004-10.199-7.9004zm84.449 12.875c3.175-0.175 6.0508 0.22422 6.0508 1.3242 0 0.99999-1.4 2.8-3 4-5.9 4.4-15.7 1.5008-10.9-3.1992 1.2-1.2 4.6746-1.95 7.8496-2.125zm-168.35 0.82422c7.6 0 10.2 2.2 7 6-2.4 3-2.9988 3.0004-8.2988 0.40039-7-3.6-6.4012-6.4004 1.2988-6.4004zm162.49 13.951c1.0625-0.125 2.4625 0.34961 4.8125 1.3496 6.3 2.6 6.9992 5.1992 1.1992 5.1992-2.3 0-5.2996 0.4-6.5996 1-3.6 1.4-4.8992-1.6988-2.1992-5.2988 1-1.4 1.7246-2.125 2.7871-2.25zm-157.95 0.34961c3.3625-0.375 6.2641 0.85 5.6641 4-0.4 2.2-2.5008 3.1-7.8008 3.5-5.7 0.4-7.0008-4e-4 -6.3008-1.9004 1.25-3.25 5.075-5.2246 8.4375-5.5996zm89.764 4.2988-8.2012 0.5c-8.4 0.49999-11.599 5.9004-8.2988 14.4 0.7 1.8 2.9992 2.4 8.1992 2l7.3008-0.5 0.5-8.1992zm10.699 25.801c-6.1-0.1-3.2996 26.201 3.9004 36.801 4.8 7 4.8992 7.9996 1.1992 11.1-13.2 10.8-13.599 50.2-0.69922 64l3.5 3.6993-5.3008 11.201c-5.9 12.7-7.5996 30.598-3.0996 33.398 3 1.9 8.4004-2.7 8.4004-7 0-2 1.2004-3.0996 3.4004-3.0996 2.5 0 3.4004-1.1989 3.4004-4.2989 0-2.5 0.79961-4.1007 2.0996-3.8007s1.8992-1.1004 1.6992-3.4004c-0.3-2.8 0.49961-3.7989 3.0996-3.7989 2.7 0 3.2004-0.7004 2.4004-3.4004-1.3-3.9999 1.5012-4.3007 7.7012-0.8007 2.4 1.3 5.7992 2.5 7.6992 2.5 6.5 0.2 8.5996 2.7004 6.0996 7.4004-5 9.2999 4.1 15.301 15 9.8007 7.4-3.8 11.4-3.2011 13 1.7989 1.6 5.1 4.2012 3.8007 4.2012-2.1993 0-3.2999-1.5008-7-3.8008-9.5l-3.8008-4.0996 4.1016-3.1015c3.8-2.9 3.8984-3.0989 0.89844-4.7989-2.5-1.4-2.6996-2.3011-1.0996-4.2011 3.1-3.7 2.2996-26.898-0.90039-26.898-1.9 0-2.3 1.3-1.5 5.5 1.7 9.1-0.39923 10.6-10.699 8-11.2-2.9-14.399-0.4003-14.199 11.1 0.1 7-0.30078 7.7989-3.8008 7.7989-8.3 0-16.201-10.099-8.8008-11.199 4.9-0.7 5.6-2.4997 2-5.0997-3.2-2.3-2.8992-2.6996 2.3008-3.0996 3.9-0.2 3.9992-4.0011 0.19922-5.2011-4.6-1.5-4.4992-3.7004 0.30078-4.9004 3-0.8 3.3992-1.3996 1.6992-3.0996-1.2-1.2-2.0996-4.1-2.0996-6.5s-1.1992-6.0993-2.6992-8.1993c-2.4-3.4-2.4-3.9007 0-4.8007 1.6-0.6 2.6992-3.1 2.6992-6 0-2.7 0.80117-4.9004 1.7012-4.9004s1.6992-1.1996 1.6992-2.5996c0-1.4-1.1996-2.5996-2.5996-2.5996-2.9 0-3.5004-2.7008-0.90039-4.3008 2.9-1.8 1.9008-4.2988-1.6992-4.2988-2.8 0-3.2008-0.8004-2.3008-4.4004 0.9-3.5 0.4-4.5008-2.5-5.3008-6.2-1.7-2.4-6.2 8.5-10 9.9-3.4 10.399-3.1996 7.1992 3.4004-4 8.4 0.40157 15.501 8.6016 13.801 11.4-2.4 15.5-2.0004 16.1 1.5996 1.6 10 2.3004 11.801 3.9004 9.3008 2.6-4.1 1.7992-14.201-1.8008-21.201-4.1-8-4.3004-9.4004-0.90039-9.4004 4.1 0 2.9012-4.7984-1.2988-5.3984l-3.8008-0.5 4-4c4.4-4.4 7.3004-17.301 3.9004-17.301-1 0-1.9004 1.5004-1.9004 3.4004 0 5.4-7.3992 8-12.699 4.5-5-3.3-13.1-3.7008-16-0.80078-2.4 2.4-2.7008 9.2012-0.30078 10.701 5.1 3.1 1.6992 5.2992-19.301 12.199-2.6 0.8-2.8984 0.30038-1.8984-3.5996 1.1-4.2 0.89961-4.5004-3.4004-3.4004s-4.5004 0.90038-3.4004-3.5996c1-4 0.80039-4.6012-1.5996-3.7012-2.2 0.89999-2.8008 0.10116-2.8008-3.2988 0-3.6-0.60039-4.2-3.4004-3.5-2.8 0.8-3.3984 0.0988-3.3984-3.7012 0-4.9-2.7012-8.6992-6.2012-8.6992zm-47.838 1.9492c-1.5125 1.175-2.5625 3.4516-2.5625 6.3516 0 3.3-0.69883 3.9996-3.7988 3.5996s-3.7008 0.19883-3.3008 3.2988c0.4 2.6-0.29922 3.8008-2.1992 3.8008s-2.6012 1.2008-2.2012 3.8008c0.4 3.1-0.19883 3.6988-3.2988 3.2988-4.2-0.6-5.0008 1.3004-1.8008 4.4004 3.5 3.5 0.7996 3.5008-10.9-0.19922l-11.398-3.6016 1-7.1992c1.4-10.1-4.1016-13.001-15.102-7.8008-8.5 4-13.299 2.6016-13.299-3.8984 0-2.3-0.80117-4.2012-1.7012-4.2012-4.2 0-0.79843 15.801 4.1016 19.201 1.2 0.8 0.6 2.4-2 4.5-4.7 3.9-4.8004 5.1992-0.40039 5.1992 4.3 0 4.2988 0.69922-0.20117 6.6992-3.1 4.2-3.3984 6.2004-2.3984 14.4 1.3 10.4 4.3984 13.101 4.3984 3.8008 0-8.1 3.1-10.2 10.5-7.0996 9.4 3.9 14.202 0.49921 14.102-9.8008-0.2-9.4 5.1-11.1 13.5-4.5 5.9 4.6 5.7 6.0004-1 7.4004l-5.5 1.0996 8.5 6.5996h-4.7012c-3 0-4.6992 0.99961-4.6992 2.5996 0 1.4 1.1 2.6016 2.5 2.6016 4.1 0 4.9996 3.5996 1.0996 4.5996-2.7 0.7-3.2008 1.4996-1.8008 3.0996 1 1.2 1.4008 3.9992 0.80078 6.1992-0.7 2.7 0.19922 5.2004 2.6992 7.9004 3.3 3.5 3.4 4.1004 1 5.9004-1.4 1.1-2.9984 4.0007-3.3984 6.3007-0.5 2.3-1.3 5.5993-2 7.1993-0.8 2.1-0.30039 3 1.5996 3 3.2 0 3.4996 1.9007 0.59961 4.8007-1.7 1.7-1.3008 2.2996 1.6992 3.0996 4.1 1.1 5.0016 3.1004 2.1016 4.9004-2.6 1.5-0.3 4.1993 3.5 4.1993 7.5 0 2.4996 6.2007-8.4004 10.301l-8.8008 3.3985 1.0996-9.2989c1.3-10.8-2.2992-13.2-13.699-9.5-8.1 2.7-13 0.099-13-6.8007 0-2.8-0.79922-5.0996-1.6992-5.0996-3 0-1.8008 14.401 1.6992 21.301 3.3 6.4 2.6004 9.2985-2.0996 9.3985-2.9 0-1.1012 3.4004 1.7988 3.4004 5.2 0 5.5016 2.0011 1.1016 7.2011-2.4 2.8-4.2012 7.2-4.2012 10 0 5.9 2.0008 6.3996 4.3008 1.0996 2.1-4.6999 7.9996-5.7011 13.1-2.2011 9.2 6.4 16.001 1.7015 14.301-9.8985l-1.1016-7.5 6.5-1.1015c3.5-0.6 8.7004-2.2992 11.4-3.6992 5.5-2.9 7.6996-2.2 4.5996 1.5-2.4 2.8 0.20157 5.3007 4.1016 3.8007 2.9-1.1 5.0996 1.6993 2.5996 3.1993-3.2 2-1.8 4.3007 2.5 4.3007s5.7 2.2989 2.5 4.2989c-2.9 1.8-0.20039 4 3.5996 3 3.1-0.8 3.4-0.4004 2.5 2.5996-0.7 2.3 3.9e-4 4.8015 1.9004 7.1015 9.6 11.3 9.8996-20.701 0.0996-33.801-3.4-4.8-4.1996-10-1.5996-10s10.199-17.3 10.699-24.5c0.8-10.4-3.0988-9.5-4.2988 1-0.6 5-1.8008 9.2996-2.8008 9.5996-0.9 0.3-1.6992 1.5011-1.6992 2.7011 0 1.1-1.9016 3.7985-4.1016 5.8985l-4.0996 3.8008-3.5996-4.5c-15.2-19.2-15.701-39.199-1.3008-54.699 6.4-6.9 15.001 2 17.801 18.5 1.5 9.1 4.6996 7.6 4.0996-2-0.4-5.4-2.2996-10.301-6.5996-16.801l-6.0996-9.1992 4.6992-8.6016c5.9-10.9 7.9-29.9 3.5-33.5-1.85-1.5-3.8254-1.425-5.3379-0.25zm24.738 5.0508c-6.9 1-5.9004 15.5 1.0996 17 2.9 0.6 5.3004 1.1992 5.4004 1.1992 2.7 1.9 5.6992-3.0988 5.6992-9.2988 0-8-2.9992-10.2-12.199-8.9004zm-22.588 8.5508c0.6125 0.1 0.63867 2.1484-0.11133 6.1484-1.3 7.2-6.2016 15.901-13.102 23.301-2.6 2.8-5.6984 7.0004-6.8984 9.4004-5.5 10.9-8.2012 14.6-8.2012 11.5 0-5.2 10.3-25.4 16.6-32.4 3.2-3.7 7.0008-9.2004 8.3008-12.4 1.6-3.8 2.7996-5.6488 3.4121-5.5488zm48.25 1.0625c0.6625 0.5875 1.6879 2.3363 3.3379 5.4863 2.2 4.2 6.0992 10.001 8.6992 12.801 7.8 8.6 14.301 19.6 16.201 27.4 0.7 2.8 1.5996 6.4 2.0996 8 1.9 6.4-2.4992 2.4984-5.1992-4.6016-1.6-4.2-6.6016-12.398-11.102-18.398-10.2-13.5-15.899-24.401-15.199-29.201 0.2-1.5 0.49961-2.0738 1.1621-1.4863zm59.238 1.4863c4.6 1.1 5.0996 2.4004 2.0996 5.4004-3.4 3.4-11.6 2.6004-11.6-1.0996 0-4 3.9-5.7008 9.5-4.3008zm-163.9 0.5c3.9 0.1 5.9004 0.90039 5.9004 2.4004 0 4.5-4 6.0008-9 3.3008-6-3.1-4.6004-5.7012 3.0996-5.7012zm1.2617 14.326c1.7625 0.325 2.9375 1.5246 2.9375 3.4746 0 3.3-4.7988 5.5988-9.7988 4.7988-5-0.8-4.8996-3 0.40039-6.5 2.35-1.55 4.6984-2.0984 6.4609-1.7734zm158.14 0.375c3.8-1.2 12.6 3.6996 11.1 6.0996-1.1 1.7-11.601 2.0004-13.301 0.40039-2.2-2.2-1.0988-5.5 2.2012-6.5zm-85.201 7.5996v17h17.102v-17zm39.475 10.156c1.3894 0.133 2.8141 0.99414 4.2266 2.7441 12.1 15.1 14.9 29 8.5 42.5-8.5 18-12.4 18.699-21.5 3.6993-9.0125-15.138-0.95272-49.874 8.7734-48.943zm-29.975 22.143c-5.2 0-7.8 0.80117-8.5 2.7012-1.4 3.6-1.2984 11.799 0.10156 13.199 0.6 0.7 4.5 1.1996 8.5 1.0996h7.3984v-17zm-55.75 16.625c0.725-0.75 2.3004 0.9754 4.1504 5.7754 1.6 4.1 6.7996 12.701 11.6 19.301 4.8 6.6 10.2 15.4 12 19.5 4.1 9.5 3.4008 15.5-0.69922 6.5-1.7-3.3999-5.7992-9.4996-9.1992-13.6-9-10.7-14.2-19.5-16.9-28.4-1.55-5.0999-1.6762-8.3261-0.95117-9.0761zm105.06 2.664c0.8375-0.6375 0.83828 1.0614-0.0117 5.1114-1.6 7.4-9.8992 22.801-16.199 30.201-2.8 3.3-6.5016 8.7989-8.1016 12.299-2.4 5.1-5.5 8.5-5.5 6 0-5.9 6.7008-19.999 12.801-26.799 4.2-4.7 9.6-12.7 12-17.9 2.5-5.2999 4.1742-8.2746 5.0117-8.9121zm-58.012 14.012-0.5 8c-0.5 7.8999-0.50039 7.9 5.0996 8.5 10.6 1 11.901 0.1003 11.301-8.5997l-0.5-7.9003zm92.4 12.801c5.1 0 5.2988 2.3985 0.29883 5.8985-5.3 3.6-9.8988 3.3004-9.7988-0.5996 0-3.5 3.1-5.2989 9.5-5.2989zm-169.6 1.8985c5.1 0.4 7.2988 1.3015 7.2988 3.1015 0 3.4-7.6996 4.0996-11.6 1.0996-4.7-3.6999-3.4992-4.8011 4.3008-4.2011zm1.6738 14.312c2.55-0.9125 5.325-1.011 6.625 0.289 1.1 1.1 1.5004 3.0996 0.90039 4.5996-1.5 4-13.501 3.6993-12.801-0.3007 0.4-1.95 2.7254-3.6754 5.2754-4.5879zm164.75 0.8515c2.95 0.7625 5.5762 2.1371 5.5762 3.5371 0 0.9-3.5012 1.5-7.7012 1.5-7.9 0-9.5004-1.5003-5.4004-4.9003 1.3-1.05 4.5754-0.8993 7.5254-0.1368zm-90.025 3.336v7.4004c0 4.1 0.50117 7.8996 1.2012 8.5996s4.2992 1.0011 8.1992 0.7011l6.9004-0.5 0.5-8.0996 0.5-8.1015zm25.4 25.801c-3.3 4.8-0.49882 23.5 5.2012 34.5l5.2988 10.301-4.0996 4.3985c-13.5 14.3-12.601 50.3 1.6992 64.5 3 2.9 2.9012 3.2015-0.79883 8.6015-6.9 10-10.4 29.399-6.4004 35.799 2.6 4.2 9.5004 0.6 9.4004-4.5 0-1.6 1.5996-3.2989 3.5996-3.7989 2.8-0.7 3.3004-1.7015 2.4004-4.6015-1.1-3.2-0.70039-3.6 2.5996-2.5 3.5 1.1 3.6992 0.8011 2.6992-3.2989-0.9-3.6999-0.59961-4.4 1.9004-4 2.2 0.4 3.0004-0.5007 2.9004-3.3007-0.1-4.5-0.2996-4.5 10.4-1 4.6 1.5 9.4988 3.1004 10.799 3.4004 1.4 0.3 1.9008 1.8007 1.3008 3.3007-5.1 13.2 0.80079 18.7 13.301 12.5 8.4-4.2 12.499-3.6011 13.299 1.7989s3.9 5.0004 4.5-0.5996c0.4-3.2-0.79922-6.8997-3.1992-10.1l-3.8008-5.0996 4.0996-3.2011 4.1016-3.1993-3.9004-1.0996c-3.6-1-3.7012-1.3015-1.2012-4.1015 3.4-3.8 2.9004-25.698-0.59961-26.898-1.6-0.5-1.8992 0.7-1.1992 5 1.6 9.2-0.5004 10.8-10.9 8.0996-11.3-2.9-14.4-0.4011-14.4 11.299v7.9004l-5.2988-1.0996c-9.8-2-14.7-11.199-6-11.199 4 0 4.4988-3.1 0.79883-4.5-4-1.5-2.9988-4 1.7012-4 5.2 0 5.2984-1.1011 0.39844-5.2011-3.2-2.7-3.3984-3.2989-0.89844-3.2989 3.5-0.1 3.2996-9.7-0.40039-17.5-1.5-3.2-1.6004-5.3007-0.40039-6.8007 2.8-3.5 4.3996-15 2.0996-15-1.2 0-1.6004-1.6008-0.90039-4.3008 0.8-3.3 0.40078-4.2989-1.6992-4.2989-1.7 0-2.3992-0.9996-1.6992-2.5996 0.6-1.4 1.4996-3.7015 2.0996-5.1015 0.8-1.9-0.10039-2.5996-3.4004-2.5996-8.8 0-2.8992-6.7989 8.8008-10.299 8.9-2.6 9.8996-1.8011 6.0996 4.7989-4.4 7.6 0.40001 14.9 8.5 13 12.6-3 15.599-2.0996 16.199 4.9004 0.5 6.9999 2.7996 8.4007 4.5996 2.8007 1.5-4.9-0.39961-14.201-4.5996-21.201l-3.5-5.9004h3.5c4.8 0 6.3996-3.4996 2.0996-4.5996-4.2-1.1-4.5992-3.3993-1.1992-7.1993 3.2-3.5999 5.4008-15.5 2.8008-15.5-1.1 0-2.7016 1.8989-3.6016 4.2989-2.3 6.1-5.9988 7.0015-13.299 3.1015-10.8-5.7-20.001 0.5985-14.201 9.8985 2.8 4.5 2.5 6.6011-1 6.7011-2.7 0.1-9.6 2.3004-18 5.9004-2.6 1.1-2.8984 0.5993-1.8984-3.3007 1.1-4.3 0.9-4.5004-3.5-3.4004-4.2 1-4.5 0.8-3.5-2.5 0.9-2.9 0.39844-3.5996-2.6016-3.5996-3.1 0-3.4996-0.7008-2.5996-4.3008 0.9-3.5 0.39961-4.2989-2.4004-4.2989-2.4 0-3.3984-1.1-3.3984-4 0-5.5999-6.4012-11.4-8.7012-7.9003zm-39.984 1.207c-1.1844-1.5125-2.8656-1.6813-5.0156 0.094-1.5 1.2-2.6992 3.6985-2.6992 5.3985 0 1.9-1.7008 3.5011-4.3008 4.2011-4.7 1.2-5.1992 2.5-2.1992 5.5 1.6 1.5 1.1996 2-1.9004 2-3.3 0-3.7004 0.6001-2.9004 4 0.9 3.5 0.50078 3.8993-3.1992 3.1993-4.5-0.9-5.5012 1.0008-2.2012 4.3007 3.7 3.7 0.49999 3.7004-11-0.1l-11.398-3.8007 0.89844-6.0997c1.6-10.6-6.8992-15.2-16.199-8.5996-6 4.2-12.199 2.2-12.199-4 0-2.4-0.80117-4.3007-1.7012-4.3007-3.2 0-1.8992 13.7 1.8008 18.4l3.5 4.5-3.5 1.2989c-4 1.5-4.7004 4.8008-0.90039 4.8008 3.3 0 3.2996 1.8996 0.09961 6.0996-3.8 5-3 24.6 1 24.6 0.8 0 1.5-3.2 1.5-7v-7l10.701 1.2011c13.1 1.4 15.798-0.7 14.398-11-1.4-9.8999 4.7-10.801 14.5-2.2011 4.1 3.6 3.7 5.5-1 5.5-5.6 0-6.6984 1.8004-3.3984 5.4004 2.7 2.9 2.6992 3.0996-0.80078 3.0996-4.4 0-4.8992 4.3004-0.69922 5.9004 2.8 1.1 2.7996 1.3007 0.09961 2.8007-3.4 1.9-2.4008 11.799 1.6992 18.199 2.2 3.4 2.2004 4.2007-0.09961 6.8007-3.7 4.1-4.3992 13.699-1.1992 15.799 2.1 1.4 2.1992 1.9011 0.19922 3.2011-2.9 1.9-0.8 5.8997 2.5 4.5997 2.7-1.1 3.2992 3.3003 0.69922 4.9003-3.2 2-1.6988 4.2989 2.7012 4.2989 9.6 0-1.4012 9.9004-12.701 11.4l-7.1992 1 2.9004-5c6-10.4 2.4992-14.5-11.801-13.9l-12.299 0.5-0.90039-6.7989c-0.6-5.0999-1.0996-6.0011-2.0996-3.7011-2.3 5.4-1.4004 13.801 2.0996 20.701 1.9 3.7 3.4004 6.8 3.4004 7s-1.5004 0.6993-3.4004 1.1993-3.4004 1.7007-3.4004 2.8007 1.5004 1.9004 3.4004 1.9004 3.4004 0.8985 3.4004 1.8985-1.5004 3.8011-3.4004 6.2011c-3.5 4.5-4.9012 15.199-1.7012 13.299 0.9-0.6 1.7012-2.5985 1.7012-4.3985 0-4.2 7.3988-4.4 15.299-0.5 9.4 4.7 20.802-6.7015 12.102-12.102-3.5-2.1-1.6-4.1996 5.5-6.0996 4-1 9.3996-3.0004 12.1-4.4004 5.2-2.7 8.0988-1.8 4.7988 1.5-3.3 3.3-2.2996 5.2008 2.4004 4.3008 3.9-0.8 4.3004-0.4008 3.4004 3.1992-0.9 3.3-0.4 4.1015 2.5 4.1015 2.7 0 3.4 0.8989 3 3.7989-0.3 2.8 0.3 3.7996 2.5 3.5996 1.8-0.1 3 0.9015 3 2.6015 0 1.5 1.1992 4.5993 2.6992 6.6993 8.4 12 10.501-12.701 2.3008-29.301-5.4-11.3-6.1992-14.699-3.6992-14.699 12.1 0 14.599-46.8 3.2988-62.5l-5.0996-7.1993 4.5996-9.4004c6.15-12.525 7.0688-29.156 3.5156-33.693zm24.084 5.6933c-7.8-0.7-9.5 1.2004-9.5 10.4v6.3985l16.201-1v-15.299zm19.25 6.7364c0.9 0.4125 2.45 2.6625 4.25 6.5625 1.7 3.8 6.1012 10.401 9.7012 14.801 3.6 4.5 9.0004 12.5 11.9 18 3.2 5.9 5.0984 11.8 4.8984 14.5-0.5 4.2-1.1996 3.3996-6.0996-6.4004-3-6.1-8.0988-14-11.299-17.6-6.1-6.9-11.901-17.7-13.701-25.4-0.8-3.45-0.55039-4.8754 0.34961-4.4629zm-47.148 1.875c0.4-0.1625 0.59844 0.7379 0.89844 2.5879 0.9 5-4.6988 16.5-12.299 25.1-3.3 3.8-8.3 11.102-11 16.102-2.8 5.2-5.2012 8.0985-5.2012 6.3985-0.1-5.2 9.8016-24.999 16.602-33.299 3.6-4.3999 7.5984-10.3 8.8984-13.1 1.1-2.4 1.7016-3.6265 2.1016-3.789zm105.3 2.6875c7.6 0.6 8.6 1.8008 4.5 4.8008-5.4 3.9-11.5 3.0996-10.9-1.4004 0.4-3.3 1.4004-3.8004 6.4004-3.4004zm-162.8 0.3008c7.1 0 7.7988 0.3992 7.2988 3.6992-0.7 5.1-2.9996 5.4004-9.5996 1.4004-7.3-4.4-6.9992-5.0996 2.3008-5.0996zm0.5 13.6c3.1 0.1 5.7984 3.3007 4.8984 5.8007-0.8 1.9-3.1984 2.6993-8.3984 2.6993l-7.3008-0.1 4.8008-4.1993c2.7-2.3 5.3-4.2011 6-4.2011zm162.3 0.1c3.6 0 10.801 5.8004 9.2012 7.4004-2.2 2.2-12.6 1.0996-13.5-1.4004-1.3-3.3 0.59883-6 4.2988-6zm-86.1 7.6011-0.5 8c-0.5 7.9-0.50039 7.9993 5.0996 8.6993 3.1 0.4 6.1 0.8003 6.5 0.9003 3.2 0.9 5.3008-3.3996 4.8008-10.1l-0.5-7.5zm-28.545 10.467c1.2803-0.094 2.5441 0.3442 3.7441 1.4317 12.2 11 13.901 39.201 3.2012 54.201-5.5 7.7-12.401 2.6004-19.801-14.6-5.8625-13.562 3.8936-40.371 12.855-41.033zm67.049 0.1563c1.2781 0.042 2.5594 0.7504 3.7969 2.2754 15.3 18.9 15.898 40.601 1.3984 55.801-4.8 5-8.4 2.2999-15.5-11.5-7.4375-14.438 1.3578-46.867 10.305-46.576zm-32.404 22.377c-6.8 0.7-10.599 11.399-5.6992 16.299 4.9 4.8 15 0.1011 15.5-7.2989 0.7-8.8-0.50079-9.9-9.8008-9zm-53.1 15.6c1 0 1.8008 0.9993 1.8008 2.1993 0 3.3 6.4992 14.901 13.699 24.301 3.6 4.7 8.5 12.5 11 17.5 2.5 4.9 4.3 10.3 4 12-0.4 2.1-1.4 1.2004-3.5-3.0996-1.6-3.3-6.7996-10.801-11.6-16.701-11.4-14.1-20.8-36.199-15.4-36.199zm104.09 4.8125c1.2375-1.4625 1.8125-1.1628 1.8125 0.7872 0 5.1-9.9008 24.201-17.801 34.301-4.3 5.5-7.7988 10.9-7.7988 12.1s-1.2008 3.2-2.8008 4.5c-7.4 6.2 2.8004-18.9 11.4-28.1 2.7-2.9 6.9004-9.1007 9.4004-13.801 2.65-5.1 4.5496-8.3247 5.7871-9.7872zm-57.889 12.088v7.5c0 4.1 0.50156 7.9996 1.1016 8.5996s4.4996 1.0997 8.5996 1.0997h7.5l-0.5-8.0997-0.5-8.0996zm90.9 14.199c7.2-0.6 8.1996 1.6 2.5996 5.5-5.7 4-10.2 3.5003-9.5-1.0997 0.4-3.1 1.8004-4.0003 6.9004-4.4003zm-167.3 1.5996c5.1 0.4 7.2988 1.2996 7.2988 3.0996 0 3.1-7.2996 4.1015-11.6 1.6015-5.2-3.1-3.1992-5.2011 4.3008-4.7011zm2.6992 13.9c4.1-1 7.6 1.9004 6.5 5.4003-0.7 2.5-12.5 3.0993-14 0.6993-1.4-2.2 1.4-4.4996 7.5-6.0996zm155.7 0.1992c0-1.3 5.0008-0.6992 9.3008 1.3008 2.3 1.1 4.3008 2.6003 4.3008 3.4003s-3.6008 1.4004-7.8008 1.4004c-6.4 0-7.7008-0.5011-6.8008-2.7011 0.5-1.5 1-3.0004 1-3.4004zm-77.199 2.9004c-4.1 0.6-6.4996 10.001-4.0996 16.201 0.7 1.8 3.0992 2.3985 8.1992 1.8985l7.3008-0.5 0.5-8c0.5-8.7-2.2004-11-11.9-9.5996zm20 26.6c-3.5 2.1-0.20039 24.3 5.0996 34.5l5.0996 9.8008-4.5996 6.6992c-7 10.2-11.399 29.302-6.2988 27.602 1.2-0.4 2.6988-4.4007 3.2988-8.8007 2.2-14.9 11.101-23.2 16.301-15.1 1.7 2.6 3.6004 5.1993 4.4004 5.6993 7.7 5.5 9.3992 24.8 3.1992 37-10.4 20.6-20.5 16.501-24.9-10.299-1.4-8.8-4.2988-8.1-4.2988 1 0 7.5 6.2992 22.2 11.199 26 2.1 1.6 1.7008 3.3985-2.6992 11.898-5.2 10.1-7.6004 27.502-4.4004 32.602 2.9 4.8 9.6992 0.7992 9.6992-5.8007 0-2.5 1-3.7 3-3.5 2.1 0.2 2.8-0.9008 2.5-3.8008-0.4-3.3 0.20078-3.8992 2.8008-3.1992s3.1 0.1007 2.5-3.1993c-0.6-3.2-7.8e-4 -4.1015 2.6992-4.1015 4 0 4.2012-0.5992 1.7012-5.1992-2.2-4.2-1.4016-4.1004 6.8984 0.1 3.6 1.8 8.0012 3.4004 9.7012 3.4004 5.8 0.1 7.8996 2.6007 5.5996 6.8007-4.8 8.8 4.8992 15.7 14.199 10.1 7.5-4.5999 10.602-4.1011 13.102 1.7989 1.1 2.8 2.7996 4.7011 3.5996 4.2011 2.7-1.7 1.5004-10.4-2.0996-15l-3.6016-4.5 4-3.3007 4-3.2989-4-1.5c-3.6-1.3-3.6988-1.7011-1.2988-3.7011 3.3-2.6 4.0004-24.7 0.90039-26.6-3.4-2-5.5008 1.9996-3.3008 6.0996 3.5 6.6-0.90001 9.2-11 6.5-10.7-2.9-15.599 1.7008-13.699 12.801l1.0996 6.7989-5.5996-1.0996c-10.2-2-16.402-11.299-7.6016-11.299 4.7 0 5.7012-2.4 1.7012-4-4.1-1.6-3.0004-4.2007 2.0996-4.8007l4.6992-0.5-4.0996-3.8008c-3.6-3.3-3.7996-3.7989-1.0996-3.7989 2.4 0 2.8996-0.9007 2.0996-3.8007-0.6-2.1-1.0996-5.5993-1.0996-7.6993s-1.5004-5.3011-3.4004-7.2011c-3.2-3.3-3.1992-3.4996-0.19922-5.0996 4.6-2.4 6.0988-13.6 2.2988-16.5-1.8-1.4-2.0988-2.2989-0.79883-2.2989 3.7-0.1 2.4004-4.8007-1.5996-5.8007-3.6-1-3.6004-1.1993-0.90039-4.1993 3.3-3.7 2.1996-5.5-3.4004-5.5-6.4 0-4.5996-2.8 4.9004-7.5 13-6.4 15.799-6 12.199 1.5-3.9 8.1 0.40118 15.7 7.7012 13.6 11.7-3.2999 16.4-1.9996 17 4.9004s2.8996 8.4996 4.5996 3.0996c1.5-4.7999-0.8-15.501-4.5-20.801-4-5.8-4.0008-6.5996 0.19922-6.5996 1.9 0 3.4004-1.1997 3.4004-2.5997 0-1.5-1.5004-2.5996-3.4004-2.5996-4.3 0-4.1996-0.2008 0.90039-7.8007 4.4-6.5 5.3996-11.6 2.5996-13.4-0.9-0.6-2.0992 0.9007-2.6992 3.3007-1.5 6.1-7.3004 7.0997-14.9 2.5997-9.9-5.8-19.1 1.3-13.4 10.5 3.2 5.1 2.3996 5.8996-7.4004 8.0996-5.1 1.2-9.7988 2.8011-10.299 3.7011-0.6 0.9-2.1 1.5996-3.5 1.5996-2.1 0-1.9996-0.8 0.40039-4.5l2.8984-4.5-5.5 1.1993c-5.9 1.3-7.3988-1.3993-3.2988-5.6993 1.7-1.8 1.1004-2-3.5996-1-5.3 1.1-5.5008 0.8993-3.8008-2.3007 2.5-4.8 2.3004-5.4004-1.5996-5.4004-2.5 0-3.4004-1.1992-3.4004-4.1992 0-4.4-6.2-10.101-9-8.3008zm-42.301 0.4004c-1.1 0-3.2984 2.7-4.8984 6-1.6 3.2-3.8 5.7-5 5.5-1.4-0.3-2.0008 1.1004-1.8008 3.4004 0.3 2.5-0.50078 3.8007-2.3008 3.8007-2 0-2.3992 1-1.6992 4 0.9 3.6 0.49921 3.8993-3.3008 3.1993-4-0.7-4.1996-0.5008-2.5996 3.6992 2 5.3 0.50116 5.7015-7.2988 1.6015-3-1.6-7.8016-3.4-10.602-4-3.1-0.6-4.8996-2.0004-4.5996-3.4004 2.6-11.2 2.5004-11.8-2.0996-13.9-3.9-1.8-5.7-1.6-12 1.5-8 3.9-15.001 1.5007-13.301-4.6993 0.6-2.3 0.50039-2.3-1.0996 0-2.6 3.7-2.2988 11.1 0.70117 13.6 3.3 2.7 3.3 6.1004 0 7.4004-3.3 1.3-3.3 4.5 0 4.5 3.1 0 3.0984 1.5985-0.10156 5.8985-2.5 3.4-3.2984 14.1-1.3984 21 1.6 5.9 3.9992 4.5007 3.6992-2.1992-0.4-8.6 2.1-10.299 10-7.1993 11.3 4.5 17.4-1 15.1-13.5-1.1-5.9-0.99882-6.0004 3.7012-4.9004 10 2.3 18.198 11.199 10.398 11.199-6 0-6.9996 2.0004-2.5996 5.4004l3.9004 3h-4.6992c-5.2 0.1-6.0016 1.9992-2.1016 5.1992 2.3 1.9 2.3016 2.4015-0.39844 4.6015-2.2 1.7-2.4004 2.6989-0.90039 3.2989 1.3 0.5 1.6996 2.4 1.0996 5-0.7 2.5 7.83e-4 5.8 1.8008 8.5 2.5 3.8 2.5984 4.7004 0.39844 6.4004-3.8 3-4.9992 14.399-1.6992 16.199 1.8 1 1.9992 1.9011 0.69922 2.7011-2.9 1.8-2.1988 3.9989 1.7012 5.2989 2.6 0.8 3.0992 1.6 1.6992 3-2.9 2.9-2.1992 6.3008 1.3008 6.3008 7.7 0 5.2 5.5-4.5 9.5-5.7 2.4-12.301 3.2992-12.301 1.6992 0-0.4 0.80039-2.7 1.9004-5 4.8-10.7-2.1004-15.7-15.4-11.1-6.8 2.4-10.5-0.1993-10.5-7.1993 0-2.7-0.79922-4.9003-1.6992-4.9003-3.1 0-1.9008 15.901 1.6992 21.801 4.2 6.8 4.2 6.5993 0 7.6993-1.9 0.5-3.4004 1.7007-3.4004 2.8007s1.5004 1.8985 3.4004 1.8985c4.2 0 4.2 0.3012 0 7.2011-3.6 5.9-4.5992 15-1.6992 15 0.9 0 1.6992-1.4011 1.6992-3.2011 0-6.5 4.7-7.9985 12.5-3.8985 8 4.2 11.4 4.6993 14.4 1.6993 2.4-2.4 2.7008-10.9 0.30078-12.4-3.6-2.2-1.5008-4.0004 7.6992-6.9004 5.2-1.6 9.8008-3.5985 10.301-4.3985 2.3-3.6 5.8988-1.4 4.7988 3-1 4-0.7 4.2989 2.5 3.2989 3.1-1 3.5996-0.4996 3.5996 3.4004 0 3.4 0.70117 4.3 2.7012 3.5 2.3-0.8 2.4996-0.1008 1.5996 4.1992-1 4.9-0.80078 5.1015 3.1992 4.1015 3.8-1 4.2004-0.7 3.4004 2.5-0.6 2.2 0.19961 4.9 2.0996 7 8.3 9.2 9.8012-15.001 2.2012-31.201-5.6-11.5-5.7012-10.2 0.79883-19.6 11.5-16.8 8.8-50.1-5-61.4-2.1-1.7-1.9992-2.5989 0.80078-6.7989 10.3-15 12.199-39.701 3.1992-39.701zm17.5 6.9004v8.5996l0.10156 8.5996 16.199-1 1-16.199zm27.301 9.1992c0-2.6 3.3 0.3004 5.5 4.9004 1.5 3.1 6.4996 10.2 11.1 15.9 4.6 5.7 10.101 14.401 12.201 19.301s3.5992 11 3.1992 13.5l-0.5 4.5996-2-5.5996c-2.2-5.9-11.9-21.202-19.6-31.102-3.7-4.7-9.9004-18.2-9.9004-21.5zm-44.4 0.7011c0.1 6.3-4.5004 16.2-11.4 24.4-4.2 5-9.8 13.298-12.5 18.398-3.7 7.2-4.9 8.4004-5 5.4004-0.1-4.8 6.3-17.9 14-28.6 3-4.3 7.6012-11 10.201-14.9s4.6992-5.9993 4.6992-4.6993zm106.9 1.4004c5 1.2 5.3008 3.2993 0.80078 5.6993-5.4 2.9-10.401 2.1996-10.301-1.4004 0-4 3.9-5.6989 9.5-4.2989zm-164.8 0.5c5.7 0 6.9004 0.6 6.4004 3-0.7 3.5-6.1004 4.6-10.4 2-5-3-3.3-5 4-5zm161.8 13.799c4 0 10.8 4.9004 9.5996 6.9004-1.6 2.6-12.799 1.8996-13.799-0.9004-1.3-3.3 0.59922-6 4.1992-6zm-160.63 0.3632c1.85 0.2875 3.0254 1.5879 3.0254 3.8379 0 2.8-1.4012 3.5-7.2012 4-8.3 0.5-9.2984-1.4015-2.8984-5.6015 2.7-1.8 5.2242-2.5239 7.0742-2.2364zm74.625 7.2364-0.5 8.1015-0.5 8.0996h17.4l-0.5-8.0996-0.5-8.1015zm-29.303 9.7344c1.2254-0.1491 2.441 0.2035 3.6035 1.166 11.7 9.8 14.499 36.701 5.2988 52.301-6.8 11.6-12.699 7.8992-21.199-13.301-5.3375-13.475 3.7191-39.123 12.297-40.166zm41.303 22.566c-9-2.2-12.801 0.2996-12.801 8.5996 0 6.9 0.40117 7.5011 4.7012 8.2011 2.6 0.4 5.1988 0.8 5.7988 1 7.7 1.7 9.9008-15.901 2.3008-17.801zm-59.688 16.613c0.7625 0.2375 2.1879 2.5864 4.0879 6.9864 1.7 4 7.5004 13.301 12.9 20.801 9.8 13.6 11.4 16.499 13.5 25.199 1.6 6.7-1.3012 5.8-3.7012-1-1.2-3.2-5.2004-9.3-8.9004-13.5-8-9.1-16.4-24.399-18-32.799-0.75-4.05-0.64922-5.925 0.11328-5.6875zm106.09 5.4864c1 1.1-8.1996 22.2-10.1 23-0.7 0.3-1.3008 1.5011-1.3008 2.7011s-1.5996 3.5985-3.5996 5.3985-5.9012 7.3012-8.7012 12.201c-5.9 10.3-7.2992 11.2-5.6992 3.5 1.6-7.8999 7.1992-18.201 13.699-25.201 3-3.3 7.6012-9.6992 10.201-14.199 2.5-4.6 5-7.9004 5.5-7.4004zm-59.201 11.301v17h7.5c7.4 0 7.5016-4e-4 8.6016-6.9003 1.4-9 0.49999-10.1-8.5-10.1zm90.9 14c7.1-0.6 8.1008 1.1004 3.3008 5.4004-4.8 4.3-10.901 3.7-10.201-1 0.4-3.1 1.8004-4.0004 6.9004-4.4004zm-167.4 0.6993c4.7-0.2 5.7012 0.3996 6.2012 3.5996 0.7 4.6-8.0012 5.5011-11.701 1.2011-2.8-3.3999-1.5-4.5007 5.5-4.8007zm161 14.301c3.3 0 11.102 3.6993 11.102 5.1993 0 2.3-14 2.8-14.9 0.5-1.1-2.8 0.79883-5.6993 3.7988-5.6993zm-154.32 0.75c2.65 1 4.0742 3.3004 2.3242 6.1504-1.3 2.1-9.4988 1.8993-12.799-0.3007-2.2-1.4-2.1012-1.9993 0.79883-4.1993 3.15-2.35 7.0258-2.6504 9.6758-1.6504zm69.824 2.6504v17.1h7.4004c9.1 0 9.0012 0.099 8.2012-9.3007l-0.60156-7.7989z" fill="{{ border_color }}"/>
 <path d="m598.86 0 0.15234 119.02c0.31163 246.39 0.62493 348.56 0.98633 540.73h-11.357c-0.25716-213.55-0.81055-515.27-0.90039-659.75zm-29.875 0c0.1007 193.35 0.73274 473.63 0.94531 659.75h-4.2988c-0.15468-72.84-0.39724-293.95-0.51953-333.63-0.18818-73.202-0.30063-205.55-0.43945-326.12zm-131.47 2.3164c6.5 0 2.7012 27.7-5.2988 39l-4.1016 5.7012 5 5.1992c6.9 7.2 13.4 29.9 8 28.1-1.1-0.3-2.8984-4.3996-3.8984-9.0996-5.8-25.7-22.8-19.899-27.5 9.3008-4.4 27.4 21.9 41.499 27.5 14.699 0.5-2.8 1.3988-6.8004 1.7988-8.9004 1.3-6.4 4.0996-4.3 4.0996 3 0 8-3.1988 16.4-9.2988 24.4l-4.4004 5.6992 5.0996 9.8008c5.1 9.6 6.8996 23.3 4.0996 30.6-1.8 4.8-7.5 3.3004-8.5-2.0996-0.7-3.6-1.9984-5.0996-4.3984-5.0996-2.8 0-3.2004-0.79962-2.4004-4.0996 0.8-3.5 0.5-4.0012-2.5-3.2012-3.1 0.79999-3.3008 0.30116-2.3008-3.7988 1.1-4.2 0.90078-4.5004-2.6992-3.4004-3.6 1.2-3.8008 0.89882-2.8008-4.2012l1.0996-5.5-5.5996 3.3008c-3.1 1.8-8.4004 3.8-11.9 4.5-6.6 1.2-7.3996 2.6008-4.5996 7.8008 4.5 8.3-5.0988 13.7-15.299 8.5-7.4-3.8-11.501-3.1016-12.301 1.8984-0.9 5.5-3.9 4.4008-4.5-1.6992-0.4-4.1 0.60039-6.9004 3.4004-9.9004 3.8-4.1 2.7-7.3004-2.5-7.4004-2.2-0.1-0.30117-4.2988 1.7988-4.2988 3.3 0 3.9008-2.0012 1.3008-4.2012-3.8-3.1-3.8-27.299 0-27.299 2.1 0 2.3992 1.2 1.6992 5.5-1.5 8.6 0.90001 10.8 9 8.4004 12-3.6 15.701-1.0004 15.701 11.1v7.7988l5.5-1.0996c6.2-1.2 12.5-6.5992 10.9-9.1992-0.6-0.9-2.6-1.3008-4.5-0.80078-4.1 1.1-4.9004-4.1992-0.90039-5.6992 3.2-1.2 1.5004-4.1996-2.0996-3.5996-4.2 0.8-4.4012-3.4012-0.20117-4.7012 3.4-1.1 3.5996-1.3992 1.0996-3.1992-3.1-2.3-2.9988-11.6 0.20117-17.6 1.3-2.4 1.5-4.9008 0.5-6.8008-5-10-4.8012-21.5 0.29883-16.4 0.6 0.6 1.1016 0.1996 1.1016-0.90039 0-1.1-0.80117-2-1.7012-2s-1.6992-1.1996-1.6992-2.5996c0-1.4 1.1992-2.5996 2.6992-2.5996 1.9 0 2.3996-0.90001 1.5996-3-2.1-5.4-1.7988-6.3004 2.2012-6.9004 7.8-1.2-0.90001-8.3996-14-11.6-4.5-1.1-4.7996-0.9-3.5996 2 5.8 13.5 2.3984 18.999-10.102 16.199-11.7-2.6-15.7-0.0984-14 8.6016 0.9 4.7 0.80078 5-1.6992 3-3.4-2.8-2.2992-16.6 1.8008-22.4 3.4-4.8 3.3996-8.0996 0.0996-8.0996-3.9 0-3.0996-4.8004 0.90039-5.4004 3.4-0.5 3.2996-0.7004-0.90039-6.4004-4-5.5-5.9-13.699-3-13.699 0.7 0 2.1 1.6988 3 3.7988 2.1 4.7 7.9996 5.7012 13.1 2.2012 4.6-3.1 11.799-3.5016 14.699-0.60156 2.4 2.4 2.7008 9.2012 0.30078 10.701-3.8 2.4-1.0992 5.3992 7.3008 8.1992 5 1.7 10.3 3.5 12 4 2.4 0.79999 2.8996 0.19999 2.5996-3-0.3-3.4 0.29961-4 3.5996-3.5 3.4 0.5 3.8004-1e-5 2.9004-3-0.9-2.8-0.39961-3.5 2.4004-3.5 3 0 3.4-0.79884 2.5-4.2988-0.9-3.6-0.5-4.3008 2.5-4.3008 2.6 0 3.5996-1.0004 3.5996-3.9004 0-4.3 2.8992-8 6.1992-8zm41.832 1.1211c1.3312-1.2703 3.1688-1.2203 5.4688 0.67969 1.4 1.2 2.5 3.9992 2.5 6.1992 0 3 0.89961 4.0996 3.5996 4.0996 2.8-1e-5 3.3992 0.80039 2.6992 3.4004-0.7 2.6-0.1 3.4004 2.5 3.4004 2.8 0 3.2008 0.8 2.3008 4.5-0.9 3.7-0.60078 4.3004 1.6992 3.4004 4-1.5 6.4 0.50039 4 3.4004-3.4 4-0.29843 4.7992 6.6016 1.6992 5.6-2.5 9.7988-3.8008 14.299-4.3008 0.7-0.1 1.1004-3.7 0.90039-8-0.4-11.1 2.8-12.8 14-7.5996 9 4.2 14.8 2.5 13.5-4-0.3-1.3 0.29922-2.7 1.1992-3 3.5-1.1 2.9012 11-0.79883 16l-3.5996 4.9004 7.8984 6.5996-3.8984 0.0996c-3.7-1e-5 -3.8008 0.20078-1.3008 3.8008 2.9 4.3 3.6004 22.7 0.90039 26.9-1.8 2.9-2.2004 1.8992-2.4004-6.8008-0.2-6.5-2.2008-6.9992-15.801-4.1992-6.4 1.4-9.7984-3.0996-9.3984-12.6 0.3-8-0.50039-8.7016-7.4004-6.6016-8.7 2.7-13.1 9.8008-6.0996 9.8008 6.6 0 8.0992 2.6008 3.1992 5.3008l-3.9004 2.0996 4.0996 1c5.6 1.3 6.3 4.3988 1.5 5.7988-3.6 0.99999-3.6984 1.3004-0.89844 3.4004 3.3 2.5 3.9988 6.2012 1.2988 6.2012-1 0-0.89961 1.3996 0.40039 3.5996 1.7 2.9 1.7 3.8004 0 4.4004-1.1 0.4-2.0996 1.8992-2.0996 3.1992 0 1.3-0.9 2.4004-2 2.4004s-0.19961 1.7996 1.9004 4.0996c2.2 2.3 3.4996 5.2004 3.0996 6.4004s-0.10078 3.4996 0.69922 5.0996c1.1 2.1 0.6 3.5008-1.5 4.8008-2.2 1.4-2.4004 2.1988-0.90039 2.7988 3.4 1.4 2.4012 5.7012-1.2988 5.7012-3.6 0-4.6012 2.4988-1.7012 4.2988 2.9 1.8 1.8012 3.8-2.7988 5-6.1 1.5-1.6996 6.4996 8.9004 10.1 6.7 2.2 12 1.2 7.5996-1.5-9-5.5 0.89962-17.5 12.1-14.6 10.5 2.6 14.301 0.50077 12.801-7.1992-0.7-3.5-0.40039-4.7012 1.0996-4.2012 3.6 1.1 3.3992 12.402-0.30078 20.102-3.6 7.4-3.3992 10.1 0.80078 10.1 1.4 0 2.5 0.79922 2.5 1.6992 0 0.89999-1.3996 1.7012-3.0996 1.7012-5 0-5.6004 2-1.9004 6 3.9 4.1 6.5992 16.1 3.6992 16.1-1 0-2.1004-1.7008-2.4004-3.8008-0.7-4.9-8-5.9996-14-2.0996-8.7 5.7-13.9 2.9008-13.6-7.1992l0.20117-8.9004-9.6016-2.8008c-5.3-1.5-10.099-3.5992-10.799-4.6992-2-3.2-3.4996 0.0996-1.5996 3.5996 2.4 4.3 0.89883 5.5992-4.2012 3.6992-4.1-1.6-5.9004 0.40156-2.4004 2.6016 3.2 2 1.8004 4.2988-2.5996 4.2988-3.8 0-4.1 0.50039-2.5 3.4004 1.5 2.8 1.2 3.5004-2.5 4.4004-3 0.7-4.2988 2.1988-4.2988 4.7988 0 2.1-0.9 4.7008-2 5.8008-8.6 8.6-9.5012-15.3-1.2012-31.9l5.3008-10.699-3.4004-4.5c-12.7-17-14-52.1-2.4004-61.6 5.3-4.4 5.3012-6.5008 0.20117-17.301-6.3-13.275-6.8629-28.968-2.8691-32.779zm-23.631 5.9785c8.8-0.7 12.3 6.0004 8.5 15.9-0.8 1.9-2.3008 2.5004-4.8008 1.9004-1.9-0.5-5.3-1-7.5-1-8.1-0.1-4.4992-16.101 3.8008-16.801zm-20.15 7.7754c-0.55 0.425-1.5496 2.2762-3.3496 5.8262-2.2 4.3-7.8004 12.599-12.4 18.299-7.4 9.2-11.2 16.9-15.1 30.5-2.1 7.4 1.6984 3.5996 6.3984-6.4004 2.6-5.6 7.5008-13.299 10.801-17.299 7.8-9.2 14.301-22.201 14.301-28.201 0-2.15-0.10039-3.1496-0.65039-2.7246zm47.949 2.4121c-0.275 0.0625-0.44883 1.0141-0.79883 2.9141-0.7 4 4.5996 15.799 9.0996 20.299 1.4 1.3 4.3988 4.9996 6.7988 8.0996 2.4 3.1 6.2004 9.3 8.4004 14 2.3 4.5 4.2012 6.9008 4.2012 5.3008 0.2-6-7.2004-21.3-15.9-32.9-4.9-6.5-9.6004-13.399-10.4-15.299-0.75-1.65-1.1254-2.4766-1.4004-2.4141zm-105.3 1.5137c-7.1 0-8.3008 1.2988-4.8008 4.7988 3.6 3.5 11.6 2.5016 11.6-1.3984 0-2.8-1.0988-3.4004-6.7988-3.4004zm159.1 0.65039c-2.4 0.425-3.75 1.55-3.5 3.25 0.7 4.9 5 5.4984 10 1.3984 2.3-1.9 3.7988-3.5992 3.2988-3.6992-3.95-1.1-7.3988-1.3742-9.7988-0.94922zm-0.0254 13.812c-1.4 0.4125-2.0742 1.7867-2.0742 4.1367 0 2.4 1.5988 3.3008 6.7988 3.8008 8.4 0.8 9.2012-2.4008 1.7012-6.3008-2.9-1.5-5.0258-2.0492-6.4258-1.6367zm-156.57 0.23633c-3.3-1.3-13.201 3.6008-11.801 5.8008 1.1 1.9 11.601 2.3 13.301 0.5 2-2 1.2-5.2008-1.5-6.3008zm77.299 7.3008c6.5 1.1 9.3 7.5004 6.5 14.9-0.6 1.7-2.9988 2.2984-8.2988 1.8984l-7.3008-0.5-0.5-7.5c-0.6-8.8 0.99962-10.199 9.5996-8.7988zm35.166 9.4258c-1.1543-0.20293-2.2902 0.0871-3.3652 0.97461-13.2 11-15.4 40.6-4 55.1 6.1 7.7 13.399 1.8 19.699-16 4.725-13.125-4.2539-38.654-12.334-40.074zm-35.879 22.262c4.0625 0.3625 8.0137 4.2129 8.0137 11.213l0.0996 6.5996h-17.301l0.5-8.0996c0.45-6.95 4.625-10.075 8.6875-9.7129zm54.139 17.299c-0.9 0.0125-2.3254 1.8141-3.5254 5.4141-1.1 3.5-6.3 12.1-11.5 19.1-5.2 7-10.899 16.099-12.699 20.199-4.3 9.9-3.3012 13.8 1.2988 5.5996 2.1-3.6 6.6-9.9 10-14 6.6-7.9 14.901-23.3 16.801-31 0.9-3.55 0.525-5.325-0.375-5.3125zm-105 4c-0.625-0.5375-0.47578 0.71406 0.0742 3.4141 1.7 8.8 6.6004 18.299 15.4 29.799 4.3 5.6 8.6 12.3 9.5 14.9 1.7 4.5 4.8008 6.4996 4.8008 3.0996 0-5.5-6.4-18.9-12.5-25.9-3.9-4.5-9.6012-12.6-12.701-18-2.55-4.45-3.9492-6.775-4.5742-7.3125zm51.975 13.514c6.1 0.9 8.6992 6.4 6.1992 13-0.6 1.6-3.5992 2.4004-8.6992 2.4004h-7.6992v-7.5c0-8.3 1.2992-9.3004 10.199-7.9004zm-84.449 12.875c-3.175-0.175-6.0508 0.22422-6.0508 1.3242 0 0.99999 1.4 2.8 3 4 5.9 4.4 15.7 1.5008 10.9-3.1992-1.2-1.2-4.6746-1.95-7.8496-2.125zm168.35 0.82422c-7.6 0-10.2 2.2-7 6 2.4 3 2.9988 3.0004 8.2988 0.40039 7-3.6 6.4012-6.4004-1.2988-6.4004zm-162.49 13.951c-1.0625-0.125-2.4625 0.34961-4.8125 1.3496-6.3 2.6-6.9992 5.1992-1.1992 5.1992 2.3 0 5.2996 0.4 6.5996 1 3.6 1.4 4.8992-1.6988 2.1992-5.2988-1-1.4-1.7246-2.125-2.7871-2.25zm157.95 0.34961c-3.3625-0.375-6.2641 0.85-5.6641 4 0.4 2.2 2.5008 3.1 7.8008 3.5 5.7 0.4 7.0008-4e-4 6.3008-1.9004-1.25-3.25-5.075-5.2246-8.4375-5.5996zm-89.764 4.2988 8.2012 0.5c8.4 0.49999 11.599 5.9004 8.2988 14.4-0.7 1.8-2.9992 2.4-8.1992 2l-7.3008-0.5-0.5-8.1992zm-10.699 25.801c6.1-0.1 3.2996 26.201-3.9004 36.801-4.8 7-4.8992 7.9996-1.1992 11.1 13.2 10.8 13.599 50.2 0.69922 64l-3.5 3.6993 5.3008 11.201c5.9 12.7 7.5996 30.598 3.0996 33.398-3 1.9-8.4004-2.7-8.4004-7 0-2-1.2004-3.0996-3.4004-3.0996-2.5 0-3.4004-1.1989-3.4004-4.2989 0-2.5-0.79961-4.1007-2.0996-3.8007s-1.8992-1.1004-1.6992-3.4004c0.3-2.8-0.49961-3.7989-3.0996-3.7989-2.7 0-3.2004-0.7004-2.4004-3.4004 1.3-3.9999-1.5012-4.3007-7.7012-0.8007-2.4 1.3-5.7992 2.5-7.6992 2.5-6.5 0.2-8.5996 2.7004-6.0996 7.4004 5 9.2999-4.1 15.301-15 9.8007-7.4-3.8-11.4-3.2011-13 1.7989-1.6 5.1-4.2012 3.8007-4.2012-2.1993 0-3.2999 1.5008-7 3.8008-9.5l3.8008-4.0996-4.1016-3.1015c-3.8-2.9-3.8984-3.0989-0.89844-4.7989 2.5-1.4 2.6996-2.3011 1.0996-4.2011-3.1-3.7-2.2996-26.898 0.90039-26.898 1.9 0 2.3 1.3 1.5 5.5-1.7 9.1 0.39923 10.6 10.699 8 11.2-2.9 14.399-0.4003 14.199 11.1-0.1 7 0.30078 7.7989 3.8008 7.7989 8.3 0 16.201-10.099 8.8008-11.199-4.9-0.7-5.6-2.4997-2-5.0997 3.2-2.3 2.8992-2.6996-2.3008-3.0996-3.9-0.2-3.9992-4.0011-0.19922-5.2011 4.6-1.5 4.4992-3.7004-0.30078-4.9004-3-0.8-3.3992-1.3996-1.6992-3.0996 1.2-1.2 2.0996-4.1 2.0996-6.5s1.1992-6.0993 2.6992-8.1993c2.4-3.4 2.4-3.9007 0-4.8007-1.6-0.6-2.6992-3.1-2.6992-6 0-2.7-0.80117-4.9004-1.7012-4.9004s-1.6992-1.1996-1.6992-2.5996c0-1.4 1.1996-2.5996 2.5996-2.5996 2.9 0 3.5004-2.7008 0.90039-4.3008-2.9-1.8-1.9008-4.2988 1.6992-4.2988 2.8 0 3.2008-0.8004 2.3008-4.4004-0.9-3.5-0.4-4.5008 2.5-5.3008 6.2-1.7 2.4-6.2-8.5-10-9.9-3.4-10.399-3.1996-7.1992 3.4004 4 8.4-0.40157 15.501-8.6016 13.801-11.4-2.4-15.5-2.0004-16.1 1.5996-1.6 10-2.3004 11.801-3.9004 9.3008-2.6-4.1-1.7992-14.201 1.8008-21.201 4.1-8 4.3004-9.4004 0.90039-9.4004-4.1 0-2.9012-4.7984 1.2988-5.3984l3.8008-0.5-4-4c-4.4-4.4-7.3004-17.301-3.9004-17.301 1 0 1.9004 1.5004 1.9004 3.4004 0 5.4 7.3992 8 12.699 4.5 5-3.3 13.1-3.7008 16-0.80078 2.4 2.4 2.7008 9.2012 0.30078 10.701-5.1 3.1-1.6992 5.2992 19.301 12.199 2.6 0.8 2.8984 0.30038 1.8984-3.5996-1.1-4.2-0.89961-4.5004 3.4004-3.4004s4.5004 0.90038 3.4004-3.5996c-1-4-0.80039-4.6012 1.5996-3.7012 2.2 0.89999 2.8008 0.10116 2.8008-3.2988 0-3.6 0.60039-4.2 3.4004-3.5 2.8 0.8 3.3984 0.0988 3.3984-3.7012 0-4.9 2.7012-8.6992 6.2012-8.6992zm47.838 1.9492c1.5125 1.175 2.5625 3.4516 2.5625 6.3516 0 3.3 0.69883 3.9996 3.7988 3.5996s3.7008 0.19883 3.3008 3.2988c-0.4 2.6 0.29922 3.8008 2.1992 3.8008s2.6012 1.2008 2.2012 3.8008c-0.4 3.1 0.19883 3.6988 3.2988 3.2988 4.2-0.6 5.0008 1.3004 1.8008 4.4004-3.5 3.5-0.7996 3.5008 10.9-0.19922l11.398-3.6016-1-7.1992c-1.4-10.1 4.1016-13.001 15.102-7.8008 8.5 4 13.299 2.6016 13.299-3.8984 0-2.3 0.80117-4.2012 1.7012-4.2012 4.2 0 0.79844 15.801-4.1016 19.201-1.2 0.8-0.6 2.4 2 4.5 4.7 3.9 4.8004 5.1992 0.40039 5.1992-4.3 0-4.2988 0.69922 0.20117 6.6992 3.1 4.2 3.3984 6.2004 2.3984 14.4-1.3 10.4-4.3984 13.101-4.3984 3.8008 0-8.1-3.1-10.2-10.5-7.0996-9.4 3.9-14.202 0.49921-14.102-9.8008 0.2-9.4-5.1-11.1-13.5-4.5-5.9 4.6-5.7 6.0004 1 7.4004l5.5 1.0996-8.5 6.5996h4.7012c3 0 4.6992 0.99961 4.6992 2.5996 0 1.4-1.1 2.6016-2.5 2.6016-4.1 0-4.9996 3.5996-1.0996 4.5996 2.7 0.7 3.2008 1.4996 1.8008 3.0996-1 1.2-1.4008 3.9992-0.80078 6.1992 0.7 2.7-0.19922 5.2004-2.6992 7.9004-3.3 3.5-3.4 4.1004-1 5.9004 1.4 1.1 2.9984 4.0007 3.3984 6.3007 0.5 2.3 1.3 5.5993 2 7.1993 0.8 2.1 0.30039 3-1.5996 3-3.2 0-3.4996 1.9007-0.59961 4.8007 1.7 1.7 1.3008 2.2996-1.6992 3.0996-4.1 1.1-5.0016 3.1004-2.1016 4.9004 2.6 1.5 0.3 4.1993-3.5 4.1993-7.5 0-2.4996 6.2007 8.4004 10.301l8.8008 3.3985-1.0996-9.2989c-1.3-10.8 2.2992-13.2 13.699-9.5 8.1 2.7 13 0.099 13-6.8007 0-2.8 0.79922-5.0996 1.6992-5.0996 3 0 1.8008 14.401-1.6992 21.301-3.3 6.4-2.6004 9.2985 2.0996 9.3985 2.9 0 1.1012 3.4004-1.7988 3.4004-5.2 0-5.5016 2.0011-1.1016 7.2011 2.4 2.8 4.2012 7.2 4.2012 10 0 5.9-2.0008 6.3996-4.3008 1.0996-2.1-4.6999-7.9996-5.7011-13.1-2.2011-9.2 6.4-16.001 1.7015-14.301-9.8985l1.1016-7.5-6.5-1.1015c-3.5-0.6-8.7004-2.2992-11.4-3.6992-5.5-2.9-7.6996-2.2-4.5996 1.5 2.4 2.8-0.20157 5.3007-4.1016 3.8007-2.9-1.1-5.0996 1.6993-2.5996 3.1993 3.2 2 1.8 4.3007-2.5 4.3007s-5.7 2.2989-2.5 4.2989c2.9 1.8 0.20039 4-3.5996 3-3.1-0.8-3.4-0.4004-2.5 2.5996 0.7 2.3-3.9e-4 4.8015-1.9004 7.1015-9.6 11.3-9.8996-20.701-0.0996-33.801 3.4-4.8 4.1996-10 1.5996-10s-10.199-17.3-10.699-24.5c-0.8-10.4 3.0988-9.5 4.2988 1 0.6 5 1.8008 9.2996 2.8008 9.5996 0.9 0.3 1.6992 1.5011 1.6992 2.7011 0 1.1 1.9016 3.7985 4.1016 5.8985l4.0996 3.8008 3.5996-4.5c15.2-19.2 15.701-39.199 1.3008-54.699-6.4-6.9-15.001 2-17.801 18.5-1.5 9.1-4.6996 7.6-4.0996-2 0.4-5.4 2.2996-10.301 6.5996-16.801l6.0996-9.1992-4.6992-8.6016c-5.9-10.9-7.9-29.9-3.5-33.5 1.85-1.5 3.8254-1.425 5.3379-0.25zm-24.738 5.0508c6.9 1 5.9004 15.5-1.0996 17-2.9 0.6-5.3004 1.1992-5.4004 1.1992-2.7 1.9-5.6992-3.0988-5.6992-9.2988 0-8 2.9992-10.2 12.199-8.9004zm22.588 8.5508c-0.6125 0.1-0.63867 2.1484 0.11133 6.1484 1.3 7.2 6.2016 15.901 13.102 23.301 2.6 2.8 5.6984 7.0004 6.8984 9.4004 5.5 10.9 8.2012 14.6 8.2012 11.5 0-5.2-10.3-25.4-16.6-32.4-3.2-3.7-7.0008-9.2004-8.3008-12.4-1.6-3.8-2.7996-5.6488-3.4121-5.5488zm-48.25 1.0625c-0.6625 0.5875-1.6879 2.3363-3.3379 5.4863-2.2 4.2-6.0992 10.001-8.6992 12.801-7.8 8.6-14.301 19.6-16.201 27.4-0.7 2.8-1.5996 6.4-2.0996 8-1.9 6.4 2.4992 2.4984 5.1992-4.6016 1.6-4.2 6.6016-12.398 11.102-18.398 10.2-13.5 15.899-24.401 15.199-29.201-0.2-1.5-0.49961-2.0738-1.1621-1.4863zm-59.238 1.4863c-4.6 1.1-5.0996 2.4004-2.0996 5.4004 3.4 3.4 11.6 2.6004 11.6-1.0996 0-4-3.9-5.7008-9.5-4.3008zm163.9 0.5c-3.9 0.1-5.9004 0.90039-5.9004 2.4004 0 4.5 4 6.0008 9 3.3008 6-3.1 4.6004-5.7012-3.0996-5.7012zm-1.2617 14.326c-1.7625 0.325-2.9375 1.5246-2.9375 3.4746 0 3.3 4.7988 5.5988 9.7988 4.7988 5-0.8 4.8996-3-0.40039-6.5-2.35-1.55-4.6984-2.0984-6.4609-1.7734zm-158.14 0.375c-3.8-1.2-12.6 3.6996-11.1 6.0996 1.1 1.7 11.601 2.0004 13.301 0.40039 2.2-2.2 1.0988-5.5-2.2012-6.5zm85.201 7.5996v17h-17.102v-17zm-39.475 10.156c-1.3894 0.133-2.8141 0.99414-4.2266 2.7441-12.1 15.1-14.9 29-8.5 42.5 8.5 18 12.4 18.699 21.5 3.6993 9.0125-15.138 0.95272-49.874-8.7734-48.943zm29.975 22.143c5.2 0 7.8 0.80117 8.5 2.7012 1.4 3.6 1.2984 11.799-0.10156 13.199-0.6 0.7-4.5 1.1996-8.5 1.0996h-7.3984v-17zm55.75 16.625c-0.725-0.75-2.3004 0.9754-4.1504 5.7754-1.6 4.1-6.7996 12.701-11.6 19.301-4.8 6.6-10.2 15.4-12 19.5-4.1 9.5-3.4008 15.5 0.69922 6.5 1.7-3.3999 5.7992-9.4996 9.1992-13.6 9-10.7 14.2-19.5 16.9-28.4 1.55-5.0999 1.6762-8.3261 0.95117-9.0761zm-105.06 2.664c-0.8375-0.6375-0.83828 1.0614 0.0117 5.1114 1.6 7.4 9.8992 22.801 16.199 30.201 2.8 3.3 6.5016 8.7989 8.1016 12.299 2.4 5.1 5.5 8.5 5.5 6 0-5.9-6.7008-19.999-12.801-26.799-4.2-4.7-9.6-12.7-12-17.9-2.5-5.2999-4.1742-8.2746-5.0117-8.9121zm58.012 14.012 0.5 8c0.5 7.8999 0.50039 7.9-5.0996 8.5-10.6 1-11.901 0.1003-11.301-8.5997l0.5-7.9003zm-92.4 12.801c-5.1 0-5.2988 2.3985-0.29883 5.8985 5.3 3.6 9.8988 3.3004 9.7988-0.5996 0-3.5-3.1-5.2989-9.5-5.2989zm169.6 1.8985c-5.1 0.4-7.2988 1.3015-7.2988 3.1015 0 3.4 7.6996 4.0996 11.6 1.0996 4.7-3.6999 3.4992-4.8011-4.3008-4.2011zm-1.6738 14.312c-2.55-0.9125-5.325-1.011-6.625 0.289-1.1 1.1-1.5004 3.0996-0.90039 4.5996 1.5 4 13.501 3.6993 12.801-0.3007-0.4-1.95-2.7254-3.6754-5.2754-4.5879zm-164.75 0.8515c-2.95 0.7625-5.5762 2.1371-5.5762 3.5371 0 0.9 3.5012 1.5 7.7012 1.5 7.9 0 9.5004-1.5003 5.4004-4.9003-1.3-1.05-4.5754-0.8993-7.5254-0.1368zm90.025 3.336v7.4004c0 4.1-0.50117 7.8996-1.2012 8.5996s-4.2992 1.0011-8.1992 0.7011l-6.9004-0.5-0.5-8.0996-0.5-8.1015zm-25.4 25.801c3.3 4.8 0.49882 23.5-5.2012 34.5l-5.2988 10.301 4.0996 4.3985c13.5 14.3 12.601 50.3-1.6992 64.5-3 2.9-2.9012 3.2015 0.79883 8.6015 6.9 10 10.4 29.399 6.4004 35.799-2.6 4.2-9.5004 0.6-9.4004-4.5 0-1.6-1.5996-3.2989-3.5996-3.7989-2.8-0.7-3.3004-1.7015-2.4004-4.6015 1.1-3.2 0.70039-3.6-2.5996-2.5-3.5 1.1-3.6992 0.8011-2.6992-3.2989 0.9-3.6999 0.59961-4.4-1.9004-4-2.2 0.4-3.0004-0.5007-2.9004-3.3007 0.1-4.5 0.2996-4.5-10.4-1-4.6 1.5-9.4988 3.1004-10.799 3.4004-1.4 0.3-1.9008 1.8007-1.3008 3.3007 5.1 13.2-0.80079 18.7-13.301 12.5-8.4-4.2-12.499-3.6011-13.299 1.7989s-3.9 5.0004-4.5-0.5996c-0.4-3.2 0.79922-6.8997 3.1992-10.1l3.8008-5.0996-4.0996-3.2011-4.1016-3.1993 3.9004-1.0996c3.6-1 3.7012-1.3015 1.2012-4.1015-3.4-3.8-2.9004-25.698 0.59961-26.898 1.6-0.5 1.8992 0.7 1.1992 5-1.6 9.2 0.5004 10.8 10.9 8.0996 11.3-2.9 14.4-0.4011 14.4 11.299v7.9004l5.2988-1.0996c9.8-2 14.7-11.199 6-11.199-4 0-4.4988-3.1-0.79883-4.5 4-1.5 2.9988-4-1.7012-4-5.2 0-5.2984-1.1011-0.39844-5.2011 3.2-2.7 3.3984-3.2989 0.89844-3.2989-3.5-0.1-3.2996-9.7 0.40039-17.5 1.5-3.2 1.6004-5.3007 0.40039-6.8007-2.8-3.5-4.3996-15-2.0996-15 1.2 0 1.6004-1.6008 0.90039-4.3008-0.8-3.3-0.40078-4.2989 1.6992-4.2989 1.7 0 2.3992-0.9996 1.6992-2.5996-0.6-1.4-1.4996-3.7015-2.0996-5.1015-0.8-1.9 0.10039-2.5996 3.4004-2.5996 8.8 0 2.8992-6.7989-8.8008-10.299-8.9-2.6-9.8996-1.8011-6.0996 4.7989 4.4 7.6-0.40001 14.9-8.5 13-12.6-3-15.599-2.0996-16.199 4.9004-0.5 6.9999-2.7996 8.4007-4.5996 2.8007-1.5-4.9 0.39961-14.201 4.5996-21.201l3.5-5.9004h-3.5c-4.8 0-6.3996-3.4996-2.0996-4.5996 4.2-1.1 4.5992-3.3993 1.1992-7.1993-3.2-3.5999-5.4008-15.5-2.8008-15.5 1.1 0 2.7016 1.8989 3.6016 4.2989 2.3 6.1 5.9988 7.0015 13.299 3.1015 10.8-5.7 20.001 0.5985 14.201 9.8985-2.8 4.5-2.5 6.6011 1 6.7011 2.7 0.1 9.6 2.3004 18 5.9004 2.6 1.1 2.8984 0.5993 1.8984-3.3007-1.1-4.3-0.9-4.5004 3.5-3.4004 4.2 1 4.5 0.8 3.5-2.5-0.9-2.9-0.39844-3.5996 2.6016-3.5996 3.1 0 3.4996-0.7008 2.5996-4.3008-0.9-3.5-0.39961-4.2989 2.4004-4.2989 2.4 0 3.3984-1.1 3.3984-4 0-5.5999 6.4012-11.4 8.7012-7.9003zm39.984 1.207c1.1844-1.5125 2.8656-1.6813 5.0156 0.094 1.5 1.2 2.6992 3.6985 2.6992 5.3985 0 1.9 1.7008 3.5011 4.3008 4.2011 4.7 1.2 5.1992 2.5 2.1992 5.5-1.6 1.5-1.1996 2 1.9004 2 3.3 0 3.7004 0.6001 2.9004 4-0.9 3.5-0.50078 3.8993 3.1992 3.1993 4.5-0.9 5.5012 1.0008 2.2012 4.3007-3.7 3.7-0.49999 3.7004 11-0.1l11.398-3.8007-0.89844-6.0997c-1.6-10.6 6.8992-15.2 16.199-8.5996 6 4.2 12.199 2.2 12.199-4 0-2.4 0.80117-4.3007 1.7012-4.3007 3.2 0 1.8992 13.7-1.8008 18.4l-3.5 4.5 3.5 1.2989c4 1.5 4.7004 4.8008 0.90039 4.8008-3.3 0-3.2996 1.8996-0.0996 6.0996 3.8 5 3 24.6-1 24.6-0.8 0-1.5-3.2-1.5-7v-7l-10.701 1.2011c-13.1 1.4-15.798-0.7-14.398-11 1.4-9.8999-4.7-10.801-14.5-2.2011-4.1 3.6-3.7 5.5 1 5.5 5.6 0 6.6984 1.8004 3.3984 5.4004-2.7 2.9-2.6992 3.0996 0.80078 3.0996 4.4 0 4.8992 4.3004 0.69922 5.9004-2.8 1.1-2.7996 1.3007-0.0996 2.8007 3.4 1.9 2.4008 11.799-1.6992 18.199-2.2 3.4-2.2004 4.2007 0.0996 6.8007 3.7 4.1 4.3992 13.699 1.1992 15.799-2.1 1.4-2.1992 1.9011-0.19922 3.2011 2.9 1.9 0.8 5.8997-2.5 4.5997-2.7-1.1-3.2992 3.3003-0.69922 4.9003 3.2 2 1.6988 4.2989-2.7012 4.2989-9.6 0 1.4012 9.9004 12.701 11.4l7.1992 1-2.9004-5c-6-10.4-2.4992-14.5 11.801-13.9l12.299 0.5 0.90039-6.7989c0.6-5.0999 1.0996-6.0011 2.0996-3.7011 2.3 5.4 1.4004 13.801-2.0996 20.701-1.9 3.7-3.4004 6.8-3.4004 7s1.5004 0.6993 3.4004 1.1993 3.4004 1.7007 3.4004 2.8007-1.5004 1.9004-3.4004 1.9004-3.4004 0.8985-3.4004 1.8985 1.5004 3.8011 3.4004 6.2011c3.5 4.5 4.9012 15.199 1.7012 13.299-0.9-0.6-1.7012-2.5985-1.7012-4.3985 0-4.2-7.3988-4.4-15.299-0.5-9.4 4.7-20.802-6.7015-12.102-12.102 3.5-2.1 1.6-4.1996-5.5-6.0996-4-1-9.3996-3.0004-12.1-4.4004-5.2-2.7-8.0988-1.8-4.7988 1.5s2.2996 5.2008-2.4004 4.3008c-3.9-0.8-4.3004-0.4008-3.4004 3.1992 0.9 3.3 0.4 4.1015-2.5 4.1015-2.7 0-3.4 0.8989-3 3.7989 0.3 2.8-0.3 3.7996-2.5 3.5996-1.8-0.1-3 0.9015-3 2.6015 0 1.5-1.1992 4.5993-2.6992 6.6993-8.4 12-10.501-12.701-2.3008-29.301 5.4-11.3 6.1992-14.699 3.6992-14.699-12.1 0-14.599-46.8-3.2988-62.5l5.0996-7.1993-4.5996-9.4004c-6.15-12.525-7.0688-29.156-3.5156-33.693zm-24.084 5.6933c7.8-0.7 9.5 1.2004 9.5 10.4v6.3985l-16.201-1v-15.299zm-19.25 6.7364c-0.9 0.4125-2.45 2.6625-4.25 6.5625-1.7 3.8-6.1012 10.401-9.7012 14.801-3.6 4.5-9.0004 12.5-11.9 18-3.2 5.9-5.0984 11.8-4.8984 14.5 0.5 4.2 1.1996 3.3996 6.0996-6.4004 3-6.1 8.0988-14 11.299-17.6 6.1-6.9 11.901-17.7 13.701-25.4 0.8-3.45 0.55039-4.8754-0.34961-4.4629zm47.148 1.875c-0.4-0.1625-0.59844 0.7379-0.89844 2.5879-0.9 5 4.6988 16.5 12.299 25.1 3.3 3.8 8.3 11.102 11 16.102 2.8 5.2 5.2012 8.0985 5.2012 6.3985 0.1-5.2-9.8016-24.999-16.602-33.299-3.6-4.3999-7.5984-10.3-8.8984-13.1-1.1-2.4-1.7016-3.6265-2.1016-3.789zm-105.3 2.6875c-7.6 0.6-8.6 1.8008-4.5 4.8008 5.4 3.9 11.5 3.0996 10.9-1.4004-0.4-3.3-1.4004-3.8004-6.4004-3.4004zm162.8 0.3008c-7.1 0-7.7988 0.3992-7.2988 3.6992 0.7 5.1 2.9996 5.4004 9.5996 1.4004 7.3-4.4 6.9992-5.0996-2.3008-5.0996zm-0.5 13.6c-3.1 0.1-5.7984 3.3007-4.8984 5.8007 0.8 1.9 3.1984 2.6993 8.3984 2.6993l7.3008-0.1-4.8008-4.1993c-2.7-2.3-5.3-4.2011-6-4.2011zm-162.3 0.1c-3.6 0-10.801 5.8004-9.2012 7.4004 2.2 2.2 12.6 1.0996 13.5-1.4004 1.3-3.3-0.59883-6-4.2988-6zm86.1 7.6011 0.5 8c0.5 7.9 0.50039 7.9993-5.0996 8.6993-3.1 0.4-6.1 0.8003-6.5 0.9003-3.2 0.9-5.3008-3.3996-4.8008-10.1l0.5-7.5zm28.545 10.467c-1.2803-0.094-2.5441 0.3442-3.7441 1.4317-12.2 11-13.901 39.201-3.2012 54.201 5.5 7.7 12.401 2.6004 19.801-14.6 5.8625-13.562-3.8936-40.371-12.855-41.033zm-67.049 0.1563c-1.2781 0.042-2.5594 0.7504-3.7969 2.2754-15.3 18.9-15.898 40.601-1.3984 55.801 4.8 5 8.4 2.2999 15.5-11.5 7.4375-14.438-1.3578-46.867-10.305-46.576zm32.404 22.377c6.8 0.7 10.599 11.399 5.6992 16.299-4.9 4.8-15 0.1011-15.5-7.2989-0.7-8.8 0.50079-9.9 9.8008-9zm53.1 15.6c-1 0-1.8008 0.9993-1.8008 2.1993 0 3.3-6.4992 14.901-13.699 24.301-3.6 4.7-8.5 12.5-11 17.5-2.5 4.9-4.3 10.3-4 12 0.4 2.1 1.4 1.2004 3.5-3.0996 1.6-3.3 6.7996-10.801 11.6-16.701 11.4-14.1 20.8-36.199 15.4-36.199zm-104.09 4.8125c-1.2375-1.4625-1.8125-1.1628-1.8125 0.7872 0 5.1 9.9008 24.201 17.801 34.301 4.3 5.5 7.7988 10.9 7.7988 12.1s1.2008 3.2 2.8008 4.5c7.4 6.2-2.8004-18.9-11.4-28.1-2.7-2.9-6.9004-9.1007-9.4004-13.801-2.65-5.1-4.5496-8.3247-5.7871-9.7872zm57.889 12.088v7.5c0 4.1-0.50156 7.9996-1.1016 8.5996s-4.4996 1.0997-8.5996 1.0997h-7.5l0.5-8.0997 0.5-8.0996zm-90.9 14.199c-7.2-0.6-8.1996 1.6-2.5996 5.5 5.7 4 10.2 3.5003 9.5-1.0997-0.4-3.1-1.8004-4.0003-6.9004-4.4003zm167.3 1.5996c-5.1 0.4-7.2988 1.2996-7.2988 3.0996 0 3.1 7.2996 4.1015 11.6 1.6015 5.2-3.1 3.1992-5.2011-4.3008-4.7011zm-2.6992 13.9c-4.1-1-7.6 1.9004-6.5 5.4003 0.7 2.5 12.5 3.0993 14 0.6993 1.4-2.2-1.4-4.4996-7.5-6.0996zm-155.7 0.1992c0-1.3-5.0008-0.6992-9.3008 1.3008-2.3 1.1-4.3008 2.6003-4.3008 3.4003s3.6008 1.4004 7.8008 1.4004c6.4 0 7.7008-0.5011 6.8008-2.7011-0.5-1.5-1-3.0004-1-3.4004zm77.199 2.9004c4.1 0.6 6.4996 10.001 4.0996 16.201-0.7 1.8-3.0992 2.3985-8.1992 1.8985l-7.3008-0.5-0.5-8c-0.5-8.7 2.2004-11 11.9-9.5996zm-20 26.6c3.5 2.1 0.20039 24.3-5.0996 34.5l-5.0996 9.8008 4.5996 6.6992c7 10.2 11.399 29.302 6.2988 27.602-1.2-0.4-2.6988-4.4007-3.2988-8.8007-2.2-14.9-11.101-23.2-16.301-15.1-1.7 2.6-3.6004 5.1993-4.4004 5.6993-7.7 5.5-9.3992 24.8-3.1992 37 10.4 20.6 20.5 16.501 24.9-10.299 1.4-8.8 4.2988-8.1 4.2988 1 0 7.5-6.2992 22.2-11.199 26-2.1 1.6-1.7008 3.3985 2.6992 11.898 5.2 10.1 7.6004 27.502 4.4004 32.602-2.9 4.8-9.6992 0.7992-9.6992-5.8007 0-2.5-1-3.7-3-3.5-2.1 0.2-2.8-0.9008-2.5-3.8008 0.4-3.3-0.20078-3.8992-2.8008-3.1992s-3.1 0.1007-2.5-3.1993c0.6-3.2 7.8e-4 -4.1015-2.6992-4.1015-4 0-4.2012-0.5992-1.7012-5.1992 2.2-4.2 1.4016-4.1004-6.8984 0.1-3.6 1.8-8.0012 3.4004-9.7012 3.4004-5.8 0.1-7.8996 2.6007-5.5996 6.8007 4.8 8.8-4.8992 15.7-14.199 10.1-7.5-4.5999-10.602-4.1011-13.102 1.7989-1.1 2.8-2.7996 4.7011-3.5996 4.2011-2.7-1.7-1.5004-10.4 2.0996-15l3.6016-4.5-4-3.3007-4-3.2989 4-1.5c3.6-1.3 3.6988-1.7011 1.2988-3.7011-3.3-2.6-4.0004-24.7-0.90039-26.6 3.4-2 5.5008 1.9996 3.3008 6.0996-3.5 6.6 0.90001 9.2 11 6.5 10.7-2.9 15.599 1.7008 13.699 12.801l-1.0996 6.7989 5.5996-1.0996c10.2-2 16.402-11.299 7.6016-11.299-4.7 0-5.7012-2.4-1.7012-4 4.1-1.6 3.0004-4.2007-2.0996-4.8007l-4.6992-0.5 4.0996-3.8008c3.6-3.3 3.7996-3.7989 1.0996-3.7989-2.4 0-2.8996-0.9007-2.0996-3.8007 0.6-2.1 1.0996-5.5993 1.0996-7.6993s1.5004-5.3011 3.4004-7.2011c3.2-3.3 3.1992-3.4996 0.19922-5.0996-4.6-2.4-6.0988-13.6-2.2988-16.5 1.8-1.4 2.0988-2.2989 0.79883-2.2989-3.7-0.1-2.4004-4.8007 1.5996-5.8007 3.6-1 3.6004-1.1993 0.90039-4.1993-3.3-3.7-2.1996-5.5 3.4004-5.5 6.4 0 4.5996-2.8-4.9004-7.5-13-6.4-15.799-6-12.199 1.5 3.9 8.1-0.40118 15.7-7.7012 13.6-11.7-3.2999-16.4-1.9996-17 4.9004s-2.8996 8.4996-4.5996 3.0996c-1.5-4.7999 0.8-15.501 4.5-20.801 4-5.8 4.0008-6.5996-0.19922-6.5996-1.9 0-3.4004-1.1997-3.4004-2.5997 0-1.5 1.5004-2.5996 3.4004-2.5996 4.3 0 4.1996-0.2008-0.90039-7.8007-4.4-6.5-5.3996-11.6-2.5996-13.4 0.9-0.6 2.0992 0.9007 2.6992 3.3007 1.5 6.1 7.3004 7.0997 14.9 2.5997 9.9-5.8 19.1 1.3 13.4 10.5-3.2 5.1-2.3996 5.8996 7.4004 8.0996 5.1 1.2 9.7988 2.8011 10.299 3.7011 0.6 0.9 2.1 1.5996 3.5 1.5996 2.1 0 1.9996-0.8-0.40039-4.5l-2.8984-4.5 5.5 1.1993c5.9 1.3 7.3988-1.3993 3.2988-5.6993-1.7-1.8-1.1004-2 3.5996-1 5.3 1.1 5.5008 0.8993 3.8008-2.3007-2.5-4.8-2.3004-5.4004 1.5996-5.4004 2.5 0 3.4004-1.1992 3.4004-4.1992 0-4.4 6.2-10.101 9-8.3008zm42.301 0.4004c1.1 0 3.2984 2.7 4.8984 6 1.6 3.2 3.8 5.7 5 5.5 1.4-0.3 2.0008 1.1004 1.8008 3.4004-0.3 2.5 0.50078 3.8007 2.3008 3.8007 2 0 2.3992 1 1.6992 4-0.9 3.6-0.49921 3.8993 3.3008 3.1993 4-0.7 4.1996-0.5008 2.5996 3.6992-2 5.3-0.50116 5.7015 7.2988 1.6015 3-1.6 7.8016-3.4 10.602-4 3.1-0.6 4.8996-2.0004 4.5996-3.4004-2.6-11.2-2.5004-11.8 2.0996-13.9 3.9-1.8 5.7-1.6 12 1.5 8 3.9 15.001 1.5007 13.301-4.6993-0.6-2.3-0.50039-2.3 1.0996 0 2.6 3.7 2.2988 11.1-0.70117 13.6-3.3 2.7-3.3 6.1004 0 7.4004s3.3 4.5 0 4.5c-3.1 0-3.0984 1.5985 0.10156 5.8985 2.5 3.4 3.2984 14.1 1.3984 21-1.6 5.9-3.9992 4.5007-3.6992-2.1992 0.4-8.6-2.1-10.299-10-7.1993-11.3 4.5-17.4-1-15.1-13.5 1.1-5.9 0.99883-6.0004-3.7012-4.9004-10 2.3-18.198 11.199-10.398 11.199 6 0 6.9996 2.0004 2.5996 5.4004l-3.9004 3h4.6992c5.2 0.1 6.0016 1.9992 2.1016 5.1992-2.3 1.9-2.3016 2.4015 0.39844 4.6015 2.2 1.7 2.4004 2.6989 0.90039 3.2989-1.3 0.5-1.6996 2.4-1.0996 5 0.7 2.5-7.8e-4 5.8-1.8008 8.5-2.5 3.8-2.5984 4.7004-0.39844 6.4004 3.8 3 4.9992 14.399 1.6992 16.199-1.8 1-1.9992 1.9011-0.69922 2.7011 2.9 1.8 2.1988 3.9989-1.7012 5.2989-2.6 0.8-3.0992 1.6-1.6992 3 2.9 2.9 2.1992 6.3008-1.3008 6.3008-7.7 0-5.2 5.5 4.5 9.5 5.7 2.4 12.301 3.2992 12.301 1.6992 0-0.4-0.80039-2.7-1.9004-5-4.8-10.7 2.1004-15.7 15.4-11.1 6.8 2.4 10.5-0.1993 10.5-7.1993 0-2.7 0.79922-4.9003 1.6992-4.9003 3.1 0 1.9008 15.901-1.6992 21.801-4.2 6.8-4.2 6.5993 0 7.6993 1.9 0.5 3.4004 1.7007 3.4004 2.8007s-1.5004 1.8985-3.4004 1.8985c-4.2 0-4.2 0.3012 0 7.2011 3.6 5.9 4.5992 15 1.6992 15-0.9 0-1.6992-1.4011-1.6992-3.2011 0-6.5-4.7-7.9985-12.5-3.8985-8 4.2-11.4 4.6993-14.4 1.6993-2.4-2.4-2.7008-10.9-0.30078-12.4 3.6-2.2 1.5008-4.0004-7.6992-6.9004-5.2-1.6-9.8008-3.5985-10.301-4.3985-2.3-3.6-5.8988-1.4-4.7988 3 1 4 0.7 4.2989-2.5 3.2989-3.1-1-3.5996-0.4996-3.5996 3.4004 0 3.4-0.70117 4.3-2.7012 3.5-2.3-0.8-2.4996-0.1008-1.5996 4.1992 1 4.9 0.80078 5.1015-3.1992 4.1015-3.8-1-4.2004-0.7-3.4004 2.5 0.6 2.2-0.19961 4.9-2.0996 7-8.3 9.2-9.8012-15.001-2.2012-31.201 5.6-11.5 5.7012-10.2-0.79883-19.6-11.5-16.8-8.8-50.1 5-61.4 2.1-1.7 1.9992-2.5989-0.80078-6.7989-10.3-15-12.199-39.701-3.1992-39.701zm-17.5 6.9004v8.5996l-0.10156 8.5996-16.199-1-1-16.199zm-27.301 9.1992c0-2.6-3.3 0.3004-5.5 4.9004-1.5 3.1-6.4996 10.2-11.1 15.9-4.6 5.7-10.101 14.401-12.201 19.301s-3.5992 11-3.1992 13.5l0.5 4.5996 2-5.5996c2.2-5.9 11.9-21.202 19.6-31.102 3.7-4.7 9.9004-18.2 9.9004-21.5zm44.4 0.7011c-0.1 6.3 4.5004 16.2 11.4 24.4 4.2 5 9.8 13.298 12.5 18.398 3.7 7.2 4.9 8.4004 5 5.4004 0.1-4.8-6.3-17.9-14-28.6-3-4.3-7.6012-11-10.201-14.9s-4.6992-5.9993-4.6992-4.6993zm-106.9 1.4004c-5 1.2-5.3008 3.2993-0.80078 5.6993 5.4 2.9 10.401 2.1996 10.301-1.4004 0-4-3.9-5.6989-9.5-4.2989zm164.8 0.5c-5.7 0-6.9004 0.6-6.4004 3 0.7 3.5 6.1004 4.6 10.4 2 5-3 3.3-5-4-5zm-161.8 13.799c-4 0-10.8 4.9004-9.5996 6.9004 1.6 2.6 12.799 1.8996 13.799-0.9004 1.3-3.3-0.59922-6-4.1992-6zm160.62 0.3632c-1.85 0.2875-3.0254 1.5879-3.0254 3.8379 0 2.8 1.4012 3.5 7.2012 4 8.3 0.5 9.2984-1.4015 2.8984-5.6015-2.7-1.8-5.2242-2.5239-7.0742-2.2364zm-74.625 7.2364 0.5 8.1015 0.5 8.0996h-17.4l0.5-8.0996 0.5-8.1015zm29.303 9.7344c-1.2254-0.1491-2.441 0.2035-3.6035 1.166-11.7 9.8-14.499 36.701-5.2988 52.301 6.8 11.6 12.699 7.8992 21.199-13.301 5.3375-13.475-3.7192-39.123-12.297-40.166zm-41.303 22.566c9-2.2 12.801 0.2996 12.801 8.5996 0 6.9-0.40117 7.5011-4.7012 8.2011-2.6 0.4-5.1988 0.8-5.7988 1-7.7 1.7-9.9008-15.901-2.3008-17.801zm59.688 16.613c-0.7625 0.2375-2.1879 2.5864-4.0879 6.9864-1.7 4-7.5004 13.301-12.9 20.801-9.8 13.6-11.4 16.499-13.5 25.199-1.6 6.7 1.3012 5.8 3.7012-1 1.2-3.2 5.2004-9.3 8.9004-13.5 8-9.1 16.4-24.399 18-32.799 0.75-4.05 0.64922-5.925-0.11328-5.6875zm-106.09 5.4864c-1 1.1 8.1996 22.2 10.1 23 0.7 0.3 1.3008 1.5011 1.3008 2.7011s1.5996 3.5985 3.5996 5.3985 5.9012 7.3012 8.7012 12.201c5.9 10.3 7.2992 11.2 5.6992 3.5-1.6-7.8999-7.1992-18.201-13.699-25.201-3-3.3-7.6012-9.6992-10.201-14.199-2.5-4.6-5-7.9004-5.5-7.4004zm59.201 11.301v17h-7.5c-7.4 0-7.5016-4e-4 -8.6016-6.9003-1.4-9-0.49999-10.1 8.5-10.1zm-90.9 14c-7.1-0.6-8.1008 1.1004-3.3008 5.4004 4.8 4.3 10.901 3.7 10.201-1-0.4-3.1-1.8004-4.0004-6.9004-4.4004zm167.4 0.6993c-4.7-0.2-5.7012 0.3996-6.2012 3.5996-0.7 4.6 8.0012 5.5011 11.701 1.2011 2.8-3.3999 1.5-4.5007-5.5-4.8007zm-161 14.301c-3.3 0-11.102 3.6993-11.102 5.1993 0 2.3 14 2.8 14.9 0.5 1.1-2.8-0.79883-5.6993-3.7988-5.6993zm154.32 0.75c-2.65 1-4.0742 3.3004-2.3242 6.1504 1.3 2.1 9.4988 1.8993 12.799-0.3007 2.2-1.4 2.1012-1.9993-0.79883-4.1993-3.15-2.35-7.0258-2.6504-9.6758-1.6504zm-69.824 2.6504v17.1h-7.4004c-9.1 0-9.0012 0.099-8.2012-9.3007l0.60156-7.7989z" fill="{{ border_color }}"/>
</svg>
