<?xml version="1.0" encoding="UTF-8"?>
<svg width="60" height="164.04" enable-background="new 0 0 3047.97 5000" version="1.1" viewBox="0 0 60 164.04" xmlns="http://www.w3.org/2000/svg">
 <path d="m25.269 20.458c-0.0027-2.1419-0.08634-4.2598-0.24944-5.2635-0.12674-0.77996-0.27769-1.7372-0.33548-2.1272-0.22643-1.5283-0.90576-4.4098-1.152-4.8862-0.20833-0.40305-0.64938-1.7659-0.83884-2.5914-0.30531-1.3308-0.18293-1.6324 1.4538-3.5808 0.31418-0.37406 0.5333-0.71797 0.48682-0.76445-0.046482-0.046481-4.7106-0.080922-10.365-0.076423-8.3245 0.00662-10.272 0.03986-10.24 0.17452 0.02185 0.09143 0.25401 0.37516 0.51582 0.63058 0.73729 0.71918 1.6442 1.8299 1.893 2.3183 0.28373 0.55692 0.16424 1.1744-0.67489 3.4899-1.4692 4.0543-2.1623 7.5543-2.2598 11.41v1.39e-4c-0.0161 0.63816-0.01682 1.3633-0.0015 1.6116 0.01533 0.24814 0.05498 1.3044 0.08807 2.3473 0.10108 3.1874 1.1312 7.7458 2.3538 10.416 0.45307 0.98967 1.3235 2.7246 2.1346 4.2545 0.98072 1.85 1.0707 2.2561 1.2296 5.5437l0.0966 1.9983 1.1208 0.02209c0.80035 0.01569 1.1616-0.02733 1.2637-0.1504 0.07867-0.09477 0.17404-0.71385 0.21191-1.3757 0.03787-0.66181 0.0826-1.2171 0.09918-1.2341 0.01664-0.01686 0.22911 0.11579 0.47219 0.2947 0.42872 0.31551 0.44397 0.35714 0.50648 1.3843l0.0645 1.0592h2.7073l0.03726-1.1228c0.03586-1.0841 0.0506-1.1325 0.42639-1.4 0.21408-0.15241 0.41233-0.25403 0.4405-0.22587 0.02816 0.02816 0.09138 0.6726 0.1405 1.4322l0.08916 1.3811 0.65796-0.0013c0.36178-6.24e-4 0.9555-0.03692 1.3194-0.08062l0.66161-0.07954-0.06368-1.8854c-0.05556-1.6463-0.02818-2.0221 0.21489-2.9626 0.30781-1.1905 0.4757-1.5663 1.7079-3.822 2.0798-3.8072 2.9045-6.2993 3.5506-10.73 0.16046-1.1004 0.2387-3.2664 0.23602-5.4083zm-0.20879 120.33c-0.09407-1.5044-0.28452-2.9398-0.57748-4.4023-0.7402-3.6949-1.5008-5.6679-4.0328-10.461-0.41742-0.79017-0.80559-1.6893-0.86268-1.9983-0.0571-0.30898-0.13797-1.6062-0.1798-2.8825l-0.07602-2.3206-2.6429-0.0735v1.3582c0 1.5174-0.06783 1.6101-0.7551 1.0318-0.37295-0.31385-0.38672-0.36283-0.35432-1.2571 0.01852-0.51176-0.0092-0.98839-0.06165-1.0593-0.05841-0.079-0.61179-0.10398-1.4282-0.0645l-1.3328 0.0645 0.05744 2.0627-0.45241 0.37138c-0.24884 0.20423-0.4754 0.34826-0.50349 0.32018-0.02809-0.0281-0.06953-0.65937-0.09201-1.4028l-0.04091-1.3515-1.0959-0.038c-1.1608-0.0404-1.7312 0.0377-1.6176 0.22154 0.03787 0.0613 0.07469 0.98995 0.08184 2.0636 0.01235 1.8565-7e-3 2.014-0.39564 3.2246-0.22477 0.69997-0.67011 1.7277-0.98964 2.2839-0.76178 1.3259-1.791 3.3676-2.1216 4.2087-0.14492 0.36864-0.33954 0.84427-0.43263 1.057-0.88484 2.0225-1.5883 5.6881-1.7441 9.0892-0.28436 6.2071 0.35636 11.236 2.0613 16.18 0.58627 1.7 0.73572 2.5361 0.54224 3.0342-0.10912 0.28103-0.99226 1.4241-1.7334 2.2438-0.55984 0.61916-0.91233 0.59874 10.023 0.58194 5.6367-9e-3 10.277-0.0614 10.311-0.11721 0.03455-0.0557-0.34869-0.5295-0.85158-1.0526-0.96906-1.0081-1.566-1.7985-1.7129-2.268-0.11918-0.38085 0.21186-1.6728 0.95117-3.7113 1.3825-3.812 1.8423-6.0726 2.0585-10.121 0.09285-1.7382 0.09528-3.3115 0.0012-4.8158zm-0.63506-118.84c-0.07743 4.4742-0.78237 8.1567-2.1117 11.022-0.25737 0.5547-0.46799 1.0509-0.46799 1.1025 0 0.13604-1.5282 2.7622-2.2226 3.8194-0.92876 1.414-3.3207 3.982-3.6246 3.8915-0.06049-0.01803-0.11845-1.0395-0.12885-2.2699l-0.01884-2.2373 0.45119-0.33684c0.89574-0.66861 2.6629-2.5512 3.4007-3.6231 1.6966-2.4646 2.5069-4.6069 3.1703-8.3813 0.44648-2.5406 0.55368-7.9705 0.20744-10.507-0.2645-1.9379-1.0871-5.1071-1.8407-7.0909-0.34638-0.91162-1.0529-2.2561-1.1856-2.2561-0.06146 0-0.25674 0.19014-0.43399 0.42247-0.17725 0.23233-0.61916 0.72582-0.98219 1.0965-0.7128 0.72799-0.75482 0.82024-0.47775 1.0502 0.27111 0.22491 0.64755 1.0885 1.2446 2.8557 1.1773 3.4842 1.3865 5.9855 0.84521 10.11-0.18606 1.4182-0.39846 2.7941-0.47192 3.0574-0.25966 0.93049-0.38196 0.66229-0.38196-0.83789 0-1.1 0.06075-1.6464 0.24104-2.1705 0.4503-1.3089 0.573-2.4186 0.49211-4.4497-0.04197-1.054-0.16249-2.2356-0.26801-2.6256-0.48602-1.7967-0.61009-2.1949-0.8574-2.7539-0.14547-0.32889-0.32086-0.59807-0.38968-0.59807-0.07736 0-0.09921 0.52907-0.0573 1.386 0.03732 0.76233 0.09118 5.9098 0.11978 11.439l0.0519 10.053-0.32315 0.55119c-0.17773 0.30316-0.37551 0.55132-0.43968 0.55132-0.06702 0-0.11909-1.7151-0.12235-4.0289-0.01055-7.5907-0.11662-18.597-0.19403-20.143-0.042596-0.84995-0.14118-1.6223-0.21923-1.7163-0.11176-0.13465-0.45102 0.15195-1.6002 1.352l-1.4585 1.5229-0.4207-0.47301c-1.6731-1.8813-2.6085-2.796-2.7443-2.6833-0.10954 0.090879-0.14147 3.4256-0.12357 12.892 0.01325 7.0233-0.01704 12.795-0.06721 12.826-0.05016 0.03101-0.23029-0.09163-0.40011-0.27248l-0.30879-0.32884 0.0332-11.786c0.02851-10.148 0.0074-11.786-0.15121-11.786-0.16885 0-0.29193 0.33631-1.1097 3.0298-0.24475 0.80625-0.51244 3.1275-0.51244 4.4383 6.94e-4 1.4185 0.25315 3.2093 0.586 4.1527 0.25862 0.73306 0.40264 2.75 0.20514 2.872-0.08083 0.04995-0.14688 0.05318-0.14688 0.0072 0-0.04599-0.17262-0.83045-0.38358-1.7434-0.56088-2.4269-0.66474-3.2262-0.65606-5.0459 0.01381-2.8878 0.66632-6.2754 1.746-9.0644 0.5692-1.4703 0.57228-1.4462-0.2989-2.3039-0.42282-0.41623-0.82752-0.72058-0.89939-0.67611-0.20007 0.12362-1.4841 2.828-1.9995 4.211-0.9801 2.6303-1.3524 4.6362-1.4587 7.8582-0.09012 2.7297 0.13206 5.2042 0.67137 7.4776 1.3675 5.7642 3.6464 9.9351 6.4603 11.824 0.57003 0.38252 0.68044 0.52446 0.75592 0.97108 0.11939 0.70642-0.06423 4.2229-0.22045 4.2229-0.16656 0-1.3834-1.2728-2.2802-2.3851-1.4896-1.8475-3.2266-4.7057-3.8885-6.3985-1.12-2.8645-1.5533-4.4945-2.0693-7.783-0.46486-2.963-0.43409-8.4555 0.062065-11.088 0.29275-1.5528 0.99782-3.8965 1.6373-5.4421 0.54825-1.3252 1.5623-3.2977 1.8901-3.6765 0.17628-0.20361 0.097315-0.32018-0.91851-1.3545-1.2845-1.308-1.6005-1.7093-1.3482-1.712 2.8237-0.030665 16.799 0.022671 16.841 0.064223 0.03239 0.032332-0.10868 0.22201-0.3134 0.42138-0.5359 0.52196-1.7911 1.8873-1.906 2.0732-0.0589 0.095244 0.06069 0.33855 0.30093 0.61216 1.5265 1.7386 3.02 7.0998 3.3583 12.055 0.11377 1.6663 0.15764 3.2457 0.13184 4.7371zm-0.17032 122.74c-0.08547 3.6465-0.33857 5.6997-0.91526 7.4265-0.09476 0.28359-0.24235 0.7477-0.32803 1.0314-0.57156 1.8915-2.0366 5.0425-2.6828 5.7704-0.18613 0.20965-0.13912 0.29034 0.62557 1.0776 0.45467 0.46807 1.0209 1.0333 1.2583 1.256 0.90829 0.8521 1.5141 0.78893-7.8575 0.81988-7.2611 0.024-8.4964 1e-3 -8.4964-0.15486 0-0.10052 0.07257-0.22923 0.16124-0.2859 0.08866-0.0566 0.59018-0.58422 1.1146-1.1723l0.95346-1.0692-0.32762-0.34889c-0.70427-0.75019-1.6037-2.85-2.2205-5.1836-0.71141-2.6918-0.99674-4.3847-1.2254-7.2707-0.12896-1.6273-0.18525-6.4275-0.07683-6.5362 0.03017-0.0303 0.12013-0.77966 0.19999-1.6653 0.13992-1.5528 0.60059-3.9511 0.99032-5.1558 0.46396-1.4342 2.0258-4.6745 2.9643-6.1502 1.1556-1.817 3.8491-4.9372 4.2619-4.9372 0.12966 0 0.16625 0.51975 0.16625 2.3614v2.3614l-0.50241 0.28237c-1.1218 0.63046-3.6946 3.7691-4.6161 5.6311-0.92141 1.8619-1.3897 3.3906-1.9747 6.4462-0.39612 2.0694-0.51184 7.9455-0.20175 10.249 0.44669 3.3185 2.0284 8.3658 2.9271 9.3401 0.13084 0.14193 2.1763-1.9128 2.1763-2.1862 0-0.0972-0.05915-0.21331-0.13144-0.25797-0.34652-0.21415-1.2765-2.6005-1.8156-4.6588-0.3692-1.4096-0.63013-3.2993-0.62923-4.5577 6.94e-4 -0.94659 0.33849-4.1604 0.58275-5.5437 0.40368-2.2858 0.57531-2.4018 0.57531-0.38873 0 1.1579-0.06184 1.6224-0.33954 2.5463-0.41991 1.3971-0.55524 3.879-0.30405 5.5762 0.25474 1.7206 1.1516 4.514 1.4494 4.514 0.08686 0 0.10442-0.70826 0.0519-2.095-0.04356-1.1523-0.09302-6.3302-0.10988-11.506-0.02782-8.5434-0.01103-9.4479 0.18237-9.8076 0.22692-0.42192 0.6133-0.80609 0.62232-0.61878 0.0029 0.0619 0.03136 4.8407 0.06301 10.62 0.06791 12.398 0.13885 15.14 0.3974 15.354 0.14325 0.11882 0.23979 0.0736 0.46962-0.22004 0.15914-0.20334 0.58426-0.68932 0.94479-1.08 0.36053-0.3907 0.85415-0.932 1.097-1.2029l0.44144-0.49253 0.96593 1.0101c0.53126 0.55559 1.2183 1.2877 1.5269 1.627 0.3085 0.33923 0.62759 0.59458 0.70903 0.56745 0.11003-0.0366 0.15279-3.3443 0.16638-12.862 0.01201-8.4014 0.0626-12.827 0.14702-12.855 0.07083-0.0236 0.24977 0.11084 0.39753 0.29863 0.2684 0.34124 0.26857 0.34934 0.22736 12.06-0.03337 9.4876-0.0097 11.719 0.12466 11.719 0.22996 0 0.2348-0.0111 0.74385-1.7632 1.0327-3.5536 1.1517-6.9143 0.34361-9.7111-0.27028-0.93542-0.40276-2.8345-0.19727-2.8287 0.12917 4e-3 0.33708 0.8136 0.85835 3.3444 0.67624 3.2831 0.17039 7.8486-1.3215 11.926-0.28547 0.77996-0.54976 1.5136-0.58736 1.6304-0.04516 0.14 0.21186 0.50808 0.7547 1.0811l0.82312 0.86877 0.3363-0.6299c2.3347-4.3729 3.1897-7.7154 3.1952-12.492 0.0054-4.5965-0.85522-8.5411-2.8124-12.892-1.1074-2.4615-2.4994-4.242-4.3562-5.5717l-0.68099-0.48763-0.0062-2.3528c-4e-3 -1.552 0.03959-2.3528 0.12831-2.3528 0.18883 0 1.3325 1.1769 2.2561 2.3218 3.0085 3.7293 4.7344 7.377 5.5975 11.83 0.73757 3.8053 0.82335 4.7801 0.73857 8.3965zm-1.7473-0.18672c0.05088 2.4355-0.18122 5.4151-0.60416 7.0685-0.53264 2.0824-1.9635 5.7662-2.2397 5.7662-0.05896 0-0.18035-0.088-0.26963-0.19566-0.1332-0.16059-0.0891-0.38551 0.2466-1.257 1.0733-2.7859 1.8088-7.2528 1.6182-9.8283-0.21394-2.8912-0.9721-6.3064-1.7296-7.7913-0.22934-0.44953-0.26231-0.75761-0.26231-2.457 0-1.6799 0.02858-1.954 0.21096-2.024 0.36934-0.14173 0.56217 0.12004 1.1575 1.5716 0.75005 1.8286 1.3732 4.3463 1.7235 6.9619 0.08325 0.62168 0.13168 1.3731 0.14864 2.185zm-0.11476-124.58c-0.06429 2.3098-0.30151 4.6337-0.69468 6.3592-0.61311 2.6905-1.2738 4.3558-1.7554 4.4245-0.28408 0.04051-0.2891 0.01718-0.2993-1.4182-0.0056-0.80264-0.02815-1.7784-0.04987-2.1684-0.03053-0.54825 0.04444-0.91381 0.33047-1.6116 0.92904-2.2663 1.2112-4.2165 1.2112-8.38 0-3.0937-0.01446-3.2852-0.36638-4.7702-0.20167-0.85092-0.5965-2.2144-0.87732-3.0298-0.28081-0.81547-0.53978-1.5718-0.57544-1.6808-0.06507-0.19896 0.39417-0.89764 0.58994-0.89764 0.05752 0 0.1351 0.10148 0.17249 0.2256 0.0374 0.12411 0.30313 0.86378 0.59061 1.6438 0.58308 1.5822 1.1027 3.4743 1.3807 5.028 0.29872 1.6697 0.40735 3.9655 0.34307 6.2754zm-2.7716-2.8417c-0.02273 0.86154-0.0946 1.6577-0.20297 1.9166-0.1026 0.24516-0.1367-0.1438-0.14295-1.6248-0.0045-1.0709-0.04548-2.3037-0.09105-2.7395-0.11821-1.1309 0.14946-1.0234 0.34551 0.13874 0.08779 0.52054 0.11419 1.4475 0.09145 2.3091zm-0.14606 131.09c-0.07957 1.0526-0.27465 2.0305-0.34957 1.7529-0.01915-0.0708-0.03865-1.2755-0.04336-2.6769-0.0066-1.9784 0.0253-2.5019 0.14268-2.3419 0.21859 0.29811 0.34752 1.9803 0.25026 3.2659zm-0.03265-30.607-0.02385-35.003c-0.01318-19.252-0.024-35.279-0.02329-35.615l6.94e-4 -0.61243h-2.565l-0.03889 0.67692c-0.02143 0.37225-0.02217 15.645-0.0017 33.939 0.02054 18.294 0.03509 34.033 0.03225 34.975l-5e-3 1.7128zm-0.75565-0.58032h-0.48737c-0.2768 0-0.50972-0.0696-0.53872-0.16111h6.93e-4c-0.05875-0.18507-0.15319-66.23-0.09783-68.33l0.03659-1.386h1.0227v2.7397c0 1.5068 0.01463 17.229 0.03225 34.938zm-0.03062-72.616c-0.03378 0.08866-0.22162 0.1611-0.41746 0.1611-0.31134 0-0.36616-0.06076-0.43601-0.48344-0.04398-0.2659-0.08068-0.95117-0.08144-1.5229-0.0013-0.98675 0.01825-1.0583 0.38413-1.4089 0.212-0.20305 0.41268-0.34188 0.4459-0.30865 0.08387 0.08387 0.18042 3.3643 0.10487 3.5628zm-0.1775 75.066-0.01504 1.8756c-0.0083 1.0316-0.05285 1.8991-0.09904 1.9277-0.04628 0.0286-0.26828-0.14333-0.49333-0.38197-0.40555-0.42997-0.40919-0.44582-0.40919-1.7729 0-1.4539 0.0783-1.6484 0.6631-1.6484zm-1.407-84.343-0.5165 0.20663c-0.28408 0.1137-0.56215 0.20663-0.61785 0.20663-0.0557 0-0.10747-0.6237-0.11503-1.386l-0.01354-1.3858 0.50769-0.4371c0.27929-0.24038 0.5272-0.41438 0.55092-0.3867 0.02373 0.02761 0.07938 0.75497 0.12371 1.6163zm-0.17221-7.8843c-0.0451 0.32896-0.08197 1.0455-0.08197 1.5923v0.99425l-0.63912 0.82488c-0.35151 0.45377-0.86383 1.0801-1.1384 1.3918l-0.49929 0.56677-0.98341-0.79724c-0.54082-0.4385-1.1018-0.94793-1.2467-1.132-0.23642-0.30059-0.2634-0.51758-0.2634-2.1222 0-0.98314 0.05164-1.7876 0.11463-1.7876 0.063 0 0.56622 0.46412 1.1182 1.0314s1.0446 1.0314 1.0946 1.0314c0.05009 0 0.59317-0.49316 1.2068-1.0959 0.61367-0.60278 1.1797-1.0959 1.2578-1.0959 0.09483 0 0.11489 0.19876 0.06015 0.59807zm-0.07952-2.0163c-0.0052 0.0754-0.65055 0.3867-0.80172 0.3867-0.1298 6.9e-5 -0.1081-5.8152 0.02425-6.5026 0.08449-0.43871 0.50067-0.97501 0.757-0.97501 0.0582 0 0.07638 6.2877 0.02047 7.0909zm-0.0022-14.472v6.9297l-2.2127-0.03834c-2.503-0.0433-2.6512 0.0089-2.0331 0.71283 0.36747 0.41852 0.37818 0.47006 0.39171 1.8763 0.02081 2.1674-0.03123 5.5645-0.08617 5.6209-0.02657 0.02727-0.22429-0.02311-0.43927-0.11219l-0.3909-0.16192-0.0049-2.4662c-0.0027-1.3564-0.02338-4.1485-0.0462-6.205-0.02282-2.0563-0.0062-4.29 0.03699-4.9637 0.07063-1.1015 0.10478-1.2284 0.33995-1.2621 0.18786-0.02692 0.46011 0.20198 0.96701 0.81336 0.388 0.46806 0.72481 0.90563 0.74847 0.9723 0.05078 0.14332 0.53445 0.16514 0.54306 0.02452 0.0033-0.05321 0.30793-0.42894 0.67692-0.83491 0.45897-0.50489 0.80326-0.76446 1.0899-0.82176zm-0.17448 133.27c0.03823 2.9782 0.02901 6.2995-0.0206 7.3808-0.08734 1.9052-0.09885 1.966-0.37058 1.966-0.19077 0-0.54059-0.30921-1.0937-0.96687-0.44724-0.53181-0.85419-0.96688-0.90442-0.96688-0.05022 0-0.45487 0.40603-0.89927 0.90238-0.65272 0.72904-0.88079 0.90252-1.1866 0.90252h-0.37856v-6.8329h2.2486c1.4633 0 2.2784-0.0484 2.3341-0.13847 0.04703-0.0762-0.02935-0.26481-0.16977-0.41908-0.52238-0.57413-0.54536-0.751-0.54536-4.2042 0-3.5775-0.0085-3.534 0.61948-3.1975l0.29714 0.15934zm-0.04092-13.472c-0.02171 0.67361-0.04016 1.2683-0.04105 1.3215-3e-3 0.18398-0.24147 0.0953-0.63641-0.23711-0.39598-0.33333-0.39659-0.3355-0.39659-1.676 0-1.5025 0.07786-1.607 0.73641-0.98774 0.37211 0.34998 0.37656 0.37057 0.33764 1.5794zm-0.0052 3.7609c0.02327 0.29861 0.01821 0.71341-6e-3 1.3638-0.03226 0.8686-0.10384 1.5793-0.15906 1.5793-0.05522 0-0.52375-0.43521-1.0413-0.96701-0.51752-0.53181-1.036-0.96688-1.1524-0.96688-0.11633 0-0.69235 0.4927-1.28 1.0948-0.58765 0.60209-1.1201 1.0628-1.1831 1.0238-0.06313-0.039-0.10402-0.14002-0.09091-0.22452 0.01318-0.0845 0.05671-0.79472 0.09674-1.5784 0.0514-1.0063 0.13471-1.5176 0.28359-1.7405 0.43663-0.65362 1.9303-2.3135 2.0813-2.3135 0.28838 6.8e-4 2.0667 1.6045 2.2869 2.0623 0.08932 0.18581 0.14094 0.3683 0.16422 0.66689zm-0.16639-121.33-1.7727 0.0021c-0.97503 0.0012-1.8743 0.03187-1.9984 0.06816-0.20187 0.05911-0.22553 0.26883-0.2256 1.9912 0 1.4453 0.04012 1.9294 0.1611 1.9419 0.08866 0.0092 0.90361 0.03129 1.811 0.04917 1.3036 0.02568 1.6891-0.0068 1.8372-0.15487 0.14652-0.14651 0.18738-0.59178 0.18738-2.0424zm-0.32234 134.13-3.7388-0.0336-0.07831 0.468c-0.04309 0.25744-0.08661 1.1513-0.09674 1.9863l-0.01829 1.5182 1.966-0.0357 1.9661-0.0355zm-0.51568-100.69-1.2247-0.0035c-0.67361-0.0019-1.2611 0.01153-1.3053 0.02994-0.04426 0.01832-0.05473 16.003-0.0233 35.522 0.03142 19.519 0.05309 35.565 0.04824 35.658-0.0069 0.13255 0.26536 0.15813 1.2482 0.11684l1.257-0.0529zm-0.0644-32.424v1.0207c0 0.56136-0.05684 1.0401-0.12614 1.0638-0.0693 0.0231-0.52901 0.0233-1.0215 0v4.15e-4c-0.54145-0.02566-0.91216-0.10205-0.93762-0.19335-0.02317-0.08297-0.02487-0.54261-0.0039-1.0212l0.03806-0.87027zm-0.32234 134.02-0.0085 0.93667c-0.0045 0.51516-0.07261 1.001-0.15134 1.0797-0.09532 0.0953-0.42645 0.11268-0.99086 0.0523l-0.84778-0.091v-2.0531l0.99912 0.0376zm-0.12076-129.02c-0.04745 0.19501-0.1197 2.1376-0.16056 4.3169-0.06084 3.2444-0.10831 3.9906-0.2619 4.118-0.13424 0.11142-0.24862 0.11724-0.40242 0.02033-0.19133-0.12057-0.22181-0.609-0.27925-4.4728l-0.06436-4.3373h0.62734c0.61936 7e-5 0.62635 0.0048 0.54116 0.35472zm-0.07181 20.23c-0.01017 2.6839-0.06866 5.3619-0.16543 5.3978-0.08679 0.03213-0.33185 0.01104-0.54455-0.04689-0.21277-0.05792-0.38796-0.18813-0.38928-0.28928-0.0013-0.10129 0.01383-2.5278 0.03374-5.3921l0.03618-5.2078 0.26706 0.24158c0.25245 0.22851 0.27374 0.22938 0.3932 0.01599 0.06945-0.12411 0.17956-0.1928 0.2447-0.15256 0.09644 0.05959 0.13454 2.7494 0.12438 5.4333zm-0.10906 42.928c0.01573 17.309-0.01384 34.612-0.10446 34.758-0.03322 0.0537-0.26005 0.0976-0.50403 0.0976h-0.4436l-0.0037-1.7727c-0.05633-27.169-0.07595-67.822-0.03265-67.943 0.0881-0.24593 0.78152-0.19746 0.92068 0.06436 0.09092 0.17107 0.15201 17.486 0.16774 34.795zm-0.15351 37.339-0.07331 5.3661c-0.04038 2.9513-0.10064 5.3934-0.134 5.4268-0.03336 0.0335-0.11208-0.0223-0.17478-0.12385-0.09615-0.15561-0.15564-0.14675-0.37979 0.056l-0.2657 0.24036-0.01128-1.0192c-0.05162-4.6924-0.0392-10.012 0.02344-10.051 0.04204-0.0262 0.2877-0.0131 0.5459 0.0287zm-0.06057 26.029-0.37058-0.074c-0.20388-0.0408-0.47944-0.0739-0.61243-0.0739-0.13299 0-0.23447-0.0437-0.22559-0.0967 0.0089-0.0532 0.06347-0.35768 0.1214-0.67679 0.05792-0.31904 0.1174-2.2192 0.13224-4.2226 0.02775-3.7472 0.06504-4.0103 0.54184-3.8274 0.10988 0.0421 0.23956 0.17363 0.28819 0.29225 0.04863 0.11869 0.09657 2.12 0.10663 4.4476zm-1.6116-111.47c0 0.71939-0.03629 1.3442-0.08049 1.3884-0.04419 0.04419-0.27628-0.06916-0.51569-0.25175l-0.43534-0.33196v-1.3384c0-0.84107 0.04999-1.3384 0.13428-1.3384 0.07382 0 0.30584 0.12691 0.51569 0.2821 0.37919 0.28033 0.38155 0.29018 0.38155 1.59zm-0.15677 97.271-0.46949 0.36503c-0.25827 0.20076-0.54219 0.4071-0.63085 0.45865-0.12543 0.0729-0.1611-0.27513-0.1611-1.5704v-1.664l0.51704-0.23318c0.28436-0.1282 0.53772-0.20954 0.56311-0.18075 0.02532 0.0288 0.07663 0.67619 0.11382 1.4385zm-0.21516 7.2538c0.04752 0.50933-0.0277 5.6599-0.08902 6.0896-0.11377 0.79777-0.17116 0.92892-0.49916 1.1438-0.22463 0.14715-0.31697 0.15872-0.34944 0.0438-0.02428-0.0859-0.02877-1.6978-0.01-3.582l0.03428-3.4258 0.44916-0.21421c0.33035-0.15754 0.45317-0.1721 0.46406-0.0551zm-0.89141-20.856-0.0022-15.729c-0.0012-8.6507-0.0071-24.669-0.01301-35.596l-0.01067-19.867-1.1873-0.07697c-0.66896-0.04336-1.2504-0.02461-1.3318 0.04296-0.10628 0.08825-0.13102 9.4879-0.09336 35.544 0.02816 19.483 0.07526 35.499 0.10474 35.59 0.03988 0.12351 0.37041 0.15633 1.2935 0.12887zm-0.66188-76.158-0.03658 1.4645-0.03659 1.4645-0.41894 0.04038-0.41908 0.04038v-1.8777c0-1.0327 0.02963-1.8775 0.06571-1.8775 0.03607 0 0.24103 0.16761 0.45553 0.3726zm-0.12153 80.846-0.43588 0.46203c-0.23968 0.25412-0.47533 0.42245-0.52369 0.3741-0.04836-0.0483-0.08794-0.92047-0.08794-1.938v-1.8499l0.39659 0.0302c0.2181 0.0165 0.41357 0.0611 0.43452 0.0988 0.02096 0.0377 0.07817 0.68817 0.12723 1.4456zm-5e-3 -52.551c6e-3 12.427 0.0043 28.105-0.0038 34.842l-0.01477 12.248-0.35079 0.0336c-0.19292 0.0185-0.4183-0.0111-0.50079-0.0652-0.11322-0.0746-0.16067-8.2721-0.19348-33.425-0.02384-18.329-0.02694-33.979-7e-3 -34.777l0.03658-1.4503h1.023zm-1.4461-53.21c-0.01796 2.3238-0.10822 3.0724-0.28332 2.3484-0.09289-0.38391-0.2146-2.9437-0.15175-3.1899 0.02712-0.10641 0.08614-0.52706 0.13102-0.93477 0.04495-0.4077 0.13603-0.74128 0.20256-0.74128 0.07187 0 0.11307 1.0221 0.10149 2.5176zm-0.24728 133.5c-0.05286 0-0.16015-0.36737-0.23833-0.81636-0.22983-1.3201-0.08166-4.7098 0.19389-4.4343 0.1062 0.10619 0.14982 5.2506 0.044439 5.2506zm-0.022646-121.93c-0.03469 1.9164-0.04253 1.9658-0.32058 2.0053-0.23989 0.03413-0.34724-0.09678-0.67814-0.82651-0.81957-1.8075-1.239-3.305-1.9468-6.9494-0.16746-0.86216-0.25642-5.8122-0.12628-7.0264 0.25432-2.3729 1.2287-5.932 2.0858-7.6186 0.20375-0.4009 0.37044-0.79422 0.37044-0.87407 0-0.21346 0.51155-0.17709 0.59576 0.042411 0.03954 0.10315-0.10218 0.63992-0.31502 1.1926-1.6766 4.3537-2.039 10.124-0.90902 14.477 0.35193 1.356 0.75037 2.559 1.036 3.1279 0.21235 0.42303 0.23893 0.73546 0.20785 2.4494zm-0.01897 128.25c0.01882 0.17426-0.04084 0.2596-0.16097 0.42435-0.13326 0.18288-0.30035 0.3337-0.37125 0.33507-0.28082 6e-3 -1.7421-4.5338-2.1977-6.8274-0.16379-0.82443-0.2266-1.9419-0.25324-4.5123-0.01942-1.8791-0.01343-3.6485 0.01328-3.9322 0.13132-1.3949 0.3561-2.9418 0.56921-3.9164 0.12987-0.59403 0.20475-1.1617 0.16638-1.2617-0.03836-0.0999 0.01274-0.28122 0.11354-0.40269 0.10087-0.12151 0.3132-0.62688 0.47193-1.1232 0.45209-1.4139 0.68024-1.8049 1.0533-1.8049h0.32112l-0.0053 2.2561c-0.0052 2.171-0.0186 2.2863-0.35784 3.0573-0.79709 1.8116-1.2488 4.8112-1.2479 8.2872 7.63e-4 3.0808 0.43288 5.4022 1.5752 8.4633 0.19407 0.52005 0.29133 0.78326 0.31014 0.95754z" fill="{{ border_color }}" stroke-width=".069372"/>
 <path d="m56.655 20.458c-0.0027-2.1419-0.08634-4.2597-0.24944-5.2635-0.12674-0.77996-0.27769-1.7372-0.33548-2.1272-0.22643-1.5283-0.90576-4.4098-1.152-4.8862-0.20833-0.40305-0.64938-1.7659-0.83884-2.5914-0.30531-1.3308-0.18293-1.6324 1.4538-3.5808 0.31418-0.37406 0.5333-0.71797 0.48682-0.76445-0.04648-0.046481-4.7106-0.080923-10.365-0.076423-8.3245 0.00662-10.272 0.03986-10.24 0.17452 0.02185 0.09143 0.25401 0.37516 0.51582 0.63058 0.73729 0.71918 1.6442 1.8299 1.893 2.3183 0.28373 0.55692 0.16424 1.1744-0.67489 3.4899-1.4692 4.0543-2.1623 7.5543-2.2598 11.41v1.39e-4c-0.0161 0.63816-0.01682 1.3633-0.0015 1.6116 0.01533 0.24814 0.05498 1.3044 0.08807 2.3473 0.10108 3.1874 1.1312 7.7458 2.3538 10.416 0.45307 0.98967 1.3235 2.7246 2.1346 4.2545 0.98072 1.85 1.0707 2.2561 1.2296 5.5437l0.0966 1.9983 1.1208 0.02209c0.80035 0.01569 1.1616-0.02733 1.2637-0.1504 0.07867-0.09477 0.17404-0.71385 0.21191-1.3757 0.03787-0.66181 0.0826-1.2171 0.09918-1.2341 0.01664-0.01686 0.22911 0.11579 0.47219 0.2947 0.42872 0.31551 0.44397 0.35714 0.50648 1.3843l0.0645 1.0592h2.7073l0.03726-1.1228c0.03586-1.0841 0.0506-1.1325 0.42639-1.4 0.21408-0.15241 0.41233-0.25403 0.4405-0.22587 0.02816 0.02816 0.09138 0.6726 0.1405 1.4322l0.08916 1.3811 0.65796-0.0013c0.36178-6.24e-4 0.9555-0.03692 1.3194-0.08062l0.66161-0.07954-0.06368-1.8854c-0.05556-1.6463-0.02818-2.0221 0.21489-2.9626 0.30781-1.1905 0.4757-1.5663 1.7079-3.822 2.0798-3.8072 2.9045-6.2993 3.5506-10.73 0.16046-1.1004 0.2387-3.2664 0.23602-5.4083zm-0.20879 120.33c-0.09407-1.5044-0.28452-2.9398-0.57748-4.4023-0.7402-3.6949-1.5008-5.6679-4.0328-10.461-0.41742-0.79017-0.80559-1.6893-0.86268-1.9983-0.0571-0.30898-0.13797-1.6062-0.1798-2.8825l-0.07602-2.3206-2.6429-0.0735v1.3582c0 1.5174-0.06783 1.6101-0.7551 1.0318-0.37295-0.31385-0.38672-0.36283-0.35432-1.2571 0.01852-0.51176-0.0092-0.98839-0.06165-1.0593-0.05841-0.079-0.61179-0.10398-1.4282-0.0645l-1.3328 0.0645 0.05744 2.0627-0.45241 0.37138c-0.24884 0.20423-0.4754 0.34826-0.50349 0.32018-0.02809-0.0281-0.06953-0.65937-0.09201-1.4028l-0.04091-1.3515-1.0959-0.038c-1.1608-0.0404-1.7312 0.0377-1.6176 0.22154 0.03787 0.0613 0.07469 0.98995 0.08184 2.0636 0.01235 1.8565-7e-3 2.014-0.39564 3.2246-0.22477 0.69997-0.67011 1.7277-0.98964 2.2839-0.76178 1.3259-1.791 3.3676-2.1216 4.2087-0.14492 0.36864-0.33954 0.84427-0.43263 1.057-0.88484 2.0225-1.5883 5.6881-1.7441 9.0892-0.28436 6.2071 0.35636 11.236 2.0613 16.18 0.58627 1.7 0.73572 2.5361 0.54224 3.0342-0.10912 0.28103-0.99226 1.4241-1.7334 2.2438-0.55984 0.61916-0.91233 0.59874 10.023 0.58194 5.6367-9e-3 10.277-0.0614 10.311-0.11721 0.03455-0.0557-0.34869-0.5295-0.85158-1.0526-0.96906-1.0081-1.566-1.7985-1.7129-2.268-0.11918-0.38085 0.21186-1.6728 0.95117-3.7113 1.3825-3.812 1.8423-6.0726 2.0585-10.121 0.09285-1.7382 0.09528-3.3115 0.0012-4.8158zm-0.63506-118.84c-0.07743 4.4742-0.78237 8.1567-2.1117 11.022-0.25737 0.5547-0.46799 1.0509-0.46799 1.1025 0 0.13604-1.5282 2.7622-2.2226 3.8194-0.92876 1.414-3.3207 3.982-3.6246 3.8915-0.06049-0.01803-0.11845-1.0395-0.12885-2.2699l-0.01884-2.2373 0.45119-0.33684c0.89574-0.66861 2.6629-2.5512 3.4007-3.6231 1.6966-2.4646 2.5069-4.6069 3.1703-8.3813 0.44648-2.5406 0.55368-7.9705 0.20744-10.507-0.2645-1.9379-1.0871-5.1071-1.8407-7.0909-0.34638-0.91162-1.0529-2.2561-1.1856-2.2561-0.06146 0-0.25674 0.19014-0.43399 0.42247-0.17725 0.23233-0.61916 0.72582-0.98219 1.0965-0.7128 0.72799-0.75482 0.82024-0.47775 1.0502 0.27111 0.22491 0.64755 1.0885 1.2446 2.8557 1.1773 3.4842 1.3865 5.9855 0.84521 10.11-0.18606 1.4182-0.39846 2.7941-0.47192 3.0574-0.25966 0.93049-0.38196 0.66229-0.38196-0.83789 0-1.1 0.06075-1.6464 0.24104-2.1705 0.4503-1.3089 0.573-2.4186 0.49211-4.4497-0.04197-1.054-0.16249-2.2356-0.26801-2.6256-0.48602-1.7967-0.61009-2.1949-0.8574-2.7539-0.14547-0.32889-0.32086-0.59807-0.38968-0.59807-0.07736 0-0.09921 0.52907-0.0573 1.386 0.03732 0.76233 0.09118 5.9098 0.11978 11.439l0.0519 10.053-0.32315 0.55119c-0.17773 0.30316-0.37551 0.55132-0.43968 0.55132-0.06702 0-0.11909-1.7151-0.12235-4.0289-0.01055-7.5907-0.11662-18.597-0.19403-20.143-0.0426-0.84995-0.14118-1.6223-0.21923-1.7163-0.11176-0.13465-0.45102 0.15195-1.6002 1.352l-1.4585 1.5229-0.4207-0.47301c-1.6731-1.8813-2.6085-2.796-2.7443-2.6833-0.10954 0.090879-0.14147 3.4256-0.12357 12.892 0.01325 7.0233-0.01705 12.795-0.06721 12.826s-0.23029-0.09163-0.40011-0.27248l-0.30879-0.32884 0.0332-11.786c0.02851-10.148 0.0074-11.786-0.15121-11.786-0.16885 0-0.29193 0.33631-1.1097 3.0298-0.24475 0.80625-0.51244 3.1275-0.51244 4.4383 6.94e-4 1.4185 0.25315 3.2093 0.586 4.1527 0.25862 0.73306 0.40264 2.75 0.20514 2.872-0.08082 0.04995-0.14688 0.05318-0.14688 0.0072 0-0.04599-0.17262-0.83045-0.38358-1.7434-0.56088-2.4269-0.66474-3.2262-0.65606-5.0459 0.01381-2.8878 0.66632-6.2754 1.746-9.0644 0.5692-1.4703 0.57228-1.4462-0.2989-2.3039-0.42283-0.41623-0.82753-0.72058-0.8994-0.67611-0.20007 0.12362-1.4841 2.828-1.9995 4.211-0.9801 2.6303-1.3524 4.6362-1.4587 7.8582-0.09012 2.7297 0.13206 5.2042 0.67137 7.4776 1.3675 5.7642 3.6464 9.9351 6.4603 11.824 0.57003 0.38252 0.68044 0.52446 0.75592 0.97108 0.11939 0.70642-0.06423 4.2229-0.22045 4.2229-0.16656 0-1.3834-1.2728-2.2802-2.3851-1.4896-1.8475-3.2266-4.7057-3.8885-6.3985-1.12-2.8645-1.5533-4.4945-2.0693-7.783-0.46486-2.963-0.43409-8.4555 0.06207-11.088 0.29275-1.5528 0.99782-3.8965 1.6373-5.4421 0.54825-1.3252 1.5623-3.2977 1.8901-3.6765 0.17628-0.20361 0.09731-0.32018-0.91851-1.3545-1.2845-1.308-1.6005-1.7093-1.3482-1.712 2.8237-0.030665 16.799 0.022671 16.841 0.064223 0.03239 0.032332-0.10868 0.22201-0.3134 0.42138-0.5359 0.52196-1.7911 1.8873-1.906 2.0732-0.0589 0.095244 0.06069 0.33855 0.30093 0.61216 1.5265 1.7386 3.02 7.0998 3.3583 12.055 0.11377 1.6663 0.15764 3.2457 0.13184 4.7371zm-0.17032 122.74c-0.08547 3.6465-0.33857 5.6997-0.91526 7.4265-0.09476 0.28359-0.24235 0.7477-0.32803 1.0314-0.57156 1.8915-2.0366 5.0425-2.6828 5.7704-0.18613 0.20965-0.13912 0.29034 0.62557 1.0776 0.45467 0.46807 1.0209 1.0333 1.2583 1.256 0.90829 0.8521 1.5141 0.78893-7.8575 0.81988-7.2611 0.024-8.4964 1e-3 -8.4964-0.15486 0-0.10052 0.07257-0.22923 0.16124-0.2859 0.08866-0.0566 0.59018-0.58422 1.1146-1.1723l0.95346-1.0692-0.32762-0.34889c-0.70427-0.75019-1.6037-2.85-2.2205-5.1836-0.71141-2.6918-0.99674-4.3847-1.2254-7.2707-0.12896-1.6273-0.18525-6.4275-0.07683-6.5362 0.03017-0.0303 0.12013-0.77966 0.19999-1.6653 0.13992-1.5528 0.60059-3.9511 0.99032-5.1558 0.46396-1.4342 2.0258-4.6745 2.9643-6.1502 1.1556-1.817 3.8491-4.9372 4.2619-4.9372 0.12966 0 0.16625 0.51975 0.16625 2.3614v2.3614l-0.50241 0.28237c-1.1218 0.63046-3.6946 3.7691-4.6161 5.6311-0.92141 1.8619-1.3897 3.3906-1.9747 6.4462-0.39612 2.0694-0.51184 7.9455-0.20175 10.249 0.44669 3.3185 2.0284 8.3658 2.9271 9.3401 0.13084 0.14193 2.1763-1.9128 2.1763-2.1862 0-0.0972-0.05915-0.21331-0.13144-0.25797-0.34652-0.21415-1.2765-2.6005-1.8156-4.6588-0.3692-1.4096-0.63013-3.2993-0.62923-4.5577 6.93e-4 -0.94659 0.33849-4.1604 0.58275-5.5437 0.40368-2.2858 0.57531-2.4018 0.57531-0.38873 0 1.1579-0.06184 1.6224-0.33954 2.5463-0.41991 1.3971-0.55524 3.879-0.30405 5.5762 0.25474 1.7206 1.1516 4.514 1.4494 4.514 0.08686 0 0.10442-0.70826 0.0519-2.095-0.04356-1.1523-0.09302-6.3302-0.10988-11.506-0.02782-8.5434-0.01103-9.4479 0.18237-9.8076 0.22692-0.42192 0.6133-0.80609 0.62232-0.61878 0.0029 0.0619 0.03136 4.8407 0.06301 10.62 0.06791 12.398 0.13885 15.14 0.3974 15.354 0.14325 0.11882 0.23979 0.0736 0.46962-0.22004 0.15914-0.20334 0.58426-0.68932 0.94479-1.08 0.36053-0.3907 0.85415-0.932 1.097-1.2029l0.44144-0.49253 0.96593 1.0101c0.53126 0.55559 1.2183 1.2877 1.5269 1.627 0.3085 0.33923 0.62759 0.59458 0.70903 0.56745 0.11003-0.0366 0.15279-3.3443 0.16638-12.862 0.01201-8.4014 0.0626-12.827 0.14702-12.855 0.07083-0.0236 0.24977 0.11084 0.39753 0.29863 0.2684 0.34124 0.26857 0.34934 0.22736 12.06-0.03337 9.4876-0.0097 11.719 0.12466 11.719 0.22996 0 0.2348-0.0111 0.74385-1.7632 1.0327-3.5536 1.1517-6.9143 0.34361-9.7111-0.27028-0.93542-0.40276-2.8345-0.19727-2.8287 0.12917 4e-3 0.33708 0.8136 0.85835 3.3444 0.67624 3.2831 0.17039 7.8486-1.3215 11.926-0.28547 0.77996-0.54976 1.5136-0.58736 1.6304-0.04516 0.14 0.21186 0.50808 0.7547 1.0811l0.82312 0.86877 0.3363-0.6299c2.3347-4.3729 3.1897-7.7154 3.1952-12.492 0.0054-4.5965-0.85522-8.5411-2.8124-12.892-1.1074-2.4615-2.4994-4.242-4.3562-5.5717l-0.68099-0.48763-0.0062-2.3528c-4e-3 -1.552 0.03959-2.3528 0.12831-2.3528 0.18883 0 1.3325 1.1769 2.2561 2.3218 3.0085 3.7293 4.7344 7.377 5.5975 11.83 0.73757 3.8053 0.82335 4.7801 0.73857 8.3965zm-1.7473-0.18672c0.05088 2.4355-0.18122 5.4151-0.60416 7.0685-0.53264 2.0824-1.9635 5.7662-2.2397 5.7662-0.05896 0-0.18035-0.088-0.26963-0.19566-0.1332-0.16059-0.0891-0.38551 0.2466-1.257 1.0733-2.7859 1.8088-7.2528 1.6182-9.8283-0.21394-2.8912-0.9721-6.3064-1.7296-7.7913-0.22934-0.44953-0.26231-0.75761-0.26231-2.457 0-1.6799 0.02858-1.954 0.21096-2.024 0.36934-0.14173 0.56217 0.12004 1.1575 1.5716 0.75005 1.8286 1.3732 4.3463 1.7235 6.9619 0.08325 0.62168 0.13168 1.3731 0.14864 2.185zm-0.11476-124.58c-0.06429 2.3098-0.30151 4.6337-0.69468 6.3592-0.61311 2.6905-1.2738 4.3558-1.7554 4.4245-0.28408 0.04051-0.2891 0.01718-0.2993-1.4182-0.0056-0.80264-0.02815-1.7784-0.04987-2.1684-0.03053-0.54825 0.04444-0.91381 0.33047-1.6116 0.92904-2.2663 1.2112-4.2165 1.2112-8.38 0-3.0937-0.01446-3.2852-0.36638-4.7702-0.20167-0.85092-0.5965-2.2144-0.87732-3.0298-0.28081-0.81547-0.53978-1.5718-0.57544-1.6808-0.06507-0.19896 0.39417-0.89764 0.58994-0.89764 0.05752 0 0.1351 0.10148 0.17249 0.2256 0.0374 0.12411 0.30313 0.86378 0.59061 1.6438 0.58308 1.5822 1.1027 3.4743 1.3807 5.028 0.29872 1.6697 0.40735 3.9655 0.34307 6.2754zm-2.7716-2.8417c-0.02273 0.86154-0.0946 1.6577-0.20297 1.9166-0.1026 0.24516-0.1367-0.1438-0.14295-1.6248-0.0045-1.0709-0.04548-2.3037-0.09105-2.7395-0.11821-1.1309 0.14946-1.0234 0.34551 0.13874 0.08779 0.52054 0.11419 1.4475 0.09145 2.3091zm-0.14606 131.09c-0.07957 1.0526-0.27465 2.0305-0.34957 1.7529-0.01915-0.0708-0.03865-1.2755-0.04336-2.6769-0.0066-1.9784 0.0253-2.5019 0.14268-2.3419 0.21859 0.29811 0.34752 1.9803 0.25026 3.2659zm-0.03265-30.607-0.02385-35.003c-0.01318-19.252-0.024-35.279-0.02329-35.615l6.94e-4 -0.61243h-2.565l-0.03889 0.67692c-0.02143 0.37225-0.02217 15.645-0.0017 33.939 0.02054 18.294 0.03509 34.033 0.03225 34.975l-5e-3 1.7128zm-0.75565-0.58032h-0.48737c-0.2768 0-0.50972-0.0696-0.53872-0.16111h6.93e-4c-0.05875-0.18507-0.15319-66.23-0.09783-68.33l0.03659-1.386h1.0227v2.7397c0 1.5068 0.01463 17.229 0.03225 34.938zm-0.03062-72.616c-0.03378 0.08866-0.22162 0.1611-0.41746 0.1611-0.31134 0-0.36616-0.06076-0.43601-0.48344-0.04398-0.2659-0.08068-0.95117-0.08144-1.5229-0.0013-0.98675 0.01825-1.0583 0.38413-1.4089 0.212-0.20305 0.41268-0.34188 0.4459-0.30865 0.08387 0.08387 0.18042 3.3643 0.10487 3.5628zm-0.1775 75.066-0.01504 1.8756c-0.0083 1.0316-0.05285 1.8991-0.09904 1.9277-0.04628 0.0286-0.26828-0.14333-0.49333-0.38197-0.40555-0.42997-0.40919-0.44582-0.40919-1.7729 0-1.4539 0.0783-1.6484 0.6631-1.6484zm-1.407-84.343-0.5165 0.20663c-0.28408 0.1137-0.56215 0.20663-0.61785 0.20663-0.0557 0-0.10747-0.6237-0.11503-1.386l-0.01354-1.3858 0.50769-0.4371c0.27929-0.24038 0.5272-0.41438 0.55092-0.3867 0.02373 0.02761 0.07938 0.75497 0.12371 1.6163zm-0.17221-7.8843c-0.0451 0.32897-0.08197 1.0455-0.08197 1.5923v0.99425l-0.63912 0.82488c-0.35151 0.45377-0.86383 1.0801-1.1384 1.3918l-0.49929 0.56677-0.98341-0.79724c-0.54082-0.4385-1.1018-0.94793-1.2467-1.132-0.23642-0.30059-0.2634-0.51758-0.2634-2.1222 0-0.98314 0.05164-1.7876 0.11463-1.7876 0.063 0 0.56622 0.46412 1.1182 1.0314s1.0446 1.0314 1.0946 1.0314c0.05009 0 0.59317-0.49316 1.2068-1.0959 0.61367-0.60278 1.1797-1.0959 1.2578-1.0959 0.09483 0 0.11489 0.19876 0.06015 0.59806zm-0.07952-2.0163c-0.0052 0.0754-0.65055 0.3867-0.80172 0.3867-0.1298 6.9e-5 -0.1081-5.8152 0.02425-6.5026 0.08449-0.43871 0.50067-0.97501 0.757-0.97501 0.0582 0 0.07638 6.2877 0.02047 7.0909zm-0.0022-14.472v6.9297l-2.2127-0.03834c-2.503-0.0433-2.6512 0.0089-2.0331 0.71283 0.36747 0.41852 0.37818 0.47006 0.39171 1.8763 0.02081 2.1674-0.03123 5.5645-0.08617 5.6209-0.02657 0.02727-0.22429-0.02311-0.43927-0.11219l-0.3909-0.16192-0.0049-2.4662c-0.0027-1.3564-0.02338-4.1485-0.0462-6.205-0.02282-2.0563-0.0062-4.29 0.03699-4.9637 0.07063-1.1015 0.10478-1.2284 0.33995-1.2621 0.18786-0.02692 0.46011 0.20198 0.96701 0.81336 0.388 0.46806 0.72481 0.90563 0.74847 0.9723 0.05078 0.14332 0.53445 0.16514 0.54306 0.02452 0.0033-0.05321 0.30793-0.42894 0.67692-0.83491 0.45897-0.50489 0.80326-0.76446 1.0899-0.82176zm-0.17448 133.27c0.03823 2.9782 0.02901 6.2995-0.0206 7.3808-0.08734 1.9052-0.09885 1.966-0.37058 1.966-0.19077 0-0.54059-0.30921-1.0937-0.96687-0.44724-0.53181-0.85419-0.96688-0.90442-0.96688-0.05022 0-0.45487 0.40603-0.89927 0.90238-0.65272 0.72904-0.88079 0.90252-1.1866 0.90252h-0.37856v-6.8329h2.2486c1.4633 0 2.2784-0.0484 2.3341-0.13847 0.04703-0.0762-0.02935-0.26481-0.16977-0.41908-0.52238-0.57413-0.54536-0.751-0.54536-4.2042 0-3.5775-0.0085-3.534 0.61948-3.1975l0.29714 0.15934zm-0.04092-13.472c-0.02171 0.67361-0.04016 1.2683-0.04105 1.3215-3e-3 0.18398-0.24147 0.0953-0.63641-0.23711-0.39598-0.33333-0.39659-0.3355-0.39659-1.676 0-1.5025 0.07786-1.607 0.73641-0.98774 0.37211 0.34998 0.37656 0.37057 0.33764 1.5794zm-0.0052 3.7609c0.02327 0.29861 0.01821 0.71341-6e-3 1.3638-0.03226 0.8686-0.10384 1.5793-0.15906 1.5793-0.05522 0-0.52375-0.43521-1.0413-0.96701-0.51752-0.53181-1.036-0.96688-1.1524-0.96688-0.11633 0-0.69235 0.4927-1.28 1.0948-0.58765 0.60209-1.1201 1.0628-1.1831 1.0238-0.06313-0.039-0.10402-0.14002-0.09091-0.22452 0.01318-0.0845 0.05671-0.79472 0.09674-1.5784 0.0514-1.0063 0.13471-1.5176 0.28359-1.7405 0.43663-0.65362 1.9303-2.3135 2.0813-2.3135 0.28838 6.8e-4 2.0667 1.6045 2.2869 2.0623 0.08932 0.18581 0.14094 0.3683 0.16422 0.66689zm-0.16639-121.33-1.7727 0.0021c-0.97503 0.0012-1.8743 0.03187-1.9984 0.06816-0.20187 0.05911-0.22553 0.26883-0.2256 1.9912 0 1.4453 0.04012 1.9294 0.1611 1.9419 0.08866 0.0092 0.90361 0.03129 1.811 0.04917 1.3036 0.02568 1.6891-0.0068 1.8372-0.15487 0.14652-0.14651 0.18738-0.59178 0.18738-2.0424zm-0.32234 134.13-3.7388-0.0336-0.07831 0.468c-0.04309 0.25744-0.08661 1.1513-0.09674 1.9863l-0.01829 1.5182 1.966-0.0357 1.9661-0.0355zm-0.51568-100.69-1.2247-0.0035c-0.67361-0.0019-1.2611 0.01153-1.3053 0.02994-0.04426 0.01832-0.05473 16.003-0.0233 35.522 0.03142 19.519 0.05309 35.565 0.04824 35.658-0.0069 0.13255 0.26536 0.15813 1.2482 0.11684l1.257-0.0529zm-0.0644-32.424v1.0207c0 0.56136-0.05684 1.0401-0.12614 1.0638-0.0693 0.0231-0.52901 0.0233-1.0215 0v4.15e-4c-0.54145-0.02566-0.91216-0.10205-0.93762-0.19335-0.02317-0.08297-0.02487-0.54261-0.0039-1.0212l0.03806-0.87027zm-0.32234 134.02-0.0085 0.93667c-0.0045 0.51516-0.07261 1.001-0.15134 1.0797-0.09532 0.0953-0.42645 0.11268-0.99086 0.0523l-0.84778-0.091v-2.0531l0.99912 0.0376zm-0.12076-129.02c-0.04745 0.19501-0.1197 2.1376-0.16056 4.3169-0.06084 3.2444-0.10831 3.9906-0.2619 4.118-0.13424 0.11142-0.24862 0.11724-0.40242 0.02033-0.19133-0.12058-0.22181-0.609-0.27925-4.4728l-0.06436-4.3373h0.62734c0.61936 7e-5 0.62635 0.0048 0.54116 0.35472zm-0.07181 20.23c-0.01017 2.6839-0.06866 5.3619-0.16543 5.3978-0.08679 0.03213-0.33185 0.01104-0.54455-0.04689-0.21277-0.05792-0.38796-0.18813-0.38928-0.28928-0.0013-0.10129 0.01383-2.5278 0.03374-5.3921l0.03618-5.2078 0.26706 0.24158c0.25245 0.22851 0.27374 0.22938 0.3932 0.01599 0.06945-0.12411 0.17956-0.1928 0.2447-0.15256 0.09644 0.05959 0.13454 2.7494 0.12438 5.4333zm-0.10906 42.928c0.01573 17.309-0.01384 34.612-0.10446 34.758-0.03322 0.0537-0.26005 0.0976-0.50403 0.0976h-0.4436l-0.0037-1.7727c-0.05633-27.169-0.07595-67.822-0.03265-67.943 0.0881-0.24593 0.78152-0.19746 0.92068 0.06436 0.09092 0.17107 0.15201 17.486 0.16774 34.795zm-0.15351 37.339-0.07331 5.3661c-0.04038 2.9513-0.10064 5.3934-0.134 5.4268-0.03336 0.0335-0.11208-0.0223-0.17478-0.12385-0.09615-0.15561-0.15564-0.14675-0.37979 0.056l-0.2657 0.24036-0.01128-1.0192c-0.05162-4.6924-0.0392-10.012 0.02344-10.051 0.04204-0.0262 0.2877-0.0131 0.5459 0.0287zm-0.06057 26.029-0.37058-0.074c-0.20388-0.0408-0.47944-0.0739-0.61243-0.0739-0.13299 0-0.23447-0.0437-0.22559-0.0967 0.0089-0.0532 0.06347-0.35768 0.1214-0.67679 0.05792-0.31904 0.1174-2.2192 0.13224-4.2226 0.02775-3.7472 0.06504-4.0103 0.54184-3.8274 0.10988 0.0421 0.23956 0.17363 0.28819 0.29225 0.04863 0.11869 0.09657 2.12 0.10663 4.4476zm-1.6116-111.47c0 0.71939-0.03629 1.3442-0.08049 1.3884-0.04419 0.04419-0.27628-0.06916-0.51569-0.25174l-0.43534-0.33196v-1.3384c0-0.84107 0.04999-1.3384 0.13428-1.3384 0.07382 0 0.30584 0.12691 0.51569 0.2821 0.37919 0.28033 0.38155 0.29018 0.38155 1.59zm-0.15677 97.271-0.46949 0.36503c-0.25827 0.20076-0.54219 0.4071-0.63085 0.45865-0.12543 0.0729-0.1611-0.27513-0.1611-1.5704v-1.664l0.51704-0.23318c0.28436-0.1282 0.53772-0.20954 0.56311-0.18075 0.02532 0.0288 0.07663 0.67619 0.11382 1.4385zm-0.21516 7.2538c0.04752 0.50933-0.0277 5.6599-0.08902 6.0896-0.11377 0.79777-0.17116 0.92892-0.49916 1.1438-0.22463 0.14715-0.31697 0.15872-0.34944 0.0438-0.02428-0.0859-0.02877-1.6978-0.01-3.582l0.03428-3.4258 0.44916-0.21421c0.33035-0.15754 0.45317-0.1721 0.46406-0.0551zm-0.89141-20.856-0.0022-15.729c-0.0012-8.6507-0.0071-24.669-0.01301-35.596l-0.01067-19.867-1.1873-0.07697c-0.66896-0.04336-1.2504-0.02461-1.3318 0.04296-0.10628 0.08825-0.13102 9.4879-0.09336 35.544 0.02816 19.483 0.07526 35.499 0.10474 35.59 0.03988 0.1235 0.37041 0.15633 1.2935 0.12887zm-0.66188-76.158-0.03658 1.4645-0.03659 1.4645-0.41894 0.04038-0.41908 0.04038v-1.8777c0-1.0327 0.02963-1.8775 0.06571-1.8775 0.03607 0 0.24103 0.16761 0.45553 0.3726zm-0.12153 80.846-0.43588 0.46203c-0.23968 0.25412-0.47533 0.42245-0.52369 0.3741-0.04836-0.0483-0.08794-0.92047-0.08794-1.938v-1.8499l0.39659 0.0302c0.2181 0.0165 0.41357 0.0611 0.43452 0.0988 0.02096 0.0377 0.07817 0.68817 0.12723 1.4456zm-5e-3 -52.551c6e-3 12.427 0.0043 28.105-0.0038 34.842l-0.01477 12.248-0.35079 0.0336c-0.19292 0.0185-0.4183-0.0111-0.50079-0.0652-0.11322-0.0746-0.16067-8.2721-0.19348-33.425-0.02384-18.329-0.02694-33.979-7e-3 -34.777l0.03657-1.4503h1.023zm-1.4461-53.21c-0.01796 2.3238-0.10822 3.0724-0.28332 2.3484-0.09289-0.38391-0.2146-2.9437-0.15175-3.1899 0.02712-0.10641 0.08614-0.52706 0.13102-0.93477 0.04495-0.4077 0.13603-0.74128 0.20256-0.74128 0.07187 0 0.11307 1.0221 0.10149 2.5176zm-0.24728 133.5c-0.05286 0-0.16015-0.36737-0.23833-0.81636-0.22983-1.3201-0.08166-4.7098 0.19389-4.4343 0.1062 0.10619 0.14982 5.2506 0.04445 5.2506zm-0.022646-121.93c-0.03469 1.9164-0.04253 1.9658-0.32058 2.0053-0.23989 0.03413-0.34724-0.09678-0.67814-0.82651-0.81957-1.8075-1.239-3.305-1.9468-6.9494-0.16746-0.86216-0.25642-5.8122-0.12628-7.0264 0.25432-2.3729 1.2287-5.932 2.0858-7.6186 0.20375-0.4009 0.37044-0.79422 0.37044-0.87407 0-0.21346 0.51155-0.17709 0.59576 0.042411 0.03954 0.10315-0.10218 0.63992-0.31502 1.1926-1.6766 4.3537-2.039 10.124-0.90902 14.477 0.35193 1.356 0.75037 2.559 1.036 3.1279 0.21235 0.42303 0.23893 0.73546 0.20785 2.4494zm-0.01897 128.25c0.01882 0.17426-0.04084 0.2596-0.16097 0.42435-0.13326 0.18288-0.30035 0.3337-0.37125 0.33507-0.28082 6e-3 -1.7421-4.5338-2.1977-6.8274-0.16379-0.82443-0.2266-1.9419-0.25324-4.5123-0.01942-1.8791-0.01343-3.6485 0.01328-3.9322 0.13132-1.3949 0.3561-2.9418 0.56921-3.9164 0.12987-0.59403 0.20475-1.1617 0.16638-1.2617-0.03836-0.0999 0.01274-0.28122 0.11354-0.40269 0.10087-0.12151 0.3132-0.62688 0.47193-1.1232 0.45209-1.4139 0.68024-1.8049 1.0533-1.8049h0.32112l-0.0053 2.2561c-0.0052 2.171-0.0186 2.2863-0.35784 3.0573-0.79709 1.8116-1.2488 4.8112-1.2479 8.2872 7.63e-4 3.0808 0.43288 5.4022 1.5752 8.4633 0.19407 0.52005 0.29133 0.78326 0.31014 0.95754z" fill="{{ border_color }}" stroke-width=".069372"/>
</svg>
