<?xml version="1.0" encoding="UTF-8"?>
<svg width="60" height="92.786" enable-background="new 0 0 3047.97 5000" version="1.1" viewBox="0 0 60 92.786" xmlns="http://www.w3.org/2000/svg">
 <g transform="translate(3.5188)" fill="{{ border_color }}" stroke-width=".069372">
  <path d="m10.924 3.9786e-4c-8.3245 0.00662-10.272 0.039173-10.24 0.17383 0.02185 0.09143 0.25381 0.37543 0.51562 0.63086 0.73729 0.71918 1.6438 1.83 1.8926 2.3184 0.28373 0.55692 0.1653 1.1747-0.67383 3.4902-1.4692 4.0543-2.1623 7.5546-2.2598 11.41-0.0161 0.63816-0.017273 1.3631-0.00195 1.6113 0.01533 0.24814 0.054801 1.3048 0.087891 2.3477 0.10108 3.1874 1.1309 7.7457 2.3535 10.416 0.45307 0.98967 1.3237 2.724 2.1348 4.2539 0.98072 1.85 1.0716 2.2573 1.2305 5.5449l0.095703 1.998 1.1211 0.02148c0.80035 0.01569 1.1616-0.02732 1.2637-0.15039 0.07867-0.09477 0.17306-0.71319 0.21094-1.375 0.03787-0.66181 0.08303-1.2174 0.09961-1.2344 0.01664-0.01686 0.22958 0.11602 0.47266 0.29492 0.42872 0.31551 0.44335 0.35562 0.50586 1.3828l0.06445 1.0605h2.707l0.03906-1.123c0.03586-1.0841 0.04999-1.1328 0.42578-1.4004 0.21408-0.15241 0.41129-0.25473 0.43945-0.22656 0.02816 0.02816 0.0915 0.67404 0.14062 1.4336l0.08984 1.3809 0.6582-2e-3c0.36178-6.24e-4 0.95443-0.03638 1.3184-0.08008l0.66211-0.08008-0.0625-1.8848c-0.05556-1.6463-0.02823-2.0225 0.21484-2.9629 0.30781-1.1905 0.47484-1.5666 1.707-3.8223 2.0798-3.8072 2.9047-6.2983 3.5508-10.729 0.16046-1.1004 0.239-3.2682 0.23633-5.4102-0.0027-2.1419-0.0869-4.2599-0.25-5.2637-0.12674-0.77995-0.27815-1.7369-0.33594-2.127-0.22643-1.5282-0.90614-4.4083-1.1523-4.8847-0.20833-0.40305-0.64843-1.7663-0.83789-2.5918-0.30531-1.3308-0.18365-1.6336 1.4531-3.582 0.31418-0.37406 0.53476-0.71719 0.48828-0.76367-0.04648-0.046481-4.7112-0.080672-10.365-0.076172zm-8.2559 0.81055c2.8237-0.030665 16.798 0.022901 16.84 0.064453 0.03239 0.032332-0.10778 0.22055-0.3125 0.41992-0.5359 0.52196-1.7914 1.8884-1.9062 2.0742-0.0589 0.095244 0.06054 0.33772 0.30078 0.61133 1.5265 1.7386 3.0191 7.1011 3.3574 12.057 0.11377 1.6663 0.15862 3.2449 0.13281 4.7363-0.07743 4.4742-0.78203 8.1565-2.1113 11.021-0.25737 0.5547-0.46875 1.05-0.46875 1.1016 0 0.13604-1.5282 2.7631-2.2227 3.8203-0.92876 1.414-3.3211 3.9812-3.625 3.8906-0.06049-0.01803-0.11851-1.0391-0.12891-2.2695l-0.01758-2.2363 0.45117-0.33789c0.89574-0.66861 2.6625-2.5512 3.4004-3.623 1.6966-2.4646 2.5065-4.6064 3.1699-8.3809 0.44648-2.5406 0.55327-7.9711 0.20703-10.508-0.2645-1.9379-1.0863-5.1061-1.8398-7.0898-0.34638-0.91162-1.0529-2.2559-1.1855-2.2559-0.06146 0-0.2583 0.18955-0.43555 0.42188-0.17725 0.23233-0.61744 0.72498-0.98047 1.0957-0.7128 0.72799-0.75559 0.82081-0.47852 1.0508 0.27111 0.22491 0.64705 1.0883 1.2441 2.8555 1.1773 3.4842 1.3869 5.9865 0.8457 10.111-0.18606 1.4182-0.39919 2.7933-0.47266 3.0566-0.25966 0.93049-0.38086 0.66228-0.38086-0.83789 0-1.1 0.05994-1.6458 0.24024-2.1699 0.4503-1.3089 0.57308-2.4181 0.49219-4.4492-0.04197-1.054-0.16206-2.2369-0.26758-2.627-0.48602-1.7967-0.61011-2.1949-0.85742-2.7539-0.14547-0.32889-0.32181-0.59766-0.39062-0.59766-0.07736 0-0.09855 0.52983-0.05664 1.3867 0.03732 0.76233 0.09054 5.9085 0.11914 11.438l0.05273 10.053-0.32227 0.55273c-0.17773 0.30316-0.37724 0.55078-0.44141 0.55078-0.06702 0-0.11783-1.7155-0.12109-4.0293-0.010545-7.5907-0.1179-18.597-0.19531-20.143-0.042596-0.84995-0.14071-1.6228-0.21875-1.7168-0.11176-0.13465-0.45046 0.15156-1.5996 1.3516l-1.459 1.5234-0.41992-0.47266c-1.6731-1.8813-2.6084-2.7963-2.7441-2.6836-0.10954 0.090879-0.1429 3.426-0.125 12.893 0.01325 7.0233-0.01624 12.795-0.06641 12.826-0.05016 0.03101-0.23057-0.09259-0.40039-0.27344l-0.30859-0.32812 0.0332-11.787c0.02851-10.148 0.0082-11.785-0.15039-11.785-0.16885 0-0.29161 0.33585-1.1094 3.0293-0.24475 0.80625-0.51367 3.1286-0.51367 4.4395 6.94e-4 1.4185 0.25309 3.2089 0.58594 4.1523 0.25862 0.73306 0.40258 2.749 0.20508 2.8711-0.08083 0.04995-0.14648 0.05379-0.14648 0.0078s-0.17185-0.8312-0.38281-1.7441c-0.56087-2.4269-0.66491-3.2252-0.65624-5.0449 0.01381-2.8878 0.66645-6.2755 1.7461-9.0645 0.5692-1.4703 0.57235-1.447-0.29883-2.3047-0.42282-0.41623-0.82852-0.72025-0.90039-0.67578-0.20007 0.12362-1.4846 2.8279-2 4.2109-0.9801 2.6303-1.3507 4.6374-1.457 7.8594-0.09012 2.7297 0.13062 5.2032 0.66992 7.4766 1.3675 5.7641 3.647 9.9356 6.4609 11.824 0.57003 0.38252 0.68038 0.52408 0.75586 0.9707 0.11938 0.70642-0.06448 4.2227-0.2207 4.2227-0.16656 0-1.3825-1.2725-2.2793-2.3848-1.4896-1.8475-3.2268-4.7056-3.8887-6.3984-1.12-2.8645-1.5544-4.4947-2.0703-7.7832-0.46486-2.963-0.43366-8.4559 0.0625-11.088 0.29275-1.5528 0.99724-3.8958 1.6367-5.4414 0.54825-1.3252 1.5628-3.297 1.8906-3.6758 0.17627-0.20361 0.097851-0.32113-0.91797-1.3555-1.2845-1.308-1.6-1.7082-1.3477-1.7109zm13.893 4.7715c0.05752 0 0.13448 0.1005 0.17188 0.22461 0.0374 0.12411 0.30432 0.86451 0.5918 1.6445 0.58308 1.5822 1.1009 3.4737 1.3789 5.0273 0.29872 1.6697 0.40803 3.9656 0.34375 6.2754-0.06429 2.3098-0.30214 4.6338-0.69531 6.3594-0.61311 2.6905-1.2723 4.3571-1.7539 4.4258-0.28408 0.04051-0.29058 0.01742-0.30078-1.418-0.0056-0.80264-0.02711-1.7799-0.04883-2.1699-0.03053-0.54825 0.04405-0.91358 0.33008-1.6113 0.92904-2.2663 1.2109-4.2154 1.2109-8.3789 0-3.0937-0.01332-3.2865-0.36524-4.7715-0.20166-0.85092-0.59808-2.2139-0.8789-3.0293-0.28081-0.81547-0.53856-1.5707-0.57422-1.6797-0.06507-0.19896 0.39408-0.89844 0.58984-0.89844zm-10.945 0.0039062c0.13841 0.0098482 0.28797 0.073846 0.33008 0.18359 0.03954 0.10315-0.10162 0.64067-0.31445 1.1934-1.6766 4.3537-2.0401 10.123-0.91016 14.477 0.35193 1.356 0.7515 2.5581 1.0371 3.127 0.21235 0.42303 0.23811 0.73719 0.20703 2.4512-0.03469 1.9164-0.042267 1.9644-0.32031 2.0039-0.23989 0.03413-0.34683-0.096443-0.67773-0.82617-0.81957-1.8075-1.2395-3.3047-1.9473-6.9492-0.16746-0.86216-0.2571-5.8132-0.12695-7.0273 0.25432-2.3729 1.2288-5.9305 2.0859-7.6172 0.20375-0.4009 0.37109-0.79515 0.37109-0.875 0-0.10673 0.12721-0.15047 0.26562-0.14062zm3.4121 3.8906c0.18786-0.02692 0.45989 0.20112 0.9668 0.8125 0.388 0.46806 0.72439 0.90599 0.74805 0.97266 0.05078 0.14332 0.53437 0.16601 0.54297 0.02539 0.0033-0.05321 0.30874-0.42997 0.67774-0.83594 0.45897-0.50489 0.8032-0.76496 1.0898-0.82227l0.41992-0.08203v6.9297l-2.2129-0.03906c-2.503-0.0433-2.6514 9e-3 -2.0332 0.71289 0.36746 0.41852 0.3771 0.47071 0.39062 1.877 0.02081 2.1674-0.031 5.5647-0.08594 5.6211-0.02657 0.02727-0.22447-0.0242-0.43945-0.11328l-0.39062-0.16211-0.0039-2.4668c-0.0027-1.3564-0.02405-4.1485-0.04687-6.2051-0.02282-2.0563-0.0061-4.2893 0.03711-4.9629 0.07063-1.1015 0.10468-1.228 0.33984-1.2617zm4.0586 2.3047-1.7734 2e-3c-0.97503 0.0012-1.8739 0.03012-1.998 0.06641-0.20187 0.05911-0.22649 0.26981-0.22656 1.9922 0 1.4453 0.04113 1.9289 0.16211 1.9414 0.08866 0.0092 0.90316 0.03095 1.8105 0.04883 1.3036 0.02568 1.6899-0.0062 1.8379-0.1543 0.14651-0.14651 0.1875-0.59232 0.1875-2.043zm2.8066 0.89258c0.07665 0.03078 0.19299 0.34862 0.29102 0.92969 0.08779 0.52054 0.11453 1.447 0.0918 2.3086-0.02273 0.86154-0.09476 1.6591-0.20312 1.918-0.1026 0.24516-0.13633-0.14397-0.14258-1.625-0.0045-1.0709-0.04623-2.3044-0.0918-2.7402-0.0591-0.56545-0.02196-0.8218 0.05469-0.79102zm-5.7617 0.12891h2.0527v1.0195c0 0.56136-0.05765 1.0408-0.12695 1.0645-0.0693 0.0231-0.52902 0.0233-1.0215 0-0.54145-0.02566-0.91204-0.10206-0.9375-0.19336-0.02317-0.08297-0.02488-0.54288-0.0039-1.0215zm-3.998 0.12695c0.07187 0 0.11315 1.0221 0.10156 2.5176-0.01796 2.3238-0.1081 3.0736-0.2832 2.3496-0.09289-0.38391-0.21324-2.9433-0.15039-3.1895 0.02712-0.10641 0.085975-0.52785 0.13086-0.93555 0.04495-0.4077 0.13464-0.74219 0.20117-0.74219zm7.3203 3.998c0.0582 0 0.07739 6.2866 0.02148 7.0898-0.0052 0.0754-0.65157 0.38672-0.80273 0.38672-0.1298 6.9e-5 -0.10696-5.8146 0.02539-6.502 0.08449-0.43871 0.49953-0.97461 0.75586-0.97461zm-2.8828 0.51562h0.62891c0.61936 7e-5 0.6262 0.0036 0.54102 0.35352-0.04745 0.19501-0.12125 2.139-0.16211 4.3184-0.06084 3.2444-0.10813 3.9898-0.26172 4.1172-0.13424 0.11142-0.24854 0.11644-0.40234 0.01953-0.19133-0.12057-0.22186-0.60889-0.2793-4.4727zm2.9238 7.9922c0.09483 0 0.11528 0.19835 0.06055 0.59766-0.0451 0.32896-0.08203 1.047-0.08203 1.5938v0.99414l-0.64062 0.82422c-0.35151 0.45377-0.8641 1.0809-1.1387 1.3926l-0.49805 0.56641-0.98438-0.79688c-0.54082-0.4385-1.1012-0.9487-1.2461-1.1328-0.23642-0.30059-0.26367-0.51644-0.26367-2.1211 0-0.98314 0.05225-1.7891 0.11523-1.7891 0.063 0 0.56519 0.46399 1.1172 1.0312 0.552 0.56726 1.0456 1.0312 1.0957 1.0312 0.05009 0 0.59336-0.493 1.207-1.0957 0.61367-0.60278 1.1797-1.0957 1.2578-1.0957zm0.02734 5.3008c0.02373 0.02761 0.07872 0.75391 0.12305 1.6152l0.08203 1.5664-0.51758 0.20703c-0.28407 0.1137-0.56148 0.20703-0.61718 0.20703-0.0557 0-0.10767-0.62446-0.11523-1.3867l-0.01367-1.3848 0.50781-0.4375c0.27929-0.24038 0.52706-0.4144 0.55078-0.38672zm-4.6855 0.24414c0.07382 0 0.30578 0.12606 0.51562 0.28125 0.37919 0.28033 0.38086 0.29001 0.38086 1.5898 0 0.71939-0.03588 1.3445-0.08008 1.3887-0.04419 0.04419-0.27622-0.06937-0.51562-0.25195l-0.43555-0.33203v-1.3379c0-0.84107 0.05048-1.3379 0.13477-1.3379zm1.8027 1.5098 0.26758 0.24024c0.25245 0.22851 0.27312 0.23097 0.39258 0.01758 0.06945-0.12411 0.179-0.19453 0.24414-0.1543 0.09644 0.05959 0.13516 2.7497 0.125 5.4336-0.01017 2.6839-0.06924 5.3626-0.16602 5.3984-0.08679 0.03213-0.33223 0.01105-0.54492-0.04687-0.21276-0.05792-0.38736-0.18792-0.38867-0.28906-0.0013-0.10129 0.01329-2.5283 0.0332-5.3926zm-3.6758 7.127c0.03607 0 0.24058 0.16805 0.45508 0.37305l0.39062 0.37305-0.07422 2.9297-0.41797 0.03906-0.41992 0.04102v-1.877c0-1.0327 0.03033-1.8789 0.06641-1.8789zm8.2422 0.01563c0.08387 0.08387 0.18102 3.364 0.10547 3.5625-0.03378 0.08866-0.22213 0.16016-0.41797 0.16016-0.31134 0-0.36569-0.05974-0.43555-0.48242-0.04398-0.2659-0.08127-0.95167-0.08203-1.5234-0.0013-0.98675 0.01889-1.0577 0.38477-1.4082 0.212-0.20305 0.41208-0.34182 0.44531-0.30859zm-3.4629 6.4188c-0.2477-0.01119-0.58982-0.0061-0.99805 0.01367l-1.334 0.06445 0.05859 2.0625-0.45312 0.3711c-0.24905 0.20397-0.47581 0.34839-0.50391 0.32031-0.02809-0.0281-0.06932-0.65896-0.0918-1.4023l-0.04102-1.3516-1.0957-0.03906c-1.1608-0.0404-1.7308 0.03882-1.6172 0.22266 0.03787 0.0613 0.074881 0.98889 0.082031 2.0625 0.01235 1.8565-0.00784 2.0141-0.39648 3.2246-0.22477 0.69997-0.66875 1.729-0.98828 2.2852-0.76178 1.3259-1.7925 3.3659-2.123 4.207-0.14492 0.36864-0.33854 0.84589-0.43164 1.0586-0.88484 2.0225-1.5883 5.6868-1.7441 9.0879-0.28436 6.2071 0.35565 11.235 2.0605 16.18 0.58627 1.7 0.73645 2.5371 0.54297 3.0352-0.10912 0.28103-0.99327 1.4245-1.7344 2.2441-0.55984 0.61916-0.91144 0.59883 10.023 0.58203 5.6367-9e-3 10.276-0.06137 10.311-0.11718 0.03455-0.0557-0.34868-0.5296-0.85156-1.0527-0.96906-1.0081-1.566-1.8-1.7129-2.2695-0.11918-0.38085 0.21187-1.6724 0.95117-3.7109 1.3825-3.812 1.8424-6.0712 2.0586-10.119 0.09285-1.7382 0.09603-3.3121 2e-3 -4.8164-0.09407-1.5044-0.28516-2.9398-0.57812-4.4024-0.7402-3.6949-1.5012-5.6675-4.0332-10.461-0.41742-0.79017-0.80423-1.6891-0.86133-1.998-0.0571-0.30898-0.13786-1.6065-0.17969-2.8828l-0.07617-2.3203-2.6426-0.07422v1.3574c0 1.5174-0.06859 1.6115-0.75586 1.0332-0.37295-0.31385-0.38591-0.36353-0.35352-1.2578 0.01852-0.51176-0.01005-0.98771-0.0625-1.0586-0.02921-0.0395-0.18199-0.06694-0.42969-0.07812zm-1.3516 0.71484c0.04954 0 0.28672-0.0125 0.54492 0.0293l0.46875 0.07617-0.07227 5.3652c-0.03975 2.9513-0.1014 5.3944-0.13476 5.4277-0.03336 0.0335-0.11112-0.02345-0.17383-0.125-0.09615-0.15561-0.15672-0.14611-0.38086 0.05664l-0.26562 0.24023-0.0098-1.0195c-0.0451-4.6925-0.0392-10.012 0.02344-10.051zm-3.752 0.06836 0.39648 0.0293c0.2181 0.0165 0.4146 0.06191 0.43555 0.09961 0.02096 0.0377 0.07789 0.6879 0.12695 1.4453l0.08789 1.377-0.43555 0.46094c-0.23991 0.2539-0.47508 0.42335-0.52344 0.375-0.04836-0.0483-0.087892-0.92001-0.087891-1.9375zm8.1406 0.0039h0.35352l-0.01563 1.875c-0.0083 1.0316-0.05147 1.8991-0.09766 1.9277-0.04628 0.0286-0.2691-0.14417-0.49414-0.38281-0.40555-0.42997-0.4082-0.44438-0.4082-1.7715 0-1.4539 0.07731-1.6484 0.66211-1.6484zm-5.4707 2.707c0.12966 0 0.16602 0.5197 0.16602 2.3613v2.3613l-0.50195 0.28124c-1.1226 0.62898-3.6957 3.7708-4.6172 5.6328-0.92141 1.8619-1.3896 3.3897-1.9746 6.4453-0.39612 2.0694-0.51127 7.9461-0.20117 10.25 0.44669 3.3185 2.0291 8.3656 2.9277 9.3398 0.13084 0.14193 2.1758-1.9141 2.1758-2.1875 0-0.0972-0.05857-0.21315-0.13086-0.25781-0.34652-0.21415-1.2773-2.5999-1.8164-4.6582-0.3692-1.4096-0.62981-3.2982-0.62891-4.5566 6.94e-4 -0.94659 0.33777-4.1616 0.58203-5.5449 0.40368-2.2858 0.57617-2.4018 0.57617-0.38868 0 1.1579-0.06214 1.623-0.33984 2.5469-0.41991 1.3971-0.55588 3.879-0.30469 5.5762 0.25474 1.7206 1.1515 4.5137 1.4492 4.5137 0.08686 0 0.10525-0.70895 0.05273-2.0957-0.04356-1.1523-0.092511-6.3296-0.10937-11.506-0.02782-8.5434-0.011763-9.447 0.18164-9.8066 0.22692-0.42192 0.61403-0.80645 0.62305-0.61914 0.0029 0.0619 0.03085 4.8401 0.0625 10.619 0.06791 12.398 0.13989 15.139 0.39844 15.354 0.14325 0.11881 0.23892 0.07488 0.46875-0.21876 0.15914-0.20333 0.58478-0.68936 0.94531-1.0801 0.36053-0.3907 0.85282-0.93231 1.0957-1.2031l0.44141-0.49219 0.9668 1.0098c0.53162 0.55524 1.2188 1.2877 1.5273 1.627 0.3085 0.33923 0.62754 0.59354 0.70898 0.56641 0.11003-0.0366 0.15242-3.3438 0.16602-12.861 0.01201-8.4013 0.06207-12.827 0.14648-12.855 0.07083-0.0236 0.25068 0.11104 0.39844 0.29883 0.2684 0.34124 0.26777 0.34952 0.22656 12.061-0.03337 9.4876-0.0094 11.719 0.125 11.719 0.22996 0 0.23508-0.0116 0.74414-1.7637 1.0327-3.5536 1.1518-6.9142 0.34375-9.7109-0.27028-0.93542-0.40275-2.834-0.19727-2.8281 0.12917 4e-3 0.33616 0.81299 0.85742 3.3438 0.67624 3.2831 0.17154 7.8488-1.3203 11.926-0.28547 0.77996-0.55029 1.5141-0.58789 1.6309-0.04516 0.14 0.21077 0.50734 0.75391 1.0801l0.82422 0.86914 0.33594-0.6289c2.3347-4.3729 3.1898-7.7161 3.1953-12.492 0.0054-4.5965-0.8553-8.5401-2.8125-12.891-1.1074-2.4615-2.5006-4.2425-4.3574-5.5723l-0.67969-0.48828-0.0059-2.3516c-0.0039-1.552 0.03823-2.3535 0.12695-2.3535 0.18883 0 1.3322 1.1774 2.2559 2.3223 3.0085 3.7293 4.7346 7.3772 5.5977 11.83 0.73757 3.8053 0.82501 4.7801 0.74023 8.3965-0.08547 3.6465-0.33932 5.699-0.91602 7.4258-0.09476 0.28359-0.24245 0.74758-0.32812 1.0312-0.57156 1.8915-2.0374 5.0417-2.6836 5.7695-0.18613 0.20965-0.13774 0.2909 0.62695 1.0781 0.45467 0.46807 1.0204 1.0331 1.2578 1.2559 0.90829 0.8521 1.5142 0.78937-7.8574 0.82032-7.2611 0.024-8.4961 0.0016-8.4961-0.1543 0-0.10052 0.071491-0.23044 0.16016-0.28711 0.08866-0.0566 0.59085-0.58381 1.1152-1.1719l0.95312-1.0684-0.32812-0.34961c-0.70427-0.75019-1.604-2.85-2.2207-5.1836-0.71141-2.6918-0.99596-4.3836-1.2246-7.2695-0.12896-1.6273-0.18459-6.4284-0.076172-6.5371 0.03017-0.0303 0.11937-0.78033 0.19922-1.666 0.13992-1.5528 0.6005-3.9496 0.99023-5.1543 0.46396-1.4342 2.0263-4.6748 2.9648-6.1504 1.1556-1.817 3.8489-4.9375 4.2617-4.9375zm0.08594 6.3281c-0.03835 0 0.07805 0.67712 0.11524 1.4395l0.06641 1.3867-0.46875 0.36523c-0.25804 0.20106-0.5422 0.40548-0.63086 0.45703-0.12543 0.0729-0.16211-0.27507-0.16211-1.5703v-1.6641l0.51758-0.23243c0.28436-0.1282 0.60089-0.18164 0.5625-0.18164zm3.002 0.11719c0.11037 0 0.27648 0.12324 0.52344 0.35547 0.37211 0.34998 0.37485 0.36926 0.33594 1.5781-0.02171 0.67361-0.04012 1.2691-0.04102 1.3223-3e-3 0.18398-0.23983 0.09608-0.63477-0.23633-0.39598-0.33333-0.39648-0.33523-0.39648-1.6758 0-0.93904 0.0293-1.3322 0.21289-1.3438zm-1.5957 2.9668c0.28838 6.8e-4 2.067 1.6046 2.2871 2.0625 0.08932 0.18581 0.14079 0.36742 0.16406 0.66601 0.02327 0.29861 0.01835 0.71295-0.0059 1.3633-0.03226 0.8686-0.10493 1.5801-0.16016 1.5801-0.05522 0-0.5235-0.43499-1.041-0.96679-0.51752-0.53181-1.036-0.9668-1.1523-0.9668-0.11633 0-0.69164 0.49167-1.2793 1.0938-0.58765 0.60209-1.1205 1.0624-1.1836 1.0234-0.06313-0.039-0.10491-0.13816-0.0918-0.22266 0.01318-0.0845 0.05763-0.79644 0.09766-1.5801 0.0514-1.0063 0.13433-1.5173 0.2832-1.7402 0.43663-0.65362 1.931-2.3125 2.082-2.3125zm-5.4492 1.8691h0.32031l-0.00586 2.2559c-0.00564 2.171-0.018186 2.2857-0.35742 3.0566-0.79709 1.8116-1.2489 4.8111-1.248 8.2871 7.63e-4 3.0808 0.43382 5.4018 1.5762 8.4629 0.19407 0.52005 0.28978 0.7847 0.30859 0.95898 0.01882 0.17426-0.04003 0.25908-0.16016 0.42383-0.13326 0.18288-0.30019 0.33262-0.37109 0.33399-0.28082 6e-3 -1.7416-4.5326-2.1973-6.8262-0.16379-0.82443-0.22727-1.9413-0.25391-4.5117-0.01942-1.8791-0.013038-3.6499 0.013672-3.9336 0.13132-1.3949 0.35525-2.9414 0.56836-3.916 0.12987-0.59403 0.20633-1.1618 0.16797-1.2617-0.03836-0.0999 0.012484-0.28088 0.11328-0.40235 0.10087-0.12151 0.31198-0.62668 0.4707-1.123 0.45209-1.4139 0.68161-1.8047 1.0547-1.8047zm11.033 0.34375c0.23796 0.08187 0.45778 0.50119 0.9043 1.5898 0.75005 1.8286 1.3743 4.3453 1.7246 6.9609 0.08325 0.62168 0.13148 1.3737 0.14844 2.1856 0.05088 2.4355-0.18057 5.4149-0.60352 7.0684-0.53264 2.0824-1.964 5.7656-2.2402 5.7656-0.05896 0-0.18025-0.08765-0.26953-0.19531-0.1332-0.16059-0.0896-0.3844 0.24609-1.2559 1.0733-2.7859 1.8097-7.2527 1.6191-9.8281-0.21394-2.8912-0.97299-6.3081-1.7305-7.793-0.22934-0.44953-0.26172-0.75762-0.26172-2.457 0-1.6799 0.02856-1.9534 0.21094-2.0234 0.09233-0.03544 0.17263-0.04487 0.25195-0.01758zm-5.6113 2.7168c-0.0468 0 0.0986 0.01815 0.1582 0.04101 0.10988 0.0421 0.23848 0.17435 0.28711 0.29297 0.04863 0.11869 0.09775 2.1198 0.10742 4.4473l0.01758 4.2305-0.36914-0.07421c-0.20385-0.04098-0.4803-0.07227-0.61328-0.07227-0.13299 0-0.23349-0.04466-0.22461-0.09766 0.0089-0.0532 0.06317-0.35667 0.12109-0.67578 0.05792-0.31904 0.11797-2.2193 0.13281-4.2226 0.02428-3.2788 0.05588-3.8901 0.38281-3.8691zm1.7949 1.791c0.08751-0.0045 0.20652 0.05996 0.36328 0.14453l0.29688 0.16016 0.06836 5.4141c0.03823 2.9782 0.03008 6.2995-0.01953 7.3809-0.08734 1.9052-0.09937 1.9668-0.37109 1.9668-0.19077 0-0.54064-0.30914-1.0938-0.9668-0.44724-0.53181-0.85407-0.9668-0.9043-0.9668-0.05022 0-0.45404 0.406-0.89844 0.90235-0.65272 0.72904-0.88164 0.90234-1.1875 0.90234h-0.37891v-6.832h2.25c1.4633 0 2.2783-0.0486 2.334-0.13867 0.04703-0.0762-0.0295-0.26565-0.16992-0.41992-0.52237-0.57413-0.54688-0.74991-0.54688-4.2031 0-2.6831-0.0047-3.3303 0.25781-3.3438zm-3.3203 0.19922c0.07336-0.0087 0.10784 0.01767 0.11328 0.07617 0.04752 0.50933-0.02852 5.6582-0.08984 6.0879-0.11377 0.79777-0.17006 0.92962-0.49805 1.1445-0.22463 0.14715-0.31714 0.15985-0.34961 0.04493-0.02428-0.0859-0.02853-1.6978-0.0098-3.582l0.0332-3.4258 0.44922-0.21484c0.16518-0.07877 0.2782-0.12215 0.35156-0.13086zm-3.3047 6.3945c0.1062 0.10619 0.1503 5.25 0.044922 5.25-0.05286 0-0.1601-0.36742-0.23828-0.8164-0.22983-1.3201-0.08219-4.7091 0.19336-4.4336zm9.9355 0.03711c0.21859 0.29811 0.34726 1.98 0.25 3.2656-0.07957 1.0526-0.27469 2.0315-0.34961 1.7539-0.01915-0.0708-0.03826-1.2763-0.04297-2.6777-0.0066-1.9784-0.05589-2.3418 0.14258-2.3418zm-6.8555 2.1484-0.07813 0.46875c-0.04309 0.25744-0.08557 1.1513-0.0957 1.9863l-0.01953 1.5176 3.9336-0.07031v-3.8672zm0.83789 0.86133 1 0.03711 0.99805 0.03906-0.0078 0.93555c-0.0045 0.51515-0.07166 1.0013-0.15039 1.0801-0.09532 0.0953-0.42777 0.11312-0.99219 0.05274l-0.84766-0.0918z"/>
  <path d="m41.962 3.959e-4c-8.3245 0.0066-10.272 0.03917-10.24 0.17383 0.02185 0.09143 0.25381 0.37543 0.51562 0.63086 0.73729 0.71918 1.6438 1.83 1.8926 2.3184 0.28373 0.55692 0.1653 1.1747-0.67383 3.4902-1.4692 4.0543-2.1623 7.5546-2.2598 11.41-0.0161 0.63816-0.01727 1.3631-0.0019 1.6113 0.01533 0.24814 0.0548 1.3048 0.08789 2.3477 0.10108 3.1874 1.1309 7.7457 2.3535 10.416 0.45307 0.98967 1.3237 2.724 2.1348 4.2539 0.98072 1.85 1.0716 2.2573 1.2305 5.5449l0.0957 1.998 1.1211 0.02148c0.80035 0.01569 1.1616-0.02732 1.2637-0.15039 0.07867-0.09477 0.17306-0.71319 0.21094-1.375 0.03787-0.66181 0.08303-1.2174 0.09961-1.2344 0.01664-0.01686 0.22958 0.11602 0.47266 0.29492 0.42872 0.31551 0.44335 0.35562 0.50586 1.3828l0.06445 1.0605h2.707l0.03906-1.123c0.03586-1.0841 0.04999-1.1328 0.42578-1.4004 0.21408-0.15241 0.41129-0.25473 0.43945-0.22656 0.02816 0.02816 0.0915 0.67404 0.14062 1.4336l0.08984 1.3809 0.6582-2e-3c0.36178-6.24e-4 0.95443-0.03638 1.3184-0.08008l0.66211-0.08008-0.0625-1.8848c-0.05556-1.6463-0.02823-2.0225 0.21484-2.9629 0.30781-1.1905 0.47484-1.5666 1.707-3.8223 2.0798-3.8072 2.9047-6.2983 3.5508-10.729 0.16046-1.1004 0.239-3.2682 0.23633-5.4102-0.0027-2.1419-0.0869-4.2599-0.25-5.2637-0.12674-0.77995-0.27815-1.7369-0.33594-2.127-0.22643-1.5282-0.90614-4.4083-1.1523-4.8847-0.20833-0.40305-0.64843-1.7663-0.83789-2.5918-0.30531-1.3308-0.18365-1.6336 1.4531-3.582 0.31418-0.37406 0.53476-0.71719 0.48828-0.76367s-4.7112-0.08067-10.365-0.07617zm-8.2559 0.81055c2.8237-0.03066 16.798 0.0229 16.84 0.06445 0.03239 0.03233-0.10778 0.22055-0.3125 0.41992-0.5359 0.52196-1.7914 1.8884-1.9062 2.0742-0.0589 0.09524 0.06054 0.33772 0.30078 0.61133 1.5265 1.7386 3.0191 7.1011 3.3574 12.057 0.11377 1.6663 0.15862 3.2449 0.13281 4.7363-0.07743 4.4742-0.78203 8.1565-2.1113 11.021-0.25737 0.5547-0.46875 1.05-0.46875 1.1016 0 0.13604-1.5282 2.7631-2.2227 3.8203-0.92876 1.414-3.3211 3.9812-3.625 3.8906-0.06049-0.01803-0.11851-1.0391-0.12891-2.2695l-0.01758-2.2363 0.45117-0.33789c0.89574-0.66861 2.6625-2.5512 3.4004-3.623 1.6966-2.4646 2.5065-4.6064 3.1699-8.3809 0.44648-2.5406 0.55327-7.9711 0.20703-10.508-0.2645-1.9379-1.0863-5.1061-1.8398-7.0898-0.34638-0.91162-1.0529-2.2559-1.1855-2.2559-0.06146 0-0.2583 0.18955-0.43555 0.42188-0.17725 0.23233-0.61744 0.72498-0.98047 1.0957-0.7128 0.72799-0.75559 0.82081-0.47852 1.0508 0.27111 0.22491 0.64705 1.0883 1.2441 2.8555 1.1773 3.4842 1.3869 5.9865 0.8457 10.111-0.18606 1.4182-0.39919 2.7933-0.47266 3.0566-0.25966 0.93049-0.38086 0.66228-0.38086-0.83789 0-1.1 0.05994-1.6458 0.24024-2.1699 0.4503-1.3089 0.57308-2.4181 0.49219-4.4492-0.04197-1.054-0.16206-2.2369-0.26758-2.627-0.48602-1.7967-0.61011-2.1949-0.85742-2.7539-0.14547-0.32889-0.32181-0.59766-0.39062-0.59766-0.07736 0-0.09855 0.52983-0.05664 1.3867 0.03732 0.76233 0.09054 5.9085 0.11914 11.438l0.05273 10.053-0.32227 0.55273c-0.17773 0.30316-0.37724 0.55078-0.44141 0.55078-0.06702 0-0.11783-1.7155-0.12109-4.0293-0.01055-7.5907-0.1179-18.597-0.19531-20.143-0.0426-0.84995-0.14071-1.6228-0.21875-1.7168-0.11176-0.13465-0.45046 0.15156-1.5996 1.3516l-1.459 1.5234-0.41992-0.47266c-1.6731-1.8813-2.6084-2.7963-2.7441-2.6836-0.10954 0.090879-0.1429 3.426-0.125 12.893 0.01325 7.0233-0.01624 12.795-0.06641 12.826-0.05016 0.03101-0.23057-0.09259-0.40039-0.27344l-0.30859-0.32812 0.0332-11.787c0.02851-10.148 0.0082-11.785-0.15039-11.785-0.16885 0-0.29161 0.33585-1.1094 3.0293-0.24475 0.80625-0.51367 3.1286-0.51367 4.4395 6.94e-4 1.4185 0.25309 3.2089 0.58594 4.1523 0.25862 0.73306 0.40258 2.749 0.20508 2.8711-0.08083 0.04995-0.14648 0.05379-0.14648 0.0078s-0.17185-0.8312-0.38281-1.7441c-0.56087-2.4269-0.66491-3.2252-0.65624-5.0449 0.01381-2.8878 0.66645-6.2755 1.7461-9.0645 0.5692-1.4703 0.57235-1.447-0.29883-2.3047-0.42282-0.41623-0.82852-0.72025-0.90039-0.67578-0.20007 0.12362-1.4846 2.8279-2 4.2109-0.9801 2.6303-1.3507 4.6374-1.457 7.8594-0.09012 2.7297 0.13062 5.2032 0.66992 7.4766 1.3675 5.7641 3.647 9.9356 6.4609 11.824 0.57003 0.38252 0.68038 0.52408 0.75586 0.9707 0.11938 0.70642-0.06448 4.2227-0.2207 4.2227-0.16656 0-1.3825-1.2725-2.2793-2.3848-1.4896-1.8475-3.2268-4.7056-3.8887-6.3984-1.12-2.8645-1.5544-4.4947-2.0703-7.7832-0.46486-2.963-0.43366-8.4559 0.0625-11.088 0.29275-1.5528 0.99724-3.8958 1.6367-5.4414 0.54825-1.3252 1.5628-3.297 1.8906-3.6758 0.17628-0.20361 0.09785-0.32113-0.91797-1.3555-1.2845-1.308-1.6-1.7082-1.3477-1.7109zm13.893 4.7715c0.05752 0 0.13448 0.1005 0.17188 0.22461 0.0374 0.12411 0.30432 0.86451 0.5918 1.6445 0.58308 1.5822 1.1009 3.4737 1.3789 5.0273 0.29872 1.6697 0.40803 3.9656 0.34375 6.2754-0.06429 2.3098-0.30214 4.6338-0.69531 6.3594-0.61311 2.6905-1.2723 4.3571-1.7539 4.4258-0.28408 0.04051-0.29058 0.01742-0.30078-1.418-0.0056-0.80264-0.02711-1.7799-0.04883-2.1699-0.03053-0.54825 0.04405-0.91358 0.33008-1.6113 0.92904-2.2663 1.2109-4.2154 1.2109-8.3789 0-3.0937-0.01332-3.2865-0.36524-4.7715-0.20166-0.85092-0.59808-2.2139-0.8789-3.0293-0.28081-0.81547-0.53856-1.5707-0.57422-1.6797-0.06507-0.19896 0.39408-0.89844 0.58984-0.89844zm-10.945 0.00391c0.13841 0.00985 0.28797 0.073846 0.33008 0.18359 0.03954 0.10315-0.10162 0.64067-0.31445 1.1934-1.6766 4.3537-2.0401 10.123-0.91016 14.477 0.35193 1.356 0.7515 2.5581 1.0371 3.127 0.21235 0.42303 0.23811 0.73719 0.20703 2.4512-0.03469 1.9164-0.04227 1.9644-0.32031 2.0039-0.23989 0.03413-0.34683-0.09644-0.67773-0.82617-0.81957-1.8075-1.2395-3.3047-1.9473-6.9492-0.16746-0.86216-0.2571-5.8132-0.12695-7.0273 0.25432-2.3729 1.2288-5.9305 2.0859-7.6172 0.20375-0.4009 0.37109-0.79515 0.37109-0.875 0-0.10673 0.12721-0.15047 0.26562-0.14062zm3.4121 3.8906c0.18786-0.02692 0.45989 0.20112 0.9668 0.8125 0.388 0.46806 0.72439 0.90599 0.74805 0.97266 0.05078 0.14332 0.53437 0.16601 0.54297 0.02539 0.0033-0.05321 0.30874-0.42997 0.67774-0.83594 0.45897-0.50489 0.8032-0.76497 1.0898-0.82227l0.41992-0.08203v6.9297l-2.2129-0.03906c-2.503-0.0433-2.6514 9e-3 -2.0332 0.71289 0.36746 0.41852 0.3771 0.47071 0.39062 1.877 0.02081 2.1674-0.031 5.5647-0.08594 5.6211-0.02657 0.02727-0.22447-0.0242-0.43945-0.11328l-0.39062-0.16211-0.0039-2.4668c-0.0027-1.3564-0.02405-4.1485-0.04687-6.2051-0.02282-2.0563-0.0061-4.2893 0.03711-4.9629 0.07063-1.1015 0.10468-1.228 0.33984-1.2617zm4.0586 2.3047-1.7734 2e-3c-0.97503 0.0012-1.8739 0.03012-1.998 0.06641-0.20187 0.05911-0.22649 0.26981-0.22656 1.9922 0 1.4453 0.04113 1.9289 0.16211 1.9414 0.08866 0.0092 0.90316 0.03095 1.8105 0.04883 1.3036 0.02568 1.6899-0.0062 1.8379-0.1543 0.14651-0.14651 0.1875-0.59232 0.1875-2.043zm2.8066 0.89258c0.07665 0.03078 0.19299 0.34862 0.29102 0.92969 0.08779 0.52054 0.11453 1.447 0.0918 2.3086-0.02273 0.86154-0.09476 1.6591-0.20312 1.918-0.1026 0.24516-0.13633-0.14397-0.14258-1.625-0.0045-1.0709-0.04623-2.3044-0.0918-2.7402-0.0591-0.56545-0.02196-0.8218 0.05469-0.79102zm-5.7617 0.12891h2.0527v1.0195c0 0.56136-0.05765 1.0408-0.12695 1.0645-0.0693 0.0231-0.52902 0.0233-1.0215 0-0.54145-0.02566-0.91204-0.10206-0.9375-0.19336-0.02317-0.08297-0.02488-0.54288-0.0039-1.0215zm-3.998 0.12695c0.07187 0 0.11315 1.0221 0.10156 2.5176-0.01796 2.3238-0.1081 3.0736-0.2832 2.3496-0.09289-0.38391-0.21324-2.9433-0.15039-3.1895 0.02712-0.10641 0.08597-0.52785 0.13086-0.93555 0.04495-0.4077 0.13464-0.74219 0.20117-0.74219zm7.3203 3.998c0.0582 0 0.07739 6.2866 0.02148 7.0898-0.0052 0.0754-0.65157 0.38672-0.80273 0.38672-0.1298 6.9e-5 -0.10696-5.8146 0.02539-6.502 0.08449-0.43871 0.49953-0.97461 0.75586-0.97461zm-2.8828 0.51562h0.62891c0.61936 7e-5 0.6262 0.0036 0.54102 0.35352-0.04745 0.19501-0.12125 2.139-0.16211 4.3184-0.06084 3.2444-0.10813 3.9898-0.26172 4.1172-0.13424 0.11142-0.24854 0.11644-0.40234 0.01953-0.19133-0.12057-0.22186-0.60889-0.2793-4.4727zm2.9238 7.9922c0.09483 0 0.11528 0.19835 0.06055 0.59766-0.0451 0.32896-0.08203 1.047-0.08203 1.5938v0.99414l-0.64062 0.82422c-0.35151 0.45377-0.8641 1.0809-1.1387 1.3926l-0.49805 0.56641-0.98438-0.79688c-0.54082-0.4385-1.1012-0.9487-1.2461-1.1328-0.23642-0.30059-0.26367-0.51644-0.26367-2.1211 0-0.98314 0.05225-1.7891 0.11523-1.7891 0.063 0 0.56519 0.46399 1.1172 1.0312 0.552 0.56726 1.0456 1.0312 1.0957 1.0312 0.05009 0 0.59336-0.493 1.207-1.0957 0.61367-0.60278 1.1797-1.0957 1.2578-1.0957zm0.02734 5.3008c0.02373 0.02761 0.07872 0.75391 0.12305 1.6152l0.08203 1.5664-0.51758 0.20703c-0.28407 0.1137-0.56148 0.20703-0.61718 0.20703-0.0557 0-0.10767-0.62446-0.11523-1.3867l-0.01367-1.3848 0.50781-0.4375c0.27929-0.24038 0.52706-0.4144 0.55078-0.38672zm-4.6855 0.24414c0.07382 0 0.30578 0.12606 0.51562 0.28125 0.37919 0.28033 0.38086 0.29001 0.38086 1.5898 0 0.71939-0.03588 1.3445-0.08008 1.3887-0.04419 0.04419-0.27622-0.06937-0.51562-0.25195l-0.43555-0.33203v-1.3379c0-0.84107 0.05048-1.3379 0.13477-1.3379zm1.8027 1.5098 0.26758 0.24024c0.25245 0.22851 0.27312 0.23097 0.39258 0.01758 0.06945-0.12411 0.179-0.19453 0.24414-0.1543 0.09644 0.05959 0.13516 2.7497 0.125 5.4336-0.01017 2.6839-0.06924 5.3626-0.16602 5.3984-0.08679 0.03213-0.33223 0.01105-0.54492-0.04687-0.21276-0.05792-0.38736-0.18792-0.38867-0.28906-0.0013-0.10129 0.01329-2.5283 0.0332-5.3926zm-3.6758 7.127c0.03607 0 0.24058 0.16805 0.45508 0.37305l0.39062 0.37305-0.07422 2.9297-0.41797 0.03906-0.41992 0.04102v-1.877c0-1.0327 0.03033-1.8789 0.06641-1.8789zm8.2422 0.01563c0.08387 0.08387 0.18102 3.364 0.10547 3.5625-0.03378 0.08866-0.22213 0.16016-0.41797 0.16016-0.31134 0-0.36569-0.05974-0.43555-0.48242-0.04398-0.2659-0.08127-0.95167-0.08203-1.5234-0.0013-0.98675 0.01889-1.0577 0.38477-1.4082 0.212-0.20305 0.41208-0.34182 0.44531-0.30859zm-3.4629 6.4188c-0.2477-0.01119-0.58982-0.0061-0.99805 0.01367l-1.334 0.06445 0.05859 2.0625-0.45312 0.3711c-0.24905 0.20397-0.47581 0.34839-0.50391 0.32031-0.02809-0.0281-0.06932-0.65896-0.0918-1.4023l-0.04102-1.3516-1.0957-0.03906c-1.1608-0.0404-1.7308 0.03882-1.6172 0.22266 0.03787 0.0613 0.07488 0.98889 0.08203 2.0625 0.01235 1.8565-0.0078 2.0141-0.39648 3.2246-0.22477 0.69997-0.66875 1.729-0.98828 2.2852-0.76178 1.3259-1.7925 3.3659-2.123 4.207-0.14492 0.36864-0.33854 0.84589-0.43164 1.0586-0.88484 2.0225-1.5883 5.6868-1.7441 9.0879-0.28436 6.2071 0.35565 11.235 2.0605 16.18 0.58626 1.7 0.73645 2.5371 0.54297 3.0352-0.10912 0.28103-0.99327 1.4245-1.7344 2.2441-0.55984 0.61916-0.91144 0.59883 10.023 0.58203 5.6367-9e-3 10.276-0.06137 10.311-0.11718 0.03455-0.0557-0.34868-0.5296-0.85156-1.0527-0.96906-1.0081-1.566-1.8-1.7129-2.2695-0.11918-0.38085 0.21187-1.6724 0.95117-3.7109 1.3825-3.812 1.8424-6.0712 2.0586-10.119 0.09285-1.7382 0.09603-3.3121 2e-3 -4.8164-0.09407-1.5044-0.28516-2.9398-0.57812-4.4024-0.7402-3.6949-1.5012-5.6675-4.0332-10.461-0.41742-0.79017-0.80423-1.6891-0.86133-1.998-0.0571-0.30898-0.13786-1.6065-0.17969-2.8828l-0.07617-2.3203-2.6426-0.07422v1.3574c0 1.5174-0.06859 1.6115-0.75586 1.0332-0.37295-0.31385-0.38591-0.36353-0.35352-1.2578 0.01852-0.51176-0.01005-0.98771-0.0625-1.0586-0.02921-0.0395-0.18199-0.06694-0.42969-0.07812zm-1.3516 0.71484c0.04954 0 0.28672-0.0125 0.54492 0.0293l0.46875 0.07617-0.07227 5.3652c-0.03975 2.9513-0.1014 5.3944-0.13476 5.4277-0.03336 0.0335-0.11112-0.02345-0.17383-0.125-0.09615-0.15561-0.15672-0.14611-0.38086 0.05664l-0.26562 0.24023-0.0098-1.0195c-0.0451-4.6925-0.0392-10.012 0.02344-10.051zm-3.752 0.06836 0.39648 0.0293c0.2181 0.0165 0.4146 0.06191 0.43555 0.09961 0.02096 0.0377 0.07789 0.6879 0.12695 1.4453l0.08789 1.377-0.43555 0.46094c-0.23991 0.2539-0.47508 0.42335-0.52344 0.375-0.04836-0.0483-0.08789-0.92001-0.08789-1.9375zm8.1406 0.0039h0.35352l-0.01563 1.875c-0.0083 1.0316-0.05147 1.8991-0.09766 1.9277-0.04628 0.0286-0.2691-0.14417-0.49414-0.38281-0.40555-0.42997-0.4082-0.44438-0.4082-1.7715 0-1.4539 0.07731-1.6484 0.66211-1.6484zm-5.4707 2.707c0.12966 0 0.16602 0.5197 0.16602 2.3613v2.3613l-0.50195 0.28124c-1.1226 0.62898-3.6957 3.7708-4.6172 5.6328-0.9214 1.8619-1.3896 3.3897-1.9746 6.4453-0.39612 2.0694-0.51127 7.9461-0.20117 10.25 0.44669 3.3185 2.0291 8.3656 2.9277 9.3398 0.13084 0.14193 2.1758-1.9141 2.1758-2.1875 0-0.0972-0.05857-0.21315-0.13086-0.25781-0.34652-0.21415-1.2773-2.5999-1.8164-4.6582-0.3692-1.4096-0.62981-3.2982-0.62891-4.5566 6.94e-4 -0.94659 0.33777-4.1616 0.58203-5.5449 0.40368-2.2858 0.57617-2.4018 0.57617-0.38868 0 1.1579-0.06214 1.623-0.33984 2.5469-0.41991 1.3971-0.55588 3.879-0.30469 5.5762 0.25474 1.7206 1.1515 4.5137 1.4492 4.5137 0.08686 0 0.10525-0.70895 0.05273-2.0957-0.04356-1.1523-0.09251-6.3296-0.10938-11.506-0.02782-8.5434-0.01176-9.447 0.18164-9.8066 0.22692-0.42192 0.61403-0.80645 0.62305-0.61914 0.0029 0.0619 0.03085 4.8401 0.0625 10.619 0.06791 12.398 0.13989 15.139 0.39844 15.354 0.14325 0.11881 0.23892 0.07488 0.46875-0.21876 0.15914-0.20333 0.58478-0.68936 0.94531-1.0801 0.36053-0.3907 0.85282-0.93231 1.0957-1.2031l0.44141-0.49219 0.9668 1.0098c0.53162 0.55524 1.2188 1.2877 1.5273 1.627 0.3085 0.33923 0.62754 0.59354 0.70898 0.56641 0.11003-0.0366 0.15242-3.3438 0.16602-12.861 0.01201-8.4013 0.06207-12.827 0.14648-12.855 0.07083-0.0236 0.25068 0.11104 0.39844 0.29883 0.2684 0.34124 0.26777 0.34952 0.22656 12.061-0.03337 9.4876-0.0094 11.719 0.125 11.719 0.22996 0 0.23508-0.0116 0.74414-1.7637 1.0327-3.5536 1.1518-6.9142 0.34375-9.7109-0.27028-0.93542-0.40275-2.834-0.19727-2.8281 0.12917 4e-3 0.33616 0.81299 0.85742 3.3438 0.67624 3.2831 0.17154 7.8488-1.3203 11.926-0.28547 0.77996-0.55029 1.5141-0.58789 1.6309-0.04516 0.14 0.21077 0.50734 0.75391 1.0801l0.82422 0.86914 0.33594-0.6289c2.3347-4.3729 3.1898-7.7161 3.1953-12.492 0.0054-4.5965-0.8553-8.5401-2.8125-12.891-1.1074-2.4615-2.5006-4.2425-4.3574-5.5723l-0.67969-0.48828-0.0059-2.3516c-0.0039-1.552 0.03823-2.3535 0.12695-2.3535 0.18883 0 1.3322 1.1774 2.2559 2.3223 3.0085 3.7293 4.7346 7.3772 5.5977 11.83 0.73757 3.8053 0.82501 4.7801 0.74023 8.3965-0.08547 3.6465-0.33932 5.699-0.91602 7.4258-0.09476 0.28359-0.24245 0.74758-0.32812 1.0312-0.57156 1.8915-2.0374 5.0417-2.6836 5.7695-0.18613 0.20965-0.13774 0.2909 0.62695 1.0781 0.45467 0.46807 1.0204 1.0331 1.2578 1.2559 0.90829 0.8521 1.5142 0.78937-7.8574 0.82032-7.2611 0.024-8.4961 0.0016-8.4961-0.1543 0-0.10052 0.07149-0.23044 0.16016-0.28711 0.08866-0.0566 0.59085-0.58381 1.1152-1.1719l0.95312-1.0684-0.32812-0.34961c-0.70427-0.75019-1.604-2.85-2.2207-5.1836-0.71141-2.6918-0.99596-4.3836-1.2246-7.2695-0.12896-1.6273-0.1846-6.4284-0.07617-6.5371 0.03017-0.0303 0.11937-0.78033 0.19922-1.666 0.13992-1.5528 0.6005-3.9496 0.99023-5.1543 0.46396-1.4342 2.0263-4.6748 2.9648-6.1504 1.1556-1.817 3.8489-4.9375 4.2617-4.9375zm0.08594 6.3281c-0.03835 0 0.07805 0.67712 0.11524 1.4395l0.06641 1.3867-0.46875 0.36523c-0.25804 0.20106-0.5422 0.40548-0.63086 0.45703-0.12543 0.0729-0.16211-0.27507-0.16211-1.5703v-1.6641l0.51758-0.23243c0.28436-0.1282 0.60089-0.18164 0.5625-0.18164zm3.002 0.11719c0.11037 0 0.27648 0.12324 0.52344 0.35547 0.37211 0.34998 0.37485 0.36926 0.33594 1.5781-0.02171 0.67361-0.04012 1.2691-0.04102 1.3223-3e-3 0.18398-0.23983 0.09608-0.63477-0.23633-0.39598-0.33333-0.39648-0.33523-0.39648-1.6758 0-0.93904 0.0293-1.3322 0.21289-1.3438zm-1.5957 2.9668c0.28838 6.8e-4 2.067 1.6046 2.2871 2.0625 0.08932 0.18581 0.14079 0.36742 0.16406 0.66601 0.02327 0.29861 0.01835 0.71295-0.0059 1.3633-0.03226 0.8686-0.10493 1.5801-0.16016 1.5801-0.05522 0-0.5235-0.43499-1.041-0.96679-0.51752-0.53181-1.036-0.9668-1.1523-0.9668-0.11633 0-0.69164 0.49167-1.2793 1.0938-0.58765 0.60209-1.1205 1.0624-1.1836 1.0234-0.06313-0.039-0.10491-0.13816-0.0918-0.22266 0.01318-0.0845 0.05763-0.79644 0.09766-1.5801 0.0514-1.0063 0.13433-1.5173 0.2832-1.7402 0.43663-0.65362 1.931-2.3125 2.082-2.3125zm-5.4492 1.8691h0.32031l-0.0059 2.2559c-0.0056 2.171-0.01819 2.2857-0.35742 3.0566-0.79709 1.8116-1.2489 4.8111-1.248 8.2871 7.63e-4 3.0808 0.43382 5.4018 1.5762 8.4629 0.19407 0.52005 0.28978 0.7847 0.30859 0.95898 0.01882 0.17426-0.04003 0.25908-0.16016 0.42383-0.13326 0.18288-0.3002 0.33262-0.37109 0.33399-0.28082 6e-3 -1.7416-4.5326-2.1973-6.8262-0.16379-0.82443-0.22727-1.9413-0.25391-4.5117-0.01942-1.8791-0.01304-3.6499 0.01367-3.9336 0.13132-1.3949 0.35525-2.9414 0.56836-3.916 0.12987-0.59403 0.20633-1.1618 0.16797-1.2617-0.03836-0.0999 0.01248-0.28088 0.11328-0.40235 0.10087-0.12151 0.31198-0.62668 0.4707-1.123 0.45209-1.4139 0.68161-1.8047 1.0547-1.8047zm11.033 0.34375c0.23796 0.08187 0.45778 0.50119 0.9043 1.5898 0.75005 1.8286 1.3743 4.3453 1.7246 6.9609 0.08325 0.62168 0.13148 1.3737 0.14844 2.1856 0.05088 2.4355-0.18057 5.4149-0.60352 7.0684-0.53264 2.0824-1.964 5.7656-2.2402 5.7656-0.05896 0-0.18025-0.08765-0.26953-0.19531-0.1332-0.16059-0.0896-0.3844 0.24609-1.2559 1.0733-2.7859 1.8097-7.2527 1.6191-9.8281-0.21394-2.8912-0.97299-6.3081-1.7305-7.793-0.22934-0.44953-0.26172-0.75762-0.26172-2.457 0-1.6799 0.02856-1.9534 0.21094-2.0234 0.09233-0.03544 0.17263-0.04487 0.25195-0.01758zm-5.6113 2.7168c-0.0468 0 0.0986 0.01815 0.1582 0.04101 0.10988 0.0421 0.23848 0.17435 0.28711 0.29297 0.04863 0.11869 0.09775 2.1198 0.10742 4.4473l0.01758 4.2305-0.36914-0.07421c-0.20385-0.04098-0.4803-0.07227-0.61328-0.07227-0.13299 0-0.23349-0.04466-0.22461-0.09766 0.0089-0.0532 0.06317-0.35667 0.12109-0.67578 0.05792-0.31904 0.11797-2.2193 0.13281-4.2226 0.02428-3.2788 0.05588-3.8901 0.38281-3.8691zm1.7949 1.791c0.08751-0.0045 0.20652 0.05996 0.36328 0.14453l0.29688 0.16016 0.06836 5.4141c0.03823 2.9782 0.03008 6.2995-0.01953 7.3809-0.08734 1.9052-0.09937 1.9668-0.37109 1.9668-0.19077 0-0.54064-0.30914-1.0938-0.9668-0.44724-0.53181-0.85407-0.9668-0.9043-0.9668-0.05022 0-0.45404 0.406-0.89844 0.90235-0.65272 0.72904-0.88164 0.90234-1.1875 0.90234h-0.37891v-6.832h2.25c1.4633 0 2.2783-0.0486 2.334-0.13867 0.04703-0.0762-0.0295-0.26565-0.16992-0.41992-0.52237-0.57413-0.54688-0.74991-0.54688-4.2031 0-2.6831-0.0047-3.3303 0.25781-3.3438zm-3.3203 0.19922c0.07336-0.0087 0.10784 0.01767 0.11328 0.07617 0.04752 0.50933-0.02852 5.6582-0.08984 6.0879-0.11377 0.79777-0.17006 0.92962-0.49805 1.1445-0.22463 0.14715-0.31714 0.15985-0.34961 0.04493-0.02428-0.0859-0.02853-1.6978-0.0098-3.582l0.0332-3.4258 0.44922-0.21484c0.16518-0.07877 0.2782-0.12215 0.35156-0.13086zm-3.3047 6.3945c0.1062 0.10619 0.1503 5.25 0.04492 5.25-0.05286 0-0.1601-0.36742-0.23828-0.8164-0.22983-1.3201-0.08219-4.7091 0.19336-4.4336zm9.9355 0.03711c0.21859 0.29811 0.34726 1.98 0.25 3.2656-0.07957 1.0526-0.27469 2.0315-0.34961 1.7539-0.01915-0.0708-0.03826-1.2763-0.04297-2.6777-0.0066-1.9784-0.05589-2.3418 0.14258-2.3418zm-6.8555 2.1484-0.07813 0.46875c-0.04309 0.25744-0.08557 1.1513-0.0957 1.9863l-0.01953 1.5176 3.9336-0.07031v-3.8672zm0.83789 0.86133 1 0.03711 0.99805 0.03906-0.0078 0.93555c-0.0045 0.51515-0.07166 1.0013-0.15039 1.0801-0.09532 0.0953-0.42777 0.11312-0.99219 0.05274l-0.84766-0.0918z"/>
 </g>
</svg>
