<?xml version="1.0" encoding="UTF-8"?>
<svg width="100" height="105.9" enable-background="new 0 0 4704.599 5000" version="1.1" viewBox="0 0 100 105.9" xmlns="http://www.w3.org/2000/svg">
 <g transform="translate(.86195)" fill="{{ border_color }}" stroke-width=".11959">
  <path d="m42.804 105.8c-0.01257-8.4937-0.18211-16.954-0.49706-17.562-0.3986-0.77029-0.39902-1.157-0.0074-3.4032 0.6446-3.696 0.63104-26.018-0.01775-29.166-0.37324-1.8112-0.38398-2.2762-0.06097-2.6654 0.2907-0.35014 0.41242-9.1833 0.38984-17.966h-13.049c-0.07346 0.40936-1.5092 1.1289-1.8509 0.90745-0.20115-0.13024-1.5989-0.28726-2.3088-0.4523-2.0261 0.03644-3.5728 0.45598-4.1293 0.1748-0.33127-0.20899-0.48856-0.42704-0.52344-0.62995h-13.347c0.02527 8.6483 0.18346 17.241 0.45478 17.672 0.35387 0.5622 0.35552 0.99927 0.011 2.9069-0.56818 3.1431-0.58966 26.87-0.02686 29.556 0.27841 1.3295 0.29829 1.9557 0.06867 2.1853-0.26765 0.26765-0.36587 9.4087-0.33775 18.544h13.057c-0.27848-0.11218-0.52254-0.25069-0.76753-0.30996-0.06706-0.21232-0.12157-0.15548 0.0082-0.24782 0.49846-0.0167 1.1834-0.22439 1.5218-0.46154 0.58074-0.40685 2.3608-0.11887 2.958 0.47837 0.16273 0.16272-0.14487 0.36006-0.56245 0.54096h2.7922c-0.11396-0.14553-0.15883-0.30422-0.02919-0.51387 0.38174-0.61757 1.9283-0.76357 2.5922-0.24502l0.59865 0.46763-0.37278 0.29126h13.436c-4.8e-5 -0.0363 0.0012-0.0646 0.0012-0.10091zm-0.54681-102.83c0.07465-2.8261-0.97181-2.9511-4.7433-2.8179-2.1354 0.075462-4.0508 0.13425-4.2567 0.13126-2.9605-0.044608-6.3006-0.021299-7.8585 0.055359-1.0702 0.05274-3.2671-0.009089-4.8815-0.13758-2.2264-0.17724-3.1137-0.13794-3.6732 0.1614-0.56675 0.30328-0.8198 0.31282-1.091 0.041582-0.63073-0.63073-8.2839-0.47827-8.5503 0.17051-0.18824 0.45863-0.19014 2.9907-0.01076 15.193 0.02189 1.4819-0.06793 3.8703-0.199 5.3076-0.17879 1.958-0.14411 2.7276 0.1392 3.0685 0.27123 0.32696 0.28753 0.56415 0.0577 0.84111-0.1764 0.21216-0.36112 1.2561-0.41111 2.3201l0.0019-0.0022c-0.10365 2.2093-0.15244 4.9934 0.516 7.8118 3.7469-0.26823 14.738 3.7667 13.255-0.75211 0.70655-0.43639 4.0822-0.72006 5.7572-0.48327 1.4891 0.02604 2.638-0.20443 2.9922 0.75784-0.08008 0.08007 0.2687 0.42594 0.19316 0.47285l12.244 0.0047c2.3255 0.0012-0.06688-8.4268-0.16444-9.7668-0.02392-0.32924 0.05044-1.0596 0.16537-1.6234 0.11493-0.56376 0.03704-2.3236-0.17308-3.9106-0.33856-2.5584-0.32072-3.2343 0.1586-5.9625 0.42539-2.4216 0.46915-3.2783 0.20485-4.0229-0.23201-0.65404-0.25065-1.5929-0.06026-3.0416 0.21463-1.6328 0.73889-4.6918 0.3889-3.8169zm-0.75586 45.615c-0.02185 1.3964-0.06721 2.4179-0.14084 2.6703-0.12593 0.43232-0.34987 0.13458-0.89951-1.1973-0.40231-0.97539-1.0829-2.4587-1.5122-3.2967-0.76691-1.4974-0.7717-1.545-0.27958-2.7751 1.301-3.2518-0.5815-5.6004-3.8653-4.8217-1.5145 0.35925-1.5292 0.35567-2.9419-0.72269-0.78117-0.59605-1.5441-1.0838-1.6962-1.0838-0.46605 0-0.30647-0.82234 0.19738-1.0156 0.96666-0.37097 10.515-0.20122 10.824 0.19247 0.15565 0.19804 0.27261 3.6257 0.31393 7.1302 0.02065 1.7522 0.02232 3.5237 0 4.9201zm-0.23615 48.916-0.14949 6.7628-5.3886-0.0642c-2.9637-0.0354-5.49-0.0683-5.6133-0.0731-0.47251-0.0182-0.19483-0.60207 0.44894-0.94458 0.37062-0.19733 1.1693-0.75546 1.775-1.2408l1.1013-0.8827 1.3225 0.505c3.1326 1.1963 5.7246-2.16 3.9664-5.1364-0.51879-0.87804-0.51279-0.90866 0.67153-3.4084 0.65716-1.3873 1.3049-2.8589 1.4391-3.2706l0.24409-0.74838 0.16632 0.86914c0.09137 0.47813 0.09863 3.9125 0.01635 7.6322zm0-27.676c0 12.906-0.09873 14.21-1.3821 18.249-1.863 5.8628-5.1477 10.501-9.7332 13.745-4.235 2.9952-5.7621 2.9337-10.781-0.4354-3.7619-2.5254-7.7537-8.6436-9.5986-14.711-0.85209-2.8026-1.1535-27.236-0.37933-30.737 1.7402-7.8663 5.3698-13.529 11.151-17.395 3.8113-2.5491 4.7053-2.586 8.5683-0.35294 4.0005 2.3123 6.5878 5.286 9.1787 10.549 2.834 5.7559 2.9762 6.7659 2.9762 21.089zm-0.29898-68.579v2.9618c0 3.2174-0.16406 3.5209-1.6951 3.1365-0.60286-0.15152-0.70863-0.31188-0.54096-0.8229 0.67294-2.0513-0.46351-3.6047-2.4229-3.311-1.1262 0.16886-1.2618 0.12009-1.4318-0.51458-0.3858-1.4412-0.36876-1.4498 2.9473-1.4498zm-0.0598 26.878c-0.51118 0 0.02088 1.1707-0.0039 2.0102l-0.08595 2.9043-2.895 0.14504c-3.1539 0.1581-3.5722-0.04946-3.31-1.6416 0.10357-0.6281 0.22368-0.67158 1.3685-0.5001 1.8585 0.27865 3.0412-0.84951 2.7926-2.6637-0.16312-1.1891-0.12056-1.2861 0.69909-1.5953 0.99014-0.37358 1.3557-0.19031 1.4346 1.3412zm-0.29033-17.898c0.43458 0 0.01028 1.0808-0.11025 2.3507-0.29551 3.1161-0.29274 5.9943 0.0093 9.0565 0.22184 2.2474 0.21378 2.287-0.68603 3.2932-1.7558 1.9636-5.0608 1.3677-8.2182-1.4811-0.61757-0.55718-1.1073-1.0985-1.088-1.2027 0.27937-1.5265 0.76997-1.6034 1.6133-0.25296 1.243 1.9908 4.575 2.6991 5.9994 1.2746 0.93078-0.93066 0.9274-1.8761-0.01355-3.9334-0.91033-1.9906-0.91492-2.1686-0.10278-3.8966 0.91188-1.9399 0.90973-3.893-0.0051-4.6339-1.3596-1.1011-4.0525-0.47976-5.562 1.2835-0.84934 0.99178-1.0345 1.0874-1.3575 0.69793-0.53924-0.64961-0.23837-1.1604 1.4858-2.5231 2.5528-2.018 5.9443-2.4995 7.3939-1.0499 0.38096 0.38096 0.20705 1.0172 0.64163 1.0172zm-0.99668 73.086-0.01518-12.723c-0.01375-11.356-0.07516-12.965-0.57087-14.969-0.64244-2.5961-1.5173-4.7897-1.9104-4.7897-0.62331 0-3.1751 1.6626-4.7232 3.0774-1.683 1.5381-2.1932 1.5759-2.2061 0.16373-0.0054-0.59664 2.5922-2.8701 4.4861-3.9262 0.74099-0.41317 1.3888-0.95702 1.4398-1.2085 0.09831-0.48506-1.1103-2.6035-2.1132-3.7045l-0.5996-0.65822-1.9938 1.0042c-2.5971 1.308-4.8253 3.3381-6.1942 5.6444-2.1408 3.6063-1.942 3.3792-2.4051 2.7457-0.62618-0.85625-0.50838-1.3894 0.81215-3.67 1.699-2.9345 4.2447-5.2076 7.0758-6.3183 0.78823-0.30926 1.4712-0.75114 1.5176-0.98196 0.09077-0.45146-3.6324-3.0495-5.978-4.1712l-1.4031-0.67084-2.023 0.99597c-2.0755 1.0218-4.6012 3.079-4.6012 3.7478 0 0.20665 0.75866 0.75899 1.6855 1.2281 2.73 1.3813 4.1854 2.8259 3.6735 3.6459-0.55132 0.88247-0.80729 0.83585-2.2152-0.4048-0.65859-0.5805-2.06-1.4702-3.1141-1.9772l-1.9165-0.92216-0.55638 0.71077c-1.8699 2.3872-2.6335 4.4529-1.6465 4.4529 0.73704 0 4.6182 2.0517 5.735 3.0318 1.5773 1.384 3.5633 4.1782 4.3539 6.1263 0.76419 1.8824 1.2166 2.0305 1.7444 0.5711 0.514-1.4218 0.93979-1.3193 0.935 0.22447-0.0042 1.3346-1.6133 6.4055-1.9994 6.3019-0.12342-0.03289-0.37375-0.70662-0.55732-1.497-0.8625-3.7158-3.5399-8.5362-5.6993-10.26-2.145-1.7118-5.469-3.2487-6.1354-2.8368-0.2643 0.16336-1.3555 3.5947-1.7591 5.5304-0.15631 0.74984-0.23898 7.0041-0.1878 14.212l0.09132 12.873 0.79977 2.3561c0.91906 2.7082 1.291 3.4817 1.6745 3.4817 0.5933 0 3.8614-2.1313 5.0766-3.3105 1.3036-1.2648 1.7979-1.2459 1.81 0.0689 6e-3 0.65201-2.7494 3.0828-4.5396 4.0052-1.8391 0.94729-1.8484 0.97656-0.85606 2.6973 1.4687 2.5471 1.9406 2.9031 3.1689 2.39 3.5858-1.4982 6.391-4.2777 8.4378-8.3602l0.58254-1.1618 0.62552 0.6713c0.70822 0.76012 0.6291 1.074-0.94413 3.748-1.5463 2.6284-4.3025 5.0439-7.0667 6.1926-1.8887 0.785-1.8741 1.0178 0.15533 2.4892 3.2269 2.3398 5.4625 3.288 6.6985 2.8417 2.0966-0.75713 5.717-3.5228 5.717-4.367 0-0.19539-0.30278-0.43442-0.6734-0.53021-0.96427-0.24959-4.8519-3.0188-4.9348-3.5151-0.03803-0.22926 0.12603-0.67227 0.36461-0.98453 0.41702-0.54546 0.49672-0.52003 2.0158 0.64536 0.86991 0.66732 2.3685 1.5966 3.3304 2.0648l1.7493 0.85139 0.70774-0.88643c1.098-1.3759 2.2196-3.5902 1.9894-3.9285-0.11433-0.16767-0.88161-0.55324-1.7049-0.85677-4.056-1.4948-6.4575-3.7651-8.4798-8.0162-1.2391-2.6045-1.3496-2.684-1.998-1.4302-1.2506 2.4177-1.3603-0.49907-0.14692-3.8919 0.38281-1.0702 0.75498-2.1479 0.8271-2.3949 0.15475-0.52955 0.19492-0.43504 1.4456 3.4268 1.8454 5.697 4.9015 9.2377 9.3256 10.804 1.9553 0.69208 1.9706 0.67704 2.9994-2.8765zm-1.206-18.469c0.04383 0.17066 0.01259 0.39757-0.06377 0.68952-0.12868 0.49308-0.44479 0.56549-2.4703 0.56549-1.2774 0-2.7436 0.08413-3.2582 0.1871-0.85771 0.17162-0.93536 0.122-0.93524-0.59866 0-0.43232 0.13964-0.78598 0.31089-0.78598 0.17114 0 1.6054-0.14419 3.1874-0.32047 2.2908-0.25554 3.0977-0.24898 3.2292 0.26301zm-0.0035 3.3488c-0.10834 0.53802-0.90673 0.60053-3.456 0.60053h-3.268v-0.74838c0-0.64926 0.1326-0.74838 1.0025-0.74838 0.55156 0 2.0128-0.08514 3.2477-0.18966 2.0357-0.17209 2.2587-0.13718 2.3914 0.37419 0.07791 0.30026 0.11856 0.53238 0.08245 0.7117zm-0.02593-6.2767c0.04867 0.17276 0.02343 0.41264-0.03667 0.72712-0.12127 0.63467-0.33672 0.71425-2.4245 0.89531-1.2603 0.10955-2.7293 0.27371-3.2643 0.36532-0.88247 0.15092-0.97308 0.09661-0.97308-0.58208 0-0.7136 0.14831-0.77621 3.2138-1.3587 2.528-0.48032 3.3388-0.56524 3.4847-0.04695zm-0.11212 9.8712v2.0522l-1.7215-0.1628c-0.94657-0.08981-2.4623-0.24842-3.368-0.35294-1.41-0.16276-1.6603-0.2864-1.7423-0.86307-0.0946-0.66491-0.05235-0.6734 3.368-0.6734zm0 3.8008v0.76707l-2.7691-0.20929c-1.5232-0.11505-3.0723-0.28184-3.4429-0.37046-0.40422-0.09675-0.67376-0.38758-0.67364-0.72758 0-0.68526-0.16452-0.65484 3.1435-0.58511 3.4158 0.07187 3.7421 0.17007 3.7421 1.1254zm0-16.089c0 0.78859-0.12207 0.90578-1.1226 1.0773-0.61733 0.1056-1.9728 0.38115-3.0122 0.61196-1.0394 0.23081-2.0833 0.41998-2.3201 0.41998-0.44129 0-0.60976-1.0577-0.20602-1.2931 0.41941-0.24433 5.7233-1.7007 6.1933-1.7007 0.31823 0 0.46763 0.28228 0.46763 0.88455zm0 21.45c0 0.80653-0.5876 0.91392-2.3949 0.43818-0.57631-0.15152-1.8225-0.42968-2.7691-0.61804-1.5552-0.30962-1.7215-0.41646-1.7215-1.1048 0-0.67294 0.09624-0.74222 0.82335-0.59166 0.45266 0.09364 2.0019 0.39293 3.4427 0.66476 2.4266 0.4578 2.6193 0.547 2.6193 1.2116zm-0.05279-2.6126c0.08826 0.92468 0.03734 0.99612-0.59889 0.84041-0.38258-0.0934-1.6385-0.32024-2.791-0.50406-1.1525-0.18381-2.3984-0.45788-2.7691-0.60964-0.39071-0.15989-0.67364-0.53411-0.67364-0.89133 0-0.55981 0.12839-0.59945 1.422-0.43633 0.78225 0.09878 2.2977 0.27205 3.368 0.38494 1.9447 0.2051 1.9459 0.20558 2.0426 1.216zm-0.06073-21.302c-0.0024 0.35482-0.26775 0.4572-1.156 0.68484-0.70117 0.17963-2.2516 0.64752-3.4455 1.0394s-2.1704 0.59832-2.1704 0.45852-0.06768-0.43363-0.1502-0.65308c-0.1691-0.44966 6.1325-3.3847 6.4654-3.0111 0.10656 0.11947 0.2797 0.58238 0.3847 1.0285 0.04431 0.18838 0.07274 0.33463 0.07195 0.45291zm-0.0039 13.381c0.15894 0.41427-0.23442 0.47346-3.1435 0.47346-3.1254 0-3.325-0.03587-3.325-0.59866 0-0.56076 0.1995-0.59865 3.1433-0.59865 1.7289-1.2e-5 3.1435 0.05608 3.1435 0.12496 0 0.06889 0.08175 0.33842 0.18173 0.59889zm-0.18173 13.349c0 1.2493-0.17121 1.2574-3.6095 0.17191-2.8578-0.90232-3.1345-1.0551-3.221-1.778-0.11373-0.94989-0.17126-0.94664 3.1395-0.17611 3.8457 0.89514 3.691 0.82056 3.691 1.7822zm-0.21846-78.143c0.0016 0.20394-0.03896 0.41478-0.11562 0.61711-0.15332 0.40467-0.45129 0.77497-0.84672 0.98663-0.63683 0.34096-0.72487 0.24348-0.62668-0.69209 0.04521-0.43089-0.07843-0.50849-0.56433-0.35434-0.72724 0.23081-0.72646 0.23221-0.23661-0.74091 0.47334-0.94035 1.8411-1.1781 2.2533-0.39194 0.09151 0.17454 0.1351 0.3716 0.13665 0.57554zm-0.08106 92.78c0 1.3616-0.91399 2.251-2.1298 2.0725-1.3011-0.19099-0.88927-1.2954 0.48328-1.2954 0.46449 0 0.59865-0.19937 0.59865-0.89157 0-0.61004 0.16526-0.9239 0.52392-0.99457 0.42957-0.08467 0.52391 0.11452 0.52391 1.109zm0-77.452c0 1.4107-2.7644 2.3414-4.1245 1.3889-0.86116-0.60322-0.88231-1.8195-0.0362-2.0882 0.34574-0.10955 0.77684-0.05119 0.95791 0.12964 0.38676 0.38688 1.4068 0.44199 1.4068 0.07592 0-0.47299-1.0925-1.2438-1.7628-1.2438-0.36882 0-0.58494-0.13417-0.48256-0.29945 0.20474-0.33175 1.923-0.40402 2.6808-0.11329 0.46629 0.17903 1.3606 1.5919 1.3606 2.1503zm-0.05186 21.398c-0.13119 1.1445-1.0173 1.1691-0.93921 0.02616 0.04903-0.71755-0.05253-0.82313-0.79136-0.82313-0.79277 0-1.3926-0.61657-0.99036-1.0184 0.89574-0.89574 2.88 0.4281 2.7209 1.8154zm-0.01331-28.783c0.10145 1.2748-1.5117 2.5421-3.4889 2.1552l-1.0857-0.21255 1.1784-0.33986c1.1756-0.33904 1.9857-1.1234 1.5794-1.5297-0.11792-0.11804-0.55969-0.02983-0.98173 0.1962-0.5457 0.29204-0.90798 0.32219-1.2541 0.10394-0.75415-0.47598-0.76318-0.90434-0.03247-1.5848 0.8625-0.80318 2.3443-0.80569 3.3621-0.0049 0.46485 0.36568 0.68911 0.79153 0.72292 1.2165zm-0.01588 15.458c-0.12833 0.58198-0.64482 1.0304-1.4536 0.91235-0.42718-0.06255-0.81301-0.45016-1.0653-1.0707-0.36045-0.88665-0.08943-1.3926 0.35784-0.66873 0.10357 0.16731 0.32008 0.22284 0.4814 0.1231 0.18381-0.11349 0.1601-0.34136-0.06354-0.6108-0.54964-0.66254-0.03053-0.90007 0.86844-0.39779 0.74338 0.41534 1.0031 1.1306 0.87476 1.7126zm-0.19877 57.418c-0.07802 0.58227-0.53047 1.5141-0.84251 1.5141-0.70679 0-3.6756-1.726-4.7902-2.7852-1.0714-1.0182-1.2592-1.5659-0.44917-1.3108 1.1732 0.36978 5.9199 2.0768 6.016 2.1636 0.07628 0.06894 0.09187 0.22425 0.06587 0.41833zm-0.15182-32.403c0.01796 0.18382-0.0036 0.33368-0.08106 0.40642-0.23237 0.2179-5.3438 2.3757-5.6278 2.3757-0.08025 0-0.14621-0.11309-0.14621-0.2511 0-0.56495 4.3482-3.94 5.0759-3.94 0.31636 0 0.72532 0.85746 0.77922 1.4089zm-0.91539-36.821-1.497 0.36181c-0.82327 0.19912-1.6988 0.41222-1.9457 0.47393-0.32816 0.08192-0.47397-0.18983-0.54189-1.0102-0.08922-1.0778-0.06371-1.1109 0.6365-0.84484 0.40111 0.15248 1.3184 0.44462 2.0387 0.6484zm-1.3812 75.013c-0.04779 0.26491-0.25929 0.67663-0.63977 1.2641-0.65345 1.0086-1.4983 1.3511-1.8663 0.75586-0.09866-0.16049-0.64571-0.51245-1.2148-0.78249-0.56923-0.27004-1.5647-0.98124-2.2122-1.5802l-1.1772-1.0885 0.50335-0.96609c0.60478-1.16 0.77689-1.184 1.9723-0.27609 1.1712 0.88976 3.7957 2.2902 4.2918 2.2902 0.2747 0 0.3907 0.11816 0.34289 0.38308zm-0.34148-43.871c-0.04488 0.27837-0.38139 0.48839-1.0485 0.87054-0.6165 0.35292-1.7477 1.1947-2.5138 1.871-0.76608 0.67629-1.5069 1.2233-1.6465 1.2158-0.13944-0.0075-0.53478-0.60949-0.87848-1.3382l-0.62459-1.3242 0.77455-0.68882c1.0056-0.89419 2.3335-1.8085 3.5139-2.4189 0.94155-0.4871 0.94484-0.48589 1.7215 0.53232 0.49995 0.6553 0.74678 1.0021 0.70191 1.2805zm-0.29758-43.378c0.08346 1.4727-0.70631 2.8603-2.5955 4.8038-1.7298 1.7794-1.8738 1.8533-2.3914 1.2298-0.27422-0.33043-0.13896-0.53589 0.66756-1.0116 1.8154-1.0712 2.7318-3.7507 1.8595-5.4377-0.7319-1.4157-1.9305-1.5762-4.4155-0.59188-1.8774 0.74374-3.6671 0.66316-5.5433-0.24992-4.151-2.0199-6.464 2.4491-3.0281 5.8509 1.0607 1.0499 1.1711 1.2676 0.73016 1.4367-0.57572 0.22089-2.6238-1.5559-3.3133-2.8746-1.481-2.8327-0.92973-5.2635 1.4757-6.5073 0.77424-0.40014 1.2575-0.40954 3.8064-0.072174 2.2844 0.30233 3.4595 0.31118 5.4008 0.039944 4.7538-0.66421 6.1162-0.30162 6.9807 1.8593 0.21353 0.53356 0.33842 1.0339 0.36625 1.5248zm-0.32981 24.456c-0.0042 0.49207-0.12288 0.95996-0.3401 1.4416-0.99333 2.2028-1.9005 2.3748-8.5777 1.6273-0.9858-0.1105-2.112-0.04921-2.7072 0.14716-1.4209 0.4688-4.8097 0.47721-5.5521 0.01355-0.33617-0.21024-0.83006-0.75238-1.0974-1.205-0.7972-1.3498-0.88413-3.2386-0.21466-4.6713 0.74302-1.5909 2.9333-3.9848 3.6454-3.9848 0.95721 0 0.89986 0.51081-0.14645 1.309-1.2905 0.98436-2.1094 3.0264-1.885 4.6996 0.28834 2.1495 2.2419 2.8847 4.8222 1.8154 1.9183-0.79505 3.0343-0.80388 4.9724-0.03993 1.9908 0.78464 2.7623 0.75526 3.8337-0.14646 1.6752-1.41 1.3955-3.7225-0.69349-5.7346-0.94119-0.90651-1.1989-1.3293-0.95674-1.5715 0.47083-0.47059 0.9092-0.41112 1.4178 0.1927 2.474 2.9372 3.4916 4.6312 3.4791 6.1073zm-2.6551-11.087c-0.16819 0.78107-0.94687 2.1285-1.8448 3.0524-1.1837 1.2178-3.7789 2.4973-4.2037 2.0725-0.46856-0.46892 0.04738-1.1582 1.6236-2.1697 0.80318-0.51544 1.7339-1.4007 2.0683-1.9677 0.58971-0.99967 1.9411-1.9051 2.3031-1.5432 0.0978 0.09783 0.10956 0.29533 0.05349 0.55568zm-0.03901-2.3993c-0.05456 0.77191-1.3608 0.30518-1.9761-0.90114-0.3272-0.64185-1.014-1.4836-1.526-1.871-0.51185-0.38736-1.257-1.0015-1.6561-1.3643-1.3262-1.2067-0.72113-1.6686 1.1553-0.88268 1.9572 0.82027 3.2599 2.3434 3.944 4.6111 0.04896 0.16229 0.06666 0.29778 0.05886 0.40806zm-0.58301-8.4511c-0.14862 0.72803-0.64533 1.4228-1.4421 1.8492-1.2939 0.69268-2.0278-1.21-0.87077-2.2573 0.56674-0.51377 0.5671-1.0541 0-1.0541-0.51903 0-1.4907 1.3167-1.4907 2.0202 0 0.39614-0.13199 0.62617-0.29898 0.52368-0.51908-0.32174-0.346-2.4091 0.24433-2.9433 0.97922-0.88618 2.3807-0.96778 3.2117-0.18733 0.59563 0.55951 0.79517 1.3209 0.64654 2.0489zm-0.3875 9.497c0.09168 0.1205-0.01481 0.19123-0.27259 0.27398-2.0609 0.66254-4.3411 2.7187-4.9829 4.4933-0.49535 1.3706-0.63611 1.3201-1.2758-0.45945-0.6318-1.7564-2.4098-3.4415-4.1159-3.901-1.4642-0.39465-1.6788-0.78832-0.56316-1.0327 1.9594-0.43053 5.1002-3.4284 5.1002-4.868 0-0.35064 0.13489-0.72065 0.29945-0.82242 0.16468-0.10189 0.30062-0.0087 0.30062 0.20671 0.0051 1.5846 2.2678 4.3122 4.5933 5.537 0.53529 0.28182 0.82511 0.452 0.91679 0.5725zm-0.05629 10.461c-0.05605 2.0808-2.2997 3.044-3.95 1.2728-0.71336-0.76573-0.79495-2.2718-0.16772-3.1007 0.409-0.54067 0.43998-0.49256 0.44895 0.69116 0.01076 1.4534 1.0523 2.8979 1.5362 2.1309 0.16587-0.26286 0.09951-0.52838-0.18524-0.74185-0.66636-0.49978-0.53357-1.5407 0.26301-2.0627 0.93222-0.61099 1.6309-0.3024 1.9368 0.85489 0.08939 0.33815 0.12595 0.65832 0.11795 0.95558zm-0.14226 36.797c0.01337 1.8128-0.01264 4.051-0.05838 6.9202-0.09699 6.0755-0.28456 10.433-0.45665 10.605-0.81849 0.81849-1.0635-1.5911-1.156-11.379-0.09962-10.535-0.32394-12.64-1.7205-16.149-0.85114-2.1384-0.82969-1.9627-0.32047-2.6593 0.59844-0.81813 0.95413-0.40917 1.9968 2.2944 1.2805 3.3205 1.6751 4.9288 1.7152 10.367zm-0.31486-21.606c-0.14191 0.28122-0.66443 0.64507-1.5853 1.1263-0.92145 0.48136-1.7437 1.054-1.8275 1.2723-0.3235 0.84217-0.98663 0.40453-0.98663-0.65075 0-0.73154-0.13513-1.0478-0.44894-1.0478-0.2973 0-0.44917 0.29746-0.44916 0.88059 0 1.1948-0.41095 1.3605-1.3094 0.52788-0.41343-0.38353-1.2315-0.95494-1.817-1.2704-1.2715-0.68466-1.3237-0.9062-0.27656-1.1691 0.57332-0.14375 0.96484-0.03057 1.4412 0.41671 0.9139 0.85855 1.2821 0.76576 1.1279-0.2845-0.14399-0.98041 0.59059-2.3942 1.2438-2.3942 0.70978 0 1.3868 1.071 1.3868 2.194 0 1.3028 0.15766 1.3461 1.2141 0.33426 0.61398-0.58827 0.98057-0.71891 1.5883-0.5662 0.60173 0.15116 0.8403 0.34967 0.69839 0.6309zm-0.20228 55.359c0.01699 0.07525-0.0086 0.13297-0.07475 0.17495-0.69686 0.44225-1.3966 0.25813-2.1641-0.56993l-0.76076-0.82033v1.1347c0 1.308-0.7252 2.901-1.3207 2.901-0.59604 0-1.3739-1.3397-1.3739-2.3668 0-1.1439-0.37821-1.3665-1.0539-0.61992-0.3266 0.36045-0.91978 0.59142-1.5194 0.59142-1.5412 0-1.4532-0.46658 0.25529-1.3482 0.86369-0.44644 1.8486-1.0665 2.1884-1.3781 0.85099-0.7801 0.97864-0.72291 1.0852 0.48772 0.05095 0.57988 0.2275 1.0541 0.39218 1.0541 0.16468 0 0.34099-0.47425 0.39218-1.0541 0.08049-0.91332 0.95486-1.6377 0.95486-0.79114 0 0.14459 0.74345 0.77482 1.6523 1.4008 0.86285 0.59413 1.2961 0.97813 1.347 1.2039zm-2.5289-28.329c-0.02212 2.5552-0.1138 5.1452-0.25343 5.2849-0.08766 0.08778-0.3748-0.78542-0.63766-1.941-0.44153-1.9423-0.58099-3.9571-0.32351-4.6772 0.05884-0.16468 0.2598-1.0741 0.4466-2.0207 0.1868-0.94657 0.45848-1.7215 0.60402-1.7215 0.13855 0 0.1861 2.5202 0.16397 5.0754zm-0.47743-53.216c-0.21324-1.1632-1.9636-1.8935-3.1503-0.70681-0.98041 0.98018-0.93316 1.1026 0.38797 0.99925l1.1228-0.08759-0.09437 1.1756c-0.09938 1.2361 0.2779 1.2003 1.3569-0.128 0.34831-0.42892 0.44808-0.86472 0.37699-1.2524zm-0.52624 39.867c-0.0092 0.27721-0.09594 0.5338-0.26325 0.86447-0.52022 1.0278-0.58119 1.0246-1.142-0.06002-0.51616-0.99776-0.53783-1.3651-0.13875-2.3601 0.37121-0.92624 0.90633-0.70007 1.3428 0.56713 0.14231 0.41355 0.21035 0.71128 0.20112 0.9885zm-0.13735 28.558c0.01972 0.28946-0.05819 0.56098-0.22377 0.96048-0.48638 1.1748-0.85501 1.0549-1.3783-0.44918-0.22722-0.65285-0.41465-1.2057-0.41764-1.2289-0.0026-0.02308 0.25194-0.35834 0.56504-0.7451l0.56946-0.70307 0.52344 1.0978c0.22471 0.47119 0.34209 0.77846 0.36181 1.0679zm-0.36882-76.238c0.03369 0.26274 0.02816 0.45342-0.02265 0.58769-0.10164 0.26851-0.38419 0.31168-0.8953 0.25553-1.0115-0.11074-1.001-0.067725-0.5015-2.0567 0.48805-1.9421 0.67794-1.9114 1.2067 0.19316 0.10623 0.42273 0.17911 0.75753 0.21279 1.0203zm-0.23591 16.154c0.07579 0.21817-0.02955 0.66712-0.23148 1.5907-0.63049 2.8842-0.68912 2.9612-0.91001 1.1976-0.11349-0.90555-0.30539-1.9494-0.42651-2.3201-0.19673-0.60143-0.12044-0.67364 0.71264-0.67364 0.52268 0 0.77957-0.01263 0.85537 0.20555zm-0.97776 45.787c-0.0084 2.201-0.63956 5.3886-1.0667 5.3886-0.17006 0-0.25117-2.0336-0.20321-5.089 0.04389-2.7988 0.16345-5.0894 0.26558-5.0894 0.39513-0.0012 1.0116 2.9373 1.0044 4.7897zm-0.32444 17.393c0.01668 0.27746-0.01339 0.57548-0.07801 0.84368-0.12926 0.53638-0.39684 0.95383-0.70611 0.85068-0.40721-0.13562-1.8415-3.6058-2.5089-6.0693-0.77063-2.8452-0.87767-24.033-0.12472-24.8 0.77842-0.79397 1.0299 1.3336 1.1104 9.3873 0.13502 13.513 0.47282 16.576 2.105 19.067 0.12216 0.18642 0.1856 0.44335 0.20228 0.72083zm-0.3854-77.061c0.01675 0.07569 0.0097 0.16436-0.02009 0.26161-0.11904 0.38898-0.5998 0.91617-1.3583 1.3064-0.65871 0.33856-1.6687 1.2486-2.2447 2.0219-0.57595 0.77328-1.2832 1.4059-1.5717 1.4059-1.3591 0 0.20122-3.0231 2.1699-4.2046 0.74099-0.44452 1.7276-0.89811 2.1926-1.0074 0.51641-0.12149 0.78194-0.01076 0.83224 0.21629zm-0.04322 12.026c0.01938 0.14554-0.0026 0.26963-0.07988 0.34686-0.77962 0.7795-4.1625-1.6023-5.109-3.5973-0.60382-1.2723-0.62142-1.9833-0.0493-1.9833 0.5158 0 1.6582 1.152 1.6582 1.672 0 0.4566 1.8575 2.1039 2.6593 2.3584 0.43169 0.13696 0.86262 0.76674 0.92076 1.2034zm-0.2859-15.267c-0.05431-1.059-0.5205 1.1914-0.74115 0.18709-0.24074-1.0947-1.1709-1.9644-1.8308-1.7112-0.43185 0.16575-0.39632 0.28593 0.26862 0.90207 0.81968 0.7606 0.81992 1.7883 0 2.1029-0.61375 0.2356-2.0677-0.67413-2.4626-1.5404h0.0012c1.3427 0-0.14042-2.039 1.3564-2.6644 1.7193-0.71826 3.5155 4.8143 3.4084 2.7245zm-0.13361 19.99c-0.33043 2.0514-3.0775 2.835-4.4506 0.82851-0.65441-0.95638-0.63708-1.4371 0.09506-2.6376 1.2418-2.0371 2.8727-1.4917 2.5934 0.86727-0.16432 1.3881-0.14154 1.452 0.4111 1.1562 0.43687-0.2338 0.58512-0.6294 0.58512-1.5601 0-1.4585 0.45215-1.2209 0.74862 0.39334 0.06249 0.34036 0.06448 0.65925 0.01728 0.9523zm-0.93524 63.362-1.1877 1.0331c-0.65321 0.56818-1.8213 1.356-2.5958 1.7511l-1.4082 0.71848-0.7624-0.99924c-0.99835-1.3092-0.97512-1.4168 0.48163-2.2491 0.68143-0.38939 1.8194-1.243 2.5289-1.8971 1.4703-1.355 1.6016-1.3337 2.3778 0.38774zm-0.15393-41.116c-0.03254 0.27976-0.16243 0.59729-0.35037 1.002-0.45026 0.96905-0.92624 1.0188-1.8088 0.18873-0.36332-0.34191-1.5701-1.0473-2.6817-1.5673-2.1351-0.99893-2.2761-1.1956-1.5416-2.1517 0.2533-0.32924 0.56686-0.78464 0.6977-1.0119 0.18919-0.32876 0.65865-0.18251 2.2998 0.71802 2.7052 1.4846 3.4826 1.9828 3.385 2.8221zm-1.7724-13.199c0 0.12605-0.83314 0.80422-1.8513 1.5068-1.6032 1.1062-1.9461 1.2343-2.5586 0.95532-0.93916-0.42814-2.8112-0.39408-3.3806 0.06121-1.7926 1.4334-2.1434 2.8385-1.1793 4.7278l0.61034 1.1957-1.0182 2.1601c-0.56017 1.1879-1.2177 2.627-1.461 3.1979-0.42204 0.98914-0.44842 1.0031-0.56478 0.29968-0.23057-1.3948 0.03949-14.182 0.30295-14.346 0.40494-0.25138 11.101-0.01919 11.101 0.24128zm-0.05185 66.801c0.02954 0.11236 0.02008 0.2519-0.03457 0.39427-0.2515 0.65525-10.697 0.77814-11.219 0.13175-0.3748-0.46402-0.47248-14.894-0.10067-14.894 0.14303 0 0.56527 0.77454 0.93828 1.7215 0.37301 0.94693 1.0155 2.3603 1.4281 3.1414 0.74458 1.4094 0.74626 1.4289 0.21396 2.6093-1.4029 3.111 0.81437 5.7318 4.0332 4.7676 1.042-0.31226 1.2141-0.26523 2.649 0.72176 0.84396 0.5805 1.6959 1.1096 1.8929 1.1751 0.10094 0.0335 0.16947 0.11866 0.19901 0.23101zm-0.86028-46.91c9.5e-5 0.17049-0.20128 0.22781-0.65962 0.11749-0.37062-0.08922-1.8187-0.56164-3.2182-1.0499-2.6823-0.9358-3.1337-1.4356-2.3119-2.5598 0.38855-0.53111 0.48132-0.51533 2.2437 0.37443 2.1319 1.0764 3.9458 2.6063 3.9461 3.1178zm-0.28519 1.8362c0 1.0194-0.17689 1.0526-2.4911 0.46972-1.1819-0.29778-2.678-0.65566-3.324-0.79487s-1.1976-0.38785-1.2253-0.55265c-0.12533-0.74757 0.23253-1.9721 0.55077-1.884 4.1651 1.1526 6.4897 2.1421 6.4897 2.7618zm-0.0542 23.543c-0.08922 0.57811-4.8101 2.9025-6.2328 3.069-0.30173 0.03528-0.4797-0.26649-0.54236-0.9203-0.05178-0.53505-0.03985-0.97308 0.02593-0.97308s1.4552-0.40237 3.0874-0.89461c3.5502-1.0705 3.7864-1.0887 3.6618-0.28099zm-0.19246 1.9338c-0.0077 0.13675-0.32362 0.48306-0.83621 1.0371-1.3592 1.4689-3.8633 3.1135-4.4167 2.901-0.22483-0.08622-0.47245-0.49018-0.5503-0.89787-0.13143-0.68706 0.06982-0.83122 2.7513-1.9707 1.7764-0.75474 2.672-1.1322 2.9527-1.1364 0.07018-0.0012 0.1018 0.02123 0.09927 0.0668zm-0.0528-4.0727c0 0.39609-0.383 0.63997-1.422 0.90582-1.2733 0.32541-2.8087 0.75834-4.79 1.3496-0.60561 0.1807-0.67364 0.09861-0.67364-0.81495v-1.0161l3.2028-0.6316c3.391-0.66888 3.6828-0.6523 3.6828 0.20718zm0-18.737c0 0.69842-0.09853 0.82132-0.52368 0.65425-0.28822-0.11313-1.5344-0.39594-2.7693-0.62855-1.2349-0.23261-2.5482-0.49375-2.9188-0.58021-0.47502-0.1111-0.67364-0.37616-0.67364-0.90022 0-0.8968-0.2638-0.89144 3.6672-0.07451 3.1895 0.66278 3.2182 0.67666 3.2182 1.5292zm-0.05396 2.2206c0.11445 0.80234-0.08716 0.81875-3.9673 0.32747-1.493-0.18881-2.8135-0.49198-2.9344-0.6734-0.96259-1.444-0.03624-1.6332 4.1117-0.84018 2.3769 0.45421 2.7057 0.59389 2.7901 1.1861zm0 2.5906c-0.20056 0.40287-1.1838 0.44442-3.5658 0.26323-3.115-0.23677-3.116-0.23694-3.2115-1.0651l-0.09506-0.82827 1.7418 0.16701c4.6148 0.44309 4.9265 0.49983 5.0932 0.93455 0.08429 0.21966 0.10422 0.39429 0.03737 0.52858zm-0.02125 2.1832c0.02067 0.13826 0.01355 0.27688-0.01728 0.39942-0.06167 0.24507-0.21792 0.42546-0.4354 0.40782-0.20354-0.0165-1.7172-0.05045-3.3637-0.07497l-2.994-0.04438v-1.8541l3.2182 0.21676c1.8067 0.1215 3.3167 0.36405 3.4425 0.55264 0.0806 0.12069 0.12906 0.25859 0.14973 0.39684zm-0.18826 2.4843c0.13815 0.43511-0.50697 0.56488-2.0564 0.46271-1.1116-0.07331-2.593-0.14041-3.293-0.14878-1.199-0.01435-1.6478-0.43827-1.0726-1.013 0.36248-0.36284 5.6449-0.2228 6.0272 0.15954 0.21559 0.21562 0.34869 0.39452 0.39475 0.53956zm-0.03575 6.7016c0 0.43017-0.10116 0.78159-0.22446 0.78458-0.12354 0.0016-1.551 0.27109-3.1725 0.59889-1.6213 0.3278-3.002 0.59587-3.0685 0.59587-0.06649 0-0.12075-0.40828-0.12075-0.90769 0-1.0407 0.07311-1.0769 2.6943-1.3262 1.0702-0.10213 2.384-0.2622 2.919-0.3562 0.89299-0.15678 0.97284-0.10651 0.97284 0.6108zm-0.04904-4.4212c-0.09603 0.50264-0.45114 0.57189-3.3224 0.64795l-3.215 0.08502v-0.75866c0-0.41738 0.03373-0.76876 0.07475-0.78132 0.43615-0.13287 6.0456-0.08022 6.2704 0.05862 0.16492 0.10201 0.25155 0.43876 0.19223 0.74838zm-0.0086 2.1204c0.10094 0.69148-0.19224 0.77091-4.2481 1.1499-1.5648 0.14638-2.1219 0.09616-2.3157-0.20951-0.70033-1.1049-0.0559-1.3922 3.3303-1.4842 2.9959-0.08168 3.1458-0.05646 3.2334 0.54377zm-0.1259-62.914c0.03008 0.12312 0.01533 0.22306-0.05232 0.29266-0.31823 0.32744-0.52082 0.22344-1.1611-0.59468-0.82925-1.0591-3.4812-2.4444-4.6804-2.4444-2.184 0-2.8496 2.0638-1.5596 4.8351 0.9663 2.0759 0.94303 2.8857-0.14669 5.0441-1.0736 2.1271-1.124 2.9822-0.22446 3.8055 1.6375 1.4991 3.8901 1.2269 5.8198-0.70284 1.3367-1.3367 1.8892-1.4505 1.8892-0.38961 0 0.8735-3.3117 3.196-4.8963 3.4336-1.5366 0.23045-3.4231-0.22561-4.2957-1.0387-0.97479-0.9077-1.0966-2.1668-0.51154-5.273 0.46784-2.4848 0.48499-3.098 0.14248-5.1448-0.21383-1.2779-0.45237-2.6723-0.53022-3.0991-0.38497-2.1127 2.7867-3.3091 5.8516-2.2068 1.743 0.6268 4.1447 2.6213 4.3553 3.4831zm-1.571 1.475c0-0.34814-0.33548 0.5697-0.87289 0.5697-1.0809 0-2.1625-0.76972-2.1625-1.5388 0-0.72796-0.70302-0.59243-0.84976 0.16374-0.12784 0.66039 0.73539 1.6392 1.8976 2.1524l0.89811 0.39639-0.95884 0.01172c-1.3214 0.01614-2.2938-0.48347-2.8835-1.4818-0.68729-1.1636-0.62728-1.6547 0.29011-2.3764 0.95805-0.75343 2.1185-0.79433 3.1115-0.11002 0.85574 0.58977 1.3783 1.2853 1.5078 1.8336 0.03236 0.13706 0.02242 0.49561 0.02242 0.37956zm-0.04952 3.4472c-0.03503 0.36789-0.16719 0.70458-0.36625 0.69232-0.20558-0.0128-1.0268-0.25334-1.824-0.53419l-1.4494-0.5106 1.5993-0.33121c0.87957-0.18216 1.7005-0.27059 1.8238-0.19668 0.18955 0.11331 0.25155 0.51246 0.21652 0.88036zm-0.39194 3.6646c-0.2319 1.493-3.1034 2.5279-4.3901 1.2412-0.94178-0.94189-0.62794-2.9359 0.56221-3.5728 0.75319-0.40301 2.9344-0.41654 3.1799-0.01961 0.10775 0.17448-0.19263 0.29945-0.71919 0.29945-1.0024 0-2.1249 0.97864-2.1249 1.8527 0 0.7307 0.25013 0.68292 1.074-0.20625 0.78835-0.85018 2.0621-0.99027 2.3435-0.25717 0.08693 0.22656 0.10764 0.44914 0.07452 0.66242zm-0.86611 20.058c0.0012 0.4177-0.67068 0.85911-1.3576 0.68672-0.66577-0.16743-0.7075-0.11383-0.53302 0.68134 0.21909 0.99716-0.59296 2.0492-0.8813 1.1415-0.08443-0.26561-0.20296-0.65119-0.26347-0.85677-0.41271-1.3996 1.5385-2.8277 2.7854-2.0389 0.1744 0.11032 0.24953 0.24686 0.24994 0.3861zm-0.23756 58.989c0.01977 0.26793-0.2783 0.51738-0.91118 0.51738-0.56519 0-1.1261-0.21621-1.3597-0.52392-0.39968-0.52668-0.50312-1.6879-0.21443-2.4073 0.2753-0.68574 1.0123 0.21513 0.81589 0.99738-0.14758 0.58732-0.04584 0.70615 0.67386 0.78879 0.63826 0.07337 0.97575 0.3597 0.99551 0.62762zm-0.44289-98.613v1.0476c0 1.1232 0.01214 1.1191-2.0957 0.71639-1.527-0.29156-2.6493 0.83947-2.464 2.4839 0.11887 1.0526 0.04167 1.3642-0.39568 1.5984-0.8137 0.43519-1.6931 0.35085-1.8978-0.18289-0.1001-0.26046-0.15481-0.56385-0.12192-0.67364 0.03325-0.11014 0.10636-1.2428 0.16233-2.5175 0.12103-2.7462 0.03653-2.6937 4.1184-2.5603zm-0.22774 31.353c-0.10803 0.68605-1.0647 0.8292-3.7006 0.8292h-3.1071v-3.452c0-2.7578 0.08825-3.486 0.43913-3.6207 0.65895-0.2527 2.1216 0.34857 2.0027 0.82359-0.68072 2.7221 0.11133 3.9576 2.4381 3.804 1.4167-0.0934 1.5213-0.05026 1.7836 0.73413 0.12183 0.3641 0.18013 0.65308 0.14412 0.88176zm-0.22097-26.995c0 0.61733-0.43924 0.78302-0.74838 0.2824-0.33139-0.53673-0.82222-0.315-0.66172 0.29898 0.22531 0.86226-0.26545 1.0188-0.97379 0.31042-0.97683-0.97659-0.63176-2.4059 0.58114-2.4059 0.75462 0 1.8028 0.88033 1.8028 1.514zm-0.34405 22.805c0 0.12659-0.02906 0.28969-0.09133 0.48584-0.23464 0.73944-1.7992 1.148-2.421 0.63183-0.92839-0.77029-0.20228-2.6842 1.0182-2.6843 0.73106 0 0.76603 0.10425 0.31697 0.94342-0.40446 0.7563-0.14112 1.0638 0.47346 0.55358 0.29085-0.2414 0.50624-0.29872 0.61781-0.1976 0.05579 0.05055 0.08567 0.14063 0.08596 0.2672z"/>
  <path d="m55.472 105.8c0.01257-8.4937 0.18212-16.954 0.49706-17.562 0.3986-0.77029 0.39902-1.157 0.0074-3.4032-0.6446-3.696-0.63104-26.018 0.01775-29.166 0.37325-1.8112 0.38398-2.2762 0.06097-2.6654-0.2907-0.35014-0.41242-9.1833-0.38984-17.966h13.049c0.07346 0.40936 1.5092 1.1289 1.8509 0.90745 0.20115-0.13024 1.5989-0.28726 2.3088-0.4523 2.0261 0.03644 3.5728 0.45598 4.1293 0.1748 0.33127-0.20899 0.48856-0.42704 0.52344-0.62995h13.347c-0.02527 8.6483-0.18347 17.241-0.45478 17.672-0.35387 0.5622-0.35552 0.99927-0.011 2.9069 0.56818 3.1431 0.58966 26.87 0.02686 29.556-0.27841 1.3295-0.29829 1.9557-0.06867 2.1853 0.26765 0.26765 0.36587 9.4087 0.33775 18.544h-13.057c0.27848-0.11218 0.52254-0.25069 0.76753-0.30996-0.04115-0.0977 0.02264-0.10324-0.0082-0.24782-0.49846-0.0167-1.1834-0.22439-1.5218-0.46154-0.58074-0.40685-2.3608-0.11887-2.958 0.47837-0.16273 0.16272 0.14487 0.36006 0.56245 0.54096h-2.7922c0.11396-0.14553 0.15883-0.30422 0.02919-0.51387-0.38174-0.61757-1.9283-0.76357-2.5922-0.24502l-0.59865 0.46763 0.37278 0.29126h-13.436c4.8e-5 -0.0363-0.0012-0.0646-0.0012-0.10091zm0.54681-102.83c-0.07465-2.8261 0.97181-2.9511 4.7433-2.8179 2.1354 0.075462 4.0508 0.13425 4.2567 0.13126 2.9605-0.044608 6.3006-0.021299 7.8585 0.055359 1.0702 0.05274 3.2671-0.009089 4.8815-0.13758 2.2264-0.17724 3.1137-0.13794 3.6732 0.1614 0.56674 0.30328 0.8198 0.31282 1.091 0.041582 0.63073-0.63073 8.2839-0.47827 8.5503 0.17051 0.18824 0.45863 0.19014 2.9907 0.01076 15.193-0.02188 1.4819 0.06793 3.8703 0.199 5.3076 0.17879 1.958 0.14411 2.7276-0.1392 3.0685-0.27123 0.32696-0.28753 0.56415-0.0577 0.84111 0.1764 0.21216 0.36112 1.2561 0.41111 2.3201l-0.0019-0.0022c0.10365 2.2093 0.15244 4.9934-0.516 7.8118-3.7469-0.26823-14.738 3.7667-13.255-0.75211-0.70655-0.43639-4.0822-0.72006-5.7572-0.48327-1.4891 0.02604-2.638-0.20443-2.9922 0.75784 0.08008 0.08007-0.2687 0.42594-0.19316 0.47285l-12.244 0.0047c-2.3255 0.0012 0.06688-8.4268 0.16444-9.7668 0.02392-0.32924-0.05044-1.0596-0.16537-1.6234-0.11493-0.56376-0.03704-2.3236 0.17308-3.9106 0.33857-2.5584 0.32072-3.2343-0.1586-5.9625-0.42539-2.4216-0.46915-3.2783-0.20485-4.0229 0.23201-0.65404 0.25065-1.5929 0.06026-3.0416-0.21463-1.6328-0.73889-4.6918-0.3889-3.8169zm0.75586 45.615c0.02185 1.3964 0.06721 2.4179 0.14084 2.6703 0.12593 0.43232 0.34987 0.13458 0.89951-1.1973 0.40231-0.97539 1.0829-2.4587 1.5122-3.2967 0.76692-1.4974 0.7717-1.545 0.27958-2.7751-1.301-3.2518 0.5815-5.6004 3.8653-4.8217 1.5145 0.35925 1.5292 0.35567 2.9419-0.72269 0.78117-0.59605 1.5441-1.0838 1.6962-1.0838 0.46605 0 0.30647-0.82234-0.19737-1.0156-0.96666-0.37097-10.515-0.20122-10.824 0.19247-0.15565 0.19804-0.27261 3.6257-0.31393 7.1302-0.02065 1.7522-0.02232 3.5237 0 4.9201zm0.23615 48.916 0.14949 6.7628 5.3886-0.0642c2.9637-0.0354 5.49-0.0683 5.6133-0.0731 0.47251-0.0182 0.19483-0.60207-0.44894-0.94458-0.37062-0.19733-1.1693-0.75546-1.775-1.2408l-1.1013-0.8827-1.3225 0.505c-3.1326 1.1963-5.7246-2.16-3.9664-5.1364 0.51879-0.87804 0.51279-0.90866-0.67153-3.4084-0.65716-1.3873-1.3049-2.8589-1.4391-3.2706l-0.24409-0.74844-0.16632 0.86914c-0.09137 0.47813-0.09863 3.9125-0.01635 7.6322zm0-27.676c0 12.906 0.09873 14.21 1.3821 18.249 1.863 5.8628 5.1477 10.501 9.7332 13.745 4.235 2.9952 5.7621 2.9337 10.781-0.4354 3.7619-2.5254 7.7537-8.6436 9.5986-14.711 0.85209-2.8026 1.1535-27.236 0.37933-30.737-1.7402-7.8663-5.3698-13.529-11.151-17.395-3.8113-2.5491-4.7053-2.586-8.5683-0.35294-4.0005 2.3123-6.5878 5.286-9.1787 10.549-2.834 5.7559-2.9762 6.7659-2.9762 21.089zm0.29898-68.579v2.9618c0 3.2174 0.16406 3.5209 1.6951 3.1365 0.60286-0.15152 0.70863-0.31188 0.54096-0.8229-0.67294-2.0513 0.46352-3.6047 2.4229-3.311 1.1262 0.16886 1.2618 0.12009 1.4318-0.51458 0.3858-1.4412 0.36876-1.4498-2.9473-1.4498zm0.0598 26.878c0.51118 0-0.02088 1.1707 0.0039 2.0102l0.08595 2.9043 2.895 0.14504c3.1539 0.1581 3.5722-0.04946 3.31-1.6416-0.10357-0.6281-0.22368-0.67158-1.3685-0.5001-1.8585 0.27865-3.0412-0.84951-2.7926-2.6637 0.16312-1.1891 0.12056-1.2861-0.69909-1.5953-0.99014-0.37358-1.3557-0.19031-1.4346 1.3412zm0.29033-17.898c-0.43458 0-0.01028 1.0808 0.11025 2.3507 0.29551 3.1161 0.29274 5.9943-0.0093 9.0565-0.22184 2.2474-0.21378 2.287 0.68603 3.2932 1.7558 1.9636 5.0607 1.3677 8.2182-1.4811 0.61757-0.55718 1.1073-1.0985 1.088-1.2027-0.27937-1.5265-0.76997-1.6034-1.6133-0.25296-1.243 1.9908-4.575 2.6991-5.9994 1.2746-0.93078-0.93066-0.9274-1.8761 0.01355-3.9334 0.91033-1.9906 0.91492-2.1686 0.10278-3.8966-0.91188-1.9399-0.90973-3.893 0.0051-4.6339 1.3596-1.1011 4.0525-0.47976 5.562 1.2835 0.84934 0.99178 1.0345 1.0874 1.3575 0.69793 0.53924-0.64961 0.23837-1.1604-1.4858-2.5231-2.5528-2.018-5.9443-2.4995-7.3939-1.0499-0.38096 0.38096-0.20705 1.0172-0.64164 1.0172zm0.99668 73.086 0.01518-12.723c0.01375-11.356 0.07516-12.965 0.57087-14.969 0.64244-2.5961 1.5173-4.7897 1.9104-4.7897 0.62331 0 3.1751 1.6626 4.7232 3.0774 1.683 1.5381 2.1932 1.5759 2.2061 0.16373 0.0054-0.59664-2.5922-2.8701-4.4861-3.9262-0.74099-0.41317-1.3888-0.95702-1.4398-1.2085-0.0983-0.48506 1.1103-2.6035 2.1132-3.7045l0.5996-0.65822 1.9938 1.0042c2.5971 1.308 4.8253 3.3381 6.1942 5.6444 2.1408 3.6063 1.942 3.3792 2.4051 2.7457 0.62618-0.85625 0.50838-1.3894-0.81215-3.67-1.699-2.9345-4.2447-5.2076-7.0758-6.3183-0.78823-0.30926-1.4712-0.75114-1.5176-0.98196-0.09077-0.45146 3.6324-3.0495 5.978-4.1712l1.4031-0.67084 2.023 0.99597c2.0755 1.0218 4.6012 3.079 4.6012 3.7478 0 0.20665-0.75865 0.75899-1.6855 1.2281-2.73 1.3813-4.1854 2.8259-3.6735 3.6459 0.55132 0.88247 0.80729 0.83585 2.2152-0.4048 0.65859-0.5805 2.06-1.4702 3.1141-1.9772l1.9165-0.92216 0.55638 0.71077c1.8699 2.3872 2.6335 4.4529 1.6465 4.4529-0.73704 0-4.6182 2.0517-5.735 3.0318-1.5773 1.384-3.5633 4.1782-4.3539 6.1263-0.76419 1.8824-1.2166 2.0305-1.7444 0.5711-0.51401-1.4218-0.93979-1.3193-0.935 0.22447 0.0042 1.3346 1.6133 6.4055 1.9994 6.3019 0.12342-0.03289 0.37375-0.70662 0.55732-1.497 0.8625-3.7158 3.5399-8.5362 5.6993-10.26 2.145-1.7118 5.469-3.2487 6.1354-2.8368 0.2643 0.16336 1.3555 3.5947 1.7591 5.5304 0.15631 0.74984 0.23898 7.0041 0.1878 14.212l-0.09132 12.873-0.79977 2.3561c-0.91906 2.7082-1.291 3.4817-1.6745 3.4817-0.5933 0-3.8614-2.1313-5.0766-3.3105-1.3036-1.2648-1.7979-1.2459-1.81 0.0689-6e-3 0.65201 2.7494 3.0828 4.5396 4.0052 1.8391 0.94729 1.8484 0.97656 0.85606 2.6973-1.4687 2.5471-1.9406 2.9031-3.1689 2.39-3.5858-1.4982-6.391-4.2777-8.4378-8.3602l-0.58255-1.1618-0.62552 0.6713c-0.70822 0.76012-0.6291 1.074 0.94413 3.748 1.5463 2.6284 4.3025 5.0439 7.0667 6.1926 1.8887 0.785 1.8741 1.0178-0.15533 2.4892-3.2269 2.3398-5.4625 3.288-6.6985 2.8417-2.0966-0.75713-5.717-3.5228-5.717-4.367 0-0.19539 0.30278-0.43442 0.6734-0.53021 0.96427-0.24959 4.8519-3.0188 4.9348-3.5151 0.03803-0.22926-0.12603-0.67227-0.36461-0.98453-0.41702-0.54546-0.49672-0.52003-2.0158 0.64536-0.86991 0.66732-2.3685 1.5966-3.3304 2.0648l-1.7493 0.85139-0.70774-0.88643c-1.098-1.3759-2.2196-3.5902-1.9894-3.9285 0.11433-0.16767 0.88161-0.55324 1.7049-0.85677 4.056-1.4948 6.4575-3.7651 8.4798-8.0162 1.2391-2.6045 1.3496-2.684 1.998-1.4302 1.2506 2.4177 1.3603-0.49907 0.14692-3.8919-0.38281-1.0702-0.75498-2.1479-0.8271-2.3949-0.15475-0.52955-0.19492-0.43504-1.4456 3.4268-1.8454 5.697-4.9015 9.2377-9.3256 10.804-1.9553 0.69208-1.9706 0.67704-2.9994-2.8765zm1.206-18.469c-0.04383 0.17066-0.01259 0.39757 0.06377 0.68952 0.12868 0.49308 0.44479 0.56549 2.4703 0.56549 1.2774 0 2.7436 0.08413 3.2582 0.1871 0.85771 0.17162 0.93536 0.122 0.93524-0.59866 0-0.43232-0.13964-0.78598-0.31089-0.78598-0.17114 0-1.6054-0.14419-3.1874-0.32047-2.2908-0.25554-3.0977-0.24898-3.2292 0.26301zm0.0035 3.3488c0.10834 0.53802 0.90673 0.60053 3.456 0.60053h3.268v-0.74838c0-0.64926-0.1326-0.74838-1.0025-0.74838-0.55156 0-2.0128-0.08514-3.2477-0.18966-2.0357-0.17209-2.2587-0.13718-2.3914 0.37419-0.07791 0.30026-0.11856 0.53238-0.08245 0.7117zm0.02593-6.2767c-0.04867 0.17276-0.02343 0.41264 0.03667 0.72712 0.12127 0.63467 0.33672 0.71425 2.4245 0.89531 1.2603 0.10955 2.7293 0.27371 3.2643 0.36532 0.88247 0.15092 0.97308 0.09661 0.97308-0.58208 0-0.7136-0.14831-0.77621-3.2138-1.3587-2.528-0.48032-3.3388-0.56524-3.4847-0.04695zm0.11212 9.8712v2.0522l1.7215-0.1628c0.94657-0.08981 2.4623-0.24842 3.368-0.35294 1.41-0.16276 1.6603-0.2864 1.7423-0.86307 0.0946-0.66491 0.05235-0.6734-3.368-0.6734zm0 3.8008v0.76707l2.7691-0.20929c1.5232-0.11505 3.0723-0.28184 3.4429-0.37046 0.40422-0.09675 0.67376-0.38758 0.67364-0.72758 0-0.68526 0.16452-0.65484-3.1435-0.58511-3.4158 0.07187-3.7421 0.17007-3.7421 1.1254zm0-16.089c0 0.78859 0.12207 0.90578 1.1226 1.0773 0.61733 0.1056 1.9728 0.38115 3.0122 0.61196 1.0394 0.23081 2.0833 0.41998 2.3201 0.41998 0.44129 0 0.60976-1.0577 0.20602-1.2931-0.41941-0.24433-5.7233-1.7007-6.1933-1.7007-0.31823 0-0.46763 0.28228-0.46763 0.88455zm0 21.45c0 0.80653 0.5876 0.91392 2.3949 0.43818 0.57631-0.15152 1.8225-0.42968 2.7691-0.61804 1.5552-0.30962 1.7215-0.41646 1.7215-1.1048 0-0.67294-0.09624-0.74222-0.82335-0.59166-0.45266 0.09364-2.0019 0.39293-3.4427 0.66476-2.4266 0.4578-2.6193 0.547-2.6193 1.2116zm0.05279-2.6126c-0.08826 0.92468-0.03734 0.99612 0.59889 0.84041 0.38258-0.0934 1.6385-0.32024 2.791-0.50406 1.1525-0.18381 2.3984-0.45788 2.7691-0.60964 0.39071-0.15989 0.67364-0.53411 0.67364-0.89133 0-0.55981-0.12839-0.59945-1.422-0.43633-0.78225 0.09878-2.2977 0.27205-3.368 0.38494-1.9447 0.2051-1.9459 0.20558-2.0426 1.216zm0.06073-21.302c0.0024 0.35482 0.26776 0.4572 1.156 0.68484 0.70117 0.17963 2.2516 0.64752 3.4455 1.0394s2.1704 0.59832 2.1704 0.45852 0.06768-0.43363 0.1502-0.65308c0.1691-0.44966-6.1325-3.3847-6.4654-3.0111-0.10656 0.11947-0.2797 0.58238-0.3847 1.0285-0.04431 0.18838-0.07274 0.33463-0.07195 0.45291zm0.0039 13.381c-0.15894 0.41427 0.23442 0.47346 3.1435 0.47346 3.1254 0 3.325-0.03587 3.325-0.59866 0-0.56076-0.1995-0.59865-3.1433-0.59865-1.7289-1.2e-5 -3.1435 0.05608-3.1435 0.12496 0 0.06889-0.08175 0.33842-0.18173 0.59889zm0.18173 13.349c0 1.2493 0.17121 1.2574 3.6095 0.17191 2.8578-0.90232 3.1345-1.0551 3.221-1.778 0.11373-0.94989 0.17125-0.94664-3.1395-0.17611-3.8457 0.89514-3.691 0.82056-3.691 1.7822zm0.21845-78.143c-0.0016 0.20394 0.03896 0.41478 0.11562 0.61711 0.15332 0.40467 0.45129 0.77497 0.84672 0.98663 0.63683 0.34096 0.72487 0.24348 0.62668-0.69209-0.04521-0.43089 0.07843-0.50849 0.56433-0.35434 0.72724 0.23081 0.72646 0.23221 0.23661-0.74091-0.47334-0.94035-1.8411-1.1781-2.2533-0.39194-0.09151 0.17454-0.1351 0.3716-0.13665 0.57554zm0.08106 92.78c0 1.3616 0.91399 2.251 2.1298 2.0725 1.3011-0.19099 0.88927-1.2954-0.48328-1.2954-0.46449 0-0.59865-0.19937-0.59865-0.89157 0-0.61004-0.16526-0.9239-0.52392-0.99457-0.42957-0.08467-0.52391 0.11452-0.52391 1.109zm0-77.452c0 1.4107 2.7644 2.3414 4.1245 1.3889 0.86116-0.60322 0.88231-1.8195 0.0362-2.0882-0.34574-0.10955-0.77684-0.05119-0.95791 0.12964-0.38676 0.38688-1.4068 0.44199-1.4068 0.07592 0-0.47299 1.0925-1.2438 1.7628-1.2438 0.36882 0 0.58494-0.13417 0.48256-0.29945-0.20474-0.33175-1.923-0.40402-2.6808-0.11329-0.46629 0.17903-1.3606 1.5919-1.3606 2.1503zm0.05185 21.398c0.13119 1.1445 1.0173 1.1691 0.93921 0.02616-0.04903-0.71755 0.05253-0.82313 0.79136-0.82313 0.79277 0 1.3926-0.61657 0.99036-1.0184-0.89574-0.89574-2.88 0.4281-2.7209 1.8154zm0.01331-28.783c-0.10145 1.2748 1.5117 2.5421 3.4889 2.1552l1.0857-0.21255-1.1784-0.33986c-1.1756-0.33904-1.9857-1.1234-1.5794-1.5297 0.11792-0.11804 0.55969-0.02983 0.98173 0.1962 0.5457 0.29204 0.90798 0.32219 1.2541 0.10394 0.75415-0.47598 0.76318-0.90434 0.03247-1.5848-0.8625-0.80318-2.3443-0.80569-3.3621-0.0049-0.46485 0.36568-0.68911 0.79153-0.72292 1.2165zm0.01588 15.458c0.12833 0.58198 0.64482 1.0304 1.4536 0.91235 0.42718-0.06255 0.81301-0.45016 1.0653-1.0707 0.36045-0.88665 0.08943-1.3926-0.35784-0.66873-0.10357 0.16731-0.32008 0.22284-0.4814 0.1231-0.18381-0.11349-0.1601-0.34136 0.06354-0.6108 0.54964-0.66254 0.03053-0.90007-0.86844-0.39779-0.74338 0.41534-1.0031 1.1306-0.87475 1.7126zm0.19877 57.418c0.07802 0.58227 0.53047 1.5141 0.84251 1.5141 0.70679 0 3.6756-1.726 4.7902-2.7852 1.0714-1.0182 1.2592-1.5659 0.44917-1.3108-1.1732 0.36978-5.9199 2.0768-6.016 2.1636-0.07628 0.06894-0.09187 0.22425-0.06587 0.41833zm0.15182-32.403c-0.01796 0.18382 0.0036 0.33368 0.08106 0.40642 0.23237 0.2179 5.3438 2.3757 5.6278 2.3757 0.08025 0 0.14621-0.11309 0.14621-0.2511 0-0.56495-4.3482-3.94-5.0759-3.94-0.31636 0-0.72532 0.85746-0.77922 1.4089zm0.91539-36.821 1.497 0.36181c0.82327 0.19912 1.6988 0.41222 1.9457 0.47393 0.32816 0.08192 0.47397-0.18983 0.5419-1.0102 0.08922-1.0778 0.06371-1.1109-0.6365-0.84484-0.40111 0.15248-1.3184 0.44462-2.0387 0.6484zm1.3812 75.013c0.04779 0.26491 0.25929 0.67663 0.63977 1.2641 0.65345 1.0086 1.4983 1.3511 1.8663 0.75586 0.09866-0.16049 0.64571-0.51245 1.2148-0.78249 0.56923-0.27004 1.5647-0.98124 2.2122-1.5802l1.1772-1.0885-0.50335-0.96609c-0.60478-1.16-0.77689-1.184-1.9723-0.27609-1.1712 0.88976-3.7957 2.2902-4.2918 2.2902-0.2747 0-0.3907 0.11816-0.3429 0.38308zm0.34148-43.871c0.04488 0.27837 0.38139 0.48839 1.0485 0.87054 0.6165 0.35292 1.7477 1.1947 2.5138 1.871 0.76608 0.67629 1.5069 1.2233 1.6465 1.2158 0.13944-0.0075 0.53478-0.60949 0.87848-1.3382l0.62459-1.3242-0.77455-0.68882c-1.0056-0.89419-2.3334-1.8085-3.5139-2.4189-0.94154-0.4871-0.94484-0.48589-1.7215 0.53232-0.49995 0.6553-0.74678 1.0021-0.70191 1.2805zm0.29759-43.378c-0.08346 1.4727 0.70631 2.8603 2.5955 4.8038 1.7298 1.7794 1.8738 1.8533 2.3914 1.2298 0.27422-0.33043 0.13896-0.53589-0.66756-1.0116-1.8154-1.0712-2.7318-3.7507-1.8595-5.4377 0.7319-1.4157 1.9305-1.5762 4.4155-0.59188 1.8774 0.74374 3.6671 0.66316 5.5433-0.24992 4.151-2.0199 6.464 2.4491 3.0281 5.8509-1.0607 1.0499-1.1711 1.2676-0.73016 1.4367 0.57572 0.22089 2.6238-1.5559 3.3133-2.8746 1.481-2.8327 0.92973-5.2635-1.4757-6.5073-0.77424-0.40014-1.2575-0.40954-3.8064-0.072174-2.2844 0.30233-3.4595 0.31118-5.4008 0.039944-4.7538-0.66421-6.1162-0.30162-6.9807 1.8593-0.21353 0.53356-0.33842 1.0339-0.36625 1.5248zm0.32981 24.456c0.0042 0.49207 0.12288 0.95996 0.34009 1.4416 0.99333 2.2028 1.9005 2.3748 8.5777 1.6273 0.9858-0.1105 2.112-0.04921 2.7072 0.14716 1.4209 0.4688 4.8097 0.47721 5.5521 0.01355 0.33617-0.21024 0.83006-0.75238 1.0974-1.205 0.7972-1.3498 0.88413-3.2386 0.21466-4.6713-0.74302-1.5909-2.9333-3.9848-3.6454-3.9848-0.95721 0-0.89986 0.51081 0.14645 1.309 1.2905 0.98436 2.1094 3.0264 1.885 4.6996-0.28834 2.1495-2.2419 2.8847-4.8222 1.8154-1.9183-0.79505-3.0343-0.80388-4.9724-0.03993-1.9908 0.78464-2.7623 0.75526-3.8337-0.14646-1.6752-1.41-1.3955-3.7225 0.69349-5.7346 0.94119-0.90651 1.1989-1.3293 0.95673-1.5715-0.47083-0.47059-0.9092-0.41112-1.4178 0.1927-2.474 2.9372-3.4916 4.6312-3.4791 6.1073zm2.6551-11.087c0.16819 0.78107 0.94687 2.1285 1.8448 3.0524 1.1837 1.2178 3.7789 2.4973 4.2037 2.0725 0.46856-0.46892-0.04738-1.1582-1.6236-2.1697-0.80318-0.51544-1.7339-1.4007-2.0683-1.9677-0.58971-0.99967-1.9411-1.9051-2.3031-1.5432-0.0978 0.09783-0.10956 0.29533-0.05349 0.55568zm0.03901-2.3993c0.05456 0.77191 1.3608 0.30518 1.9761-0.90114 0.3272-0.64185 1.014-1.4836 1.526-1.871 0.51185-0.38736 1.257-1.0015 1.6561-1.3643 1.3262-1.2067 0.72113-1.6686-1.1553-0.88268-1.9572 0.82027-3.2599 2.3434-3.944 4.6111-0.04896 0.16229-0.06666 0.29778-0.05886 0.40806zm0.58301-8.4511c0.14862 0.72803 0.64533 1.4228 1.4421 1.8492 1.2939 0.69268 2.0278-1.21 0.87077-2.2573-0.56674-0.51377-0.5671-1.0541 0-1.0541 0.51903 0 1.4907 1.3167 1.4907 2.0202 0 0.39614 0.13199 0.62617 0.29898 0.52368 0.51908-0.32174 0.346-2.4091-0.24432-2.9433-0.97922-0.88618-2.3807-0.96778-3.2117-0.18733-0.59563 0.55951-0.79516 1.3209-0.64654 2.0489zm0.3875 9.497c-0.09168 0.1205 0.01481 0.19123 0.27259 0.27398 2.0609 0.66254 4.3411 2.7187 4.9829 4.4933 0.49535 1.3706 0.63611 1.3201 1.2758-0.45945 0.6318-1.7564 2.4098-3.4415 4.1159-3.901 1.4642-0.39465 1.6788-0.78832 0.56316-1.0327-1.9594-0.43053-5.1002-3.4284-5.1002-4.868 0-0.35064-0.13489-0.72065-0.29945-0.82242-0.16468-0.10189-0.30062-0.0087-0.30062 0.20671-0.0051 1.5846-2.2678 4.3122-4.5933 5.537-0.53529 0.28182-0.82511 0.452-0.91679 0.5725zm0.05629 10.461c0.05605 2.0808 2.2997 3.044 3.95 1.2728 0.71336-0.76573 0.79495-2.2718 0.16772-3.1007-0.409-0.54067-0.43998-0.49256-0.44895 0.69116-0.01076 1.4534-1.0523 2.8979-1.5362 2.1309-0.16587-0.26286-0.09951-0.52838 0.18524-0.74185 0.66636-0.49978 0.53357-1.5407-0.26301-2.0627-0.93222-0.61099-1.6309-0.3024-1.9368 0.85489-0.0894 0.33815-0.12595 0.65832-0.11796 0.95558zm0.14226 36.797c-0.01337 1.8128 0.01264 4.051 0.05839 6.9202 0.09699 6.0755 0.28456 10.433 0.45665 10.605 0.81849 0.81849 1.0635-1.5911 1.156-11.379 0.09962-10.535 0.32394-12.64 1.7205-16.149 0.85114-2.1384 0.82969-1.9627 0.32047-2.6593-0.59844-0.81813-0.95413-0.40917-1.9968 2.2944-1.2805 3.3205-1.6751 4.9288-1.7152 10.367zm0.31486-21.606c0.14191 0.28122 0.66443 0.64507 1.5853 1.1263 0.92145 0.48136 1.7437 1.054 1.8275 1.2723 0.3235 0.84217 0.98663 0.40453 0.98663-0.65075 0-0.73154 0.13513-1.0478 0.44894-1.0478 0.2973 0 0.44917 0.29746 0.44916 0.88059 0 1.1948 0.41096 1.3605 1.3094 0.52788 0.41343-0.38353 1.2315-0.95494 1.817-1.2704 1.2715-0.68466 1.3237-0.9062 0.27656-1.1691-0.57332-0.14375-0.96484-0.03057-1.4412 0.41671-0.9139 0.85855-1.2821 0.76576-1.1279-0.2845 0.14399-0.98041-0.59059-2.3942-1.2438-2.3942-0.70978 0-1.3868 1.071-1.3868 2.194 0 1.3028-0.15766 1.3461-1.2141 0.33426-0.61398-0.58827-0.98057-0.71891-1.5883-0.5662-0.60173 0.15116-0.8403 0.34967-0.69839 0.6309zm0.20228 55.359c-0.01699 0.07525 0.0086 0.13297 0.07474 0.17495 0.69686 0.44225 1.3966 0.25813 2.1641-0.56993l0.76076-0.82033v1.1347c0 1.308 0.7252 2.901 1.3207 2.901 0.59604 0 1.3739-1.3397 1.3739-2.3668 0-1.1439 0.37821-1.3665 1.0539-0.61992 0.3266 0.36045 0.91978 0.59142 1.5194 0.59142 1.5412 0 1.4532-0.46658-0.25529-1.3482-0.86369-0.44644-1.8486-1.0665-2.1884-1.3781-0.85099-0.7801-0.97864-0.72291-1.0852 0.48772-0.05094 0.57988-0.2275 1.0541-0.39218 1.0541-0.16468 0-0.34099-0.47425-0.39218-1.0541-0.08048-0.91332-0.95486-1.6377-0.95486-0.79114 0 0.14459-0.74345 0.77482-1.6523 1.4008-0.86286 0.59413-1.2961 0.97813-1.347 1.2039zm2.5289-28.329c0.02212 2.5552 0.1138 5.1452 0.25343 5.2849 0.08766 0.08778 0.3748-0.78542 0.63766-1.941 0.44153-1.9423 0.58099-3.9571 0.32351-4.6772-0.05884-0.16468-0.2598-1.0741-0.4466-2.0207-0.1868-0.94657-0.45848-1.7215-0.60402-1.7215-0.13855 0-0.1861 2.5202-0.16397 5.0754zm0.47744-53.216c0.21324-1.1632 1.9636-1.8935 3.1503-0.70681 0.98041 0.98018 0.93316 1.1026-0.38797 0.99925l-1.1228-0.08759 0.09437 1.1756c0.09938 1.2361-0.2779 1.2003-1.3569-0.128-0.34831-0.42892-0.44808-0.86472-0.37699-1.2524zm0.52624 39.867c0.0092 0.27721 0.09594 0.5338 0.26325 0.86447 0.52022 1.0278 0.58119 1.0246 1.142-0.06002 0.51616-0.99776 0.53783-1.3651 0.13875-2.3601-0.37121-0.92624-0.90633-0.70007-1.3428 0.56713-0.14231 0.41355-0.21035 0.71128-0.20112 0.9885zm0.13735 28.558c-0.01972 0.28946 0.05819 0.56098 0.22377 0.96048 0.48638 1.1748 0.85501 1.0549 1.3783-0.44918 0.22722-0.65285 0.41465-1.2057 0.41764-1.2289 0.0026-0.02308-0.25194-0.35834-0.56504-0.7451l-0.56946-0.70307-0.52344 1.0978c-0.22471 0.47119-0.34209 0.77846-0.36181 1.0679zm0.36882-76.238c-0.03369 0.26274-0.02816 0.45342 0.02265 0.58769 0.10164 0.26851 0.38419 0.31168 0.8953 0.25553 1.0115-0.11074 1.001-0.067725 0.5015-2.0567-0.48806-1.9421-0.67794-1.9114-1.2067 0.19316-0.10623 0.42273-0.17911 0.75753-0.21279 1.0203zm0.23591 16.154c-0.07578 0.21817 0.02955 0.66712 0.23148 1.5907 0.63049 2.8842 0.68912 2.9612 0.91001 1.1976 0.11349-0.90555 0.30539-1.9494 0.42651-2.3201 0.19673-0.60143 0.12044-0.67364-0.71264-0.67364-0.52268 0-0.77957-0.01263-0.85537 0.20555zm0.97776 45.787c0.0084 2.201 0.63957 5.3886 1.0667 5.3886 0.17006 0 0.25117-2.0336 0.20321-5.089-0.04389-2.7988-0.16345-5.0894-0.26558-5.0894-0.39513-0.0012-1.0116 2.9373-1.0044 4.7897zm0.32444 17.393c-0.01668 0.27746 0.01339 0.57548 0.07801 0.84368 0.12926 0.53638 0.39684 0.95383 0.70611 0.85068 0.40721-0.13562 1.8415-3.6058 2.5089-6.0693 0.77063-2.8452 0.87767-24.033 0.12472-24.8-0.77842-0.79397-1.0299 1.3336-1.1104 9.3873-0.13502 13.513-0.47282 16.576-2.105 19.067-0.12216 0.18642-0.18559 0.44335-0.20228 0.72083zm0.3854-77.061c-0.01676 0.07569-0.0097 0.16436 0.02009 0.26161 0.11904 0.38898 0.5998 0.91617 1.3583 1.3064 0.65871 0.33856 1.6687 1.2486 2.2447 2.0219 0.57595 0.77328 1.2832 1.4059 1.5717 1.4059 1.3591 0-0.20122-3.0231-2.1699-4.2046-0.74099-0.44452-1.7276-0.89811-2.1926-1.0074-0.51641-0.12149-0.78194-0.01076-0.83224 0.21629zm0.04322 12.026c-0.01939 0.14554 0.0026 0.26963 0.07988 0.34686 0.77962 0.7795 4.1625-1.6023 5.109-3.5973 0.60382-1.2723 0.62142-1.9833 0.0493-1.9833-0.5158 0-1.6582 1.152-1.6582 1.672 0 0.4566-1.8575 2.1039-2.6593 2.3584-0.43169 0.13696-0.86262 0.76674-0.92076 1.2034zm0.2859-15.267c0.05431-1.059 0.5205 1.1914 0.74115 0.18709 0.24074-1.0947 1.1709-1.9644 1.8308-1.7112 0.43185 0.16575 0.39632 0.28593-0.26862 0.90207-0.81968 0.7606-0.81992 1.7883 0 2.1029 0.61374 0.2356 2.0677-0.67413 2.4626-1.5404h-0.0012c-1.3427 0 0.14042-2.039-1.3564-2.6644-1.7193-0.71826-3.5155 4.8143-3.4084 2.7245zm0.13361 19.99c0.33043 2.0514 3.0775 2.835 4.4506 0.82851 0.65441-0.95638 0.63708-1.4371-0.09506-2.6376-1.2418-2.0371-2.8727-1.4917-2.5934 0.86727 0.16432 1.3881 0.14154 1.452-0.4111 1.1562-0.43687-0.2338-0.58512-0.6294-0.58512-1.5601 0-1.4585-0.45215-1.2209-0.74862 0.39334-0.06249 0.34036-0.06448 0.65925-0.01728 0.9523zm0.93524 63.362 1.1877 1.0331c0.65321 0.56818 1.8213 1.356 2.5958 1.7511l1.4082 0.71848 0.7624-0.99924c0.99835-1.3092 0.97512-1.4168-0.48163-2.2491-0.68143-0.38939-1.8194-1.243-2.5289-1.8971-1.4703-1.355-1.6015-1.3337-2.3778 0.38774zm0.15393-41.116c0.03254 0.27976 0.16243 0.59729 0.35037 1.002 0.45026 0.96905 0.92624 1.0188 1.8088 0.18873 0.36332-0.34191 1.5701-1.0473 2.6817-1.5673 2.1351-0.99893 2.2761-1.1956 1.5416-2.1517-0.2533-0.32924-0.56686-0.78464-0.6977-1.0119-0.1892-0.32876-0.65865-0.18251-2.2998 0.71802-2.7052 1.4846-3.4826 1.9828-3.385 2.8221zm1.7724-13.199c0 0.12605 0.83314 0.80422 1.8513 1.5068 1.6032 1.1062 1.9461 1.2343 2.5586 0.95532 0.93916-0.42814 2.8112-0.39408 3.3806 0.06121 1.7926 1.4334 2.1434 2.8385 1.1793 4.7278l-0.61034 1.1957 1.0182 2.1601c0.56017 1.1879 1.2177 2.627 1.461 3.1979 0.42204 0.98914 0.44842 1.0031 0.56478 0.29968 0.23057-1.3948-0.03949-14.182-0.30295-14.346-0.40494-0.25138-11.101-0.01919-11.101 0.24128zm0.05186 66.801c-0.02954 0.11236-0.02008 0.2519 0.03457 0.39427 0.2515 0.65525 10.697 0.77814 11.219 0.13175 0.3748-0.46402 0.47248-14.894 0.10067-14.894-0.14303 0-0.56527 0.77454-0.93828 1.7215-0.37301 0.94693-1.0155 2.3603-1.4281 3.1414-0.74458 1.4094-0.74626 1.4289-0.21396 2.6093 1.4029 3.111-0.81437 5.7318-4.0332 4.7676-1.042-0.31226-1.2141-0.26523-2.649 0.72176-0.84396 0.5805-1.6959 1.1096-1.8929 1.1751-0.10094 0.0335-0.16947 0.11866-0.19901 0.23101zm0.86027-46.91c-9.6e-5 0.17049 0.20128 0.22781 0.65962 0.11749 0.37062-0.08922 1.8187-0.56164 3.2182-1.0499 2.6823-0.9358 3.1337-1.4356 2.3119-2.5598-0.38855-0.53111-0.48132-0.51533-2.2437 0.37443-2.1319 1.0764-3.9458 2.6063-3.9461 3.1178zm0.28519 1.8362c0 1.0194 0.17689 1.0526 2.4911 0.46972 1.1819-0.29778 2.678-0.65566 3.324-0.79487s1.1976-0.38785 1.2254-0.55265c0.12533-0.74757-0.23254-1.9721-0.55077-1.884-4.1651 1.1526-6.4897 2.1421-6.4897 2.7618zm0.0542 23.543c0.08922 0.57811 4.8101 2.9025 6.2328 3.069 0.30173 0.03528 0.47969-0.26649 0.54236-0.9203 0.05178-0.53505 0.03985-0.97308-0.02593-0.97308s-1.4552-0.40237-3.0874-0.89461c-3.5502-1.0705-3.7864-1.0887-3.6618-0.28099zm0.19246 1.9338c0.0077 0.13675 0.32362 0.48306 0.83621 1.0371 1.3592 1.4689 3.8633 3.1135 4.4167 2.901 0.22483-0.08622 0.47245-0.49018 0.5503-0.89787 0.13143-0.68706-0.06982-0.83122-2.7513-1.9707-1.7764-0.75474-2.672-1.1322-2.9527-1.1364-0.07018-0.0012-0.1018 0.02123-0.09927 0.0668zm0.0528-4.0727c0 0.39609 0.383 0.63997 1.422 0.90582 1.2733 0.32541 2.8087 0.75834 4.79 1.3496 0.60561 0.1807 0.67364 0.09861 0.67364-0.81495v-1.0161l-3.2028-0.6316c-3.391-0.66888-3.6828-0.6523-3.6828 0.20718zm0-18.737c0 0.69842 0.09853 0.82132 0.52368 0.65425 0.28822-0.11313 1.5344-0.39594 2.7693-0.62855 1.2349-0.23261 2.5482-0.49375 2.9188-0.58021 0.47502-0.1111 0.67364-0.37616 0.67364-0.90022 0-0.8968 0.2638-0.89144-3.6672-0.07451-3.1895 0.66278-3.2182 0.67666-3.2182 1.5292zm0.05396 2.2206c-0.11445 0.80234 0.08716 0.81875 3.9673 0.32747 1.493-0.18881 2.8135-0.49198 2.9344-0.6734 0.96259-1.444 0.03624-1.6332-4.1117-0.84018-2.3769 0.45421-2.7057 0.59389-2.7901 1.1861zm0 2.5906c0.20056 0.40287 1.1838 0.44442 3.5658 0.26323 3.115-0.23677 3.116-0.23694 3.2115-1.0651l0.09506-0.82827-1.7418 0.16701c-4.6148 0.44309-4.9265 0.49983-5.0932 0.93455-0.08429 0.21966-0.10422 0.39429-0.03737 0.52858zm0.02125 2.1832c-0.02067 0.13826-0.01355 0.27688 0.01728 0.39942 0.06167 0.24507 0.21792 0.42546 0.4354 0.40782 0.20354-0.0165 1.7172-0.05045 3.3637-0.07497l2.994-0.04438v-1.8541l-3.2182 0.21676c-1.8067 0.1215-3.3167 0.36405-3.4425 0.55264-0.08061 0.12069-0.12906 0.25859-0.14973 0.39684zm0.18826 2.4843c-0.13815 0.43511 0.50697 0.56488 2.0564 0.46271 1.1116-0.07331 2.593-0.14041 3.293-0.14878 1.199-0.01435 1.6478-0.43827 1.0726-1.013-0.36248-0.36284-5.6449-0.2228-6.0272 0.15954-0.21559 0.21562-0.34869 0.39452-0.39475 0.53956zm0.03575 6.7016c0 0.43017 0.10116 0.78159 0.22446 0.78458 0.12354 0.0016 1.551 0.27109 3.1725 0.59889 1.6213 0.3278 3.002 0.59587 3.0685 0.59587 0.06649 0 0.12075-0.40828 0.12075-0.90769 0-1.0407-0.07311-1.0769-2.6943-1.3262-1.0702-0.10213-2.384-0.2622-2.919-0.3562-0.89299-0.15678-0.97284-0.10651-0.97284 0.6108zm0.04904-4.4212c0.09603 0.50264 0.45114 0.57189 3.3224 0.64795l3.215 0.08502v-0.75866c0-0.41738-0.03373-0.76876-0.07475-0.78132-0.43615-0.13287-6.0456-0.08022-6.2704 0.05862-0.16492 0.10201-0.25155 0.43876-0.19223 0.74838zm0.0086 2.1204c-0.10094 0.69148 0.19224 0.77091 4.2481 1.1499 1.5648 0.14638 2.1219 0.09616 2.3157-0.20951 0.70033-1.1049 0.0559-1.3922-3.3303-1.4842-2.9959-0.08168-3.1458-0.05646-3.2334 0.54377zm0.12589-62.914c-0.03008 0.12312-0.01533 0.22306 0.05232 0.29266 0.31823 0.32744 0.52082 0.22344 1.1611-0.59468 0.82925-1.0591 3.4812-2.4444 4.6804-2.4444 2.184 0 2.8496 2.0638 1.5596 4.8351-0.9663 2.0759-0.94303 2.8857 0.14669 5.0441 1.0736 2.1271 1.124 2.9822 0.22446 3.8055-1.6375 1.4991-3.8901 1.2269-5.8198-0.70284-1.3367-1.3367-1.8892-1.4505-1.8892-0.38961 0 0.8735 3.3117 3.196 4.8963 3.4336 1.5366 0.23045 3.4231-0.22561 4.2957-1.0387 0.97479-0.9077 1.0966-2.1668 0.51154-5.273-0.46784-2.4848-0.48499-3.098-0.14248-5.1448 0.21383-1.2779 0.45237-2.6723 0.53022-3.0991 0.38497-2.1127-2.7867-3.3091-5.8516-2.2068-1.743 0.6268-4.1447 2.6213-4.3553 3.4831zm1.571 1.475c0-0.34814 0.33548 0.5697 0.87289 0.5697 1.0809 0 2.1625-0.76972 2.1625-1.5388 0-0.72796 0.70302-0.59243 0.84976 0.16374 0.12784 0.66039-0.73539 1.6392-1.8976 2.1524l-0.89811 0.39639 0.95884 0.01172c1.3214 0.01614 2.2938-0.48347 2.8835-1.4818 0.68729-1.1636 0.62728-1.6547-0.29011-2.3764-0.95805-0.75343-2.1185-0.79433-3.1115-0.11002-0.85574 0.58977-1.3783 1.2853-1.5078 1.8336-0.03236 0.13706-0.02242 0.49561-0.02242 0.37956zm0.04952 3.4472c0.03503 0.36789 0.16719 0.70458 0.36625 0.69232 0.20558-0.0128 1.0268-0.25334 1.824-0.53419l1.4494-0.5106-1.5993-0.33121c-0.87957-0.18216-1.7005-0.27059-1.8238-0.19668-0.18955 0.11331-0.25155 0.51246-0.21652 0.88036zm0.39194 3.6646c0.2319 1.493 3.1034 2.5279 4.3901 1.2412 0.94178-0.94189 0.62794-2.9359-0.56221-3.5728-0.75319-0.40301-2.9344-0.41654-3.1799-0.01961-0.10775 0.17448 0.19263 0.29945 0.71919 0.29945 1.0024 0 2.1249 0.97864 2.1249 1.8527 0 0.7307-0.25013 0.68292-1.074-0.20625-0.78835-0.85018-2.0621-0.99027-2.3435-0.25717-0.08693 0.22656-0.10764 0.44914-0.07452 0.66242zm0.86611 20.058c-0.0012 0.4177 0.67068 0.85911 1.3576 0.68672 0.66577-0.16743 0.7075-0.11383 0.53302 0.68134-0.21909 0.99716 0.59296 2.0492 0.8813 1.1415 0.08443-0.26561 0.20296-0.65119 0.26347-0.85677 0.41271-1.3996-1.5385-2.8277-2.7854-2.0389-0.1744 0.11032-0.24953 0.24686-0.24993 0.3861zm0.23756 58.989c-0.01977 0.26793 0.2783 0.51738 0.91118 0.51738 0.56519 0 1.1261-0.21621 1.3597-0.52392 0.39968-0.52668 0.50312-1.6879 0.21443-2.4073-0.2753-0.68574-1.0123 0.21513-0.81589 0.99738 0.14758 0.58732 0.04584 0.70615-0.67386 0.78879-0.63826 0.07337-0.97575 0.3597-0.99551 0.62762zm0.44289-98.613v1.0476c0 1.1232-0.01214 1.1191 2.0957 0.71639 1.527-0.29156 2.6493 0.83947 2.464 2.4839-0.11887 1.0526-0.04167 1.3642 0.39568 1.5984 0.8137 0.43519 1.6931 0.35085 1.8978-0.18289 0.1001-0.26046 0.15481-0.56385 0.12192-0.67364-0.033246-0.11014-0.10636-1.2428-0.16233-2.5175-0.12103-2.7462-0.036536-2.6937-4.1184-2.5603zm0.22774 31.353c0.10803 0.68605 1.0647 0.8292 3.7006 0.8292h3.1071v-3.452c0-2.7578-0.08825-3.486-0.43913-3.6207-0.65895-0.2527-2.1216 0.34857-2.0027 0.82359 0.68072 2.7221-0.11133 3.9576-2.4381 3.804-1.4167-0.0934-1.5213-0.05026-1.7836 0.73413-0.12183 0.3641-0.18013 0.65308-0.14412 0.88176zm0.22097-26.995c0 0.61733 0.43924 0.78302 0.74838 0.2824 0.33139-0.53673 0.82222-0.315 0.66172 0.29898-0.22531 0.86226 0.26545 1.0188 0.97379 0.31042 0.97683-0.97659 0.63176-2.4059-0.58114-2.4059-0.75462 0-1.8028 0.88033-1.8028 1.514zm0.34405 22.805c0 0.12659 0.02906 0.28969 0.09133 0.48584 0.23464 0.73944 1.7992 1.148 2.421 0.63183 0.92839-0.77029 0.20228-2.6842-1.0182-2.6843-0.73106 0-0.76603 0.10425-0.31697 0.94342 0.40446 0.7563 0.14112 1.0638-0.47346 0.55358-0.29085-0.2414-0.50624-0.29872-0.61781-0.1976-0.05579 0.05055-0.08568 0.14063-0.08596 0.2672z"/>
 </g>
</svg>
