<?xml version="1.0" encoding="UTF-8"?>
<!-- Creator: CorelDRAW 2019 (64-Bit Not for commercial use) -->
<svg width="100" height="98.103" clip-rule="evenodd" fill-rule="evenodd" image-rendering="optimizeQuality" shape-rendering="geometricPrecision" text-rendering="geometricPrecision" version="1.1" viewBox="0 0 29.766 29.228" xml:space="preserve" xmlns="http://www.w3.org/2000/svg">
 <defs>
  <style type="text/css">
   <![CDATA[
    .fil1 {fill:none}
    .fil0 {fill:{{ border_color }}}
   ]]>
  </style>
   
 
   
  <clipPath id="clipPath369"><path d="m0 0h323.56v107.85h-323.56z"/></clipPath><clipPath id="clipPath369-3"><path d="m0 0h323.56v107.85h-323.56z"/></clipPath></defs>
 <g transform="translate(-108.28 107.86)">
  
  
  <g transform="translate(2.7154)" fill="{{ border_color }}"><g transform="matrix(0 .090332 -.090332 0 118.01 -107.86)" clip-path="url(#clipPath369)">
    <rect class="fil0" x="-5.4" y="7.98" width="334.37" height="2.68"/>
    <rect class="fil0" x="-5.4" y="97.2" width="334.37" height="2.68"/>
    <rect class="fil0" x="-5.4" width="334.37" height="2.68"/>
    <rect class="fil0" x="-5.4" y="105.17" width="334.37" height="2.68"/>
    <path class="fil0" d="m168.66 57.2c19.66 19.31 46.31 29.88 74.01 29.88s54.35-10.57 74.01-29.88c1.12-0.4 2.25-0.95 3.14-1.65 0.4-0.31 1.21-1.06 1.21-1.62 0-0.57-0.81-1.31-1.21-1.62-0.89-0.71-2.02-1.26-3.14-1.66-19.66-19.31-46.31-29.87-74.01-29.87s-54.35 10.56-74.01 29.87c-1.12 0.4-2.25 0.95-3.14 1.66-0.4 0.31-1.22 1.05-1.22 1.62 0 0.56 0.82 1.31 1.22 1.62 0.89 0.7 2.02 1.25 3.14 1.65zm-6.88-3.27c19.47 21.95 48.48 35.88 80.89 35.88s61.42-13.93 80.89-35.88c-19.47-21.95-48.48-35.88-80.89-35.88s-61.42 13.93-80.89 35.88z"/>
    <path class="fil0" d="m154.81 50.56c-19.65-19.25-46.27-29.78-73.92-29.78-27.7 0-54.35 10.56-74.01 29.87-1.12 0.4-2.25 0.95-3.14 1.66-0.4 0.31-1.22 1.05-1.22 1.62 0 0.56 0.82 1.31 1.22 1.62 0.89 0.7 2.02 1.25 3.14 1.65 19.66 19.31 46.31 29.88 74.01 29.88 27.65 0 54.27-10.53 73.92-29.79 0.44-0.17 0.88-0.37 1.3-0.58 0.7-0.33 1.36-0.72 1.93-1.16 0.4-0.31 1.22-1.06 1.22-1.62 0-0.57-0.82-1.31-1.22-1.62-0.57-0.45-1.24-0.84-1.94-1.17-0.42-0.21-0.85-0.41-1.29-0.58zm6.97 3.37c-19.47 21.95-48.48 35.88-80.89 35.88s-61.42-13.93-80.89-35.88c19.47-21.95 48.48-35.88 80.89-35.88s61.42 13.93 80.89 35.88z"/>
    <path class="fil0" d="m148.18 50.08c-19.59-13.2-44.07-19.26-67.29-19.26s-47.7 6.06-67.29 19.26c0.95 0.36 1.47 1.07 1.69 2.14 19.05-12.77 42.9-18.67 65.6-18.67s46.54 5.9 65.6 18.67c0.22-1.07 0.74-1.78 1.69-2.14zm-134.58 7.7c19.59 13.2 44.07 19.25 67.29 19.25s47.7-6.05 67.29-19.25c-0.95-0.37-1.47-1.07-1.69-2.15-19.06 12.77-42.9 18.67-65.6 18.67s-46.54-5.9-65.6-18.67c-0.22 1.08-0.74 1.78-1.69 2.15z"/>
    <path class="fil0" d="m309.96 50.08c-19.59-13.2-44.07-19.26-67.29-19.26s-47.7 6.06-67.29 19.26c0.95 0.36 1.47 1.07 1.69 2.14 19.05-12.77 42.9-18.67 65.6-18.67s46.54 5.9 65.59 18.67c0.23-1.07 0.75-1.78 1.7-2.14zm-1.7 5.55c-19.05 12.77-42.89 18.67-65.59 18.67s-46.54-5.9-65.6-18.67c-0.22 1.08-0.74 1.78-1.69 2.15 19.59 13.2 44.07 19.25 67.29 19.25s47.7-6.05 67.29-19.25c-0.95-0.37-1.47-1.07-1.7-2.15z"/>
    <path class="fil0" d="m161.78 35.96c3.69 0 6.68 1.46 6.68 6.42s-2.99 11.55-6.68 11.55-6.68-6.59-6.68-11.55 2.99-6.42 6.68-6.42zm0 2.52c-2.88 0-4.15 0.88-4.15 3.9 0 1.22 0.22 2.49 0.55 3.67 0.41 1.41 1.07 2.97 1.98 4.14 0.31 0.39 1.05 1.21 1.62 1.21s1.31-0.82 1.62-1.21c0.91-1.17 1.57-2.73 1.98-4.14 0.33-1.18 0.55-2.45 0.55-3.67 0-3.02-1.27-3.9-4.15-3.9z"/>
    <path class="fil0" d="m143.81 53.93c0-3.69 1.46-6.68 6.42-6.68s11.55 2.99 11.55 6.68c0 3.68-6.59 6.67-11.55 6.67s-6.42-2.99-6.42-6.67zm2.53 0c0 2.87 0.88 4.15 3.89 4.15 1.23 0 2.5-0.22 3.67-0.55 1.42-0.41 2.98-1.07 4.14-1.98 0.4-0.31 1.22-1.06 1.22-1.62 0-0.57-0.82-1.31-1.22-1.62-1.16-0.92-2.72-1.58-4.14-1.98-1.17-0.34-2.44-0.56-3.67-0.56-3.01 0-3.89 1.28-3.89 4.16z"/>
    <path class="fil0" d="m161.78 71.89c3.69 0 6.68-1.45 6.68-6.42 0-4.96-2.99-11.54-6.68-11.54s-6.68 6.58-6.68 11.54c0 4.97 2.99 6.42 6.68 6.42zm0-2.52c-2.88 0-4.15-0.88-4.15-3.9 0-1.22 0.22-2.49 0.55-3.66 0.41-1.42 1.07-2.98 1.98-4.14 0.31-0.4 1.05-1.22 1.62-1.22s1.31 0.82 1.62 1.22c0.91 1.16 1.57 2.72 1.98 4.14 0.33 1.17 0.55 2.44 0.55 3.66 0 3.02-1.27 3.9-4.15 3.9z"/>
    <path class="fil0" d="m179.75 53.93c0-3.69-1.46-6.68-6.42-6.68s-11.55 2.99-11.55 6.68c0 3.68 6.59 6.67 11.55 6.67s6.42-2.99 6.42-6.67zm-2.53 0c0 2.87-0.88 4.15-3.89 4.15-1.23 0-2.5-0.22-3.67-0.55-1.42-0.41-2.98-1.07-4.14-1.98-0.4-0.31-1.22-1.06-1.22-1.62 0-0.57 0.82-1.31 1.22-1.62 1.16-0.92 2.72-1.58 4.14-1.98 1.17-0.34 2.44-0.56 3.67-0.56 3.01 0 3.89 1.28 3.89 4.16z"/>
    <path class="fil0" d="m0 35.96c3.69 0 6.68 1.46 6.68 6.42s-2.99 11.55-6.68 11.55-6.68-6.59-6.68-11.55 2.99-6.42 6.68-6.42zm0 2.52c-2.88 0-4.15 0.88-4.15 3.9 0 1.22 0.22 2.49 0.55 3.67 0.41 1.41 1.07 2.97 1.98 4.14 0.31 0.39 1.05 1.21 1.62 1.21s1.31-0.82 1.62-1.21c0.91-1.17 1.57-2.73 1.98-4.14 0.33-1.18 0.55-2.45 0.55-3.67 0-3.02-1.27-3.9-4.15-3.9z"/>
    <path class="fil0" d="m-17.97 53.93c0-3.69 1.46-6.68 6.42-6.68s11.55 2.99 11.55 6.68c0 3.68-6.59 6.67-11.55 6.67s-6.42-2.99-6.42-6.67zm2.53 0c0 2.87 0.88 4.15 3.89 4.15 1.23 0 2.5-0.22 3.67-0.55 1.42-0.41 2.98-1.07 4.14-1.98 0.4-0.31 1.22-1.06 1.22-1.62 0-0.57-0.82-1.31-1.22-1.62-1.16-0.92-2.72-1.58-4.14-1.98-1.17-0.34-2.44-0.56-3.67-0.56-3.01 0-3.89 1.28-3.89 4.16z"/>
    <path class="fil0" d="m0 71.89c3.69 0 6.68-1.45 6.68-6.42 0-4.96-2.99-11.54-6.68-11.54s-6.68 6.58-6.68 11.54c0 4.97 2.99 6.42 6.68 6.42zm0-2.52c-2.88 0-4.15-0.88-4.15-3.9 0-1.22 0.22-2.49 0.55-3.66 0.41-1.42 1.07-2.98 1.98-4.14 0.31-0.4 1.05-1.22 1.62-1.22s1.31 0.82 1.62 1.22c0.91 1.16 1.57 2.72 1.98 4.14 0.33 1.17 0.55 2.44 0.55 3.66 0 3.02-1.27 3.9-4.15 3.9z"/>
    <path class="fil0" d="m17.97 53.93c0-3.69-1.46-6.68-6.42-6.68s-11.55 2.99-11.55 6.68c0 3.68 6.59 6.67 11.55 6.67s6.42-2.99 6.42-6.67zm-2.53 0c0 2.87-0.88 4.15-3.89 4.15-1.23 0-2.5-0.22-3.67-0.55-1.42-0.41-2.98-1.07-4.14-1.98-0.4-0.31-1.22-1.06-1.22-1.62 0-0.57 0.82-1.31 1.22-1.62 1.16-0.92 2.72-1.58 4.14-1.98 1.17-0.34 2.44-0.56 3.67-0.56 3.01 0 3.89 1.28 3.89 4.16z"/>
    <path class="fil0" d="m323.56 35.96c3.69 0 6.68 1.46 6.68 6.42s-2.99 11.55-6.68 11.55-6.68-6.59-6.68-11.55 2.99-6.42 6.68-6.42zm0 2.52c-2.88 0-4.15 0.88-4.15 3.9 0 1.22 0.22 2.49 0.55 3.67 0.4 1.41 1.07 2.97 1.98 4.14 0.31 0.39 1.05 1.21 1.62 1.21s1.31-0.82 1.62-1.21c0.91-1.17 1.57-2.73 1.98-4.14 0.33-1.18 0.55-2.45 0.55-3.67 0-3.02-1.27-3.9-4.15-3.9z"/>
    <path class="fil0" d="m305.59 53.93c0-3.69 1.46-6.68 6.42-6.68s11.55 2.99 11.55 6.68c0 3.68-6.59 6.67-11.55 6.67s-6.42-2.99-6.42-6.67zm2.53 0c0 2.87 0.88 4.15 3.89 4.15 1.22 0 2.5-0.22 3.67-0.55 1.42-0.41 2.98-1.07 4.14-1.98 0.4-0.31 1.21-1.06 1.21-1.62 0-0.57-0.81-1.31-1.21-1.62-1.16-0.92-2.72-1.58-4.14-1.98-1.17-0.34-2.45-0.56-3.67-0.56-3.01 0-3.89 1.28-3.89 4.16z"/>
    <path class="fil0" d="m323.56 71.89c3.69 0 6.68-1.45 6.68-6.42 0-4.96-2.99-11.54-6.68-11.54s-6.68 6.58-6.68 11.54c0 4.97 2.99 6.42 6.68 6.42zm0-2.52c-2.88 0-4.15-0.88-4.15-3.9 0-1.22 0.22-2.49 0.55-3.66 0.4-1.42 1.07-2.98 1.98-4.14 0.31-0.4 1.05-1.22 1.62-1.22s1.31 0.82 1.62 1.22c0.91 1.16 1.57 2.72 1.98 4.14 0.33 1.17 0.55 2.44 0.55 3.66 0 3.02-1.27 3.9-4.15 3.9z"/>
    <path class="fil0" d="m341.53 53.93c0-3.69-1.46-6.68-6.42-6.68s-11.55 2.99-11.55 6.68c0 3.68 6.59 6.67 11.55 6.67s6.42-2.99 6.42-6.67zm-2.53 0c0 2.87-0.88 4.15-3.89 4.15-1.23 0-2.5-0.22-3.67-0.55-1.42-0.41-2.98-1.07-4.14-1.98-0.4-0.31-1.22-1.06-1.22-1.62 0-0.57 0.82-1.31 1.22-1.62 1.16-0.92 2.72-1.58 4.14-1.98 1.17-0.34 2.44-0.56 3.67-0.56 3.01 0 3.89 1.28 3.89 4.16z"/>
   </g><g transform="matrix(0 .090332 -.090332 0 132.63 -107.86)" clip-path="url(#clipPath369-3)" clip-rule="evenodd" fill-rule="evenodd" image-rendering="optimizeQuality" shape-rendering="geometricPrecision">
    <rect class="fil0" x="-5.4" y="7.98" width="334.37" height="2.68"/>
    <rect class="fil0" x="-5.4" y="97.2" width="334.37" height="2.68"/>
    <rect class="fil0" x="-5.4" width="334.37" height="2.68"/>
    <rect class="fil0" x="-5.4" y="105.17" width="334.37" height="2.68"/>
    <path class="fil0" d="m168.66 57.2c19.66 19.31 46.31 29.88 74.01 29.88s54.35-10.57 74.01-29.88c1.12-0.4 2.25-0.95 3.14-1.65 0.4-0.31 1.21-1.06 1.21-1.62 0-0.57-0.81-1.31-1.21-1.62-0.89-0.71-2.02-1.26-3.14-1.66-19.66-19.31-46.31-29.87-74.01-29.87s-54.35 10.56-74.01 29.87c-1.12 0.4-2.25 0.95-3.14 1.66-0.4 0.31-1.22 1.05-1.22 1.62 0 0.56 0.82 1.31 1.22 1.62 0.89 0.7 2.02 1.25 3.14 1.65zm-6.88-3.27c19.47 21.95 48.48 35.88 80.89 35.88s61.42-13.93 80.89-35.88c-19.47-21.95-48.48-35.88-80.89-35.88s-61.42 13.93-80.89 35.88z"/>
    <path class="fil0" d="m154.81 50.56c-19.65-19.25-46.27-29.78-73.92-29.78-27.7 0-54.35 10.56-74.01 29.87-1.12 0.4-2.25 0.95-3.14 1.66-0.4 0.31-1.22 1.05-1.22 1.62 0 0.56 0.82 1.31 1.22 1.62 0.89 0.7 2.02 1.25 3.14 1.65 19.66 19.31 46.31 29.88 74.01 29.88 27.65 0 54.27-10.53 73.92-29.79 0.44-0.17 0.88-0.37 1.3-0.58 0.7-0.33 1.36-0.72 1.93-1.16 0.4-0.31 1.22-1.06 1.22-1.62 0-0.57-0.82-1.31-1.22-1.62-0.57-0.45-1.24-0.84-1.94-1.17-0.42-0.21-0.85-0.41-1.29-0.58zm6.97 3.37c-19.47 21.95-48.48 35.88-80.89 35.88s-61.42-13.93-80.89-35.88c19.47-21.95 48.48-35.88 80.89-35.88s61.42 13.93 80.89 35.88z"/>
    <path class="fil0" d="m148.18 50.08c-19.59-13.2-44.07-19.26-67.29-19.26s-47.7 6.06-67.29 19.26c0.95 0.36 1.47 1.07 1.69 2.14 19.05-12.77 42.9-18.67 65.6-18.67s46.54 5.9 65.6 18.67c0.22-1.07 0.74-1.78 1.69-2.14zm-134.58 7.7c19.59 13.2 44.07 19.25 67.29 19.25s47.7-6.05 67.29-19.25c-0.95-0.37-1.47-1.07-1.69-2.15-19.06 12.77-42.9 18.67-65.6 18.67s-46.54-5.9-65.6-18.67c-0.22 1.08-0.74 1.78-1.69 2.15z"/>
    <path class="fil0" d="m309.96 50.08c-19.59-13.2-44.07-19.26-67.29-19.26s-47.7 6.06-67.29 19.26c0.95 0.36 1.47 1.07 1.69 2.14 19.05-12.77 42.9-18.67 65.6-18.67s46.54 5.9 65.59 18.67c0.23-1.07 0.75-1.78 1.7-2.14zm-1.7 5.55c-19.05 12.77-42.89 18.67-65.59 18.67s-46.54-5.9-65.6-18.67c-0.22 1.08-0.74 1.78-1.69 2.15 19.59 13.2 44.07 19.25 67.29 19.25s47.7-6.05 67.29-19.25c-0.95-0.37-1.47-1.07-1.7-2.15z"/>
    <path class="fil0" d="m161.78 35.96c3.69 0 6.68 1.46 6.68 6.42s-2.99 11.55-6.68 11.55-6.68-6.59-6.68-11.55 2.99-6.42 6.68-6.42zm0 2.52c-2.88 0-4.15 0.88-4.15 3.9 0 1.22 0.22 2.49 0.55 3.67 0.41 1.41 1.07 2.97 1.98 4.14 0.31 0.39 1.05 1.21 1.62 1.21s1.31-0.82 1.62-1.21c0.91-1.17 1.57-2.73 1.98-4.14 0.33-1.18 0.55-2.45 0.55-3.67 0-3.02-1.27-3.9-4.15-3.9z"/>
    <path class="fil0" d="m143.81 53.93c0-3.69 1.46-6.68 6.42-6.68s11.55 2.99 11.55 6.68c0 3.68-6.59 6.67-11.55 6.67s-6.42-2.99-6.42-6.67zm2.53 0c0 2.87 0.88 4.15 3.89 4.15 1.23 0 2.5-0.22 3.67-0.55 1.42-0.41 2.98-1.07 4.14-1.98 0.4-0.31 1.22-1.06 1.22-1.62 0-0.57-0.82-1.31-1.22-1.62-1.16-0.92-2.72-1.58-4.14-1.98-1.17-0.34-2.44-0.56-3.67-0.56-3.01 0-3.89 1.28-3.89 4.16z"/>
    <path class="fil0" d="m161.78 71.89c3.69 0 6.68-1.45 6.68-6.42 0-4.96-2.99-11.54-6.68-11.54s-6.68 6.58-6.68 11.54c0 4.97 2.99 6.42 6.68 6.42zm0-2.52c-2.88 0-4.15-0.88-4.15-3.9 0-1.22 0.22-2.49 0.55-3.66 0.41-1.42 1.07-2.98 1.98-4.14 0.31-0.4 1.05-1.22 1.62-1.22s1.31 0.82 1.62 1.22c0.91 1.16 1.57 2.72 1.98 4.14 0.33 1.17 0.55 2.44 0.55 3.66 0 3.02-1.27 3.9-4.15 3.9z"/>
    <path class="fil0" d="m179.75 53.93c0-3.69-1.46-6.68-6.42-6.68s-11.55 2.99-11.55 6.68c0 3.68 6.59 6.67 11.55 6.67s6.42-2.99 6.42-6.67zm-2.53 0c0 2.87-0.88 4.15-3.89 4.15-1.23 0-2.5-0.22-3.67-0.55-1.42-0.41-2.98-1.07-4.14-1.98-0.4-0.31-1.22-1.06-1.22-1.62 0-0.57 0.82-1.31 1.22-1.62 1.16-0.92 2.72-1.58 4.14-1.98 1.17-0.34 2.44-0.56 3.67-0.56 3.01 0 3.89 1.28 3.89 4.16z"/>
    <path class="fil0" d="m0 35.96c3.69 0 6.68 1.46 6.68 6.42s-2.99 11.55-6.68 11.55-6.68-6.59-6.68-11.55 2.99-6.42 6.68-6.42zm0 2.52c-2.88 0-4.15 0.88-4.15 3.9 0 1.22 0.22 2.49 0.55 3.67 0.41 1.41 1.07 2.97 1.98 4.14 0.31 0.39 1.05 1.21 1.62 1.21s1.31-0.82 1.62-1.21c0.91-1.17 1.57-2.73 1.98-4.14 0.33-1.18 0.55-2.45 0.55-3.67 0-3.02-1.27-3.9-4.15-3.9z"/>
    <path class="fil0" d="m-17.97 53.93c0-3.69 1.46-6.68 6.42-6.68s11.55 2.99 11.55 6.68c0 3.68-6.59 6.67-11.55 6.67s-6.42-2.99-6.42-6.67zm2.53 0c0 2.87 0.88 4.15 3.89 4.15 1.23 0 2.5-0.22 3.67-0.55 1.42-0.41 2.98-1.07 4.14-1.98 0.4-0.31 1.22-1.06 1.22-1.62 0-0.57-0.82-1.31-1.22-1.62-1.16-0.92-2.72-1.58-4.14-1.98-1.17-0.34-2.44-0.56-3.67-0.56-3.01 0-3.89 1.28-3.89 4.16z"/>
    <path class="fil0" d="m0 71.89c3.69 0 6.68-1.45 6.68-6.42 0-4.96-2.99-11.54-6.68-11.54s-6.68 6.58-6.68 11.54c0 4.97 2.99 6.42 6.68 6.42zm0-2.52c-2.88 0-4.15-0.88-4.15-3.9 0-1.22 0.22-2.49 0.55-3.66 0.41-1.42 1.07-2.98 1.98-4.14 0.31-0.4 1.05-1.22 1.62-1.22s1.31 0.82 1.62 1.22c0.91 1.16 1.57 2.72 1.98 4.14 0.33 1.17 0.55 2.44 0.55 3.66 0 3.02-1.27 3.9-4.15 3.9z"/>
    <path class="fil0" d="m17.97 53.93c0-3.69-1.46-6.68-6.42-6.68s-11.55 2.99-11.55 6.68c0 3.68 6.59 6.67 11.55 6.67s6.42-2.99 6.42-6.67zm-2.53 0c0 2.87-0.88 4.15-3.89 4.15-1.23 0-2.5-0.22-3.67-0.55-1.42-0.41-2.98-1.07-4.14-1.98-0.4-0.31-1.22-1.06-1.22-1.62 0-0.57 0.82-1.31 1.22-1.62 1.16-0.92 2.72-1.58 4.14-1.98 1.17-0.34 2.44-0.56 3.67-0.56 3.01 0 3.89 1.28 3.89 4.16z"/>
    <path class="fil0" d="m323.56 35.96c3.69 0 6.68 1.46 6.68 6.42s-2.99 11.55-6.68 11.55-6.68-6.59-6.68-11.55 2.99-6.42 6.68-6.42zm0 2.52c-2.88 0-4.15 0.88-4.15 3.9 0 1.22 0.22 2.49 0.55 3.67 0.4 1.41 1.07 2.97 1.98 4.14 0.31 0.39 1.05 1.21 1.62 1.21s1.31-0.82 1.62-1.21c0.91-1.17 1.57-2.73 1.98-4.14 0.33-1.18 0.55-2.45 0.55-3.67 0-3.02-1.27-3.9-4.15-3.9z"/>
    <path class="fil0" d="m305.59 53.93c0-3.69 1.46-6.68 6.42-6.68s11.55 2.99 11.55 6.68c0 3.68-6.59 6.67-11.55 6.67s-6.42-2.99-6.42-6.67zm2.53 0c0 2.87 0.88 4.15 3.89 4.15 1.22 0 2.5-0.22 3.67-0.55 1.42-0.41 2.98-1.07 4.14-1.98 0.4-0.31 1.21-1.06 1.21-1.62 0-0.57-0.81-1.31-1.21-1.62-1.16-0.92-2.72-1.58-4.14-1.98-1.17-0.34-2.45-0.56-3.67-0.56-3.01 0-3.89 1.28-3.89 4.16z"/>
    <path class="fil0" d="m323.56 71.89c3.69 0 6.68-1.45 6.68-6.42 0-4.96-2.99-11.54-6.68-11.54s-6.68 6.58-6.68 11.54c0 4.97 2.99 6.42 6.68 6.42zm0-2.52c-2.88 0-4.15-0.88-4.15-3.9 0-1.22 0.22-2.49 0.55-3.66 0.4-1.42 1.07-2.98 1.98-4.14 0.31-0.4 1.05-1.22 1.62-1.22s1.31 0.82 1.62 1.22c0.91 1.16 1.57 2.72 1.98 4.14 0.33 1.17 0.55 2.44 0.55 3.66 0 3.02-1.27 3.9-4.15 3.9z"/>
    <path class="fil0" d="m341.53 53.93c0-3.69-1.46-6.68-6.42-6.68s-11.55 2.99-11.55 6.68c0 3.68 6.59 6.67 11.55 6.67s6.42-2.99 6.42-6.67zm-2.53 0c0 2.87-0.88 4.15-3.89 4.15-1.23 0-2.5-0.22-3.67-0.55-1.42-0.41-2.98-1.07-4.14-1.98-0.4-0.31-1.22-1.06-1.22-1.62 0-0.57 0.82-1.31 1.22-1.62 1.16-0.92 2.72-1.58 4.14-1.98 1.17-0.34 2.44-0.56 3.67-0.56 3.01 0 3.89 1.28 3.89 4.16z"/>
   </g></g>
    
   
  <polygon class="fil1" points="0 0 107.85 0 215.71 0 323.56 0 323.56 107.85 215.71 107.85 107.85 107.85 0 107.85"/>
 </g>
</svg>
