<?xml version="1.0" encoding="UTF-8"?>
<svg width="100" height="253.5" version="1.1" viewBox="0 0 93.751 237.65" xmlns="http://www.w3.org/2000/svg">
 <g transform="matrix(.26465 0 0 .26465 9.2187 0)" fill="{{ border_color }}" shape-rendering="geometricPrecision">
  <path d="m42.05 0v16.688s3.3472-0.14147 5.0556-0.07324v-16.615zm2.7484 20.069v0.0018c-8.5737 0.0326-17.366 2.71-24.414 8.2307-19.751 15.377-23.031 47.428-18.726 71.758 2.3237 12.78 7.4499 27.062 13.396 41.413 1.2301-1.7768 2.4603-3.485 3.8269-5.1252-8.7477-21.049-15.378-42.439-12.849-65.743 6.1507-56.518 54.468-50.574 63.968-31.917 5.2623 10.251 3.3477 34.925-17.838 37.18-6.4242 0.68343-13.666-0.95702-18.382-5.2625-2.6653-2.3919-2.1897-1.7098-1.1646-4.7168 1.2301-3.6221 2.05-7.3821 0.06775-10.457-5.194-8.1326-14.83 3.965-5.3302 16.335 13.668 17.905 52.897 12.573 50.505-24.331-1.1214-17.85-16.692-27.427-33.06-27.365zm-0.24902 9.0272c-0.84573-8e-3 -1.683 0.02508-2.5031 0.09338v42.234c1.6404 0.54672 3.3472 0.88692 5.0556 1.0236v-43.189c-0.85422-0.10241-1.7067-0.15245-2.5525-0.16113zm-2.5012 55.311v34.036c1.6404-0.54672 3.3472-0.95836 5.0556-1.3001v-32.051c-1.7084-0.0683-3.4153-0.34314-5.0556-0.68482zm11.9 35.431c-6.8766 0.1-14.195 2.2386-21.4 7.0075-32.189 21.322-32.392 68.823-21.389 101.56 7.1075 21.322 24.054 52.074 36.902 73.807-2.0502-1.5035-4.1681-2.6662-6.2183-3.6914-2.7336-1.3668-5.4666-2.3232-8.3369-3.0066-3.007-0.75174-6.2185-1.092-9.3623-1.0236-2.8703 0.0683-5.7411 0.54416-8.4064 1.5692-2.9388 1.0934-5.6036 2.8034-7.8589 5.127-2.1187 2.2552-3.8298 4.9215-4.9915 8.1336-1.0936 3.0753-1.6383 6.5613-1.7066 10.047-0.0675 3.5537 0.47887 7.0382 1.4356 9.8402 0.95683 2.6653 2.3235 4.7143 3.8269 6.2861 1.9137 2.0502 4.1688 3.2111 5.9455 3.4845 1.2301 0.20502 2.393 0.0681 3.2813-0.41016 0.82009-0.41005 1.5034-1.0225 1.9135-1.7743 0.47831-0.75175 0.61394-1.7112 0.54566-2.6679-0.13693-0.88843-0.54777-1.91-1.3678-2.7301-1.7084-1.9136-5.2591-3.1479-9.018-4.3781-0.68333-2.1869-1.0974-4.8482-1.0291-7.6502 0.0675-2.802 0.47877-5.6764 1.4356-8.205 0.8201-2.3919 2.1191-4.439 3.7592-6.0791 1.6402-1.7085 3.623-3.0068 5.81-3.8269 2.0502-0.82008 4.3072-1.164 6.5626-1.2323 2.5968-0.0683 5.3281 0.27301 7.9249 0.88807 2.5287 0.61507 4.8518 1.4383 7.2437 2.6001 2.392 1.1618 4.7859 2.6635 7.3829 4.6454 21.186 16.128 32.258 52.077 27.884 77.637-3.3486 19.546-16.541 35.606-37.248 34.17-15.24-1.0935-18.11-17.017-15.923-27.268 3.5536-1.5718 8.1316-3.5544 10.113-7.1082 3.1438-5.4673-0.61501-11.757-6.1506-9.9793-8.6794 2.8703-12.437 17.496-11.138 27.816 3.8271 30.412 35.195 26.858 50.299 14.899 27.678-22.074 17.425-71.213 6.5589-98.55-16.197-40.663-57.952-104.29-56.858-145.43 0.34177-12.028 3.0078-20.842 9.4318-29.59 24.74-33.555 61.712-14.762 58.294 13.394-0.75181 6.0824-3.6905 11.342-6.7658 15.784-5.7406-0.88841-11.892-1.7749-14.352 2.3255-4.989 8.2693 11.617 21.253 24.67-6.2879 11.799-24.827-7.139-50.488-31.698-50.131zm-6.839 11.521c-1.7767 0.4784-3.4837 1.0935-5.0556 1.9135v47.156c1.7086 4.0321 3.4155 8.1297 5.0556 12.23zm-23.101 16.813c-1.3665 1.9815-2.4602 4.0294-3.4168 6.0792 5.2623 11.96 10.663 23.648 15.106 34.241l15.238 41.073c2.597 7.5859 6.4927 22.689 11.413 22.689 5.6039 0.0683 3.4851-10.662-0.82032-10.867h-0.54566l-11.343-32.461c-6.424-17.564-14.012-34.92-21.803-52.211-1.2303-2.8703-2.5304-5.7399-3.8288-8.5419zm18.04 67.383v35.605l1.1609 2.461c1.2984 2.597 2.5963 5.2601 3.8947 7.8571v-32.326zm0 93.427v105.45h5.0556v-101.55c-0.75162-0.68339-1.5713-1.3662-2.3914-1.9812-0.88837-0.68341-1.7756-1.2985-2.6642-1.9135zm2.6001 123.01-30.275 18.245 30.275 18.247 30.277-18.247zm-5.4694 41.476v2e-3c-11.785 0.15024-22.652 6.5053-24.805 23.65-1.2986 10.319 2.4591 24.877 11.138 27.748 5.5356 1.8452 9.2944-4.4437 6.1506-9.9793-1.9818-3.4854-6.5597-5.468-10.113-7.1082-2.187-10.251 0.68313-26.174 15.923-27.199 20.707-1.5035 33.9 14.622 37.248 34.168 4.3739 25.56-6.6981 61.44-27.884 77.637-2.597 1.9135-4.9909 3.4836-7.3829 4.6454s-4.715 1.9838-7.2437 2.5305c-2.5968 0.68341-5.3299 1.026-7.9267 0.95765-2.2554-0.0683-4.5105-0.48058-6.5607-1.2323-2.187-0.82008-4.1698-2.1184-5.81-3.8269-1.6402-1.7085-2.9392-3.7605-3.7592-6.1524-0.95683-2.4603-1.3672-5.3975-1.4356-8.1995-0.0675-2.7337 0.34571-5.4657 1.0291-7.5843 3.7589-1.2301 7.3095-2.5304 9.018-4.444 0.82009-0.8201 1.2311-1.7752 1.3678-2.732 0.0675-0.95677-0.06696-1.8459-0.54566-2.666-0.41005-0.75175-1.0934-1.368-1.9135-1.778-0.88836-0.41004-2.0512-0.61155-3.2813-0.4065-1.7767 0.27334-4.0318 1.4342-5.9455 3.4845-1.5034 1.5718-2.8701 3.6892-3.8269 6.2861-0.95664 2.8703-1.5038 6.3579-1.4356 9.9116 0.0675 3.417 0.613 6.9679 1.7066 10.043 1.1617 3.1437 2.8728 5.8771 4.9915 8.064 2.2552 2.3236 4.9202 4.033 7.8589 5.1948 2.6653 0.95676 5.5361 1.4344 8.4064 1.571 3.1438 0.0683 6.3552-0.33959 9.3623-1.0913 2.8703-0.61507 5.6014-1.6404 8.335-2.9389 2.0502-1.0251 4.1699-2.2557 6.2201-3.7592-12.848 21.801-29.794 52.485-36.902 73.807-11.003 32.735-10.8 80.231 21.389 101.55 32.94 21.869 68.202-11.273 53.099-43.12-13.053-27.473-29.659-14.557-24.67-6.2879 2.4603 4.1005 8.6116 3.2121 14.352 2.3236 3.0753 4.5105 6.014 9.7696 6.7658 15.784 3.4171 28.157-33.555 46.951-58.294 13.396-6.424-8.7477-9.09-17.562-9.4318-29.59-1.0936-41.141 40.661-104.77 56.858-145.36 10.866-27.405 21.119-76.542-6.5589-98.548-6.6078-5.2324-16.328-8.8676-25.494-8.7507zm2.8803 12.581v105.45c0.88856-0.61506 1.774-1.2301 2.6624-1.9135 0.82009-0.61509 1.6416-1.23 2.3932-1.9135v-101.62zm5.0592 152.95c-1.2984 2.6653-2.5963 5.2614-3.8947 7.9267l-1.1609 2.3914v35.605l5.0556-13.598zm15.24 9.2249c-4.9205 0.0683-8.8162 15.171-11.413 22.689l-15.238 41.073c-4.4422 10.593-9.8437 22.346-15.106 34.237 0.95684 2.0502 2.0499 4.1022 3.4168 6.1524 1.2984-2.8703 2.5966-5.7411 3.8269-8.6115 7.7908-17.29 15.379-34.647 21.803-52.211l11.343-32.465h0.54566c4.3055-0.13674 6.426-10.932 0.82215-10.864zm-15.24 59.594c-1.6402 4.1005-3.347 8.1991-5.0556 12.299v47.088c1.5719 0.8201 3.2789 1.5029 5.0556 1.9812zm-32.049 51.255c-5.9458 14.352-11.072 28.566-13.396 41.346-4.3054 24.329-1.0262 56.381 18.725 71.827 20.502 15.992 55.766 7.9952 57.474-19.204 2.3918-36.904-36.837-42.233-50.505-24.26-9.4995 12.37 0.13862 24.465 5.3321 16.333 1.9819-3.1437 1.1619-6.9037-0.06775-10.457-1.0251-3.0753-1.5026-2.3224 1.1627-4.7828 4.7157-4.3055 11.96-5.9459 18.384-5.2625 21.186 2.2553 23.098 26.929 17.836 37.18-9.4993 18.725-57.817 24.598-63.968-31.851-2.5285-23.373 4.1031-44.76 12.85-65.809-1.3667-1.6402-2.5968-3.2824-3.8269-5.0592zm26.99 23.029v33.968c1.6404-0.3417 3.3454-0.54997 5.0538-0.68665v-31.981c-1.7084-0.34171-3.4135-0.82168-5.0538-1.3001zm5.0592 45.925c-1.7084 0.20502-3.4153 0.55008-5.0556 1.0968v42.164c1.6404 0.13675 3.3472 0.13675 5.0556 0zm-5.0592 55.767v14.42h5.0556v-14.352c-1.7084 0.0683-5.0556-0.0677-5.0556-0.0677z" image-rendering="optimizeQuality"/>
  <path d="m242.52 0v16.688s-3.3472-0.14147-5.0556-0.07324v-16.615zm-2.7484 20.069v0.0018c8.5737 0.0326 17.366 2.71 24.414 8.2307 19.751 15.377 23.031 47.428 18.726 71.758-2.3237 12.78-7.4499 27.062-13.396 41.413-1.2301-1.7768-2.4603-3.485-3.8269-5.1252 8.7477-21.049 15.378-42.439 12.849-65.743-6.1507-56.518-54.468-50.574-63.968-31.917-5.2623 10.251-3.3477 34.925 17.838 37.18 6.4242 0.68343 13.666-0.95702 18.382-5.2625 2.6653-2.3919 2.1897-1.7098 1.1646-4.7168-1.2301-3.6221-2.05-7.3821-0.0677-10.457 5.194-8.1326 14.83 3.965 5.3302 16.335-13.668 17.905-52.897 12.573-50.505-24.331 1.1214-17.85 16.692-27.427 33.06-27.365zm0.24902 9.0272c0.84573-8e-3 1.683 0.02508 2.5031 0.09338v42.234c-1.6404 0.54672-3.3472 0.88692-5.0556 1.0236v-43.189c0.85422-0.10241 1.7067-0.15245 2.5525-0.16113zm2.5012 55.311v34.036c-1.6404-0.54672-3.3472-0.95836-5.0556-1.3001v-32.051c1.7084-0.0683 3.4153-0.34314 5.0556-0.68482zm-11.9 35.431c6.8766 0.1 14.195 2.2386 21.4 7.0075 32.189 21.322 32.392 68.823 21.389 101.56-7.1075 21.322-24.054 52.074-36.902 73.807 2.0502-1.5035 4.1681-2.6662 6.2183-3.6914 2.7336-1.3668 5.4666-2.3232 8.3369-3.0066 3.007-0.75174 6.2185-1.092 9.3623-1.0236 2.8703 0.0683 5.7411 0.54416 8.4064 1.5692 2.9388 1.0934 5.6036 2.8034 7.859 5.127 2.1187 2.2552 3.8298 4.9215 4.9915 8.1336 1.0936 3.0753 1.6383 6.5613 1.7066 10.047 0.0675 3.5537-0.47887 7.0382-1.4356 9.8402-0.95683 2.6653-2.3235 4.7143-3.8269 6.2861-1.9137 2.0502-4.1688 3.2111-5.9455 3.4845-1.2301 0.20502-2.393 0.0681-3.2813-0.41016-0.82009-0.41005-1.5034-1.0225-1.9135-1.7743-0.47831-0.75175-0.61394-1.7112-0.54566-2.6679 0.13693-0.88843 0.54776-1.91 1.3678-2.7301 1.7084-1.9136 5.2591-3.1479 9.018-4.3781 0.68333-2.1869 1.0974-4.8482 1.0291-7.6502-0.0675-2.802-0.47877-5.6764-1.4356-8.205-0.8201-2.3919-2.1191-4.439-3.7592-6.0791-1.6402-1.7085-3.623-3.0068-5.81-3.8269-2.0502-0.82008-4.3072-1.164-6.5626-1.2323-2.5968-0.0683-5.3281 0.27301-7.9249 0.88807-2.5287 0.61507-4.8518 1.4383-7.2437 2.6001-2.392 1.1618-4.7859 2.6635-7.3829 4.6454-21.186 16.128-32.258 52.077-27.884 77.637 3.3486 19.546 16.541 35.606 37.248 34.17 15.24-1.0935 18.11-17.017 15.923-27.268-3.5536-1.5718-8.1316-3.5544-10.113-7.1082-3.1438-5.4673 0.615-11.757 6.1506-9.9793 8.6794 2.8703 12.437 17.496 11.138 27.816-3.8271 30.412-35.195 26.858-50.299 14.899-27.678-22.074-17.425-71.213-6.5589-98.55 16.197-40.663 57.952-104.29 56.858-145.43-0.34177-12.028-3.0078-20.842-9.4318-29.59-24.74-33.555-61.712-14.762-58.294 13.394 0.75181 6.0824 3.6905 11.342 6.7658 15.784 5.7406-0.88841 11.892-1.7749 14.352 2.3255 4.989 8.2693-11.617 21.253-24.67-6.2879-11.799-24.827 7.139-50.488 31.698-50.131zm6.839 11.521c1.7767 0.4784 3.4837 1.0935 5.0556 1.9135v47.156c-1.7086 4.0321-3.4155 8.1297-5.0556 12.23zm23.101 16.813c1.3665 1.9815 2.4602 4.0294 3.4168 6.0792-5.2623 11.96-10.663 23.648-15.106 34.241l-15.238 41.073c-2.597 7.5859-6.4926 22.689-11.413 22.689-5.6039 0.0683-3.4851-10.662 0.82032-10.867h0.54566l11.343-32.461c6.424-17.564 14.012-34.92 21.803-52.211 1.2303-2.8703 2.5304-5.7399 3.8288-8.5419zm-18.04 67.383v35.605l-1.1609 2.461c-1.2984 2.597-2.5963 5.2601-3.8947 7.8571v-32.326zm0 93.427v105.45h-5.0556v-101.55c0.75162-0.68339 1.5713-1.3662 2.3914-1.9812 0.88837-0.68341 1.7756-1.2985 2.6642-1.9135zm-2.6001 123.01 30.275 18.245-30.275 18.247-30.277-18.247zm5.4694 41.476v2e-3c11.785 0.15024 22.652 6.5053 24.805 23.65 1.2986 10.319-2.4591 24.877-11.138 27.748-5.5356 1.8452-9.2944-4.4437-6.1506-9.9793 1.9818-3.4854 6.5597-5.468 10.113-7.1082 2.187-10.251-0.68313-26.174-15.923-27.199-20.707-1.5035-33.9 14.622-37.248 34.168-4.3739 25.56 6.6981 61.44 27.884 77.637 2.597 1.9135 4.9909 3.4836 7.3829 4.6454s4.715 1.9838 7.2437 2.5305c2.5968 0.68341 5.3299 1.026 7.9267 0.95765 2.2554-0.0683 4.5105-0.48058 6.5607-1.2323 2.187-0.82008 4.1698-2.1184 5.81-3.8269 1.6402-1.7085 2.9392-3.7605 3.7592-6.1524 0.95683-2.4603 1.3672-5.3975 1.4356-8.1995 0.0675-2.7337-0.34571-5.4657-1.0291-7.5843-3.7589-1.2301-7.3095-2.5304-9.018-4.444-0.82009-0.8201-1.2311-1.7752-1.3678-2.732-0.0675-0.95677 0.067-1.8459 0.54566-2.666 0.41005-0.75175 1.0934-1.368 1.9135-1.778 0.88836-0.41004 2.0512-0.61155 3.2813-0.4065 1.7767 0.27334 4.0318 1.4342 5.9455 3.4845 1.5034 1.5718 2.8701 3.6892 3.8269 6.2861 0.95664 2.8703 1.5038 6.3579 1.4356 9.9116-0.0675 3.417-0.613 6.9679-1.7066 10.043-1.1617 3.1437-2.8728 5.8771-4.9915 8.064-2.2552 2.3236-4.9202 4.033-7.859 5.1948-2.6653 0.95676-5.5361 1.4344-8.4064 1.571-3.1438 0.0683-6.3552-0.33959-9.3622-1.0913-2.8703-0.61507-5.6014-1.6404-8.335-2.9389-2.0502-1.0251-4.1699-2.2557-6.2201-3.7592 12.848 21.801 29.794 52.485 36.902 73.807 11.003 32.735 10.8 80.231-21.389 101.55-32.94 21.869-68.202-11.273-53.099-43.12 13.053-27.473 29.659-14.557 24.67-6.2879-2.4603 4.1005-8.6116 3.2121-14.352 2.3236-3.0753 4.5105-6.014 9.7696-6.7658 15.784-3.4171 28.157 33.555 46.951 58.294 13.396 6.424-8.7477 9.09-17.562 9.4318-29.59 1.0936-41.141-40.661-104.77-56.858-145.36-10.866-27.405-21.119-76.542 6.5589-98.548 6.6078-5.2324 16.328-8.8676 25.494-8.7507zm-2.8803 12.581v105.45c-0.88856-0.61506-1.774-1.2301-2.6624-1.9135-0.82009-0.61509-1.6416-1.23-2.3932-1.9135v-101.62zm-5.0592 152.95c1.2984 2.6653 2.5963 5.2614 3.8947 7.9267l1.1609 2.3914v35.605l-5.0556-13.598zm-15.24 9.2249c4.9205 0.0683 8.8162 15.171 11.413 22.689l15.238 41.073c4.4422 10.593 9.8437 22.346 15.106 34.237-0.95684 2.0502-2.0499 4.1022-3.4168 6.1524-1.2984-2.8703-2.5966-5.7411-3.8269-8.6115-7.7908-17.29-15.379-34.647-21.803-52.211l-11.343-32.465h-0.54565c-4.3055-0.13674-6.426-10.932-0.82216-10.864zm15.24 59.594c1.6402 4.1005 3.347 8.1991 5.0556 12.299v47.088c-1.5719 0.8201-3.2789 1.5029-5.0556 1.9812zm32.049 51.255c5.9458 14.352 11.072 28.566 13.396 41.346 4.3054 24.329 1.0262 56.381-18.725 71.827-20.502 15.992-55.766 7.9952-57.474-19.204-2.3918-36.904 36.837-42.233 50.505-24.26 9.4995 12.37-0.13861 24.465-5.3321 16.333-1.9819-3.1437-1.162-6.9037 0.0678-10.457 1.0251-3.0753 1.5026-2.3224-1.1627-4.7828-4.7157-4.3055-11.96-5.9459-18.384-5.2625-21.186 2.2553-23.098 26.929-17.836 37.18 9.4993 18.725 57.817 24.598 63.968-31.851 2.5285-23.373-4.103-44.76-12.85-65.809 1.3667-1.6402 2.5968-3.2824 3.8269-5.0592zm-26.99 23.029v33.968c-1.6404-0.3417-3.3454-0.54997-5.0538-0.68665v-31.981c1.7084-0.34171 3.4134-0.82168 5.0538-1.3001zm-5.0592 45.925c1.7084 0.20502 3.4153 0.55008 5.0556 1.0968v42.164c-1.6404 0.13675-3.3472 0.13675-5.0556 0zm5.0592 55.767v14.42h-5.0556v-14.352c1.7084 0.0683 5.0556-0.0677 5.0556-0.0677z" image-rendering="optimizeQuality"/>
 </g>
</svg>
