<?xml version="1.0" encoding="UTF-8"?>
<svg width="610.25" height="489.34" enable-background="new 0 0 4000 2549.944" version="1.1" viewBox="0 0 610.25 489.34" xml:space="preserve" xmlns="http://www.w3.org/2000/svg">
<path d="m56.206 0c-2.098 1.3471-4.0713 3.4322-4.3496 4.7872-0.743 3.6069 9.5554 12.836 15.691 14.062 6.009 1.202 9.3789 3.658 9.3789 6.834 0 3.07-8.8339 13.87-15.506 18.961l-5.418 4.1328-5.7676-6.4043c-6.647-7.381-12.339-9.2698-17.352-5.7598-7.365 5.158-1.8891 15.015 10.172 18.307 8.096 2.21 10.131 4.0443 10.068 9.0683-0.057 4.515-6.9366 15.458-11.475 18.256-2.356 1.453-3.6687 0.7253-8.0137-4.4317-4.77-5.664-5.6628-6.0825-10.885-5.1035-5.848 1.098-7.5762 3.2948-7.5762 9.6367-1e-6 4.201 5.3274 8.2563 11.857 9.0293 7.271 0.858 8.1708 4.3987 3.5918 14.139-2.213 4.705-4.4251 9.7756-4.9141 11.268-0.823 2.509-1.5097 2.4557-9.0957-0.6973l-8.2031-3.4082-4.6074 5.1563c-3.381 3.783-4.3259 6.0802-3.5469 8.6152 1.542 5.024 1.5796 5.0391 13.061 5.0391 10.485 0 10.524 0.018 13.164 5.5957 1.455 3.078 3.1553 8.9925 3.7773 13.144l1.1328 7.5449-8.082-1.0703c-9.633-1.278-16.055 1.8729-16.055 7.8789 0 6.705 9.315 10.636 17.332 7.3164 4.932-2.043 11.17-0.9537 11.17 1.9473 0 0.974 1.4743 4.817 3.2773 8.5409 1.802 3.724 3.0505 8.7425 2.7715 11.152-0.443 3.8289-1.3893 4.5285-7.4883 5.5624-11.248 1.907-18.128 11.147-12.496 16.781 2.334 2.333 8.6317 2.4948 10.014 0.2578 1.135-1.835 16.278-9.4394 18.797-9.4394 1.897 0 13.625 11.153 13.625 12.955 0 0.676-2.8243 2.6716-6.2793 4.4336-13.049 6.657-12.786 19.029 0.4043 19.029 4.28 0 12.209-6.5258 12.209-10.049 0-5.564 7.5148-4.438 13.34 2 2.543 2.808 2.7139 3.8916 1.0859 6.9336-1.063 1.982-3.4953 4.2919-5.4062 5.1309-4.853 2.13-5.303 8.1366-0.95703 12.764 1.966 2.093 4.3945 3.8047 5.3965 3.8047 2.507 0 8.1128-6.3585 9.4258-10.688 1.207-3.979 2.1039-4.2193 7.7539-2.0723 5.803 2.207 6.6344 7.0358 2.3984 13.971-4.127 6.7579-6.3217 8.7122-13.93 12.406-5.209 2.53-5.5417 2.508-8.0117-0.543-7.84-9.68-28.514-11.285-28.514-2.2109 0 5.033 11.627 12.889 19.078 12.889 4.252 0 4.2058 9.2387-0.07422 14.68-1.742 2.216-3.168 4.82-3.168 5.791 0 0.969-1.7649 2.5678-3.9199 3.5507-3.526 1.606-4.6388 1.1229-11.049-4.7851-8.435-7.7751-14.268-8.5703-19.783-2.6993-7.057 7.511-0.81138 16.083 12.6 17.291 7.646 0.6891 9.4969 2.9022 5.8789 7.0333-1.29 1.4749-3.578 5.1766-5.084 8.2246-3.973 8.045-11.895 14.007-11.895 8.953 0-3.412-5.4878-7.4312-11.469-8.4022-4.569-0.742-5.9753-0.2582-8.1133 2.7949-1.424 2.03-2.5859 4.5686-2.5859 5.6426 0 3.557 7.5741 9.5933 13.414 10.689 3.165 0.5941 6.164 2.1539 6.668 3.4668 1.181 3.077-3.956 22.14-6.543 24.289-1.42 1.18-2.7642 0.7681-4.7832-1.4609-6.995-7.73-21.422-7.3226-21.422 0.6074 0 5.5921 5.8298 14.702 10.094 15.772 1.999 0.502 5.9293 0.2533 8.7363-0.5507 6.592-1.8911 9.1365-0.8132 10.439 4.4199 0.581 2.332 2.1219 6.4893 3.4219 9.2383 1.3 2.75 2.1364 7.383 1.8574 10.293-0.43 4.484-1.1428 5.3162-4.6758 5.4492-9.362-0.19403-19.446 15.14-12.51 21.496 1.964 1.589 4.9858 2.8906 6.7148 2.8906 4.605 0 11.816-4.7169 13.77-9.006 1.387-3.044 2.5063-3.551 6.0723-2.75 6.104 1.371 11.779 5.6686 15.205 11.52 6.1794 9.3673-10.536 8.678-11.623 17.856-1e-6 3.765 3.5582 7.7149 6.9512 7.7149 3.738 0 9.857-4.8812 12.998-10.367 1.675-2.928 2.1098-2.8558 11.967 1.9512 11.286 7.3241 9.9056 6.9341 24.32 14.75 9.313 4.4524 3.6903 6.3834 16.277 7.4458 24.964 5.6235 12.222 1.797 39.052-2.7199 9.8626-3.658 26.514-3.9636 65.076-44.722 19.212-20.306 23.006-23.534 29.998-44.43 3.156-9.431 4.0689-15.093 3.8379-23.811-0.678-25.618-14.107-54.908-14.107-54.908 0-2.725-13.776-24.764-22.529-36.041-9.263-11.935-8.6683-14.174 3.0977-11.652 13.155 2.823 13.82-2.2243 16.066 3.6777 5.97 15.693 24.593 46.646 28.639 73.936 0.53271 14.642-0.21596 26.768-0.8418 35.668-0.11095 64.957-42.449 71.996-77.936 102.69 13.509 1.2657 19.194-0.47003 36.835-0.17833 27.09-22.15 54.92-57.611 61.129-101.54 4.32-37.341-0.43747-64.028-15.064-84.527-3.959-5.548-7.1973-10.6-7.1973-11.226 0-4.762-23.75-34.46-23.75-34.576 0-0.51 6.6721-7.6559 14.828-15.879 18.053-18.199 20.795-21.794 30.17-39.568 10.741-20.359 23.511-62.849 12.885-93.691-13.993-40.613-45.089-87.238-66.58-99.832-3.925-2.301-7.132-5.0067-7.127-6.0117 9e-4 -0.1816 1.2765-1.4962 1.5039-1.8985-14.715-1.8795-24.159 0.5143-36.928 0-7.781 6.4148-20.858 16.544-61.127 34.106-22.128 9.651-33.686 21.266-45.207 45.426-8.65 18.138-9.7513 21.794-11.111 36.914-0.431 4.7899-0.84873 9.42-0.92773 10.291-0.45 4.883 5.5464 37.151 7.6504 41.168 10.153 19.39 26.567 35.251 36.137 43.162 21.655 17.908 44.181 24.945 37.006 27.93-6.057 2.518-19.063 8.9322-20.281 8.7032-0.489-0.092-2.5558-1.8275-4.5918-3.8575-2.036-2.029-6.8892-4.7745-10.783-6.1015-13.415-4.572-41.257-35.389-48.998-49.103-3.886-6.887-8.499-16.862-10.252-22.168-4.178-12.658-5.8273-41.355-3.1543-54.941 3.346-17.004 20.517-51.059 29.508-58.52 1.355-1.126 3.4294-3.9115 4.6094-6.1915 2.11-4.0829 30.648-26.959 33.631-26.959 2.152 0 11.29-4.6036 17.822-8.9766 8.4636-5.6661 8.8016-3.2684 18.553-10.881-18.793-1.7626-34.273 0.075601-46.385 0-2.7575 3.3566-9.2592 8.246-18.258 12.777-11.003 5.541-12.276 5.4464-14.6-1.0996-0.514-1.449-5.4127-5.2608-10.887-8.4688-3.2611-1.9112-4.6236-2.4583-6.291-3.209zm158.43 11.94 7.209 4.8633c9.964 6.727 4.632 4.9222 11.166 13.49 5.775 7.569 1.5604 3.2725 8.8164 14.023 3.258 4.829 4.5266 8.2431 3.8516 10.371-0.711 2.239-0.2885 3.1739 1.4375 3.1739 3.338 0 6.35 6.9341 10.832 11.453 4.1 4.142 0.56774 2.5421 7.4277 12.705 20.895 30.963 16.206 85.024 8.1816 102.31-13.564 29.216-51.134 66.705-53.559 66.705-7.0747 2.8871-23.312 10.388-37.742 14.033-6.25 4.9129-7.9481 3.286-19.455 9.125-4.06 2.06-8.3587 3.7519-9.5527 3.7519-6.565 0.021-24.742 9.1867-32.33 16.303-11.913 11.173-16.957 11.278-16.957 15.166 0 1.585-1.5028 4.2394-3.3398 5.8984-4 3.613-9.1372 13.555-14.242 27.559-5.966 16.36-3.5392 56.825-1.5312 59.244 2.964 15.934 5.0516 15.142 10.516 25.863 10.631 16.827 26.057 31.287 40.955 36.311 6.907 2.216 6.6423 4.693-0.88671 8.332-3.703 1.789-7.135 3.1902-7.623 3.1152-16.213-2.6-56.241-49.232-62.898-62.107-3.105-6.002-8.4085-27.03-8.4355-33.438-0.025-6.527 6.3402-29.363 9.0332-32.408 5.343-6.042 24.264-39.586 28.906-44.223 1-1 20.252-24.431 36.465-32.699 16.964-8.653 40.736-28.99 56.264-31.756 6.875-1.226 21.322-8.3487 21.322-10.514 0-0.748 2.6705-2.5784 5.9375-4.0684 10.891-4.969 27.563-20.206 30.758-28.113 1.056-2.613 2.3547-5.108 2.8867-5.543 1.815-1.482 19.454-34.97 14.336-66.764-6.773-42.055-21.907-58.028-29.162-68.914-8.509-12.774-11.486-16.101-22.098-24.721-4.074-3.309-7.4062-6.8729-7.4062-7.9179 0-2.374 8.794-8.9183 10.918-10.613zm-32.17 21.076c3.476-1.156 35.521 32.88 35.521 37.725 0 1.837-12.931 9.4597-14.252 10.93-0.436 0.486-3.1845 2.5527-6.1055 4.5957-6.296 4.4-11.691 5.0883-19.168 2.4453-3.585-1.267-7.1452-1.4615-10.283-0.5625-2.638 0.757-7.6793 1.3789-11.197 1.3789-5.418 0-6.8247-0.7221-9.1777-4.707-4.071-6.891-21.654-18.207-21.654-21.412 0-2.882 10.252-12.666 18.209-17.377 6.449-3.818 26.151-10.845 27.27-9.7266 0.338 0.339 0.48422 7.2865 0.32422 15.44-0.439 22.395-2.1822 36.323-0.0932 38.839 5.789 6.977 7.2408-17.334 8.6538-50.804 0.145-3.412 1.0251-6.4546 1.9531-6.7636zm-62.408 37.436c8.894 6.351 34.6 25.058 24.965 31.014-4.637 2.864 5.3632 13.359-10.678 13.428-8.8 0.038-23.54 2.4356-30.598 4.0586-4.085 0.939-4.1461 0.8341-2.9961-5.1289 1.478-7.669 12.065-33.152 16.195-38.978zm99.357 7.8399c2.679-0.8413 4.2987 0.2951 6.1797 2.9941 3.029 4.346 14.117 23.142 15.338 34.367h-35.734l-1.6445-6.332c-0.904-3.484-2.5549-8.1683-3.6699-10.408-1.935-3.888-1.6188-4.4201 6.9902-11.748 6.124-5.213 9.862-8.0318 12.541-8.873zm5.127 43.805c17.411 1.533 16.795 1.1496 16.914 10.562 0.265 21.277-8.4645 39.205-10.812 39.205-1.981 0-31.655-31.265-31.672-33.371-3e-3 -0.502 1.7742-2.5868 3.9512-4.6308 2.178-2.046 3.959-5.3005 3.959-7.2305 1e-5 -4.52 4.5512-5.6892 17.66-4.5352zm-98.117 1.125c15.761-1.5573 15.275 2.7612 18.244 10.201l3.9316 9.8516c-2.937 3.782-5.0515 6.9844-18.605 20.816-6.477 6.609-11.777 12.844-11.777 13.856 0 4.8619 6.736 0.5391 19.75-12.674 14.731-14.956 16.649-15.93 26.479-13.463 3.705 0.929 4.3337 2.0572 5.2207 9.3692 1.202 9.906 1.6799 27.715 1.1719 43.541-0.348 10.791-0.5846 11.47-3.9336 11.324-8.557-0.373-40.131-24.018-51.99-37.998-14.151-16.682-18.648-28.464-16.453-43.104 0.95801-6.3799 1.5717-7.2025 6.0547-8.1035 9.594-1.9272 16.654-3.098 21.908-3.6172zm65.482 23.832c2.6766-0.7824 6.3622 1.0975 15.723 11.748 5.931 6.749 12.824 13.587 15.316 15.197 2.494 1.609 4.5332 3.5761 4.5332 4.3711 0 3.339-39.829 40.997-46.51 40.998-1.888 0-3.0594-12.331-3.3164-34.926-0.154-13.55-0.82328-25.515-1.4883-26.592-1.675-2.7099 1.8961-6.5703 6.0781-6.5703 5.32 0 6.9874-3.4442 9.6641-4.2265zm20.966 152.64c18.325 17.554 20.651 33.594 22.607 59.674 0.713 9.51 0.91427 19.486 0.44727 22.168-1.501 8.614-8.7821 26.922-12.33 31.006-1.892 2.177-5.4568 7.1649-7.9238 11.084-4.742 7.535-10.166 13.057-25.105 25.561-14.914 12.482-16.182 11.202-17.486-17.646-0.532-11.756-1.2536-23.886-1.6016-26.955-0.622-5.468-0.52266-5.5792 5.1113-5.6152 3.501-0.023 8.3917-1.7263 12.514-4.3613l6.7676-4.3243 10.154 10.613c8.387 8.767 15.141 19.178 17.052 17.593 2.695-2.237-2.9228-17.035-6.0088-17.035-1.161 0-3.9293-2.3858-6.1523-5.2988-3.575-4.687-3.8382-5.8828-2.2832-10.342 0.966-2.774 1.4056-6.3834 0.97656-8.0234-0.883-3.382 3.4822-5.307 6.9922-3.084 3.727 2.362 28.838 3.2727 28.838 0.6217 0-2.059-19.253-4.7428-23.086-4.1588 1.1957-1.8708-3.4489-1.1088-6.2559-2.6778-3.467-1.935-5.5521-4.6018-6.4941-8.3008-0.765-2.996-2.0466-6.1231-2.8496-6.9511-3.132-3.228-1.133-7.1741 6.459-12.746 4.72-3.464 23.555-17.724 23.555-19.532 1e-5 -3.913-17.576 6.8412-21.227 10.874-1.601 1.77-5.3264 4.7111-8.2773 6.5351l-5.3652 3.3145-8.2207-4.1563c-4.521-2.288-10.17-4.1601-12.553-4.1601-2.382 0-4.3301-0.281-4.3301-0.625s1.5256-5.5095 3.3926-11.48c1.866-5.97 3.8245-16.855 4.3535-24.189l0.96094-13.338c12.59 4.9341 15.361 1.5014 27.37 15.957zm-38.044-12.684c4.202 1.499 1.4945 31.537-3.2715 36.305-2.976 2.968 2.2428 6.8906-6.5332 6.8906-3.2248 3.8941-15.645 5.1176-9.7679 4.6958 4.7535-0.53782-4.638 3.0758-10.529-2.2836-14.938-9.967-20.172-14.078-20.172-15.84 0-3.049 14.766-16.095 22.959-20.283 10.547-5.391 24.857-10.36 27.314-9.4844zm-54.957 37.062c4.03 2.379 25.793 14.838 26.533 17.062 0.875 2.622-6.8517 8.9532-8.3867 15.949-0.58 2.633-1.5293 4.8337-2.1133 4.8906-9.126 0.882-17.686 0.8367-20.852-0.1093-2.178-0.651-5.4856-0.858-7.3496-0.461-1.866 0.398-3.8254 0.017-4.3574-0.8437-1.142-1.846 8.731-25.543 13.334-32.008zm0.25 44.981c17.579 0.25 17.73 0.2852 19.09 4.3652 0.755 2.263 3.4625 5.0399 6.0195 6.1719 5.293 2.344 6.0486 5.3747 1.6816 6.7617-4.149 1.316-31.869 31.272-31.869 34.44 0 2.707-2.5364 0.9629-5.6894-3.9141-4.254-6.583-5.9659-14.031-7.7109-33.578-1.337-14.963-1.8905-14.536 18.479-14.246zm34.074 25.031c3.135 0.508 6.4131 1.6377 7.2871 2.5117 1.602 1.602 7.0252 58.831 3.5352 58.572-2.726-0.203-10.509-3.1244-20.82-7.8164-9.173-4.174-25.988-17.74-25.988-20.969 0-2.722 15.562-21.155 23.018-27.264 6.299-5.162 8.0338-5.8362 12.969-5.0352z" fill="{{ border_color }}"/><path d="m554.04 0.76686c2.098 1.3471 4.0713 3.4322 4.3496 4.7872 0.74299 3.6069-9.5554 12.836-15.691 14.062-6.009 1.202-9.3789 3.658-9.3789 6.834 0 3.07 8.8339 13.87 15.506 18.961l5.418 4.1328 5.7676-6.4043c6.647-7.381 12.339-9.2698 17.352-5.7598 7.365 5.158 1.8891 15.015-10.172 18.307-8.096 2.21-10.131 4.0443-10.068 9.0683 0.057 4.515 6.9366 15.458 11.475 18.256 2.356 1.453 3.6687 0.7253 8.0137-4.4317 4.77-5.664 5.6628-6.0825 10.885-5.1035 5.848 1.098 7.5762 3.2948 7.5762 9.6367 1e-5 4.201-5.3274 8.2563-11.857 9.0293-7.271 0.858-8.1708 4.3987-3.5918 14.139 2.213 4.705 4.4251 9.7756 4.9141 11.268 0.823 2.509 1.5097 2.4557 9.0957-0.6973l8.2031-3.4082 4.6074 5.1563c3.381 3.783 4.3259 6.0802 3.5469 8.6152-1.542 5.024-1.5796 5.0391-13.061 5.0391-10.485 0-10.524 0.018-13.164 5.5957-1.455 3.078-3.1554 8.9925-3.7774 13.144l-1.1328 7.5449 8.082-1.0703c9.633-1.278 16.055 1.8729 16.055 7.8789 0 6.705-9.315 10.636-17.332 7.3164-4.932-2.043-11.17-0.9537-11.17 1.9473 0 0.974-1.4743 4.817-3.2773 8.5409-1.802 3.724-3.0505 8.7425-2.7715 11.152 0.443 3.8289 1.3893 4.5285 7.4883 5.5624 11.248 1.907 18.128 11.147 12.496 16.781-2.334 2.333-8.6317 2.4948-10.014 0.2578-1.135-1.835-16.278-9.4394-18.797-9.4394-1.897 0-13.625 11.153-13.625 12.955 0 0.676 2.8243 2.6716 6.2793 4.4336 13.049 6.657 12.786 19.029-0.4043 19.029-4.28 0-12.209-6.5258-12.209-10.049 0-5.564-7.5148-4.438-13.34 2-2.543 2.808-2.7139 3.8916-1.0859 6.9336 1.063 1.982 3.4952 4.2919 5.4062 5.1309 4.853 2.13 5.303 8.1366 0.95703 12.764-1.966 2.093-4.3945 3.8047-5.3965 3.8047-2.507 0-8.1128-6.3585-9.4258-10.688-1.207-3.979-2.1039-4.2193-7.7539-2.0723-5.803 2.207-6.6344 7.0358-2.3984 13.971 4.127 6.7579 6.3217 8.7122 13.93 12.406 5.209 2.53 5.5417 2.508 8.0117-0.543 7.84-9.68 28.514-11.285 28.514-2.2109 0 5.033-11.627 12.889-19.078 12.889-4.252 0-4.2058 9.2387 0.0742 14.68 1.742 2.216 3.168 4.82 3.168 5.791 0 0.969 1.7649 2.5678 3.9199 3.5507 3.526 1.606 4.6388 1.1229 11.049-4.7851 8.435-7.7751 14.268-8.5703 19.783-2.6993 7.057 7.511 0.81137 16.083-12.6 17.291-7.646 0.6891-9.4969 2.9022-5.8789 7.0333 1.29 1.4749 3.578 5.1766 5.084 8.2246 3.973 8.045 11.895 14.007 11.895 8.953 0-3.412 5.4878-7.4312 11.469-8.4022 4.569-0.742 5.9753-0.2582 8.1133 2.7949 1.424 2.03 2.5859 4.5686 2.5859 5.6426 0 3.557-7.5741 9.5933-13.414 10.689-3.165 0.5941-6.164 2.1539-6.668 3.4668-1.181 3.077 3.956 22.14 6.543 24.289 1.42 1.18 2.7642 0.7681 4.7832-1.4609 6.995-7.73 21.422-7.3226 21.422 0.6074 0 5.5921-5.8298 14.702-10.094 15.772-1.999 0.502-5.9293 0.2533-8.7363-0.5507-6.592-1.8911-9.1364-0.8132-10.439 4.4199-0.581 2.332-2.1219 6.4893-3.4219 9.2383-1.3 2.75-2.1364 7.383-1.8574 10.293 0.43 4.484 1.1428 5.3162 4.6758 5.4492 9.362-0.19403 19.446 15.14 12.51 21.496-1.964 1.589-4.9858 2.8906-6.7148 2.8906-4.605 0-11.816-4.7169-13.77-9.006-1.387-3.044-2.5063-3.551-6.0723-2.75-6.104 1.371-11.779 5.6686-15.205 11.52-6.1794 9.3673 10.536 8.678 11.623 17.856 0 3.765-3.5582 7.7149-6.9512 7.7149-3.738 0-9.857-4.8812-12.998-10.367-1.675-2.928-2.1098-2.8558-11.967 1.9512-11.286 7.3241-9.9056 6.9341-24.32 14.75-9.313 4.4524-3.6903 6.3834-16.277 7.4458-24.964 5.6235-12.222 1.797-39.052-2.7199-9.8626-3.658-26.514-3.9636-65.076-44.722-19.212-20.306-23.006-23.534-29.998-44.43-3.156-9.431-4.0689-15.093-3.8379-23.811 0.678-25.618 14.107-54.908 14.107-54.908 0-2.725 13.776-24.764 22.529-36.041 9.263-11.935 8.6683-14.174-3.0977-11.652-13.155 2.823-13.82-2.2243-16.066 3.6777-5.97 15.693-24.593 46.646-28.639 73.936-0.53271 14.642 0.21596 26.768 0.8418 35.668 0.11095 64.957 42.449 71.996 77.936 102.69-13.509 1.2657-19.194-0.47003-36.835-0.17833-27.09-22.15-54.92-57.611-61.129-101.54-4.32-37.341 0.43747-64.028 15.064-84.527 3.959-5.548 7.1973-10.6 7.1973-11.226 0-4.762 23.75-34.46 23.75-34.576 0-0.51-6.6721-7.6559-14.828-15.879-18.053-18.199-20.795-21.794-30.17-39.568-10.741-20.359-23.511-62.849-12.885-93.691 13.993-40.613 45.089-87.238 66.58-99.832 3.925-2.301 7.132-5.0067 7.127-6.0117-9e-4 -0.1816-1.2765-1.4962-1.5039-1.8985 14.715-1.8795 24.159 0.5143 36.928 0 7.781 6.4148 20.858 16.544 61.127 34.106 22.128 9.651 33.686 21.266 45.207 45.426 8.65 18.138 9.7513 21.794 11.111 36.914 0.431 4.7899 0.84873 9.42 0.92773 10.291 0.45 4.883-5.5464 37.151-7.6504 41.168-10.153 19.39-26.567 35.251-36.137 43.162-21.655 17.908-44.181 24.945-37.006 27.93 6.057 2.518 19.063 8.9322 20.281 8.7032 0.489-0.092 2.5558-1.8275 4.5918-3.8575 2.036-2.029 6.8892-4.7745 10.783-6.1015 13.415-4.572 41.257-35.389 48.998-49.103 3.886-6.887 8.499-16.862 10.252-22.168 4.178-12.658 5.8273-41.355 3.1543-54.941-3.346-17.004-20.517-51.059-29.508-58.52-1.355-1.126-3.4294-3.9115-4.6094-6.1915-2.11-4.0829-30.648-26.959-33.631-26.959-2.152 0-11.29-4.6036-17.822-8.9766-8.4636-5.6661-8.8016-3.2684-18.553-10.881 18.793-1.7626 34.273 0.0756 46.385 0 2.7575 3.3566 9.2592 8.246 18.258 12.777 11.003 5.541 12.276 5.4464 14.6-1.0996 0.514-1.449 5.4127-5.2608 10.887-8.4688 3.2611-1.9112 4.6236-2.4583 6.291-3.209zm-158.43 11.94-7.209 4.8633c-9.964 6.727-4.632 4.9222-11.166 13.49-5.775 7.569-1.5604 3.2725-8.8164 14.023-3.258 4.829-4.5266 8.2431-3.8516 10.371 0.711 2.239 0.2885 3.1739-1.4375 3.1739-3.338 0-6.35 6.9341-10.832 11.453-4.1 4.142-0.56774 2.5421-7.4277 12.705-20.895 30.963-16.206 85.025-8.1816 102.31 13.564 29.216 51.134 66.705 53.559 66.705 7.0747 2.8871 23.312 10.388 37.742 14.033 6.25 4.9129 7.9481 3.286 19.455 9.125 4.06 2.06 8.3587 3.7519 9.5527 3.7519 6.565 0.021 24.742 9.1867 32.33 16.303 11.913 11.173 16.957 11.278 16.957 15.166 0 1.585 1.5028 4.2394 3.3398 5.8984 4 3.613 9.1372 13.555 14.242 27.559 5.966 16.36 3.5392 56.825 1.5312 59.244-2.964 15.934-5.0516 15.142-10.516 25.863-10.631 16.827-26.057 31.287-40.955 36.311-6.907 2.216-6.6423 4.693 0.88671 8.332 3.703 1.789 7.135 3.1902 7.623 3.1152 16.213-2.6 56.241-49.232 62.898-62.107 3.105-6.002 8.4086-27.03 8.4356-33.438 0.025-6.527-6.3402-29.363-9.0332-32.408-5.343-6.042-24.264-39.586-28.906-44.223-1-1-20.252-24.431-36.465-32.699-16.964-8.653-40.736-28.99-56.264-31.756-6.875-1.226-21.322-8.3487-21.322-10.514 0-0.748-2.6705-2.5784-5.9375-4.0684-10.891-4.969-27.563-20.206-30.758-28.113-1.056-2.613-2.3547-5.108-2.8867-5.543-1.815-1.482-19.454-34.97-14.336-66.764 6.773-42.055 21.907-58.028 29.162-68.914 8.509-12.774 11.486-16.101 22.098-24.721 4.074-3.309 7.4062-6.8729 7.4062-7.9179 0-2.374-8.794-8.9183-10.918-10.613zm32.17 21.076c-3.476-1.156-35.521 32.88-35.521 37.725 0 1.837 12.931 9.4597 14.252 10.93 0.436 0.486 3.1845 2.5527 6.1055 4.5957 6.296 4.4 11.691 5.0883 19.168 2.4453 3.585-1.267 7.1452-1.4615 10.283-0.5625 2.638 0.757 7.6793 1.3789 11.197 1.3789 5.418 0 6.8247-0.7221 9.1777-4.707 4.071-6.891 21.654-18.207 21.654-21.412 0-2.882-10.252-12.666-18.209-17.377-6.449-3.818-26.151-10.845-27.27-9.7266-0.338 0.339-0.48422 7.2865-0.32422 15.44 0.439 22.395 2.1822 36.323 0.0932 38.839-5.789 6.977-7.2408-17.334-8.6538-50.804-0.145-3.412-1.0251-6.4546-1.9531-6.7636zm62.408 37.436c-8.894 6.351-34.6 25.058-24.965 31.014 4.637 2.864-5.3632 13.359 10.678 13.428 8.8 0.038 23.54 2.4356 30.598 4.0586 4.085 0.939 4.1461 0.8341 2.9961-5.1289-1.478-7.669-12.065-33.152-16.195-38.979zm-99.357 7.8399c-2.679-0.8413-4.2987 0.2951-6.1797 2.9941-3.029 4.346-14.117 23.142-15.338 34.367h35.734l1.6445-6.332c0.904-3.484 2.5549-8.1683 3.6699-10.408 1.935-3.888 1.6188-4.4201-6.9902-11.748-6.124-5.213-9.862-8.0318-12.541-8.873zm-5.127 43.805c-17.411 1.533-16.795 1.1496-16.914 10.562-0.265 21.277 8.4645 39.205 10.812 39.205 1.981 0 31.655-31.265 31.672-33.371 3e-3 -0.502-1.7742-2.5868-3.9512-4.6308-2.178-2.046-3.959-5.3005-3.959-7.2305-1e-5 -4.52-4.5512-5.6892-17.66-4.5352zm98.117 1.125c-15.761-1.5573-15.275 2.7612-18.244 10.201l-3.9316 9.8516c2.937 3.782 5.0515 6.9844 18.605 20.816 6.477 6.609 11.777 12.844 11.777 13.856 0 4.8619-6.736 0.5391-19.75-12.674-14.731-14.956-16.649-15.93-26.479-13.463-3.705 0.929-4.3337 2.0572-5.2207 9.3692-1.202 9.906-1.6799 27.715-1.1719 43.541 0.348 10.791 0.5846 11.47 3.9336 11.324 8.557-0.373 40.131-24.018 51.99-37.998 14.151-16.682 18.648-28.464 16.453-43.104-0.95801-6.3799-1.5717-7.2025-6.0547-8.1035-9.594-1.9272-16.654-3.098-21.908-3.6172zm-65.482 23.832c-2.6766-0.7824-6.3622 1.0975-15.723 11.748-5.931 6.749-12.824 13.587-15.316 15.197-2.494 1.609-4.5332 3.5761-4.5332 4.3711 0 3.339 39.829 40.997 46.51 40.998 1.888 0 3.0594-12.331 3.3164-34.926 0.154-13.55 0.82328-25.515 1.4883-26.592 1.675-2.7099-1.8961-6.5703-6.0781-6.5703-5.32 0-6.9874-3.4442-9.6641-4.2265zm-20.966 152.64c-18.325 17.554-20.651 33.594-22.607 59.674-0.713 9.51-0.91427 19.486-0.44727 22.168 1.501 8.614 8.7821 26.922 12.33 31.006 1.892 2.177 5.4568 7.1649 7.9238 11.084 4.742 7.535 10.166 13.057 25.105 25.561 14.914 12.482 16.182 11.202 17.486-17.646 0.532-11.756 1.2536-23.886 1.6016-26.955 0.622-5.468 0.52266-5.5792-5.1113-5.6152-3.501-0.023-8.3917-1.7263-12.514-4.3613l-6.7676-4.3243-10.154 10.613c-8.387 8.767-15.141 19.178-17.052 17.593-2.695-2.237 2.9228-17.035 6.0088-17.035 1.161 0 3.9293-2.3858 6.1523-5.2988 3.575-4.687 3.8382-5.8828 2.2832-10.342-0.966-2.774-1.4056-6.3834-0.97656-8.0234 0.883-3.382-3.4822-5.307-6.9922-3.084-3.727 2.362-28.838 3.2727-28.838 0.6217 0-2.059 19.253-4.7428 23.086-4.1588-1.1957-1.8708 3.4489-1.1088 6.2559-2.6778 3.467-1.935 5.5521-4.6018 6.4941-8.3008 0.765-2.996 2.0466-6.1231 2.8496-6.9511 3.132-3.228 1.133-7.1741-6.459-12.746-4.72-3.464-23.555-17.724-23.555-19.532-1e-5 -3.913 17.576 6.8412 21.227 10.874 1.601 1.77 5.3264 4.7111 8.2773 6.5351l5.3652 3.3145 8.2207-4.1563c4.521-2.288 10.17-4.1601 12.553-4.1601 2.382 0 4.3301-0.281 4.3301-0.625s-1.5256-5.5095-3.3926-11.48c-1.866-5.97-3.8245-16.855-4.3535-24.189l-0.96094-13.338c-12.59 4.9341-15.361 1.5014-27.37 15.957zm38.044-12.684c-4.202 1.499-1.4945 31.537 3.2715 36.305 2.976 2.968-2.2428 6.8906 6.5332 6.8906 3.2248 3.8941 15.645 5.1176 9.7679 4.6958-4.7535-0.53782 4.638 3.0758 10.529-2.2836 14.938-9.967 20.172-14.078 20.172-15.84 0-3.049-14.766-16.095-22.959-20.283-10.547-5.391-24.857-10.36-27.314-9.4844zm54.957 37.062c-4.03 2.379-25.793 14.838-26.533 17.062-0.875 2.622 6.8517 8.9532 8.3867 15.949 0.58 2.633 1.5293 4.8337 2.1133 4.8906 9.126 0.882 17.686 0.8367 20.852-0.1093 2.178-0.651 5.4856-0.858 7.3496-0.461 1.866 0.398 3.8254 0.017 4.3574-0.8437 1.142-1.846-8.731-25.543-13.334-32.008zm-0.25 44.981c-17.579 0.25-17.73 0.2852-19.09 4.3652-0.755 2.263-3.4625 5.0399-6.0195 6.1719-5.293 2.344-6.0486 5.3747-1.6816 6.7617 4.149 1.316 31.869 31.272 31.869 34.44 0 2.707 2.5364 0.9629 5.6894-3.9141 4.254-6.583 5.9659-14.031 7.7109-33.578 1.337-14.963 1.8905-14.536-18.479-14.246zm-34.074 25.031c-3.135 0.508-6.4131 1.6377-7.2871 2.5117-1.602 1.602-7.0252 58.831-3.5352 58.572 2.726-0.203 10.509-3.1244 20.82-7.8164 9.173-4.174 25.988-17.74 25.988-20.969 0-2.722-15.562-21.155-23.018-27.264-6.299-5.162-8.0338-5.8362-12.969-5.0352z" fill="{{ border_color }}"/>
</svg>
