<?xml version="1.0" encoding="UTF-8"?>
<svg width="100" height="80.187" enable-background="new 0 0 4000 2549.944" version="1.1" viewBox="0 0 100 80.187" xml:space="preserve" xmlns="http://www.w3.org/2000/svg">
<path d="m9.2873 0.13039c-0.34315 0.22033-0.6659 0.56137-0.71142 0.78299-0.12152 0.58994 1.5629 2.0994 2.5664 2.3 0.98283 0.1966 1.534 0.5983 1.534 1.1178 0 0.50213-1.4449 2.2686-2.5362 3.1013l-0.88616 0.67596-0.94335-1.0475c-1.0872-1.2072-2.0182-1.5162-2.8381-0.94207-1.2046 0.84364-0.30898 2.4558 1.6637 2.9943 1.3242 0.36147 1.657 0.66148 1.6467 1.4832-0.00932 0.73847-1.1345 2.5283-1.8768 2.9859-0.38535 0.23765-0.60005 0.11863-1.3107-0.72485-0.78018-0.9264-0.9262-0.99485-1.7803-0.83472-0.9565 0.17959-1.2392 0.5389-1.2392 1.5762-2e-7 0.68711 0.87135 1.3504 1.9393 1.4768 1.1892 0.14033 1.3364 0.71945 0.58747 2.3126-0.36196 0.76955-0.72377 1.5989-0.80375 1.843-0.13461 0.41037-0.24693 0.40165-1.4877-0.11405l-1.3417-0.55744-0.75358 0.84336c-0.55299 0.61874-0.70754 0.99447-0.58013 1.4091 0.25221 0.82172 0.25836 0.82419 2.1362 0.82419 1.7149 0 1.7213 0.0029 2.1531 0.91523 0.23798 0.50344 0.51608 1.4708 0.61781 2.1498l0.18528 1.234-1.3219-0.17506c-1.5756-0.20903-2.6259 0.30633-2.6259 1.2887 0 1.0967 1.5236 1.7396 2.8348 1.1967 0.80668-0.33415 1.827-0.15599 1.827 0.3185 0 0.15931 0.24114 0.78787 0.53603 1.3969 0.29473 0.6091 0.49894 1.4299 0.4533 1.824-0.072457 0.62625-0.22723 0.74068-1.2248 0.90978-1.8397 0.31191-2.965 1.8232-2.0438 2.7447 0.38175 0.38158 1.4118 0.40805 1.6379 0.04217 0.18564-0.30013 2.6624-1.5439 3.0744-1.5439 0.31027 0 2.2285 1.8242 2.2285 2.1189 0 0.11057-0.46194 0.43697-1.027 0.72516-2.1343 1.0888-2.0913 3.1124 0.066127 3.1124 0.70003 0 1.9969-1.0674 1.9969-1.6436 0-0.91004 1.2291-0.72588 2.1819 0.32712 0.41593 0.45928 0.44388 0.63651 0.17761 1.1341-0.17386 0.32418-0.57169 0.70198-0.88424 0.83921-0.79375 0.34838-0.86736 1.3308-0.15653 2.0877 0.32156 0.34233 0.71876 0.6223 0.88265 0.6223 0.41004 0 1.3269-1.04 1.5417-1.7481 0.19742-0.6508 0.34411-0.69011 1.2682-0.33894 0.94914 0.36098 1.0851 1.1508 0.39228 2.2851-0.67501 1.1053-1.034 1.425-2.2784 2.0291-0.85198 0.41381-0.9064 0.41021-1.3104-0.08881-1.2823-1.5833-4.6637-1.8458-4.6637-0.36161 0 0.8232 1.9017 2.1081 3.1204 2.1081 0.69546 0 0.6879 1.5111-0.01214 2.4011-0.28492 0.36245-0.51816 0.78836-0.51816 0.94717 0 0.15849-0.28867 0.41999-0.64114 0.58075-0.57671 0.26268-0.75872 0.18366-1.8072-0.78265-1.3796-1.2717-2.3337-1.4018-3.2357-0.4415-1.1542 1.2285-0.13271 2.6305 2.0608 2.8281 1.2506 0.11271 1.5533 0.47468 0.96155 1.1504-0.21099 0.24123-0.58522 0.84668-0.83154 1.3452-0.64982 1.3158-1.9455 2.291-1.9455 1.4643 0-0.55806-0.89758-1.2154-1.8759-1.3743-0.7473-0.12136-0.97732-0.04223-1.327 0.45713-0.23291 0.33203-0.42295 0.74724-0.42295 0.9229 0 0.58178 1.2388 1.5691 2.194 1.7483 0.51767 0.09717 1.0082 0.35229 1.0906 0.56703 0.19316 0.50327-0.64704 3.6212-1.0702 3.9727-0.23225 0.193-0.45211 0.12563-0.78234-0.23894-1.1441-1.2643-3.5038-1.1977-3.5038 0.09935 0 0.91464 0.95352 2.4047 1.651 2.5797 0.32696 0.08211 0.96979 0.04143 1.4289-0.09007 1.0782-0.30931 1.4944-0.13301 1.7074 0.72292 0.095028 0.38142 0.34706 1.0614 0.55968 1.511 0.21263 0.44979 0.34943 1.2076 0.3038 1.6835-0.070331 0.7334-0.18692 0.86952-0.76477 0.89127-1.5312-0.03173-3.1806 2.4763-2.0461 3.5159 0.32123 0.2599 0.81547 0.47278 1.0983 0.47278 0.75319 0 1.9326-0.77149 2.2522-1.473 0.22686-0.49788 0.40993-0.5808 0.99318-0.44979 0.99837 0.22424 1.9266 0.92715 2.4869 1.8842 1.0107 1.5321-1.7233 1.4194-1.9011 2.9205-1e-7 0.6158 0.58198 1.2618 1.1369 1.2618 0.61139 0 1.6122-0.79837 2.1259-1.6956 0.27396-0.4789 0.34508-0.46709 1.9573 0.31914 1.8459 1.1979 1.6202 1.1341 3.9778 2.4125 1.5232 0.72823 0.60358 1.0441 2.6623 1.2178 4.0831 0.91978 1.999 0.29392 6.3873-0.44486 1.6131-0.5983 4.3366-0.64828 10.644-7.3147 3.1423-3.3212 3.7628-3.8492 4.9065-7.2669 0.51619-1.5425 0.66551-2.4686 0.62772-3.8945-0.11089-4.1901-2.3073-8.9807-2.3073-8.9807 0-0.4457-2.2532-4.0504-3.6848-5.8948-1.5151-1.9521-1.4178-2.3183 0.50666-1.9058 2.1516 0.46173 2.2604-0.3638 2.6277 0.60152 0.97645 2.5667 4.0224 7.6294 4.6842 12.093 0.08713 2.3948-0.03532 4.3782-0.13768 5.8338-0.01815 10.624-6.9429 11.776-12.747 16.796 2.2095 0.20702 3.1394-0.07688 6.0247-0.02917 4.4308-3.6228 8.9827-9.4228 9.9982-16.608 0.70658-6.1075-0.07155-10.472-2.4639-13.825-0.64753-0.90743-1.1772-1.7337-1.1772-1.8361 0-0.77887-3.8845-5.6363-3.8845-5.6552 0-0.08341 1.0913-1.2522 2.4253-2.5972 2.9527-2.9766 3.4012-3.5646 4.9346-6.4717 1.7568-3.3299 3.8454-10.28 2.1075-15.324-2.2887-6.6426-7.3747-14.269-10.89-16.328-0.64197-0.37635-1.1665-0.81889-1.1657-0.98327 1.48e-4 -0.029702 0.20878-0.24472 0.24598-0.31052-2.4068-0.30741-3.9514 0.084119-6.0399 0-1.2727 1.0492-3.4115 2.7059-9.9979 5.5784-3.6192 1.5785-5.5097 3.4783-7.394 7.4299-1.4148 2.9666-1.5949 3.5646-1.8173 6.0376-0.07049 0.78343-0.13882 1.5407-0.15174 1.6832-0.0736 0.79866 0.90717 6.0764 1.2513 6.7334 1.6606 3.1714 4.3453 5.7656 5.9105 7.0596 3.5419 2.929 7.2262 4.08 6.0527 4.5682-0.99068 0.41184-3.1179 1.4609-3.3171 1.4235-0.07998-0.01505-0.41802-0.2989-0.75103-0.63093-0.33301-0.33186-1.1268-0.78091-1.7637-0.99796-2.1942-0.74779-6.748-5.7882-8.0141-8.0313-0.63559-1.1264-1.3901-2.7579-1.6768-3.6258-0.68335-2.0703-0.95311-6.764-0.51592-8.9861 0.54727-2.7812 3.3557-8.3512 4.8263-9.5715 0.22162-0.18417 0.56091-0.63976 0.75391-1.0127 0.34511-0.6678 5.0128-4.4094 5.5007-4.4094 0.35198 0 1.8466-0.75296 2.915-1.4682 1.3843-0.92674 1.4396-0.53458 3.0345-1.7797-3.0738-0.28829-5.6057 0.012365-7.5867 0-0.45102 0.549-1.5144 1.3487-2.9863 2.0898-1.7996 0.90628-2.0079 0.89081-2.388-0.17985-0.08407-0.237-0.8853-0.86045-1.7807-1.3852-0.53338-0.31259-0.75623-0.40208-1.029-0.52486zm25.913 1.9529 1.1791 0.79544c1.6297 1.1003 0.75761 0.80507 1.8263 2.2064 0.94456 1.238 0.25522 0.53525 1.442 2.2936 0.53288 0.78983 0.74037 1.3482 0.62996 1.6963-0.11629 0.36621-0.04719 0.51912 0.23512 0.51912 0.54596 0 1.0386 1.1341 1.7717 1.8732 0.67059 0.67746 0.09286 0.41578 1.2149 2.078 3.4176 5.0643 2.6506 13.906 1.3382 16.734-2.2185 4.7786-8.3634 10.91-8.7601 10.91-1.1571 0.47221-3.8129 1.6991-6.1731 2.2952-1.0222 0.80355-1.3 0.53746-3.182 1.4925-0.66405 0.33693-1.3671 0.61366-1.5624 0.61366-1.0738 0.0034-4.0468 1.5026-5.2879 2.6665-1.9485 1.8274-2.7735 1.8446-2.7735 2.4805 0 0.25924-0.2458 0.69339-0.54626 0.96474-0.65424 0.59094-1.4945 2.217-2.3294 4.5075-0.9758 2.6758-0.57887 9.2943-0.25044 9.6899 0.48479 2.6062 0.82624 2.4766 1.72 4.2301 1.7388 2.7522 4.2619 5.1173 6.6986 5.939 1.1297 0.36245 1.0864 0.76758-0.14503 1.3628-0.60566 0.29261-1.167 0.52179-1.2468 0.50952-2.6518-0.42525-9.1987-8.0524-10.288-10.158-0.50785-0.98168-1.3753-4.421-1.3797-5.4691-0.00409-1.0676 1.037-4.8026 1.4775-5.3006 0.8739-0.98823 3.9686-6.4747 4.7278-7.2331 0.16356-0.16356 3.3124-3.9959 5.9642-5.3482 2.7746-1.4153 6.6628-4.7416 9.2025-5.194 1.1245-0.20052 3.4874-1.3655 3.4874-1.7197 0-0.12234 0.43679-0.42172 0.97114-0.66542 1.7813-0.81273 4.5082-3.3049 5.0308-4.5981 0.17272-0.42738 0.38513-0.83546 0.47215-0.90661 0.29686-0.2424 3.1819-5.7197 2.3448-10.92-1.1078-6.8785-3.5831-9.491-4.7697-11.272-1.3917-2.0893-1.8786-2.6335-3.6143-4.0434-0.66634-0.54122-1.2114-1.1241-1.2114-1.295 0-0.38829 1.4383-1.4587 1.7857-1.7359zm-5.2617 3.4472c0.56853-0.18907 5.8098 5.3778 5.8098 6.1703 0 0.30046-2.115 1.5472-2.331 1.7877-0.07131 0.07949-0.52086 0.41752-0.99861 0.75167-1.0298 0.71966-1.9122 0.83224-3.1351 0.39995-0.58636-0.20723-1.1687-0.23904-1.6819-0.092-0.43147 0.12382-1.256 0.22553-1.8314 0.22553-0.88616 0-1.1162-0.11811-1.5011-0.76987-0.66585-1.1271-3.5417-2.9779-3.5417-3.5021 0-0.47138 1.6768-2.0716 2.9783-2.8422 1.0548-0.62447 4.2772-1.7738 4.4603-1.5909 0.05528 0.055447 0.0792 1.1918 0.05303 2.5254-0.0718 3.6629-0.35692 5.941-0.01524 6.3525 0.94685 1.1412 1.1843-2.8351 1.4154-8.3095 0.02372-0.55806 0.16766-1.0557 0.31945-1.1063zm-10.207 6.123c1.4547 1.0388 5.6592 4.0985 4.0833 5.0726-0.75842 0.46844 0.8772 2.185-1.7465 2.1963-1.4393 0.0062-3.8502 0.39837-5.0046 0.66382-0.66814 0.15358-0.67813 0.13642-0.49004-0.83888 0.24174-1.2543 1.9733-5.4223 2.6488-6.3752zm16.251 1.2823c0.43818-0.1376 0.70309 0.04827 1.0107 0.48971 0.49542 0.71083 2.309 3.7851 2.5087 5.621h-5.8446l-0.26897-1.0357c-0.14786-0.56984-0.41788-1.336-0.60025-1.7023-0.31649-0.63592-0.26477-0.72295 1.1433-1.9215 1.0016-0.85264 1.613-1.3137 2.0512-1.4513zm0.83857 7.1647c2.8477 0.25074 2.747 0.18803 2.7664 1.7275 0.04334 3.4801-1.3844 6.4123-1.7684 6.4123-0.32401 0-5.1775-5.1137-5.1803-5.4581-4.91e-4 -0.08211 0.29019-0.4231 0.64626-0.75741 0.35623-0.33464 0.64753-0.86695 0.64753-1.1826 1e-6 -0.73929 0.74439-0.93052 2.8885-0.74178zm-16.048 0.184c2.5779-0.25471 2.4984 0.45162 2.984 1.6685l0.64305 1.6113c-0.48037 0.61858-0.82622 1.1424-3.043 3.4047-1.0594 1.081-1.9262 2.1008-1.9262 2.2663 0 0.79521 1.1017 0.08817 3.2303-2.073 2.4094-2.4462 2.7231-2.6055 4.3309-2.202 0.60599 0.15195 0.70882 0.33647 0.85389 1.5324 0.1966 1.6202 0.27476 4.533 0.19168 7.1215-0.05692 1.765-0.09562 1.876-0.64338 1.8521-1.3996-0.06101-6.5638-3.9284-8.5035-6.2149-2.3145-2.7285-3.0501-4.6556-2.691-7.0501 0.15669-1.0435 0.25707-1.178 0.9903-1.3254 1.5692-0.31521 2.7239-0.50671 3.5833-0.59163zm10.71 3.8979c0.43778-0.12797 1.0406 0.17951 2.5716 1.9215 0.97007 1.1039 2.0975 2.2223 2.5051 2.4856 0.40792 0.26317 0.74145 0.5849 0.74145 0.71494 0 0.54612-6.5144 6.7054-7.6071 6.7056-0.3088 0-0.50039-2.0169-0.54243-5.7125-0.02519-2.2162-0.13466-4.1732-0.24343-4.3494-0.27396-0.44323 0.31012-1.0746 0.99413-1.0746 0.87014 0 1.1429-0.56333 1.5807-0.69128zm3.4292 24.966c2.9972 2.8711 3.3777 5.4946 3.6976 9.7602 0.11662 1.5554 0.14954 3.1871 0.07315 3.6258-0.2455 1.4089-1.4364 4.4033-2.0167 5.0713-0.30945 0.35607-0.89251 1.1719-1.296 1.8129-0.7756 1.2324-1.6627 2.1356-4.1062 4.1807-2.4393 2.0415-2.6467 1.8322-2.86-2.8862-0.08701-1.9228-0.20504-3.9068-0.26196-4.4087-0.10173-0.89434-0.08549-0.91253 0.836-0.91842 0.57262-0.0038 1.3725-0.28235 2.0468-0.71333l1.1069-0.70728 1.6608 1.7359c1.3718 1.4339 2.4765 3.1367 2.789 2.8775 0.44079-0.36588-0.47805-2.7862-0.9828-2.7862-0.18989 0-0.64267-0.39022-1.0063-0.86667-0.58472-0.7666-0.62777-0.96219-0.37344-1.6915 0.158-0.45371 0.2299-1.0441 0.15972-1.3123-0.14442-0.55316 0.56955-0.86801 1.1436-0.50442 0.60959 0.38633 4.7167 0.53528 4.7167 0.10168 0-0.33677-3.149-0.77573-3.7759-0.68021 0.19557-0.30599-0.5641-0.18136-1.0232-0.43798-0.56706-0.31649-0.9081-0.75267-1.0622-1.3577-0.12512-0.49002-0.33474-1.0015-0.46608-1.1369-0.51227-0.52797-0.18531-1.1734 1.0564-2.0847 0.772-0.56657 3.8526-2.8989 3.8526-3.1946 2e-6 -0.64001-2.8747 1.1189-3.4719 1.7785-0.26186 0.2895-0.87118 0.77054-1.3538 1.0689l-0.87753 0.54212-1.3446-0.6798c-0.73945-0.37422-1.6634-0.68042-2.0532-0.68042-0.3896 0-0.70823-0.04596-0.70823-0.10222 0-0.05627 0.24953-0.90113 0.55489-1.8777 0.3052-0.97645 0.62553-2.7568 0.71206-3.9563l0.15717-2.1816c2.0592 0.80702 2.5124 0.24557 4.4766 2.6099zm-6.2225-2.0746c0.68728 0.24518 0.24444 5.1582-0.53508 5.938-0.48675 0.48544 0.36683 1.127-1.0686 1.127-0.52745 0.63692-2.5589 0.83703-1.5976 0.76804 0.77748-0.08797-0.75859 0.50308-1.7221-0.3735-2.4433-1.6302-3.2993-2.3026-3.2993-2.5908 0-0.49869 2.4151-2.6325 3.7552-3.3175 1.7251-0.88175 4.0656-1.6945 4.4675-1.5513zm-8.9887 6.0618c0.65914 0.38911 4.2187 2.4269 4.3397 2.7907 0.14312 0.42885-1.1207 1.4644-1.3717 2.6086-0.09487 0.43065-0.25013 0.7906-0.34565 0.7999-1.4926 0.14426-2.8927 0.13685-3.4105-0.01788-0.35623-0.10648-0.89722-0.14033-1.2021-0.0754-0.3052 0.0651-0.62568 0.0028-0.71269-0.138-0.18678-0.30193 1.428-4.1778 2.1809-5.2352zm0.04089 7.3571c2.8752 0.04089 2.8999 0.04665 3.1223 0.71397 0.12349 0.37014 0.56632 0.82432 0.98455 1.0095 0.86572 0.38338 0.98931 0.87908 0.27504 1.1059-0.67861 0.21524-5.2125 5.1148-5.2125 5.633 0 0.44276-0.41485 0.15749-0.93056-0.64019-0.69578-1.0767-0.97578-2.2949-1.2612-5.492-0.21868-2.4473-0.30921-2.3775 3.0224-2.3301zm5.5731 4.0941c0.51276 0.08309 1.0489 0.26786 1.1919 0.41081 0.26202 0.26202 1.149 9.6224 0.57822 9.58-0.44586-0.0332-1.7188-0.51102-3.4053-1.2784-1.5003-0.6827-4.2506-2.9015-4.2506-3.4297 0-0.44521 2.5453-3.4601 3.7648-4.4593 1.0303-0.84429 1.314-0.95457 2.1212-0.82356z" fill="{{ border_color }}" stroke-width=".16356"/><path d="m90.713 0.25582c0.34315 0.22033 0.6659 0.56137 0.71142 0.78299 0.12152 0.58994-1.5629 2.0994-2.5664 2.3-0.98283 0.1966-1.534 0.5983-1.534 1.1178 0 0.50213 1.4449 2.2686 2.5362 3.1013l0.88616 0.67596 0.94334-1.0475c1.0872-1.2072 2.0182-1.5162 2.8381-0.94207 1.2046 0.84364 0.30898 2.4558-1.6637 2.9943-1.3242 0.36147-1.657 0.66148-1.6467 1.4832 0.0093 0.73847 1.1345 2.5283 1.8768 2.9859 0.38535 0.23765 0.60005 0.11863 1.3107-0.72485 0.78018-0.9264 0.9262-0.99485 1.7803-0.83473 0.9565 0.17959 1.2392 0.5389 1.2392 1.5762 2e-6 0.68711-0.87135 1.3504-1.9393 1.4768-1.1892 0.14033-1.3364 0.71945-0.58747 2.3126 0.36196 0.76955 0.72377 1.5989 0.80375 1.843 0.13461 0.41037 0.24693 0.40165 1.4877-0.11405l1.3417-0.55744 0.75358 0.84336c0.553 0.61874 0.70754 0.99447 0.58013 1.4091-0.25221 0.82172-0.25836 0.82419-2.1362 0.82419-1.7149 0-1.7213 0.0029-2.1531 0.91523-0.23798 0.50344-0.5161 1.4708-0.61783 2.1498l-0.18528 1.234 1.3219-0.17506c1.5756-0.20903 2.6259 0.30633 2.6259 1.2887 0 1.0967-1.5236 1.7396-2.8348 1.1967-0.80668-0.33415-1.827-0.15599-1.827 0.3185 0 0.15931-0.24114 0.78787-0.53603 1.3969-0.29473 0.6091-0.49894 1.4299-0.4533 1.824 0.07246 0.62625 0.22723 0.74068 1.2248 0.90978 1.8397 0.31191 2.965 1.8232 2.0438 2.7447-0.38175 0.38158-1.4118 0.40805-1.6379 0.04217-0.18564-0.30013-2.6624-1.5439-3.0744-1.5439-0.31027 0-2.2285 1.8242-2.2285 2.1189 0 0.11057 0.46194 0.43697 1.027 0.72516 2.1343 1.0888 2.0913 3.1124-0.06613 3.1124-0.70003 0-1.9969-1.0674-1.9969-1.6436 0-0.91004-1.2291-0.72588-2.1819 0.32712-0.41593 0.45928-0.44388 0.63651-0.17761 1.1341 0.17386 0.32417 0.57167 0.70198 0.88424 0.83921 0.79375 0.34838 0.86736 1.3308 0.15653 2.0877-0.32156 0.34233-0.71876 0.6223-0.88265 0.6223-0.41004 0-1.3269-1.04-1.5417-1.7481-0.19742-0.6508-0.34411-0.69011-1.2682-0.33894-0.94914 0.36098-1.0851 1.1508-0.39228 2.2851 0.67501 1.1053 1.034 1.425 2.2784 2.0291 0.85198 0.4138 0.9064 0.41021 1.3104-0.08881 1.2823-1.5833 4.6637-1.8458 4.6637-0.36161 0 0.8232-1.9017 2.1081-3.1204 2.1081-0.69546 0-0.6879 1.5111 0.01214 2.4011 0.28492 0.36245 0.51816 0.78836 0.51816 0.94717 0 0.15849 0.28867 0.41999 0.64114 0.58075 0.57671 0.26268 0.75872 0.18366 1.8072-0.78265 1.3796-1.2717 2.3337-1.4018 3.2357-0.4415 1.1542 1.2285 0.13271 2.6305-2.0608 2.8281-1.2506 0.11271-1.5533 0.47468-0.96155 1.1504 0.21099 0.24123 0.58522 0.84668 0.83154 1.3452 0.64982 1.3158 1.9455 2.291 1.9455 1.4643 0-0.55806 0.89758-1.2154 1.8759-1.3743 0.7473-0.12136 0.97732-0.04223 1.327 0.45713 0.23291 0.33203 0.42295 0.74724 0.42295 0.9229 0 0.58178-1.2388 1.5691-2.194 1.7483-0.51766 0.09717-1.0082 0.35229-1.0906 0.56703-0.19316 0.50327 0.64704 3.6212 1.0702 3.9727 0.23226 0.193 0.45211 0.12563 0.78234-0.23894 1.1441-1.2643 3.5038-1.1977 3.5038 0.09935 0 0.91464-0.95352 2.4047-1.651 2.5797-0.32696 0.08211-0.96979 0.04143-1.4289-0.09007-1.0782-0.30931-1.4943-0.13301-1.7074 0.72292-0.09503 0.38142-0.34706 1.0614-0.55968 1.511-0.21263 0.44979-0.34943 1.2076-0.3038 1.6835 0.07033 0.7334 0.18692 0.86952 0.76477 0.89127 1.5312-0.03173 3.1806 2.4763 2.0461 3.5159-0.32123 0.2599-0.81547 0.47278-1.0983 0.47278-0.75319 0-1.9326-0.77149-2.2522-1.473-0.22686-0.49787-0.40993-0.5808-0.99318-0.44979-0.99837 0.22424-1.9266 0.92715-2.4869 1.8842-1.0107 1.5321 1.7233 1.4194 1.9011 2.9205 0 0.6158-0.58198 1.2618-1.1369 1.2618-0.61138 0-1.6122-0.79837-2.1259-1.6956-0.27396-0.4789-0.34508-0.46709-1.9573 0.31914-1.8459 1.1979-1.6202 1.1341-3.9778 2.4125-1.5232 0.72823-0.60358 1.0441-2.6623 1.2178-4.0831 0.91978-1.999 0.29392-6.3873-0.44486-1.6131-0.5983-4.3366-0.64828-10.644-7.3147-3.1423-3.3212-3.7628-3.8492-4.9065-7.2669-0.51619-1.5425-0.66551-2.4686-0.62772-3.8945 0.11089-4.1901 2.3073-8.9807 2.3073-8.9807 0-0.4457 2.2532-4.0504 3.6848-5.8948 1.5151-1.9521 1.4178-2.3183-0.50666-1.9058-2.1516 0.46173-2.2604-0.3638-2.6277 0.60152-0.97645 2.5667-4.0224 7.6294-4.6842 12.093-0.08713 2.3948 0.03532 4.3782 0.13768 5.8338 0.01815 10.624 6.9429 11.776 12.747 16.796-2.2095 0.20702-3.1394-0.07688-6.0247-0.02917-4.4308-3.6228-8.9827-9.4228-9.9982-16.608-0.70658-6.1075 0.07155-10.472 2.4639-13.825 0.64753-0.90743 1.1772-1.7337 1.1772-1.8361 0-0.77887 3.8845-5.6363 3.8845-5.6552 0-0.08342-1.0913-1.2522-2.4253-2.5972-2.9527-2.9766-3.4012-3.5646-4.9346-6.4717-1.7568-3.3299-3.8454-10.28-2.1075-15.324 2.2887-6.6426 7.3747-14.269 10.89-16.328 0.64197-0.37635 1.1665-0.81889 1.1657-0.98327-1.47e-4 -0.029702-0.20878-0.24472-0.24598-0.31052 2.4068-0.30741 3.9514 0.084119 6.0399 0 1.2727 1.0492 3.4115 2.7059 9.9979 5.5784 3.6192 1.5785 5.5097 3.4783 7.394 7.4299 1.4148 2.9666 1.5949 3.5646 1.8173 6.0376 0.07049 0.78343 0.13882 1.5407 0.15174 1.6832 0.0736 0.79866-0.90717 6.0764-1.2513 6.7334-1.6606 3.1714-4.3453 5.7656-5.9105 7.0596-3.5419 2.929-7.2262 4.08-6.0527 4.5682 0.99068 0.41184 3.1179 1.4609 3.3171 1.4235 0.07998-0.01505 0.41802-0.2989 0.75103-0.63093 0.33301-0.33186 1.1268-0.78091 1.7637-0.99796 2.1942-0.74779 6.748-5.7882 8.0141-8.0313 0.63559-1.1264 1.3901-2.7579 1.6768-3.6258 0.68335-2.0703 0.95311-6.764 0.51592-8.9861-0.54727-2.7812-3.3557-8.3512-4.8263-9.5715-0.22162-0.18417-0.56091-0.63976-0.75391-1.0127-0.34511-0.6678-5.0128-4.4094-5.5007-4.4094-0.35198 0-1.8466-0.75296-2.915-1.4682-1.3843-0.92674-1.4396-0.53458-3.0345-1.7797 3.0738-0.28829 5.6057 0.012365 7.5867 0 0.45102 0.549 1.5144 1.3487 2.9863 2.0898 1.7996 0.90628 2.0079 0.89081 2.388-0.17985 0.08407-0.237 0.8853-0.86045 1.7807-1.3852 0.53338-0.31259 0.75623-0.40208 1.029-0.52486zm-25.913 1.9529-1.1791 0.79544c-1.6297 1.1003-0.75761 0.80507-1.8263 2.2064-0.94456 1.238-0.25522 0.53525-1.442 2.2936-0.53288 0.78983-0.74037 1.3482-0.62996 1.6963 0.11629 0.36621 0.04719 0.51912-0.23512 0.51912-0.54596 0-1.0386 1.1341-1.7717 1.8732-0.67059 0.67746-0.09286 0.41578-1.2149 2.078-3.4176 5.0643-2.6506 13.907-1.3382 16.734 2.2185 4.7786 8.3634 10.91 8.7601 10.91 1.1571 0.47221 3.8129 1.6991 6.1731 2.2952 1.0222 0.80355 1.3 0.53746 3.182 1.4925 0.66405 0.33693 1.3671 0.61366 1.5624 0.61366 1.0738 0.0034 4.0468 1.5026 5.2879 2.6665 1.9485 1.8274 2.7735 1.8446 2.7735 2.4805 0 0.25924 0.2458 0.69339 0.54626 0.96474 0.65424 0.59094 1.4945 2.217 2.3294 4.5075 0.9758 2.6758 0.57887 9.2943 0.25044 9.6899-0.48479 2.6062-0.82624 2.4766-1.72 4.2301-1.7388 2.7522-4.2619 5.1173-6.6986 5.939-1.1297 0.36245-1.0864 0.76758 0.14503 1.3628 0.60566 0.29261 1.167 0.52179 1.2468 0.50952 2.6518-0.42525 9.1987-8.0524 10.288-10.158 0.50785-0.98168 1.3753-4.421 1.3797-5.4691 0.0041-1.0676-1.037-4.8026-1.4775-5.3006-0.8739-0.98823-3.9686-6.4747-4.7278-7.2331-0.16356-0.16356-3.3124-3.9959-5.9642-5.3482-2.7746-1.4153-6.6628-4.7416-9.2025-5.194-1.1245-0.20052-3.4874-1.3655-3.4874-1.7197 0-0.12234-0.43679-0.42172-0.97113-0.66542-1.7813-0.81273-4.5082-3.3049-5.0308-4.5981-0.17272-0.42738-0.38513-0.83546-0.47215-0.90661-0.29686-0.2424-3.1819-5.7197-2.3448-10.92 1.1078-6.8785 3.5831-9.491 4.7697-11.272 1.3917-2.0893 1.8786-2.6335 3.6143-4.0434 0.66634-0.54122 1.2114-1.1241 1.2114-1.295 0-0.38829-1.4383-1.4587-1.7857-1.7359zm5.2617 3.4472c-0.56853-0.18907-5.8098 5.3778-5.8098 6.1703 0 0.30046 2.115 1.5472 2.331 1.7877 0.07131 0.07949 0.52086 0.41752 0.99861 0.75167 1.0298 0.71966 1.9122 0.83224 3.1351 0.39995 0.58636-0.20723 1.1687-0.23904 1.6819-0.092 0.43147 0.12382 1.256 0.22553 1.8314 0.22553 0.88616 0 1.1162-0.11811 1.5011-0.76987 0.66585-1.1271 3.5417-2.9779 3.5417-3.5021 0-0.47138-1.6768-2.0716-2.9783-2.8422-1.0548-0.62447-4.2772-1.7738-4.4603-1.5909-0.05528 0.055447-0.0792 1.1918-0.05303 2.5254 0.0718 3.6629 0.35692 5.941 0.01524 6.3525-0.94685 1.1412-1.1843-2.8351-1.4154-8.3095-0.02372-0.55806-0.16766-1.0557-0.31945-1.1063zm10.207 6.123c-1.4547 1.0388-5.6592 4.0985-4.0833 5.0726 0.75842 0.46843-0.8772 2.185 1.7465 2.1963 1.4393 0.0062 3.8502 0.39836 5.0046 0.66382 0.66814 0.15358 0.67813 0.13642 0.49004-0.83888-0.24174-1.2543-1.9733-5.4223-2.6488-6.3754zm-16.251 1.2823c-0.43818-0.1376-0.70309 0.04827-1.0107 0.48971-0.49542 0.71083-2.309 3.7851-2.5087 5.621h5.8446l0.26897-1.0357c0.14786-0.56984 0.41788-1.336 0.60025-1.7023 0.31649-0.63592 0.26477-0.72295-1.1433-1.9215-1.0016-0.85264-1.613-1.3137-2.0512-1.4513zm-0.83857 7.1647c-2.8477 0.25074-2.747 0.18803-2.7664 1.7275-0.04334 3.4801 1.3844 6.4123 1.7684 6.4123 0.32401 0 5.1775-5.1137 5.1803-5.4581 4.91e-4 -0.08211-0.29019-0.4231-0.64626-0.75741-0.35623-0.33464-0.64753-0.86695-0.64753-1.1826-1e-6 -0.73929-0.74439-0.93052-2.8885-0.74178zm16.048 0.184c-2.5779-0.25471-2.4984 0.45162-2.984 1.6685l-0.64305 1.6113c0.48037 0.61858 0.82622 1.1424 3.043 3.4047 1.0594 1.081 1.9262 2.1008 1.9262 2.2663 0 0.79521-1.1017 0.08817-3.2303-2.073-2.4094-2.4462-2.7231-2.6055-4.3309-2.202-0.60599 0.15195-0.70882 0.33647-0.85389 1.5324-0.1966 1.6202-0.27476 4.533-0.19168 7.1215 0.05692 1.765 0.09562 1.876 0.64338 1.8521 1.3996-0.06101 6.5638-3.9284 8.5035-6.2149 2.3145-2.7285 3.0501-4.6556 2.691-7.0501-0.15669-1.0435-0.25707-1.178-0.9903-1.3254-1.5692-0.31521-2.7239-0.50671-3.5833-0.59163zm-10.71 3.8979c-0.43778-0.12797-1.0406 0.17951-2.5716 1.9215-0.97007 1.1039-2.0975 2.2223-2.5051 2.4856-0.40792 0.26317-0.74145 0.5849-0.74145 0.71494 0 0.54612 6.5144 6.7054 7.6071 6.7056 0.3088 0 0.50039-2.0169 0.54243-5.7125 0.02519-2.2162 0.13466-4.1732 0.24343-4.3494 0.27396-0.44323-0.31012-1.0746-0.99413-1.0746-0.87014 0-1.1429-0.56333-1.5807-0.69128zm-3.4292 24.966c-2.9972 2.8711-3.3777 5.4946-3.6976 9.7602-0.11662 1.5554-0.14954 3.1871-0.07315 3.6258 0.2455 1.4089 1.4364 4.4033 2.0167 5.0713 0.30945 0.35607 0.89251 1.1719 1.296 1.8129 0.7756 1.2324 1.6627 2.1356 4.1062 4.1807 2.4393 2.0415 2.6467 1.8322 2.86-2.8862 0.08701-1.9228 0.20504-3.9068 0.26196-4.4087 0.10173-0.89434 0.08549-0.91253-0.836-0.91842-0.57262-0.0038-1.3725-0.28235-2.0468-0.71333l-1.1069-0.70728-1.6608 1.7359c-1.3718 1.4339-2.4765 3.1367-2.789 2.8775-0.44079-0.36588 0.47805-2.7862 0.9828-2.7862 0.18989 0 0.64267-0.39022 1.0063-0.86667 0.58472-0.7666 0.62777-0.96219 0.37344-1.6915-0.158-0.45371-0.2299-1.0441-0.15972-1.3123 0.14442-0.55316-0.56955-0.86801-1.1436-0.50442-0.60959 0.38633-4.7167 0.53528-4.7167 0.10168 0-0.33677 3.149-0.77573 3.7759-0.68021-0.19557-0.30599 0.5641-0.18136 1.0232-0.43798 0.56706-0.31649 0.9081-0.75267 1.0622-1.3577 0.12512-0.49002 0.33474-1.0015 0.46608-1.1369 0.51227-0.52797 0.18531-1.1734-1.0564-2.0847-0.772-0.56657-3.8526-2.8989-3.8526-3.1946-2e-6 -0.64001 2.8747 1.1189 3.4719 1.7785 0.26186 0.2895 0.87118 0.77054 1.3538 1.0689l0.87753 0.54212 1.3446-0.6798c0.73945-0.37422 1.6634-0.68042 2.0532-0.68042 0.3896 0 0.70823-0.04596 0.70823-0.10222 0-0.05626-0.24953-0.90113-0.55489-1.8777-0.3052-0.97645-0.62553-2.7568-0.71206-3.9563l-0.15717-2.1816c-2.0592 0.80702-2.5124 0.24557-4.4766 2.6099zm6.2225-2.0746c-0.68728 0.24518-0.24444 5.1582 0.53508 5.938 0.48675 0.48544-0.36683 1.127 1.0686 1.127 0.52745 0.63692 2.5589 0.83703 1.5976 0.76804-0.77748-0.08796 0.75859 0.50308 1.7221-0.3735 2.4433-1.6302 3.2993-2.3026 3.2993-2.5908 0-0.49869-2.4151-2.6325-3.7552-3.3175-1.7251-0.88175-4.0656-1.6945-4.4675-1.5513zm8.9887 6.0618c-0.65914 0.38911-4.2187 2.4269-4.3397 2.7907-0.14312 0.42885 1.1207 1.4644 1.3717 2.6086 0.09486 0.43065 0.25013 0.7906 0.34565 0.7999 1.4926 0.14426 2.8927 0.13685 3.4105-0.01788 0.35623-0.10648 0.89722-0.14033 1.2021-0.0754 0.3052 0.0651 0.62568 0.0028 0.71269-0.138 0.18678-0.30193-1.428-4.1778-2.1809-5.2352zm-0.04089 7.3571c-2.8752 0.04089-2.8999 0.04665-3.1223 0.71397-0.12349 0.37014-0.56632 0.82432-0.98455 1.0095-0.86572 0.38338-0.98931 0.87908-0.27504 1.1059 0.67861 0.21524 5.2125 5.1148 5.2125 5.633 0 0.44276 0.41485 0.15749 0.93056-0.64019 0.69578-1.0767 0.97578-2.2949 1.2612-5.492 0.21868-2.4473 0.30921-2.3775-3.0224-2.3301zm-5.5731 4.0941c-0.51276 0.08309-1.0489 0.26786-1.1919 0.41081-0.26202 0.26202-1.149 9.6224-0.57822 9.58 0.44586-0.0332 1.7188-0.51102 3.4053-1.2784 1.5003-0.6827 4.2506-2.9015 4.2506-3.4297 0-0.44521-2.5453-3.4601-3.7648-4.4593-1.0303-0.84429-1.314-0.95457-2.1212-0.82356z" fill="{{ border_color }}" stroke-width=".16356"/>
</svg>
