<?xml version="1.0" encoding="UTF-8"?>
<svg width="400" height="288.66" enable-background="new 0 0 2471 3210" version="1.1" viewBox="0 0 400 288.66" xmlns="http://www.w3.org/2000/svg">
 <path d="m0 4.5904e-4c0.25423 93.668-0.0019661 164.4 0.040084 288.66h2.8234c-0.22972-126.93 0.18238-176.11-0.060174-288.66zm5.6198-0.049679c0.19048 78.983-0.092809 180.52-6.287e-4 288.71h2.5977c-0.0603-30.711-0.11828-33.393-0.18555-71.59-0.17752-100.65 0.33574-138.61 0.18006-217.06zm6.4791 0.049679c0.183 75.873-0.20918 118.7 0.004617 253.93 0.0302 19.101-0.015 16.479 0.01 34.729h2.6347c-0.20278-91.222-0.31508-97.956-0.53119-231.65l0.48171-57.008zm12.689 0c0.17569 17.514 0.46089 47.11 0.82347 47.787 0.558 1.042 0.63297 1.8926 0.16797 1.8926s-0.86658 94.288-0.89258 209.53c-4e-3 16.156-0.0713 14.313-0.084 29.453h6.1308l-0.0449-73.559c-0.0514-82.877 0.15995-141.66 0.034206-215.1zm13.129-0.024979c0.10389 51.835-0.007663 53.145 0.092697 115.45 0.15348 95.295-0.0662 108.52-0.0918 173.23h3.2871c-0.0789-24.134-0.20372-23.845-0.25391-51.979-0.1263-71.196 0.41712-156.52 0.27072-236.66zm7.1163 0.0044748c0.25552 82.881-0.2228 173.93-6e-3 258.45 0.0425 16.626-0.027 14.685 4e-3 30.229h2.4004c-0.32848-149.85 0.2918-212.92 0.006381-288.66zm9.4091 0.020504c0.15141 86.254-0.003455 178.11 0.028195 288.66h2.9551l-0.16601-140.64 0.20242-148.06zm12.837 0c0.0556 50.728-0.15973 70.68-1.377 70.68-1.64 0-1.6414 0.0719-0.0254 1.2539 1.598 1.169 1.7072 7.2821 1.6172 90.25 0.1176 41.468-0.16353 86.05-0.16513 126.47h16.34c-1.1636-1.8944-3.8191-5.9632-9.5304-10.326-2.05-1.566-3.5111-3.065-3.2441-3.332 0.75921-0.75921 13.876 10.909 15.948 13.658h4.6375c-0.80978-0.94152-3.6601-4.1641-9.4122-8.4844-6.315-4.743-11.762-9.075-12.102-9.625-1.475-2.386 0.78441-1.8128 5.0664 1.2852 12.242 8.8567 20.21 15.614 20.964 16.824h6.2645c1.115-1.8004 6.2372-4.8018 15.287-12.119 12.422-10.043 13-10.425 13-8.5684 0 0.774-5.287 5.8161-11.75 11.203-5.8929 4.9117-11.361 8.5075-12.291 9.4844h1.958l9.6693-6.4785c4.673-3.85 9.174-7.6162 10.002-8.3692 0.829-0.75299 1.7376-1.1384 2.0176-0.85742 0.28 0.28-3.3418 3.7879-8.0488 7.7949-4.706 4.008-8.8323 7.6655-8.8323 7.9805 6.0546 0.1068 13.78-0.0703 20.271-0.0703 2e-3 -2.7564-0.0496-20.859-0.0517-20.982-0.43803-26.058-0.26655-184.43 0.0464-267.68h-20.291c0.17958 0.43402 0.06813 0.70952 0.46292 1.3692 0.926 1.546 2.4991 3.2606 3.4961 3.8106 2.88 1.59 13.438 10.715 12.955 11.197-0.24 0.241-3.6758-1.8723-7.6348-4.6973-3.958-2.825-7.4536-4.8804-7.7656-4.5684-0.312 0.313-0.37939 0.70504-0.15039 0.87304s3.6344 2.6535 7.5684 5.5215c6.062 4.422 8.3477 6.8052 8.3477 8.6992 0 0.198-5.4854 4.4911-12.191 9.5391-12.163 9.155-12.198 9.1726-13.912 7.0566-2.125-2.624-4.505-2.7223-5.834-0.23828-1.677 3.134-3.5398 3.0804-7.8418-0.22657-2.258-1.736-7.7197-5.843-12.139-9.127l-8.0332-5.9688 2.6934-2.8144c2.443-2.55 10.283-7.7461 11.686-7.7461 0.315 0 0.57227 0.60851 0.57227 1.3535 0 1.329 10.639 11.146 12.08 11.146 0.404 0 2.9132-1.9918 5.5762-4.4258 10.143-9.267 8.8116-8.5904 12.184-6.1894 1.633 1.163 3.3077 2.1152 3.7207 2.1152 1.246 0-2.8266-4.1024-6.5605-6.6094-1.925-1.292-5.0256-3.5914-6.8926-5.1094-3.584-2.0507-2.4162-1.6866-4.6372-1.8887-0.26344-1.1624-0.0133-1.616 1.2096-3.0723h-6.8835c1.9671 0-0.26536 0.47105-0.27874 0.48437-0.282 0.283-1.5807 1.2305-2.8867 2.1055-1.306 0.875-6.7041 4.8528-11.996 8.8398-5.293 3.988-9.8376 7.25-10.102 7.25-1.647 0 1.9281-3.563 11.039-11l10.257-7.6797h-4.496c-0.92364 1.0983-2.9706 2.4719-5.5933 4.707-3.437 2.93-7.262 6.2272-8.5 7.3262-1.237 1.098-2.25 1.5214-2.25 0.94336 0-0.579 2.925-3.6198 6.5-6.7578 3.1714-2.7846 6.0311-5.123 6.5913-6.2187zm41.121 0c-0.43905 0.0067993-1.8626-0.13637-1.9387 0.044752 0 0 3.1792 4.0263 3.6583 4.247 1.7711 2.8793 3.0648 0.91835 3.1978 0.93996zm34.961 0c0.16564 160.62-0.22421 195 0.01355 288.66h2.0684c-0.0111-16.691-0.041-59.684-0.041-59.979 0.0792-16.957 0.034-135.56 0-228.68zm9.4294 0c0.17391 116.22-0.33417 170.23 0.03727 288.66h2.0059c-0.0154-14.511-0.0807-11.279-0.0918-26.479-0.0858-118.26 0.17093-184.21 0.11154-262.18zm6.9753 0c0.24548 65.513-0.10528 32.514 0.03656 283.68l-0.0237 4.9785h2.6846c-0.0166-92.418-7e-3 -128.99-0.0927-231.48-0.0256-30.821 0.10203-28.915 0.10157-57.18zm10.002 0c0.4885 17.982-0.55701 65.414-0.3953 180.37 0.0838 59.328 0.24104 69.892 0.39011 108.29h5.7058c-5e-3 -11.053-0.058-47.375-0.061-47.979-4e-3 -0.825 0.0273-71.7 0.0703-157.5 0.0138-28.22-0.0121-52.05-0.01-83.18zm17.593 0c-0.0178 58.439-8e-3 127.86-0.0273 133.18-4e-3 1.1 0.0416 19.775 0.10156 41.5 0.0813 29.463-0.0637 73.164-0.062 113.98h2.9678c-0.0286-67.809-0.0212-77.043-0.0152-164.44l8e-3 -124.22zm6.9102 0c0.18311 142.37 0.1011 197.85 0.0072 288.66h2.6708c0.0772-60.743 0.49993-25.683 0.39618-164.94l-0.39838-123.72zm-64.027 26.053c0.1011 0.1558-0.0766 0.56963-0.51758 1.2344-0.383 0.577-5.4203 4.7893-11.195 9.3613-5.775 4.571-10.603 8.8109-10.73 9.4219-0.126 0.61 4.936 5.0616 11.25 9.8906 6.314 4.83 11.48 9.443 11.48 10.25 0 0.808-0.112 1.4451-0.25 1.4141-0.137-0.031-5.875-4.3022-12.75-9.4902-6.875-5.189-13.062-9.4403-13.75-9.4453-2.671-0.021-0.98971-2.6828 4.1133-6.5098 2.935-2.2 9.0356-6.8547 13.557-10.346 5.685-4.3905 8.4897-6.2486 8.793-5.7812zm-60.553 0.13477c0.647-0.647 3.5945 1.3057 16.439 10.889 9.405 7.017 11.934 9.4974 10.768 10.564-0.477 0.436-6.3583 4.898-13.07 9.916-6.712 5.018-12.45 9.123-12.75 9.123-2.294 0 3.0374-4.9109 20.316-18.713l2.3633-1.8887-8.3633-6.1816c-10.788-7.975-16.473-12.939-15.703-13.709zm60.824 4.1445c0.284 0.285-0.9654 1.7156-2.7754 3.1816-1.81 1.466-5.3977 4.5373-7.9707 6.8223-4.485 3.982-4.62 4.2602-3.293 6.7402 0.761 1.423 3.6775 4.1667 6.4805 6.0977 2.802 1.93 5.6843 4.4505 6.4043 5.6035 0.72 1.154 1.1643 2.242 0.98828 2.418-0.666 0.666-19.768-14.062-19.477-15.016 0.447-1.462 19.034-16.458 19.643-15.848zm-59.879 1.6562c1.836 0.592 17.464 12.186 18.342 13.607 0.319 0.516-3.281 4.2347-8.002 8.2617-13.899 11.858-13.293 9.7686 0.80469-2.7773 2.063-1.835 3.75-3.9502 3.75-4.6992s-1.912-2.7806-4.25-4.5156c-6.126-4.549-12.522-10.483-10.645-9.877zm42.488 26.83c0.74995-0.50091 3.8316 1.3557 9.3418 5.6172 7.137 5.521 9.491 8.2441 7.125 8.2442-1.206 0-20.156 14.217-22.146 16.615-1.041 1.255-1.6289 1.0668-4.1289-1.3262l-2.9141-2.7891-5.3633 6.4258-3-2.1348c-8.22-5.85-21.48-15.951-21.961-16.73-0.46-0.744 9.2138-9.1271 13.219-11.455 0.778-0.453 4.3881 1.7702 9.4551 5.8242l8.1973 6.5586 4.0449-3.8984c2.225-2.144 5.093-4.8753 6.373-6.0703s2.0812-2.8137 1.7812-3.5957c-0.2645-0.6895-0.27342-1.1182-0.0234-1.2852zm15.707 16.072c1.6109-1.043 1.709-0.66797 1.709 0.20703 0 0.855-2.3934 3.4724-5.3184 5.8184-2.925 2.345-8.325 6.6685-12 9.6055-3.675 2.938-6.6816 5.5069-6.6816 5.7109s3.713 3.1613 8.25 6.5703c13.077 9.824 15.75 12.123 15.75 13.545 0 1.418-1.607 1.8462-2.166 0.57618-0.184-0.417-3.6207-3.1787-7.6387-6.1367-6.599-4.858-7.3547-4.6726-7.9672-5.2115-0.36715-0.33197-0.79905-0.83624-0.38867-0.89063-0.91774-0.14645-0.70987-0.30662-2.7789-1.9096-1.341-1.038-2.4884-1.2353-3.5077-1.6766-1.0162-1.793-1.366-1.6255-2.5274-2.8918l-1.9941-2.123 4.7344-3.6738c2.604-2.022 7.8844-6.1717 11.734-9.2207 6.0565-4.796 9.1801-7.2558 10.791-8.2988zm-59.158 1.3242c0.669-0.669 27.867 19.198 27.867 20.355 0 0.374-1.3557 1.48-3.0137 2.459-1.658 0.98-5.0245 3.4398-7.4805 5.4668-2.455 2.027-7.1297 5.8216-10.389 8.4336-3.259 2.613-6.1935 4.75-6.5215 4.75-1.775 0 0.0235-2.1866 5.0195-6.0996 12.079-9.464 17.383-14.121 17.352-15.236-0.017-0.64-3.9132-4.0891-8.6582-7.6641-11.402-8.59-14.94-11.701-14.176-12.465zm59.824 4.7305c1.5306-0.72062 1.0095 0.27013-2.457 3.3906-14.264 12.84-14.059 12.386-7.5703 16.68 2.079 1.376 5.5167 4.0931 7.6387 6.0371 2.122 1.944 3.6467 3.744 3.3887 4.002-0.779 0.77999-19.957-13.477-19.957-14.836 0-0.693 4.0946-4.4744 9.0996-8.4004 4.744-3.722 8.3268-6.1524 9.8574-6.873zm-59.6 1.0449c0.669-0.668 17.889 11.662 19.16 13.719 0.704 1.138-0.89661 2.7875-9.5996 9.8945-2.98 2.433-6.205 5.0912-7.168 5.9062-1.291 1.093-1.75 1.1498-1.75 0.21875 0-0.694 1.238-2.2187 2.75-3.3887 5.401-4.179 12.25-10.954 12.25-12.115 0-0.65-3.6124-4.0269-8.0274-7.5039-4.414-3.477-7.8402-6.5055-7.6152-6.7305zm44.08 27.193c1.5654 0.69463 4.1752 2.3391 7.9688 4.9961 7.905 5.537 9.9294 7.5 7.7344 7.5-0.47 0-3.732 2.2519-7.25 5.0039-3.517 2.752-8.7936 6.8846-11.725 9.1816-2.931 2.297-5.631 3.7561-6 3.2441-0.369-0.511-1.474-1.561-2.457-2.332-1.581-1.242-2.111-1.0897-4.627 1.3203l-2.8438 2.7246-10.371-8.25c-13.591-10.811-12.871-10.3-12.871-9.1758 0 0.893 3.169 3.5702 18.084 15.283 7.607 5.973 8.7086 7.7569 5.9766 9.6699-1.148 0.804-7.1432 5.4778-13.324 10.385-11.025 8.754-13.641 10.386-12.027 7.502 0.876-1.565 17.281-15.847 21.008-18.289 1.256-0.823 2.2832-2.0334 2.2832-2.6894s-2.9412-3.3512-6.5352-5.9902c-10.569-7.76-17.466-14.494-17.127-16.719 0.305-2 13.808-12.869 15.988-12.869 0.658 0 2.9896 1.5684 5.1836 3.4824 2.194 1.914 4.4763 3.489 5.0703 3.5 0.595 0.011 1.6886 1.153 2.4316 2.541 0.742 1.388 1.6781 2.4 2.0781 2.25 1.473-0.553 11.874-10.882 11.646-11.566-0.381-1.1425 0.1397-1.3978 1.7051-0.70313zm15.863 14.275c0.58437-0.1815 0.69726 0.22678 0.69726 1.1133 0 1.321-3.8218 5.1009-11.424 11.297-6.283 5.122-11.315 9.7425-11.182 10.27 0.134 0.527 5.047 4.577 10.918 9 6.33 4.769 10.932 8.9759 11.303 10.338 0.345 1.263 0.45886 2.4336 0.25586 2.5996-0.401 0.326-11.673-8.1966-18.76-14.186-2.415-2.041-5.452-4.3774-6.75-5.1914-1.298-0.815-2.3613-1.9429-2.3613-2.5059s3.8772-4.1706 8.6172-8.0176c4.74-3.847 9.1394-7.4461 9.7754-7.9961 0.636-0.55 3.0569-2.4839 5.3809-4.2969 1.8875-1.4725 2.9449-2.2423 3.5293-2.4238zm-59.949 5.5332c0.312-0.313 2.2715 0.85479 4.3555 2.5918 2.084 1.738 6.5916 5.282 10.018 7.877 5.493 4.161 7.7875 7.1712 5.5215 7.2442-0.412 0.014-4.35 3.1877-8.75 7.0547-11.969 10.52-16.279 12.292-5.1914 2.1348 8.719-7.986 10.691-10.023 10.691-11.041 0-0.539-2.7722-3.1621-6.1602-5.8281-8.041-6.327-11.184-9.3342-10.484-10.033zm60.387 1.0976c0.239 0.24-1.503 2.1567-3.873 4.2617-5.39 4.788-10.855 10.599-10.865 11.547-2e-3 0.395 3.3711 3.5355 7.4961 6.9785 4.125 3.442 7.5 6.8312 7.5 7.5312s-0.112 1.2687-0.25 1.2637c-1.1-0.043-19.783-15.388-19.551-16.059 0.439-1.27 19.029-16.036 19.543-15.523zm-19.121 25.594 9.4434 7.541c5.194 4.147 9.4434 8.2739 9.4434 9.1699s-5.175 5.8232-11.5 10.949c-6.325 5.125-11.591 9.8861-11.703 10.578-0.113 0.693 4.9481 5.0638 11.246 9.7148 11.324 8.359 13.978 11.45 11.314 13.168-1.137 0.73399-1.1309 1.0224 0.0391 1.7754 2.375 1.53 0.62391 3.6056-11.08 13.141-6.224 5.071-11.429 9.5065-11.57 9.8555-0.14 0.35 5.147 4.6146 11.75 9.4766 6.603 4.863 12.004 9.2168 12.004 9.6758 0 2.09-2.3991 1.9527-4.8301-0.27734-4.125-3.784-9.1699-7.0199-9.1699-5.8809 0 0.564 2.4542 2.7324 5.4512 4.8184 2.998 2.086 5.6647 4.3075 5.9277 4.9375s-2.0762 3.1477-5.1992 5.5957-8.2753 6.6062-11.447 9.2422c-5.414 4.497-5.8801 4.6913-7.5781 3.1543-2.434-2.202-4.8707-2.0647-6.3867 0.36133-0.687 1.1-1.4778 1.9754-1.7578 1.9434-1.269-0.145-23.51-17.835-23.51-18.699 0-1.201 11.903-11.244 13.326-11.244 0.568 0 1.6265 0.56871 2.3535 1.2617 4.046 3.863 12.668 10.738 13.463 10.738 7.7996-7.44 7.5129-7.6749 13.859-13.002 0.291-0.47-2.6008-3.4292-6.4258-6.5762l-6.9531-5.7188 7.3027-5.6445c4.017-3.104 8.0405-6.3006 8.9375-7.1016 0.898-0.8 3.6312-3.032 6.0742-4.957 4.25-3.348 5.4917-5 3.7617-5-0.441 0-5.504 3.788-11.25 8.418-10.392 8.372-10.459 8.408-12.512 6.5-2.663-2.473-3.3047-2.4189-6.3887 0.53711l-2.5606 2.4531-11.758-9.0254c-6.467-4.965-11.479-9.4811-11.135-10.037 1.327-2.146 12.724-9.8457 14.574-9.8457 1.072 0 1.6948 0.4111 1.3848 0.9121-0.31 0.502 1.3514 2.4027 3.6914 4.2227 2.34 1.82 4.9821 4.1099 5.8711 5.0879 0.89 0.978 1.8726 1.7774 2.1836 1.7774 0.777 0 13.126-12.236 13.126-12.992-4.874-5.3305-4.6342-5.6624-8.3934-9.1209-3.72-3.106-3.6696-3.2272 3.4824-8.4512 7.561-5.524 20.57-16.683 20.051-17.201-0.284-0.285-1.09-0.0619-1.791 0.49609-13.579 10.799-21.272 16.281-21.574 15.375-0.20599-0.62-1.2807-1.6121-2.3887-2.2051-1.663-0.89-2.5053-0.61058-4.8203 1.6074l-2.8027 2.6875-10.732-8.1816c-5.902-4.5-11.345-8.4161-12.094-8.7031-2.326-0.893-1.5974-1.7968 6.2266-7.7148 7.473-5.652 7.6238-5.713 9.7188-3.918 1.171 1.003 2.69 2.2723 3.375 2.8223 0.686 0.54999 1.9192 1.563 2.7402 2.25 0.821 0.68799 1.796 1.25 2.168 1.25 0.371 0 1.533 0.99117 2.582 2.2012l1.9082 2.1992 6.1348-6.1367c5.261-5.261 5.9499-6.3572 4.8359-7.6992-0.0747-1.7808-0.18681-1.6897-0.4395-2.5606zm-41.037 18.494c0.92988 0.25813 3.6352 1.9862 7.5742 5.0312 4.038 3.122 10.161 7.7682 13.607 10.324l6.2656 4.6465-3.5977 3.1758c-6.376 5.63-23.434 18.329-23.434 17.445 0-0.758 14.277-13.518 20.686-18.488 2.285-1.772 2.322-1.966 0.70703-3.75-0.936-1.035-2.0895-1.8828-2.5625-1.8828-0.901 0-9.6259-6.8618-16.17-12.719-3.1615-2.8295-4.006-4.0413-3.0762-3.7832zm60.256 3.0078c0.362 0.363-0.91584 2.0301-2.8398 3.7051-1.925 1.674-5.412 4.7262-7.75 6.7812-2.403 2.113-4.25 4.6271-4.25 5.7871 0 1.321 2.2576 3.8446 6.3496 7.1016 3.493 2.779 6.923 5.7419 7.623 6.5859 0.7 0.843 0.88039 1.5257 0.40039 1.5137-0.832-0.02-12.798-8.0236-18.961-12.682l-2.9121-2.1992 2.2695-1.6191c1.248-0.891 6.1278-4.774 10.842-8.627 4.714-3.853 8.8665-6.7097 9.2285-6.3477zm-59.629 2.4102c-0.8235-1.1866 0.15856-0.79992 3.5391 2.0176 2.063 1.719 6.338 4.9278 9.5 7.1328 3.163 2.205 5.75 4.568 5.75 5.25s-1.012 2.0833-2.25 3.1133c-1.237 1.031-4.95 4.2-8.25 7.043-9.192 7.92-9.9271 7.5327-1.2441-0.65625 4.265-4.024 7.75-7.849 7.75-8.502-4e-3 -0.652-3.3809-4.2425-7.5059-7.9785-3.8365-3.475-6.4656-6.2333-7.2891-7.4199zm-0.73438 41.281c0.567-0.567 1.0425-0.23177 15.939 11.199 6.375 4.891 11.59 9.2249 11.59 9.6289 0 0.66399-8.0886 7.1716-13.641 10.975-1.205 0.82499-4.9294 3.6342-8.2754 6.2422-10.654 8.303-6.5384 3.2367 6.0156-7.4062l12.098-10.258-2.3477-1.7969c-7.315-5.6-21.785-18.178-21.379-18.584zm60.094 3.8027c1.587 0-0.57046 2.3724-7.5644 8.3164-4.4 3.74-7.9782 7.5612-7.9512 8.4922 0.027 0.93 2.5685 3.7164 5.6465 6.1914 3.079 2.475 6.7682 5.4978 8.2012 6.7187 1.432 1.22 2.1535 2.2282 1.6035 2.2402-1.735 0.038-19.928-14.411-19.465-15.459 0.46-1.039 18.758-16.5 19.529-16.5zm-59.564 1.9062c0-0.94199 8.816 5.5482 15.5 11.41l4 3.5078-3 2.8984c-1.65 1.594-5.8338 5.2358-9.3008 8.0898-3.466 2.854-6.616 5.1781-7 5.1641-0.661-0.024 1.9736-2.5826 11.6-11.266 2.311-2.085 4.1851-4.335 4.1641-5s-2.1068-2.7859-4.6348-4.7109c-7.357-5.602-11.328-9.1388-11.328-10.094z" fill="{{ border_color }}"/>
 <path d="m400 0.049679c-0.25423 93.668 2e-3 164.4-0.0401 288.66h-2.8234c0.22972-126.93-0.18237-176.11 0.0602-288.66zm-5.6198-0.049679c-0.19048 78.983 0.0928 180.52 6.3e-4 288.71h-2.5977c0.0603-30.711 0.11828-33.393 0.18555-71.59 0.17752-100.65-0.33574-138.61-0.18006-217.06zm-6.4791 0.049679c-0.183 75.873 0.20918 118.7-5e-3 253.93-0.0302 19.101 0.015 16.479-0.01 34.729h-2.6347c0.20276-91.222 0.31506-97.956 0.53117-231.65l-0.48171-57.008zm-12.689 0c-0.17569 17.514-0.46089 47.11-0.82347 47.787-0.558 1.042-0.63297 1.8926-0.16797 1.8926s0.86658 94.288 0.89258 209.53c4e-3 16.156 0.0713 14.313 0.084 29.453h-6.1308l0.0449-73.559c0.0514-82.877-0.15995-141.66-0.0342-215.1zm-13.129-0.024979c-0.10389 51.835 8e-3 53.145-0.0927 115.45-0.15348 95.295 0.0662 108.52 0.0918 173.23h-3.2871c0.0789-24.134 0.20372-23.845 0.25391-51.979 0.1263-71.196-0.41712-156.52-0.27072-236.66zm-7.1163 0.00447c-0.25552 82.881 0.2228 173.93 6e-3 258.45-0.0425 16.626 0.027 14.685-4e-3 30.229h-2.4004c0.32847-149.85-0.29181-212.92-6e-3 -288.66zm-9.4091 0.020504c-0.15141 86.254 3e-3 178.11-0.0282 288.66h-2.9551l0.16601-140.64-0.20242-148.06zm-12.837 0c-0.0556 50.728 0.15973 70.68 1.377 70.68 1.64 0 1.6414 0.0719 0.0254 1.2539-1.598 1.169-1.7072 7.2821-1.6172 90.25-0.1176 41.468 0.16353 86.05 0.16513 126.47h-16.34c1.1636-1.8944 3.8191-5.9632 9.5304-10.326 2.05-1.566 3.5111-3.065 3.2441-3.332-0.75921-0.75921-13.876 10.909-15.948 13.658h-4.6375c0.80978-0.94152 3.6601-4.1641 9.4122-8.4844 6.315-4.743 11.762-9.075 12.102-9.625 1.475-2.386-0.78441-1.8128-5.0664 1.2852-12.242 8.8567-20.21 15.614-20.964 16.824h-6.2645c-1.115-1.8004-6.2372-4.8018-15.287-12.119-12.422-10.043-13-10.425-13-8.5684 0 0.774 5.287 5.8161 11.75 11.203 5.8929 4.9117 11.361 8.5075 12.291 9.4844h-1.958l-9.6693-6.4785c-4.673-3.85-9.174-7.6162-10.002-8.3692-0.829-0.75299-1.7376-1.1384-2.0176-0.85742-0.28 0.28 3.3418 3.7879 8.0488 7.7949 4.706 4.008 8.8323 7.6655 8.8323 7.9805-6.0546 0.1068-13.78-0.0703-20.271-0.0703-2e-3 -2.7564 0.0496-20.859 0.0517-20.982 0.43803-26.058 0.26655-184.43-0.0464-267.68h20.291c-0.17958 0.43402-0.0681 0.70952-0.46292 1.3692-0.926 1.546-2.4991 3.2606-3.4961 3.8106-2.88 1.59-13.438 10.715-12.955 11.197 0.24 0.241 3.6758-1.8723 7.6348-4.6973 3.958-2.825 7.4536-4.8804 7.7656-4.5684 0.312 0.313 0.37939 0.70504 0.15039 0.87304s-3.6344 2.6535-7.5684 5.5215c-6.062 4.422-8.3477 6.8052-8.3477 8.6992 0 0.198 5.4854 4.4911 12.191 9.5391 12.163 9.155 12.198 9.1726 13.912 7.0566 2.125-2.624 4.505-2.7223 5.834-0.23828 1.677 3.134 3.5398 3.0804 7.8418-0.22657 2.258-1.736 7.7197-5.843 12.139-9.127l8.0332-5.9688-2.6934-2.8144c-2.443-2.55-10.283-7.7461-11.686-7.7461-0.315 0-0.57227 0.60851-0.57227 1.3535 0 1.329-10.639 11.146-12.08 11.146-0.404 0-2.9132-1.9918-5.5762-4.4258-10.143-9.267-8.8116-8.5904-12.184-6.1894-1.633 1.163-3.3077 2.1152-3.7207 2.1152-1.246 0 2.8266-4.1024 6.5605-6.6094 1.925-1.292 5.0256-3.5914 6.8926-5.1094 3.584-2.0507 2.4162-1.6866 4.6372-1.8887 0.26344-1.1624 0.0133-1.616-1.2096-3.0723h6.8835c-1.9671 0 0.26537 0.47105 0.27874 0.48437 0.282 0.283 1.5807 1.2305 2.8867 2.1055 1.306 0.875 6.7041 4.8528 11.996 8.8398 5.293 3.988 9.8376 7.25 10.102 7.25 1.647 0-1.9281-3.563-11.039-11l-10.257-7.6797h4.496c0.92364 1.0983 2.9706 2.4719 5.5933 4.707 3.437 2.93 7.262 6.2272 8.5 7.3262 1.237 1.098 2.25 1.5214 2.25 0.94336 0-0.579-2.925-3.6198-6.5-6.7578-3.1714-2.7846-6.0311-5.123-6.5913-6.2188zm-41.121 0c0.43905 0.0068 1.8626-0.13637 1.9387 0.044752 0 0-3.1792 4.0263-3.6583 4.247-1.7711 2.8793-3.0648 0.91835-3.1978 0.93996zm-34.961 0c-0.16564 160.62 0.22421 195-0.0136 288.66h-2.0684c0.0111-16.691 0.041-59.684 0.041-59.979-0.0792-16.957-0.034-135.56 0-228.68zm-9.4294 0c-0.17391 116.22 0.33417 170.23-0.0373 288.66h-2.0059c0.0154-14.511 0.0807-11.279 0.0918-26.479 0.0858-118.26-0.17093-184.21-0.11154-262.18zm-6.9753 0c-0.24548 65.513 0.10528 32.514-0.0366 283.68l0.0237 4.9785h-2.6846c0.0166-92.418 7e-3 -128.99 0.0927-231.48 0.0256-30.821-0.10203-28.915-0.10157-57.18zm-10.002 0c-0.4885 17.982 0.55701 65.414 0.3953 180.37-0.0838 59.328-0.24104 69.892-0.39011 108.29h-5.7058c5e-3 -11.053 0.058-47.375 0.061-47.979 4e-3 -0.82499-0.0273-71.7-0.0703-157.5-0.0138-28.22 0.0121-52.05 0.01-83.18zm-17.593 0c0.0178 58.439 8e-3 127.86 0.0273 133.18 4e-3 1.1-0.0416 19.775-0.10156 41.5-0.0813 29.463 0.0637 73.164 0.062 113.98h-2.9678c0.0286-67.809 0.0212-77.043 0.0152-164.44l-8e-3 -124.22zm-6.9102 0c-0.18311 142.37-0.1011 197.85-7e-3 288.66h-2.6708c-0.0772-60.743-0.49993-25.683-0.39618-164.94l0.39818-123.72zm64.027 26.053c-0.1011 0.1558 0.0766 0.56963 0.51758 1.2344 0.383 0.577 5.4203 4.7893 11.195 9.3613 5.775 4.571 10.603 8.8109 10.73 9.4219 0.126 0.61-4.936 5.0616-11.25 9.8906-6.314 4.83-11.48 9.443-11.48 10.25 0 0.808 0.112 1.4451 0.25 1.4141 0.137-0.031 5.875-4.3022 12.75-9.4902 6.875-5.189 13.062-9.4403 13.75-9.4453 2.671-0.021 0.98971-2.6828-4.1133-6.5098-2.935-2.2-9.0356-6.8547-13.557-10.346-5.685-4.3905-8.4897-6.2486-8.793-5.7812zm60.553 0.13477c-0.647-0.647-3.5945 1.3057-16.439 10.889-9.405 7.017-11.934 9.4974-10.768 10.564 0.477 0.436 6.3583 4.898 13.07 9.916 6.712 5.018 12.45 9.123 12.75 9.123 2.294 0-3.0374-4.9109-20.316-18.713l-2.3633-1.8887 8.3633-6.1816c10.788-7.975 16.473-12.939 15.703-13.709zm-60.824 4.1445c-0.284 0.285 0.9654 1.7156 2.7754 3.1816 1.81 1.466 5.3977 4.5373 7.9707 6.8223 4.485 3.982 4.62 4.2602 3.293 6.7402-0.761 1.423-3.6775 4.1667-6.4805 6.0977-2.802 1.93-5.6843 4.4505-6.4043 5.6035-0.72 1.154-1.1643 2.242-0.98828 2.418 0.666 0.666 19.768-14.062 19.477-15.016-0.447-1.462-19.034-16.458-19.643-15.848zm59.879 1.6562c-1.836 0.592-17.464 12.186-18.342 13.607-0.319 0.516 3.281 4.2347 8.002 8.2617 13.899 11.858 13.293 9.7686-0.80469-2.7773-2.063-1.835-3.75-3.9502-3.75-4.6992s1.912-2.7806 4.25-4.5156c6.126-4.549 12.522-10.483 10.645-9.877zm-42.488 26.83c-0.74995-0.50091-3.8316 1.3557-9.3418 5.6172-7.137 5.521-9.491 8.2441-7.125 8.2442 1.206 0 20.156 14.217 22.146 16.615 1.041 1.255 1.6289 1.0668 4.1289-1.3262l2.9141-2.7891 5.3633 6.4258 3-2.1348c8.22-5.85 21.48-15.951 21.961-16.73 0.46-0.744-9.2138-9.1271-13.219-11.455-0.778-0.453-4.3881 1.7702-9.4551 5.8242l-8.1973 6.5586-4.0449-3.8984c-2.225-2.144-5.093-4.8753-6.373-6.0703s-2.0812-2.8137-1.7812-3.5957c0.2645-0.6895 0.27342-1.1182 0.0234-1.2852zm-15.707 16.072c-1.6109-1.043-1.709-0.66797-1.709 0.20703 0 0.855 2.3934 3.4724 5.3184 5.8184 2.925 2.345 8.325 6.6685 12 9.6055 3.675 2.938 6.6816 5.5069 6.6816 5.7109s-3.713 3.1613-8.25 6.5703c-13.077 9.824-15.75 12.123-15.75 13.545 0 1.418 1.607 1.8462 2.166 0.57618 0.184-0.417 3.6207-3.1787 7.6387-6.1367 6.599-4.858 7.3547-4.6726 7.9672-5.2115 0.36715-0.33197 0.79905-0.83624 0.38867-0.89063 0.91774-0.14645 0.70987-0.30662 2.7789-1.9096 1.341-1.038 2.4884-1.2353 3.5077-1.6766 1.0162-1.793 1.366-1.6255 2.5274-2.8918l1.9941-2.123-4.7344-3.6738c-2.604-2.022-7.8844-6.1717-11.734-9.2207-6.0565-4.796-9.1801-7.2558-10.791-8.2988zm59.158 1.3242c-0.669-0.669-27.867 19.198-27.867 20.355 0 0.374 1.3557 1.48 3.0137 2.459 1.658 0.98 5.0245 3.4398 7.4805 5.4668 2.455 2.027 7.1297 5.8216 10.389 8.4336 3.259 2.613 6.1935 4.75 6.5215 4.75 1.775 0-0.0235-2.1866-5.0195-6.0996-12.079-9.464-17.383-14.121-17.352-15.236 0.017-0.64 3.9132-4.0891 8.6582-7.6641 11.402-8.59 14.94-11.701 14.176-12.465zm-59.824 4.7305c-1.5306-0.72062-1.0095 0.27013 2.457 3.3906 14.264 12.84 14.059 12.386 7.5703 16.68-2.079 1.376-5.5167 4.0931-7.6387 6.0371-2.122 1.944-3.6467 3.744-3.3887 4.002 0.779 0.77999 19.957-13.477 19.957-14.836 0-0.693-4.0946-4.4744-9.0996-8.4004-4.744-3.722-8.3268-6.1524-9.8574-6.873zm59.6 1.0449c-0.669-0.668-17.889 11.662-19.16 13.719-0.704 1.138 0.89661 2.7875 9.5996 9.8945 2.98 2.433 6.205 5.0912 7.168 5.9062 1.291 1.093 1.75 1.1498 1.75 0.21875 0-0.694-1.238-2.2187-2.75-3.3887-5.401-4.179-12.25-10.954-12.25-12.115 0-0.65 3.6124-4.0269 8.0274-7.5039 4.414-3.477 7.8402-6.5055 7.6152-6.7305zm-44.08 27.193c-1.5654 0.69463-4.1752 2.3391-7.9688 4.9961-7.905 5.537-9.9294 7.5-7.7344 7.5 0.47 0 3.732 2.2519 7.25 5.0039 3.517 2.752 8.7936 6.8846 11.725 9.1816 2.931 2.297 5.631 3.7561 6 3.2441 0.369-0.511 1.474-1.561 2.457-2.332 1.581-1.242 2.111-1.0897 4.627 1.3203l2.8438 2.7246 10.371-8.25c13.591-10.811 12.871-10.3 12.871-9.1758 0 0.893-3.169 3.5702-18.084 15.283-7.607 5.973-8.7086 7.7569-5.9766 9.6699 1.148 0.804 7.1432 5.4778 13.324 10.385 11.025 8.754 13.641 10.386 12.027 7.502-0.876-1.565-17.281-15.847-21.008-18.289-1.256-0.823-2.2832-2.0334-2.2832-2.6894s2.9412-3.3512 6.5352-5.9902c10.569-7.76 17.466-14.494 17.127-16.719-0.305-2-13.808-12.869-15.988-12.869-0.658 0-2.9896 1.5684-5.1836 3.4824-2.194 1.914-4.4763 3.489-5.0703 3.5-0.595 0.011-1.6886 1.153-2.4316 2.541-0.742 1.388-1.6781 2.4-2.0781 2.25-1.473-0.553-11.874-10.882-11.646-11.566 0.381-1.1425-0.1397-1.3978-1.7051-0.70313zm-15.863 14.275c-0.58437-0.1815-0.69726 0.22678-0.69726 1.1133 0 1.321 3.8218 5.1009 11.424 11.297 6.283 5.122 11.315 9.7425 11.182 10.27-0.134 0.527-5.047 4.577-10.918 9-6.33 4.769-10.932 8.9759-11.303 10.338-0.345 1.263-0.45886 2.4336-0.25586 2.5996 0.401 0.326 11.673-8.1966 18.76-14.186 2.415-2.041 5.452-4.3774 6.75-5.1914 1.298-0.815 2.3613-1.9429 2.3613-2.5059s-3.8772-4.1706-8.6172-8.0176c-4.74-3.847-9.1394-7.4461-9.7754-7.9961-0.636-0.55-3.0569-2.4839-5.3809-4.2969-1.8875-1.4725-2.9449-2.2423-3.5293-2.4238zm59.949 5.5332c-0.312-0.313-2.2715 0.85479-4.3555 2.5918-2.084 1.738-6.5916 5.282-10.018 7.877-5.493 4.161-7.7875 7.1712-5.5215 7.2442 0.412 0.014 4.35 3.1877 8.75 7.0547 11.969 10.52 16.279 12.292 5.1914 2.1348-8.719-7.986-10.691-10.023-10.691-11.041 0-0.539 2.7722-3.1621 6.1602-5.8281 8.041-6.327 11.184-9.3342 10.484-10.033zm-60.387 1.0976c-0.239 0.24 1.503 2.1567 3.873 4.2617 5.39 4.788 10.855 10.599 10.865 11.547 2e-3 0.395-3.3711 3.5355-7.4961 6.9785-4.125 3.442-7.5 6.8312-7.5 7.5312s0.112 1.2687 0.25 1.2637c1.1-0.043 19.783-15.388 19.551-16.059-0.439-1.27-19.029-16.036-19.543-15.523zm19.121 25.594-9.4434 7.541c-5.194 4.147-9.4434 8.2739-9.4434 9.1699s5.175 5.8232 11.5 10.949c6.325 5.125 11.591 9.8861 11.703 10.578 0.113 0.693-4.9481 5.0638-11.246 9.7148-11.324 8.359-13.978 11.45-11.314 13.168 1.137 0.73399 1.1309 1.0224-0.0391 1.7754-2.375 1.53-0.62391 3.6056 11.08 13.141 6.224 5.071 11.429 9.5065 11.57 9.8555 0.14 0.35-5.147 4.6146-11.75 9.4766-6.603 4.863-12.004 9.2168-12.004 9.6758 0 2.09 2.3991 1.9527 4.8301-0.27734 4.125-3.784 9.1699-7.0199 9.1699-5.8809 0 0.564-2.4542 2.7324-5.4512 4.8184-2.998 2.086-5.6647 4.3075-5.9277 4.9375s2.0762 3.1477 5.1992 5.5957 8.2753 6.6062 11.447 9.2422c5.414 4.497 5.8801 4.6913 7.5781 3.1543 2.434-2.202 4.8707-2.0647 6.3867 0.36133 0.687 1.1 1.4778 1.9754 1.7578 1.9434 1.269-0.145 23.51-17.835 23.51-18.699 0-1.201-11.903-11.244-13.326-11.244-0.568 0-1.6265 0.56871-2.3535 1.2617-4.046 3.863-12.668 10.738-13.463 10.738-7.7996-7.44-7.5129-7.6749-13.859-13.002-0.291-0.47 2.6008-3.4292 6.4258-6.5762l6.9531-5.7188-7.3027-5.6445c-4.017-3.104-8.0405-6.3006-8.9375-7.1016-0.898-0.8-3.6312-3.032-6.0742-4.957-4.25-3.348-5.4917-5-3.7617-5 0.441 0 5.504 3.788 11.25 8.418 10.392 8.372 10.459 8.408 12.512 6.5 2.663-2.473 3.3047-2.4189 6.3887 0.53711l2.5606 2.4531 11.758-9.0254c6.467-4.965 11.479-9.4811 11.135-10.037-1.327-2.146-12.724-9.8457-14.574-9.8457-1.072 0-1.6948 0.4111-1.3848 0.9121 0.31 0.502-1.3514 2.4027-3.6914 4.2227-2.34 1.82-4.9821 4.1099-5.8711 5.0879-0.89 0.978-1.8726 1.7774-2.1836 1.7774-0.777 0-13.126-12.236-13.126-12.992 4.874-5.3305 4.6342-5.6624 8.3934-9.1209 3.72-3.106 3.6696-3.2272-3.4824-8.4512-7.561-5.524-20.57-16.683-20.051-17.201 0.284-0.285 1.09-0.0619 1.791 0.49609 13.579 10.799 21.272 16.281 21.574 15.375 0.20599-0.62 1.2807-1.6121 2.3887-2.2051 1.663-0.89 2.5053-0.61058 4.8203 1.6074l2.8027 2.6875 10.732-8.1816c5.902-4.5 11.345-8.4161 12.094-8.7031 2.326-0.893 1.5974-1.7968-6.2266-7.7148-7.473-5.652-7.6238-5.713-9.7188-3.918-1.171 1.003-2.69 2.2723-3.375 2.8223-0.686 0.54999-1.9192 1.563-2.7402 2.25-0.821 0.68799-1.796 1.25-2.168 1.25-0.371 0-1.533 0.99117-2.582 2.2012l-1.9082 2.1992-6.1348-6.1367c-5.261-5.261-5.9499-6.3572-4.8359-7.6992 0.0747-1.7808 0.18681-1.6897 0.4395-2.5606zm41.037 18.494c-0.92988 0.25813-3.6352 1.9862-7.5742 5.0312-4.038 3.122-10.161 7.7682-13.607 10.324l-6.2656 4.6465 3.5977 3.1758c6.376 5.63 23.434 18.329 23.434 17.445 0-0.758-14.277-13.518-20.686-18.488-2.285-1.772-2.322-1.966-0.70703-3.75 0.936-1.035 2.0895-1.8828 2.5625-1.8828 0.901 0 9.6259-6.8618 16.17-12.719 3.1615-2.8295 4.006-4.0413 3.0762-3.7832zm-60.256 3.0078c-0.362 0.363 0.91584 2.0301 2.8398 3.7051 1.925 1.674 5.412 4.7262 7.75 6.7812 2.403 2.113 4.25 4.6271 4.25 5.7871 0 1.321-2.2576 3.8446-6.3496 7.1016-3.493 2.779-6.923 5.7419-7.623 6.5859-0.7 0.843-0.88039 1.5257-0.40039 1.5137 0.832-0.02 12.798-8.0236 18.961-12.682l2.9121-2.1992-2.2695-1.6191c-1.248-0.891-6.1278-4.774-10.842-8.627-4.714-3.853-8.8665-6.7097-9.2285-6.3477zm59.629 2.4102c0.8235-1.1866-0.15856-0.79992-3.5391 2.0176-2.063 1.719-6.338 4.9278-9.5 7.1328-3.163 2.205-5.75 4.568-5.75 5.25s1.012 2.0833 2.25 3.1133c1.237 1.031 4.95 4.2 8.25 7.043 9.192 7.92 9.9271 7.5327 1.2441-0.65625-4.265-4.024-7.75-7.849-7.75-8.502 4e-3 -0.652 3.3809-4.2425 7.5059-7.9785 3.8365-3.475 6.4656-6.2333 7.2891-7.4199zm0.73438 41.281c-0.567-0.567-1.0425-0.23177-15.939 11.199-6.375 4.891-11.59 9.2249-11.59 9.6289 0 0.66399 8.0886 7.1716 13.641 10.975 1.205 0.82499 4.9294 3.6342 8.2754 6.2422 10.654 8.303 6.5384 3.2367-6.0156-7.4062l-12.098-10.258 2.3477-1.7969c7.315-5.6 21.785-18.178 21.379-18.584zm-60.094 3.8027c-1.587 0 0.57046 2.3724 7.5644 8.3164 4.4 3.74 7.9782 7.5612 7.9512 8.4922-0.027 0.93-2.5685 3.7164-5.6465 6.1914-3.079 2.475-6.7682 5.4978-8.2012 6.7187-1.432 1.22-2.1535 2.2282-1.6035 2.2402 1.735 0.038 19.928-14.411 19.465-15.459-0.46-1.039-18.758-16.5-19.529-16.5zm59.564 1.9062c0-0.94199-8.816 5.5482-15.5 11.41l-4 3.5078 3 2.8984c1.65 1.594 5.8338 5.2358 9.3008 8.0898 3.466 2.854 6.616 5.1781 7 5.1641 0.661-0.024-1.9736-2.5826-11.6-11.266-2.311-2.085-4.1851-4.335-4.1641-5s2.1068-2.7859 4.6348-4.7109c7.357-5.602 11.328-9.1388 11.328-10.094z" fill="{{ border_color }}"/>
 <path d="m115.75 207.14c-0.323 0.324 0.285 1.214 1.352 1.978 1.067 0.765 3.739 2.767 5.939 4.45 4.035 3.085 5.545 3.741 5.446 2.364-0.084-1.172-12.078-9.451-12.737-8.792z"/>
</svg>
