<?xml version="1.0" encoding="UTF-8"?>
<svg width="100" height="71.165" enable-background="new 0 0 2471 3210" version="1.1" viewBox="0 0 100 71.165" xmlns="http://www.w3.org/2000/svg">
 <path d="m0.62002-0.036954c0.062769 23.127-4.8543e-4 40.59 0.0098967 71.27h0.6971c-0.056718-31.339 0.04503-43.482-0.014857-71.27zm1.3875-0.012266c0.04703 19.501-0.022914 44.57-1.552e-4 71.282h0.64137c-0.014888-7.5825-0.029203-8.2447-0.045812-17.676-0.04383-24.85 0.082894-34.223 0.044457-53.592zm1.5997 0.012266c0.045183 18.733-0.051646 29.307 0.0011399 62.695 0.00746 4.716-0.0037 4.0687 0.00247 8.5746h0.65051c-0.050066-22.523-0.077793-24.185-0.13115-57.194l0.11893-14.075zm3.1329 0c0.043378 4.3242 0.11379 11.631 0.20331 11.799 0.13777 0.25727 0.15628 0.46728 0.041472 0.46728-0.11481 0-0.21396 23.28-0.22038 51.733-9.876e-4 3.9889-0.017604 3.5339-0.02074 7.2719h1.5137l-0.011086-18.162c-0.012691-20.462 0.039492-34.976 0.00845-53.108zm3.2415-0.0061673c0.025651 12.798-0.001892 13.121 0.022887 28.505 0.03789 23.528-0.016345 26.794-0.022665 42.77h0.81159c-0.01948-5.9587-0.0503-5.8873-0.06269-12.834-0.03118-17.578 0.10299-38.645 0.06684-58.431zm1.757 0.0011048c0.06309 20.463-0.05501 42.943-0.0015 63.811 0.01049 4.105-0.0067 3.6257 9.87e-4 7.4635h0.59266c-0.0811-36.998 0.07204-52.57 0.0016-71.27zm2.3231 0.0050624c0.03738 21.296-8.53e-4 43.975 7e-3 71.27h0.72961l-0.04099-34.724 0.04998-36.556zm3.1695 0c0.013727 12.525-0.039438 17.451-0.33998 17.451-0.40492 0-0.40526 0.01775-0.0063 0.30959 0.39455 0.28863 0.42151 1.7979 0.39929 22.283 0.02904 10.238-0.04038 21.246-0.04077 31.225h4.0343c-0.28729-0.46773-0.94294-1.4723-2.3531-2.5495-0.50614-0.38664-0.86689-0.75675-0.80097-0.82267 0.18745-0.18745 3.426 2.6934 3.9376 3.3722h1.145c-0.19994-0.23246-0.90368-1.0281-2.3239-2.0948-1.5592-1.171-2.904-2.2406-2.988-2.3764-0.36418-0.5891 0.19367-0.44758 1.2509 0.31732 3.0225 2.1867 4.9898 3.8551 5.176 4.1538h1.5467c0.27529-0.44452 1.54-1.1856 3.7744-2.9922 3.067-2.4796 3.2097-2.5739 3.2097-2.1155 0 0.1911-1.3054 1.436-2.9011 2.766-1.455 1.2127-2.805 2.1005-3.0346 2.3417h0.48343l2.3873-1.5995c1.1538-0.95056 2.2651-1.8804 2.4695-2.0664 0.20468-0.18591 0.42901-0.28107 0.49814-0.2117 0.06913 0.06913-0.82509 0.93523-1.9872 1.9246-1.1619 0.98958-2.1807 1.8926-2.1807 1.9704 1.4949 0.02637 3.4023-0.01736 5.0049-0.01736 4.94e-4 -0.68056-0.01225-5.1501-0.01277-5.1805-0.10815-6.4337-0.06581-45.536 0.01146-66.09h-5.0098c0.04434 0.10716 0.01681 0.17518 0.1143 0.33806 0.22863 0.38171 0.61703 0.80504 0.86319 0.94084 0.71107 0.39257 3.3178 2.6455 3.1986 2.7645-0.05926 0.059503-0.90755-0.46227-1.885-1.1598-0.97723-0.69749-1.8403-1.205-1.9173-1.1279-0.07703 0.07728-0.09367 0.17407-0.03713 0.21555 0.05654 0.041479 0.89733 0.65515 1.8686 1.3633 1.4967 1.0918 2.061 1.6802 2.061 2.1478 0 0.048886-1.3543 1.1089-3.01 2.3552-3.003 2.2604-3.0117 2.2647-3.4348 1.7423-0.52466-0.64787-1.1123-0.67214-1.4404-0.058831-0.41405 0.77378-0.87398 0.76055-1.9361-0.05594-0.5575-0.42862-1.906-1.4426-2.9971-2.2535l-1.9834-1.4737 0.665-0.69488c0.60318-0.62959 2.5389-1.9125 2.8853-1.9125 0.07777 0 0.14129 0.15024 0.14129 0.33418 0 0.32813 2.6268 2.7519 2.9826 2.7519 0.09975 0 0.71927-0.49178 1.3768-1.0927 2.5043-2.288 2.1756-2.121 3.0082-1.5282 0.40319 0.28714 0.81667 0.52224 0.91864 0.52224 0.30764 0-0.69789-1.0129-1.6198-1.6319-0.47528-0.31899-1.2408-0.88672-1.7018-1.2615-0.88489-0.50632-0.59656-0.41642-1.1449-0.46632-0.06504-0.287-0.0033-0.39899 0.29865-0.75855h-1.6995c0.48568 0-0.06552 0.1163-0.06882 0.11959-0.06963 0.069873-0.39028 0.30381-0.71273 0.51985s-1.6552 1.1982-2.9618 2.1825c-1.3068 0.98464-2.4289 1.79-2.4942 1.79-0.40664 0 0.47605-0.8797 2.7255-2.7159l2.5325-1.8961h-1.1101c-0.22805 0.27117-0.73344 0.61031-1.381 1.1622-0.84859 0.72342-1.793 1.5375-2.0986 1.8088-0.30542 0.2711-0.55552 0.37563-0.55552 0.23292 0-0.14296 0.72218-0.89373 1.6048-1.6685 0.78302-0.68752 1.4891-1.2649 1.6274-1.5354zm10.153 0c-0.1084 0.0016787-0.45988-0.03367-0.47866 0.011049 0 0 0.78494 0.99409 0.90323 1.0486 0.43728 0.7109 0.7567 0.22674 0.78954 0.23208zm8.6319 0c0.0409 39.657-0.05536 48.145 0.0033 71.27h0.51069c-0.0027-4.121-0.01008-14.736-0.01008-14.809 0.01955-4.1867 0.0084-33.47 0-56.461zm2.3281 0c0.04294 28.695-0.08251 42.03 0.0092 71.27h0.49526c-0.0038-3.5828-0.01992-2.7848-0.02266-6.5377-0.02118-29.198 0.0422-45.481 0.02754-64.732zm1.7222 0c0.06061 16.175-0.02599 8.0277 9e-3 70.041l-0.0059 1.2292h0.66283c-0.0041-22.818-0.0017-31.848-0.02289-57.152-0.0063-7.6097 0.02519-7.1391 0.02508-14.118zm2.4695 0c0.12061 4.4398-0.13753 16.151-0.0976 44.533 0.02069 14.648 0.05951 17.256 0.09632 26.737h1.4088c-0.0012-2.729-0.01432-11.697-0.01506-11.846-9.88e-4 -0.20369 0.0067-17.703 0.01736-38.887 0.0034-6.9675-3e-3 -12.851-0.0025-20.537zm4.3437 0c-0.0044 14.429-2e-3 31.569-0.0067 32.882-9.88e-4 0.27159 0.01027 4.8824 0.02508 10.246 0.02007 7.2744-0.01573 18.064-0.01531 28.142h0.73275c-0.0071-16.742-0.0052-19.022-0.0038-40.6l2e-3 -30.67zm1.7061 0c0.04521 35.151 0.02496 48.849 0.0018 71.27h0.65942c0.01906-14.997 0.12343-6.3411 0.09782-40.724l-0.098385-30.546zm-15.808 6.4325c0.02496 0.038467-0.01891 0.14064-0.12779 0.30477-0.09456 0.14246-1.3383 1.1825-2.764 2.3113-1.4258 1.1286-2.6179 2.1754-2.6492 2.3263-0.03111 0.15061 1.2187 1.2497 2.7776 2.442 1.5589 1.1925 2.8344 2.3315 2.8344 2.5307 0 0.1995-0.02765 0.3568-0.06172 0.34914-0.03383-0.0077-1.4505-1.0622-3.148-2.3431-1.6974-1.2812-3.225-2.3308-3.3949-2.332-0.65947-0.0052-0.24436-0.66238 1.0156-1.6073 0.72465-0.54318 2.2309-1.6924 3.3472-2.5544 1.4036-1.084 2.0961-1.5428 2.171-1.4274zm-14.951 0.033275c0.15974-0.15974 0.88748 0.32238 4.0588 2.6885 2.3221 1.7325 2.9465 2.3449 2.6586 2.6083-0.11777 0.10765-1.5699 1.2093-3.227 2.4483-1.6572 1.2389-3.0739 2.2525-3.148 2.2525-0.56639 0 0.74993-1.2125 5.016-4.6202l0.5835-0.46632-2.0649-1.5262c-2.6636-1.969-4.0672-3.1946-3.8771-3.3848zm15.017 1.0233c0.07012 0.070366-0.23836 0.42358-0.68525 0.78554-0.44689 0.36196-1.3327 1.1203-1.968 1.6844-1.1073 0.98316-1.1407 1.0518-0.81304 1.6642 0.18789 0.35134 0.90798 1.0288 1.6 1.5055 0.69181 0.47652 1.4035 1.0988 1.5812 1.3835 0.17777 0.28492 0.28747 0.55355 0.24401 0.597-0.16444 0.16444-4.8807-3.4719-4.8089-3.7074 0.11036-0.36097 4.6995-4.0635 4.8499-3.9129zm-14.784 0.40892c0.45331 0.14616 4.3119 3.0087 4.5286 3.3596 0.07876 0.1274-0.81008 1.0455-1.9757 2.0398-3.4317 2.9277-3.282 2.4119 0.19868-0.68572 0.50935-0.45306 0.92587-0.9753 0.92587-1.1602s-0.47207-0.68653-1.0493-1.1149c-1.5125-1.1231-3.0917-2.5883-2.6282-2.4386zm10.49 6.6243c0.18516-0.12368 0.94602 0.33472 2.3065 1.3869 1.7621 1.3631 2.3433 2.0355 1.7592 2.0355-0.29776 0-4.9765 3.5102-5.4678 4.1022-0.25702 0.30986-0.40218 0.26339-1.0194-0.32744l-0.71949-0.68863-1.3242 1.5865-0.7407-0.52708c-2.0295-1.4444-5.3034-3.9383-5.4222-4.1306-0.11357-0.18369 2.2749-2.2535 3.2638-2.8282 0.19209-0.11184 1.0834 0.43706 2.3345 1.438l2.0239 1.6193 0.99868-0.96251c0.54935-0.52935 1.2575-1.2037 1.5735-1.4988 0.31603-0.29504 0.51385-0.6947 0.43978-0.88778-0.06531-0.17024-0.06751-0.27608-0.0058-0.31732zm3.8781 3.9682c0.39773-0.25752 0.42195-0.16492 0.42195 0.05111 0 0.2111-0.59093 0.85734-1.3131 1.4366-0.72218 0.57898-2.0554 1.6465-2.9628 2.3716-0.90736 0.72539-1.6497 1.3597-1.6497 1.41 0 0.05037 0.91674 0.78052 2.0369 1.6222 3.2287 2.4255 3.8887 2.9932 3.8887 3.3443 0 0.3501-0.39677 0.45583-0.53478 0.14226-0.04543-0.10296-0.89395-0.78482-1.886-1.5152-1.6293-1.1994-1.8159-1.1537-1.9671-1.2867-0.09065-0.08196-0.19728-0.20647-0.09596-0.2199-0.22659-0.03616-0.17527-0.0757-0.68611-0.47148-0.33109-0.25628-0.61439-0.305-0.86605-0.41395-0.2509-0.44269-0.33726-0.40134-0.62401-0.71398l-0.49235-0.52416 1.1689-0.90706c0.64293-0.49923 1.9467-1.5238 2.8971-2.2766 1.4953-1.1841 2.2666-1.7915 2.6643-2.049zm-14.606 0.32694c0.16518-0.16518 6.8804 4.74 6.8804 5.0256 0 0.09234-0.33472 0.36541-0.74408 0.60713-0.40936 0.24196-1.2405 0.84929-1.8469 1.3498-0.60614 0.50047-1.7603 1.4374-2.565 2.0823-0.80465 0.64515-1.5292 1.1728-1.6102 1.1728-0.43825 0 0.0058-0.53987 1.2393-1.506 2.9823-2.3367 4.2919-3.4865 4.2842-3.7618-0.0042-0.15802-0.96617-1.0096-2.1377-1.8923-2.8152-2.1209-3.6887-2.889-3.5001-3.0776zm14.771 1.168c0.3779-0.17792 0.24925 0.0667-0.60663 0.83714-3.5218 3.1702-3.4712 3.0581-1.8691 4.1183 0.5133 0.33973 1.3621 1.0106 1.886 1.4906 0.52392 0.47997 0.90037 0.92439 0.83667 0.98809-0.19234 0.19258-4.9274-3.3275-4.9274-3.663 0-0.1711 1.011-1.1047 2.2467-2.0741 1.1713-0.91896 2.0559-1.519 2.4338-1.6969zm-14.715 0.25799c0.16518-0.16493 4.4168 2.8793 4.7306 3.3872 0.17382 0.28097-0.22137 0.68823-2.3701 2.443-0.73576 0.60071-1.532 1.257-1.7698 1.4582-0.31875 0.26986-0.43208 0.28388-0.43208 0.05401 0-0.17135 0.30566-0.5478 0.67898-0.83667 1.3335-1.0318 3.0245-2.7045 3.0245-2.9912 0-0.16048-0.8919-0.99424-1.982-1.8527-1.0898-0.85847-1.9357-1.6062-1.8802-1.6618zm10.883 6.7139c0.3865 0.1715 1.0309 0.57752 1.9675 1.2335 1.9517 1.3671 2.4516 1.8517 1.9096 1.8517-0.11604 0-0.92143 0.55599-1.79 1.2355-0.86835 0.67947-2.1711 1.6998-2.8949 2.2669-0.72366 0.56713-1.3903 0.92738-1.4814 0.80097-0.09111-0.12617-0.36393-0.38541-0.60663-0.57577-0.39035-0.30665-0.52121-0.26905-1.1424 0.32598l-0.70213 0.6727-2.5606-2.0369c-3.3556-2.6692-3.1778-2.5431-3.1778-2.2655 0 0.22048 0.78243 0.88148 4.4649 3.7734 1.8782 1.4747 2.1502 1.9152 1.4756 2.3875-0.28344 0.19851-1.7637 1.3525-3.2897 2.5641-2.7221 2.1614-3.368 2.5643-2.9695 1.8522 0.21628-0.3864 4.2667-3.9126 5.1869-4.5156 0.31011-0.2032 0.56372-0.50205 0.56372-0.66401 0-0.16197-0.72618-0.82741-1.6135-1.479-2.6095-1.9159-4.3124-3.5786-4.2287-4.1279 0.07531-0.4938 3.4092-3.1774 3.9474-3.1774 0.16246 0 0.73813 0.38724 1.2798 0.8598 0.5417 0.47257 1.1052 0.86143 1.2519 0.86415 0.1469 0.0027 0.41692 0.28468 0.60036 0.62737 0.1832 0.3427 0.41432 0.59256 0.51308 0.55552 0.36368-0.13654 2.9317-2.6868 2.8754-2.8556-0.09407-0.28208 0.03449-0.34512 0.42099-0.1736zm3.9166 3.5245c0.14428-0.04481 0.17215 0.05599 0.17215 0.27487 0 0.32615-0.9436 1.2594-2.8206 2.7892-1.5513 1.2646-2.7937 2.4054-2.7608 2.5357 0.03308 0.13012 1.2461 1.1301 2.6957 2.2221 1.5629 1.1775 2.6991 2.2161 2.7907 2.5525 0.08518 0.31183 0.11329 0.60086 0.06317 0.64184-0.09901 0.08049-2.8821-2.0237-4.6318-3.5025-0.59626-0.50392-1.3461-1.0808-1.6666-1.2818-0.32048-0.20122-0.583-0.4797-0.583-0.61871 0-0.139 0.95728-1.0297 2.1276-1.9795 1.1703-0.94982 2.2565-1.8384 2.4135-1.9742s0.75475-0.61327 1.3285-1.0609c0.46602-0.36356 0.7271-0.55362 0.87138-0.59844zm-14.801 1.3661c0.07703-0.07728 0.56083 0.21105 1.0754 0.63992 0.51454 0.42911 1.6275 1.3041 2.4734 1.9448 1.3562 1.0274 1.9227 1.7706 1.3633 1.7886-0.10172 0.0035-1.074 0.78704-2.1604 1.7418-2.9551 2.5974-4.0193 3.0349-1.2818 0.52708 2.1527-1.9717 2.6396-2.4747 2.6396-2.726 0-0.13308-0.68446-0.78072-1.521-1.439-1.9853-1.5621-2.7613-2.3046-2.5885-2.4771zm14.91 0.271c0.05901 0.05926-0.37109 0.53249-0.95624 1.0522-1.3308 1.1822-2.6801 2.6169-2.6826 2.851-4.94e-4 0.09752 0.83232 0.87292 1.8508 1.723 1.0185 0.84983 1.8517 1.6866 1.8517 1.8595s-0.02765 0.31324-0.06173 0.31201c-0.27159-0.01062-4.8844-3.7993-4.8271-3.965 0.10839-0.31356 4.6983-3.9593 4.8252-3.8326zm-4.721 6.3192 2.3316 1.8619c1.2824 1.0239 2.3316 2.0428 2.3316 2.264s-1.2777 1.4377-2.8393 2.7033c-1.5616 1.2654-2.8618 2.4409-2.8895 2.6117-0.0279 0.1711 1.2217 1.2503 2.7766 2.3986 2.7959 2.0638 3.4512 2.827 2.7934 3.2512-0.28073 0.18122-0.27922 0.25243 0.0097 0.43835 0.58639 0.37776 0.15404 0.89022-2.7356 3.2445-1.5367 1.252-2.8218 2.3472-2.8566 2.4333-0.03457 0.08642 1.2708 1.1393 2.9011 2.3398 1.6303 1.2007 2.9638 2.2756 2.9638 2.389 0 0.51602-0.59234 0.48212-1.1926-0.06847-1.0185-0.93427-2.264-1.7332-2.264-1.452 0 0.13925 0.60594 0.67463 1.3459 1.1897 0.74021 0.51503 1.3986 1.0635 1.4635 1.2191 0.06493 0.15555-0.51261 0.77717-1.2837 1.3816-0.77107 0.60441-2.0432 1.6311-2.8263 2.2819-1.3367 1.1103-1.4518 1.1583-1.871 0.7788-0.60096-0.54367-1.2026-0.50977-1.5769 0.08921-0.16962 0.27159-0.36487 0.48773-0.434 0.47982-0.31332-0.0358-5.8046-4.4035-5.8046-4.6168 0-0.29653 2.9388-2.7761 3.2902-2.7761 0.14024 0 0.40158 0.14041 0.58108 0.31151 0.99896 0.95378 3.1277 2.6512 3.324 2.6512 1.9257-1.8369 1.8549-1.8949 3.4218-3.2102 0.07185-0.11604-0.64214-0.84667-1.5865-1.6237l-1.7167-1.412 1.803-1.3936c0.9918-0.76638 1.9852-1.5556 2.2067-1.7534 0.22172-0.19752 0.89654-0.7486 1.4997-1.2239 1.0493-0.82662 1.3559-1.2345 0.92876-1.2345-0.10888 0-1.3589 0.93526-2.7776 2.0784-2.5658 2.067-2.5823 2.0759-3.0892 1.6048-0.6575-0.61058-0.81593-0.59723-1.5774 0.13261l-0.63221 0.60567-2.903-2.2284c-1.5967-1.2259-2.8342-2.3409-2.7492-2.4781 0.32764-0.52985 3.1416-2.4309 3.5983-2.4309 0.26468 0 0.41845 0.1015 0.34191 0.2252-0.07654 0.12394 0.33366 0.59323 0.91141 1.0426 0.57774 0.44936 1.2301 1.0147 1.4496 1.2562 0.21974 0.24147 0.46234 0.43884 0.53913 0.43884 0.19184 0 3.2408-3.0211 3.2408-3.2077-1.2034-1.3161-1.1442-1.398-2.0723-2.2519-0.91847-0.76687-0.90602-0.7968 0.8598-2.0866 1.8668-1.3639 5.0787-4.119 4.9506-4.2469-0.07012-0.07037-0.26912-0.01528-0.4422 0.12248-3.3527 2.6663-5.2521 4.0198-5.3266 3.7961-0.05086-0.15308-0.3162-0.39803-0.58977-0.54444-0.4106-0.21974-0.61856-0.15075-1.1901 0.39687l-0.69199 0.66354-2.6497-2.02c-1.4572-1.111-2.8011-2.0779-2.986-2.1488-0.57429-0.22048-0.3944-0.44363 1.5373-1.9048 1.8451-1.3955 1.8823-1.4105 2.3996-0.96735 0.28912 0.24764 0.66416 0.56103 0.83329 0.69682 0.16937 0.13579 0.47385 0.3859 0.67656 0.55552 0.2027 0.16986 0.44343 0.30862 0.53528 0.30862 0.0916 0 0.3785 0.24472 0.6375 0.54348l0.47114 0.54298 1.5147-1.5152c1.2989-1.2989 1.469-1.5696 1.194-1.9009-0.01844-0.43968-0.04612-0.41719-0.10851-0.63221zm-10.132 4.5662c0.22959 0.06373 0.89753 0.49039 1.8701 1.2422 0.99698 0.77082 2.5088 1.918 3.3596 2.549l1.547 1.1472-0.88827 0.7841c-1.5742 1.39-5.7859 4.5254-5.7859 4.3072 0-0.18715 3.525-3.3376 5.1074-4.5647 0.56417-0.43751 0.5733-0.48541 0.17457-0.92588-0.2311-0.25554-0.5159-0.46486-0.63268-0.46486-0.22246 0-2.3766-1.6942-3.9924-3.1403-0.78057-0.6986-0.98908-0.9978-0.75951-0.93407zm14.877 0.74263c0.08938 0.08962-0.22612 0.50123-0.70115 0.91479-0.47528 0.41331-1.3362 1.1669-1.9135 1.6743-0.5933 0.5217-1.0493 1.1424-1.0493 1.4288 0 0.32616 0.5574 0.94923 1.5677 1.7534 0.86242 0.68614 1.7093 1.4177 1.8821 1.6261 0.17283 0.20814 0.21737 0.3767 0.09886 0.37373-0.20542-0.0049-3.1598-1.981-4.6815-3.1312l-0.719-0.54298 0.56034-0.39976c0.30813-0.21999 1.513-1.1787 2.6769-2.13 1.1639-0.9513 2.1891-1.6566 2.2785-1.5672zm-14.722 0.59508c-0.20332-0.29297 0.03915-0.1975 0.8738 0.49814 0.50936 0.42442 1.5649 1.2167 2.3455 1.7611 0.78094 0.54442 1.4197 1.1278 1.4197 1.2962s-0.24986 0.51437-0.55552 0.76867c-0.30542 0.25455-1.2222 1.037-2.0369 1.7389-2.2695 1.9554-2.451 1.8598-0.30717-0.16203 1.053-0.99352 1.9135-1.9379 1.9135-2.0991-9.88e-4 -0.16098-0.83474-1.0475-1.8532-1.9699-0.94723-0.85798-1.5964-1.539-1.7997-1.832zm-0.18132 10.192c0.13999-0.13999 0.25739-0.05722 3.9353 2.765 1.574 1.2076 2.8616 2.2776 2.8616 2.3774 0 0.16394-1.9971 1.7707-3.368 2.7097-0.29751 0.20369-1.2171 0.89728-2.0432 1.5412-2.6305 2.05-1.6143 0.79914 1.4853-1.8286l2.987-2.5327-0.57965-0.44365c-1.8061-1.3826-5.3787-4.4881-5.2785-4.5884zm14.837 0.93889c0.39183 0-0.14085 0.58575-1.8676 2.0533-1.0864 0.92341-1.9698 1.8669-1.9632 2.0967 0.0067 0.22962 0.63416 0.91758 1.3941 1.5287 0.7602 0.61108 1.6711 1.3574 2.0249 1.6588 0.35356 0.30122 0.5317 0.55014 0.3959 0.5531-0.42837 0.0094-4.9202-3.5581-4.8059-3.8168 0.11357-0.25653 4.6313-4.0738 4.8217-4.0738zm-14.706 0.47064c0-0.23258 2.1767 1.3698 3.8269 2.8171l0.9876 0.86608-0.7407 0.71562c-0.40738 0.39356-1.4404 1.2927-2.2964 1.9974-0.85576 0.70465-1.6335 1.2785-1.7283 1.275-0.1632-0.0059 0.48728-0.63764 2.864-2.7816 0.57058-0.51479 1.0333-1.0703 1.0281-1.2345-0.0052-0.16419-0.52017-0.68784-1.1443-1.1631-1.8164-1.3831-2.7969-2.2564-2.7969-2.4922z" fill="{{ border_color }}" stroke-width=".2469"/>
 <path d="m99.38-0.024802c-0.062769 23.127 4.94e-4 40.59-0.009901 71.27h-0.6971c0.05672-31.339-0.04503-43.482 0.01486-71.27zm-1.3875-0.012266c-0.047029 19.501 0.022912 44.57 1.56e-4 71.282h-0.64137c0.01489-7.5825 0.0292-8.2447 0.04581-17.676 0.04383-24.85-0.08289-34.223-0.04446-53.592zm-1.5997 0.012266c-0.04518 18.733 0.05165 29.307-0.0012 62.695-0.0075 4.716 0.0037 4.0687-0.0025 8.5746h-0.65051c0.05006-22.523 0.07779-24.185 0.13115-57.194l-0.11894-14.075zm-3.1329 0c-0.043378 4.3242-0.11379 11.631-0.20331 11.799-0.13777 0.25727-0.15628 0.46728-0.04147 0.46728 0.11481 0 0.21396 23.28 0.22038 51.733 9.87e-4 3.9889 0.0176 3.5339 0.02074 7.2719h-1.5137l0.01109-18.162c0.01269-20.462-0.03949-34.976-0.0084-53.108zm-3.2415-0.0061673c-0.02565 12.798 2e-3 13.121-0.02289 28.505-0.03789 23.528 0.01635 26.794 0.02267 42.77h-0.81158c0.01948-5.9587 0.0503-5.8873 0.06269-12.834 0.03118-17.578-0.10299-38.645-0.06684-58.431zm-1.757 0.0011036c-0.06309 20.463 0.05501 42.943 0.0015 63.811-0.01049 4.105 0.0067 3.6257-9.87e-4 7.4635h-0.59266c0.0811-36.998-0.07205-52.57-0.0015-71.27zm-2.3231 0.0050624c-0.037383 21.296 7.41e-4 43.975-0.006962 71.27h-0.72961l0.04099-34.724-0.04998-36.556zm-3.1695 0c-0.01373 12.525 0.03944 17.451 0.33998 17.451 0.40492 0 0.40526 0.01775 0.0063 0.30959-0.39455 0.28863-0.42151 1.798-0.39929 22.283-0.02903 10.238 0.04038 21.246 0.04077 31.225h-4.0343c0.28729-0.46773 0.94294-1.4723 2.3531-2.5495 0.50614-0.38664 0.86689-0.75675 0.80097-0.82267-0.18745-0.18745-3.426 2.6934-3.9376 3.3722h-1.145c0.19994-0.23246 0.90368-1.0281 2.3239-2.0948 1.5592-1.171 2.904-2.2406 2.988-2.3764 0.36418-0.5891-0.19367-0.44758-1.2509 0.31732-3.0225 2.1867-4.9898 3.8551-5.176 4.1538h-1.5467c-0.27529-0.44452-1.54-1.1856-3.7744-2.9922-3.067-2.4796-3.2097-2.5739-3.2097-2.1155 0 0.1911 1.3054 1.436 2.9011 2.766 1.455 1.2127 2.805 2.1005 3.0346 2.3417h-0.48343l-2.3873-1.5995c-1.1538-0.95056-2.2651-1.8804-2.4695-2.0664-0.20468-0.18591-0.42901-0.28107-0.49814-0.2117-0.06913 0.06913 0.82509 0.93523 1.9872 1.9246 1.1619 0.98958 2.1807 1.8926 2.1807 1.9704-1.4949 0.02637-3.4023-0.01736-5.0049-0.01736-4.94e-4 -0.68056 0.01225-5.1501 0.01277-5.1805 0.10815-6.4337 0.06581-45.536-0.01146-66.09h5.0098c-0.04437 0.10716-0.01684 0.17518-0.11432 0.33806-0.22863 0.38171-0.61703 0.80504-0.86319 0.94084-0.71107 0.39257-3.3178 2.6455-3.1986 2.7645 0.05926 0.059503 0.90755-0.46227 1.885-1.1598 0.97723-0.69749 1.8403-1.205 1.9173-1.1279 0.07703 0.07728 0.09367 0.17407 0.03713 0.21555-0.05654 0.041479-0.89733 0.65515-1.8686 1.3633-1.4967 1.0918-2.061 1.6802-2.061 2.1478 0 0.048886 1.3543 1.1089 3.01 2.3552 3.003 2.2604 3.0117 2.2647 3.4349 1.7423 0.52466-0.64787 1.1123-0.67214 1.4404-0.058831 0.41405 0.77378 0.87398 0.76055 1.9361-0.05594 0.5575-0.42862 1.906-1.4426 2.9971-2.2535l1.9834-1.4737-0.665-0.69488c-0.60318-0.6296-2.5389-1.9125-2.8853-1.9125-0.07777 0-0.14129 0.15024-0.14129 0.33418 0 0.32813-2.6268 2.7519-2.9826 2.7519-0.09975 0-0.71927-0.49178-1.3768-1.0927-2.5043-2.288-2.1756-2.121-3.0082-1.5282-0.40319 0.28714-0.81667 0.52224-0.91864 0.52224-0.30764 0 0.69789-1.0129 1.6198-1.6319 0.47528-0.31899 1.2408-0.88672 1.7018-1.2615 0.88489-0.50632 0.59656-0.41642 1.1449-0.46632 0.06504-0.287 0.0033-0.39899-0.29865-0.75855h1.6995c-0.48568 0 0.06552 0.1163 0.06882 0.11959 0.06963 0.069873 0.39028 0.30381 0.71273 0.51985 0.32245 0.21604 1.6552 1.1982 2.9618 2.1825 1.3068 0.98464 2.4289 1.79 2.4942 1.79 0.40664 0-0.47605-0.8797-2.7255-2.7159l-2.5325-1.8961h1.1101c0.22805 0.27117 0.73344 0.61031 1.381 1.1622 0.84859 0.72342 1.793 1.5375 2.0986 1.8088 0.30542 0.2711 0.55552 0.37563 0.55552 0.23292 0-0.14296-0.72218-0.89373-1.6048-1.6685-0.78302-0.68752-1.4891-1.2649-1.6274-1.5354zm-10.153 0c0.1084 0.0016789 0.45988-0.03367 0.47866 0.011049 0 0-0.78494 0.99409-0.90323 1.0486-0.43728 0.7109-0.7567 0.22674-0.78954 0.23208zm-8.6319 0c-0.0409 39.657 0.05536 48.145-0.0034 71.27h-0.51069c0.0027-4.121 0.01012-14.736 0.01012-14.809-0.01955-4.1867-0.0084-33.47 0-56.461zm-2.3281 0c-0.042938 28.695 0.082507 42.03-0.009209 71.27h-0.49526c0.0038-3.5828 0.01993-2.7848 0.02267-6.5377 0.02118-29.198-0.0422-45.481-0.02754-64.732zm-1.7222 0c-0.060609 16.175 0.025994 8.0277-0.009036 70.041l0.0059 1.2292h-0.66283c0.0041-22.818 0.0017-31.848 0.02289-57.152 0.0063-7.6097-0.02519-7.1391-0.02508-14.118zm-2.4695 0c-0.12061 4.4398 0.13753 16.151 0.0976 44.533-0.02069 14.648-0.05951 17.256-0.09632 26.737h-1.4088c0.0012-2.729 0.01432-11.697 0.01506-11.846 9.88e-4 -0.20369-0.0067-17.703-0.01736-38.887-0.0034-6.9675 3e-3 -12.851 0.0025-20.537zm-4.3437 0c0.0044 14.429 2e-3 31.569 0.0067 32.882 9.88e-4 0.27159-0.01027 4.8824-0.02508 10.246-0.02007 7.2744 0.01573 18.064 0.01531 28.142h-0.73275c0.0071-16.742 0.0052-19.022 0.0038-40.6l-2e-3 -30.67zm-1.7061 0c-0.04521 35.151-0.024961 48.849-0.001728 71.27h-0.65942c-0.01906-14.997-0.12343-6.3411-0.09782-40.724l0.09831-30.546zm15.808 6.4325c-0.02496 0.038467 0.01891 0.14064 0.12779 0.30477 0.09456 0.14246 1.3383 1.1825 2.764 2.3113 1.4258 1.1286 2.6179 2.1754 2.6492 2.3263 0.03111 0.15061-1.2187 1.2497-2.7776 2.442-1.5589 1.1925-2.8344 2.3315-2.8344 2.5307 0 0.1995 0.02765 0.3568 0.06173 0.34914 0.03383-0.0077 1.4505-1.0622 3.148-2.3431 1.6974-1.2812 3.225-2.3308 3.3949-2.332 0.65947-0.0052 0.24436-0.66238-1.0156-1.6073-0.72466-0.54318-2.2309-1.6924-3.3472-2.5544-1.4036-1.084-2.0961-1.5428-2.171-1.4274zm14.951 0.033275c-0.15974-0.15974-0.88748 0.32238-4.0588 2.6885-2.3221 1.7325-2.9465 2.3449-2.6586 2.6083 0.11777 0.10765 1.5699 1.2093 3.227 2.4483 1.6572 1.2389 3.0739 2.2525 3.148 2.2525 0.56639 0-0.74993-1.2125-5.016-4.6202l-0.5835-0.46632 2.0649-1.5262c2.6636-1.969 4.0672-3.1946 3.8771-3.3848zm-15.017 1.0233c-0.07012 0.070366 0.23836 0.42358 0.68525 0.78554 0.44689 0.36196 1.3327 1.1203 1.968 1.6844 1.1073 0.98316 1.1407 1.0518 0.81304 1.6642-0.18789 0.35134-0.90798 1.0288-1.6 1.5055-0.69181 0.47652-1.4035 1.0988-1.5812 1.3835-0.17777 0.28492-0.28747 0.55355-0.24401 0.597 0.16444 0.16444 4.8807-3.4719 4.8089-3.7074-0.11036-0.36097-4.6995-4.0635-4.8499-3.9129zm14.784 0.40892c-0.45331 0.14616-4.3119 3.0087-4.5286 3.3596-0.07876 0.1274 0.81008 1.0455 1.9757 2.0398 3.4317 2.9277 3.282 2.4119-0.19868-0.68572-0.50935-0.45306-0.92587-0.9753-0.92587-1.1602s0.47207-0.68653 1.0493-1.1149c1.5125-1.1231 3.0917-2.5883 2.6282-2.4386zm-10.49 6.6243c-0.18516-0.12368-0.94602 0.33472-2.3065 1.3869-1.7621 1.3631-2.3433 2.0355-1.7592 2.0355 0.29776 0 4.9765 3.5102 5.4678 4.1022 0.25702 0.30986 0.40218 0.26339 1.0194-0.32744l0.71949-0.68863 1.3242 1.5865 0.7407-0.52708c2.0295-1.4444 5.3034-3.9383 5.4222-4.1306 0.11357-0.18369-2.2749-2.2535-3.2638-2.8282-0.19209-0.11184-1.0834 0.43706-2.3345 1.438l-2.0239 1.6193-0.99868-0.96251c-0.54935-0.52935-1.2575-1.2037-1.5735-1.4988-0.31603-0.29504-0.51385-0.6947-0.43978-0.88778 0.0653-0.17024 0.06751-0.27608 0.0058-0.31732zm-3.8781 3.9682c-0.39773-0.25752-0.42195-0.16492-0.42195 0.05111 0 0.2111 0.59093 0.85734 1.3131 1.4366 0.72218 0.57898 2.0554 1.6465 2.9628 2.3716 0.90736 0.72539 1.6497 1.3597 1.6497 1.41 0 0.05037-0.91674 0.78052-2.0369 1.6222-3.2287 2.4255-3.8887 2.9932-3.8887 3.3443 0 0.3501 0.39677 0.45583 0.53478 0.14226 0.04543-0.10296 0.89395-0.78482 1.886-1.5152 1.6293-1.1994 1.8159-1.1537 1.9671-1.2867 0.09065-0.08196 0.19728-0.20647 0.09596-0.2199 0.22659-0.03616 0.17527-0.0757 0.68611-0.47148 0.33109-0.25628 0.61439-0.305 0.86605-0.41395 0.2509-0.44269 0.33726-0.40134 0.62401-0.71398l0.49234-0.52417-1.1689-0.90706c-0.64292-0.49923-1.9467-1.5238-2.8971-2.2766-1.4953-1.1841-2.2666-1.7915-2.6643-2.049zm14.606 0.32694c-0.16518-0.16518-6.8804 4.74-6.8804 5.0256 0 0.09234 0.33472 0.36541 0.74408 0.60713 0.40936 0.24196 1.2405 0.84928 1.8469 1.3498 0.60614 0.50047 1.7603 1.4374 2.565 2.0823 0.80465 0.64515 1.5292 1.1728 1.6102 1.1728 0.43825 0-0.0058-0.53987-1.2393-1.506-2.9823-2.3367-4.2919-3.4865-4.2842-3.7618 0.0042-0.15802 0.96617-1.0096 2.1377-1.8923 2.8152-2.1209 3.6887-2.889 3.5001-3.0776zm-14.771 1.168c-0.3779-0.17792-0.24925 0.0667 0.60663 0.83714 3.5218 3.1702 3.4712 3.0581 1.8691 4.1183-0.5133 0.33974-1.3621 1.0106-1.886 1.4906-0.52392 0.47997-0.90037 0.92439-0.83667 0.98809 0.19234 0.19258 4.9274-3.3275 4.9274-3.663 0-0.1711-1.011-1.1047-2.2467-2.0741-1.1713-0.91896-2.0559-1.519-2.4338-1.6969zm14.715 0.25798c-0.16518-0.16493-4.4168 2.8793-4.7306 3.3872-0.17382 0.28097 0.22137 0.68823 2.3701 2.443 0.73576 0.60071 1.532 1.257 1.7698 1.4582 0.31875 0.26986 0.43208 0.28388 0.43208 0.05401 0-0.17135-0.30566-0.5478-0.67898-0.83667-1.3335-1.0318-3.0245-2.7045-3.0245-2.9912 0-0.16048 0.8919-0.99424 1.982-1.8527 1.0898-0.85847 1.9357-1.6062 1.8802-1.6618zm-10.883 6.7139c-0.3865 0.1715-1.0309 0.57752-1.9675 1.2335-1.9517 1.3671-2.4516 1.8518-1.9096 1.8518 0.11604 0 0.92143 0.55599 1.79 1.2355 0.86835 0.67947 2.1711 1.6998 2.8949 2.2669 0.72366 0.56713 1.3903 0.92738 1.4814 0.80097 0.09111-0.12617 0.36393-0.38541 0.60663-0.57577 0.39035-0.30665 0.52121-0.26905 1.1424 0.32598l0.70213 0.6727 2.5606-2.0369c3.3556-2.6692 3.1778-2.5431 3.1778-2.2655 0 0.22048-0.78243 0.88148-4.4649 3.7734-1.8782 1.4747-2.1502 1.9152-1.4756 2.3875 0.28344 0.19851 1.7637 1.3525 3.2897 2.5641 2.7221 2.1614 3.368 2.5643 2.9695 1.8522-0.21628-0.3864-4.2667-3.9126-5.1869-4.5156-0.31011-0.2032-0.56372-0.50205-0.56372-0.66401 0-0.16197 0.72618-0.82741 1.6135-1.479 2.6095-1.9159 4.3124-3.5786 4.2287-4.1279-0.07531-0.4938-3.4092-3.1774-3.9474-3.1774-0.16246 0-0.73813 0.38724-1.2798 0.8598-0.5417 0.47257-1.1052 0.86143-1.2519 0.86415-0.1469 0.0027-0.41692 0.28468-0.60036 0.62737-0.1832 0.3427-0.41432 0.59256-0.51308 0.55552-0.36368-0.13654-2.9317-2.6868-2.8754-2.8556 0.09407-0.28208-0.03449-0.34512-0.42099-0.1736zm-3.9166 3.5245c-0.14428-0.04481-0.17215 0.05599-0.17215 0.27487 0 0.32615 0.9436 1.2594 2.8206 2.7892 1.5513 1.2646 2.7937 2.4054 2.7608 2.5357-0.03308 0.13012-1.2461 1.1301-2.6957 2.2221-1.5629 1.1775-2.6991 2.2161-2.7907 2.5525-0.08518 0.31183-0.11329 0.60086-0.06317 0.64184 0.09901 0.08049 2.8821-2.0237 4.6318-3.5025 0.59626-0.50392 1.3461-1.0808 1.6666-1.2818 0.32048-0.20122 0.583-0.4797 0.583-0.61871s-0.95728-1.0297-2.1276-1.9795c-1.1703-0.94982-2.2565-1.8384-2.4135-1.9742s-0.75475-0.61327-1.3285-1.0609c-0.46602-0.36356-0.7271-0.55362-0.87138-0.59844zm14.801 1.3661c-0.07703-0.07728-0.56083 0.21105-1.0754 0.63992-0.51454 0.42911-1.6275 1.3041-2.4734 1.9448-1.3562 1.0274-1.9227 1.7706-1.3633 1.7886 0.10172 0.0035 1.074 0.78704 2.1604 1.7418 2.9551 2.5974 4.0193 3.0349 1.2818 0.52708-2.1527-1.9717-2.6396-2.4747-2.6396-2.726 0-0.13308 0.68446-0.78072 1.521-1.439 1.9853-1.5621 2.7613-2.3046 2.5885-2.4771zm-14.91 0.271c-0.05901 0.05926 0.37109 0.53249 0.95624 1.0522 1.3308 1.1822 2.6801 2.6169 2.6826 2.851 4.94e-4 0.09752-0.83232 0.87292-1.8508 1.723-1.0185 0.84983-1.8517 1.6866-1.8517 1.8595s0.02765 0.31324 0.06172 0.31201c0.27159-0.01062 4.8844-3.7993 4.8271-3.965-0.10839-0.31356-4.6983-3.9593-4.8252-3.8326zm4.721 6.3192-2.3316 1.8619c-1.2824 1.0239-2.3316 2.0428-2.3316 2.264s1.2777 1.4377 2.8393 2.7033c1.5616 1.2654 2.8618 2.4409 2.8895 2.6117 0.0279 0.1711-1.2217 1.2503-2.7766 2.3986-2.7959 2.0638-3.4512 2.827-2.7934 3.2512 0.28073 0.18122 0.27922 0.25243-0.0097 0.43835-0.58639 0.37776-0.15404 0.89022 2.7356 3.2445 1.5367 1.252 2.8218 2.3472 2.8566 2.4333 0.03457 0.08641-1.2708 1.1393-2.9011 2.3398-1.6303 1.2007-2.9638 2.2756-2.9638 2.389 0 0.51602 0.59234 0.48212 1.1926-0.06847 1.0185-0.93427 2.264-1.7332 2.264-1.452 0 0.13925-0.60594 0.67463-1.3459 1.1897-0.74021 0.51503-1.3986 1.0635-1.4635 1.2191-0.06493 0.15555 0.51261 0.77717 1.2837 1.3816 0.77107 0.60441 2.0432 1.6311 2.8263 2.2819 1.3367 1.1103 1.4518 1.1583 1.871 0.7788 0.60096-0.54367 1.2026-0.50977 1.5769 0.08921 0.16962 0.27159 0.36487 0.48773 0.434 0.47982 0.31332-0.0358 5.8046-4.4035 5.8046-4.6168 0-0.29653-2.9388-2.7761-3.2902-2.7761-0.14024 0-0.40158 0.14041-0.58108 0.31151-0.99896 0.95377-3.1277 2.6512-3.324 2.6512-1.9257-1.8369-1.8549-1.8949-3.4218-3.2102-0.07185-0.11604 0.64214-0.84667 1.5865-1.6237l1.7167-1.412-1.803-1.3936c-0.9918-0.76638-1.9852-1.5556-2.2067-1.7534-0.22172-0.19752-0.89654-0.7486-1.4997-1.2239-1.0493-0.82662-1.3559-1.2345-0.92876-1.2345 0.10888 0 1.3589 0.93526 2.7776 2.0784 2.5658 2.067 2.5823 2.0759 3.0892 1.6048 0.6575-0.61058 0.81593-0.59723 1.5774 0.13261l0.63221 0.60567 2.903-2.2284c1.5967-1.2259 2.8342-2.3409 2.7492-2.4781-0.32764-0.52985-3.1416-2.4309-3.5983-2.4309-0.26468 0-0.41845 0.1015-0.34191 0.2252 0.07654 0.12394-0.33366 0.59323-0.91141 1.0426-0.57774 0.44936-1.2301 1.0147-1.4496 1.2562-0.21974 0.24147-0.46234 0.43884-0.53913 0.43884-0.19184 0-3.2408-3.0211-3.2408-3.2077 1.2034-1.3161 1.1442-1.398 2.0723-2.2519 0.91847-0.76687 0.90602-0.7968-0.8598-2.0866-1.8668-1.3639-5.0787-4.119-4.9506-4.2469 0.07012-0.07037 0.26912-0.01528 0.4422 0.12248 3.3527 2.6663 5.2521 4.0198 5.3266 3.7961 0.05086-0.15308 0.3162-0.39803 0.58977-0.54444 0.4106-0.21974 0.61856-0.15075 1.1901 0.39687l0.69199 0.66354 2.6497-2.02c1.4572-1.111 2.8011-2.0779 2.986-2.1488 0.57429-0.22048 0.3944-0.44363-1.5373-1.9048-1.8451-1.3955-1.8823-1.4105-2.3996-0.96735-0.28912 0.24764-0.66416 0.56103-0.83329 0.69682-0.16937 0.13579-0.47385 0.3859-0.67656 0.55552-0.2027 0.16986-0.44343 0.30862-0.53528 0.30862-0.0916 0-0.3785 0.24472-0.6375 0.54348l-0.47114 0.54298-1.5147-1.5152c-1.2989-1.2989-1.469-1.5696-1.194-1.9009 0.01844-0.43968 0.04612-0.41719 0.10851-0.63221zm10.132 4.5662c-0.22959 0.06373-0.89753 0.49039-1.8701 1.2422-0.99698 0.77082-2.5088 1.918-3.3596 2.549l-1.547 1.1472 0.88827 0.7841c1.5742 1.39 5.7859 4.5254 5.7859 4.3072 0-0.18715-3.525-3.3376-5.1074-4.5647-0.56417-0.43751-0.5733-0.48541-0.17457-0.92588 0.2311-0.25554 0.5159-0.46486 0.63268-0.46486 0.22246 0 2.3766-1.6942 3.9924-3.1403 0.78057-0.6986 0.98908-0.9978 0.75951-0.93407zm-14.877 0.74262c-0.08938 0.08962 0.22612 0.50123 0.70115 0.91479 0.47528 0.41331 1.3362 1.1669 1.9135 1.6743 0.5933 0.5217 1.0493 1.1424 1.0493 1.4288 0 0.32616-0.5574 0.94923-1.5677 1.7534-0.86242 0.68614-1.7093 1.4177-1.8821 1.6261-0.17283 0.20814-0.21737 0.3767-0.09886 0.37373 0.20542-0.0049 3.1598-1.981 4.6815-3.1312l0.719-0.54298-0.56034-0.39976c-0.30813-0.21999-1.513-1.1787-2.6769-2.13-1.1639-0.9513-2.1891-1.6566-2.2785-1.5672zm14.722 0.59508c0.20332-0.29297-0.03915-0.1975-0.8738 0.49814-0.50936 0.42442-1.5649 1.2167-2.3455 1.7611-0.78094 0.54442-1.4197 1.1278-1.4197 1.2962s0.24986 0.51437 0.55552 0.76867c0.30542 0.25455 1.2222 1.037 2.0369 1.7389 2.2695 1.9554 2.451 1.8598 0.30717-0.16203-1.053-0.99352-1.9135-1.9379-1.9135-2.0991 9.88e-4 -0.16098 0.83474-1.0475 1.8532-1.9699 0.94723-0.85798 1.5964-1.539 1.7997-1.832zm0.18132 10.192c-0.13999-0.13999-0.25739-0.05722-3.9353 2.765-1.574 1.2076-2.8616 2.2776-2.8616 2.3774 0 0.16394 1.9971 1.7707 3.368 2.7097 0.29751 0.20369 1.2171 0.89728 2.0432 1.5412 2.6305 2.05 1.6143 0.79914-1.4853-1.8286l-2.987-2.5327 0.57965-0.44365c1.8061-1.3826 5.3787-4.4881 5.2785-4.5884zm-14.837 0.93889c-0.39183 0 0.14085 0.58574 1.8676 2.0533 1.0864 0.92341 1.9698 1.8669 1.9632 2.0967-0.0067 0.22962-0.63416 0.91758-1.3941 1.5287-0.7602 0.61108-1.6711 1.3574-2.0249 1.6588-0.35356 0.30122-0.5317 0.55014-0.3959 0.5531 0.42837 0.0094 4.9202-3.5581 4.8059-3.8168-0.11357-0.25653-4.6313-4.0738-4.8217-4.0738zm14.706 0.47064c0-0.23258-2.1767 1.3698-3.8269 2.8171l-0.9876 0.86608 0.7407 0.71562c0.40738 0.39356 1.4404 1.2927 2.2964 1.9974 0.85576 0.70465 1.6335 1.2785 1.7283 1.275 0.1632-0.0059-0.48728-0.63764-2.864-2.7816-0.57058-0.51479-1.0333-1.0703-1.0281-1.2345 0.0052-0.16419 0.52017-0.68784 1.1443-1.1631 1.8164-1.3831 2.7969-2.2564 2.7969-2.4922z" fill="{{ border_color }}" stroke-width=".2469"/>
 <path d="m115.75 207.14c-0.323 0.324 0.285 1.214 1.352 1.978 1.067 0.765 3.739 2.767 5.939 4.45 4.035 3.085 5.545 3.741 5.446 2.364-0.084-1.172-12.078-9.451-12.737-8.792z"/>
</svg>
