<?xml version="1.0" encoding="UTF-8"?>
<svg width="316.8" height="615.65" enable-background="new 0 0 1357.952 1628.382" version="1.1" viewBox="0 0 316.8 615.65" xmlns="http://www.w3.org/2000/svg">
 <path d="m62.338 0c-1.7014 0.58865-3.4481 1.0384-5.166 1.582-21.365 8.673-16.984 35.572-5.2949 35.975 1.007-2.318-1.4437-3.3316-2.5547-4.9316-4.249-8.177 5.8785-9.1374 6.3535-15.773-0.792-3.007-3.7103-5.0734-6.8203-4.1484 3.11-6.783 10.539-11.241 17.855-11.752-3.125 2.54-6.2352 5.8144-6.3242 10.109 1.777-0.355 3.561-0.72626 5.375-0.82226 0.133 2.288-0.16852 4.5692-0.22852 6.8652 2.673-0.089 5.2635-0.86725 7.6035-2.1562-2.918 3.947-4.8785 8.4351-7.3145 12.664-1.251-0.496-2.4964-1.016-3.7324-1.541 0.533-2.051 3.05-3.8563 1.584-6.0703-1.096-1.511-2.9401-0.26803-4.3691-0.082-1.447 8.646 2.9923 6.813 5.5703 9.709-1.545 22.765-1.6936 8.0138 1.0664 24.969-0.77 4.176-4.3408 6.8937-7.2148 9.6777 2.977 3.214 7.6876 0.49611 11.309 0.0371 1.873 1.644 3.1176 4.0225 4.6426 6.0215-0.244 3.236-2.0072 6.1907-1.9922 9.4707-0.271 7.055 8.2991 5.4822 7.2871 1.5332 0.067-2.607-2.8356-2.7322-4.7246-2.4512-0.081-2.266-0.02148-4.7026 1.1035-6.7246 2.962 1.214 5.161 3.8138 7.709 5.7168 3.577 2.933 4.1096 7.7675 4.4356 12.062-0.992 2.999-4.3832 3.829-6.9902 4.873 0.03 0.437 0.09581 1.311 0.13281 1.748 1.711 1.577 4.1325 2.414 6.4355 2.584 9.97-2.394 7.2616-10.139 2.4727-18.766 8.827 5.917 14.663 19.448 15.32 24.133-1.17 0.481-3.0355 0.41612-3.2285 2.0371-0.87399 2.34 2.3918 2.828 3.7988 3.916-1.748 5.132-3.4296 11.198-8.6426 13.871-6.384 3.934-17.806 1.6947-19.186-4.6953-0.111-1.962-0.45226-4.3917 1.3027-5.7617 1.618-2.229 8.232-4.7884 8.375 6.7246 5.774 0.462 9.8447-11.131-0.44531-16.299-8.53-2.593-20.451 11.687-6.3008 22.289-0.0046 0.40691 4.22e-4 0.81935 0.0039 1.2305 0.0018 0.21731-4.67e-4 0.43012 2e-3 0.6504-1.688-0.381-23.125-8.6539-26.754 7.7461-0.333 1.881-1.6083 3.9546-0.7793 5.8066 3.295 1.866 4.0283-4.066 7.2793-3.584 3.384 1.437 7.228 3.5403 10.916 1.8223 3.925-1.91 4.7527-6.8638 3.5977-10.715 9.526 1.329 20.247 5.6796 29.881-10.361-2.605 12.33-13.68 17.767-21.941 42.818-10.642 3.576-11.426 8.5572-13.115 12.367-4.221-1.08 0.2989 3.3568-9.7461-13.16 0.081-0.215 0.2385-0.62975 0.3125-0.84375 10.768-0.902 19.432-4.678 18.52-15.418-7.512 5.407 0.53175 2.4393-27.074 7.1973-1.356-0.405-10.406-6.8462-23.865-6.7012-3.658 0.067-7.2067-0.91904-10.762-1.623-3.332-0.63-5.6565-3.9388-9.2695-3.5098 5.33 21.654 26.734 13.684 38.174 18.766-1.807 3.436-2.6735 7.2271-3.0215 11.078-17.744-4.91-14.168-1.1557-22.074-2.7617-0.829-0.541-1.3866-1.3861-2.0156-2.1191 0.97-0.452 2.1188-0.59122 2.9258-1.3242 0.096-0.87399 0.13395-1.7406 0.12695-2.5996-1.563-0.2-3.3932-0.99157-4.7852 0.14843-3.018 1.849 0.42605 7.5364 4.873 8.5684 5.776 0.429 11.796-0.87478 17.365 1.1992-2.177 0.903-17.991 0.78217-23.236 13.16-1.748 5.94-2.9214 14.112-10.109 17.268-0.059 0.318-0.18514 0.96307-0.24414 1.2891 26.139 1.743 12.371-29.764 37.256-29.664 7.96 15.879 11.068 11.321 15.307 18.84-2.355-1.414-4.5464-3.6594-7.5234-3.1934-0.785 1.192-1.1847 3.1545-3.0137 2.8945-3.821-0.156-7.9539 2.4002-8.2949 6.4512 0.237 3.473 3.0814 5.7315 5.3984 7.9375 2.05 10.053 14.686 1.5635 17.885 0.0215 0.467 0.037 1.4 0.11925 1.873 0.15625-0.755 4.199-1.5032 8.4351-2.9922 12.455-6.871 14.482-4.841 7.9023-8.709 13.404-1.54 2.11-3.5921 3.8133-6.1621 4.4863 1.393-5.184 3.5825-8.7834-0.68945-15.941-6.914-12.865-20.835-6.802-15.156-26.711-2.762 0.511-3.9406 3.4726-5.5176 5.4726-2.673 3.643-2.4138 8.2571-2.7988 12.537 5.69 16.422 23.965 10.052 22.785 21.607-1.658 7.767-5.4466 8.1374-9.2266 19.357-0.013-1.353 3.1647-31.016-17.779-30.91-12.083 4.488-7.1714 16.237 0.80664 13.354 1.2-0.637 0.88841-2.2001 1.1914-3.2891-1.851 0.104-4.1475 1.5335-5.6875-0.10351-1.607-2.155 0.157-5.0359 1.875-6.5469 3.888-1.6 8.4646 0.074 11.227 3.043 5.193 6.044 7.1017 11.048 5.6797 34.93-1.696-2.325-2.3407-5.2417-4.1777-7.4707-3.854-4.996-12.849-12.752-18.52-12.633 4.421 4.28 8.6492 8.9889 11.115 14.713 4.813 12.753 2.2091 38.059 22.83 46.557-10.803-2.978-14.031-9.2726-24.223-11.1-6.233-1.405-2.0198-10.725-1.5918-15.256 1.853-8.969-4.8392-17.083-10.367-17.32-5.812-0.739-7.8427 6.0896-5.4277 11.559 0.778 0.156 1.5625 0.27314 2.3555 0.36914-0.156-2.599-1.1408-5.0782-1.0078-7.6992 1.437-0.422 2.9618-1.4371 4.4648-0.70313 2.229 1.125 3.6359 3.5686 3.5469 6.0566-1.894 5.598-7.3768 11.904-4.2578 16.787 1.422 2.118 4.2071 1.4208 6.3691 1.6348 0.326 1.274 0.71089 2.5494 0.96289 3.8594-1.081 1.17-3.022 0.74125-4.459 1.2812-3.703 0.741-5.5323 4.3688-7.5312 7.1758-1.355 1.896-4.2881 2.6572-4.5391 5.2422 9.447 4.22 2.6837 7.4774 15.307 11.9 0.022 1.148 0.03774 2.3027 0.05273 3.4727-1.363 0.089-2.7181 0.17077-4.0801 0.25976-5.117 6.193 0.94131 9.1546 1.5703 14.559 0.496 2.081 0.32576 4.724-1.7402 5.916-2.614 1.837-6.1535-1.9399-4.6055-4.5469 0.874-0.807 1.9171-1.3985 2.8281-2.1465 0.267-2.57-3.1615-1.8957-4.0645-0.34766-2.014 3.007-1.1852 7.3464 1.6738 9.5234 2.888 1.318 6.7089 0.94009 8.7969-1.6289 7.638-10.08 1.3033-16.493 2.2812-24.83 20.777-5.037 7.3915-6.1227 29.146-11.471-25.695 8.417-14.292 35.462-29.621 53.02-1.896 2.599-5.0641 3.9919-6.6641 6.8359 9.098 1.429 17.378-10.245 19.631-12.863 0.17 0.222 0.51083 0.66567 0.67383 0.88867 0.822-0.444 1.0804-1.4967 1.6504-2.1777-0.506 14.341 12.583 16.898 14.604 28.162 0.202 8.736-10.704 8.6608-17.654 16.678-1.095 2.009-2.4019 9.9478-0.29492 10.426 2.347-1.725 4.4208-3.9037 7.1758-5.0137 5.578-2.11 18.42-5.72 14.846-20.082-0.504-3.14-2.6495-5.6273-3.5605-8.6113 10.495 3.464 20.568 26.31 18.297 31.057-2.007-1.844-3.6288-4.3923-6.4648-5.0293-2.547-0.674-6.8574-0.9995-7.1094 2.5625-2.562 0.185-5.3158 0.27497-7.5078 1.793-3.357 3.341-3.1208 8.4877 3.9102 10.803 0.067 1.029 0.09595 2.0818 0.25195 3.1328 0.859 1.081 2.1686 1.6448 3.3086 2.3848-4.051 2.755-6.6125 7.1224-7.5605 11.898-20.659 5.154-13.849-8.895-21.711-18.416-3.266-2.747-7.9468-3.726-12.094-3 0.03 0.778 0.05808 1.5711 0.08008 2.3711 1.814 0.444 4.1543 0.39973 5.1543 2.3027 2.821 4.28 0.74949 9.753 2.8965 14.248 4.763 9.821 10.449 8.8037 21.385 7.7617-4.129 4.442-14.793 5.1949-17.32 6.0859-3.151 0.89999-4.2946 7.7851 3.1094 6.1621-0.363-1.37-0.90225-2.6675-1.4062-3.9785 15.638-2.647 13.127-4.5312 18.764-7.7012 0.059 5.894 2.4085 11.952 7.0215 15.773-7.018 3.246-10.784 0.0831-26.586 1.0371-5.671 0.363-15.486 6.4224-13.729 12.484 10.916-1.565-3.3747-2.1152 28.531-2.1602 4.91-0.459 9.561-2.6 13.582-5.377 1.074-0.652 1.9851-2.1186 3.4141-1.6816 10.107 2.503 13.53-0.75091 18.727 10.205 2.106-0.097 2.9556-5.302 2.9336-7.332-2.27-7.315-7.612-11.219-14.959-11.582 5.578-10.958 3.1357-10.517 5.0137-17.52 1.17 1.644 3.2732 3.0069 2.9102 5.2949-0.438 7.428 5.2125 14.237 15.854 13.869 4.119 15.623 11.799 17.602 14.449 37.107-1.033-7.89-7.2956-13.084-18.766-9.3594-2.977 0.696-6.4723 1.9475-9.2793 0.10352-1.237-2.266-0.35371-5.991-3.3457-6.998-3.058-2.066-7.0585 0.47267-9.8945-1.9863-2.755-1.57-2.1545-5.0122-2.4355-7.6562-2.579 2.217-8.4543 21.068 15.93 20.564-7.716 3.666-17.055 3.5028-24.682-0.32618 0.955-0.55499 1.918-1.0896 2.873-1.5996 0.563-2.666-2.2501-5.1612-4.7461-3.7402-2.088 1.626-5.1707 8.7628 12.404 10.59 6.754 0.393 12.677-3.525 19.186-4.539-16.262 8.214-13.432 16.561-7.9238 18.424 2.888 0.541 4.7472-3.1032 3.1992-5.3691-1.177-0.17-2.3554-0.3267-3.5254-0.4747 1.392-4.702 4.9471-8.5735 9.123-11.018-4.945 9.58 3.8383 22.861 12.197 15.883 1.57-2.792 2.9174-6.5538 1.2734-9.5528-1.622-0.881-3.0671 1.4081-4.7031 1.6231-7.042 2.272-8.9522-12.496 3.0078-12.391 9.17 0.568 10.876 13.653 10.16 18.773-1.222 0.444-3.1928 0.2806-3.3848 1.9766-0.563 1.666 1.3267 2.5915 2.2227 3.6875-1.94 9.686-8.6579 17.573-16.381 23.342 1.459-2.474 11.666-12.204 3.4219-19.447-2.377-2.584-6.2053-2.4054-9.3223-1.5684-0.015 2.192 2.1918 3.0732 3.5098 4.4512 2.31 2.214 2.2292 5.7077 2.1992 8.6777 0.123 6.328-8.7011 14.105-11.871 12.627 0.341-1.888 1.7494-4.2069 0.06836-5.8359-1.822-1.644-5.9847-0.9319-5.8887 2.0371 0.385 3.029 3.6584 4.0867 5.7324 5.8047-1.799 1.622-3.5239 3.3245-5.0859 5.1835-3.725-0.866-7.5017-1.6727-11.346-1.6367 0.081 0.985-0.53255 2.4598 0.68945 3.0078 2.377 1.444 5.1103 2.9186 6.3613 5.5176-0.03 2.451-0.91161 4.7902-1.4746 7.1602-3.465 12.325 0.03536 24.452 0.19336 25.976-3.042 2.61-9.8309 3.8227-7.5469 9.5157 1.037 1.281 2.8373 1.0755 4.2812 0.8535 0.244-2.014 0.16889-4.1772-1.9121-5.1172 1.911-1.289 3.7852-2.6816 5.9102-3.5996 3.76 8.88 6.2572 11.343 7.8732 15.409-1.844-0.674-6.3977 0.79588-8.3677 0.73688-0.5471 7.425 3.4869 10.885 6.2165 14.714-5.08-0.985-13.64-4.6668-18.342-6.7848 1.515-3.255 4.2729-5.6748-0.37109-12.551-1.674-2.621-2.636-6.3553-0.91797-9.1543 1.363-1.962 3.5689 0.3269 5.2129 0.6679 0.57-3.206-3.6212-4.488-6.1172-4.125-7.039 2.673-9.0857 16.494-2.7617 23.844 3.784 4.021 9.3008 5.5099 14.551 6.5019 5.9428 2.3699 6.684 2.3083 7.8016 3.8255-0.18316 0.4553 5.7302-0.53902 5.4437-0.10382l9.1842 0.13465c-0.20531 0.61178-1.7942-2.4059 0.9522-3.6436 1.888-0.881 4.725 0.2957 4.791 2.5547 0.33236 2.1287 1.8695 0.86177-0.18699 1.0683-3.8806-0.0552-0.80056-0.37249-0.383-0.114h11.432c-0.62151-0.7789-1.2639 0.81458-2.1035 0.21858 4.947 0.059 11.473 0.0595 16.685-0.5332-1.2338 0.7649-0.94432-0.63168-2.0522 0.31462h3.0189c1.1347-0.9071 0.46105 0.0382 1.004-1.8906 3.5e-4 0.1437-2e-3 1.7324-2e-3 1.8906h6.3029c0.82311-233.24-0.96412-365.62-0.08173-615.65h-6.0898c0.50669 19.499 0.0572 246.06 0.24414 264.35-4.887 1.474-8.4416 6.1158-9.1816 11.092-0.955 3.214 0.16945 6.4349 0.93945 9.5449 0.763 1.777-0.84417 3.2376-1.3262 4.8516-1.051 3.325-0.45141 6.8499-0.19141 10.256-1.955 1.947-4.2284 4.0196-6.9394 4.7676-4.947-2.681-10.737-3.2812-16.268-2.9922-3.606 0.096-6.991 3.5774-10.502 1.4004 7.25-5.124 17.098-5.8352 25.066-1.9922 8.138-64.657-24.687-45.02-15.387-35.611 1.6 1.97 4.9677 0.33343 5.2637-1.9766-1.999 0.326-4.0208 0.25767-5.7168-0.98633 0.2-1.992 0.65992-4.4949 3.0449-4.8359 2.533-0.185 5.6584 0.0756 7.3164 2.2676 6.991 7.881-13.853 16.305 1.6055 28.08 3.221 2.303 2.3118 6.7524 2.1348 10.15-1.628-0.89399-15.807-18.035-28.563-0.91796-2.229-2.073-4.4953-4.4789-5.1543-7.5449 2.94-0.289 5.9616-2.0584 6.7246-5.0644 1.496-8.724-13.104-15.994-5.1113-30.273 4.818-8.49 12.244 1.4803 7.9531 6.0723-2.125 0.23-4.4361-2.0879-6.2871-0.16992-0.518 3.421 3.3255 4.628 5.7695 5.791 1.342 6.261 3.9545 10.013 10.396 9.0859-0.896-2.947-4.4934-4.2134-4.9824-7.4414-0.148-4.073 1.3694-8.227 0.06641-12.248-1.2-5.969-9.0796-9.5172-14.182-5.9922-6.912 4.88-11.118 17.753-8.6113 26.459 1.344 13.499 9.7092 20.852 11.285 23.639-1.155 2.844-4.6211 4.0652-7.4941 4.1172-0.711-1.925-2.0133-4.1183-4.3613-4.0293-1.77-0.044-2.1918 2.0362-3.0508 3.1992-4.918-1.256-13.892-7.371-9.9082-14.957 5.645 0.412 3.0559 5.8245 2.7559 7.1445 7.766 0.18999 14.698-19.492-3.541-22.727 5.084-22.305 21.314-39.144 25.053-31.908 0.289 2.34-1.5194 4.1091-2.1934 6.2051 6.802 0.259 7.4874-13.95-4.3906-9.1445-3.11 0.918-4.5018 4.102-7.0938 5.791 1.422-2.732 3.5615-4.984 5.3535-7.457 1.281-1.94 3.867-1.8146 5.873-2.3106 11.914-2.133 15.721 10.456 20.793 10.805 3.384 1.037 6.7987-1.2592 10.139-0.15625 3.606 1.585 6.9896 3.999 8.7676 7.627 0.481 0.037 1.437 0.11144 1.918 0.14844 0.074-0.489 0.22269-1.4602 0.30469-1.9492-8.018-14.227-23.835-21.384-38.092-19.504 2.247-0.611 4.4425-1.472 6.6055-2.332 7.717-3.068 34.22-6.0785 27.051 4.2715-1.311 0.052-2.6284 0.11177-3.9394 0.25977 2.727 6.193 12.584-3.4404 4.5527-8.2734-3.132-1.926-7.0412-1.5022-10.492-0.86524 31.871-12.315 18.32-33.096 18.551-40.24-7e-3 -2.888 1.6222-5.4212 1.9922-8.2422-15.66 4.324-9.9899 23.777-10.547 31.066-3.276 14.817-20.334 17.979-22.307 18.727-0.344-0.072-1.2292 0.0952-1.5762 0.15625 0.627-2.438 4.9777-7.1578-0.27734-7.7598-2.608 3.979 2.2636 7.4427-14.025 12.055 2.747-4.465 5.2945-9.1008 6.7305-14.174 1.34-3.221 0.46721-7.4271 3.6582-9.6641 4.033 6.453 13.447 11.031 16.527 3.8945 12.674-2.095 8.5876-9.8728-0.0664-11.551-0.703-5.228-7.5246-5.6802-11.227-3.4512 7.601-9.666 1.7236-12.025-0.52539-13.736-0.948-1.785-1.451-3.7697-2.377-5.5547 2.022-4.051 6.4651-6.9762 11.078-6.4062 0.644 4.443 3.035 9.7011 8.041 10.33 2.562 1.14 5.1996-2.8284 2.9336-4.6504-1.785-1.696-4.1924 1.7698-6.0664 0.13281-1.696-1.222-2.273-3.3257-2.377-5.3027 6.927 0.92 18.054 5.8956 22.896-4.7324 1.17-2.621 2.1632-5.4045 1.9492-8.3144-2.444 0.72599-3.9478 3.0354-6.2578 4.0644-5.517 2.777-11.819 0.84355-17.691 1.3106 1.157-7.865 8.892-19.421 13.293-26.324 2.935 5.949 5.935 6.6856 11.582 5.9316-0.459-2.503-2.3985-4.3319-3.2285-6.6719-3.335-8.917 0.46149-12.017 0.0215-24.705 0.563-0.141 1.6813-0.43712 2.2363-0.57812 1.074-2.755-2.1327-3.8499-2.7617-6.1309-1.513-4.419-3.2512-14.817-18.699-24.949 8.663 2.44 12.913 10.874 19.277 11.227 1.837-6.565-10.867-10.382-17.158-13.018 2.162-0.23699 4.2644-0.881 6.4414-1 2.333 0.955 4.4792 2.5705 7.1152 2.5625-0.696-1.881-1.9986-3.4064-3.1836-4.9844 2.384-1.696 5.2575-2.9919 6.7305-5.6719 6.013-10.555 6.6151-21.131-5.1309-26.488 2.141-11.316-0.94028-13.496 1.6367-19.408 1.007-3.095 3.3555-5.4281 4.9395-8.2051-10.464 2.104-22.112 12.346-19.689 22.74-7.309-3.792-15.53-5.1613-23.35-7.5312 1.562-6.02 5.8571-10.692 9.6191-15.439-0.022 3.525 0.1408 7.3983 2.5918 10.197 1.837 1.496 2.9832-1.762 4.7832-1.873 1.548 0.385 2.7929 1.7617 4.4219 1.7617 3.014-2.829 2.5328-7.293 1.7988-10.959 2.829 1.452 5.8566 3.3614 9.1816 2.6504 0.304-1.792 0.0513-3.7694 0.94726-5.3984 1.015-0.852 2.2152-1.4347 3.3262-2.1387-1.163-2.51-2.9099-4.6718-4.8359-6.6348 3.547 0.126 7.1081 0.0435 10.662 0.0215-1.392 1.97-3.8431 3.7547-3.4141 6.4726 0.089 1.962 3.0212 2.7983 4.1172 1.1543 1.333-1.614-0.61533-3.2058-1.1113-4.7168 1.0586-1.6788 2.7791-2.7211 4.5332-3.5605h-24.426c2.5443 2.0554 6.6788 3.8858 5.7363 7.8281-3.8619 0.84539-9.2736-4.9415-5.9805-7.8281h-2.6348c-0.0636 0.20592 0.14112 0.44974 0.0312 0.63281-0.68068 3.1863-6.1672 2.5204-6.2246-0.63281zm19.207 127.82c-0.989-2.512-11.828-6.2257-12.98-17.137-0.244-2.303-0.49572-5.0943 1.4883-6.7383 1.133 1.155 1.777 4.3257 3.873 3.0957 0.689-1.029 0.64428-2.3629 0.36328-3.5039-0.537-5.236-12.784-2.8562-6.8281 11.635 0.977 2.562 3.3689 4.1236 5.0059 6.2266-4.169-1.244-8.0137-4.0211-12.553-3.6211-6.887 0-14.387 4.0005-16.379 10.939-1.111 3.258 2.6132 8.2862 5.9902 5.7832 2.429-2.007 0.3413-4.9979-2.0957-5.6719 2.732-6.228 10.403-9.1087 16.824-8.2207 6.398 0.807 10.915 6.6499 17.291 7.2129zm43.273-127.82c-0.92628 250.03 0.79607 382.67-0.067 615.65h4.6807c-0.50669-1.2559-2.8765-2.5597-3.171-4.1542-0.71036-2.1448-1.3486-5.3622 0.25844-7.4512 4.281-3.125 6.8478-1.0867 8.9688 3.4433-11.535 2.983 0.72025 10.297 3.0479 6.2657 3.649-6.072-9.3445-14.375-10.98-17.328-5.832-7.85 0.54005-16.744 3.998-15.107 1.992 1.103 3.6306 2.7766 5.1856 4.4356-1.637 1.725-5.3543 1.2509-5.8203 4.2949-1.577 3.843 3.9765 6.7976 6.8125 4.3906 5.626-6.596-3.2957-13.292-9.3457-18.127-4.762-3.762-4.1763-12.559 1.2227-15.418 1.992 0.326 3.518 2.0582 5.043 3.3242-0.741 1.644-3.4587 1.6366-3.5547 3.7246-0.852 3.406 3.2216 6.644 6.2656 4.711 1.192-1.503 1.8-3.6371 1.252-5.4961-1.977-2.977-4.2747-5.8484-7.3027-7.8184-10.687-7.253-7.1644-17.428-2.5684-21.039 2.162 1.437 4.2786 2.977 5.9746 4.961-1.266 0.94-2.9841 1.6823-3.4141 3.3633-0.555 2.051 0.25941 4.5091 2.0664 5.7011 1.326 0.333 2.8292 0.4303 4.1172-0.096 1.881-1.459 2.3631-4.2355 1.3711-6.3535-4.19-9.281-21.679-11.775-9.2715-28.934 1.718 1 3.8649 1.9699 4.4199 4.0879-0.955 1.718-2.9764 3.0949-2.6504 5.2949-0.178 3.51 4.4656 6.4364 7.3906 4.1114 8.327-10.924-27.781-21.48-6.2441-38.004 2.496 1.54 4.7687 3.5691 5.5976 6.4941-1.859 0.637-4.5537 0.6965-5.1387 3.0215-0.2 3.147 3.2057 5.531 6.1387 4.664 4.107-2.567 1.0616-11.062-7.1074-17.549-4.774-3.707-8.8929-12.942-0.96289-19.801 1.674 1.844 3.9829 3.4052 4.6719 5.9082-1.525 1.577-3.9608 3.2801-3.0938 5.8281 0.269 6.479 11.32 6.2048 6.5898-5.1602-2.435-6.333-20.572-17.257-7.9824-29.51 1.402-0.952 5.2285 3.5901 6.2715 5.9961-1.725 0.252-3.983-0.33909-5.123 1.3789-3.199 2.607 0.97647 9.1459 4.6055 6.7539 2.355-0.859 3.7475-3.5263 3.1035-5.9473-1.009-8.387-21.901-20.038-11.174-31.027 3.508-3.124 6.4207 0.50302 8.7227 4.791-8.153 2.855-4.4345 7.4554-1.9785 8.9824 1.585-0.304 3.007-1.1494 4.502-1.7344 4.995-10.65-10.266-14.037-13.129-25.244-1.822-4.488-0.70943-10.448 3.7266-12.936 2.377 2.496 5.494 4.8882 6.168 8.4492-7.526 3.226-3.8227 8.0344-1.4277 9.1074 4.288 0.911 7.1453-4.5174 5.2793-8.0273-3.075-9.155-12.824-10.89-14.332-21.77-0.914-6.596 4.9627-12.374 7.2227-11.842 2.466 1.896 3.1773 5.1009 3.6953 8.0039-2.31 0.852-5.0498 1.8304-5.9238 4.4004 0.604 11.729 21.797 0.56135-1.1113-18.641-8.287-6.946-5.4221-16.941-0.0371-22.082 2.681 2.377 5.569 4.8654 6.709 8.3984-2.422-0.215-4.3983 1.0892-5.2793 3.3262-1.866 2.429-0.0973 5.7156 2.3457 6.8926 1.481 0.185 3.1333-0.0878 4.3633-0.96875 8.913-8.4-6.6975-20.598-9.2285-25.393-2.562-4.287-2.9535-9.5742-1.8125-14.365 1.268-5.33 8.1947 0.18557 8.8477 3.1016-4.065 1.022-4.8563 7.323-1.3613 9.418 5.997 2.277 9.6506-9.1618 0.0586-15.883-14.235-10.292-7.7072-21.074-3.4062-20.32 1.222 0.889 2.8077 1.8444 3.0957 3.4434-0.829 1.948-2.8583 3.9526-1.5703 6.1816 0.911 2.414 4.3909 3.489 6.1309 1.334 5.963-5.627-10.804-14.361-12.693-24.475-0.098-12.541 5.635-14.43 10.041-7.2793 1.667 3.77-6.3236 2.8452-1.9766 10.367 0.859 2.236 4.3019 1.7258 5.2129-0.19922 6.551-11.604-25.658-24.298-8.5586-39.025 1.555-0.378 2.4959 1.238 3.5469 2.082 6.9 7.59 1.7673 7.1478-0.0137 7.8398-4.405 1.712-2.8937 6.1706 0.36328 6.7676 3.341 0.612 9.0818-3.285 3.1738-14.416-2.904-5.734-11.628-8.9789-12.277-19.336-0.089-3.584 1.9993-7.1602 5.1543-8.8262 1.985 0.615 3.8147 2.503 4.3477 4.584-7.168 4.018-2.5177 10.397 0.61328 9.5312 8.658-5.224 2.9744-10.434-3.9766-16.854-5.807-5.289-9.2621-16.401-1.2871-23.941 2.185 2.11 4.8358 4.0943 5.6348 7.1973-1.311 1.318-3.7107 1.4444-4.3476 3.4434-3.429 5.979 6.512 9.6243 7.584 0.36328 0.183-12.781-23.654-20.948-8.9609-34.664 2.266 1.636 4.4069 3.8282 4.6289 6.7832-1.57 1.096-3.8223 1.9916-4.0293 4.1836-0.637 2.444 1.5925 5.0867 4.0215 5.1387 1.911-0.674 3.1474-2.6883 3.8144-4.4883-0.044-5.339-2.4806-10.692-6.8496-13.869-6.912-4.897-9.3297-13.887-1.4297-19.283 1.666 0.963 3.362 1.924 4.584 3.457-1.103 1.34-2.8664 2.6003-2.6074 4.5703-0.244 2.318 1.4451 5.1169 4.0371 4.8359 15.889-7.29-23.968-21.309-6.7617-37.434 1.792 1.511 3.606 3.0211 5.332 4.6211-1.622 1.289-3.9909 2.1545-4.5469 4.3535-0.901 7.668 10.707 7.8296 7.7383-2.6074-1.525-5.139-7.2281-7.1907-9.5391-11.848-5.335-11.396-0.70885-18.013 3.2441-19.734 3.073 1.903 5.7167 4.9382 6.1387 8.6562-2.325 0.067-5.3841-0.41503-6.8281 1.918-0.457 3.93 0.92852 5.2795 5.2285 5.5625 1.844-0.755 2.8719-2.6821 3.4199-4.4961 2.26-12.506-11.537-12.777-13.381-22.852-1.23-9.535 4.1887-12.17 6.1387-12.418 2.355 0.896 3.8736 3.0287 5.4355 4.8867-0.37799-0.304-1.1396-0.91866-1.5176-1.2227-1.666 1.037-3.7316 1.9494-4.4356 3.9414-1.555 3.599 3.1316 8.1816 6.5606 5.7227 3.554-2.614 1.7396-7.6786-0.40039-10.641-2.688-4.465-7.9667-6.3672-10.803-10.699-7.015-10.715 0.7362-22.37 9.6172-13.279-10.871 1.956-5.106 10.549-0.79102 8.6426 2.799-1.785 4.39-5.4488 3.168-8.6328-1.998-4.42-16.087-7.5576-14.031-18.766 1.182-6.443 9.4324-12.505 12.773-2.4434-1.414 0.185-2.9851-0.0673-4.2891 0.63672-5.117 3.787 1.5963 12.792 6.0293 5.3027 1.066-2.288 0.44277-4.8496-0.49023-7.0566-2.488-6.953-11.994-8.7766-13.238-16.434-1.637-5.31 1.8062-10.566 6.4492-12.951 1.126 1.459 2.6954 2.7835 3.0664 4.6875-0.488 1.355-6.665 5.0795-2.666 9.7305 2.715 1.641 12.018 0.85771 3.1172-12.988-1.36-2.3996-4.635-4.0607-7.2148-6.7598zm18.102 0c-0.93472 1.3768-1.9333 2.3491-2.0293 3.5059 3.175 8.548 6.1314 8.6466-0.72461 21.475 5.383 8.475 6.9187 16.961-0.7793 23.637 5.654 7.288 7.2255 13.603-0.5625 22.334l-0.0586 0.63867c2.17 2.703 4.9393 5.2346 5.6953 8.7676 1.698 8.229 1.1675 11.742-4.9394 17.18 5.84 10.229 7.8902 16.544-0.5918 25.305 7.08 10.001 6.6263 16.156-0.88867 23.785 7.599 7.851 9.2334 16.626-0.39258 22.748 2.919 4.374 11.294 13.761 1.1699 25.244 5.896 9.697 7.1447 14.296-0.11133 24.311 7.196 8.826 6.3384 16.137-0.31054 24.557 5.755 7.146 8.7533 18.958 0.77734 28.732 9.49 13.325 1.3798 21.456 0.84375 23.059 1.921 5.65 7.79 11.125-0.74805 20.543 10.395 15.139 0.40019 23.655-1.1328 25.947 10.062 12.632 7.6657 16.668 0.51172 26.83 9.269 12.906 7.2316 19.802 0.80664 28.035 8.851 12.703 5.4069 17.392 0.50391 23.727 7.926 8.133 5.8203 18.124-0.34766 23.199 2.466 3.466 5.5616 7.1024 5.3106 11.648-0.422 4.325-2.8516 8.5003-6.7246 10.611 11.314 12.075 2.8946 22.315 1.9336 24.207 3.362 4.451 5.1763 10.065 4.1543 15.648 0.185 3.791-3.6808 5.4646-5.7988 7.9746 7.735 8.396 6.8601 15.306 1.3691 22.541-0.992 0.896 0.21502 1.9477 0.66602 2.7617 7.728 10.524 1.1551 16.251-0.16993 19.973 0.318 2.209 4.3801 4.8444 3.0371 12.566-0.526 2.984-3.0578 4.9459-4.5098 7.4629 4.568 10.35 8.6293 12.496-1.5547 22.734 2.1566 2.9244 7.1138 7.5106 5.4059 13.965h5.0424c0.78478-229.74-0.67765-409.24 0.28997-615.65zm8.877 0v615.65h6.002v-615.65zm-73.393 0.78906c0.089 2.688-2.1857 4.4648-4.0957 5.9688-1.288 0.909-2.9379 0.10945-4.3379-0.0605-1.266-4.04 4.5356-5.3772 8.4336-5.9082zm4.1914 4.6348c2.72-1.302 4.7656 7.7946 2.1406 9.6856-4.068 1.247-5.4586-5.1686-2.1406-9.6856zm17.41 19.342c1.267 5.494 1.0452 11.582-1.7988 16.566-5.545-6.874-3.1252-17.745 1.7988-16.566zm-33.117 5.4863c8.064 2.488 16.321 4.4213 24.111 7.7383-4.105 0.155-13.888-0.78405-20.178 9.0859-1.258 1.882-1.8002 4.1181-2.7402 6.1621l-0.50391-0.34766c-0.422-2.429-0.79242-4.8592-1.6074-7.1992-0.096-5.147-0.20003-10.381 0.91797-15.439zm23.732 11.348c1.8016 0.25782 3.4943 0.78154 4.7793 1.5605-4.436 3.325-10.501 4.7232-15.928 3.5312-0.64725-4.2517 5.7436-5.8653 11.148-5.0918zm12.924 1.1523c16.347 7.221 3.0424 29.516-3.1016 27.889-2.049-13.857 6.8086-9.1267 3.1016-27.889zm-5.0566 1.3926c1.023 5.931 2.1622 14.834-3.9258 13.803-0.919-3.579 0.94879-11.598 3.9258-13.803zm-8.5098 5.2578c-3.014 4.487-6.6643 8.5079-9.6113 13.047-1.421 2.111-2.5984 4.3769-4.1094 6.4199-1.822-1.703-3.3262-3.7382-4.3262-6.0332 6.398-2.664 4.3159-6.2426 18.047-13.434zm0.32617 2.0957c-0.355 5.398-0.28025 11.035 1.7188 16.137 0.755 2.259 3.1983 3.8136 3.1543 6.3086-5.991 0.84399-12.573-0.0821-17.453-3.873 3.51-6.628 8.1001-12.596 12.58-18.572zm-35.602 109.82c11.195 7.551 10.618 12.055 10.996 13.922-1.044 1.6-2.3626 3.0829-2.6816 5.0449-1.46-0.021-2.9181-0.0217-4.3691 0.0293-2.555-3.436-6.0424-5.977-9.5664-8.332-1.037-4.399 2.4361-8.1461 5.6211-10.664zm-5.4375 13.908c4.139 1.577 9.0355 5.5023 7.4805 10.486-3.488-2.54-6.5105-6.2203-7.4805-10.486zm20.289 5.4512c0.874 2.118 0.30438 4.347-0.14062 6.502 1.422-0.43 2.859-1.021 4.377-0.79102-0.057 5.401-4.0124 12.455-7.5684 11.582-3.605-3.127-5.1748-8.119-4.5898-12.791 4.226-0.422 3.4659 1.2634 5.3379-4.3906 0.859-0.052 1.725-0.0893 2.584-0.11133zm-14.535 14.727c5.715 0.618 13.342 12.414-3.0215 10.799 0.089-0.97 0.17077-1.9249 0.25977-2.8809-1.54-0.807-3.0585-1.6291-4.5625-2.4961-0.037-0.392-0.10381-1.1638-0.13281-1.5488 2.555-0.918 5.1383-0.0206 7.6562 0.56445-0.118-1.481-0.20622-2.9635-0.19922-4.4375zm26.637 1.8887c-0.052 1.555-0.65152 2.9987-1.2285 4.4277 2.71-0.435 5.9158-0.76058 8.0488 1.3574 0.948 0.615 0.54824 1.7981 0.61524 2.7461-2.266 0.541-4.5993 0.38536-6.9023 0.31836-0.926 0.733-0.69652 2.1339-1.1035 3.1699-7.046-0.7-10.372-6.2855-7.4492-8.4785 2.148-2.022 4.8945-4.015 8.0195-3.541zm-13.826 3.8281c0.7795 0.22687 1.4371 0.7954 1.6816 1.6914 0.118 2.043-2.6294 3.0713-4.1914 2.0723-1.14-0.755-1.0375-2.7402 0.10352-3.4062 0.7255-0.4705 1.6268-0.5843 2.4062-0.35742zm-16.623 36.361c-2.597 5.608-10.265 12.653-14.545 31.094 0.135-1.004-1.2581-21.993 14.545-31.094zm62.514 29.762c0.333 6.88 0.60651 13.818 0.10351 20.705-9.744-5.147-7.6355-17.479-0.10351-20.705zm-5.5606 20.461c1.955 0.852 3.7465 2.0434 5.8125 2.6504 0.252 3.184 0.15575 6.398-0.15625 9.582-3.251 0.193-5.1971-2.6955-6.8711-5.0215-0.807-2.443 0.26684-4.9669 1.2148-7.2109zm-88.463 12.988c3.058 2.051 5.7699 5.2944 9.7539 5.3164-3.429 0.607-6.6961 1.9473-9.4141 4.1543-3.821 1.844-10.566-2.6444-7.7891-7.0274 1.748-2.059 4.7982-3.1614 7.4492-2.4434zm4.6289 0.54102c4.339 0.792 8.4572 2.5094 12.574 4.0644-4.354-0.437-9.2492-0.88846-12.574-4.0644zm82.107 1.25c2.333 1.881 4.9539 3.3112 7.7969 4.2812-7e-3 1.133 8e-3 2.2884 0.0234 3.4434-2.266 0.504-3.9466 2.2068-6.0566 3.0508-2.51-2.362-4.8227-4.9478-7.6367-6.9688 1.836-1.348 3.63-3.4956 5.873-3.8066zm-18.736 1.4453c3.6092 0.3625 6.5875 1.4372 7.918 2.6367-6.495 1.34-13.27 0.688-19.623-1 3.8565-1.6495 8.0958-1.9992 11.705-1.6367zm-18.672 0.99219c0.73836 0.034 1.4598 0.21683 2.1523 0.64258-1.052 0.71099-2.0733 1.5259-3.2812 1.9629-1.984 0.06-3.865-0.79855-5.709-1.4356 2.2492-0.033 4.6228-1.2718 6.8379-1.1699zm3.4961 2.0137c0.52387-0.23313 1.0822-0.29033 1.6562 0.0762 5.998 2.577 12.692 2.94 19.113 2.207 2.125-0.118 4.1462-2.2578 6.2422-0.96875 3.081 1.726 5.2586 4.6059 7.6426 7.1309-2.733 5.235-3.1992 11.352-1.5332 17.002-0.125 9.686-1.8326 11.71 8.1523 20.172 0.729 50.88 1.4318 255.2 0.82182 259.77-2.999-0.378-7.3461-1.3843-8.7671-4.2793 1.54-0.785 2.4884-2.1923 3.0664-3.7773-5.677-3.578-7.619 6.2619 1.252 9.2129-4.569 0.037-9.2652-0.2597-13.701 0.9843 2.881-1.696 5.3701-6.5522 6.7031-9.6482-1.488-0.148-2.9692-0.2587-4.4512-0.3847-1.688-2.599-1.7327-5.7543-1.7617-8.7383-4.421 1.17-7.3324 5.5809-10.161 9.3879 1.896-5.073 0.84713-10.286-0.61187-15.455-0.274-0.052-0.81389-0.1472-1.0879-0.1992-1.333 1.644-2.7249 3.3692-4.7539 4.1992-2.599-0.193-4.1405-2.792-6.4805-3.666-1.525 2.125-1.7765 4.8367-2.7695 7.2207-2.999-3.688-6.2079-10.885-7.8439-15.366 12.481-5.75 14.173-4.0149 27.133-14.713-4.554 19.257 11.546 26.57 19.416 19.772-2.088-2.547-5.2059-4.3915-6.2129-7.6875-1.525-3.74 0.62892-7.6048 0.16992-11.426 7e-3 -1.207-0.38484-2.7022 0.78515-3.4942 10.706-10.141 5.0498-25.884-3.1992-30.592-0.17-0.829-0.34172-1.6365-0.51172-2.4355-5.435 1.496-10.892-0.8668-16.379-0.09 17.987-4.0539 21.432-5.7619 23.377-8.5449 1.297-3.838-10.326-2.0667-19.557 5.1543 5.873-5.325 9.7901-9.7208 14.039-21.217 1.525-0.222 4.1627 0.3929 4.3027-1.8281 0.511-1.925-1.6668-3.0366-2.7188-4.2656 0.718-4.688 1.3264-9.4056 1.3184-14.145 0.085-9.587 4.3797-13.647 5.1387-16.98-4.584-1.34-9.3077 2.1557-10.678 6.4726-2.814-8.442-8.5373-15.573-10.988-24.156 5.835 0.067 11.923-2.0507 17.551 0.36329 2.451 0.87399 3.7973 3.2286 5.8633 4.6426 0.563-4.613-1.1104-9.59-5.0273-12.293-5.391-4.947-13.218-3.4951-19.771-2.4961-0.703-3.651 0.4583-8.478 4.2793-9.877-0.059 1.859-0.39272 5.1473 2.4883 4.6133 3.192 0.452 4.2792-3.8955 2.1172-5.7695-6.814-4.38-11.129 3.3852-11.359 11.619-11.747 3.249-12.544-0.56352-12.219-5.3535 4.169-0.193 6.3765-4.2891 6.2285-8.0801 1.884-0.34299 7.1471 0.0794 2.5391-9.6855 2.377-0.415 4.7914-0.7335 7.1094-1.4375 0.578-1.214 0.47372-2.5842 0.63672-3.8652 1.681-0.903 3.9108-1.5108 4.5918-3.5098 1.807-4.848-0.70793-6.8002-6.4199-8.5312-3.347-7.045-12.19-4.295-15.906 2.666-0.718 0-1.4383 8e-3 -2.1562 0.0234-1.511-9.753-6.2922-18.832-12.365-26.504 13.143 3.083 8.6778 8.9041 11.967 11.537 3.406-0.533 1.7754-4.7698 1.5234-7.0508 41.772 14.546 28.325 34.371 28.385 40.744-0.491 7.354 3.381 14.33 11.959 15.705-0.644-2.762-3.2132-4.7226-3.2422-7.6855-0.965-14.162 15.133-23.02-17.936-42.588 16.594 2.053 13.538-8.8583 8.8711-9.0703-2.162-0.733-6.3018 0.21343-5.9238 2.9824 2.155 0.859 4.7986-1.2288 6.8496 0.74024-3.116 9.348-14.787 1.0816-34.855-4.2344 20.114-0.785 38.388-9.1568 38.551-17.508-3.029 0.933-4.6811 4.2071-7.8731 4.9551-6.465 1.481-13.202-2.4297-19.541 0.23633-6.985 2.355-5.0814 9.9187-19.357 7.8867-0.992-0.222-2.2214-0.18596-2.8574-1.127-4.353-5.168-10.587-16.117-12.041-19.734 3.721 4.508 5.4198 8.954 14.174 11.375 5.438 1.342 8.629-9.5978-1.252-9.2578-0.044 0.489-0.12511 1.4604-0.16211 1.9414 2.273 0.422 4.8137 1.9544 3.6367 4.6504-6.945 0.345-17.809-9.279-19.787-23.125 15.339-3.384 11.925-17.322 6.3242-22.689-1.155 1.044-1.7634 2.4576-2.1934 3.9316-1.022 0.045-2.0358 0.0527-3.0508 0.0527-2.044-6.006 4.4141-11.05 9.8281-11.398 3.589 7.039 5.7015 0.67967 7.3965-1.2363 2.584 0.481 5.2224 1.2595 6.9844 3.3555-21.517 27.677-1.6536 52.797 8.7734 45.459 7.593-3.622 0.40132-15.625 5.6953-20.252 1.807-1.503 2.5246-3.7472 2.0586-6.0352-5.774-0.315-10.811 2.9683-8.8555 11.656-8.028-2.326-6.4322 2.6054-5.0352 3.1914 1.977 1.125 4.9746 1.3856 5.5156 4.0586 0.792 2.096 0.47493 6.0572-2.5391 5.7832-5.94-0.398-7.796-11.742-4.584-17.211 4.915-8.576-4.415-13.546-4-17.564 0.866-3.066 3.4527-5.1841 5.1777-7.7461 7.174 7.082 11.921 11.592 21.09 7.5977 1.637-0.755 3.3403-1.5552 4.4883-2.9922 1.185-1.325 1.8646-3.1679 3.5606-3.9609-0.486 11.735-8.0557 10.516-7.2637 16.527-0.407 4.51 3.5765 7.5018 4.8125 11.508 2.011 7.794-4.9032 12.659-8.2852 10.523-2.421-0.748-2.904-3.4433-3.082-5.6133 1.955-0.73299 3.3853 0.74068 4.7773 1.8887 1.955-2.066-0.10442-4.9403-2.6074-4.8223-7.462 0.957-2.9464 14.773 6.7246 9.6934 8.565-2.873 7.3348-30.154 6.6348-41.49-7.813 0.478-7.7342 3.4424-22.867-2.0606-0.918-0.415-2.1613-0.60539-2.3613-1.7754 0.4405-0.337 0.92925-0.74735 1.4531-0.98047zm41.807 9.1309c0.044 2.562 0.10503 5.132 0.082 7.709-2.666 1.896-5.1841 3.9906-7.4941 6.3086-1.577-5.739 1.9171-12.004 7.4121-14.018zm-0.32617 10.805c-0.267 7.264-0.16999 14.536-0.45899 21.801-9.03-5.127-7.29-18.531 0.45899-21.801zm-78.199 18.676c5.012 16.542 9.5431 20.019 13.664 26.674-10.161-3.977-16.693-16.003-13.664-26.674zm-4.1758 9.5664c-4.023-0.065-0.27563 17.586-5.5156 27.072-6.82 8.769-15.121 2.498-10.184-4.25 1.221-0.347 2.4948-0.43553 3.7168-0.76953 0.889-0.948 0.72653-1.6653-0.48047-2.1543-7.713-0.172-8.6104 5.9086-5.8574 11.307 3.82 7.261 15.038 0.30496 17.203-8.457 1.259-7.524 0.76219-15.165 1.1172-22.748zm49.311 47.074c0 1.126-0.03526 2.2604-0.07227 3.4004 2.754 0.23 6.3595-0.77037 7.8555 2.2656-1.748 1.97-4.2654 2.829-6.8574 2.918 0.392 1.177 0.78584 2.3765 1.0898 3.6055-3.48 0.467-7.539-0.68938-9.25-3.9844-1.214-2.658 1.371-4.8502 2.793-6.7832 1.022-1.429 2.8564-1.5259 4.4414-1.4219zm-23.711 2.8965c7.783-1.274 10.726 8.9686 1 11.227-1.274 0.156-3.3687 0.62908-3.7617-1.0449 0.592-1.029 1.3019-1.9695 1.9609-2.9395-5.053-0.051-6.9675 0.73941-7.5215-4.1836 2.696-0.637 5.5156-0.51151 7.8926 1.0215-0.015-1.326-1.1253-3.2951 0.42969-4.0801zm13.662 2.1699c0.015 1.111-1.09e-4 2.2283-0.03711 3.3613-1.348 0.348-2.7259 0.43087-4.0879 0.17187 0.022-1.177 0.05995-2.3333 0.12695-3.4883 1.318-0.341 2.665-0.34192 3.998-0.0449zm-0.59961 6.3691c5.08 0.118 7.6205 6.0717 7.3535 10.471-1.251-0.57-2.4587-1.2224-3.6797-1.8144 0.578 2.288 1.11 4.7834-0.12695 6.9824-0.178 0.888-1.8883 1.1395-2.1543 0.22852-1.059-1.822-1.1269-3.9977-1.5039-6.0117-1.177 0.415-2.6568 1.9978-3.8418 0.96875-1.765-2.991 0.60713-11.489 3.9531-10.824zm-6.7246 3.998c-0.985 3.947-2.2439 8.4855 0.28906 12.145 0.859 0.141 1.725 0.29679 2.584 0.46679-5.982 34.132-18.054 12.314-17.92 4.4062 8.798-4.894 11.453-10.124 15.047-17.018zm-2.2422 0.57617c-1.421 3.792-7.8971 11.748-12.494 13.428 1.585-6.228 6.9771-10.695 12.494-13.428zm23.506 114.8c3.3195-0.4155 6.7068-0.292 9.9648 0.3965-5.699 6.468-10.353 11.43-7.584 22.394-3.014-7.146-5.6953-14.915-11.945-19.951 2.992-1.4695 6.245-2.4244 9.5645-2.8399zm14.674 2.1016c7.953 0.808 15.025 21.662 1.9551 28.287 7.724-8.862-1.2735-16.561-2.2285-20.119-0.489-2.718 0.0434-5.4649 0.27344-8.1679zm-25.717 1.6211c9.372 7.591 8.5948 17.238 14.883 22.91-16.002-8.907-2.307-1.6988-19.586-17.965 0.482-2.228 2.9481-3.6123 4.7031-4.9453zm19.844 10.502c1.539-0.6352 3.4741 0.3771 3.9121 1.4141 3.15 5.938 1.9478 7.657-0.0742 13.291-2.296-1.518-4.696-3.4424-5.377-6.2344-1.144-5.553 6e-5 -7.8354 1.5391-8.4707zm-29.826 2.7012c3.266 3.873 2.4223 9.568 5.6133 13.5 5.463 7.001 5.4599 7.8943 18.965 3.4883-5.715 6.349-21.01 11.288-25.615 13.121-1.944-6.706-2.3449-22.898 1.0371-30.109zm12.637 8.7871c0.88687-0.4194 2.0579-0.4219 2.8984 0.078 3.458 1.74 7.0653 3.3394 11.027 3.3613-8.174 6.534-14.874 3.1426-15.115-1.0214-0.3-1.1625 0.30258-1.9986 1.1895-2.418zm21.502 4.707c0.688 4.102 2.1175 8.6544-0.18555 12.527-0.911 1.903-3.4889 1.3118-4.8809 0.3418-2.142-3.458 1.3044-11.28 5.0664-12.869zm-18.494 33.472c2.559-0.958 4.0296 5.7252-0.19336 8.8282-1.11-2.718-2.3986-6.5552 0.19336-8.8282zm-10.307 6.2763c2.2639 0.4584 4.1053 2.7003 3.4551 5.1993-2.74-0.244-6.4802-1.5549-5.7832-5.0059 0.772-0.2997 1.5735-0.3461 2.3281-0.1934zm25.549 2.2322c1.008 5.073-2.3473 4.5209-6.4863 4.4589 1.037-2.577 3.4793-5.0879 6.4863-4.4589z" fill="{{ border_color }}"/>
 <path d="m254.46 3e-4c1.7014 0.58865 3.4481 1.0384 5.166 1.582 21.365 8.673 16.984 35.572 5.2949 35.975-1.007-2.318 1.4437-3.3316 2.5547-4.9316 4.249-8.177-5.8785-9.1374-6.3535-15.773 0.792-3.007 3.7103-5.0734 6.8203-4.1484-3.11-6.783-10.539-11.241-17.855-11.752 3.125 2.54 6.2352 5.8144 6.3242 10.109-1.777-0.355-3.561-0.72626-5.375-0.82226-0.133 2.288 0.16852 4.5692 0.22852 6.8652-2.673-0.089-5.2635-0.86725-7.6035-2.1562 2.918 3.947 4.8785 8.4351 7.3144 12.664 1.251-0.496 2.4964-1.016 3.7324-1.541-0.533-2.051-3.05-3.8563-1.584-6.0703 1.096-1.511 2.9401-0.26803 4.3691-0.082 1.447 8.646-2.9923 6.813-5.5703 9.709 1.545 22.765 1.6936 8.0138-1.0664 24.969 0.77 4.176 4.3408 6.8937 7.2148 9.6777-2.977 3.214-7.6876 0.49611-11.309 0.0371-1.873 1.644-3.1176 4.0225-4.6426 6.0215 0.244 3.236 2.0072 6.1907 1.9922 9.4707 0.271 7.055-8.2991 5.4822-7.2871 1.5332-0.067-2.607 2.8356-2.7322 4.7246-2.4512 0.081-2.266 0.0215-4.7026-1.1035-6.7246-2.962 1.214-5.161 3.8138-7.709 5.7168-3.577 2.933-4.1096 7.7675-4.4356 12.062 0.992 2.999 4.3832 3.829 6.9902 4.873-0.03 0.437-0.0958 1.311-0.13281 1.748-1.711 1.577-4.1326 2.414-6.4356 2.584-9.97-2.394-7.2616-10.139-2.4727-18.766-8.827 5.917-14.663 19.448-15.32 24.133 1.17 0.481 3.0355 0.41612 3.2285 2.0371 0.87399 2.34-2.3918 2.828-3.7988 3.916 1.748 5.132 3.4296 11.198 8.6426 13.871 6.384 3.934 17.806 1.6947 19.186-4.6953 0.111-1.962 0.45227-4.3917-1.3027-5.7617-1.618-2.229-8.232-4.7884-8.375 6.7246-5.774 0.462-9.8447-11.131 0.44531-16.299 8.53-2.593 20.451 11.687 6.3008 22.289 5e-3 0.40691-4.2e-4 0.81935-4e-3 1.2305-2e-3 0.21731 4.7e-4 0.43012-2e-3 0.6504 1.688-0.381 23.125-8.6539 26.754 7.7461 0.333 1.881 1.6083 3.9546 0.7793 5.8066-3.295 1.866-4.0283-4.066-7.2793-3.584-3.384 1.437-7.228 3.5403-10.916 1.8223-3.925-1.91-4.7526-6.8638-3.5976-10.715-9.526 1.329-20.247 5.6796-29.881-10.361 2.605 12.33 13.68 17.767 21.941 42.818 10.642 3.576 11.426 8.5572 13.115 12.367 4.221-1.08-0.2989 3.3568 9.7461-13.16-0.081-0.215-0.2385-0.62975-0.3125-0.84375-10.768-0.902-19.432-4.678-18.52-15.418 7.512 5.407-0.53175 2.4393 27.074 7.1973 1.356-0.405 10.406-6.8462 23.865-6.7012 3.658 0.067 7.2067-0.91904 10.762-1.623 3.332-0.63 5.6565-3.9388 9.2695-3.5098-5.33 21.654-26.734 13.684-38.174 18.766 1.807 3.436 2.6735 7.2271 3.0215 11.078 17.744-4.91 14.168-1.1557 22.074-2.7617 0.829-0.541 1.3866-1.3861 2.0156-2.1191-0.97-0.452-2.1188-0.59122-2.9258-1.3242-0.096-0.87399-0.13395-1.7406-0.12695-2.5996 1.563-0.2 3.3932-0.99157 4.7852 0.14843 3.018 1.849-0.42605 7.5364-4.873 8.5684-5.776 0.429-11.796-0.87478-17.365 1.1992 2.177 0.903 17.991 0.78217 23.236 13.16 1.748 5.94 2.9214 14.112 10.109 17.268 0.059 0.318 0.18514 0.96307 0.24414 1.2891-26.139 1.743-12.371-29.764-37.256-29.664-7.96 15.879-11.068 11.321-15.307 18.84 2.355-1.414 4.5464-3.6594 7.5234-3.1934 0.785 1.192 1.1847 3.1545 3.0137 2.8945 3.821-0.156 7.9539 2.4002 8.2949 6.4512-0.237 3.473-3.0814 5.7315-5.3984 7.9375-2.05 10.053-14.686 1.5635-17.885 0.0215-0.467 0.037-1.4 0.11925-1.873 0.15625 0.755 4.199 1.5032 8.4351 2.9922 12.455 6.871 14.482 4.841 7.9023 8.709 13.404 1.54 2.11 3.5921 3.8133 6.1621 4.4863-1.393-5.184-3.5825-8.7834 0.68946-15.941 6.914-12.865 20.835-6.802 15.156-26.711 2.762 0.511 3.9406 3.4726 5.5176 5.4726 2.673 3.643 2.4138 8.2571 2.7988 12.537-5.69 16.422-23.965 10.052-22.785 21.607 1.658 7.767 5.4466 8.1374 9.2266 19.357 0.013-1.353-3.1647-31.016 17.779-30.91 12.083 4.488 7.1714 16.237-0.80664 13.354-1.2-0.637-0.8884-2.2001-1.1914-3.2891 1.851 0.104 4.1475 1.5335 5.6875-0.10351 1.607-2.155-0.157-5.0359-1.875-6.5469-3.888-1.6-8.4646 0.074-11.227 3.043-5.193 6.044-7.1017 11.048-5.6797 34.93 1.696-2.325 2.3407-5.2417 4.1777-7.4707 3.854-4.996 12.849-12.752 18.52-12.633-4.421 4.28-8.6492 8.9889-11.115 14.713-4.813 12.753-2.2091 38.059-22.83 46.557 10.803-2.978 14.031-9.2726 24.223-11.1 6.233-1.405 2.0198-10.725 1.5918-15.256-1.853-8.969 4.8392-17.083 10.367-17.32 5.812-0.739 7.8427 6.0896 5.4277 11.559-0.778 0.156-1.5625 0.27314-2.3555 0.36914 0.156-2.599 1.1408-5.0782 1.0078-7.6992-1.437-0.422-2.9618-1.4371-4.4648-0.70313-2.229 1.125-3.6359 3.5686-3.5469 6.0566 1.894 5.598 7.3768 11.904 4.2578 16.787-1.422 2.118-4.2071 1.4208-6.3691 1.6348-0.326 1.274-0.71089 2.5494-0.96289 3.8594 1.081 1.17 3.022 0.74125 4.459 1.2812 3.703 0.741 5.5322 4.3688 7.5312 7.1758 1.355 1.896 4.2881 2.6572 4.5391 5.2422-9.447 4.22-2.6836 7.4774-15.307 11.9-0.022 1.148-0.0377 2.3027-0.0527 3.4727 1.363 0.089 2.7181 0.17077 4.0801 0.25976 5.117 6.193-0.94132 9.1546-1.5703 14.559-0.49599 2.081-0.32576 4.724 1.7402 5.916 2.614 1.837 6.1535-1.9399 4.6055-4.5469-0.874-0.807-1.9171-1.3985-2.8281-2.1465-0.267-2.57 3.1615-1.8957 4.0645-0.34766 2.014 3.007 1.1852 7.3464-1.6738 9.5234-2.888 1.318-6.7089 0.94009-8.7969-1.6289-7.638-10.08-1.3032-16.493-2.2812-24.83-20.777-5.037-7.3915-6.1227-29.146-11.471 25.695 8.417 14.292 35.462 29.621 53.02 1.896 2.599 5.0641 3.9919 6.6641 6.8359-9.098 1.429-17.378-10.245-19.631-12.863-0.17 0.222-0.51083 0.66567-0.67383 0.88867-0.822-0.444-1.0804-1.4967-1.6504-2.1777 0.506 14.341-12.583 16.898-14.604 28.162-0.202 8.736 10.704 8.6608 17.654 16.678 1.095 2.009 2.4019 9.9478 0.29492 10.426-2.347-1.725-4.4208-3.9037-7.1758-5.0137-5.578-2.11-18.42-5.72-14.846-20.082 0.50399-3.14 2.6495-5.6273 3.5605-8.6113-10.495 3.464-20.568 26.31-18.297 31.057 2.007-1.844 3.6288-4.3923 6.4648-5.0293 2.547-0.674 6.8574-0.9995 7.1094 2.5625 2.562 0.185 5.3158 0.27497 7.5078 1.793 3.357 3.341 3.1208 8.4877-3.9102 10.803-0.067 1.029-0.0959 2.0818-0.25195 3.1328-0.859 1.081-2.1686 1.6448-3.3086 2.3848 4.051 2.755 6.6125 7.1224 7.5605 11.898 20.659 5.154 13.849-8.895 21.711-18.416 3.266-2.747 7.9468-3.726 12.094-3-0.03 0.778-0.0581 1.5711-0.0801 2.3711-1.814 0.444-4.1543 0.39973-5.1543 2.3027-2.821 4.28-0.74948 9.753-2.8965 14.248-4.763 9.821-10.449 8.8037-21.385 7.7617 4.129 4.442 14.793 5.1949 17.32 6.0859 3.151 0.89999 4.2946 7.7851-3.1094 6.1621 0.363-1.37 0.90225-2.6675 1.4062-3.9785-15.638-2.647-13.127-4.5312-18.764-7.7012-0.059 5.894-2.4085 11.952-7.0215 15.773 7.018 3.246 10.784 0.0831 26.586 1.0371 5.671 0.363 15.486 6.4224 13.729 12.484-10.916-1.565 3.3747-2.1152-28.531-2.1602-4.91-0.459-9.561-2.6-13.582-5.377-1.074-0.652-1.9851-2.1186-3.4141-1.6816-10.107 2.503-13.53-0.75091-18.727 10.205-2.106-0.097-2.9556-5.302-2.9336-7.332 2.27-7.315 7.612-11.219 14.959-11.582-5.578-10.958-3.1357-10.517-5.0137-17.52-1.17 1.644-3.2732 3.0069-2.9102 5.2949 0.438 7.428-5.2125 14.237-15.854 13.869-4.119 15.623-11.799 17.602-14.449 37.107 1.033-7.89 7.2956-13.084 18.766-9.3594 2.977 0.696 6.4723 1.9475 9.2793 0.10352 1.237-2.266 0.35371-5.991 3.3457-6.998 3.058-2.066 7.0585 0.47267 9.8945-1.9863 2.755-1.57 2.1545-5.0122 2.4355-7.6562 2.579 2.217 8.4543 21.068-15.93 20.564 7.716 3.666 17.055 3.5028 24.682-0.32618-0.955-0.55499-1.918-1.0896-2.873-1.5996-0.563-2.666 2.2501-5.1612 4.7461-3.7402 2.088 1.626 5.1707 8.7628-12.404 10.59-6.754 0.393-12.677-3.525-19.186-4.539 16.262 8.214 13.432 16.561 7.9238 18.424-2.888 0.541-4.7472-3.1032-3.1992-5.3691 1.177-0.17 2.3554-0.3267 3.5254-0.4747-1.392-4.702-4.947-8.5735-9.123-11.018 4.945 9.58-3.8383 22.861-12.197 15.883-1.57-2.792-2.9174-6.5538-1.2734-9.5528 1.622-0.881 3.0671 1.4081 4.7031 1.6231 7.042 2.272 8.9522-12.496-3.0078-12.391-9.17 0.568-10.876 13.653-10.16 18.773 1.222 0.444 3.1928 0.2806 3.3848 1.9766 0.563 1.666-1.3267 2.5915-2.2227 3.6875 1.94 9.686 8.6579 17.573 16.381 23.342-1.459-2.474-11.666-12.204-3.4219-19.447 2.377-2.584 6.2053-2.4054 9.3223-1.5684 0.015 2.192-2.1918 3.0732-3.5098 4.4512-2.31 2.214-2.2292 5.7077-2.1992 8.6777-0.123 6.328 8.7011 14.105 11.871 12.627-0.341-1.888-1.7494-4.2069-0.0684-5.8359 1.822-1.644 5.9847-0.9319 5.8887 2.0371-0.385 3.029-3.6584 4.0867-5.7324 5.8047 1.799 1.622 3.5239 3.3245 5.0859 5.1835 3.725-0.866 7.5017-1.6727 11.346-1.6367-0.081 0.985 0.53255 2.4598-0.68945 3.0078-2.377 1.444-5.1103 2.9186-6.3613 5.5176 0.03 2.451 0.91161 4.7902 1.4746 7.1602 3.465 12.325-0.0354 24.452-0.19336 25.976 3.042 2.61 9.8309 3.8227 7.5469 9.5157-1.037 1.281-2.8372 1.0755-4.2812 0.8535-0.244-2.014-0.16889-4.1772 1.9121-5.1172-1.911-1.289-3.7852-2.6816-5.9102-3.5996-3.76 8.88-5.677 8.1605-7.293 12.226 1.844-0.674 3.7468-1.2066 5.7168-1.2656-0.155 2.844-0.25869 5.8432 1.5703 8.2422 1.029 0.281 2.0667 0.5541 3.0957 0.8731-0.474 2.71-2.3714 4.7242-4.3184 6.5312 5.08-0.985 9.9816-2.7257 14.684-4.8437-1.515-3.255-4.2729-5.6748 0.37109-12.551 1.674-2.621 2.636-6.3553 0.91797-9.1543-1.363-1.962-3.5689 0.3269-5.2129 0.6679-0.57-3.206 3.6212-4.488 6.1172-4.125 7.039 2.673 9.0857 16.494 2.7617 23.844-3.784 4.021-9.3008 5.5099-14.551 6.5019 5.7383 0.6313 10.581 1.5529 14.459 6.0332h-2.998c-3.9221-3.6761-9.8731-4.7224-15.098-4.7285 1.6929 1.5637 3.4659 3.0941 5.1191 4.7285h-11.01c-1.6199-0.9313-3.8551-1.2202-5.5312-1.1894 0.18316 0.4553 0.69198 0.7542 0.97852 1.1894h-5.0391c2.7837-1.0203 2.927-5.4591 0.1504-6.6777-1.888-0.881-4.725 0.2957-4.791 2.5547-0.33236 2.1287 1.7384 3.9165 3.7949 4.123h-5.9434c0.0755-0.2931 0.3099-0.4962 0.33985-0.8124-0.85495 0.1168-1.8775 0.4938-2.8692 0.8124h-11.432c0.62151-0.7789 1.2639-1.5465 2.1035-2.1425-4.947 0.059-9.8507-1.0442-14.805-0.5332 1.2338 0.7649 2.3335 1.7294 3.4414 2.6757h-2.0547c-1.1347-0.9071-2.4632-1.5684-3.9336-1.8906-3.5e-4 0.1437 2e-3 1.7324 2e-3 1.8906h-5.3516c-0.82308-233.24-1.2914-365.62-2.1738-615.65h6.0898c-0.50669 19.499-0.0572 246.06-0.24414 264.35 4.887 1.474 8.4416 6.1158 9.1816 11.092 0.955 3.214-0.16945 6.4349-0.93945 9.5449-0.763 1.777 0.84417 3.2376 1.3262 4.8516 1.051 3.325 0.45141 6.8499 0.19141 10.256 1.955 1.947 4.2284 4.0196 6.9394 4.7676 4.947-2.681 10.737-3.2812 16.268-2.9922 3.606 0.096 6.991 3.5774 10.502 1.4004-7.25-5.124-17.098-5.8352-25.066-1.9922-8.138-64.657 24.687-45.02 15.387-35.611-1.6 1.97-4.9677 0.33343-5.2637-1.9766 1.999 0.326 4.0208 0.25767 5.7168-0.98633-0.2-1.992-0.65992-4.4949-3.0449-4.8359-2.533-0.185-5.6584 0.0756-7.3164 2.2676-6.991 7.881 13.853 16.305-1.6055 28.08-3.221 2.303-2.3118 6.7524-2.1348 10.15 1.628-0.89399 15.807-18.035 28.563-0.91796 2.229-2.073 4.4953-4.4789 5.1543-7.5449-2.94-0.289-5.9616-2.0584-6.7246-5.0644-1.496-8.724 13.104-15.994 5.1113-30.273-4.818-8.49-12.244 1.4803-7.9531 6.0723 2.125 0.23 4.4361-2.0879 6.2871-0.16992 0.518 3.421-3.3255 4.628-5.7695 5.791-1.342 6.261-3.9545 10.013-10.396 9.0859 0.896-2.947 4.4934-4.2134 4.9824-7.4414 0.148-4.073-1.3694-8.227-0.0664-12.248 1.2-5.969 9.0796-9.5172 14.182-5.9922 6.912 4.88 11.118 17.753 8.6113 26.459-1.344 13.499-9.7092 20.852-11.285 23.639 1.155 2.844 4.6211 4.0652 7.4941 4.1172 0.711-1.925 2.0133-4.1183 4.3613-4.0293 1.77-0.044 2.1918 2.0362 3.0508 3.1992 4.918-1.256 13.892-7.371 9.9082-14.957-5.645 0.412-3.0559 5.8245-2.7559 7.1445-7.766 0.18999-14.698-19.492 3.541-22.727-5.084-22.305-21.314-39.144-25.053-31.908-0.289 2.34 1.5194 4.1091 2.1934 6.2051-6.802 0.259-7.4874-13.95 4.3906-9.1445 3.11 0.918 4.5018 4.102 7.0938 5.791-1.422-2.732-3.5615-4.984-5.3535-7.457-1.281-1.94-3.867-1.8146-5.873-2.3106-11.914-2.133-15.721 10.456-20.793 10.805-3.384 1.037-6.7987-1.2592-10.139-0.15625-3.606 1.585-6.9896 3.999-8.7676 7.627-0.481 0.037-1.437 0.11144-1.918 0.14844-0.074-0.489-0.22269-1.4602-0.30469-1.9492 8.018-14.227 23.835-21.384 38.092-19.504-2.247-0.611-4.4425-1.472-6.6055-2.332-7.717-3.068-34.22-6.0785-27.051 4.2715 1.311 0.052 2.6284 0.11177 3.9394 0.25977-2.727 6.193-12.584-3.4404-4.5527-8.2734 3.132-1.926 7.0412-1.5022 10.492-0.86524-31.871-12.315-18.32-33.096-18.551-40.24 7e-3 -2.888-1.6222-5.4212-1.9922-8.2422 15.66 4.324 9.9899 23.777 10.547 31.066 3.276 14.817 20.334 17.979 22.307 18.727 0.344-0.072 1.2292 0.0952 1.5762 0.15625-0.627-2.438-4.9776-7.1578 0.27735-7.7598 2.608 3.979-2.2636 7.4427 14.025 12.055-2.747-4.465-5.2945-9.1008-6.7305-14.174-1.34-3.221-0.46721-7.4271-3.6582-9.6641-4.033 6.453-13.447 11.031-16.527 3.8945-12.674-2.095-8.5876-9.8728 0.0664-11.551 0.703-5.228 7.5246-5.6802 11.227-3.4512-7.601-9.666-1.7236-12.025 0.52539-13.736 0.948-1.785 1.451-3.7697 2.377-5.5547-2.022-4.051-6.4651-6.9762-11.078-6.4062-0.644 4.443-3.035 9.7011-8.041 10.33-2.562 1.14-5.1996-2.8284-2.9336-4.6504 1.785-1.696 4.1924 1.7698 6.0664 0.13281 1.696-1.222 2.273-3.3257 2.377-5.3027-6.927 0.92-18.054 5.8956-22.896-4.7324-1.17-2.621-2.1632-5.4045-1.9492-8.3144 2.444 0.72599 3.9478 3.0354 6.2578 4.0644 5.517 2.777 11.819 0.84355 17.691 1.3106-1.157-7.865-8.892-19.421-13.293-26.324-2.935 5.949-5.935 6.6856-11.582 5.9316 0.459-2.503 2.3985-4.3319 3.2285-6.6719 3.335-8.917-0.46149-12.017-0.0215-24.705-0.563-0.141-1.6813-0.43712-2.2363-0.57812-1.074-2.755 2.1327-3.8499 2.7617-6.1309 1.513-4.419 3.2512-14.817 18.699-24.949-8.663 2.44-12.913 10.874-19.277 11.227-1.837-6.565 10.867-10.382 17.158-13.018-2.162-0.23699-4.2644-0.881-6.4414-1-2.333 0.955-4.4792 2.5705-7.1152 2.5625 0.696-1.881 1.9986-3.4064 3.1836-4.9844-2.384-1.696-5.2575-2.9919-6.7305-5.6719-6.013-10.555-6.6151-21.131 5.1309-26.488-2.141-11.316 0.94028-13.496-1.6367-19.408-1.007-3.095-3.3555-5.4281-4.9395-8.2051 10.464 2.104 22.112 12.346 19.689 22.74 7.309-3.792 15.53-5.1613 23.35-7.5312-1.562-6.02-5.8572-10.692-9.6191-15.439 0.022 3.525-0.1408 7.3983-2.5918 10.197-1.837 1.496-2.9832-1.762-4.7832-1.873-1.548 0.385-2.7929 1.7617-4.4219 1.7617-3.014-2.829-2.5328-7.293-1.7988-10.959-2.829 1.452-5.8566 3.3614-9.1816 2.6504-0.304-1.792-0.0513-3.7694-0.94726-5.3984-1.015-0.852-2.2152-1.4347-3.3262-2.1387 1.163-2.51 2.9099-4.6718 4.8359-6.6348-3.547 0.126-7.1081 0.0435-10.662 0.0215 1.392 1.97 3.8431 3.7547 3.4141 6.4726-0.089 1.962-3.0212 2.7983-4.1172 1.1543-1.333-1.614 0.61533-3.2058 1.1113-4.7168-1.0586-1.6788-2.7791-2.7211-4.5332-3.5605h24.426c-2.5443 2.0554-6.6788 3.8858-5.7363 7.8281 3.8619 0.84539 9.2736-4.9415 5.9805-7.8281h2.6348c0.0636 0.20592-0.14112 0.44974-0.0312 0.63281 0.68068 3.1863 6.1672 2.5204 6.2246-0.63281zm-19.207 127.82c0.989-2.512 11.828-6.2257 12.98-17.137 0.244-2.303 0.49571-5.0943-1.4883-6.7383-1.133 1.155-1.777 4.3257-3.873 3.0957-0.689-1.029-0.64428-2.3629-0.36328-3.5039 0.537-5.236 12.784-2.8562 6.8281 11.635-0.977 2.562-3.3689 4.1236-5.0059 6.2266 4.169-1.244 8.0137-4.0211 12.553-3.6211 6.887 0 14.387 4.0005 16.379 10.939 1.111 3.258-2.6132 8.2862-5.9902 5.7832-2.429-2.007-0.3413-4.9979 2.0957-5.6719-2.732-6.228-10.403-9.1087-16.824-8.2207-6.398 0.807-10.915 6.6499-17.291 7.2129zm-43.273-127.82c0.92628 250.03 1.4181 382.67 2.2812 615.65h-2.7891c0.50669-1.2559 0.98482-2.5597 1.2793-4.1542 0.126-2.666-0.86566-5.3622-2.4726-7.4512-4.281-3.125-6.8478-1.0867-8.9688 3.4433 11.535 2.983 0.65137 11.992-2.2656 6.2657-3.649-6.072 8.5623-14.375 10.197-17.328 5.832-7.85-0.54005-16.744-3.998-15.107-1.992 1.103-3.6306 2.7766-5.1856 4.4356 1.637 1.725 5.3543 1.2509 5.8203 4.2949 1.577 3.843-3.9765 6.7976-6.8125 4.3906-5.626-6.596 3.2957-13.292 9.3457-18.127 4.762-3.762 4.1763-12.559-1.2227-15.418-1.992 0.326-3.518 2.0582-5.043 3.3242 0.741 1.644 3.4587 1.6366 3.5547 3.7246 0.852 3.406-3.2216 6.644-6.2656 4.711-1.192-1.503-1.8-3.6371-1.252-5.4961 1.977-2.977 4.2747-5.8484 7.3027-7.8184 10.687-7.253 7.1644-17.428 2.5684-21.039-2.162 1.437-4.2786 2.977-5.9746 4.961 1.266 0.94 2.9841 1.6823 3.4141 3.3633 0.555 2.051-0.25941 4.5091-2.0664 5.7011-1.326 0.333-2.8292 0.4303-4.1172-0.096-1.881-1.459-2.3631-4.2355-1.3711-6.3535 4.19-9.281 21.679-11.775 9.2715-28.934-1.718 1-3.8649 1.9699-4.4199 4.0879 0.955 1.718 2.9764 3.0949 2.6504 5.2949 0.178 3.51-4.4656 6.4364-7.3906 4.1114-8.327-10.924 27.781-21.48 6.2441-38.004-2.496 1.54-4.7687 3.5691-5.5976 6.4941 1.859 0.637 4.5537 0.6965 5.1387 3.0215 0.2 3.147-3.2057 5.531-6.1387 4.664-4.107-2.567-1.0616-11.062 7.1074-17.549 4.774-3.707 8.8929-12.942 0.96289-19.801-1.674 1.844-3.9829 3.4052-4.6719 5.9082 1.525 1.577 3.9608 3.2801 3.0938 5.8281-0.269 6.479-11.32 6.2048-6.5898-5.1602 2.435-6.333 20.572-17.257 7.9824-29.51-1.402-0.952-5.2285 3.5901-6.2715 5.9961 1.725 0.252 3.983-0.33909 5.123 1.3789 3.199 2.607-0.97647 9.1459-4.6055 6.7539-2.355-0.859-3.7475-3.5263-3.1035-5.9473 1.009-8.387 21.901-20.038 11.174-31.027-3.508-3.124-6.4207 0.50302-8.7227 4.791 8.153 2.855 4.4345 7.4554 1.9785 8.9824-1.585-0.304-3.007-1.1494-4.502-1.7344-4.995-10.65 10.266-14.037 13.129-25.244 1.822-4.488 0.70943-10.448-3.7266-12.936-2.377 2.496-5.494 4.8882-6.168 8.4492 7.526 3.226 3.8227 8.0344 1.4277 9.1074-4.288 0.911-7.1453-4.5174-5.2793-8.0273 3.075-9.155 12.824-10.89 14.332-21.77 0.914-6.596-4.9627-12.374-7.2227-11.842-2.466 1.896-3.1773 5.1009-3.6953 8.0039 2.31 0.852 5.0498 1.8304 5.9238 4.4004-0.604 11.729-21.797 0.56135 1.1113-18.641 8.287-6.946 5.4221-16.941 0.0371-22.082-2.681 2.377-5.569 4.8654-6.709 8.3984 2.422-0.215 4.3983 1.0892 5.2793 3.3262 1.866 2.429 0.0973 5.7156-2.3457 6.8926-1.481 0.185-3.1333-0.0878-4.3633-0.96875-8.913-8.4 6.6975-20.598 9.2285-25.393 2.562-4.287 2.9535-9.5742 1.8125-14.365-1.268-5.33-8.1947 0.18557-8.8477 3.1016 4.065 1.022 4.8563 7.323 1.3613 9.418-5.997 2.277-9.6506-9.1618-0.0586-15.883 14.235-10.292 7.7072-21.074 3.4062-20.32-1.222 0.889-2.8077 1.8444-3.0957 3.4434 0.829 1.948 2.8583 3.9526 1.5703 6.1816-0.911 2.414-4.3909 3.489-6.1309 1.334-5.963-5.627 10.804-14.361 12.693-24.475 0.098-12.541-5.635-14.43-10.041-7.2793-1.667 3.77 6.3236 2.8452 1.9766 10.367-0.859 2.236-4.3019 1.7258-5.2129-0.19922-6.551-11.604 25.658-24.298 8.5586-39.025-1.555-0.378-2.4959 1.238-3.5469 2.082-6.9 7.59-1.7673 7.1478 0.0137 7.8398 4.405 1.712 2.8937 6.1706-0.36328 6.7676-3.341 0.612-9.0818-3.285-3.1738-14.416 2.904-5.734 11.628-8.9789 12.277-19.336 0.089-3.584-1.9993-7.1602-5.1543-8.8262-1.985 0.615-3.8147 2.503-4.3477 4.584 7.168 4.018 2.5177 10.397-0.61328 9.5312-8.658-5.224-2.9744-10.434 3.9766-16.854 5.807-5.289 9.2621-16.401 1.2871-23.941-2.185 2.11-4.8358 4.0943-5.6348 7.1973 1.311 1.318 3.7107 1.4444 4.3476 3.4434 3.429 5.979-6.512 9.6243-7.584 0.36328-0.183-12.781 23.654-20.948 8.9609-34.664-2.266 1.636-4.4069 3.8282-4.6289 6.7832 1.57 1.096 3.8223 1.9916 4.0293 4.1836 0.637 2.444-1.5925 5.0867-4.0215 5.1387-1.911-0.674-3.1474-2.6883-3.8144-4.4883 0.044-5.339 2.4806-10.692 6.8496-13.869 6.912-4.897 9.3297-13.887 1.4297-19.283-1.666 0.963-3.362 1.924-4.584 3.457 1.103 1.34 2.8664 2.6003 2.6074 4.5703 0.244 2.318-1.4451 5.1169-4.0371 4.8359-15.889-7.29 23.968-21.309 6.7617-37.434-1.792 1.511-3.606 3.0211-5.332 4.6211 1.622 1.289 3.9909 2.1545 4.5469 4.3535 0.901 7.668-10.707 7.8296-7.7383-2.6074 1.525-5.139 7.2281-7.1907 9.5391-11.848 5.335-11.396 0.70885-18.013-3.2441-19.734-3.073 1.903-5.7167 4.9382-6.1387 8.6562 2.325 0.067 5.3841-0.41503 6.8281 1.918 0.457 3.93-0.92852 5.2795-5.2285 5.5625-1.844-0.755-2.8719-2.6821-3.4199-4.4961-2.26-12.506 11.537-12.777 13.381-22.852 1.23-9.535-4.1887-12.17-6.1387-12.418-2.355 0.896-3.8736 3.0287-5.4355 4.8867 0.37799-0.304 1.1396-0.91866 1.5176-1.2227 1.666 1.037 3.7316 1.9494 4.4356 3.9414 1.555 3.599-3.1316 8.1816-6.5606 5.7227-3.554-2.614-1.7396-7.6786 0.40039-10.641 2.688-4.465 7.9667-6.3672 10.803-10.699 7.015-10.715-0.7362-22.37-9.6172-13.279 10.871 1.956 5.106 10.549 0.79102 8.6426-2.799-1.785-4.39-5.4488-3.168-8.6328 1.998-4.42 16.087-7.5576 14.031-18.766-1.182-6.443-9.4324-12.505-12.773-2.4434 1.414 0.185 2.9851-0.0673 4.2891 0.63672 5.117 3.787-1.5963 12.792-6.0293 5.3027-1.066-2.288-0.44277-4.8496 0.49023-7.0566 2.488-6.953 11.994-8.7766 13.238-16.434 1.637-5.31-1.8062-10.566-6.4492-12.951-1.126 1.459-2.6954 2.7835-3.0664 4.6875 0.488 1.355 6.665 5.0795 2.666 9.7305-2.715 1.641-12.018 0.85771-3.1172-12.988 1.36-2.3996 4.635-4.0607 7.2148-6.7598zm-18.102 0c0.93472 1.3768 1.9333 2.3491 2.0293 3.5059-3.175 8.548-6.1314 8.6466 0.72461 21.475-5.383 8.475-6.9187 16.961 0.7793 23.637-5.654 7.288-7.2255 13.603 0.5625 22.334l0.0586 0.63867c-2.17 2.703-4.9393 5.2346-5.6953 8.7676-1.698 8.229-1.1675 11.742 4.9394 17.18-5.84 10.229-7.8902 16.544 0.5918 25.305-7.08 10.001-6.6263 16.156 0.88867 23.785-7.599 7.851-9.2334 16.626 0.39258 22.748-2.919 4.374-11.294 13.761-1.1699 25.244-5.896 9.697-7.1447 14.296 0.11133 24.311-7.196 8.826-6.3384 16.137 0.31054 24.557-5.755 7.146-8.7533 18.958-0.77734 28.732-9.49 13.325-1.3798 21.456-0.84375 23.059-1.921 5.65-7.79 11.125 0.74805 20.543-10.395 15.139-0.40019 23.655 1.1328 25.947-10.062 12.632-7.6657 16.668-0.51172 26.83-9.269 12.906-7.2316 19.802-0.80664 28.035-8.851 12.703-5.4069 17.392-0.50391 23.727-7.926 8.133-5.8203 18.124 0.34766 23.199-2.466 3.466-5.5616 7.1024-5.3106 11.648 0.422 4.325 2.8516 8.5003 6.7246 10.611-11.314 12.075-2.8946 22.315-1.9336 24.207-3.362 4.451-5.1763 10.065-4.1543 15.648-0.185 3.791 3.6808 5.4646 5.7988 7.9746-7.735 8.396-6.8601 15.306-1.3691 22.541 0.992 0.896-0.21502 1.9477-0.66602 2.7617-7.728 10.524-1.1551 16.251 0.16993 19.973-0.318 2.209-4.3801 4.8444-3.0371 12.566 0.526 2.984 3.0578 4.9459 4.5098 7.4629-4.568 10.35-8.6293 12.496 1.5547 22.734-2.1566 2.9244-6.2509 7.5106-4.543 13.965h-3.6465c-0.78478-229.74-1.5812-409.24-2.5488-615.65zm-8.877 0v615.65h-6.002v-615.65zm73.393 0.78906c-0.089 2.688 2.1857 4.4648 4.0957 5.9688 1.288 0.909 2.9379 0.10945 4.3379-0.0605 1.266-4.04-4.5356-5.3772-8.4336-5.9082zm-4.1914 4.6348c-2.72-1.302-4.7656 7.7945-2.1406 9.6855 4.068 1.247 5.4586-5.1685 2.1406-9.6855zm-17.41 19.342c-1.267 5.494-1.0452 11.582 1.7988 16.566 5.545-6.874 3.1252-17.745-1.7988-16.566zm33.117 5.4863c-8.064 2.488-16.321 4.4213-24.111 7.7383 4.105 0.155 13.888-0.78405 20.178 9.0859 1.258 1.882 1.8002 4.1181 2.7402 6.1621l0.5039-0.34766c0.422-2.429 0.79243-4.8592 1.6074-7.1992 0.096-5.147 0.20003-10.381-0.91797-15.439zm-23.732 11.348c-1.8016 0.25782-3.4943 0.78154-4.7793 1.5605 4.436 3.325 10.501 4.7232 15.928 3.5312 0.64725-4.2517-5.7436-5.8653-11.148-5.0918zm-12.924 1.1523c-16.347 7.221-3.0424 29.516 3.1016 27.889 2.049-13.857-6.8086-9.1267-3.1016-27.889zm5.0566 1.3926c-1.023 5.931-2.1622 14.834 3.9258 13.803 0.919-3.579-0.94879-11.598-3.9258-13.803zm8.5098 5.2578c3.014 4.487 6.6643 8.5079 9.6113 13.047 1.421 2.111 2.5984 4.3769 4.1094 6.4199 1.822-1.703 3.3262-3.7382 4.3262-6.0332-6.398-2.664-4.3159-6.2426-18.047-13.434zm-0.32617 2.0957c0.355 5.398 0.28025 11.035-1.7188 16.137-0.755 2.259-3.1983 3.8136-3.1543 6.3086 5.991 0.84399 12.573-0.0821 17.453-3.873-3.51-6.628-8.1001-12.596-12.58-18.572zm35.602 109.82c-11.195 7.551-10.618 12.055-10.996 13.922 1.044 1.6 2.3626 3.0829 2.6816 5.0449 1.46-0.021 2.9181-0.0217 4.3691 0.0293 2.555-3.436 6.0424-5.977 9.5664-8.332 1.037-4.399-2.4361-8.1461-5.6211-10.664zm5.4375 13.908c-4.139 1.577-9.0355 5.5023-7.4805 10.486 3.488-2.54 6.5105-6.2203 7.4805-10.486zm-20.289 5.4512c-0.874 2.118-0.30437 4.347 0.14063 6.502-1.422-0.43-2.859-1.021-4.377-0.79102 0.057 5.401 4.0124 12.455 7.5684 11.582 3.605-3.127 5.1748-8.119 4.5898-12.791-4.226-0.422-3.4659 1.2634-5.3379-4.3906-0.859-0.052-1.725-0.0893-2.584-0.11133zm14.535 14.727c-5.715 0.618-13.342 12.414 3.0215 10.799-0.089-0.97-0.17076-1.9249-0.25976-2.8809 1.54-0.807 3.0585-1.6291 4.5625-2.4961 0.037-0.392 0.10381-1.1638 0.13281-1.5488-2.555-0.918-5.1382-0.0206-7.6562 0.56445 0.118-1.481 0.20622-2.9635 0.19922-4.4375zm-26.637 1.8887c0.052 1.555 0.65152 2.9987 1.2285 4.4277-2.71-0.435-5.9158-0.76058-8.0488 1.3574-0.948 0.615-0.54824 1.7981-0.61524 2.7461 2.266 0.541 4.5994 0.38536 6.9024 0.31836 0.92599 0.733 0.69651 2.1339 1.1035 3.1699 7.046-0.7 10.372-6.2855 7.4492-8.4785-2.148-2.022-4.8945-4.015-8.0195-3.541zm13.826 3.8281c-0.7795 0.22687-1.4371 0.7954-1.6816 1.6914-0.118 2.043 2.6294 3.0713 4.1914 2.0723 1.14-0.755 1.0375-2.7402-0.10352-3.4062-0.7255-0.4705-1.6268-0.5843-2.4062-0.35742zm16.623 36.361c2.597 5.608 10.265 12.653 14.545 31.094-0.135-1.004 1.2581-21.993-14.545-31.094zm-62.514 29.762c-0.333 6.88-0.60651 13.818-0.10351 20.705 9.744-5.147 7.6355-17.479 0.10351-20.705zm5.5606 20.461c-1.955 0.852-3.7465 2.0434-5.8125 2.6504-0.252 3.184-0.15575 6.398 0.15625 9.582 3.251 0.193 5.1971-2.6955 6.8711-5.0215 0.807-2.443-0.26684-4.9669-1.2148-7.2109zm88.463 12.988c-3.058 2.051-5.7699 5.2944-9.7539 5.3164 3.429 0.607 6.6961 1.9473 9.4141 4.1543 3.821 1.844 10.566-2.6444 7.7891-7.0274-1.748-2.059-4.7982-3.1614-7.4492-2.4434zm-4.6289 0.54102c-4.339 0.792-8.4572 2.5094-12.574 4.0644 4.354-0.437 9.2492-0.88846 12.574-4.0644zm-82.107 1.25c-2.333 1.881-4.9539 3.3112-7.7969 4.2812 7e-3 1.133-8e-3 2.2884-0.0234 3.4434 2.266 0.504 3.9466 2.2068 6.0566 3.0508 2.51-2.362 4.8227-4.9478 7.6367-6.9688-1.836-1.348-3.63-3.4956-5.873-3.8066zm18.736 1.4453c-3.6092 0.3625-6.5875 1.4372-7.918 2.6367 6.495 1.34 13.27 0.688 19.623-1-3.8565-1.6495-8.0958-1.9992-11.705-1.6367zm18.672 0.99219c-0.73836 0.034-1.4598 0.21683-2.1523 0.64258 1.052 0.71099 2.0732 1.5259 3.2812 1.9629 1.984 0.06 3.865-0.79855 5.709-1.4356-2.2492-0.033-4.6228-1.2718-6.8379-1.1699zm-3.4961 2.0137c-0.52388-0.23313-1.0822-0.29033-1.6562 0.0762-5.998 2.577-12.692 2.94-19.113 2.207-2.125-0.118-4.1462-2.2578-6.2422-0.96875-3.081 1.726-5.2586 4.6059-7.6426 7.1309 2.733 5.235 3.1992 11.352 1.5332 17.002 0.125 9.686 1.8326 11.71-8.1523 20.172-0.729 50.88-0.12758 252.84 0.48242 257.41 2.999-0.378 6.0419-1.3843 7.4629-4.2793-1.54-0.785-2.4884-2.1923-3.0664-3.7773 5.677-3.578 7.619 6.2619-1.252 9.2129 4.569 0.037 9.2652-0.2597 13.701 0.9843-2.881-1.696-5.3701-4.1911-6.7031-7.2871 1.488-0.148 2.9692-0.2587 4.4512-0.3847 1.688-2.599 1.7327-5.7543 1.7617-8.7383 4.421 1.17 8.9464 2.8941 11.775 6.7011-1.896-5.073-1.8809-10.782-0.42188-15.951 0.274-0.052 0.81389-0.1472 1.0879-0.1992 1.333 1.644 2.7249 3.3692 4.7539 4.1992 2.599-0.193 4.1405-2.792 6.4805-3.666 1.525 2.125 1.7765 4.8367 2.7695 7.2207 2.999-3.688 5.6277-7.7026 7.2637-12.184-12.481-5.75-14.173-4.0149-27.133-14.713 4.554 19.257-11.546 26.57-19.416 19.772 2.088-2.547 5.2059-4.3915 6.2129-7.6875 1.525-3.74-0.62892-7.6048-0.16992-11.426-7e-3 -1.207 0.38484-2.7022-0.78515-3.4942-10.706-10.141-5.0498-25.884 3.1992-30.592 0.17-0.829 0.34172-1.6365 0.51172-2.4355 5.435 1.496 10.892-0.8668 16.379-0.09-17.987-4.0539-21.432-5.7619-23.377-8.5449-1.297-3.838 10.326-2.0667 19.557 5.1543-5.873-5.325-9.7901-9.7208-14.039-21.217-1.525-0.222-4.1627 0.3929-4.3027-1.8281-0.511-1.925 1.6668-3.0366 2.7188-4.2656-0.718-4.688-1.3264-9.4056-1.3184-14.145-0.085-9.587-4.3797-13.647-5.1387-16.98 4.584-1.34 9.3077 2.1557 10.678 6.4726 2.814-8.442 8.5373-15.573 10.988-24.156-5.835 0.067-11.923-2.0507-17.551 0.36329-2.451 0.87399-3.7973 3.2286-5.8633 4.6426-0.563-4.613 1.1104-9.59 5.0273-12.293 5.391-4.947 13.218-3.4951 19.771-2.4961 0.703-3.651-0.4583-8.478-4.2793-9.877 0.059 1.859 0.39272 5.1473-2.4883 4.6133-3.192 0.452-4.2792-3.8955-2.1172-5.7695 6.814-4.38 11.129 3.3852 11.359 11.619 11.747 3.249 12.544-0.56352 12.219-5.3535-4.169-0.193-6.3765-4.2891-6.2285-8.0801-1.884-0.34299-7.147 0.0794-2.5391-9.6855-2.377-0.415-4.7914-0.7335-7.1094-1.4375-0.578-1.214-0.47372-2.5842-0.63672-3.8652-1.681-0.903-3.9108-1.5108-4.5918-3.5098-1.807-4.848 0.70793-6.8002 6.4199-8.5312 3.347-7.045 12.19-4.295 15.906 2.666 0.718 0 1.4383 8e-3 2.1562 0.0234 1.511-9.753 6.2922-18.832 12.365-26.504-13.143 3.083-8.6778 8.9041-11.967 11.537-3.406-0.533-1.7754-4.7698-1.5234-7.0508-41.772 14.546-28.325 34.371-28.385 40.744 0.491 7.354-3.381 14.33-11.959 15.705 0.644-2.762 3.2132-4.7226 3.2422-7.6855 0.965-14.162-15.133-23.02 17.936-42.588-16.594 2.053-13.538-8.8583-8.8711-9.0703 2.162-0.733 6.3018 0.21343 5.9238 2.9824-2.155 0.859-4.7986-1.2288-6.8496 0.74024 3.116 9.348 14.787 1.0816 34.855-4.2344-20.114-0.785-38.388-9.1568-38.551-17.508 3.029 0.933 4.681 4.2071 7.873 4.9551 6.465 1.481 13.202-2.4297 19.541 0.23633 6.985 2.355 5.0814 9.9187 19.357 7.8867 0.99199-0.222 2.2214-0.18596 2.8574-1.127 4.353-5.168 10.587-16.117 12.041-19.734-3.721 4.508-5.4198 8.954-14.174 11.375-5.438 1.342-8.629-9.5978 1.252-9.2578 0.044 0.489 0.12511 1.4604 0.16211 1.9414-2.273 0.422-4.8137 1.9544-3.6367 4.6504 6.945 0.345 17.809-9.279 19.787-23.125-15.339-3.384-11.925-17.322-6.3242-22.689 1.155 1.044 1.7634 2.4576 2.1934 3.9316 1.022 0.045 2.0358 0.0527 3.0508 0.0527 2.044-6.006-4.4141-11.05-9.8281-11.398-3.589 7.039-5.7015 0.67967-7.3965-1.2363-2.584 0.481-5.2224 1.2595-6.9844 3.3555 21.517 27.677 1.6536 52.797-8.7734 45.459-7.593-3.622-0.40132-15.625-5.6953-20.252-1.807-1.503-2.5246-3.7472-2.0586-6.0352 5.774-0.315 10.811 2.9683 8.8555 11.656 8.028-2.326 6.4322 2.6054 5.0352 3.1914-1.977 1.125-4.9746 1.3856-5.5156 4.0586-0.792 2.096-0.47493 6.0572 2.5391 5.7832 5.94-0.398 7.796-11.742 4.584-17.211-4.915-8.576 4.415-13.546 4-17.564-0.866-3.066-3.4527-5.1841-5.1777-7.7461-7.174 7.082-11.921 11.592-21.09 7.5977-1.637-0.755-3.3403-1.5552-4.4883-2.9922-1.185-1.325-1.8646-3.1679-3.5606-3.9609 0.486 11.735 8.0557 10.516 7.2637 16.527 0.407 4.51-3.5765 7.5018-4.8125 11.508-2.011 7.794 4.9032 12.659 8.2852 10.523 2.421-0.748 2.904-3.4433 3.082-5.6133-1.955-0.73299-3.3854 0.74068-4.7773 1.8887-1.955-2.066 0.10442-4.9403 2.6074-4.8223 7.462 0.957 2.9464 14.773-6.7246 9.6934-8.565-2.873-7.3348-30.154-6.6348-41.49 7.813 0.478 7.7342 3.4424 22.867-2.0606 0.918-0.415 2.1613-0.60539 2.3613-1.7754-0.4405-0.337-0.92925-0.74735-1.4531-0.98047zm-41.807 9.1309c-0.044 2.562-0.10503 5.132-0.082 7.709 2.666 1.896 5.1841 3.9906 7.4941 6.3086 1.577-5.739-1.9171-12.004-7.4121-14.018zm0.32617 10.805c0.267 7.264 0.16999 14.536 0.45899 21.801 9.03-5.127 7.29-18.531-0.45899-21.801zm78.199 18.676c-5.012 16.542-9.5431 20.019-13.664 26.674 10.161-3.977 16.693-16.003 13.664-26.674zm4.1758 9.5664c4.023-0.065 0.27563 17.586 5.5156 27.072 6.82 8.769 15.121 2.498 10.184-4.25-1.221-0.347-2.4948-0.43553-3.7168-0.76953-0.889-0.948-0.72653-1.6653 0.48047-2.1543 7.713-0.172 8.6104 5.9086 5.8574 11.307-3.82 7.261-15.038 0.30496-17.203-8.457-1.259-7.524-0.76218-15.165-1.1172-22.748zm-49.311 47.074c0 1.126 0.0353 2.2604 0.0723 3.4004-2.754 0.23-6.3595-0.77037-7.8555 2.2656 1.748 1.97 4.2654 2.829 6.8574 2.918-0.392 1.177-0.78584 2.3765-1.0898 3.6055 3.48 0.467 7.539-0.68938 9.25-3.9844 1.214-2.658-1.371-4.8502-2.793-6.7832-1.022-1.429-2.8564-1.5259-4.4414-1.4219zm23.711 2.8965c-7.783-1.274-10.726 8.9686-1 11.227 1.274 0.156 3.3687 0.62908 3.7617-1.0449-0.592-1.029-1.3019-1.9695-1.9609-2.9395 5.053-0.051 6.9675 0.73941 7.5215-4.1836-2.696-0.637-5.5156-0.51151-7.8926 1.0215 0.015-1.326 1.1253-3.2951-0.42968-4.0801zm-13.662 2.1699c-0.015 1.111 1.1e-4 2.2283 0.0371 3.3613 1.348 0.348 2.7259 0.43087 4.0879 0.17187-0.022-1.177-0.06-2.3333-0.12696-3.4883-1.318-0.341-2.665-0.34192-3.998-0.0449zm0.59961 6.3691c-5.08 0.118-7.6205 6.0717-7.3535 10.471 1.251-0.57 2.4587-1.2224 3.6797-1.8144-0.578 2.288-1.11 4.7834 0.12695 6.9824 0.178 0.888 1.8883 1.1395 2.1543 0.22852 1.059-1.822 1.1269-3.9977 1.5039-6.0117 1.177 0.415 2.6568 1.9978 3.8418 0.96875 1.765-2.991-0.60713-11.489-3.9531-10.824zm6.7246 3.998c0.98499 3.947 2.2439 8.4855-0.28907 12.145-0.859 0.141-1.725 0.29679-2.584 0.46679 5.982 34.132 18.054 12.314 17.92 4.4062-8.798-4.894-11.453-10.124-15.047-17.018zm2.2422 0.57617c1.421 3.792 7.8972 11.748 12.494 13.428-1.585-6.228-6.9771-10.695-12.494-13.428zm-23.506 114.8c-3.3195-0.4155-6.7068-0.292-9.9648 0.3965 5.699 6.468 10.353 11.43 7.584 22.394 3.014-7.146 5.6953-14.915 11.945-19.951-2.992-1.4695-6.245-2.4244-9.5645-2.8399zm-14.674 2.1016c-7.953 0.808-15.025 21.662-1.9551 28.287-7.724-8.862 1.2735-16.561 2.2285-20.119 0.489-2.718-0.0434-5.4649-0.27344-8.1679zm25.717 1.6211c-9.372 7.591-8.5948 17.238-14.883 22.91 16.002-8.907 2.307-1.6988 19.586-17.965-0.482-2.228-2.9481-3.6123-4.7031-4.9453zm-19.844 10.502c-1.539-0.6352-3.4741 0.3771-3.9121 1.4141-3.15 5.938-1.9478 7.657 0.0742 13.291 2.296-1.518 4.696-3.4424 5.377-6.2344 1.144-5.553-6e-5 -7.8354-1.5391-8.4707zm29.826 2.7012c-3.266 3.873-2.4223 9.568-5.6133 13.5-5.463 7.001-5.4598 7.8943-18.965 3.4883 5.715 6.349 21.01 11.288 25.615 13.121 1.944-6.706 2.3449-22.898-1.0371-30.109zm-12.637 8.7871c-0.88688-0.4194-2.0579-0.4219-2.8984 0.078-3.458 1.74-7.0654 3.3394-11.027 3.3613 8.174 6.534 14.874 3.1426 15.115-1.0214 0.3-1.1625-0.30258-1.9986-1.1894-2.418zm-21.502 4.707c-0.688 4.102-2.1174 8.6544 0.18555 12.527 0.911 1.903 3.4889 1.3118 4.8809 0.3418 2.142-3.458-1.3044-11.28-5.0664-12.869zm20.01 34.262c-2.559-0.958-4.0296 5.7252 0.19336 8.8282 1.11-2.718 2.3986-6.5552-0.19336-8.8282zm7.4844 6.25c-2.2639 0.4584-4.1053 2.7003-3.4551 5.1993 2.74-0.244 6.4802-1.5549 5.7832-5.0059-0.772-0.2997-1.5735-0.3461-2.3281-0.1934zm-18.895 1.1622c-1.008 5.073 2.3473 4.5209 6.4863 4.4589-1.037-2.577-3.4793-5.0879-6.4863-4.4589z" fill="{{ border_color }}"/>
</svg>
