<?xml version="1.0" encoding="UTF-8"?>
<svg width="100" height="193.33" enable-background="new 0 0 1357.952 1628.382" version="1.1" viewBox="0 0 100 193.33" xmlns="http://www.w3.org/2000/svg">
 <path d="m19.822-0.003683c-0.5345 0.18493-1.0832 0.32622-1.6229 0.49699-6.7119 2.7247-5.3356 11.175-1.6634 11.302 0.31635-0.72821-0.45354-1.0466-0.80257-1.5493-1.3348-2.5688 1.8468-2.8706 1.996-4.9552-0.24881-0.94466-1.1656-1.5938-2.1426-1.3032 0.97702-2.1309 3.3109-3.5314 5.6092-3.6919-0.98173 0.79795-1.9588 1.8266-1.9868 3.1758 0.55825-0.11152 1.1187-0.22816 1.6886-0.25832 0.04178 0.71879-0.05294 1.4354-0.07179 2.1567 0.83974-0.02796 1.6536-0.27245 2.3887-0.67738-0.9167 1.24-1.5326 2.6499-2.2979 3.9785-0.39301-0.15582-0.78426-0.31918-1.1726-0.48411 0.16744-0.64433 0.95817-1.2115 0.49762-1.907-0.34431-0.47469-0.92364-0.084203-1.3726-0.025761-0.45458 2.7162 0.94004 2.1403 1.7499 3.0501-0.48537 7.1517-0.53205 2.5176 0.33501 7.8441-0.2419 1.3119-1.3637 2.1657-2.2666 3.0403 0.93524 1.0097 2.4151 0.15586 3.5528 0.01166 0.58841 0.51647 0.97941 1.2637 1.4585 1.8917-0.07665 1.0166-0.63057 1.9448-0.62586 2.9753-0.08514 2.2164 2.6072 1.7223 2.2893 0.48166 0.02105-0.819-0.89082-0.85833-1.4843-0.77006-0.02545-0.71187-0.0067-1.4773 0.34667-2.1126 0.93052 0.38138 1.6214 1.1981 2.4218 1.796 1.1237 0.92142 1.291 2.4402 1.3935 3.7893-0.31164 0.94215-1.377 1.2029-2.196 1.5309 0.0094 0.13729 0.0301 0.41186 0.04172 0.54914 0.53752 0.49542 1.2982 0.75837 2.0217 0.81178 3.1321-0.75209 2.2813-3.1852 0.77681-5.8954 2.773 1.8589 4.6064 6.1097 4.8128 7.5815-0.36756 0.15111-0.95362 0.13073-1.0142 0.63996-0.27457 0.73512 0.7514 0.88843 1.1934 1.2302-0.54914 1.6122-1.0774 3.5179-2.7151 4.3576-2.0056 1.2359-5.5938 0.5324-6.0274-1.475-0.03487-0.61637-0.14208-1.3797 0.40925-1.8101 0.5083-0.70025 2.5861-1.5043 2.631 2.1126 1.8139 0.14514 3.0928-3.4969-0.1399-5.1204-2.6797-0.8146-6.4248 3.6715-1.9794 7.0022-0.0014 0.12783 1.32e-4 0.2574 0.0012 0.38657 5.66e-4 0.06827-1.47e-4 0.13512 6.28e-4 0.20433-0.53029-0.11969-7.2648-2.7187-8.4049 2.4335-0.10461 0.59092-0.50526 1.2424-0.24482 1.8242 1.0351 0.58621 1.2655-1.2774 2.2868-1.1259 1.0631 0.45144 2.2707 1.1122 3.4293 0.57248 1.2331-0.60004 1.4931-2.1563 1.1302-3.3662 2.9926 0.41751 6.3607 1.7843 9.3872-3.255-0.81837 3.8735-4.2976 5.5816-6.8929 13.451-3.3432 1.1234-3.5895 2.6883-4.1201 3.8851-1.326-0.33929 0.0939 1.0546-3.0618-4.1343 0.02545-0.06754 0.07492-0.19784 0.09817-0.26507 3.3828-0.28337 6.1046-1.4696 5.8181-4.8436-2.3599 1.6986 0.16705 0.76632-8.5054 2.2611-0.42596-0.12724-3.2691-2.1508-7.4973-2.1052-1.1492 0.02105-2.264-0.28872-3.3809-0.50987-1.0468-0.19792-1.777-1.2374-2.9121-1.1026 1.6744 6.8027 8.3986 4.2989 11.993 5.8954-0.56768 1.0794-0.83989 2.2704-0.94922 3.4802-5.5744-1.5425-4.4509-0.36307-6.9346-0.8676-0.26043-0.16996-0.43561-0.43545-0.63321-0.66572 0.30473-0.142 0.66563-0.18574 0.91915-0.416 0.030159-0.27457 0.042081-0.54682 0.039882-0.81668-0.49102-0.06283-1.066-0.31151-1.5033 0.04663-0.94812 0.58087 0.13385 2.3676 1.5309 2.6918 1.8146 0.13477 3.7058-0.27482 5.4553 0.37673-0.68391 0.28368-5.652 0.24572-7.2997 4.1343-0.54914 1.8661-0.91777 4.4333-3.1758 5.4248-0.018535 0.0999-0.058163 0.30255-0.076698 0.40498 8.2117 0.54757 3.8864-9.3505 11.704-9.3191 2.5007 4.9885 3.4771 3.5565 4.8088 5.9187-0.73983-0.44421-1.4283-1.1496-2.3635-1.0032-0.24661 0.37447-0.37218 0.991-0.94677 0.90932-1.2004-0.04901-2.4988 0.75403-2.6059 2.0267 0.07446 1.0911 0.96804 1.8006 1.6959 2.4936 0.64402 3.1582 4.6137 0.49118 5.6186 0.0068 0.14671 0.01162 0.43982 0.03746 0.58841 0.04909-0.23719 1.3191-0.47224 2.6499-0.94001 3.9128-2.1586 4.5496-1.5208 2.4825-2.736 4.2109-0.4838 0.66287-1.1285 1.198-1.9359 1.4094 0.43762-1.6286 1.1255-2.7593-0.21659-5.0079-2.1721-4.0416-6.5454-2.1369-4.7613-8.3914-0.86769 0.16053-1.238 1.0909-1.7334 1.7192-0.83973 1.1445-0.75831 2.594-0.87926 3.9386 1.7875 5.159 7.5287 3.1579 7.158 6.7879-0.52087 2.44-1.7111 2.5564-2.8986 6.0811-0.0041-0.42505 0.9942-9.7438-5.5854-9.7105-3.7959 1.4099-2.2529 5.1009 0.25341 4.1952 0.37699-0.20012 0.2791-0.69117 0.37428-1.0333-0.5815 0.032672-1.303 0.48176-1.7868-0.032518-0.50485-0.677 0.049322-1.582 0.58904-2.0567 1.2214-0.50265 2.6592 0.023247 3.527 0.95597 1.6314 1.8987 2.231 3.4708 1.7843 10.973-0.53281-0.73041-0.73534-1.6467-1.3124-2.347-1.2108-1.5695-4.0366-4.0061-5.8181-3.9687 1.3889 1.3446 2.7172 2.8239 3.4918 4.6222 1.512 4.0064 0.694 11.956 7.1721 14.626-3.3938-0.93555-4.4079-2.913-7.6098-3.4871-1.9581-0.44139-0.63453-3.3693-0.50007-4.7927 0.58213-2.8177-1.5203-5.3667-3.2568-5.4412-1.8259-0.23216-2.4638 1.9131-1.7051 3.6313 0.24441 0.04901 0.49087 0.08581 0.73999 0.11597-0.049008-0.81649-0.35839-1.5953-0.3166-2.4187 0.45144-0.13257 0.93046-0.45147 1.4026-0.22089 0.70025 0.35342 1.1422 1.1211 1.1143 1.9027-0.59501 1.7586-2.3175 3.7397-1.3376 5.2737 0.44673 0.66538 1.3217 0.44635 2.0009 0.51358 0.10241 0.40023 0.22333 0.8009 0.3025 1.2124-0.3396 0.36756-0.94937 0.23287-1.4008 0.4025-1.1633 0.23279-1.738 1.3725-2.366 2.2543-0.42568 0.59564-1.3471 0.83477-1.426 1.6469 2.9678 1.3257 0.8431 2.3491 4.8088 3.7384 0.00691 0.36065 0.011856 0.72341 0.016565 1.091-0.42819 0.028-0.8539 0.0537-1.2818 0.0816-1.6075 1.9456 0.29572 2.876 0.49332 4.5738 0.15582 0.65375 0.10234 1.4841-0.54669 1.8585-0.8212 0.5771-1.9331-0.60942-1.4468-1.4284 0.27457-0.25352 0.60227-0.43934 0.88846-0.67433 0.083879-0.80737-0.9932-0.59554-1.2769-0.10922-0.63271 0.94467-0.37234 2.3079 0.52583 2.9918 0.90728 0.41406 2.1076 0.29533 2.7636-0.51173 2.3995-3.1667 0.40944-5.1813 0.71665-7.8004 6.5272-1.5824 2.3221-1.9235 9.1563-3.6037-8.0722 2.6442-4.4899 11.141-9.3056 16.656-0.59564 0.81649-1.5909 1.2541-2.0936 2.1475 2.8582 0.44893 5.4594-3.2185 6.1672-4.041 0.053406 0.0697 0.16048 0.20912 0.21169 0.27918 0.25824-0.13948 0.33941-0.47019 0.51848-0.68413-0.15896 4.5053 3.953 5.3086 4.5879 8.8472 0.06346 2.7444-3.3627 2.7208-5.5461 5.2395-0.344 0.63113-0.75457 3.1251-0.09265 3.2754 0.73732-0.54191 1.3888-1.2264 2.2543-1.5751 1.7524-0.66287 5.7867-1.797 4.6639-6.3088-0.15833-0.98645-0.83235-1.7678-1.1185-2.7053 3.297 1.0882 6.4615 8.2654 5.7481 9.7567-0.63051-0.5793-1.14-1.3799-2.0309-1.58-0.80015-0.21174-2.1543-0.314-2.2334 0.80502-0.80486 0.0581-1.67 0.0864-2.3586 0.56328-1.0546 1.0496-0.98041 2.6664 1.2284 3.3938 0.02105 0.32327 0.03014 0.65401 0.07915 0.98419 0.26986 0.3396 0.68128 0.51672 1.0394 0.74919-1.2726 0.8655-2.0773 2.2375-2.3752 3.7378-6.4901 1.6192-4.3507-2.7944-6.8206-5.7855-1.026-0.86298-2.4965-1.1705-3.7994-0.94246 0.00942 0.24441 0.018246 0.49357 0.025157 0.74489 0.56988 0.13949 1.3051 0.12558 1.6192 0.72341 0.88623 1.3446 0.23546 3.0639 0.90995 4.4761 1.4963 3.0853 3.2826 2.7657 6.7182 2.4384-1.2971 1.3955-4.6473 1.632-5.4412 1.9119-0.9899 0.28274-1.3492 2.4457 0.97683 1.9358-0.11404-0.43039-0.28345-0.838-0.44176-1.2499 4.9127-0.83157 4.1239-1.4235 5.8948-2.4194 0.01853 1.8516 0.75664 3.7548 2.2058 4.9552-2.2047 1.0198-3.3878 0.0261-8.3521 0.32581-1.7816 0.11404-4.865 2.0176-4.313 3.9219 3.4293-0.49165-1.0602-0.6645 8.9631-0.67863 1.5425-0.1442 3.0036-0.81681 4.2668-1.6892 0.3374-0.20483 0.62363-0.66557 1.0726-0.52828 3.1752 0.78632 4.2505-0.23591 5.8832 3.2059 0.66161-0.0305 0.92852-1.6656 0.9216-2.3034-0.71313-2.298-2.3913-3.5245-4.6994-3.6385 1.7524-3.4425 0.98509-3.304 1.5751-5.504 0.36756 0.51647 1.0283 0.94463 0.91425 1.6634-0.1376 2.3335 1.6375 4.4726 4.9806 4.357 1.294 4.908 3.7067 5.5298 4.5392 11.657-0.32452-2.4787-2.2919-4.1104-5.8954-2.9403-0.93524 0.21866-2.0333 0.61182-2.9151 0.0325-0.38861-0.71187-0.11112-1.8821-1.0511-2.1984-0.96068-0.64904-2.2175 0.14849-3.1084-0.624-0.8655-0.49322-0.67685-1.5746-0.76512-2.4052-0.8102 0.69648-2.656 6.6186 5.0045 6.4603-2.424 1.1517-5.3579 1.1004-7.754-0.10247 0.30002-0.17435 0.60255-0.3423 0.90257-0.50252 0.17687-0.83754-0.70688-1.6214-1.491-1.175-0.65596 0.51081-1.6244 2.7529 3.8968 3.3269 2.1218 0.12346 3.9825-1.1074 6.0274-1.4259-5.1088 2.5805-4.2197 5.2027-2.4893 5.788 0.90728 0.16996 1.4914-0.97488 1.005-1.6867-0.36976-0.0534-0.73996-0.10264-1.1075-0.14913 0.4373-1.4772 1.5542-2.6934 2.866-3.4614-1.5535 3.0096 1.2058 7.1819 3.8317 4.9897 0.49322-0.87712 0.91651-2.0589 0.40004-3.001-0.50956-0.27677-0.96354 0.44236-1.4775 0.5099-2.2123 0.71376-2.8124-3.9257 0.94491-3.8927 2.8808 0.17844 3.4167 4.2892 3.1918 5.8976-0.3839 0.13949-1.003 0.0882-1.0633 0.62096-0.17687 0.52338 0.41679 0.81413 0.69827 1.1584-0.60946 3.0429-2.7199 5.5206-5.1462 7.333 0.45835-0.77722 3.6649-3.8339 1.075-6.1094-0.74674-0.81178-1.9494-0.75567-2.9286-0.49272-0.0047 0.68862 0.68856 0.96546 1.1026 1.3984 0.7257 0.69554 0.70031 1.7931 0.69089 2.7261 0.03864 1.988-2.7335 4.4312-3.7293 3.9668 0.10713-0.59313 0.54958-1.3216 0.02147-1.8334-0.57239-0.51647-1.8801-0.29276-1.85 0.63997 0.12095 0.95157 1.1493 1.2838 1.8009 1.8236-0.56516 0.50956-1.107 1.0444-1.5978 1.6284-1.1702-0.27206-2.3567-0.52549-3.5644-0.51418 0.02545 0.30944-0.1673 0.77276 0.21659 0.94491 0.74674 0.45364 1.6054 0.91689 1.9984 1.7334-0.0094 0.76999-0.28639 1.5049-0.46325 2.2494-1.0885 3.872 0.01111 7.6817 0.06075 8.1605-0.95566 0.81995-3.0884 1.2009-2.3709 2.9894 0.32578 0.40243 0.89135 0.33787 1.345 0.26813 0.07665-0.6327 0.05306-1.3123-0.6007-1.6076 0.60035-0.40494 1.1891-0.84243 1.8567-1.1308 1.1812 2.7897 1.9657 3.5634 2.4734 4.8408-0.5793-0.21174-2.0099 0.25003-2.6287 0.23149-0.17187 2.3326 1.0954 3.4196 1.9529 4.6225-1.5959-0.30944-4.2851-1.4661-5.7622-2.1315 0.47594-1.0226 1.3424-1.7828-0.11658-3.943-0.52589-0.8234-0.82811-1.9965-0.28838-2.8759 0.42819-0.61637 1.1212 0.1027 1.6377 0.20982 0.17907-1.0072-1.1376-1.4099-1.9217-1.2959-2.2113 0.83973-2.8543 5.1817-0.8676 7.4907 1.1888 1.2632 2.9219 1.731 4.5713 2.0426 1.867 0.74452 2.0998 0.72516 2.4509 1.2018-0.05754 0.14303 1.8002-0.16934 1.7102-0.0326l2.8853 0.0423c-0.0645 0.1922-0.56366-0.75582 0.29914-1.1446 0.59312-0.27677 1.4844 0.0929 1.5051 0.80257 0.10441 0.66874 0.58731 0.27073-0.05874 0.33561-1.2191-0.0173-0.2515-0.11702-0.12032-0.0358h3.5914c-0.19525-0.2447-0.39706 0.2559-0.66082 0.0687 1.5541 0.0185 3.6043 0.0187 5.2417-0.16751-0.3876 0.2403-0.29666-0.19844-0.64471 0.0988h0.9484c0.35647-0.28497 0.14484 0.012 0.31541-0.59394 1.1e-4 0.0451-6.28e-4 0.54424-6.28e-4 0.59394h1.9801c0.25858-73.273-0.30288-114.86-0.025667-193.41h-1.9131c0.15918 6.1257 0.01797 77.301 0.0767 83.047-1.5353 0.46306-2.652 1.9213-2.8844 3.4846-0.30002 1.0097 0.05323 2.0216 0.29513 2.9986 0.2397 0.55825-0.2652 1.0171-0.41663 1.5242-0.33018 1.0446-0.14181 2.1519-0.06013 3.222-0.61417 0.61166-1.3284 1.2628-2.18 1.4978-1.5541-0.84225-3.3731-1.0308-5.1107-0.94001-1.1328 0.03016-2.1963 1.1239-3.2992 0.43994 2.2776-1.6097 5.3714-1.8332 7.8746-0.62586 2.5566-20.312-7.7555-14.143-4.8339-11.187 0.50265 0.61888 1.5606 0.10475 1.6536-0.62096-0.62799 0.10242-1.2632 0.08095-1.796-0.30986 0.06283-0.6258 0.20732-1.4121 0.95657-1.5192 0.79575-0.05812 1.7776 0.02375 2.2985 0.71238 2.1963 2.4758-4.352 5.1223 0.50438 8.8215 1.0119 0.7235 0.72626 2.1213 0.67066 3.1887-0.51144-0.28085-4.9658-5.6658-8.9732-0.28838-0.70025-0.65124-1.4122-1.4071-1.6192-2.3703 0.92361-0.09079 1.8729-0.64666 2.1126-1.591 0.46998-2.7407-4.1167-5.0246-1.6057-9.5104 1.5136-2.6672 3.8465 0.46504 2.4985 1.9076-0.66758 0.07225-1.3936-0.65592-1.9751-0.05338-0.16273 1.0747 1.0447 1.4539 1.8125 1.8193 0.4216 1.9669 1.2423 3.1456 3.2659 2.8544-0.28148-0.92581-1.4116-1.3237-1.5652-2.3377-0.0465-1.2796 0.4302-2.5845 0.02086-3.8478-0.37698-1.8752-2.8524-2.9899-4.4553-1.8825-2.1714 1.5331-3.4928 5.5772-2.7053 8.3122 0.42222 4.2408 3.0502 6.5507 3.5452 7.4263-0.36285 0.89346-1.4517 1.2771-2.3543 1.2934-0.22336-0.60475-0.63249-1.2938-1.3701-1.2658-0.55605-0.01382-0.68856 0.63968-0.95842 1.005-1.545-0.39458-4.3642-2.3156-3.1127-4.6988 1.7734 0.12943 0.96002 1.8298 0.86578 2.2445 2.4397 0.05969 4.6174-6.1235-1.1124-7.1398 1.5972-7.0072 6.6959-12.297 7.8705-10.024 0.09079 0.73512-0.47733 1.2909-0.68907 1.9494 2.1369 0.08137 2.3522-4.3825-1.3793-2.8728-0.97702 0.28839-1.4143 1.2887-2.2285 1.8193 0.44673-0.85827 1.1189-1.5657 1.6818-2.3426 0.40243-0.60946 1.2148-0.57006 1.845-0.72589 3.7428-0.67009 4.9388 3.2848 6.5322 3.3944 1.0631 0.32578 2.1358-0.39558 3.1852-0.04909 1.1328 0.49793 2.1958 1.2563 2.7544 2.3961 0.15111 0.01162 0.45144 0.03501 0.60255 0.04663 0.02325-0.15362 0.06996-0.45873 0.09572-0.61235-2.5189-4.4695-7.4879-6.7179-11.967-6.1273 0.7059-0.19195 1.3956-0.46244 2.0751-0.73261 2.4243-0.96383 10.75-1.9096 8.4982 1.3419-0.41186 0.01634-0.82572 0.03511-1.2376 0.08161 0.8567 1.9456 3.9533-1.0808 1.4302-2.5991-0.98393-0.60506-2.212-0.47192-3.2961-0.27182 10.012-3.8688 5.7553-10.397 5.8279-12.642-0.0022-0.90728 0.50962-1.7031 0.62586-2.5893-4.9197 1.3584-3.1384 7.4696-3.3134 9.7595-1.0292 4.6548-6.388 5.6482-7.0078 5.8832-0.10807-0.02262-0.38616 0.02991-0.49517 0.04909 0.19697-0.76591 1.5638-2.2487-0.08713-2.4378-0.81932 1.25 0.71112 2.3382-4.406 3.7871 0.86298-1.4027 1.6633-2.8591 2.1144-4.4528 0.42097-1.0119 0.14678-2.3333 1.1492-3.036 1.267 2.0272 4.2244 3.4654 5.192 1.2235 3.9816-0.65815 2.6978-3.1016-0.02086-3.6288-0.22085-1.6424-2.3639-1.7845-3.527-1.0842 2.3879-3.0366 0.54148-3.7777-0.16505-4.3152-0.29782-0.56076-0.45584-1.1843-0.74674-1.745 0.63522-1.2726 2.031-2.1916 3.4802-2.0125 0.20232 1.3958 0.95346 3.0476 2.5261 3.2452 0.80486 0.35814 1.6335-0.88855 0.9216-1.4609-0.56077-0.5328-1.3171 0.55599-1.9058 0.04172-0.53281-0.3839-0.71407-1.0448-0.74674-1.6659 2.1761 0.28902 5.6717 1.8521 7.1929-1.4867 0.36756-0.8234 0.67958-1.6978 0.61235-2.612-0.76779 0.22807-1.2402 0.95358-1.9659 1.2768-1.7332 0.87241-3.713 0.265-5.5577 0.41173 0.36348-2.4708 2.7935-6.1012 4.1761-8.2698 0.92204 1.8689 1.8645 2.1003 3.6385 1.8634-0.1442-0.78633-0.7535-1.3609-1.0142-2.096-1.0477-2.8013 0.14498-3.7752 0.0068-7.7612 0.17687-0.0443 0.52819-0.13732 0.70254-0.18162 0.3374-0.8655-0.67-1.2095-0.8676-1.926-0.47532-1.3882-1.0214-4.6548-5.8744-7.8378 2.7215 0.76654 4.0567 3.4161 6.056 3.527 0.5771-2.0624-3.4139-3.2616-5.3903-4.0897 0.6792-0.07445 1.3397-0.27677 2.0236-0.31416 0.73292 0.30002 1.4072 0.80753 2.2353 0.80502-0.21865-0.59092-0.62787-1.0701-1.0001-1.5659 0.74894-0.53281 1.6517-0.93992 2.1144-1.7819 1.889-3.3159 2.0782-6.6384-1.6119-8.3213 0.6726-3.555-0.29539-4.2398 0.51418-6.0971 0.31635-0.97231 1.0541-1.7053 1.5518-2.5777-3.2873 0.66098-6.9466 3.8785-6.1854 7.1439-2.2962-1.1913-4.8788-1.6214-7.3355-2.366 0.49071-1.8912 1.84-3.3589 3.0219-4.8502-0.0069 1.1074 0.04423 2.3242 0.81422 3.2034 0.5771 0.46997 0.93718-0.55354 1.5027-0.58841 0.48631 0.12095 0.8774 0.55345 1.3892 0.55345 0.94686-0.88874 0.79569-2.2911 0.5651-3.4428 0.88874 0.45615 1.8399 1.056 2.8844 0.83263 0.0955-0.56296 0.01612-1.1842 0.29759-1.6959 0.31887-0.26766 0.69592-0.45072 1.0449-0.67188-0.36536-0.78853-0.91416-1.4677-1.5192-2.0844 1.1143 0.039583 2.233 0.013666 3.3495 0.006754-0.4373 0.61888-1.2073 1.1796-1.0726 2.0334 0.02796 0.61637 0.94912 0.8791 1.2934 0.36263 0.41877-0.50705-0.19331-1.0071-0.34912-1.4818 0.33256-0.5274 0.87307-0.85485 1.4241-1.1185h-7.6735c0.7993 0.64571 2.0982 1.2207 1.8021 2.4592-1.2132 0.26558-2.9133-1.5524-1.8788-2.4592h-0.82773c-0.01998 0.064691 0.04433 0.14129 0.0098 0.1988-0.21384 1.001-1.9375 0.79179-1.9555-0.1988zm6.034 40.155c-0.3107-0.78916-3.7158-1.9558-4.0777-5.3837-0.07665-0.7235-0.15573-1.6004 0.46756-2.1169 0.35594 0.36285 0.55825 1.3589 1.2167 0.97253 0.21645-0.32326 0.2024-0.74232 0.11413-1.1008-0.1687-1.6449-4.0161-0.89729-2.1451 3.6552 0.30693 0.80486 1.0584 1.2954 1.5726 1.9561-1.3097-0.39081-2.5175-1.2632-3.9436-1.1376-2.1636 0-4.5197 1.2568-5.1455 3.4365-0.34903 1.0235 0.82095 2.6031 1.8818 1.8168 0.76308-0.63051 0.10722-1.5701-0.65837-1.7819 0.85827-1.9566 3.2681-2.8615 5.2853-2.5826 2.01 0.25352 3.429 2.0891 5.432 2.266zm13.594-40.155c-0.29099 78.548 0.25009 120.22-0.02105 193.41h1.4705c-0.15918-0.39454-0.90366-0.80414-0.99618-1.3051-0.22316-0.6738-0.42367-1.6846 0.08119-2.3408 1.3449-0.98174 2.1513-0.3414 2.8176 1.0817-3.6238 0.93713 0.22627 3.2348 0.95751 1.9684 1.1463-1.9075-2.9356-4.516-3.4494-5.4437-1.8321-2.4661 0.16966-5.2602 1.256-4.7459 0.6258 0.34652 1.1406 0.87228 1.6291 1.3935-0.51427 0.54191-1.6821 0.39297-1.8285 1.3493-0.49542 1.2073 1.2492 2.1355 2.1402 1.3793 1.7674-2.0722-1.0354-4.1757-2.936-5.6947-1.496-1.1818-1.312-3.9455 0.38412-4.8436 0.6258 0.10241 1.1052 0.64659 1.5843 1.0443-0.23279 0.51647-1.0866 0.51414-1.1167 1.1701-0.26766 1.07 1.0121 2.0872 1.9684 1.48 0.37447-0.47217 0.56548-1.1426 0.39332-1.7266-0.62108-0.93524-1.3429-1.8373-2.2942-2.4562-3.3574-2.2786-2.2507-5.4751-0.80688-6.6095 0.6792 0.45144 1.3441 0.93524 1.8769 1.5585-0.39772 0.2953-0.93747 0.5285-1.0726 1.0566-0.17436 0.64433 0.08149 1.4166 0.64917 1.791 0.41657 0.10461 0.88881 0.13518 1.2934-0.0302 0.59092-0.45835 0.74238-1.3306 0.43074-1.996-1.3163-2.9157-6.8106-3.6992-2.9127-9.0897 0.53972 0.31415 1.2142 0.61885 1.3885 1.2842-0.30002 0.53972-0.93505 0.97228-0.83263 1.6634-0.05592 1.1027 1.4029 2.022 2.3218 1.2916 2.616-3.4318-8.7275-6.748-1.9616-11.939 0.78413 0.4838 1.4981 1.1212 1.7585 2.0402-0.58401 0.20011-1.4306 0.21881-1.6143 0.94921-0.06283 0.98865 1.0071 1.7376 1.9285 1.4652 1.2902-0.80643 0.33351-3.4752-2.2328-5.5131-1.4998-1.1646-2.7937-4.0658-0.3025-6.2206 0.52589 0.5793 1.2512 1.0698 1.4677 1.8561-0.47908 0.49542-1.2443 1.0305-0.97193 1.8309 0.08451 2.0354 3.5562 1.9493 2.0702-1.6211-0.76497-1.9895-6.4628-5.4214-2.5077-9.2707 0.44044-0.29907 1.6426 1.1278 1.9702 1.8837-0.54192 0.0792-1.2513-0.10652-1.6094 0.43319-1.005 0.819 0.30676 2.8732 1.4468 2.1218 0.73983-0.26986 1.1773-1.1078 0.97498-1.8684-0.31698-2.6348-6.8803-6.295-3.5104-9.7473 1.1021-0.98142 2.0171 0.15803 2.7403 1.5051-2.5613 0.89691-1.3931 2.3422-0.62156 2.8219 0.49794-0.0955 0.94466-0.36109 1.4143-0.54487 1.5692-3.3457-3.2251-4.4098-4.1245-7.9305-0.57239-1.4099-0.22287-3.2823 1.1707-4.0639 0.74674 0.78413 1.726 1.5356 1.9377 2.6544-2.3643 1.0135-1.2009 2.524-0.44852 2.8611 1.3471 0.2862 2.2447-1.4192 1.6585-2.5218-0.96602-2.8761-4.0287-3.4211-4.5025-6.8391-0.28714-2.0722 1.5591-3.8873 2.269-3.7202 0.7747 0.59563 0.99816 1.6025 1.1609 2.5145-0.7257 0.26765-1.5864 0.57502-1.861 1.3824 0.18975 3.6847 6.8476 0.17635-0.34912-5.8562-2.6034-2.1821-1.7034-5.3221-0.01165-6.9372 0.84225 0.74675 1.7495 1.5285 2.1077 2.6384-0.76088-0.0675-1.3817 0.34217-1.6585 1.0449-0.58621 0.76308-0.03057 1.7956 0.73691 2.1653 0.46526 0.0581 0.98434-0.0276 1.3708-0.30434 2.8001-2.6389-2.104-6.471-2.8992-7.9773-0.80486-1.3468-0.92786-3.0078-0.5694-4.5128 0.39835-1.6744 2.5744 0.0583 2.7795 0.97438-1.277 0.32107-1.5256 2.3006-0.42766 2.9587 1.884 0.71533 3.0318-2.8782 0.01841-4.9897-4.472-3.2333-2.4212-6.6205-1.0701-6.3836 0.3839 0.27928 0.88205 0.57943 0.97253 1.0818-0.26043 0.61197-0.89795 1.2417-0.49332 1.942 0.2862 0.75837 1.3794 1.0961 1.926 0.41908 1.8733-1.7677-3.3941-4.5116-3.9876-7.6889-0.03079-3.9398 1.7703-4.5332 3.1544-2.2868 0.5237 1.1844-1.9866 0.89383-0.62096 3.2568 0.26986 0.70245 1.3515 0.54217 1.6377-0.06258 2.058-3.6454-8.0606-7.6333-2.6887-12.26 0.48851-0.11875 0.7841 0.38892 1.1143 0.65407 2.1677 2.3844 0.5552 2.2455-0.0043 2.4629-1.3838 0.53783-0.90907 1.9385 0.11413 2.1261 1.0496 0.19226 2.8531-1.032 0.99706-4.5288-0.9123-1.8014-3.653-2.8208-3.8569-6.0745-0.02796-1.1259 0.62809-2.2494 1.6192-2.7728 0.6236 0.1932 1.1984 0.78633 1.3658 1.4401-2.2519 1.2623-0.79095 3.2663 0.19266 2.9943 2.7199-1.6411 0.93442-3.2779-1.2493-5.2948-1.8243-1.6616-2.9097-5.1524-0.40435-7.5212 0.68643 0.66286 1.5192 1.2862 1.7702 2.2611-0.41186 0.41406-1.1657 0.45376-1.3658 1.0818-1.0772 1.8783 2.0458 3.0235 2.3825 0.11413 0.05749-4.0152-7.431-6.5809-2.8151-10.89 0.71187 0.51396 1.3844 1.2026 1.4542 2.131-0.49322 0.34431-1.2008 0.62567-1.2658 1.3143-0.20012 0.76779 0.50029 1.598 1.2634 1.6143 0.60035-0.21174 0.98877-0.84454 1.1983-1.41-0.01382-1.6773-0.77929-3.3589-2.1518-4.357-2.1714-1.5384-2.931-4.3627-0.44915-6.0578 0.52338 0.30253 1.0562 0.60443 1.4401 1.086-0.34651 0.42097-0.90049 0.8169-0.81913 1.4358-0.07665 0.72821 0.45398 1.6075 1.2683 1.5192 4.9916-2.2902-7.5297-6.6943-2.1242-11.76 0.56296 0.47469 1.1328 0.94909 1.6751 1.4517-0.50956 0.40494-1.2538 0.67685-1.4284 1.3677-0.28305 2.4089 3.3637 2.4597 2.431-0.81913-0.47908-1.6144-2.2707-2.259-2.9968-3.7221-1.676-3.5801-0.22269-5.6589 1.0191-6.1995 0.9654 0.59784 1.7959 1.5514 1.9285 2.7194-0.73041 0.02105-1.6914-0.13038-2.1451 0.60255-0.14357 1.2346 0.2917 1.6586 1.6426 1.7475 0.5793-0.23719 0.90222-0.84259 1.0744-1.4125 0.70999-3.9288-3.6244-4.014-4.2037-7.1791-0.38641-2.9955 1.3159-3.8233 1.9285-3.9012 0.73983 0.28148 1.2169 0.95148 1.7076 1.5352-0.11875-0.0955-0.35801-0.2886-0.47676-0.38412-0.52338 0.32578-1.1723 0.61241-1.3935 1.2382-0.48851 1.1306 0.98381 2.5703 2.061 1.7978 1.1165-0.8212 0.5465-2.4123-0.12578-3.3429-0.84445-1.4027-2.5028-2.0003-3.3938-3.3611-2.2038-3.3662 0.23128-7.0276 3.0213-4.1717-3.4152 0.61449-1.6041 3.314-0.2485 2.7151 0.87932-0.56076 1.3791-1.7118 0.99524-2.712-0.62768-1.3886-5.0538-2.3743-4.4079-5.8954 0.37133-2.0241 2.9632-3.9285 4.0127-0.7676-0.44421 0.05812-0.93778-0.02114-1.3474 0.20003-1.6075 1.1897 0.50148 4.0187 1.8941 1.6659 0.33489-0.71878 0.1391-1.5235-0.15401-2.2169-0.78162-2.1843-3.768-2.7572-4.1588-5.1628-0.51427-1.6682 0.56743-3.3194 2.026-4.0686 0.35374 0.45835 0.84677 0.87445 0.96332 1.4726-0.15331 0.42568-2.0938 1.5957-0.83754 3.0569 0.85293 0.51553 3.7755 0.26945 0.97928-4.0802-0.42725-0.75384-1.4561-1.2757-2.2666-2.1236zm5.6868 0c-0.29365 0.43253-0.60735 0.73798-0.63751 1.1014 0.99744 2.6854 1.9262 2.7164-0.22764 6.7465 1.6911 2.6625 2.1735 5.3284-0.24482 7.4257 1.7762 2.2896 2.2699 4.2734-0.17671 7.0163l-0.01841 0.20064c0.68172 0.84916 1.5517 1.6445 1.7892 2.7544 0.53343 2.5852 0.36678 3.6888-1.5517 5.3972 1.8347 3.2135 2.4787 5.1974-0.18592 7.9497 2.2242 3.1419 2.0817 5.0755-0.27918 7.4722 2.3873 2.4664 2.9007 5.2231-0.12333 7.1464 0.91702 1.3741 3.5481 4.3231 0.36753 7.9305 1.8523 3.0464 2.2445 4.4912-0.03498 7.6374 2.2607 2.7727 1.9912 5.0695-0.09756 7.7147 1.808 2.2449 2.7499 5.9557 0.2442 9.0263 2.9813 4.1861 0.43347 6.7405 0.26507 7.2441 0.60349 1.775 2.4473 3.495-0.235 6.4537 3.2656 4.756 0.12572 7.4313-0.35587 8.1514 3.161 3.9684 2.4082 5.2363 0.16076 8.4288 2.9119 4.0545 2.2718 6.2209 0.25341 8.8073 2.7806 3.9907 1.6986 5.4638 0.15831 7.4539 2.49 2.555 1.8285 5.6937-0.10922 7.2881 0.7747 1.0889 1.7472 2.2312 1.6683 3.6593-0.13257 1.3587-0.89584 2.6704-2.1126 3.3335 3.5543 3.7934 0.90935 7.0104 0.60745 7.6047 1.0562 1.3983 1.6262 3.162 1.3051 4.9159 0.05812 1.191-1.1563 1.7167-1.8217 2.5052 2.43 2.6376 2.1551 4.8084 0.43011 7.0814-0.31164 0.28148 0.06755 0.61187 0.20923 0.8676 2.4278 3.3062 0.36288 5.1053-0.05338 6.2746 0.0999 0.69397 1.376 1.5219 0.95412 3.9477-0.16524 0.93744-0.96062 1.5538-1.4168 2.3445 1.4351 3.2515 2.7109 3.9257-0.48842 7.142 0.6775 0.91871 2.2348 2.3595 1.6983 4.3872h1.5841c0.24655-72.174-0.21288-128.56 0.091099-193.41zm2.7887 0v193.41h1.8856v-193.41zm-23.057 0.24789c0.02796 0.84445-0.68665 1.4026-1.2867 1.8751-0.40463 0.28557-0.92295 0.034384-1.3628-0.019006-0.39772-1.2692 1.4249-1.6893 2.6495-1.8561zm1.3167 1.456c0.8545-0.40903 1.4971 2.4487 0.67248 3.0428-1.278 0.39175-1.7148-1.6237-0.67248-3.0428zm5.4694 6.0764c0.39803 1.726 0.32835 3.6385-0.5651 5.2043-1.742-2.1595-0.9818-5.5747 0.5651-5.2043zm-10.404 1.7235c2.5333 0.78162 5.1273 1.389 7.5746 2.431-1.2896 0.04869-4.363-0.24631-6.339 2.8544-0.39521 0.59124-0.56554 1.2937-0.86085 1.9359l-0.15831-0.10922c-0.13257-0.76308-0.24894-1.5265-0.50497-2.2617-0.03016-1.617-0.06284-3.2612 0.28838-4.8502zm7.4555 3.565c0.56598 0.081 1.0977 0.24552 1.5014 0.49024-1.3936 1.0446-3.2989 1.4838-5.0039 1.1093-0.20334-1.3357 1.8044-1.8426 3.5022-1.5996zm4.0601 0.362c5.1355 2.2685 0.95578 9.2726-0.97438 8.7615-0.6437-4.3532 2.139-2.8672 0.97438-8.7615zm-1.5886 0.43749c0.32138 1.8632 0.67926 4.6602-1.2333 4.3363-0.28871-1.1244 0.29807-3.6436 1.2333-4.3363zm-2.6734 1.6518c-0.94686 1.4096-2.0936 2.6728-3.0194 4.0988-0.44641 0.66318-0.8163 1.375-1.291 2.0168-0.57239-0.535-1.0449-1.1744-1.3591-1.8954 2.01-0.83691 1.3559-1.9611 5.6695-4.2204zm0.10247 0.65837c-0.11152 1.6958-0.08804 3.4667 0.53997 5.0695 0.23719 0.70968 1.0048 1.1981 0.99094 1.9819-1.8821 0.26514-3.9499-0.02579-5.4829-1.2167 1.1027-2.0822 2.5447-3.9571 3.9521-5.8345zm-11.185 34.5c3.517 2.3722 3.3357 3.7871 3.4544 4.3737-0.32798 0.50265-0.74222 0.96851-0.84244 1.5849-0.45866-0.0066-0.91673-0.0068-1.3726 0.0092-0.80266-1.0794-1.8982-1.8777-3.0053-2.6175-0.32578-1.382 0.76531-2.5591 1.7659-3.3501zm-1.7082 4.3693c1.3003 0.49542 2.8385 1.7286 2.35 3.2942-1.0958-0.79795-2.0453-1.9541-2.35-3.2942zm6.3739 1.7125c0.27457 0.66538 0.09562 1.3656-0.04418 2.0426 0.44673-0.13509 0.89817-0.32075 1.3751-0.2485-0.01791 1.6967-1.2605 3.9128-2.3776 3.6385-1.1325-0.98236-1.6257-2.5506-1.4419-4.0183 1.3276-0.13257 1.0888 0.3969 1.6769-1.3793 0.26986-0.01634 0.54192-0.02805 0.81178-0.03498zm-4.5662 4.6266c1.7954 0.19415 4.1914 3.8999-0.94922 3.3926 0.02796-0.30473 0.05365-0.60472 0.08161-0.90505-0.4838-0.25352-0.96084-0.51179-1.4333-0.78416-0.01162-0.12315-0.03261-0.36561-0.04172-0.48656 0.80266-0.28839 1.6142-0.0065 2.4052 0.17732-0.03707-0.46526-0.06479-0.931-0.06259-1.3941zm8.3681 0.59334c-0.01634 0.48851-0.20468 0.94205-0.38594 1.391 0.85136-0.13666 1.8585-0.23894 2.5286 0.42643 0.29782 0.1932 0.17223 0.56488 0.19328 0.8627-0.71187 0.16996-1.4449 0.12106-2.1684 0.10001-0.29091 0.23028-0.21881 0.67037-0.34667 0.99584-2.2135-0.21991-3.2584-1.9746-2.3402-2.6636 0.6748-0.63522 1.5376-1.2613 2.5194-1.1124zm-4.3435 1.2026c0.24488 0.07127 0.45147 0.24988 0.52828 0.53136 0.03707 0.64182-0.82604 0.96486-1.3167 0.65102-0.35814-0.23719-0.32594-0.86085 0.03252-1.0701 0.22792-0.14781 0.51107-0.18356 0.75592-0.11228zm-5.2222 11.423c-0.81586 1.7618-3.2248 3.975-4.5694 9.7683 0.04241-0.31541-0.39524-6.9092 4.5694-9.7683zm19.639 9.3499c0.10461 2.1614 0.19054 4.341 0.03252 6.5046-3.0611-1.617-2.3987-5.4911-0.03252-6.5046zm-1.7469 6.4279c0.61417 0.26766 1.177 0.64194 1.826 0.83264 0.07917 1.0003 0.04893 2.01-0.04909 3.0102-1.0213 0.06063-1.6327-0.8468-2.1586-1.5775-0.25352-0.76748 0.08383-1.5604 0.38164-2.2653zm-27.791 4.0802c0.96068 0.64433 1.8126 1.6633 3.0642 1.6702-1.0772 0.19069-2.1036 0.61175-2.9575 1.3051-1.2004 0.5793-3.3194-0.83075-2.447-2.2077 0.54914-0.64684 1.5074-0.99317 2.3402-0.7676zm1.4542 0.16996c1.3631 0.24881 2.6569 0.78834 3.9502 1.2768-1.3678-0.13729-2.9057-0.27911-3.9502-1.2768zm25.794 0.39269c0.73292 0.59092 1.5563 1.0402 2.4494 1.345-0.0022 0.35594 0.0025 0.71891 0.0074 1.0818-0.71187 0.15833-1.2398 0.69328-1.9027 0.95842-0.78853-0.74203-1.5151-1.5544-2.3991-2.1893 0.57679-0.42348 1.1404-1.0982 1.845-1.1959zm-5.886 0.45405c1.1338 0.11388 2.0695 0.4515 2.4875 0.82833-2.0404 0.42097-4.1688 0.21614-6.1647-0.31416 1.2115-0.5182 2.5433-0.62806 3.6772-0.51418zm-5.8659 0.3117c0.23196 0.01068 0.4586 0.06812 0.67616 0.20187-0.33049 0.22336-0.65134 0.47937-1.0308 0.61665-0.62328 0.01885-1.2142-0.25087-1.7935-0.451 0.7066-0.01037 1.4523-0.39954 2.1482-0.36753zm1.0983 0.63261c0.16458-0.07324 0.33998-0.09121 0.5203 0.02394 1.8843 0.80958 3.9872 0.92361 6.0044 0.69334 0.66758-0.03707 1.3025-0.7093 1.961-0.30434 0.96791 0.54223 1.652 1.447 2.401 2.2402-0.85858 1.6446-1.005 3.5663-0.48166 5.3413-0.03927 3.0429-0.57572 3.6788 2.5611 6.3371 0.22902 15.984 0.44981 80.172 0.25818 81.608-0.94215-0.11875-2.3078-0.43489-2.7542-1.3444 0.4838-0.24661 0.78174-0.68872 0.96332-1.1867-1.7835-1.124-2.3935 1.9672 0.39332 2.8943-1.4354 0.0116-2.9107-0.0816-4.3042 0.30923 0.90508-0.53281 1.687-2.0584 2.1058-3.031-0.46746-0.0465-0.93279-0.0813-1.3984-0.12085-0.53029-0.81649-0.54434-1.8077-0.55345-2.7452-1.3889 0.36756-2.3035 1.7533-3.1921 2.9492 0.59564-1.5937 0.26613-3.2314-0.19222-4.8552-0.08608-0.0163-0.25569-0.0463-0.34177-0.0626-0.41877 0.51647-0.85604 1.0584-1.4935 1.3192-0.81649-0.0606-1.3008-0.87712-2.0359-1.1517-0.47909 0.66758-0.5581 1.5195-0.87005 2.2684-0.94215-1.1586-1.9502-3.4196-2.4642-4.8273 3.921-1.8064 4.4525-1.2613 8.524-4.6222-1.4307 6.0497 3.6272 8.3471 6.0996 6.2115-0.65595-0.80015-1.6355-1.3796-1.9518-2.4151-0.47908-1.1749 0.19758-2.3891 0.05338-3.5895 0.0022-0.37918-0.1209-0.84891 0.24666-1.0977 3.3633-3.1858 1.5864-8.1316-1.005-9.6106-0.05341-0.26043-0.10735-0.51411-0.16076-0.76512-1.7074 0.46997-3.4218-0.27231-5.1455-0.0283 5.6507-1.2736 6.733-1.8101 7.344-2.6844 0.40746-1.2057-3.244-0.64927-6.1439 1.6192 1.845-1.6729 3.0756-3.0538 4.4104-6.6654 0.47909-0.0697 1.3077 0.12343 1.3517-0.57431 0.16053-0.60474-0.52363-0.95396-0.85412-1.34 0.22556-1.4728 0.4167-2.9548 0.41418-4.4437 0.0267-3.0118 1.3759-4.2873 1.6143-5.3343-1.4401-0.42096-2.9241 0.67723-3.3545 2.0334-0.88403-2.6521-2.682-4.8923-3.4519-7.5887 1.8331 0.0211 3.7457-0.64424 5.5137 0.11413 0.76999 0.27456 1.1929 1.0143 1.842 1.4585 0.17687-1.4492-0.34884-3.0127-1.5793-3.8619-1.6936-1.5541-4.1525-1.098-6.2111-0.78416-0.22085-1.147 0.14398-2.6634 1.3444-3.1029-0.01853 0.58401-0.12337 1.617 0.78171 1.4493 1.0028 0.142 1.3443-1.2238 0.66513-1.8125-2.1406-1.376-3.4962 1.0635-3.5685 3.6502-3.6904 1.0207-3.9408-0.17703-3.8387-1.6818 1.3097-0.0606 2.0032-1.3474 1.9567-2.5384 0.59187-0.10776 2.2453 0.0249 0.79767-3.0428 0.74674-0.13037 1.5052-0.23043 2.2334-0.45159 0.18158-0.38139 0.14882-0.81184 0.20003-1.2143 0.52809-0.28368 1.2286-0.47463 1.4425-1.1026 0.56768-1.523-0.2224-2.1363-2.0168-2.6801-1.0515-2.2132-3.8295-1.3493-4.9969 0.83753-0.22556 0-0.45185 3e-3 -0.67738 7e-3 -0.47469-3.0639-1.9767-5.9162-3.8845-8.3263 4.1289 0.96853 2.7262 2.7973 3.7595 3.6244 1.07-0.16744 0.55775-1.4984 0.47858-2.215 13.123 4.5697 8.8984 10.798 8.9173 12.8-0.15425 2.3103 1.0622 4.5018 3.757 4.9338-0.20232-0.86769-1.0094-1.4836-1.0186-2.4144-0.30316-4.449 4.7541-7.2318-5.6347-13.379 5.2131 0.64495 4.253-2.7829 2.7869-2.8495-0.6792-0.23027-1.9797 0.0671-1.861 0.93693 0.677 0.26986 1.5075-0.38603 2.1518 0.23255-0.9789 2.9367-4.6454 0.33979-10.95-1.3302 6.3189-0.24661 12.06-2.8766 12.111-5.5002-0.95157 0.29311-1.4706 1.3217-2.4734 1.5567-2.031 0.46526-4.1475-0.7633-6.1389 0.0743-2.1944 0.73983-1.5963 3.116-6.0811 2.4776-0.31164-0.0697-0.69786-0.0584-0.89766-0.35406-1.3675-1.6236-3.326-5.0632-3.7827-6.1995 1.169 1.4162 1.7027 2.8129 4.4528 3.5735 1.7084 0.42159 2.7108-3.0152-0.39332-2.9084-0.01382 0.15362-0.0393 0.45879-0.05093 0.6099 0.71407 0.13257 1.5122 0.61398 1.1425 1.4609-2.1818 0.10839-5.5948-2.915-6.2162-7.2648 4.8188-1.0631 3.7463-5.4418 1.9868-7.1278-0.36285 0.32798-0.55398 0.77206-0.68907 1.2351-0.32107 0.0141-0.63956 0.0166-0.95842 0.0166-0.64213-1.8868 1.3867-3.4714 3.0875-3.5807 1.1275 2.2113 1.7912 0.21352 2.3236-0.38839 0.81178 0.15111 1.6406 0.39568 2.1942 1.0541-6.7597 8.6948-0.51948 16.586 2.7562 14.281 2.3854-1.1379 0.12608-4.9087 1.7892-6.3623 0.56768-0.47217 0.79311-1.1772 0.64672-1.896-1.8139-0.099-3.3963 0.9325-2.782 3.6618-2.522-0.73072-2.0207 0.8185-1.5818 1.0026 0.62108 0.35343 1.5628 0.4353 1.7327 1.275 0.24881 0.65847 0.1492 1.9029-0.79767 1.8168-1.8661-0.12503-2.4491-3.6888-1.4401-5.4069 1.5441-2.6942-1.387-4.2555-1.2566-5.5178 0.27206-0.9632 1.0847-1.6286 1.6266-2.4335 2.2537 2.2248 3.745 3.6417 6.6255 2.3868 0.51427-0.23719 1.0494-0.48857 1.41-0.94001 0.37227-0.41625 0.58577-0.99521 1.1186-1.2443-0.15268 3.6866-2.5307 3.3036-2.2819 5.192-0.12786 1.4168 1.1236 2.3567 1.5119 3.6153 0.63176 2.4485-1.5404 3.9769-2.6028 3.3058-0.76057-0.23499-0.9123-1.0817-0.96822-1.7634 0.61417-0.23028 1.0635 0.23268 1.5008 0.59334 0.61417-0.64904-0.0328-1.552-0.81913-1.515-2.3442 0.30065-0.92562 4.641 2.1126 3.0452 2.6907-0.90257 2.3043-9.473 2.0844-13.034-2.4545 0.15016-2.4297 1.0814-7.1838-0.64735-0.28839-0.13037-0.67898-0.19019-0.74181-0.55775 0.13838-0.10587 0.29193-0.23478 0.4565-0.30802zm13.134 2.8685c0.01382 0.80486 0.033 1.6122 0.02576 2.4218-0.83754 0.59564-1.6286 1.2537-2.3543 1.9819-0.49542-1.8029 0.60226-3.7711 2.3285-4.4038zm-0.10247 3.3944c-0.08388 2.282-0.0534 4.5666-0.14419 6.8489-2.8368-1.6107-2.2902-5.8216 0.14419-6.8489zm-24.567 5.8672c1.5745 5.1967 2.998 6.2891 4.2926 8.3798-3.1921-1.2494-5.2442-5.0274-4.2926-8.3798zm-1.3118 3.0053c-1.2638-0.0204-0.08659 5.5247-1.7327 8.5048-2.1425 2.7548-4.7503 0.78476-3.1993-1.3352 0.38358-0.10901 0.78375-0.13683 1.1676-0.24175 0.27928-0.29782 0.22824-0.52317-0.15094-0.67679-2.4231-0.054-2.705 1.8562-1.8401 3.5522 1.2001 2.2811 4.7243 0.0958 5.4044-2.6568 0.39552-2.3637 0.23945-4.7642 0.35097-7.1464zm15.491 14.788c0 0.35374-0.01108 0.71011-0.0227 1.0682 0.86518 0.0722 1.9979-0.24202 2.4678 0.71175-0.54914 0.61888-1.34 0.88874-2.1543 0.9167 0.12315 0.36976 0.24688 0.74659 0.34237 1.1327-1.0933 0.14671-2.3684-0.21657-2.9059-1.2517-0.38138-0.83503 0.43071-1.5237 0.87743-2.131 0.32107-0.44892 0.89735-0.47936 1.3953-0.44669zm-7.4489 0.90995c2.4451-0.40024 3.3696 2.8175 0.31416 3.527-0.40023 0.049-1.0583 0.19763-1.1818-0.32826 0.18598-0.32327 0.409-0.61873 0.61602-0.92346-1.5874-0.016-2.1889 0.23229-2.3629-1.3143 0.84696-0.20011 1.7328-0.16069 2.4795 0.32091-0.0047-0.41657-0.35352-1.0352 0.13499-1.2818zm4.292 0.68168c0.0047 0.34903-3.4e-5 0.70003-0.01166 1.056-0.42348 0.10932-0.85635 0.13536-1.2842 0.054 0.0069-0.36976 0.01883-0.73302 0.03988-1.0959 0.41406-0.10713 0.83722-0.10742 1.256-0.0141zm-0.18837 2.0009c1.5959 0.0371 2.394 1.9074 2.3101 3.2895-0.39301-0.17907-0.77241-0.38402-1.156-0.57 0.18158 0.71878 0.34871 1.5027-0.03988 2.1936-0.05592 0.27897-0.59322 0.35798-0.67678 0.0718-0.33269-0.57239-0.35402-1.2559-0.47246-1.8886-0.36976 0.13037-0.83465 0.62762-1.2069 0.30434-0.55448-0.93964 0.19073-3.6093 1.2419-3.4004zm-2.1126 1.256c-0.30944 1.24-0.70493 2.6658 0.09081 3.8154 0.26986 0.0443 0.54192 0.0932 0.81178 0.14665-1.8793 10.723-5.6717 3.8685-5.6296 1.3842 2.7639-1.5375 3.598-3.1805 4.7271-5.3463zm-0.7044 0.18101c-0.44641 1.1913-2.4809 3.6907-3.925 4.2185 0.49794-1.9566 2.1919-3.3599 3.925-4.2185zm7.3845 36.065c1.0428-0.13054 2.107-0.0917 3.1305 0.12456-1.7904 2.032-3.2524 3.5908-2.3825 7.0352-0.94686-2.245-1.7892-4.6856-3.7526-6.2677 0.93995-0.46165 1.9619-0.76164 3.0047-0.89217zm4.6099 0.66022c2.4985 0.25384 4.7202 6.8052 0.6142 8.8865 2.4265-2.784-0.40008-5.2027-0.70009-6.3205-0.15362-0.85388 0.01363-1.7168 0.0859-2.566zm-8.0791 0.50928c2.9443 2.3847 2.7001 5.4154 4.6756 7.1973-5.0271-2.7982-0.72475-0.53368-6.153-5.6438 0.15142-0.69993 0.92616-1.1348 1.4775-1.5536zm6.2341 3.2992c0.48348-0.19955 1.0914 0.11846 1.229 0.44424 0.98959 1.8654 0.61191 2.4055-0.02331 4.1754-0.7213-0.47689-1.4753-1.0814-1.6892-1.9586-0.35939-1.7445 1.9e-5 -2.4615 0.48352-2.6611zm-9.37 0.84859c1.026 1.2167 0.76098 3.0058 1.7634 4.2411 1.7162 2.1994 1.7153 2.48 5.9579 1.0959-1.7954 1.9946-6.6004 3.5462-8.0471 4.122-0.61072-2.1067-0.73666-7.1935 0.32581-9.4589zm3.97 2.7605c0.27861-0.13176 0.6465-0.13255 0.91054 0.0245 1.0863 0.54663 2.2196 1.0491 3.4642 1.056-2.5679 2.0527-4.6727 0.98726-4.7484-0.32088-0.09425-0.3652 0.09506-0.62787 0.37369-0.75963zm6.7549 1.4787c0.21614 1.2887 0.66522 2.7188-0.05829 3.9354-0.2862 0.59784-1.0961 0.41211-1.5334 0.10738-0.67292-1.0864 0.40978-3.5437 1.5916-4.0428zm-5.81 10.515c0.80392-0.30096 1.2659 1.7986-0.06075 2.7734-0.34871-0.85387-0.75353-2.0593 0.06075-2.7734zm-3.238 1.9717c0.71121 0.14401 1.2897 0.84831 1.0854 1.6334-0.86078-0.0767-2.0358-0.48847-1.8168-1.5726 0.24253-0.0941 0.49432-0.10873 0.73138-0.0608zm8.0263 0.70126c0.31667 1.5937-0.73742 1.4203-2.0377 1.4008 0.32578-0.80958 1.093-1.5984 2.0377-1.4008z" fill="{{ border_color }}" stroke-width=".31415"/>
 <path d="m80.178-0.0035888c0.5345 0.18493 1.0832 0.32622 1.6229 0.49699 6.7119 2.7247 5.3356 11.175 1.6634 11.302-0.31635-0.72821 0.45354-1.0466 0.80257-1.5493 1.3348-2.5688-1.8468-2.8706-1.996-4.9552 0.24881-0.94466 1.1656-1.5938 2.1426-1.3032-0.97702-2.1309-3.3109-3.5314-5.6092-3.6919 0.98173 0.79795 1.9588 1.8266 1.9868 3.1758-0.55825-0.11152-1.1187-0.22816-1.6886-0.25832-0.04178 0.71879 0.05294 1.4354 0.07179 2.1567-0.83973-0.02796-1.6536-0.27245-2.3887-0.67738 0.9167 1.24 1.5326 2.6499 2.2978 3.9785 0.39301-0.15582 0.78426-0.31918 1.1726-0.48411-0.16744-0.64433-0.95817-1.2115-0.49762-1.907 0.34431-0.47469 0.92365-0.084203 1.3726-0.025761 0.45458 2.7162-0.94004 2.1403-1.7499 3.0501 0.48537 7.1517 0.53205 2.5176-0.33501 7.8441 0.2419 1.3119 1.3637 2.1657 2.2666 3.0403-0.93524 1.0097-2.4151 0.15586-3.5528 0.01166-0.58841 0.51647-0.97941 1.2637-1.4585 1.8917 0.07665 1.0166 0.63057 1.9448 0.62586 2.9753 0.08513 2.2164-2.6072 1.7223-2.2893 0.48166-0.02105-0.819 0.89082-0.85833 1.4843-0.77006 0.02545-0.71187 0.0068-1.4773-0.34667-2.1126-0.93052 0.38138-1.6214 1.1981-2.4218 1.796-1.1237 0.92141-1.291 2.4402-1.3935 3.7893 0.31164 0.94215 1.377 1.2029 2.196 1.5309-0.0094 0.13728-0.0301 0.41186-0.04172 0.54914-0.53752 0.49542-1.2983 0.75837-2.0218 0.81178-3.1321-0.75208-2.2813-3.1852-0.77681-5.8954-2.773 1.8589-4.6064 6.1097-4.8128 7.5815 0.36756 0.15111 0.95362 0.13072 1.0142 0.63996 0.27457 0.73512-0.75139 0.88843-1.1934 1.2302 0.54914 1.6122 1.0774 3.5179 2.7151 4.3576 2.0056 1.2359 5.5938 0.5324 6.0274-1.475 0.03487-0.61637 0.14208-1.3797-0.40925-1.8101-0.5083-0.70025-2.5861-1.5043-2.631 2.1126-1.8139 0.14514-3.0928-3.4969 0.1399-5.1204 2.6797-0.8146 6.4248 3.6715 1.9794 7.0022 0.0016 0.12783-1.32e-4 0.2574-0.0013 0.38657-6.28e-4 0.06827 1.48e-4 0.13512-6.28e-4 0.20433 0.53029-0.11969 7.2648-2.7187 8.4049 2.4335 0.10461 0.59092 0.50526 1.2424 0.24482 1.8242-1.0351 0.58621-1.2655-1.2774-2.2868-1.1259-1.0631 0.45144-2.2707 1.1122-3.4293 0.57248-1.2331-0.60004-1.493-2.1563-1.1302-3.3662-2.9926 0.41751-6.3607 1.7843-9.3872-3.255 0.81837 3.8735 4.2976 5.5816 6.8929 13.451 3.3432 1.1234 3.5895 2.6883 4.1201 3.8851 1.326-0.33929-0.0939 1.0546 3.0618-4.1343-0.02545-0.06754-0.07493-0.19784-0.09817-0.26507-3.3828-0.28337-6.1046-1.4696-5.8181-4.8436 2.3599 1.6986-0.16705 0.76632 8.5054 2.2611 0.42599-0.12723 3.2691-2.1508 7.4973-2.1052 1.1492 0.02105 2.264-0.28872 3.3809-0.50987 1.0468-0.19792 1.777-1.2374 2.9121-1.1026-1.6744 6.8027-8.3986 4.2989-11.993 5.8954 0.56768 1.0794 0.83989 2.2704 0.94922 3.4802 5.5744-1.5425 4.4509-0.36307 6.9346-0.8676 0.26043-0.16996 0.43561-0.43545 0.63321-0.66572-0.30473-0.142-0.66563-0.18573-0.91915-0.416-0.03016-0.27457-0.04208-0.54682-0.03988-0.81668 0.49102-0.06283 1.066-0.31151 1.5033 0.04663 0.94812 0.58087-0.13385 2.3676-1.5309 2.6918-1.8146 0.13477-3.7058-0.27482-5.4553 0.37673 0.68391 0.28368 5.652 0.24572 7.2997 4.1343 0.54914 1.8661 0.91777 4.4333 3.1758 5.4248 0.01853 0.0999 0.05816 0.30255 0.0767 0.40498-8.2117 0.54757-3.8864-9.3505-11.704-9.3191-2.5007 4.9885-3.4771 3.5565-4.8088 5.9187 0.73983-0.44421 1.4283-1.1496 2.3635-1.0032 0.24661 0.37447 0.37218 0.991 0.94677 0.90932 1.2004-0.04901 2.4988 0.75403 2.6059 2.0267-0.07445 1.0911-0.96804 1.8006-1.6959 2.4936-0.64402 3.1582-4.6137 0.49118-5.6187 0.0068-0.14671 0.01162-0.43982 0.03746-0.58841 0.04909 0.23719 1.3191 0.47224 2.6499 0.94001 3.9128 2.1586 4.5496 1.5208 2.4825 2.736 4.2109 0.4838 0.66286 1.1285 1.198 1.9358 1.4094-0.43762-1.6286-1.1255-2.7593 0.2166-5.0079 2.1721-4.0416 6.5454-2.1369 4.7613-8.3914 0.86769 0.16053 1.238 1.0909 1.7334 1.7192 0.83973 1.1445 0.7583 2.594 0.87926 3.9386-1.7875 5.159-7.5287 3.1579-7.158 6.7879 0.52087 2.44 1.7111 2.5564 2.8986 6.0811 0.0041-0.42505-0.9942-9.7438 5.5854-9.7105 3.7959 1.4099 2.2529 5.1009-0.25341 4.1952-0.37698-0.20012-0.2791-0.69117-0.37428-1.0333 0.5815 0.03267 1.303 0.48176 1.7868-0.03252 0.50485-0.677-0.04932-1.582-0.58904-2.0567-1.2214-0.50265-2.6592 0.02325-3.527 0.95597-1.6314 1.8987-2.231 3.4708-1.7843 10.973 0.53281-0.73041 0.73534-1.6467 1.3124-2.347 1.2108-1.5695 4.0366-4.0061 5.8181-3.9687-1.3889 1.3446-2.7172 2.8239-3.4918 4.6222-1.512 4.0064-0.694 11.956-7.1721 14.626 3.3938-0.93555 4.4079-2.913 7.6098-3.4871 1.9581-0.44139 0.63453-3.3693 0.50007-4.7927-0.58213-2.8176 1.5203-5.3667 3.2568-5.4412 1.8259-0.23216 2.4638 1.9131 1.7051 3.6313-0.24441 0.04901-0.49087 0.08581-0.73999 0.11597 0.04901-0.81649 0.35839-1.5953 0.3166-2.4187-0.45144-0.13257-0.93046-0.45147-1.4026-0.22089-0.70025 0.35342-1.1422 1.1211-1.1143 1.9027 0.59501 1.7586 2.3175 3.7397 1.3376 5.2737-0.44673 0.66538-1.3217 0.44635-2.0009 0.51358-0.10242 0.40023-0.22333 0.8009-0.3025 1.2124 0.3396 0.36756 0.94937 0.23287 1.4008 0.4025 1.1633 0.23279 1.738 1.3725 2.366 2.2543 0.42568 0.59564 1.3471 0.83477 1.426 1.6469-2.9678 1.3257-0.84306 2.3491-4.8088 3.7384-0.0069 0.36065-0.01184 0.7234-0.01656 1.091 0.42819 0.028 0.8539 0.0537 1.2818 0.0816 1.6075 1.9456-0.29572 2.876-0.49332 4.5738-0.15582 0.65376-0.10234 1.4841 0.54669 1.8585 0.8212 0.5771 1.9331-0.60943 1.4468-1.4284-0.27457-0.25352-0.60226-0.43935-0.88846-0.67433-0.08388-0.80738 0.9932-0.59555 1.2769-0.10922 0.63271 0.94466 0.37234 2.3079-0.52583 2.9918-0.90728 0.41405-2.1076 0.29533-2.7636-0.51173-2.3995-3.1667-0.40941-5.1814-0.71665-7.8004-6.5272-1.5824-2.3221-1.9235-9.1563-3.6037 8.0722 2.6442 4.4899 11.141 9.3056 16.656 0.59564 0.81648 1.5909 1.2541 2.0936 2.1475-2.8582 0.44893-5.4594-3.2185-6.1672-4.041-0.05341 0.0697-0.16048 0.20912-0.21169 0.27918-0.25824-0.13949-0.33941-0.4702-0.51848-0.68414 0.15896 4.5053-3.953 5.3086-4.5879 8.8472-0.06346 2.7444 3.3627 2.7208 5.5461 5.2395 0.344 0.63114 0.75457 3.1252 0.09265 3.2754-0.73732-0.54192-1.3888-1.2264-2.2543-1.5751-1.7524-0.66287-5.7867-1.797-4.6639-6.3088 0.15833-0.98644 0.83235-1.7678 1.1185-2.7053-3.297 1.0882-6.4615 8.2654-5.7481 9.7567 0.63051-0.5793 1.14-1.3799 2.0309-1.58 0.80015-0.21174 2.1543-0.314 2.2334 0.80502 0.80486 0.0581 1.67 0.0864 2.3586 0.56328 1.0546 1.0496 0.98041 2.6664-1.2284 3.3938-0.02105 0.32326-0.03013 0.65401-0.07915 0.98418-0.26986 0.3396-0.68128 0.51672-1.0394 0.7492 1.2726 0.86549 2.0773 2.2375 2.3752 3.7378 6.4901 1.6192 4.3507-2.7944 6.8206-5.7855 1.026-0.86298 2.4965-1.1705 3.7994-0.94246-0.0094 0.24441-0.01825 0.49356-0.02516 0.74489-0.56988 0.13948-1.3051 0.12557-1.6192 0.7234-0.88623 1.3446-0.23545 3.064-0.90995 4.4761-1.4963 3.0853-3.2826 2.7657-6.7182 2.4384 1.2971 1.3955 4.6473 1.632 5.4412 1.9119 0.9899 0.28273 1.3492 2.4457-0.97683 1.9358 0.11404-0.4304 0.28345-0.83801 0.44176-1.2499-4.9127-0.83156-4.1239-1.4235-5.8948-2.4194-0.01853 1.8516-0.75664 3.7548-2.2058 4.9552 2.2047 1.0198 3.3878 0.0261 8.3521 0.32581 1.7816 0.11404 4.865 2.0176 4.313 3.9219-3.4293-0.49165 1.0602-0.6645-8.9631-0.67864-1.5425-0.1442-3.0036-0.8168-4.2668-1.6892-0.3374-0.20483-0.62363-0.66556-1.0726-0.52828-3.1752 0.78633-4.2505-0.2359-5.8832 3.206-0.66161-0.0305-0.92852-1.6656-0.9216-2.3034 0.71313-2.298 2.3913-3.5245 4.6994-3.6385-1.7524-3.4425-0.98509-3.304-1.5751-5.504-0.36756 0.51647-1.0283 0.94463-0.91425 1.6634 0.1376 2.3335-1.6375 4.4726-4.9806 4.357-1.294 4.908-3.7067 5.5297-4.5392 11.657 0.32452-2.4787 2.2919-4.1104 5.8954-2.9403 0.93524 0.21865 2.0333 0.61181 2.9151 0.0325 0.38861-0.71187 0.11112-1.8821 1.0511-2.1984 0.96068-0.64905 2.2175 0.14849 3.1084-0.62401 0.8655-0.49322 0.67684-1.5746 0.76512-2.4052 0.8102 0.69648 2.656 6.6186-5.0045 6.4603 2.424 1.1517 5.3579 1.1004 7.754-0.10247-0.30002-0.17435-0.60255-0.3423-0.90257-0.50252-0.17687-0.83753 0.70688-1.6214 1.491-1.175 0.65595 0.51082 1.6244 2.7529-3.8968 3.3269-2.1218 0.12346-3.9825-1.1074-6.0274-1.426 5.1088 2.5805 4.2197 5.2027 2.4893 5.788-0.90728 0.16996-1.4914-0.97488-1.005-1.6867 0.36976-0.0534 0.73996-0.10263 1.1075-0.14913-0.4373-1.4772-1.5541-2.6934-2.866-3.4614 1.5535 3.0096-1.2058 7.1819-3.8317 4.9897-0.49322-0.87711-0.91651-2.0589-0.40004-3.001 0.50956-0.27677 0.96354 0.44236 1.4775 0.50991 2.2123 0.71375 2.8124-3.9257-0.94491-3.8927-2.8808 0.17844-3.4167 4.2892-3.1918 5.8976 0.3839 0.13948 1.003 0.0881 1.0634 0.62096 0.17687 0.52338-0.41679 0.81413-0.69827 1.1584 0.60946 3.0429 2.7199 5.5206 5.1462 7.333-0.45835-0.77722-3.6649-3.8339-1.075-6.1094 0.74674-0.81177 1.9494-0.75567 2.9286-0.49272 0.0047 0.68863-0.68856 0.96546-1.1026 1.3984-0.7257 0.69553-0.70031 1.7931-0.69089 2.7261-0.03864 1.988 2.7335 4.4312 3.7293 3.9668-0.10713-0.59312-0.54958-1.3216-0.02149-1.8334 0.57239-0.51647 1.8801-0.29276 1.85 0.63996-0.12095 0.95157-1.1493 1.2838-1.8009 1.8236 0.56516 0.50956 1.107 1.0444 1.5978 1.6284 1.1702-0.27206 2.3567-0.52549 3.5644-0.51418-0.02545 0.30945 0.1673 0.77276-0.21659 0.94492-0.74674 0.45364-1.6054 0.91689-1.9984 1.7334 0.0094 0.76999 0.28639 1.5049 0.46325 2.2494 1.0885 3.872-0.01112 7.6817-0.06074 8.1605 0.95566 0.81994 3.0884 1.2009 2.3709 2.9894-0.32578 0.40243-0.89132 0.33787-1.345 0.26813-0.07665-0.63271-0.05306-1.3123 0.6007-1.6076-0.60035-0.40495-1.1891-0.84244-1.8567-1.1308-1.1812 2.7897-1.7835 2.5636-2.2911 3.8408 0.5793-0.21174 1.1771-0.37906 1.796-0.3976-0.04869 0.89346-0.08127 1.8357 0.49332 2.5893 0.32326 0.0883 0.64926 0.17407 0.97253 0.27428-0.14891 0.85136-0.74499 1.4841-1.3566 2.0518 1.5959-0.30944 3.1358-0.85629 4.613-1.5217-0.47594-1.0226-1.3424-1.7828 0.11658-3.943 0.52589-0.8234 0.82811-1.9966 0.28838-2.8759-0.42819-0.61638-1.1212 0.10269-1.6377 0.20982-0.17907-1.0072 1.1376-1.4099 1.9217-1.2959 2.2113 0.83974 2.8543 5.1817 0.8676 7.4907-1.1888 1.2632-2.9219 1.731-4.5713 2.0426 1.8027 0.19832 3.3241 0.48785 4.5424 1.8954h-0.94184c-1.2321-1.1549-3.1017-1.4836-4.7431-1.4855 0.53183 0.49124 1.0888 0.97202 1.6082 1.4855h-3.4588c-0.5089-0.29257-1.2111-0.38333-1.7377-0.37365 0.05754 0.14303 0.21739 0.23693 0.30741 0.37365h-1.5831c0.87451-0.32053 0.91953-1.715 0.04725-2.0978-0.59312-0.27677-1.4844 0.0929-1.5051 0.80257-0.10441 0.66874 0.54613 1.2304 1.1922 1.2952h-1.8671c0.02372-0.0921 0.09736-0.15588 0.10676-0.25521-0.26859 0.0367-0.58982 0.15513-0.90137 0.25521h-3.5914c0.19525-0.24469 0.39706-0.48583 0.66082-0.67307-1.5541 0.0185-3.0946-0.32804-4.6511-0.16751 0.3876 0.2403 0.73308 0.5433 1.0811 0.84058h-0.64546c-0.35647-0.28496-0.77382-0.49271-1.2358-0.59394-1.1e-4 0.0452 6.28e-4 0.54425 6.28e-4 0.59394h-1.6812c-0.25857-73.273-0.4057-114.86-0.68291-193.41h1.9131c-0.15918 6.1257-0.01797 77.301-0.0767 83.047 1.5353 0.46306 2.652 1.9213 2.8844 3.4846 0.30002 1.0097-0.05323 2.0216-0.29513 2.9986-0.2397 0.55825 0.2652 1.0171 0.41663 1.5242 0.33018 1.0446 0.14181 2.1519 0.06013 3.222 0.61417 0.61166 1.3284 1.2628 2.18 1.4978 1.5541-0.84225 3.3731-1.0308 5.1107-0.94001 1.1328 0.03016 2.1963 1.1239 3.2992 0.43994-2.2776-1.6097-5.3714-1.8332-7.8746-0.62586-2.5566-20.312 7.7555-14.143 4.8339-11.187-0.50265 0.61888-1.5606 0.10475-1.6536-0.62096 0.628 0.10241 1.2632 0.08095 1.796-0.30986-0.06283-0.6258-0.20732-1.4121-0.95657-1.5192-0.79575-0.05812-1.7776 0.02375-2.2985 0.71238-2.1963 2.4759 4.352 5.1223-0.50438 8.8215-1.0119 0.7235-0.72626 2.1213-0.67066 3.1887 0.51144-0.28085 4.9658-5.6658 8.9732-0.28838 0.70025-0.65124 1.4122-1.4071 1.6192-2.3703-0.92361-0.09079-1.8729-0.64666-2.1126-1.591-0.46998-2.7407 4.1167-5.0246 1.6057-9.5104-1.5136-2.6672-3.8465 0.46504-2.4985 1.9076 0.66758 0.07226 1.3936-0.65592 1.9751-0.05338 0.16273 1.0747-1.0447 1.4539-1.8125 1.8193-0.4216 1.9669-1.2423 3.1456-3.2659 2.8544 0.28148-0.92581 1.4116-1.3237 1.5652-2.3377 0.0465-1.2796-0.4302-2.5845-0.02086-3.8478 0.37699-1.8752 2.8524-2.9899 4.4553-1.8825 2.1714 1.5331 3.4928 5.5772 2.7053 8.3122-0.42222 4.2408-3.0502 6.5507-3.5452 7.4263 0.36285 0.89346 1.4517 1.2771 2.3543 1.2934 0.22336-0.60475 0.63249-1.2938 1.3701-1.2658 0.55605-0.01382 0.68856 0.63968 0.95842 1.005 1.545-0.39458 4.3642-2.3156 3.1127-4.6988-1.7734 0.12943-0.96002 1.8298-0.86578 2.2445-2.4397 0.05969-4.6174-6.1235 1.1124-7.1398-1.5972-7.0072-6.6959-12.297-7.8705-10.024-0.09079 0.73512 0.47733 1.2909 0.68907 1.9494-2.1369 0.08137-2.3522-4.3825 1.3793-2.8728 0.97702 0.28839 1.4143 1.2887 2.2285 1.8193-0.44673-0.85827-1.1189-1.5657-1.6818-2.3426-0.40243-0.60946-1.2148-0.57006-1.845-0.72588-3.7428-0.67009-4.9388 3.2848-6.5322 3.3944-1.0631 0.32578-2.1358-0.39558-3.1852-0.04909-1.1328 0.49794-2.1958 1.2563-2.7544 2.3961-0.15111 0.01162-0.45144 0.03501-0.60255 0.04663-0.02325-0.15362-0.06996-0.45873-0.09572-0.61235 2.5189-4.4695 7.4879-6.7179 11.967-6.1273-0.7059-0.19195-1.3956-0.46244-2.0751-0.73261-2.4243-0.96382-10.75-1.9096-8.4982 1.3419 0.41186 0.01634 0.82572 0.03511 1.2376 0.08161-0.8567 1.9456-3.9533-1.0808-1.4302-2.5991 0.98393-0.60506 2.212-0.47192 3.2961-0.27182-10.012-3.8688-5.7553-10.397-5.8279-12.642 0.0022-0.90728-0.50962-1.7031-0.62586-2.5893 4.9197 1.3584 3.1384 7.4696 3.3134 9.7595 1.0292 4.6548 6.388 5.6482 7.0078 5.8832 0.10807-0.02262 0.38616 0.02991 0.49517 0.04909-0.19698-0.76591-1.5637-2.2487 0.08713-2.4378 0.81931 1.25-0.71112 2.3382 4.406 3.7871-0.86298-1.4027-1.6633-2.8591-2.1144-4.4528-0.42097-1.0119-0.14678-2.3333-1.1492-3.036-1.267 2.0272-4.2244 3.4654-5.192 1.2235-3.9816-0.65815-2.6978-3.1016 0.02086-3.6288 0.22085-1.6424 2.3639-1.7845 3.527-1.0842-2.3879-3.0366-0.54148-3.7777 0.16505-4.3152 0.29782-0.56077 0.45584-1.1843 0.74674-1.745-0.63522-1.2726-2.031-2.1916-3.4802-2.0125-0.20232 1.3958-0.95346 3.0476-2.5261 3.2452-0.80486 0.35814-1.6335-0.88855-0.9216-1.4609 0.56077-0.53281 1.3171 0.55599 1.9058 0.04172 0.53281-0.3839 0.71407-1.0448 0.74674-1.6659-2.1761 0.28902-5.6717 1.8521-7.1929-1.4867-0.36756-0.8234-0.67958-1.6978-0.61235-2.612 0.76779 0.22807 1.2402 0.95358 1.9659 1.2768 1.7332 0.87241 3.713 0.265 5.5577 0.41173-0.36348-2.4708-2.7935-6.1012-4.1761-8.2698-0.92204 1.8689-1.8645 2.1003-3.6385 1.8634 0.1442-0.78633 0.7535-1.3609 1.0142-2.096 1.0477-2.8013-0.14498-3.7752-0.0068-7.7612-0.17687-0.0443-0.52819-0.13732-0.70254-0.18162-0.3374-0.8655 0.67-1.2095 0.8676-1.926 0.47532-1.3882 1.0214-4.6548 5.8744-7.8378-2.7215 0.76654-4.0567 3.4161-6.056 3.527-0.5771-2.0624 3.4139-3.2616 5.3903-4.0897-0.6792-0.07445-1.3397-0.27677-2.0236-0.31415-0.73292 0.30002-1.4072 0.80753-2.2353 0.80502 0.21865-0.59092 0.62787-1.0701 1.0001-1.5659-0.74894-0.5328-1.6517-0.93992-2.1144-1.7819-1.889-3.3159-2.0782-6.6384 1.6119-8.3213-0.67255-3.555 0.29544-4.2398-0.51412-6.0971-0.31635-0.97231-1.0541-1.7053-1.5518-2.5777 3.2873 0.66098 6.9466 3.8785 6.1854 7.1439 2.2962-1.1913 4.8788-1.6214 7.3355-2.366-0.49071-1.8912-1.8401-3.3589-3.0219-4.8502 0.0069 1.1074-0.04423 2.3242-0.81422 3.2034-0.5771 0.46997-0.93719-0.55354-1.5027-0.58841-0.48631 0.12095-0.8774 0.55345-1.3892 0.55345-0.94686-0.88874-0.79569-2.2911-0.5651-3.4428-0.88874 0.45615-1.8399 1.056-2.8844 0.83263-0.095503-0.56296-0.016116-1.1842-0.29759-1.6959-0.31887-0.26766-0.69591-0.45072-1.0449-0.67188 0.36536-0.78853 0.91416-1.4677 1.5192-2.0844-1.1143 0.039583-2.233 0.013666-3.3495 0.006754 0.4373 0.61888 1.2073 1.1796 1.0726 2.0334-0.02796 0.61637-0.94912 0.8791-1.2934 0.36263-0.41877-0.50705 0.19331-1.0071 0.34912-1.4818-0.33256-0.5274-0.87307-0.85485-1.4241-1.1185h7.6735c-0.7993 0.64571-2.0982 1.2207-1.8021 2.4592 1.2132 0.26558 2.9133-1.5524 1.8788-2.4592h0.82773c0.01998 0.064691-0.04433 0.14129-0.0098 0.1988 0.21384 1.001 1.9375 0.79179 1.9555-0.1988zm-6.034 40.155c0.3107-0.78916 3.7158-1.9558 4.0777-5.3837 0.07665-0.7235 0.15573-1.6004-0.46756-2.1169-0.35594 0.36285-0.55825 1.3589-1.2167 0.97253-0.21645-0.32326-0.2024-0.74232-0.11413-1.1008 0.1687-1.6449 4.0161-0.89729 2.1451 3.6552-0.30693 0.80486-1.0584 1.2954-1.5726 1.9561 1.3097-0.39081 2.5175-1.2632 3.9436-1.1376 2.1636 0 4.5197 1.2568 5.1455 3.4365 0.34902 1.0235-0.82095 2.6031-1.8818 1.8168-0.76308-0.63051-0.10722-1.5701 0.65837-1.7819-0.85827-1.9566-3.2681-2.8615-5.2853-2.5826-2.01 0.25352-3.429 2.0891-5.432 2.266zm-13.594-40.155c0.291 78.548 0.4455 120.22 0.71665 193.41h-0.87621c0.15918-0.39455 0.30938-0.80414 0.4019-1.3051 0.03958-0.83754-0.27195-1.6846-0.77678-2.3408-1.3449-0.98173-2.1513-0.34139-2.8176 1.0817 3.6238 0.93712 0.20463 3.7673-0.71175 1.9684-1.1463-1.9075 2.6899-4.516 3.2034-5.4437 1.8321-2.4661-0.16966-5.2602-1.256-4.7459-0.6258 0.34651-1.1406 0.87228-1.6291 1.3935 0.51427 0.54192 1.6821 0.39298 1.8285 1.3493 0.49542 1.2073-1.2492 2.1355-2.1402 1.3793-1.7674-2.0722 1.0354-4.1757 2.936-5.6947 1.496-1.1818 1.312-3.9455-0.38412-4.8436-0.6258 0.10242-1.1052 0.64659-1.5843 1.0443 0.23279 0.51647 1.0866 0.51415 1.1167 1.1701 0.26766 1.07-1.0121 2.0872-1.9684 1.48-0.37447-0.47217-0.56548-1.1426-0.39332-1.7266 0.62108-0.93524 1.3429-1.8373 2.2942-2.4562 3.3574-2.2786 2.2507-5.4751 0.80687-6.6095-0.6792 0.45144-1.3441 0.93524-1.8769 1.5585 0.39772 0.29531 0.93747 0.5285 1.0726 1.0566 0.17436 0.64433-0.08149 1.4166-0.64917 1.791-0.41657 0.10462-0.8888 0.13518-1.2934-0.0302-0.59092-0.45835-0.74238-1.3306-0.43074-1.996 1.3163-2.9157 6.8106-3.6992 2.9127-9.0897-0.53972 0.31416-1.2142 0.61885-1.3885 1.2842 0.30002 0.53972 0.93505 0.97228 0.83264 1.6634 0.05592 1.1027-1.4029 2.022-2.3218 1.2916-2.616-3.4318 8.7275-6.748 1.9616-11.939-0.78413 0.4838-1.4981 1.1212-1.7585 2.0402 0.58401 0.20012 1.4306 0.21881 1.6143 0.94922 0.06283 0.98864-1.0071 1.7376-1.9285 1.4652-1.2902-0.80643-0.33351-3.4752 2.2328-5.5131 1.4998-1.1646 2.7937-4.0658 0.3025-6.2206-0.52589 0.5793-1.2512 1.0698-1.4677 1.8561 0.47909 0.49542 1.2443 1.0304 0.97193 1.8309-0.08451 2.0354-3.5562 1.9493-2.0702-1.6211 0.76496-1.9895 6.4628-5.4214 2.5077-9.2707-0.44044-0.29908-1.6426 1.1278-1.9702 1.8837 0.54192 0.0792 1.2513-0.10653 1.6094 0.43318 1.005 0.819-0.30676 2.8732-1.4468 2.1218-0.73983-0.26986-1.1773-1.1078-0.97498-1.8684 0.31698-2.6348 6.8803-6.295 3.5104-9.7473-1.1021-0.98141-2.0171 0.15803-2.7403 1.5051 2.5613 0.89691 1.3931 2.3421 0.62155 2.8219-0.49794-0.0955-0.94466-0.36109-1.4143-0.54487-1.5692-3.3458 3.2251-4.4098 4.1245-7.9305 0.57239-1.4099 0.22287-3.2823-1.1707-4.0639-0.74674 0.78413-1.726 1.5356-1.9377 2.6544 2.3643 1.0135 1.2009 2.524 0.44852 2.8611-1.3471 0.28619-2.2447-1.4192-1.6585-2.5218 0.96602-2.8761 4.0287-3.4212 4.5025-6.8391 0.28714-2.0722-1.5591-3.8874-2.269-3.7202-0.7747 0.59564-0.99816 1.6025-1.1609 2.5145 0.7257 0.26766 1.5864 0.57503 1.861 1.3824-0.18975 3.6847-6.8476 0.17636 0.34912-5.8562 2.6034-2.1821 1.7034-5.3221 0.01165-6.9372-0.84225 0.74674-1.7495 1.5285-2.1077 2.6384 0.76088-0.0675 1.3817 0.34218 1.6585 1.0449 0.58621 0.76308 0.03057 1.7956-0.73691 2.1653-0.46526 0.0581-0.98434-0.0276-1.3708-0.30434-2.8001-2.6389 2.104-6.471 2.8992-7.9773 0.80486-1.3468 0.92786-3.0078 0.5694-4.5128-0.39835-1.6744-2.5744 0.0583-2.7795 0.97438 1.277 0.32106 1.5256 2.3006 0.42766 2.9587-1.884 0.71533-3.0318-2.8782-0.01841-4.9897 4.472-3.2333 2.4212-6.6205 1.0701-6.3836-0.3839 0.27928-0.88205 0.57943-0.97253 1.0818 0.26043 0.61197 0.89795 1.2417 0.49332 1.942-0.2862 0.75837-1.3794 1.0961-1.926 0.41908-1.8733-1.7677 3.3941-4.5116 3.9876-7.6889 0.03079-3.9398-1.7703-4.5332-3.1544-2.2868-0.5237 1.1844 1.9866 0.89383 0.62096 3.2568-0.26986 0.70245-1.3515 0.54217-1.6377-0.06259-2.058-3.6454 8.0606-7.6333 2.6887-12.26-0.48851-0.11875-0.7841 0.38892-1.1143 0.65407-2.1677 2.3844-0.5552 2.2455 0.0043 2.4629 1.3838 0.53783 0.90907 1.9385-0.11413 2.1261-1.0496 0.19226-2.8531-1.032-0.99706-4.5288 0.9123-1.8014 3.653-2.8208 3.8569-6.0745 0.02796-1.1259-0.62809-2.2494-1.6192-2.7728-0.6236 0.1932-1.1984 0.78633-1.3658 1.4401 2.2519 1.2623 0.79095 3.2663-0.19266 2.9943-2.7199-1.6411-0.93442-3.2779 1.2493-5.2948 1.8243-1.6616 2.9097-5.1524 0.40435-7.5212-0.68643 0.66287-1.5192 1.2862-1.7702 2.2611 0.41186 0.41406 1.1657 0.45376 1.3658 1.0818 1.0772 1.8783-2.0458 3.0235-2.3825 0.11413-0.05749-4.0152 7.431-6.5809 2.8151-10.89-0.71187 0.51396-1.3844 1.2026-1.4542 2.131 0.49322 0.34431 1.2008 0.62567 1.2658 1.3143 0.20012 0.76779-0.50029 1.598-1.2634 1.6143-0.60035-0.21174-0.98877-0.84454-1.1983-1.41 0.01382-1.6773 0.77929-3.3589 2.1518-4.357 2.1714-1.5384 2.931-4.3627 0.44915-6.0578-0.52338 0.30253-1.0562 0.60443-1.4401 1.086 0.34651 0.42097 0.90049 0.8169 0.81913 1.4358 0.07665 0.72821-0.45398 1.6075-1.2683 1.5192-4.9916-2.2902 7.5297-6.6943 2.1242-11.76-0.56296 0.47469-1.1328 0.94909-1.6751 1.4517 0.50956 0.40494 1.2538 0.67684 1.4284 1.3677 0.28305 2.4089-3.3637 2.4597-2.431-0.81913 0.47909-1.6144 2.2707-2.259 2.9968-3.7221 1.676-3.5801 0.22269-5.6589-1.0191-6.1995-0.9654 0.59784-1.7959 1.5514-1.9285 2.7194 0.73041 0.02105 1.6914-0.13038 2.1451 0.60255 0.14357 1.2346-0.2917 1.6586-1.6426 1.7475-0.5793-0.23719-0.90222-0.84259-1.0744-1.4125-0.70999-3.9288 3.6244-4.014 4.2037-7.1791 0.38641-2.9955-1.3159-3.8233-1.9285-3.9012-0.73983 0.28148-1.2169 0.95148-1.7076 1.5352 0.11875-0.0955 0.35801-0.2886 0.47676-0.38412 0.52338 0.32578 1.1723 0.61241 1.3935 1.2382 0.48851 1.1306-0.9838 2.5703-2.061 1.7978-1.1165-0.8212-0.5465-2.4123 0.12578-3.3429 0.84445-1.4027 2.5028-2.0003 3.3938-3.3611 2.2038-3.3662-0.23128-7.0276-3.0213-4.1717 3.4152 0.61449 1.6041 3.314 0.2485 2.7151-0.87932-0.56077-1.3791-1.7118-0.99524-2.712 0.62768-1.3886 5.0538-2.3743 4.4079-5.8954-0.37133-2.0241-2.9632-3.9285-4.0127-0.7676 0.44422 0.05812 0.93778-0.02114 1.3474 0.20003 1.6075 1.1897-0.50148 4.0187-1.8941 1.6659-0.33489-0.71878-0.1391-1.5235 0.15401-2.2169 0.78162-2.1843 3.768-2.7572 4.1588-5.1628 0.51427-1.6682-0.56742-3.3194-2.026-4.0686-0.35374 0.45835-0.84677 0.87445-0.96332 1.4726 0.15331 0.42568 2.0938 1.5957 0.83754 3.0569-0.85293 0.51553-3.7755 0.26945-0.97928-4.0802 0.42725-0.75384 1.4561-1.2757 2.2666-2.1236zm-5.6868 0c0.29365 0.43253 0.60735 0.73798 0.63751 1.1014-0.99744 2.6854-1.9262 2.7164 0.22764 6.7465-1.6911 2.6625-2.1735 5.3284 0.24482 7.4257-1.7762 2.2896-2.2699 4.2734 0.17671 7.0163l0.01841 0.20064c-0.68172 0.84916-1.5517 1.6445-1.7892 2.7544-0.53343 2.5852-0.36678 3.6888 1.5517 5.3972-1.8347 3.2135-2.4787 5.1974 0.18592 7.9497-2.2242 3.1419-2.0817 5.0755 0.27918 7.4722-2.3873 2.4664-2.9007 5.2231 0.12333 7.1464-0.91702 1.3741-3.5481 4.3231-0.36753 7.9305-1.8523 3.0464-2.2445 4.4912 0.03497 7.6374-2.2607 2.7727-1.9912 5.0695 0.09756 7.7147-1.808 2.2449-2.7499 5.9557-0.2442 9.0263-2.9813 4.1861-0.43347 6.7405-0.26507 7.2441-0.60349 1.775-2.4473 3.495 0.235 6.4537-3.2656 4.756-0.12572 7.4313 0.35587 8.1514-3.161 3.9684-2.4082 5.2363-0.16076 8.4288-2.9119 4.0545-2.2718 6.2209-0.25341 8.8073-2.7806 3.9907-1.6986 5.4638-0.1583 7.4539-2.49 2.555-1.8285 5.6937 0.10922 7.2881-0.7747 1.0889-1.7472 2.2312-1.6683 3.6593 0.13257 1.3587 0.89584 2.6704 2.1126 3.3335-3.5543 3.7934-0.90935 7.0104-0.60745 7.6047-1.0562 1.3983-1.6262 3.162-1.3051 4.9159-0.05812 1.191 1.1563 1.7167 1.8217 2.5053-2.43 2.6376-2.1551 4.8084-0.43011 7.0814 0.31164 0.28148-0.06755 0.61188-0.20923 0.8676-2.4278 3.3062-0.36288 5.1053 0.05338 6.2746-0.0999 0.69397-1.376 1.5219-0.95412 3.9477 0.16524 0.93743 0.96062 1.5538 1.4168 2.3445-1.4351 3.2515-2.7109 3.9257 0.48842 7.142-0.6775 0.91871-1.9637 2.3595-1.4272 4.3872h-1.1456c-0.24654-72.174-0.49674-128.56-0.80072-193.41zm-2.7887 0v193.41h-1.8856v-193.41zm23.057 0.24789c-0.02796 0.84445 0.68665 1.4026 1.2867 1.8751 0.40463 0.28557 0.92295 0.034384 1.3628-0.019006 0.39772-1.2692-1.4249-1.6893-2.6495-1.8561zm-1.3167 1.456c-0.8545-0.40903-1.4971 2.4487-0.67248 3.0427 1.278 0.39175 1.7148-1.6237 0.67248-3.0427zm-5.4694 6.0764c-0.39803 1.726-0.32835 3.6385 0.5651 5.2043 1.742-2.1595 0.9818-5.5747-0.5651-5.2043zm10.404 1.7235c-2.5333 0.78162-5.1273 1.389-7.5746 2.431 1.2896 0.04869 4.363-0.24631 6.339 2.8544 0.39521 0.59124 0.56554 1.2937 0.86084 1.9358l0.1583-0.10922c0.13257-0.76308 0.24894-1.5265 0.50497-2.2617 0.03016-1.617 0.06284-3.2612-0.28838-4.8502zm-7.4555 3.565c-0.56598 0.081-1.0978 0.24552-1.5014 0.49024 1.3936 1.0446 3.2989 1.4838 5.0038 1.1093 0.20334-1.3357-1.8044-1.8426-3.5022-1.5996zm-4.0601 0.362c-5.1355 2.2685-0.95578 9.2726 0.97438 8.7614 0.6437-4.3532-2.139-2.8672-0.97438-8.7614zm1.5886 0.43749c-0.32138 1.8632-0.67926 4.6602 1.2333 4.3363 0.28871-1.1244-0.29807-3.6436-1.2333-4.3363zm2.6734 1.6518c0.94686 1.4096 2.0936 2.6728 3.0194 4.0988 0.44641 0.66318 0.8163 1.375 1.291 2.0168 0.57239-0.535 1.0449-1.1744 1.3591-1.8954-2.01-0.83691-1.3559-1.9611-5.6695-4.2204zm-0.10247 0.65837c0.11152 1.6958 0.08804 3.4667-0.53997 5.0695-0.23719 0.70967-1.0048 1.1981-0.99094 1.9819 1.8821 0.26514 3.9499-0.02579 5.4829-1.2167-1.1027-2.0822-2.5447-3.9571-3.9521-5.8345zm11.185 34.5c-3.517 2.3722-3.3357 3.7871-3.4544 4.3737 0.32798 0.50265 0.74222 0.96851 0.84244 1.5849 0.45866-0.0066 0.91673-0.0068 1.3726 0.0092 0.80266-1.0794 1.8982-1.8777 3.0053-2.6175 0.32578-1.382-0.76531-2.5591-1.7659-3.3501zm1.7082 4.3693c-1.3003 0.49542-2.8385 1.7286-2.35 3.2942 1.0958-0.79795 2.0453-1.9541 2.35-3.2942zm-6.3739 1.7125c-0.27457 0.66538-0.09562 1.3656 0.04418 2.0426-0.44673-0.13509-0.89817-0.32075-1.3751-0.2485 0.01791 1.6967 1.2605 3.9128 2.3776 3.6385 1.1325-0.98236 1.6257-2.5506 1.4419-4.0183-1.3276-0.13257-1.0888 0.3969-1.6769-1.3793-0.26986-0.01634-0.54192-0.02805-0.81177-0.03497zm4.5662 4.6266c-1.7954 0.19415-4.1914 3.8999 0.94922 3.3926-0.02796-0.30473-0.05365-0.60472-0.0816-0.90505 0.4838-0.25352 0.96084-0.51179 1.4333-0.78416 0.01162-0.12315 0.03261-0.36561 0.04172-0.48656-0.80266-0.28839-1.6142-0.0065-2.4052 0.17732 0.03707-0.46526 0.06479-0.931 0.06259-1.3941zm-8.3681 0.59334c0.01634 0.48851 0.20468 0.94206 0.38594 1.391-0.85136-0.13666-1.8585-0.23894-2.5286 0.42643-0.29782 0.1932-0.17223 0.56488-0.19328 0.8627 0.71187 0.16996 1.4449 0.12106 2.1684 0.10001 0.2909 0.23028 0.21881 0.67037 0.34667 0.99584 2.2135-0.21991 3.2584-1.9746 2.3402-2.6636-0.6748-0.63522-1.5376-1.2613-2.5194-1.1124zm4.3435 1.2026c-0.24488 0.07127-0.45147 0.24988-0.52828 0.53136-0.03707 0.64182 0.82604 0.96486 1.3167 0.65102 0.35814-0.23719 0.32594-0.86085-0.03252-1.0701-0.22792-0.14781-0.51107-0.18356-0.75592-0.11228zm5.2222 11.423c0.81586 1.7618 3.2248 3.975 4.5694 9.7683-0.04241-0.31541 0.39524-6.9092-4.5694-9.7683zm-19.639 9.3499c-0.10461 2.1614-0.19054 4.341-0.03252 6.5046 3.0611-1.617 2.3987-5.4911 0.03252-6.5046zm1.7469 6.4279c-0.61417 0.26766-1.177 0.64194-1.826 0.83264-0.07917 1.0003-0.04893 2.01 0.04909 3.0102 1.0213 0.06063 1.6327-0.8468 2.1586-1.5775 0.25352-0.76748-0.08383-1.5604-0.38163-2.2653zm27.791 4.0802c-0.96068 0.64433-1.8126 1.6633-3.0642 1.6702 1.0772 0.19069 2.1036 0.61175 2.9575 1.3051 1.2004 0.5793 3.3194-0.83075 2.447-2.2077-0.54914-0.64684-1.5074-0.99317-2.3402-0.7676zm-1.4542 0.16996c-1.3631 0.24881-2.6569 0.78834-3.9502 1.2768 1.3678-0.13729 2.9057-0.27911 3.9502-1.2768zm-25.794 0.39269c-0.73292 0.59092-1.5563 1.0402-2.4494 1.345 0.0022 0.35594-0.0025 0.71891-0.0074 1.0818 0.71187 0.15833 1.2398 0.69328 1.9027 0.95842 0.78853-0.74203 1.5151-1.5544 2.3991-2.1893-0.57679-0.42348-1.1404-1.0982-1.845-1.1959zm5.886 0.45405c-1.1338 0.11388-2.0695 0.4515-2.4875 0.82833 2.0404 0.42097 4.1688 0.21614 6.1647-0.31415-1.2115-0.5182-2.5433-0.62806-3.6772-0.51418zm5.8659 0.3117c-0.23196 0.01068-0.4586 0.06812-0.67615 0.20187 0.33049 0.22336 0.6513 0.47937 1.0308 0.61665 0.62328 0.01885 1.2142-0.25087 1.7935-0.451-0.7066-0.01037-1.4523-0.39954-2.1482-0.36753zm-1.0983 0.63261c-0.16458-0.07324-0.33998-0.09121-0.5203 0.02394-1.8843 0.80958-3.9872 0.92361-6.0044 0.69334-0.66758-0.03707-1.3025-0.7093-1.961-0.30434-0.96791 0.54223-1.652 1.447-2.401 2.2402 0.85858 1.6446 1.005 3.5663 0.48166 5.3412 0.03927 3.0429 0.57572 3.6788-2.5611 6.3371-0.22902 15.984-0.04008 79.431 0.15155 80.866 0.94215-0.11875 1.8981-0.43489 2.3445-1.3444-0.4838-0.24661-0.78174-0.68872-0.96332-1.1867 1.7835-1.124 2.3935 1.9672-0.39332 2.8943 1.4354 0.0116 2.9107-0.0816 4.3042 0.30923-0.90508-0.53281-1.687-1.3167-2.1058-2.2893 0.46746-0.0465 0.93279-0.0813 1.3984-0.12085 0.53029-0.81649 0.54434-1.8077 0.55345-2.7452 1.3889 0.36756 2.8106 0.9092 3.6992 2.1052-0.59564-1.5937-0.59089-3.3872-0.13254-5.0111 0.08608-0.0163 0.25569-0.0462 0.34177-0.0626 0.41877 0.51647 0.85604 1.0584 1.4935 1.3192 0.81649-0.0606 1.3008-0.87712 2.0359-1.1517 0.47909 0.66758 0.5581 1.5195 0.87005 2.2684 0.94215-1.1586 1.768-2.4198 2.2819-3.8277-3.921-1.8064-4.4525-1.2613-8.524-4.6222 1.4307 6.0497-3.6272 8.3471-6.0996 6.2115 0.65595-0.80015 1.6355-1.3796 1.9518-2.4151 0.47909-1.1749-0.19758-2.3891-0.05338-3.5895-0.0022-0.37919 0.1209-0.84891-0.24666-1.0977-3.3633-3.1858-1.5864-8.1316 1.005-9.6106 0.05341-0.26043 0.10735-0.51411 0.16076-0.76512 1.7074 0.46997 3.4218-0.27231 5.1455-0.0283-5.6507-1.2736-6.733-1.8101-7.344-2.6844-0.40746-1.2057 3.244-0.64927 6.1439 1.6192-1.845-1.6729-3.0756-3.0538-4.4104-6.6654-0.47908-0.0697-1.3077 0.12343-1.3517-0.57431-0.16053-0.60474 0.52363-0.95396 0.85412-1.34-0.22556-1.4728-0.41669-2.9548-0.41418-4.4437-0.0267-3.0118-1.3759-4.2873-1.6143-5.3343 1.4401-0.42096 2.9241 0.67722 3.3545 2.0334 0.88403-2.6521 2.682-4.8923 3.4519-7.5887-1.8331 0.021-3.7457-0.64424-5.5137 0.11412-0.76999 0.27457-1.1929 1.0143-1.842 1.4585-0.17687-1.4492 0.34884-3.0127 1.5793-3.8619 1.6936-1.5541 4.1525-1.098 6.2111-0.78416 0.22085-1.147-0.14398-2.6634-1.3444-3.1029 0.01853 0.58402 0.12338 1.617-0.78171 1.4493-1.0028 0.142-1.3443-1.2238-0.66513-1.8125 2.1406-1.376 3.4962 1.0635 3.5685 3.6502 3.6904 1.0207 3.9408-0.17703 3.8387-1.6818-1.3097-0.0606-2.0032-1.3474-1.9567-2.5384-0.59187-0.10776-2.2453 0.0249-0.79767-3.0428-0.74674-0.13037-1.5052-0.23043-2.2334-0.45159-0.18158-0.38139-0.14882-0.81184-0.20003-1.2143-0.52809-0.28368-1.2286-0.47463-1.4425-1.1026-0.56768-1.523 0.2224-2.1363 2.0168-2.6801 1.0515-2.2132 3.8295-1.3493 4.9969 0.83754 0.22556 0 0.45185 3e-3 0.67738 7e-3 0.47469-3.064 1.9767-5.9162 3.8845-8.3264-4.1289 0.96854-2.7262 2.7973-3.7595 3.6244-1.07-0.16744-0.55775-1.4984-0.47858-2.215-13.123 4.5697-8.8984 10.798-8.9173 12.8 0.15425 2.3103-1.0622 4.5018-3.757 4.9338 0.20232-0.86769 1.0094-1.4836 1.0186-2.4144 0.30316-4.449-4.7541-7.2318 5.6347-13.379-5.2131 0.64496-4.253-2.7829-2.7869-2.8495 0.6792-0.23028 1.9797 0.067 1.861 0.93693-0.677 0.26986-1.5075-0.38603-2.1518 0.23255 0.9789 2.9367 4.6454 0.33979 10.95-1.3302-6.3189-0.24661-12.06-2.8766-12.111-5.5002 0.95157 0.29311 1.4706 1.3217 2.4733 1.5567 2.031 0.46526 4.1475-0.7633 6.1389 0.0742 2.1944 0.73984 1.5963 3.116 6.0811 2.4776 0.31164-0.0697 0.69786-0.0584 0.89766-0.35405 1.3675-1.6236 3.326-5.0632 3.7827-6.1995-1.169 1.4162-1.7027 2.8129-4.4528 3.5735-1.7084 0.42159-2.7108-3.0152 0.39332-2.9084 0.01382 0.15362 0.0393 0.45879 0.05093 0.6099-0.71407 0.13257-1.5122 0.61398-1.1425 1.4609 2.1818 0.10838 5.5948-2.915 6.2162-7.2648-4.8188-1.0631-3.7463-5.4418-1.9868-7.1278 0.36285 0.32798 0.55398 0.77206 0.68907 1.2351 0.32107 0.0141 0.63956 0.0166 0.95842 0.0166 0.64213-1.8868-1.3867-3.4714-3.0875-3.5807-1.1275 2.2113-1.7912 0.21352-2.3236-0.38839-0.81177 0.15111-1.6406 0.39568-2.1942 1.0541 6.7597 8.6948 0.51948 16.586-2.7562 14.281-2.3854-1.1379-0.12608-4.9087-1.7892-6.3623-0.56768-0.47217-0.79311-1.1772-0.64672-1.896 1.8139-0.099 3.3963 0.9325 2.782 3.6618 2.522-0.73072 2.0207 0.8185 1.5818 1.0026-0.62108 0.35343-1.5628 0.4353-1.7327 1.275-0.24881 0.65847-0.1492 1.9029 0.79767 1.8168 1.8661-0.12504 2.4491-3.6888 1.4401-5.4069-1.5441-2.6942 1.387-4.2555 1.2566-5.5178-0.27206-0.9632-1.0847-1.6286-1.6266-2.4335-2.2537 2.2248-3.745 3.6417-6.6255 2.3868-0.51427-0.23719-1.0494-0.48857-1.41-0.94001-0.37227-0.41626-0.58577-0.99521-1.1186-1.2443 0.15268 3.6866 2.5307 3.3036 2.2819 5.192 0.12786 1.4168-1.1236 2.3567-1.5119 3.6153-0.63176 2.4485 1.5404 3.9769 2.6028 3.3058 0.76057-0.23499 0.9123-1.0817 0.96822-1.7634-0.61417-0.23027-1.0635 0.23269-1.5008 0.59335-0.61417-0.64905 0.0328-1.552 0.81913-1.515 2.3442 0.30065 0.92562 4.641-2.1126 3.0452-2.6907-0.90256-2.3043-9.473-2.0844-13.034 2.4545 0.15017 2.4297 1.0814 7.1838-0.64735 0.28839-0.13037 0.67898-0.19019 0.74181-0.55775-0.13838-0.10587-0.29193-0.23478-0.4565-0.30802zm-13.134 2.8685c-0.01382 0.80486-0.033 1.6122-0.02576 2.4218 0.83754 0.59563 1.6286 1.2537 2.3543 1.9819 0.49542-1.8029-0.60226-3.7711-2.3285-4.4038zm0.10247 3.3944c0.08388 2.282 0.0534 4.5666 0.14419 6.8489 2.8368-1.6107 2.2902-5.8216-0.14419-6.8489zm24.567 5.8671c-1.5745 5.1968-2.998 6.2891-4.2926 8.3798 3.1921-1.2494 5.2442-5.0274 4.2926-8.3798zm1.3118 3.0053c1.2638-0.0204 0.08659 5.5247 1.7328 8.5048 2.1425 2.7548 4.7503 0.78476 3.1993-1.3352-0.38358-0.10901-0.78375-0.13682-1.1676-0.24175-0.27928-0.29782-0.22824-0.52316 0.15094-0.67678 2.4231-0.054 2.705 1.8562 1.8401 3.5521-1.2001 2.2811-4.7243 0.0958-5.4044-2.6568-0.39552-2.3637-0.23944-4.7642-0.35097-7.1464zm-15.491 14.788c0 0.35374 0.01109 0.71012 0.02271 1.0682-0.86518 0.0723-1.9979-0.24201-2.4678 0.71175 0.54914 0.61889 1.34 0.88874 2.1543 0.9167-0.12315 0.36976-0.24688 0.74659-0.34236 1.1327 1.0933 0.14671 2.3684-0.21657 2.9059-1.2517 0.38138-0.83502-0.43071-1.5237-0.87743-2.131-0.32106-0.44893-0.89735-0.47937-1.3953-0.4467zm7.4489 0.90995c-2.4451-0.40023-3.3696 2.8175-0.31415 3.527 0.40023 0.049 1.0583 0.19763 1.1818-0.32826-0.18598-0.32326-0.409-0.61872-0.61602-0.92345 1.5874-0.016 2.1889 0.23228 2.3629-1.3143-0.84696-0.20012-1.7328-0.16069-2.4795 0.32091 0.0047-0.41657 0.35352-1.0352-0.13499-1.2818zm-4.292 0.68168c-0.0047 0.34903 3.5e-5 0.70003 0.01166 1.056 0.42348 0.10933 0.85635 0.13536 1.2842 0.054-0.0069-0.36976-0.01885-0.73302-0.03988-1.0959-0.41406-0.10713-0.83722-0.10741-1.256-0.0141zm0.18837 2.0009c-1.5959 0.0371-2.394 1.9074-2.3101 3.2895 0.39301-0.17907 0.77241-0.38403 1.156-0.57001-0.18158 0.71879-0.34871 1.5027 0.03988 2.1936 0.05592 0.27897 0.59322 0.35798 0.67678 0.0718 0.33269-0.57239 0.35402-1.2559 0.47246-1.8886 0.36976 0.13038 0.83464 0.62762 1.2069 0.30434 0.55448-0.93963-0.19073-3.6093-1.2419-3.4004zm2.1126 1.256c0.30944 1.24 0.70493 2.6658-0.09081 3.8154-0.26986 0.0443-0.54192 0.0932-0.81178 0.14664 1.8793 10.723 5.6717 3.8685 5.6296 1.3842-2.7639-1.5375-3.598-3.1805-4.7271-5.3463zm0.7044 0.18101c0.44641 1.1913 2.4809 3.6907 3.925 4.2185-0.49793-1.9566-2.1919-3.3599-3.925-4.2185zm-7.3845 36.065c-1.0428-0.13053-2.107-0.0917-3.1305 0.12456 1.7904 2.032 3.2524 3.5908 2.3825 7.0352 0.94686-2.2449 1.7892-4.6856 3.7526-6.2677-0.93995-0.46165-1.9619-0.76163-3.0047-0.89217zm-4.6099 0.66023c-2.4985 0.25383-4.7202 6.8052-0.6142 8.8865-2.4265-2.784 0.40008-5.2027 0.70009-6.3205 0.15362-0.85387-0.01363-1.7168-0.0859-2.566zm8.0791 0.50927c-2.9443 2.3848-2.7001 5.4154-4.6756 7.1973 5.0271-2.7982 0.72475-0.53369 6.153-5.6438-0.15142-0.69994-0.92616-1.1348-1.4775-1.5536zm-6.2341 3.2992c-0.48348-0.19955-1.0914 0.11847-1.229 0.44425-0.98959 1.8654-0.61191 2.4055 0.02331 4.1754 0.7213-0.47688 1.4753-1.0814 1.6892-1.9586 0.35939-1.7445-1.9e-5 -2.4615-0.48352-2.6611zm9.37 0.84859c-1.026 1.2167-0.76098 3.0058-1.7634 4.2411-1.7162 2.1994-1.7152 2.48-5.9579 1.0959 1.7954 1.9946 6.6004 3.5462 8.0471 4.122 0.61072-2.1067 0.73666-7.1935-0.32581-9.4589zm-3.97 2.7605c-0.27862-0.13176-0.6465-0.13254-0.91054 0.0245-1.0863 0.54663-2.2196 1.0491-3.4642 1.056 2.5679 2.0527 4.6727 0.98726 4.7484-0.32088 0.09425-0.3652-0.09506-0.62786-0.37366-0.75962zm-6.7549 1.4787c-0.21614 1.2887-0.66519 2.7188 0.05829 3.9354 0.28619 0.59783 1.0961 0.4121 1.5334 0.10737 0.67292-1.0863-0.40978-3.5437-1.5916-4.0428zm6.2862 10.764c-0.80392-0.30096-1.2659 1.7986 0.06074 2.7734 0.34871-0.85387 0.75353-2.0594-0.06074-2.7734zm2.3513 1.9635c-0.71121 0.144-1.2897 0.84831-1.0854 1.6334 0.86078-0.0767 2.0358-0.48848 1.8168-1.5726-0.24253-0.0942-0.49432-0.10873-0.73138-0.0608zm-5.9359 0.36511c-0.31667 1.5937 0.73742 1.4203 2.0377 1.4008-0.32578-0.80958-1.093-1.5984-2.0377-1.4008z" fill="{{ border_color }}" stroke-width=".31415"/>
</svg>
