<?xml version="1.0" encoding="UTF-8"?>
<svg width="100" height="71.815" enable-background="new 0 0 1357.952 1628.382" version="1.1" viewBox="0 0 100 71.815" xmlns="http://www.w3.org/2000/svg">
 <path d="m0-0.0015134v71.892h3.3903c-0.014716-21.808-0.060135-46.202 0.010972-71.892zm5.627 0c-0.077503 25.816-0.0026528 49.84 0.0021523 71.892h4.5361c-0.21503-0.19772-0.39618-0.42795-0.63448-0.60124-3.4597-2.4511-4.6699-6.9509-0.71562-9.6518 0.83389 0.48202 1.6828 0.96303 2.2945 1.7304-0.55209 0.67072-1.4347 1.3015-1.3051 2.2876-0.12213 1.1602 0.72332 2.5612 2.0207 2.4205 7.953-3.6489-11.997-10.666-3.3845-18.737 0.89696 0.75631 1.8049 1.5122 2.6689 2.313-0.81187 0.64519-1.9976 1.0784-2.2759 2.1791-0.45098 3.8381 5.3592 3.919 3.8733-1.3051-0.76332-2.5723-3.6179-3.5992-4.7747-5.9304-2.6704-5.7041-0.35481-9.0162 1.6238-9.8776 1.5381 0.95252 2.8614 2.4718 3.0726 4.3327-1.1637 0.03354-2.6949-0.20774-3.4177 0.96003-0.22874 1.9671 0.46477 2.6426 2.6171 2.7842 0.92299-0.3779 1.4375-1.3425 1.7118-2.2505 1.1312-6.2597-5.7747-6.3954-6.6977-11.438-0.61566-4.7726 2.0966-6.0915 3.0726-6.2157 1.1788 0.44848 1.9389 1.516 2.7207 2.446-0.1892-0.15216-0.57041-0.45982-0.75961-0.61201-0.83389 0.51906-1.8678 0.97574-2.2201 1.9728-0.77833 1.8014 1.5675 4.0952 3.2838 2.8644 1.7789-1.3084 0.87073-3.8434-0.20041-5.3262-1.3454-2.2349-3.9876-3.187-5.4073-5.3552-3.5113-5.3632 0.3685-11.197 4.8138-6.6466-5.4413 0.97905-2.5557 5.2802-0.39593 4.3259 1.401-0.89346 2.1974-2.7273 1.5857-4.321-1.0001-2.2124-8.0521-3.7829-7.023-9.3931 0.59163-3.225 4.7213-6.2592 6.3933-1.223-0.70776 0.092599-1.4942-0.033686-2.1468 0.3187-2.5612 1.8955 0.79901 6.4029 3.0179 2.6542 0.53357-1.1452 0.22162-2.4274-0.24538-3.5321-0.46106-1.2885-2.1579-2.2007-3.1938-3.0638zm7.5 0c2.6503 3.1556 3.2376 7.1567-0.067062 10.022 2.83 3.6479 3.6166 6.8088-0.28155 11.179l-0.02933 0.31968c1.0862 1.3529 2.4723 2.6201 2.8507 4.3885 0.84991 4.1189 0.58438 5.8773-2.4724 8.5992 2.9231 5.12 3.9493 8.2809-0.29621 12.666 3.5438 5.0059 3.3167 8.0867-0.44481 11.905 3.8036 3.9297 4.6216 8.3219-0.1965 11.386 0.2489 0.37298 0.61971 0.91298 0.96784 1.4244h4.0825c-5e-3 -23.559-0.05585-47.531 0.03343-71.892zm6.1446 0v71.892h3.0042v-71.892z" fill="{{ border_color }}" stroke-width=".50054"/>
 <path d="m99.687-0.0015134v71.892h-3.3903c0.01472-21.808 0.06013-46.202-0.01096-71.892zm-5.627 0c0.0775 25.816 0.0025 49.84-2e-3 71.892h-4.5361c0.21503-0.19772 0.39618-0.42795 0.63448-0.60124 3.4597-2.4511 4.6699-6.9509 0.71562-9.6518-0.83389 0.48202-1.6828 0.96303-2.2945 1.7304 0.55209 0.67072 1.4347 1.3015 1.3051 2.2876 0.12213 1.1602-0.72332 2.5612-2.0207 2.4205-7.953-3.6489 11.997-10.666 3.3845-18.737-0.89696 0.75631-1.8049 1.5122-2.6689 2.313 0.81187 0.64519 1.9976 1.0784 2.2759 2.1791 0.45098 3.8381-5.3592 3.919-3.8733-1.3051 0.76332-2.5723 3.6179-3.5992 4.7747-5.9304 2.6704-5.7041 0.3548-9.0162-1.6238-9.8776-1.5381 0.95252-2.8614 2.4718-3.0726 4.3327 1.1637 0.03354 2.6949-0.20774 3.4177 0.96003 0.22874 1.9671-0.46477 2.6426-2.6171 2.7842-0.92299-0.3779-1.4375-1.3425-1.7118-2.2505-1.1312-6.2597 5.7747-6.3954 6.6977-11.438 0.61566-4.7726-2.0966-6.0915-3.0726-6.2157-1.1788 0.44848-1.9389 1.516-2.7207 2.446 0.1892-0.15216 0.57041-0.45982 0.75961-0.61201 0.83389 0.51906 1.8678 0.97574 2.2201 1.9728 0.77833 1.8014-1.5675 4.0952-3.2838 2.8644-1.7789-1.3084-0.87073-3.8434 0.20041-5.3262 1.3454-2.2349 3.9876-3.187 5.4073-5.3552 3.5113-5.3632-0.3685-11.197-4.8138-6.6466 5.4413 0.97905 2.5557 5.2802 0.39593 4.3259-1.401-0.89346-2.1974-2.7273-1.5857-4.321 1.0001-2.2124 8.0521-3.7829 7.023-9.3931-0.59163-3.225-4.7213-6.2592-6.3933-1.223 0.70776 0.092599 1.4942-0.033686 2.1468 0.3187 2.5612 1.8955-0.79901 6.4029-3.0179 2.6542-0.53357-1.1452-0.22162-2.4274 0.24538-3.5321 0.46106-1.2885 2.1579-2.2007 3.1938-3.0638zm-7.5 0c-2.6503 3.1556-3.2376 7.1567 0.067061 10.022-2.83 3.6479-3.6166 6.8088 0.28155 11.179l0.02933 0.31968c-1.0862 1.3529-2.4723 2.6201-2.8507 4.3885-0.84991 4.1189-0.58438 5.8773 2.4724 8.5992-2.9231 5.12-3.9493 8.2809 0.29621 12.666-3.5438 5.0059-3.3167 8.0867 0.44481 11.905-3.8036 3.9297-4.6217 8.3219 0.1965 11.386-0.2489 0.37298-0.61971 0.91298-0.96784 1.4244h-4.0825c5e-3 -23.559 0.05585-47.531-0.03344-71.892zm-6.1446 0v71.892h-3.0042v-71.892z" fill="{{ border_color }}" stroke-width=".50054"/>
</svg>
