<?xml version="1.0" encoding="UTF-8"?>
<svg width="200" height="143.63" enable-background="new 0 0 1357.952 1628.382" version="1.1" viewBox="0 0 200 143.63" xmlns="http://www.w3.org/2000/svg">
 <path d="m0 0v143.63h6.7734c-0.0294-43.57-0.12014-92.306 0.021921-143.63zm11.242 0c-0.15484 51.577-0.0053 99.574 0.0043 143.63h9.0625c-0.42959-0.39502-0.79151-0.85499-1.2676-1.2012-6.912-4.897-9.3297-13.887-1.4297-19.283 1.666 0.963 3.362 1.924 4.584 3.457-1.103 1.34-2.8664 2.6003-2.6074 4.5703-0.244 2.318 1.4451 5.1169 4.0371 4.8359 15.889-7.29-23.968-21.309-6.7617-37.434 1.792 1.511 3.606 3.0211 5.332 4.6211-1.622 1.289-3.9909 2.1545-4.5469 4.3535-0.901 7.668 10.707 7.8296 7.7383-2.6074-1.525-5.139-7.2281-7.1907-9.5391-11.848-5.335-11.396-0.70885-18.013 3.2441-19.734 3.073 1.903 5.7167 4.9383 6.1387 8.6562-2.325 0.067-5.3841-0.41503-6.8281 1.918-0.457 3.93 0.92854 5.2795 5.2285 5.5625 1.844-0.755 2.8719-2.6821 3.4199-4.4961 2.26-12.506-11.537-12.777-13.381-22.852-1.23-9.535 4.1887-12.17 6.1387-12.418 2.355 0.896 3.8736 3.0287 5.4355 4.8867-0.37799-0.304-1.1396-0.91866-1.5176-1.2227-1.666 1.037-3.7315 1.9494-4.4355 3.9414-1.555 3.599 3.1316 8.1816 6.5605 5.7227 3.554-2.614 1.7396-7.6786-0.40039-10.641-2.688-4.465-7.9667-6.3672-10.803-10.699-7.015-10.715 0.73622-22.37 9.6172-13.279-10.871 1.956-5.106 10.549-0.79102 8.6426 2.799-1.785 4.39-5.4488 3.168-8.6328-1.998-4.42-16.087-7.5577-14.031-18.766 1.182-6.443 9.4324-12.505 12.773-2.4434-1.414 0.185-2.9851-0.0673-4.2891 0.63672-5.117 3.787 1.5963 12.792 6.0293 5.3027 1.066-2.288 0.44277-4.8496-0.49023-7.0566-0.92113-2.5742-4.3112-4.3967-6.3808-6.1211zm14.984 0c5.295 6.3045 6.4682 14.298-0.13398 20.023 5.654 7.288 7.2255 13.603-0.5625 22.334l-0.0586 0.63867c2.17 2.703 4.9393 5.2346 5.6953 8.7676 1.698 8.229 1.1675 11.742-4.9395 17.18 5.84 10.229 7.8902 16.544-0.59179 25.305 7.08 10.001 6.6263 16.156-0.88867 23.785 7.599 7.851 9.2334 16.626-0.39258 22.748 0.49727 0.74515 1.2381 1.824 1.9336 2.8457h8.1562c-0.01-47.067-0.11158-94.96 0.066791-143.63zm12.276 0v143.63h6.002v-143.63z" fill="{{ border_color }}"/>
 <path d="m199.16 0v143.63h-6.7734c0.0294-43.57 0.12014-92.306-0.0219-143.63zm-11.242 0c0.15484 51.577 5e-3 99.574-4e-3 143.63h-9.0625c0.42959-0.39502 0.79151-0.85499 1.2676-1.2012 6.912-4.897 9.3297-13.887 1.4297-19.283-1.666 0.963-3.362 1.924-4.584 3.457 1.103 1.34 2.8664 2.6003 2.6074 4.5703 0.244 2.318-1.4451 5.1169-4.0371 4.8359-15.889-7.29 23.968-21.309 6.7617-37.434-1.792 1.511-3.606 3.0211-5.332 4.6211 1.622 1.289 3.9909 2.1545 4.5469 4.3535 0.901 7.668-10.707 7.8296-7.7383-2.6074 1.525-5.139 7.2281-7.1907 9.5391-11.848 5.335-11.396 0.70885-18.013-3.2441-19.734-3.073 1.903-5.7167 4.9383-6.1387 8.6562 2.325 0.067 5.3841-0.41503 6.8281 1.918 0.457 3.93-0.92854 5.2795-5.2285 5.5625-1.844-0.755-2.8719-2.6821-3.4199-4.4961-2.26-12.506 11.537-12.777 13.381-22.852 1.23-9.535-4.1887-12.17-6.1387-12.418-2.355 0.896-3.8736 3.0287-5.4355 4.8867 0.37799-0.304 1.1396-0.91866 1.5176-1.2227 1.666 1.037 3.7315 1.9494 4.4355 3.9414 1.555 3.599-3.1316 8.1816-6.5605 5.7227-3.554-2.614-1.7396-7.6786 0.40039-10.641 2.688-4.465 7.9667-6.3672 10.803-10.699 7.015-10.715-0.73622-22.37-9.6172-13.279 10.871 1.956 5.106 10.549 0.79102 8.6426-2.799-1.785-4.39-5.4488-3.168-8.6328 1.998-4.42 16.087-7.5577 14.031-18.766-1.182-6.443-9.4324-12.505-12.773-2.4434 1.414 0.185 2.9851-0.0673 4.2891 0.63672 5.117 3.787-1.5963 12.792-6.0293 5.3027-1.066-2.288-0.44277-4.8496 0.49023-7.0566 0.92113-2.5742 4.3112-4.3967 6.3808-6.1211zm-14.984 0c-5.295 6.3045-6.4682 14.298 0.13398 20.023-5.654 7.288-7.2255 13.603 0.5625 22.334l0.0586 0.63867c-2.17 2.703-4.9393 5.2346-5.6953 8.7676-1.698 8.229-1.1675 11.742 4.9395 17.18-5.84 10.229-7.8902 16.544 0.59179 25.305-7.08 10.001-6.6263 16.156 0.88867 23.785-7.599 7.851-9.2334 16.626 0.39258 22.748-0.49727 0.74515-1.2381 1.824-1.9336 2.8457h-8.1562c0.01-47.067 0.11158-94.96-0.0668-143.63zm-12.276 0v143.63h-6.002v-143.63z" fill="{{ border_color }}"/>
</svg>
