<?xml version="1.0" encoding="UTF-8"?>
<svg width="80" height="125.79" enable-background="new 0 0 296.16 455.52" version="1.1" viewBox="0 0 80 125.79" xmlns="http://www.w3.org/2000/svg">
 <g fill-rule="evenodd">
  <path d="m248.21-174.01h0.479v0.48h-0.479z"/>
  <path d="m-0.19229-117.85c0.7-0.353 0.7 1.073 0 0.72z"/>
  <path d="m43.248 260.87c0.512-0.112 0.457 0.343 0.48 0.72-0.194-0.046-0.239-0.241-0.48-0.24z"/>
 </g>
 <path d="m64.426 0c0.02972 2.5289 0.28794 5.0259 0.07696 7.4316-0.083 0.943-0.41947 1.9149-0.48047 2.8809-0.304 4.846 0.94594 9.4954 0.96094 14.398 0.017 5.458 0.411 10.609 0 16.32 0.139 5.171-0.39247 10.974-0.48047 16.801-0.089 5.922-0.55347 11.952-0.48047 17.76 0.037 2.91 0.55247 5.8506 0.48047 8.6406-0.018 0.693-0.47347 1.2409-0.48047 1.9199-7e-3 0.618 0.22924 1.2739 0.24024 1.9199 0.033 1.985 0.141 4.3708 0 5.7598-0.228 2.244 0.09323 7.7958 0.24023 10.801 0.061 1.234 0.499 2.4616 0 3.5996 0.062-0.412-0.54247-1.5105-0.48047-0.47851 0.013 0.146 0.03623 0.28423 0.24024 0.24023 0.013 0.307 0.30828 0.33166 0.23828 0.72266 0.031 5.744-0.053 10.775 0 15.119 0.0078 0.63796-0.04809 1.2966-0.09766 1.957h2.2637c0.37392-3.9787-0.16424-7.9007-0.0039-12.758-0.23-0.87 1.0352-0.24371 1.1992-0.72071 1.609-4.311 5.5932-6.2476 8.1602-9.5996 0.261 0.059 0.16347 0.47552 0.48047 0.47852-0.80682 6.8089-0.4051 14.672-0.01758 22.6h2.0859c-0.0834-2.724-0.17764-5.4354-0.14844-8.2012 0.048-4.482-0.30823-9.0065-0.24023-13.439 0.26-16.984 0.5017-34.154 0.7207-51.119 0.114-8.809-0.47047-17.737-0.48047-26.879-0.009507-8.6441 0.048302-17.4 0.13987-26.154h-2.0708c-3.4498 0.16426-5.6565 0.5701-9.8288 0.23437 0.0084-0.084 0.01304-0.15091 0.02148-0.23437zm2.2371 3.1133c3.139 1.9 5.3482 4.7329 8.1602 6.9609-0.857 1.813-2.8653 2.4646-4.3203 3.5996-1.484 1.157-2.5153 2.8936-4.3203 3.5996-0.902-4.074 4.2933-4.7182 4.3203-7.1992 0.024-2.118-3.2291-2.7838-4.0801-4.8008 0.202-0.598 0.31424-1.2862 0.24024-2.1602zm-0.24024 4.8008c0.857 0.263 1.0349 1.2045 1.9199 1.4395-0.904 0.93499-0.53739 3.1441-2.4004 3.1211 0.141-0.907 0.10847-3.1826 0.48047-4.5606zm0.24024 13.199c3.237 2.123 5.4737 5.2464 8.6387 7.4414-1.23 2.448-4.09 3.7278-6 5.7598-0.694 0.738-0.87416 2.0132-2.1602 2.1602-0.102-1.055-0.46328-2.1949-0.23828-2.8809 0.679-2.066 4.1781-3.2191 4.0801-5.0391-0.135-2.531-5.8333-2.3494-4.3203-7.4414zm0.24023 6c1.133-0.013 1.3639 0.87741 1.9199 1.4414-0.279 1.161-0.92192 1.9554-1.9199 2.3984zm6.959 12.48c1.047 0.047 1.9726 0.893 2.6406 0 1.066 7.586 0.29447 13.539 0.48047 21.6-3.834-2.566-6.2951-6.5041-10.08-9.1191-0.042-3.044 0.03-7.9388 0-11.76 2.431-0.166 4.772-0.8197 6.959-0.7207zm-7.1992 15.119c3.975 2.345 6.1181 6.5229 10.08 8.8809 0.027 1.567-0.359 2.2256 0 3.5996-0.947-0.42-1.8756-1.2159-2.6406-1.9199-2.359-2.171-4.4567-5.0858-7.6797-6.7188-0.054-1.819-0.22276-2.4128 0.24024-3.8418zm5.8809 15.779c1.354-0.0509 2.6285-2e-3 3.959 0.30078-0.064 3.014 0.29323 6.0376 0.24023 9.6016-0.983 0.05-1.7544-1.1849-2.4004-1.9199-1.988-2.26-4.5512-4.9586-6.2402-7.6816 1.6535-0.099 3.0874-0.24991 4.4414-0.30078zm3.7188 13.742c0.468 0.122 0.56476 4.0726-0.24023 4.5606 0.637 0.951 0.53423 2.6154 0.24023 3.3594-2.518 0.357-4.9507-0.145-7.6797 0 2.34-2.86 5.2687-5.1309 7.6797-7.9199zm-0.24023 11.518c0.573-0.427 0.51547 3.4956 0.48047 3.6016-0.442 1.368-3.775 3.8151-5.041 5.0391-1.875 1.813-3.4928 3.641-4.7988 5.041-0.203-0.691 0.14-2.8943 0-4.3203 0.78-0.179 0.84969-1.0692 1.6797-1.1992 2.351-2.928 5.3917-5.1691 7.6797-8.1621z" fill="{{ border_color }}"/>
 <path d="m16.243 0c-0.02972 2.5289-0.28794 5.0259-0.07696 7.4316 0.083 0.943 0.41947 1.9149 0.48047 2.8809 0.304 4.846-0.94594 9.4954-0.96094 14.398-0.017 5.458-0.411 10.609 0 16.32-0.139 5.171 0.39247 10.974 0.48047 16.801 0.089 5.922 0.55347 11.952 0.48047 17.76-0.037 2.91-0.55247 5.8506-0.48047 8.6406 0.018 0.693 0.47347 1.2409 0.48047 1.9199 7e-3 0.618-0.22923 1.2739-0.24023 1.9199-0.033 1.985-0.141 4.3708 0 5.7598 0.228 2.244-0.09323 7.7958-0.24024 10.801-0.061 1.234-0.499 2.4616 0 3.5996-0.062-0.412 0.54247-1.5105 0.48047-0.47851-0.013 0.146-0.03624 0.28423-0.24023 0.24023-0.013 0.307-0.30828 0.33166-0.23828 0.72266-0.031 5.744 0.053 10.775 0 15.119-0.0077 0.63796 0.04809 1.2966 0.09766 1.957h-2.2637c-0.37392-3.9787 0.16424-7.9007 0.0039-12.758 0.23-0.87-1.0352-0.24371-1.1992-0.72071-1.609-4.311-5.5932-6.2476-8.1602-9.5996-0.261 0.059-0.16347 0.47552-0.48047 0.47852 0.80682 6.8089 0.4051 14.672 0.01758 22.6h-2.0859c0.0834-2.724 0.17764-5.4354 0.14844-8.2012-0.048-4.482 0.30823-9.0065 0.24023-13.439-0.26-16.984-0.5017-34.154-0.7207-51.119-0.114-8.809 0.47047-17.737 0.48047-26.879 0.0095-8.6441-0.04831-17.4-0.13988-26.154h2.0708c3.4498 0.16426 5.6565 0.5701 9.8288 0.23437-0.0084-0.084-0.01304-0.15091-0.02148-0.23437zm-2.2371 3.1133c-3.139 1.9-5.3482 4.7329-8.1602 6.9609 0.857 1.813 2.8653 2.4646 4.3203 3.5996 1.484 1.157 2.5153 2.8936 4.3203 3.5996 0.902-4.074-4.2933-4.7182-4.3203-7.1992-0.024-2.118 3.2291-2.7838 4.0801-4.8008-0.202-0.598-0.31423-1.2862-0.24023-2.1602zm0.24023 4.8008c-0.857 0.263-1.0349 1.2045-1.9199 1.4395 0.904 0.93499 0.53739 3.1441 2.4004 3.1211-0.141-0.907-0.10847-3.1826-0.48047-4.5606zm-0.24023 13.199c-3.237 2.123-5.4737 5.2464-8.6387 7.4414 1.23 2.448 4.09 3.7278 6 5.7598 0.694 0.738 0.87416 2.0132 2.1602 2.1602 0.102-1.055 0.46328-2.1949 0.23828-2.8809-0.679-2.066-4.1781-3.2191-4.0801-5.0391 0.135-2.531 5.8333-2.3494 4.3203-7.4414zm-0.24023 6c-1.133-0.013-1.3639 0.87741-1.9199 1.4414 0.279 1.161 0.92192 1.9554 1.9199 2.3984zm-6.959 12.48c-1.047 0.047-1.9726 0.893-2.6406 0-1.066 7.586-0.29447 13.539-0.48047 21.6 3.834-2.566 6.2951-6.5041 10.08-9.1191 0.042-3.044-0.03-7.9388 0-11.76-2.431-0.166-4.772-0.8197-6.959-0.7207zm7.1992 15.119c-3.975 2.345-6.1181 6.5229-10.08 8.8809-0.027 1.567 0.359 2.2256 0 3.5996 0.947-0.42 1.8756-1.2159 2.6406-1.9199 2.359-2.171 4.4567-5.0858 7.6797-6.7188 0.054-1.819 0.22276-2.4128-0.24023-3.8418zm-5.8809 15.779c-1.354-0.0509-2.6285-2e-3 -3.959 0.30078 0.064 3.014-0.29323 6.0376-0.24023 9.6016 0.983 0.05 1.7544-1.1849 2.4004-1.9199 1.988-2.26 4.5512-4.9586 6.2402-7.6816-1.6535-0.099-3.0874-0.24991-4.4414-0.30078zm-3.7188 13.742c-0.468 0.122-0.56476 4.0726 0.24023 4.5606-0.637 0.951-0.53423 2.6154-0.24023 3.3594 2.518 0.357 4.9507-0.145 7.6797 0-2.34-2.86-5.2687-5.1309-7.6797-7.9199zm0.24023 11.518c-0.573-0.427-0.51547 3.4956-0.48047 3.6016 0.442 1.368 3.775 3.8151 5.041 5.0391 1.875 1.813 3.4928 3.641 4.7988 5.041 0.203-0.691-0.14-2.8943 0-4.3203-0.78-0.179-0.84969-1.0692-1.6797-1.1992-2.351-2.928-5.3917-5.1691-7.6797-8.1621z" fill="{{ border_color }}"/>
</svg>
